<svg clip-rule="evenodd" fill-rule="evenodd" stroke-linejoin="round" stroke-miterlimit="1.5" viewBox="0 0 32 32" xmlns="http://www.w3.org/2000/svg" xmlns:xlink="http://www.w3.org/1999/xlink"><clipPath id="a"><path clip-rule="evenodd" d="m0 .017h32v32h-32z"/></clipPath><path d="m0 .017h32v32h-32z" fill="none"/><g clip-path="url(#a)"><path d="m32 5.745-.001.116-.005.127-.008.127-.012.126-.014.126-.017.124-.021.124-.023.123-.027.122-.029.12-.033.12-.035.118-.038.118-.041.115-.043.115-.046.113-.049.112-.052.11-.054.108-.056.107-.059.106-.062.104-.064.102-.066.101-.068.098-.071.097-.073.096-.075.093-.077.091-.011.013h1.23v7.419.078l-.002.091-.006.162-.011.167-.015.166-.019.166-.023.164-.027.163-.031.162-.035.16-.038.159-.043.158-.046.155-.05.155-.054.152-.057.151-.061.149-.065.147-.067.145-.072.144-.074.141-.078.139-.081.137-.084.134-.087.133-.09.13-.094.128-.096.125-.099.123-.102.121-.105.118-.107.116-.11.112-.113.111-.116.107-.118.105-.12.102-.123.099-.126.096-.128.093-.13.091-.132.087-.135.084-.137.081-.139.078-.141.074-.143.071-.146.068-.147.064-.149.061-.15.058-.153.053-.154.05-.156.047-.158.042-.158.039-.161.035-.162.031-.163.027-.164.023-.165.019-.167.015-.167.01-.162.006-.091.002-.078.001h-4.419v-3.786h-2v-5.048l-.047.015-.099.03-.099.029-.1.028-.1.027-.1.025-.101.024-.1.023-.102.022-.101.021-.102.019-.102.018-.103.017-.103.016-.103.014-.103.013-.103.012-.104.011-.104.01-.104.008-.104.007-.105.006-.104.004-.105.003-.105.002-.099.001h-2.398v-5.112l.001-.101.002-.107.003-.107.005-.106.005-.106.008-.106.008-.107.01-.105.011-.105.013-.106.013-.105.015-.104.017-.105.017-.104.019-.104.02-.104.021-.103.023-.103.024-.102.025-.103.026-.101.027-.102.029-.101.03-.101.031-.1.033-.1.033-.1.035-.099.036-.098.037-.099.039-.097.039-.097.041-.097.042-.096.043-.096.044-.095.046-.095.046-.094.048-.094.049-.093.05-.092.051-.092.053-.091.053-.091.055-.09.055-.089.057-.089.058-.088.059-.087.06-.087.062-.086.062-.086.064-.084.064-.084.066-.083.066-.083.068-.082.069-.08.07-.081.071-.079.072-.078.073-.078.074-.077.075-.076.076-.075.077-.074.078-.073.078-.072.08-.071.08-.07.081-.069.082-.068.082-.067.083-.065.084-.065.085-.063.085-.063.086-.061.087-.06.087-.059.088-.058.089-.057.089-.056.091-.054.09-.054.091-.052.092-.051.093-.05.093-.049.093-.048.094-.047.095-.045.095-.044.096-.043.096-.042.097-.041.097-.04.098-.038.098-.037.099-.036.099-.035.099-.034.1-.032.1-.031.101-.03.101-.029.102-.027.102-.027.102-.025.102-.023.104-.023.103-.021.103-.02.104-.019.104-.018.105-.016.105-.015.105-.014.105-.012.105-.011.106-.01.106-.009.106-.007.106-.006.107-.004.106-.004.107-.002h.101 2.398v4.143-.015l.001-.115.005-.128.008-.127.012-.126.014-.125.017-.125.021-.124.023-.123.027-.121.029-.121.033-.12.035-.118.038-.117.041-.116.043-.114.046-.113.049-.112.052-.11.054-.109.056-.107.059-.106.062-.103.063-.103.067-.1.068-.099.071-.097.073-.095.075-.093.077-.092.08-.089.081-.088.084-.086.085-.083.088-.082.089-.079.092-.077.093-.076.095-.072.097-.071.099-.069.101-.066.102-.064.104-.061.105-.059.107-.057.109-.054.11-.051.112-.049.113-.046.115-.044.115-.04.117-.038.119-.036.119-.032.121-.029.122-.027.123-.023.123-.021.125-.017.126-.015.126-.011.126-.008.128-.005.115-.001h2.015zm-9.474-2.871-.082.002-.082.002-.082.004-.081.004-.082.006-.081.007-.081.007-.081.009-.081.009-.08.011-.081.011-.08.013-.08.013-.08.014-.079.016-.079.016-.079.018-.079.018-.079.019-.078.02-.078.021-.078.022-.077.023-.077.024-.077.025-.076.026-.076.027-.076.027-.075.029-.075.029-.075.031-.074.031-.074.032-.073.033-.074.034-.072.035-.072.036-.072.037-.072.037-.071.039-.07.039-.07.04-.07.041-.069.042-.068.043-.069.043-.067.045-.067.045-.067.046-.066.047-.065.048-.065.049-.065.05-.064.05-.063.051-.063.052-.062.053-.061.054-.061.054-.06.055-.06.057-.059.056-.059.058-.057.059-.057.059-.056.059-.056.061-.054.061-.054.061-.053.062-.052.063-.051.063-.05.064-.05.064-.048.065-.048.066-.047.066-.046.066-.046.068-.044.067-.044.068-.043.069-.042.069-.041.07-.04.07-.039.07-.039.071-.037.071-.037.072-.036.073-.034.072-.034.073-.034.074-.032.074-.031.074-.03.075-.03.075-.028.075-.028.076-.027.076-.026.076-.024.077-.024.077-.023.077-.022.078-.022.078-.02.078-.019.078-.018.079-.018.079-.016.08-.015.079-.015.08-.013.08-.013.08-.011.08-.011.081-.009.081-.009.081-.007.081-.007.081-.005.081-.005.082-.003.082-.003.082-.001.082-.001.082v3.106h.392l.081-.001.08-.001.081-.003.08-.003.08-.004.08-.006.08-.006.08-.007.08-.009.079-.009.079-.01.079-.011.079-.012.079-.013.078-.014.078-.015.078-.016.078-.016.077-.018.078-.019.077-.019.076-.021.077-.021.076-.022.076-.023.075-.024.075-.025.075-.026.075-.027.074-.027.074-.029.074-.029.073-.031.073-.031.072-.032.072-.033.072-.033.071-.035.071-.035.07-.037.07-.037.07-.038.069-.039.069-.039.068-.041.068-.041.067-.042.067-.043.067-.044.065-.045.066-.045.065-.047.064-.047.064-.048.063-.049.063-.049.062-.05.062-.052.061-.052.06-.052.06-.054.059-.054.059-.055.058-.056v6.515h1.968.019.013v3.786h2.413l.059-.001.059-.001.118-.004.117-.008.116-.01.115-.013.114-.016.114-.019.112-.022.112-.024.11-.027.109-.029.109-.033.107-.034.106-.038.105-.039.103-.043.103-.045.1-.047.1-.049.098-.052.097-.054.095-.056.094-.059.092-.061.091-.063.089-.065.088-.067.086-.069.084-.071.082-.073.081-.075.078-.077.077-.079.075-.08.073-.083.071-.084.07-.085.067-.088.065-.089.063-.091.06-.092.059-.094.056-.095.054-.097.052-.098.05-.1.047-.101.045-.102.042-.104.04-.104.037-.106.035-.108.032-.108.03-.109.027-.111.024-.111.021-.113.019-.113.016-.114.013-.116.011-.116.007-.117.005-.117.001-.059v-.06-5.412h-2.413l-.104.001-.104.003-.103.006-.103.008-.101.01-.102.013-.1.015-.1.016-.099.019-.099.021-.097.024-.097.025-.096.027-.095.029-.094.032-.093.033v-4.282h-1.968l-.075.001-.075.002-.074.005-.074.006-.074.009-.074.01-.073.011-.072.014-.072.015-.072.017-.071.019-.071.02-.07.022-.07.024-.069.026-.068.027.014-.078.014-.078.013-.078.012-.078.011-.079.01-.078.009-.079.008-.079.007-.08.007-.079.005-.08.004-.079.004-.08.002-.08.002-.08v-.08-3.106h-.392-.082zm7.472-.857-.077.001-.077.003-.077.004-.076.007-.075.009-.075.01-.074.013-.073.014-.073.015-.072.018-.072.019-.071.021-.07.023-.069.025-.068.026-.068.027-.067.03-.066.03-.065.033-.064.034-.063.035-.063.037-.061.038-.06.04-.06.041-.058.042-.057.044-.056.045-.055.047-.054.048-.052.049-.052.05-.05.051-.049.053-.048.054-.046.055-.046.056-.043.057-.043.058-.041.059-.04.061-.038.061-.037.062-.035.064-.034.064-.032.065-.031.066-.029.067-.028.067-.026.069-.024.069-.023.07-.021.071-.02.071-.017.073-.016.072-.014.074-.012.074-.011.075-.009.075-.006.076-.005.076-.003.077-.001.078v3.716h.002l.077-.001.077-.003.077-.005.076-.007.075-.008.075-.011.074-.012.073-.014.073-.016.072-.018.072-.019.071-.021.07-.023.069-.024.068-.026.068-.028.067-.029.066-.031.065-.032.064-.034.063-.035.063-.037.061-.039.06-.039.06-.041.058-.043.057-.044.056-.045.055-.046.054-.048.052-.049.052-.05.05-.052.049-.052.048-.054.046-.055.046-.056.043-.057.043-.059.041-.059.04-.06.038-.062.037-.062.035-.063.034-.064.032-.065.031-.066.029-.067.028-.068.026-.068.024-.07.023-.07.021-.07.02-.072.017-.072.016-.073.014-.074.012-.074.011-.074.009-.076.006-.076.005-.076.003-.077.001-.077v-3.716h-.002z"/><path d="m12.417 10.017c-.273-.623-.417-1.301-.417-1.994 0-1.612 0-2.99 0-2.99h5.002c1.06 0 2.077.422 2.827 1.171.75.75 1.171 1.767 1.171 2.827v.014c0 .336-.041.662-.124.972h.124c2.761 0 5 2.238 5 5 0 1.137-.38 2.186-1.023 3.022 1.283.109 2.494.669 3.413 1.588 1.031 1.031 1.61 2.43 1.61 3.888v.004c0 1.458-.579 2.856-1.61 3.887s-2.43 1.611-3.888 1.611c-4.917 0-12.087 0-17.004 0-1.458 0-2.857-.58-3.888-1.611s-1.61-2.429-1.61-3.887c0-.002 0-.003 0-.004 0-1.458.579-2.857 1.61-3.888.919-.919 2.13-1.479 3.413-1.588-.643-.836-1.023-1.885-1.023-3.022 0-2.762 2.239-5 5-5z" fill="none" stroke="#000" stroke-width="4"/><path d="m21 10.716c-1.233 1.199-2.886 1.872-4.608 1.872-.247 0-.392 0-.392 0s0-1.384 0-3.106c0-1.753.696-3.434 1.935-4.673 1.24-1.239 2.92-1.935 4.673-1.935h.392v3.106c0 .428-.041.851-.122 1.265.362-.149.754-.228 1.154-.228h1.968v4.282c.495-.183 1.029-.282 1.587-.282h2.413v5.412c0 2.534-2.054 4.588-4.587 4.588-1.321 0-2.413 0-2.413 0v-3.786h-.013-.019-1.968zm9-8.699v3.716c0 1.656-1.342 2.998-2.998 2.998h-.002s0-1.927 0-3.716c0-1.656 1.342-2.998 2.998-2.998z" fill="#f08c00"/><path d="m21.032 6.017h.968v3.18c.322-.117.669-.18 1.032-.18h.968v4.781c.538-.486 1.25-.781 2.032-.781h1.968v3.968c0 1.674-1.357 3.032-3.032 3.032-1.049 0-1.968 0-1.968 0v-3.782c-.538.486-1.25.782-2.032.782-.558 0-.968 0-.968 0v-4.18c-.322.116-.669.18-1.032.18h-.968s0-2.077 0-3.969c0-1.674 1.357-3.031 3.032-3.031z" fill="#ffbf36"/><path d="m12.417 10.017c-.273-.623-.417-1.301-.417-1.994 0-1.612 0-2.99 0-2.99h5.002c1.06 0 2.077.422 2.827 1.171.75.75 1.171 1.767 1.171 2.827v.014c0 .336-.041.662-.124.972h.124c2.766.004 5 2.241 5 5 0 1.137-.38 2.186-1.024 3.023 1.283.108 2.494.668 3.414 1.587 1.031 1.031 1.61 2.43 1.61 3.888v.004c0 1.458-.579 2.856-1.61 3.887s-2.43 1.611-3.888 1.611c-4.917 0-12.087 0-17.004 0-1.458 0-2.857-.58-3.888-1.611s-1.61-2.429-1.61-3.887c0-.002 0-.003 0-.004 0-1.458.579-2.857 1.61-3.888.92-.919 2.131-1.479 3.414-1.587-.644-.837-1.024-1.886-1.024-3.023 0-2.762 2.239-5 5-5z" fill="#9a6f42"/><path d="m19.304 13.321c-.194.355 3.278 3.509 3.696 3.195v.001c0 .663-.263 1.299-.732 1.767-.469.469-1.105.733-1.768.733s-1.299-.264-1.768-.733c-.469-.468-.732-1.104-.732-1.767 0-.331 0-.67 0-1 0-.663.263-1.299.732-1.768.171-.171.364-.314.572-.428z" fill="#fff"/><path d="m19.304 13.321c.364-.198.774-.304 1.196-.304.663 0 1.299.263 1.768.732s.732 1.105.732 1.768v.999c-.418.314-.937.501-1.5.501-1.38 0-2.5-1.121-2.5-2.5 0-.433.11-.841.304-1.196z"/><path d="m10.304 13.321c-.194.355 3.278 3.509 3.696 3.195v.001c0 .663-.263 1.299-.732 1.767-.469.469-1.105.733-1.768.733s-1.299-.264-1.768-.733c-.469-.468-.732-1.104-.732-1.767 0-.331 0-.67 0-1 0-.663.263-1.299.732-1.768.171-.171.364-.314.572-.428z" fill="#fff"/><path d="m10.304 13.321c.364-.198.774-.304 1.196-.304.663 0 1.299.263 1.768.732s.732 1.105.732 1.768v.999c-.418.314-.937.501-1.5.501-1.38 0-2.5-1.121-2.5-2.5 0-.433.11-.841.304-1.196z"/><path d="m11.662 25.952c-.395.158-.846.049-1.126-.272-.279-.321-.324-.783-.113-1.153.353-.618.733-1.283 1.089-1.906.92-1.611 2.633-2.604 4.487-2.604h.002c1.854 0 3.567.993 4.487 2.604.356.623.736 1.288 1.089 1.906.211.37.166.832-.113 1.153-.28.321-.731.43-1.126.272-.379-.152-.753-.301-1.086-.435-.827-.33-1.71-.5-2.6-.5-.42 0-.884 0-1.304 0-.89 0-1.773.17-2.6.5-.333.134-.707.283-1.086.435z" fill="#352412"/></g></svg>