<svg clip-rule="evenodd" fill-rule="evenodd" stroke-linecap="round" stroke-linejoin="round" stroke-miterlimit="1.5" viewBox="0 0 32 32" xmlns="http://www.w3.org/2000/svg" xmlns:xlink="http://www.w3.org/1999/xlink"><clipPath id="a"><path clip-rule="evenodd" d="m0 .008h32v32h-32z"/></clipPath><path d="m0 .008h32v32h-32z" fill="none"/><g clip-path="url(#a)"><path d="m28 20.008c0-3.182-1.264-6.234-3.515-8.485-2.25-2.25-5.302-3.515-8.485-3.515-3.183 0-6.235 1.265-8.485 3.515-2.251 2.251-3.515 5.303-3.515 8.485v2c0 4.419 3.582 8 8 8h8c4.418 0 8-3.581 8-8 0-.654 0-1.324 0-2z"/><path d="m16.174 6.009.174.004.173.005.173.008.173.009.173.012.172.014.172.016.171.018.171.02.171.022.17.025.17.026.17.029.169.03.168.033.168.034.167.037.167.039.167.041.165.042.165.045.165.047.164.048.163.051.163.053.161.055.161.056.161.059.16.06.158.063.159.064.157.066.156.068.156.071.155.072.154.074.153.075.152.078.151.08.151.081.149.083.148.085.148.087.146.089.146.091.144.092.143.094.142.096.141.098.14.1.139.101.138.104.136.105.136.106.134.109.133.11.131.112.13.114.13.115.127.117.127.119.125.121.124.122.122.124.12.125.119.126.117.128.116.129.113.13.112.132.11.133.109.134.107.135.105.137.103.137.101.139.1.14.098.141.096.142.094.143.093.145.09.145.089.146.087.148.085.148.083.15.082.15.079.151.078.152.076.153.074.154.072.155.07.156.068.157.066.157.065.158.062.159.061.159.058.161.057.161.055.162.052.162.051.164.049.163.046.165.045.165.043.166.041.166.038.167.037.167.035.168.032.169.031.169.028.169.027.17.024.17.022.171.02.171.019.172.016.172.013.172.012.172.01.173.007.174.006.173.003.173.001.168v2.013l-.001.122-.002.128-.004.129-.006.127-.007.127-.009.128-.01.126-.012.126-.014.126-.015.126-.017.124-.018.125-.02.124-.021.123-.023.123-.024.123-.026.122-.027.121-.029.121-.03.12-.032.12-.033.119-.034.118-.036.118-.037.118-.039.116-.04.116-.041.116-.043.115-.044.113-.046.114-.047.112-.048.112-.049.111-.051.111-.052.11-.054.109-.054.108-.056.107-.057.107-.058.106-.06.106-.061.104-.062.103-.063.103-.065.102-.065.101-.067.1-.068.099-.069.099-.07.097-.072.097-.072.095-.074.095-.074.094-.076.093-.077.092-.078.091-.079.09-.08.09-.081.088-.083.087-.083.086-.084.085-.085.085-.086.083-.088.082-.088.081-.089.08-.09.079-.091.078-.092.077-.093.076-.094.075-.095.073-.096.073-.096.071-.098.07-.098.069-.1.068-.1.067-.101.066-.101.064-.103.063-.104.062-.104.061-.105.06-.106.058-.107.057-.107.056-.108.055-.11.053-.109.052-.111.051-.111.05-.112.048-.113.047-.113.045-.114.044-.115.043-.115.041-.116.041-.117.038-.117.037-.118.036-.119.035-.119.033-.119.031-.121.031-.12.028-.122.027-.122.026-.122.025-.123.022-.124.022-.124.019-.124.018-.125.017-.125.015-.126.014-.126.012-.127.01-.127.009-.127.007-.128.006-.128.004-.128.003h-.123-8.012-.123l-.128-.003-.128-.004-.128-.006-.127-.007-.127-.009-.127-.01-.126-.012-.126-.014-.125-.015-.125-.017-.124-.018-.124-.019-.124-.022-.123-.022-.122-.025-.122-.026-.122-.027-.12-.028-.121-.031-.119-.031-.119-.033-.119-.035-.118-.036-.117-.037-.117-.038-.116-.041-.115-.041-.115-.043-.114-.044-.113-.045-.113-.047-.112-.048-.111-.05-.111-.051-.109-.052-.11-.053-.108-.055-.107-.056-.107-.057-.106-.058-.105-.06-.104-.061-.104-.062-.103-.063-.101-.064-.101-.066-.1-.067-.1-.068-.098-.069-.098-.07-.096-.071-.096-.073-.095-.073-.094-.075-.093-.076-.092-.077-.091-.078-.09-.079-.089-.08-.088-.081-.088-.082-.086-.083-.085-.085-.084-.085-.083-.086-.083-.087-.081-.088-.08-.09-.079-.09-.078-.091-.077-.092-.076-.093-.074-.094-.074-.095-.072-.095-.072-.097-.07-.097-.069-.099-.068-.099-.067-.1-.065-.101-.065-.102-.063-.103-.062-.103-.061-.104-.06-.106-.058-.106-.057-.107-.056-.107-.054-.108-.054-.109-.052-.11-.051-.111-.049-.111-.048-.112-.047-.112-.046-.114-.044-.113-.043-.115-.041-.116-.04-.116-.039-.116-.037-.118-.036-.118-.034-.118-.033-.119-.032-.12-.03-.12-.029-.121-.027-.121-.026-.122-.024-.123-.023-.123-.021-.123-.02-.124-.018-.125-.017-.124-.015-.126-.014-.126-.012-.126-.01-.126-.009-.128-.007-.127-.006-.127-.004-.129-.002-.128-.001-.122v-2.013l.001-.168.003-.173.006-.173.007-.174.01-.173.012-.172.013-.172.016-.172.019-.172.02-.171.022-.171.024-.17.027-.17.028-.169.031-.169.032-.169.035-.168.037-.167.039-.167.04-.166.043-.166.045-.165.046-.165.049-.163.051-.164.052-.162.055-.162.057-.161.058-.161.061-.159.062-.159.065-.158.066-.158.068-.156.07-.156.072-.155.074-.154.076-.153.078-.152.079-.151.082-.15.083-.15.085-.148.087-.148.089-.146.09-.145.093-.145.094-.143.096-.142.098-.141.1-.14.101-.139.103-.137.105-.137.107-.135.109-.134.11-.133.112-.132.113-.13.116-.129.117-.128.119-.126.12-.125.122-.124.124-.122.125-.121.127-.119.127-.117.13-.115.13-.114.131-.112.133-.11.134-.109.136-.106.136-.105.138-.104.139-.101.139-.1.142-.098.142-.096.143-.094.144-.092.146-.091.146-.089.148-.087.148-.085.149-.083.151-.081.151-.08.152-.078.153-.075.154-.074.155-.072.156-.07.156-.069.157-.066.159-.064.158-.063.16-.06.161-.059.161-.056.161-.055.163-.053.163-.051.164-.048.165-.047.165-.045.165-.042.167-.041.167-.039.167-.037.168-.034.168-.033.169-.03.17-.029.17-.026.17-.025.171-.022.171-.02.171-.018.172-.016.172-.014.173-.012.173-.009.173-.008.173-.005.174-.004.174-.001.174.001zm-.298 4-.124.002-.124.004-.124.006-.123.007-.124.008-.123.01-.122.011-.123.013-.122.015-.122.016-.122.017-.121.019-.121.02-.121.022-.12.023-.12.025-.119.026-.12.028-.118.029-.119.03-.118.032-.117.034-.117.035-.117.036-.116.037-.116.04-.115.04-.114.042-.114.043-.114.045-.113.046-.112.047-.112.049-.111.05-.111.051-.11.053-.109.054-.109.056-.108.056-.107.059-.107.059-.106.061-.105.062-.105.063-.104.065-.103.066-.102.068-.102.068-.1.07-.1.071-.099.073-.099.073-.097.075-.097.077-.096.077-.094.079-.094.08-.093.081-.093.082-.091.084-.09.085-.09.086-.088.087-.087.089-.086.089-.085.09-.084.092-.083.092-.081.093-.08.094-.078.095-.078.096-.076.096-.075.098-.074.098-.072.099-.071.1-.07.101-.069.101-.067.103-.066.103-.065.103-.063.105-.063.106-.06.105-.06.107-.058.107-.057.109-.055.108-.054.11-.053.11-.052.11-.05.111-.048.112-.048.113-.046.112-.044.114-.044.114-.041.115-.041.115-.039.115-.038.116-.036.117-.035.117-.033.117-.032.118-.03.119-.03.119-.027.119-.026.119-.025.12-.023.121-.022.12-.02.121-.019.122-.018.121-.016.122-.014.122-.013.123-.011.123-.01.123-.009.123-.007.124-.005.123-.004.124-.002.124-.001.131v1.987l.001.084.001.078.002.078.004.077.004.077.006.076.006.076.007.076.008.076.009.075.01.075.011.075.012.074.013.074.013.073.015.074.015.072.017.073.017.073.018.071.019.072.019.071.021.071.021.07.023.07.023.07.024.069.024.069.026.069.027.068.027.068.028.067.029.067.029.067.03.066.032.065.032.066.032.065.034.064.034.064.035.063.036.063.036.063.038.062.037.062.039.061.039.061.041.06.04.059.042.059.042.059.043.058.044.058.044.057.045.056.045.056.047.055.047.055.047.055.048.053.049.053.05.053.05.052.05.051.052.051.052.05.052.049.053.049.054.048.054.048.055.047.055.046.056.046.057.045.057.044.057.043.059.043.058.042.059.042.06.041.06.04.061.039.061.039.061.038.062.037.063.037.063.035.064.035.063.035.065.033.065.033.065.032.066.031.066.03.066.03.067.029.068.028.067.027.068.026.069.026.069.025.069.024.07.023.07.022.07.021.071.021.071.02.072.019.072.018.072.017.073.016.073.015.073.015.074.014.074.012.074.012.074.011.075.01.076.009.075.008.076.007.076.007.077.005.077.004.077.004.077.002.078.002h.084 7.988.084l.078-.002.077-.002.077-.004.077-.004.077-.005.076-.007.076-.007.075-.008.076-.009.075-.01.074-.011.074-.012.074-.012.074-.014.073-.015.073-.015.073-.016.072-.017.072-.018.072-.019.071-.02.071-.021.07-.021.07-.022.07-.023.069-.024.069-.025.069-.026.068-.026.067-.027.068-.028.067-.029.066-.03.066-.03.066-.031.065-.032.065-.033.065-.033.063-.035.064-.035.063-.035.063-.037.062-.037.061-.038.061-.039.061-.039.06-.04.06-.041.059-.042.058-.042.059-.043.057-.043.057-.044.057-.045.056-.046.055-.046.055-.047.054-.048.054-.048.053-.049.052-.049.052-.05.052-.051.05-.051.05-.052.05-.053.049-.053.048-.053.047-.055.047-.055.047-.055.045-.056.045-.056.044-.057.044-.058.043-.058.042-.059.042-.059.04-.059.041-.06.039-.061.039-.061.037-.062.038-.062.036-.063.036-.063.035-.063.034-.064.034-.064.032-.065.032-.066.032-.065.03-.066.029-.067.029-.067.028-.067.027-.068.027-.068.026-.069.024-.069.024-.069.023-.07.023-.07.021-.07.021-.071.019-.071.019-.072.018-.071.017-.073.017-.073.015-.072.015-.074.013-.073.013-.074.012-.074.011-.075.01-.075.009-.075.008-.076.007-.076.006-.076.006-.076.004-.077.004-.077.002-.078.001-.078.001-.084v-1.987l-.001-.131-.002-.124-.004-.124-.005-.123-.007-.124-.009-.123-.01-.123-.011-.123-.013-.123-.014-.122-.016-.122-.018-.121-.019-.122-.02-.121-.022-.12-.023-.121-.025-.119-.026-.12-.028-.119-.029-.119-.03-.119-.032-.118-.033-.117-.035-.117-.036-.117-.038-.116-.039-.115-.041-.115-.041-.115-.044-.114-.044-.113-.046-.113-.048-.113-.048-.112-.05-.111-.052-.11-.053-.111-.054-.109-.055-.109-.057-.108-.058-.107-.06-.107-.06-.105-.063-.106-.063-.105-.065-.103-.066-.103-.067-.103-.069-.101-.07-.101-.071-.1-.072-.099-.074-.098-.075-.098-.076-.096-.078-.096-.078-.095-.08-.094-.081-.093-.083-.092-.084-.092-.085-.09-.086-.089-.087-.089-.088-.087-.09-.086-.09-.085-.091-.084-.093-.082-.093-.081-.094-.08-.094-.079-.096-.077-.097-.077-.097-.075-.099-.073-.099-.073-.1-.071-.1-.07-.102-.069-.102-.067-.103-.066-.104-.065-.105-.063-.105-.062-.106-.061-.107-.059-.107-.059-.108-.056-.109-.056-.109-.054-.11-.053-.111-.051-.111-.05-.112-.049-.112-.047-.113-.046-.114-.045-.114-.043-.114-.042-.115-.04-.116-.04-.116-.037-.117-.036-.117-.035-.117-.034-.118-.032-.119-.03-.118-.029-.12-.028-.119-.026-.12-.025-.12-.023-.121-.022-.121-.02-.121-.019-.122-.017-.122-.016-.122-.015-.123-.013-.122-.011-.123-.01-.124-.008-.123-.007-.124-.006-.124-.004-.124-.002-.124-.001-.124.001z"/><g fill="none"><path d="m10 3.008v2" stroke="#000" stroke-width="6"/><path d="m6 6.008-2-2" stroke="#000" stroke-width="6"/><path d="m5 10.008h-2" stroke="#000" stroke-width="6"/></g><path d="m28 20.008c0-3.182-1.264-6.234-3.515-8.485-2.25-2.25-5.302-3.515-8.485-3.515-3.183 0-6.235 1.265-8.485 3.515-2.251 2.251-3.515 5.303-3.515 8.485v2c0 4.419 3.582 8 8 8h8c4.418 0 8-3.581 8-8 0-.654 0-1.324 0-2z" fill="#fbc546"/><path d="m10.156 23.021.067.012.066.018.064.022.063.026.061.031.059.034.057.039.053.042.051.046.047.049.044.053.04.055.037.058.032.06.028.062.024.064.049.15.023.065.022.059.023.059.024.059.025.057.026.057.028.057.028.055.029.055.03.054.032.054.032.052.033.052.035.052.035.05.036.05.037.049.038.048.039.047.039.047.041.045.041.045.042.044.043.044.044.042.045.041.045.041.046.04.047.039.048.037.048.037.049.036.05.036.05.034.051.033.052.032.052.031.053.03.053.03.054.028.055.027.055.026.056.025.056.024.057.023.057.022.057.021.059.019.058.019.059.017.06.016.059.015.061.014.06.013.061.012.062.01.061.01.039.005 2.289-2.389 2.492 2.392.062-.008.061-.01.062-.01.061-.012.06-.013.061-.014.059-.015.06-.016.059-.017.058-.019.059-.019.057-.021.057-.022.057-.023.056-.024.056-.025.055-.026.055-.027.054-.028.053-.03.053-.03.052-.031.052-.032.051-.033.05-.034.05-.036.049-.036.048-.037.048-.037.047-.039.046-.04.045-.041.045-.041.044-.042.043-.044.042-.044.041-.045.041-.045.039-.047.039-.047.038-.048.037-.049.036-.05.035-.05.035-.052.033-.052.032-.052.032-.054.03-.054.029-.055.028-.055.028-.057.026-.057.025-.057.024-.059.023-.059.022-.059.023-.065.049-.15.024-.064.028-.062.032-.06.037-.058.04-.055.044-.053.047-.049.051-.046.053-.042.057-.039.059-.034.061-.031.063-.026.064-.022.066-.018.067-.012.068-.009.068-.003.069.001.068.005.067.01.067.015.065.02.064.023.062.029.061.032.057.036.056.04.052.044.049.048.046.05.042.054.039.056.035.059.03.061.026.063.022.065.018.066.013.067.008.067.004.069-.001.068-.006.068-.01.067-.015.067-.019.066-.053.158-.032.094-.036.097-.038.096-.039.095-.041.095-.043.092-.044.092-.047.091-.048.09-.049.089-.051.087-.053.086-.054.085-.056.084-.058.082-.059.082-.06.08-.062.078-.064.078-.065.076-.066.074-.067.074-.069.071-.07.071-.072.069-.072.068-.075.066-.075.065-.076.063-.078.062-.079.06-.08.059-.081.057-.082.056-.083.054-.084.053-.085.05-.087.05-.087.047-.088.046-.089.045-.09.042-.091.041-.092.039-.092.038-.094.035-.094.034-.095.032-.096.03-.096.029-.097.027-.098.024-.099.023-.099.021-.099.019-.101.017-.1.015-.102.014-.102.011-.102.009-.102.007-.104.005-.103.003-.099.001h-.407l-1.652-1.585-1.519 1.585h-.432l-.099-.001-.103-.003-.104-.005-.102-.007-.102-.009-.102-.011-.102-.014-.1-.015-.101-.017-.099-.019-.099-.021-.099-.023-.098-.024-.097-.027-.096-.029-.096-.03-.095-.032-.094-.034-.094-.035-.092-.038-.092-.039-.091-.041-.09-.042-.089-.045-.088-.046-.087-.047-.087-.05-.085-.05-.084-.053-.083-.054-.082-.056-.081-.057-.08-.059-.079-.06-.078-.062-.076-.063-.075-.065-.075-.066-.072-.068-.072-.069-.07-.071-.069-.071-.067-.074-.066-.074-.065-.076-.064-.078-.062-.078-.06-.08-.059-.082-.058-.082-.056-.084-.054-.085-.053-.086-.051-.087-.049-.089-.048-.09-.047-.091-.044-.092-.043-.092-.041-.095-.039-.095-.038-.096-.036-.097-.032-.094-.053-.158-.019-.066-.015-.067-.01-.067-.006-.068-.001-.068.004-.069.008-.067.013-.067.018-.066.022-.065.026-.063.03-.061.035-.059.039-.056.042-.054.046-.05.049-.048.052-.044.056-.04.057-.036.061-.032.062-.029.064-.023.065-.02.067-.015.067-.01.068-.005.069-.001.068.003z" fill="#593604"/><path d="m20.046 18.009.034.003.034.003.035.004.034.006.033.007.034.008.033.009.033.011 3 1 .033.011.032.013.032.013.031.015.03.016.031.017.029.018.029.019.028.02.028.021.026.021.026.023.026.024.024.024.023.026.023.026.022.027.02.027.02.028.019.029.018.03.017.03.015.031.015.031.013.032.013.032.011.033.01.033.009.033.008.034.007.033.006.035.004.034.003.034.002.035.001.034v.035l-.002.034-.003.035-.004.034-.005.034-.006.034-.008.034-.008.033-.01.033-.011.033-.012.032-.013.032-.014.032-.016.031-.016.03-.017.03-.019.029-.019.028-.021.028-.021.027-.022.027-.024.025-.024.025-.024.024-.026.023-.027.022-.027.022-.028.02-.028.019-.03.018-.03.018-.03.016-.031.015-.032.014-.032.013-.032.012-.033.011-.033.009-.033.009-.034.007-.034.006-.034.005-.035.004-.034.003-.035.001h-.034l-.035-.001-.034-.002-.034-.003-.035-.005-.034-.005-.033-.007-.034-.008-.033-.01-.033-.01-3-1-.033-.011-.032-.013-.032-.014-.031-.015-.03-.015-.031-.017-.029-.018-.029-.019-.028-.02-.028-.021-.026-.022-.026-.023-.026-.023-.024-.025-.023-.025-.023-.026-.022-.027-.02-.027-.02-.029-.019-.029-.018-.029-.017-.03-.015-.031-.015-.031-.013-.032-.013-.032-.011-.033-.01-.033-.009-.033-.008-.034-.007-.034-.006-.034-.004-.034-.003-.034-.002-.035-.001-.034v-.035l.002-.034.003-.035.004-.034.005-.034.006-.034.008-.034.008-.033.01-.033.011-.033.012-.033.013-.031.014-.032.016-.031.016-.03.017-.03.019-.029.019-.029.021-.028.021-.027.022-.026.024-.026.024-.024.025-.024.025-.023.027-.023.027-.021.028-.02.028-.019.03-.019.03-.017.03-.016.031-.015.032-.014.032-.013.032-.012.033-.011.033-.01.033-.008.034-.007.034-.007.034-.005.035-.003.034-.003.035-.001.034-.001z"/><path d="m12.023 18.009.035.001.034.003.035.003.034.005.034.007.034.007.033.008.033.01.033.011.032.012.032.013.032.014.031.015.03.016.03.017.03.019.028.019.028.02.027.021.027.023.025.023.025.024.024.024.024.026.022.026.021.027.021.028.019.029.019.029.017.03.016.03.016.031.014.032.013.031.012.033.011.033.01.033.008.033.008.034.006.034.005.034.004.034.003.035.002.034v.035l-.001.034-.002.035-.003.034-.004.034-.006.034-.007.034-.008.034-.009.033-.01.033-.011.033-.013.032-.013.032-.015.031-.015.031-.017.03-.018.029-.019.029-.02.029-.02.027-.022.027-.023.026-.023.025-.024.025-.026.023-.026.023-.026.022-.028.021-.028.02-.029.019-.029.018-.031.017-.03.015-.031.015-.032.014-.032.013-.033.011-3 1-.033.01-.033.01-.034.008-.033.007-.034.005-.035.005-.034.003-.034.002-.035.001h-.034l-.035-.001-.034-.003-.035-.004-.034-.005-.034-.006-.034-.007-.033-.009-.033-.009-.033-.011-.032-.012-.032-.013-.032-.014-.031-.015-.03-.016-.03-.018-.03-.018-.028-.019-.028-.02-.027-.022-.027-.022-.026-.023-.024-.024-.024-.025-.024-.025-.022-.027-.021-.027-.021-.028-.019-.028-.019-.029-.017-.03-.016-.03-.016-.031-.014-.032-.013-.032-.012-.032-.011-.033-.01-.033-.008-.033-.008-.034-.006-.034-.005-.034-.004-.034-.003-.035-.002-.034v-.035l.001-.034.002-.035.003-.034.004-.034.006-.035.007-.033.008-.034.009-.033.01-.033.011-.033.013-.032.013-.032.015-.031.015-.031.017-.03.018-.03.019-.029.02-.028.02-.027.022-.027.023-.026.023-.026.024-.024.026-.024.026-.023.026-.021.028-.021.028-.02.029-.019.029-.018.031-.017.03-.016.031-.015.032-.013.032-.013.033-.011 3-1 .033-.011.033-.009.034-.008.033-.007.034-.006.035-.004.034-.003.034-.003.035-.001z"/><path d="m25 6.008 4-4h1v8.5s-2.106 1.053-2.789 1.395c-.139.069-.292.105-.447.105-1.122 0-5.974 0-8.766 0-.53 0-1.038-.21-1.413-.585-.374-.375-.585-.883-.585-1.413 0-.001 0-.002 0-.002l-9 2s0-.354 0-.764c0-.757.428-1.45 1.106-1.788 2.195-1.098 6.894-3.448 6.894-3.448z"/><path d="m32 11.744-3.907 1.954-.066.032-.08.035-.08.033-.081.031-.082.029-.083.026-.084.023-.084.021-.084.019-.085.016-.087.014-.086.011-.086.009-.087.006-.087.004-.073.001h-8.793l-.086-.001-.099-.003-.099-.007-.098-.008-.098-.011-.097-.013-.097-.016-.097-.018-.095-.02-.096-.023-.094-.025-.094-.027-.093-.03-.092-.032-.091-.034-.091-.036-.09-.038-.088-.041-.088-.043-.087-.045-.085-.047-.085-.049-.083-.051-.082-.053-.081-.056-.079-.057-.079-.059-.077-.062-.075-.063-.075-.066-.072-.067-.071-.069-.069-.072-.068-.072-.065-.074-.064-.076-.061-.077-.06-.078-.038-.053-9.746 2.166v-3.275l.002-.124.008-.14.012-.14.017-.139.022-.138.027-.137.031-.134.036-.134.04-.131.045-.13.049-.129.053-.126.058-.125.062-.122.065-.119.07-.118.074-.115.078-.112.081-.11.086-.107.089-.104.092-.101.097-.098.1-.095.103-.092.107-.089.11-.084.113-.082.117-.077.119-.074.123-.069.109-.057 7.333-3.667h9.644l4-4h3.828zm-4-5.907-2.172 2.171h-7.828v1.99.01h.01 8.518l1.472-.736zm-12.528 2.171-.246.124.554-.124z"/><path d="m25 6.008h1l3.657 4 .01.667-2.456 1.228c-.139.069-.292.105-.447.105 0 0-6.214 0-6.766 0-.421 0-1.674-.012-2.357-.373-1.105-.583-1.641-1.627-1.641-1.627v-.002l-9 2.002s0-.354 0-.764c0-.757.428-1.45 1.106-1.788 2.195-1.098 6.894-3.448 6.894-3.448z" fill="#fbc546"/><path d="m25 6.008 4-4h1v8.5l-.333.167z" fill="#e59a10"/><path d="m16 10.01v-.002c0-1.104.895-2 2-2h5v2h-5v.002c0 1.104.895 1.998 1.998 1.998h1.002-3.002c-.53 0-1.038-.21-1.413-.585-.374-.375-.585-.883-.585-1.413z" fill="#7e5108"/><path d="m10 3.008v2" fill="none" stroke="#fff" stroke-width="2"/><path d="m6 6.008-2-2" fill="none" stroke="#fff" stroke-width="2"/><path d="m5 10.008h-2" fill="none" stroke="#fff" stroke-width="2"/></g></svg>