<?xml version="1.0" encoding="UTF-8" standalone="no"?><!DOCTYPE svg PUBLIC "-//W3C//DTD SVG 1.1//EN" "http://www.w3.org/Graphics/SVG/1.1/DTD/svg11.dtd"><svg width="100%" height="100%" viewBox="0 0 32 32" version="1.1" xmlns="http://www.w3.org/2000/svg" xmlns:xlink="http://www.w3.org/1999/xlink" xml:space="preserve" style="fill-rule:evenodd;clip-rule:evenodd;stroke-linejoin:round;stroke-miterlimit:1.41421;">
<metadata>
<rdf:RDF xmlns:cc="http://web.resource.org/cc/"
         xmlns:rdf="http://www.w3.org/1999/02/22-rdf-syntax-ns#"
         xmlns:dc = "http://purl.org/dc/elements/1.1/"
         >

     <rdf:Description rdf:about="">
       <dc:title>Mutant Standard emoji v0.2.4</dc:title>
     </rdf:Description>

    <cc:work rdf:about="">
        <cc:license rdf:resource="http://creativecommons.org/licenses/by-nc-sa/4.0/"/>
        <cc:attributionName>Dzuk</cc:attributionName>
        <cc:attributionURL>http://mutant.tech/</cc:attributionURL>
    </cc:work>

</rdf:RDF>
</metadata>
<rect id="blood_type_o" x="0" y="0" width="32" height="32" style="fill:none;"/><clipPath id="_clip1"><rect x="0" y="0" width="32" height="32"/></clipPath><g clip-path="url(#_clip1)"><g id="outline"><path d="M32,8c0,-4.418 -3.582,-8 -8,-8c-4.887,0 -11.113,0 -16,0c-4.418,0 -8,3.582 -8,8c0,4.887 0,11.113 0,16c0,4.418 3.582,8 8,8c4.887,0 11.113,0 16,0c4.418,0 8,-3.582 8,-8c0,-4.887 0,-11.113 0,-16Z"/></g><g id="emoji"><path d="M30,8c0,-1.591 -0.632,-3.117 -1.757,-4.243c-1.126,-1.125 -2.652,-1.757 -4.243,-1.757c-4.724,0 -11.276,0 -16,0c-1.591,0 -3.117,0.632 -4.243,1.757c-1.125,1.126 -1.757,2.652 -1.757,4.243c0,4.724 0,11.276 0,16c0,1.591 0.632,3.117 1.757,4.243c1.126,1.125 2.652,1.757 4.243,1.757c4.724,0 11.276,0 16,0c1.591,0 3.117,-0.632 4.243,-1.757c1.125,-1.126 1.757,-2.652 1.757,-4.243c0,-4.724 0,-11.276 0,-16Z" style="fill:#d72d35;"/><path d="M16.012,8.226c0.996,0 1.909,0.165 2.737,0.494c0.828,0.33 1.541,0.817 2.139,1.461c1.257,1.349 1.886,3.281 1.886,5.796c0,2.53 -0.629,4.485 -1.886,5.865c-1.196,1.288 -2.829,1.932 -4.899,1.932c-2.055,0 -3.68,-0.659 -4.876,-1.978c-1.258,-1.365 -1.886,-3.304 -1.886,-5.819c0,-2.545 0.628,-4.493 1.886,-5.842c1.18,-1.273 2.813,-1.909 4.899,-1.909Zm2.886,3.829c-0.713,-0.927 -1.675,-1.391 -2.886,-1.391c-1.212,0 -2.178,0.464 -2.898,1.391c-0.721,0.928 -1.081,2.247 -1.081,3.956c0,1.71 0.36,3.021 1.081,3.933c0.72,0.913 1.686,1.369 2.898,1.369c1.211,0 2.173,-0.456 2.886,-1.369c0.713,-0.912 1.07,-2.223 1.07,-3.933c0,-1.709 -0.357,-3.028 -1.07,-3.956Z" style="fill:#fff;fill-rule:nonzero;"/></g></g></svg>