<?xml version="1.0" encoding="UTF-8" standalone="no"?><!DOCTYPE svg PUBLIC "-//W3C//DTD SVG 1.1//EN" "http://www.w3.org/Graphics/SVG/1.1/DTD/svg11.dtd"><svg width="100%" height="100%" viewBox="0 0 32 32" version="1.1" xmlns="http://www.w3.org/2000/svg" xmlns:xlink="http://www.w3.org/1999/xlink" xml:space="preserve" style="fill-rule:evenodd;clip-rule:evenodd;stroke-linejoin:round;stroke-miterlimit:1.41421;">
<metadata>
<rdf:RDF xmlns:cc="http://web.resource.org/cc/"
         xmlns:rdf="http://www.w3.org/1999/02/22-rdf-syntax-ns#"
         xmlns:dc = "http://purl.org/dc/elements/1.1/"
         >

     <rdf:Description rdf:about="">
       <dc:title>Mutant Standard emoji v0.2.5</dc:title>
     </rdf:Description>

    <cc:work rdf:about="">
        <cc:license rdf:resource="http://creativecommons.org/licenses/by-nc-sa/4.0/"/>
        <cc:attributionName>Dzuk</cc:attributionName>
        <cc:attributionURL>http://mutant.tech/</cc:attributionURL>
    </cc:work>

</rdf:RDF>
</metadata>
<rect id="blood_type_b" x="0" y="0" width="32" height="32" style="fill:none;"/><clipPath id="_clip1"><rect x="0" y="0" width="32" height="32"/></clipPath><g clip-path="url(#_clip1)"><g id="outline"><path d="M32,8c0,-4.418 -3.582,-8 -8,-8c-4.887,0 -11.113,0 -16,0c-4.418,0 -8,3.582 -8,8c0,4.887 0,11.113 0,16c0,4.418 3.582,8 8,8c4.887,0 11.113,0 16,0c4.418,0 8,-3.582 8,-8c0,-4.887 0,-11.113 0,-16Z"/></g><g id="emoji"><path d="M30,8c0,-1.591 -0.632,-3.117 -1.757,-4.243c-1.126,-1.125 -2.652,-1.757 -4.243,-1.757c-4.724,0 -11.276,0 -16,0c-1.591,0 -3.117,0.632 -4.243,1.757c-1.125,1.126 -1.757,2.652 -1.757,4.243c0,4.724 0,11.276 0,16c0,1.591 0.632,3.117 1.757,4.243c1.126,1.125 2.652,1.757 4.243,1.757c4.724,0 11.276,0 16,0c1.591,0 3.117,-0.632 4.243,-1.757c1.125,-1.126 1.757,-2.652 1.757,-4.243c0,-4.724 0,-11.276 0,-16Z" style="fill:#d72d35;"/><path d="M10.296,8.536l6.026,0c1.656,0 2.936,0.391 3.841,1.173c0.859,0.721 1.288,1.649 1.288,2.783c0,0.844 -0.234,1.564 -0.702,2.162c-0.467,0.598 -1.123,1.02 -1.966,1.265c0.843,0.169 1.541,0.549 2.093,1.139c0.552,0.59 0.828,1.345 0.828,2.265c0,1.84 -0.912,3.098 -2.737,3.772c-0.69,0.246 -1.564,0.368 -2.622,0.368l-6.049,0l0,-14.927Zm5.98,12.558c0.874,0 1.506,-0.176 1.897,-0.529c0.391,-0.352 0.587,-0.82 0.587,-1.403c0,-0.582 -0.203,-1.054 -0.61,-1.414c-0.406,-0.36 -1.031,-0.541 -1.874,-0.541l-3.266,0l0,3.887l3.266,0Zm-3.266,-6.256l3.197,0c0.813,0 1.426,-0.176 1.84,-0.529c0.414,-0.352 0.621,-0.831 0.621,-1.437c0,-0.606 -0.203,-1.089 -0.61,-1.449c-0.406,-0.36 -1.015,-0.541 -1.828,-0.541l-3.22,0l0,3.956Z" style="fill:#fff;fill-rule:nonzero;"/></g></g></svg>