<?xml version="1.0" encoding="UTF-8" standalone="no"?><!DOCTYPE svg PUBLIC "-//W3C//DTD SVG 1.1//EN" "http://www.w3.org/Graphics/SVG/1.1/DTD/svg11.dtd"><svg width="100%" height="100%" viewBox="0 0 32 32" version="1.1" xmlns="http://www.w3.org/2000/svg" xmlns:xlink="http://www.w3.org/1999/xlink" xml:space="preserve" style="fill-rule:evenodd;clip-rule:evenodd;stroke-linejoin:round;stroke-miterlimit:1.41421;">
<metadata>
<rdf:RDF xmlns:cc="http://web.resource.org/cc/"
         xmlns:rdf="http://www.w3.org/1999/02/22-rdf-syntax-ns#"
         xmlns:dc = "http://purl.org/dc/elements/1.1/"
         >

     <rdf:Description rdf:about="">
       <dc:title>Mutant Standard emoji v0.2.5</dc:title>
     </rdf:Description>

    <cc:work rdf:about="">
        <cc:license rdf:resource="http://creativecommons.org/licenses/by-nc-sa/4.0/"/>
        <cc:attributionName>Dzuk</cc:attributionName>
        <cc:attributionURL>http://mutant.tech/</cc:attributionURL>
    </cc:work>

</rdf:RDF>
</metadata>
<rect id="ok" x="0" y="0" width="32" height="32" style="fill:none;"/><clipPath id="_clip1"><rect x="0" y="0" width="32" height="32"/></clipPath><g clip-path="url(#_clip1)"><g id="outline"><path d="M32,8c0,-4.418 -3.582,-8 -8,-8c-4.887,0 -11.113,0 -16,0c-4.418,0 -8,3.582 -8,8c0,4.887 0,11.113 0,16c0,4.418 3.582,8 8,8c4.887,0 11.113,0 16,0c4.418,0 8,-3.582 8,-8c0,-4.887 0,-11.113 0,-16Z"/></g><g id="emoji"><path d="M30,8c0,-1.591 -0.632,-3.117 -1.757,-4.243c-1.126,-1.125 -2.652,-1.757 -4.243,-1.757c-4.724,0 -11.276,0 -16,0c-1.591,0 -3.117,0.632 -4.243,1.757c-1.125,1.126 -1.757,2.652 -1.757,4.243c0,4.724 0,11.276 0,16c0,1.591 0.632,3.117 1.757,4.243c1.126,1.125 2.652,1.757 4.243,1.757c4.724,0 11.276,0 16,0c1.591,0 3.117,-0.632 4.243,-1.757c1.125,-1.126 1.757,-2.652 1.757,-4.243c0,-4.724 0,-11.276 0,-16Z" style="fill:#808080;"/><g><path d="M10.232,10.389c0.719,0 1.378,0.119 1.975,0.357c0.598,0.238 1.112,0.59 1.544,1.054c0.907,0.974 1.361,2.369 1.361,4.183c0,1.826 -0.454,3.237 -1.361,4.233c-0.863,0.93 -2.042,1.395 -3.536,1.395c-1.483,0 -2.656,-0.476 -3.519,-1.428c-0.907,-0.985 -1.361,-2.385 -1.361,-4.2c0,-1.837 0.454,-3.242 1.361,-4.216c0.852,-0.918 2.031,-1.378 3.536,-1.378Zm2.083,2.764c-0.515,-0.669 -1.209,-1.004 -2.083,-1.004c-0.874,0 -1.572,0.335 -2.092,1.004c-0.52,0.67 -0.78,1.621 -0.78,2.855c0,1.234 0.26,2.18 0.78,2.839c0.52,0.658 1.218,0.987 2.092,0.987c0.874,0 1.568,-0.329 2.083,-0.987c0.515,-0.659 0.772,-1.605 0.772,-2.839c0,-1.234 -0.257,-2.185 -0.772,-2.855Z" style="fill:#fff;fill-rule:nonzero;"/><path d="M19.411,10.605l0,4.432l4.25,-4.432l2.689,0l-4.748,4.847l5.063,5.926l-2.54,0l-3.834,-4.565l-0.88,0.897l0,3.668l-1.975,0l0,-10.773l1.975,0Z" style="fill:#fff;fill-rule:nonzero;"/></g></g></g></svg>