<?xml version="1.0" encoding="UTF-8" standalone="no"?><!DOCTYPE svg PUBLIC "-//W3C//DTD SVG 1.1//EN" "http://www.w3.org/Graphics/SVG/1.1/DTD/svg11.dtd"><svg width="100%" height="100%" viewBox="0 0 32 32" version="1.1" xmlns="http://www.w3.org/2000/svg" xmlns:xlink="http://www.w3.org/1999/xlink" xml:space="preserve" style="fill-rule:evenodd;clip-rule:evenodd;stroke-linejoin:round;stroke-miterlimit:1.41421;">
<metadata>
<rdf:RDF xmlns:cc="http://web.resource.org/cc/"
         xmlns:rdf="http://www.w3.org/1999/02/22-rdf-syntax-ns#"
         xmlns:dc = "http://purl.org/dc/elements/1.1/"
         >

     <rdf:Description rdf:about="">
       <dc:title>Mutant Standard emoji v0.2.4</dc:title>
     </rdf:Description>

    <cc:work rdf:about="">
        <cc:license rdf:resource="http://creativecommons.org/licenses/by-nc-sa/4.0/"/>
        <cc:attributionName>Dzuk</cc:attributionName>
        <cc:attributionURL>http://mutant.tech/</cc:attributionURL>
    </cc:work>

</rdf:RDF>
</metadata>
<rect id="sos" x="0" y="0" width="32" height="32" style="fill:none;"/><clipPath id="_clip1"><rect x="0" y="0" width="32" height="32"/></clipPath><g clip-path="url(#_clip1)"><g id="outline"><path d="M32,8c0,-4.418 -3.582,-8 -8,-8c-4.887,0 -11.113,0 -16,0c-4.418,0 -8,3.582 -8,8c0,4.887 0,11.113 0,16c0,4.418 3.582,8 8,8c4.887,0 11.113,0 16,0c4.418,0 8,-3.582 8,-8c0,-4.887 0,-11.113 0,-16Z"/></g><g id="emoji"><path d="M30,8c0,-1.591 -0.632,-3.117 -1.757,-4.243c-1.126,-1.125 -2.652,-1.757 -4.243,-1.757c-4.724,0 -11.276,0 -16,0c-1.591,0 -3.117,0.632 -4.243,1.757c-1.125,1.126 -1.757,2.652 -1.757,4.243c0,4.724 0,11.276 0,16c0,1.591 0.632,3.117 1.757,4.243c1.126,1.125 2.652,1.757 4.243,1.757c4.724,0 11.276,0 16,0c1.591,0 3.117,-0.632 4.243,-1.757c1.125,-1.126 1.757,-2.652 1.757,-4.243c0,-4.724 0,-11.276 0,-16Z" style="fill:#d72d35;"/><g><path d="M8.908,14.102c-0.138,-0.737 -0.658,-1.105 -1.56,-1.105c-0.442,0 -0.786,0.089 -1.033,0.266c-0.247,0.178 -0.371,0.393 -0.371,0.644c0,0.251 0.081,0.448 0.241,0.591c0.16,0.143 0.409,0.276 0.747,0.397l1.833,0.715c0.624,0.243 1.105,0.548 1.443,0.916c0.338,0.369 0.507,0.83 0.507,1.385c0,0.763 -0.286,1.367 -0.858,1.813c-0.572,0.447 -1.386,0.67 -2.444,0.67c-0.936,0 -1.694,-0.23 -2.275,-0.689c-0.65,-0.503 -0.992,-1.213 -1.027,-2.132l1.521,0c0,0.693 0.36,1.131 1.079,1.313c0.217,0.061 0.503,0.091 0.858,0.091c0.356,0 0.685,-0.089 0.988,-0.267c0.304,-0.177 0.455,-0.416 0.455,-0.715c0,-0.299 -0.082,-0.528 -0.247,-0.689c-0.164,-0.16 -0.433,-0.309 -0.806,-0.448l-1.677,-0.663c-0.65,-0.251 -1.148,-0.546 -1.495,-0.884c-0.346,-0.338 -0.52,-0.806 -0.52,-1.404c0,-0.702 0.273,-1.257 0.819,-1.664c0.555,-0.425 1.307,-0.637 2.256,-0.637c0.949,0 1.681,0.219 2.197,0.656c0.516,0.438 0.812,1.051 0.89,1.84l-1.521,0Z" style="fill:#fff;fill-rule:nonzero;"/><path d="M16.006,11.606c0.564,0 1.079,0.093 1.547,0.279c0.468,0.187 0.871,0.462 1.209,0.826c0.711,0.763 1.066,1.855 1.066,3.276c0,1.43 -0.355,2.535 -1.066,3.315c-0.676,0.728 -1.599,1.092 -2.769,1.092c-1.161,0 -2.08,-0.373 -2.756,-1.118c-0.71,-0.771 -1.066,-1.868 -1.066,-3.289c0,-1.439 0.356,-2.539 1.066,-3.302c0.668,-0.719 1.591,-1.079 2.769,-1.079Zm1.632,2.164c-0.403,-0.524 -0.947,-0.786 -1.632,-0.786c-0.684,0 -1.23,0.262 -1.638,0.786c-0.407,0.525 -0.611,1.27 -0.611,2.236c0,0.967 0.204,1.708 0.611,2.223c0.408,0.516 0.954,0.774 1.638,0.774c0.685,0 1.229,-0.258 1.632,-0.774c0.403,-0.515 0.604,-1.256 0.604,-2.223c0,-0.966 -0.201,-1.711 -0.604,-2.236Z" style="fill:#fff;fill-rule:nonzero;"/><path d="M26.081,14.102c-0.138,-0.737 -0.658,-1.105 -1.56,-1.105c-0.442,0 -0.786,0.089 -1.033,0.266c-0.247,0.178 -0.371,0.393 -0.371,0.644c0,0.251 0.081,0.448 0.241,0.591c0.16,0.143 0.409,0.276 0.747,0.397l1.833,0.715c0.624,0.243 1.105,0.548 1.443,0.916c0.338,0.369 0.507,0.83 0.507,1.385c0,0.763 -0.286,1.367 -0.858,1.813c-0.572,0.447 -1.386,0.67 -2.444,0.67c-0.936,0 -1.694,-0.23 -2.275,-0.689c-0.65,-0.503 -0.992,-1.213 -1.027,-2.132l1.521,0c0,0.693 0.36,1.131 1.079,1.313c0.217,0.061 0.503,0.091 0.858,0.091c0.356,0 0.685,-0.089 0.988,-0.267c0.304,-0.177 0.455,-0.416 0.455,-0.715c0,-0.299 -0.082,-0.528 -0.247,-0.689c-0.164,-0.16 -0.433,-0.309 -0.806,-0.448l-1.677,-0.663c-0.65,-0.251 -1.148,-0.546 -1.495,-0.884c-0.346,-0.338 -0.52,-0.806 -0.52,-1.404c0,-0.702 0.273,-1.257 0.819,-1.664c0.555,-0.425 1.307,-0.637 2.256,-0.637c0.949,0 1.681,0.219 2.197,0.656c0.516,0.438 0.812,1.051 0.89,1.84l-1.521,0Z" style="fill:#fff;fill-rule:nonzero;"/></g></g></g></svg>