<?xml version="1.0" encoding="UTF-8" standalone="no"?><!DOCTYPE svg PUBLIC "-//W3C//DTD SVG 1.1//EN" "http://www.w3.org/Graphics/SVG/1.1/DTD/svg11.dtd"><svg width="100%" height="100%" viewBox="0 0 32 32" version="1.1" xmlns="http://www.w3.org/2000/svg" xmlns:xlink="http://www.w3.org/1999/xlink" xml:space="preserve" style="fill-rule:evenodd;clip-rule:evenodd;stroke-linejoin:round;stroke-miterlimit:1.41421;">
<metadata>
<rdf:RDF xmlns:cc="http://web.resource.org/cc/"
         xmlns:rdf="http://www.w3.org/1999/02/22-rdf-syntax-ns#"
         xmlns:dc = "http://purl.org/dc/elements/1.1/"
         >

     <rdf:Description rdf:about="">
       <dc:title>Mutant Standard emoji v0.2.4</dc:title>
     </rdf:Description>

    <cc:work rdf:about="">
        <cc:license rdf:resource="http://creativecommons.org/licenses/by-nc-sa/4.0/"/>
        <cc:attributionName>Dzuk</cc:attributionName>
        <cc:attributionURL>http://mutant.tech/</cc:attributionURL>
    </cc:work>

</rdf:RDF>
</metadata>
<rect id="up" x="0" y="0" width="32" height="32" style="fill:none;"/><clipPath id="_clip1"><rect x="0" y="0" width="32" height="32"/></clipPath><g clip-path="url(#_clip1)"><g id="outline"><path d="M32,8c0,-4.418 -3.582,-8 -8,-8c-4.887,0 -11.113,0 -16,0c-4.418,0 -8,3.582 -8,8c0,4.887 0,11.113 0,16c0,4.418 3.582,8 8,8c4.887,0 11.113,0 16,0c4.418,0 8,-3.582 8,-8c0,-4.887 0,-11.113 0,-16Z"/></g><g id="emoji"><path d="M30,8c0,-1.591 -0.632,-3.117 -1.757,-4.243c-1.126,-1.125 -2.652,-1.757 -4.243,-1.757c-4.724,0 -11.276,0 -16,0c-1.591,0 -3.117,0.632 -4.243,1.757c-1.125,1.126 -1.757,2.652 -1.757,4.243c0,4.724 0,11.276 0,16c0,1.591 0.632,3.117 1.757,4.243c1.126,1.125 2.652,1.757 4.243,1.757c4.724,0 11.276,0 16,0c1.591,0 3.117,-0.632 4.243,-1.757c1.125,-1.126 1.757,-2.652 1.757,-4.243c0,-4.724 0,-11.276 0,-16Z" style="fill:#808080;"/><g><path d="M6.99,11.077l0,6.139c0,0.81 0.205,1.392 0.615,1.747c0.411,0.354 0.94,0.532 1.588,0.532c0.648,0 1.178,-0.178 1.588,-0.532c0.41,-0.355 0.615,-0.937 0.615,-1.747l0,-6.139l1.793,0l0,6.139c0,1.256 -0.349,2.225 -1.048,2.909c-0.699,0.684 -1.682,1.026 -2.948,1.026c-1.266,0 -2.248,-0.342 -2.947,-1.026c-0.699,-0.684 -1.049,-1.653 -1.049,-2.909l0,-6.139l1.793,0Z" style="fill:#fff;fill-rule:nonzero;"/><path d="M21.872,11.89c0.623,0.542 0.935,1.317 0.935,2.325c0,1.008 -0.312,1.782 -0.935,2.324c-0.623,0.542 -1.491,0.813 -2.605,0.813l-1.672,0l0,3.586l-1.808,0l0,-9.861l3.48,0c1.114,0 1.982,0.271 2.605,0.813Zm-2.605,3.897c0.557,0 0.977,-0.147 1.261,-0.44c0.283,-0.294 0.425,-0.671 0.425,-1.132c0,-0.461 -0.142,-0.841 -0.425,-1.14c-0.284,-0.299 -0.704,-0.448 -1.261,-0.448l-1.672,0l0,3.16l1.672,0Z" style="fill:#fff;fill-rule:nonzero;"/><path d="M24.554,10.849l1.945,0l-0.213,6.762l-1.534,0l-0.198,-6.762Zm0.076,9.891c-0.233,-0.222 -0.349,-0.506 -0.349,-0.85c0,-0.345 0.116,-0.633 0.349,-0.866c0.233,-0.233 0.532,-0.35 0.897,-0.35c0.364,0 0.668,0.117 0.911,0.35c0.243,0.233 0.365,0.521 0.365,0.866c0,0.344 -0.122,0.628 -0.365,0.85c-0.243,0.223 -0.547,0.335 -0.911,0.335c-0.365,0 -0.664,-0.112 -0.897,-0.335Z" style="fill:#fff;fill-rule:nonzero;"/></g></g></g></svg>