<?xml version="1.0" encoding="UTF-8" standalone="no"?><!DOCTYPE svg PUBLIC "-//W3C//DTD SVG 1.1//EN" "http://www.w3.org/Graphics/SVG/1.1/DTD/svg11.dtd"><svg width="100%" height="100%" viewBox="0 0 32 32" version="1.1" xmlns="http://www.w3.org/2000/svg" xmlns:xlink="http://www.w3.org/1999/xlink" xml:space="preserve" style="fill-rule:evenodd;clip-rule:evenodd;stroke-linejoin:round;stroke-miterlimit:1.41421;">
<metadata>
<rdf:RDF xmlns:cc="http://web.resource.org/cc/"
         xmlns:rdf="http://www.w3.org/1999/02/22-rdf-syntax-ns#"
         xmlns:dc = "http://purl.org/dc/elements/1.1/"
         >

     <rdf:Description rdf:about="">
       <dc:title>Mutant Standard emoji v0.2.4</dc:title>
     </rdf:Description>

    <cc:work rdf:about="">
        <cc:license rdf:resource="http://creativecommons.org/licenses/by-nc-sa/4.0/"/>
        <cc:attributionName>Dzuk</cc:attributionName>
        <cc:attributionURL>http://mutant.tech/</cc:attributionURL>
    </cc:work>

</rdf:RDF>
</metadata>
<rect id="cool" x="0" y="0" width="32" height="32" style="fill:none;"/><clipPath id="_clip1"><rect x="0" y="0" width="32" height="32"/></clipPath><g clip-path="url(#_clip1)"><g id="outline"><path d="M32,8c0,-4.418 -3.582,-8 -8,-8c-4.887,0 -11.113,0 -16,0c-4.418,0 -8,3.582 -8,8c0,4.887 0,11.113 0,16c0,4.418 3.582,8 8,8c4.887,0 11.113,0 16,0c4.418,0 8,-3.582 8,-8c0,-4.887 0,-11.113 0,-16Z"/></g><g id="emoji"><path d="M30,8c0,-1.591 -0.632,-3.117 -1.757,-4.243c-1.126,-1.125 -2.652,-1.757 -4.243,-1.757c-4.724,0 -11.276,0 -16,0c-1.591,0 -3.117,0.632 -4.243,1.757c-1.125,1.126 -1.757,2.652 -1.757,4.243c0,4.724 0,11.276 0,16c0,1.591 0.632,3.117 1.757,4.243c1.126,1.125 2.652,1.757 4.243,1.757c4.724,0 11.276,0 16,0c1.591,0 3.117,-0.632 4.243,-1.757c1.125,-1.126 1.757,-2.652 1.757,-4.243c0,-4.724 0,-11.276 0,-16Z" style="fill:#808080;"/><g><path d="M6.596,12.606c0.401,0 0.749,0.048 1.044,0.145c0.295,0.097 0.549,0.233 0.763,0.407c0.422,0.342 0.696,0.82 0.824,1.436l-1.266,0.231c-0.107,-0.341 -0.272,-0.618 -0.497,-0.828c-0.224,-0.211 -0.503,-0.317 -0.838,-0.317c-0.455,0 -0.824,0.191 -1.105,0.573c-0.301,0.415 -0.452,0.989 -0.452,1.722c0,0.733 0.134,1.305 0.402,1.717c0.268,0.412 0.633,0.618 1.095,0.618c0.461,0 0.81,-0.112 1.044,-0.337c0.234,-0.224 0.351,-0.514 0.351,-0.868l1.276,0c0,0.729 -0.233,1.293 -0.698,1.692c-0.465,0.398 -1.103,0.597 -1.913,0.597c-0.864,0 -1.55,-0.301 -2.059,-0.904c-0.515,-0.615 -0.773,-1.452 -0.773,-2.51c0,-1.071 0.264,-1.908 0.793,-2.511c0.509,-0.575 1.179,-0.863 2.009,-0.863Z" style="fill:#fff;fill-rule:nonzero;"/><path d="M13.123,12.606c0.435,0 0.833,0.072 1.195,0.216c0.361,0.144 0.673,0.356 0.934,0.637c0.549,0.59 0.823,1.433 0.823,2.531c0,1.105 -0.274,1.958 -0.823,2.561c-0.522,0.562 -1.235,0.843 -2.139,0.843c-0.897,0 -1.607,-0.288 -2.129,-0.863c-0.549,-0.596 -0.823,-1.443 -0.823,-2.541c0,-1.111 0.274,-1.962 0.823,-2.551c0.516,-0.555 1.228,-0.833 2.139,-0.833Zm1.26,1.672c-0.311,-0.405 -0.731,-0.608 -1.26,-0.608c-0.529,0 -0.951,0.203 -1.265,0.608c-0.315,0.405 -0.472,0.981 -0.472,1.727c0,0.746 0.157,1.319 0.472,1.717c0.314,0.399 0.736,0.598 1.265,0.598c0.529,0 0.949,-0.199 1.26,-0.598c0.312,-0.398 0.467,-0.971 0.467,-1.717c0,-0.746 -0.155,-1.322 -0.467,-1.727Z" style="fill:#fff;fill-rule:nonzero;"/><path d="M19.982,12.606c0.435,0 0.833,0.072 1.195,0.216c0.361,0.144 0.672,0.356 0.934,0.637c0.549,0.59 0.823,1.433 0.823,2.531c0,1.105 -0.274,1.958 -0.823,2.561c-0.523,0.562 -1.236,0.843 -2.139,0.843c-0.897,0 -1.607,-0.288 -2.129,-0.863c-0.549,-0.596 -0.824,-1.443 -0.824,-2.541c0,-1.111 0.275,-1.962 0.824,-2.551c0.515,-0.555 1.228,-0.833 2.139,-0.833Zm1.26,1.672c-0.311,-0.405 -0.731,-0.608 -1.26,-0.608c-0.529,0 -0.951,0.203 -1.266,0.608c-0.314,0.405 -0.472,0.981 -0.472,1.727c0,0.746 0.158,1.319 0.472,1.717c0.315,0.399 0.737,0.598 1.266,0.598c0.529,0 0.949,-0.199 1.26,-0.598c0.311,-0.398 0.467,-0.971 0.467,-1.717c0,-0.746 -0.156,-1.322 -0.467,-1.727Z" style="fill:#fff;fill-rule:nonzero;"/><path d="M25.525,18.219l2.681,0l0,1.035l-3.866,0l0,-6.518l1.185,0l0,5.483Z" style="fill:#fff;fill-rule:nonzero;"/></g></g></g></svg>