<?xml version="1.0" encoding="UTF-8" standalone="no"?><!DOCTYPE svg PUBLIC "-//W3C//DTD SVG 1.1//EN" "http://www.w3.org/Graphics/SVG/1.1/DTD/svg11.dtd"><svg width="100%" height="100%" viewBox="0 0 32 32" version="1.1" xmlns="http://www.w3.org/2000/svg" xmlns:xlink="http://www.w3.org/1999/xlink" xml:space="preserve" style="fill-rule:evenodd;clip-rule:evenodd;stroke-linejoin:round;stroke-miterlimit:1.41421;">
<metadata>
<rdf:RDF xmlns:cc="http://web.resource.org/cc/"
         xmlns:rdf="http://www.w3.org/1999/02/22-rdf-syntax-ns#"
         xmlns:dc = "http://purl.org/dc/elements/1.1/"
         >

     <rdf:Description rdf:about="">
       <dc:title>Mutant Standard emoji v0.2.5</dc:title>
     </rdf:Description>

    <cc:work rdf:about="">
        <cc:license rdf:resource="http://creativecommons.org/licenses/by-nc-sa/4.0/"/>
        <cc:attributionName>Dzuk</cc:attributionName>
        <cc:attributionURL>http://mutant.tech/</cc:attributionURL>
    </cc:work>

</rdf:RDF>
</metadata>
<rect id="free_of_charge" x="0" y="0" width="32" height="32" style="fill:none;"/><clipPath id="_clip1"><rect x="0" y="0" width="32" height="32"/></clipPath><g clip-path="url(#_clip1)"><g id="outline"><path d="M32,8c0,-4.418 -3.582,-8 -8,-8c-4.887,0 -11.113,0 -16,0c-4.418,0 -8,3.582 -8,8c0,4.887 0,11.113 0,16c0,4.418 3.582,8 8,8c4.887,0 11.113,0 16,0c4.418,0 8,-3.582 8,-8c0,-4.887 0,-11.113 0,-16Z"/></g><g id="emoji"><path d="M30,8c0,-1.591 -0.632,-3.117 -1.757,-4.243c-1.126,-1.125 -2.652,-1.757 -4.243,-1.757c-4.724,0 -11.276,0 -16,0c-1.591,0 -3.117,0.632 -4.243,1.757c-1.125,1.126 -1.757,2.652 -1.757,4.243c0,4.724 0,11.276 0,16c0,1.591 0.632,3.117 1.757,4.243c1.126,1.125 2.652,1.757 4.243,1.757c4.724,0 11.276,0 16,0c1.591,0 3.117,-0.632 4.243,-1.757c1.125,-1.126 1.757,-2.652 1.757,-4.243c0,-4.724 0,-11.276 0,-16Z" style="fill:#e48a1b;"/><path d="M23.94,26.08c-0.825,-1.419 -1.817,-2.94 -2.976,-4.562l1.846,-1.065c1.13,1.565 2.129,3.092 2.998,4.584l-1.868,1.043Zm-5.605,0.022c-0.507,-1.593 -1.079,-3.165 -1.716,-4.714l2.086,-0.587c0.651,1.564 1.231,3.143 1.738,4.736l-2.108,0.565Zm-5.322,0.043c-0.174,-1.564 -0.427,-3.157 -0.76,-4.779l2.215,-0.326c0.363,1.825 0.616,3.425 0.761,4.801l-2.216,0.304Zm-6.713,-1.13c1.057,-1.317 2.05,-2.795 2.976,-4.431l1.934,0.977c-0.927,1.724 -1.948,3.266 -3.063,4.628l-1.847,-1.174Zm17.032,-10.014l0,3.345l2.172,0l0,1.868l-18.9,0l0,-1.868l2.173,0l0,-3.345l-2.607,0l0,-2.021l2.607,0l0,-1.52c-0.217,0.217 -0.558,0.528 -1.021,0.934l-1.695,-1.26c1.782,-1.593 3.288,-3.367 4.519,-5.323l2.085,0.544c-0.304,0.579 -0.615,1.1 -0.934,1.564l13.339,0l0,1.911l-1.738,0l0,3.15l2.607,0l0,2.021l-2.607,0Zm-12.274,-5.171l0,3.15l1.846,0l0,-3.15l-1.846,0Zm1.846,5.171l-1.846,0l0,3.345l1.846,0l0,-3.345Zm2.173,0l0,3.345l1.955,0l0,-3.345l-1.955,0Zm0,-2.021l1.955,0l0,-3.15l-1.955,0l0,3.15Zm4.127,2.021l0,3.345l1.847,0l0,-3.345l-1.847,0Zm0,-2.021l1.847,0l0,-3.15l-1.847,0l0,3.15Z" style="fill:#fff;fill-rule:nonzero;"/></g></g></svg>