<?xml version="1.0" encoding="UTF-8" standalone="no"?><!DOCTYPE svg PUBLIC "-//W3C//DTD SVG 1.1//EN" "http://www.w3.org/Graphics/SVG/1.1/DTD/svg11.dtd"><svg width="100%" height="100%" viewBox="0 0 32 32" version="1.1" xmlns="http://www.w3.org/2000/svg" xmlns:xlink="http://www.w3.org/1999/xlink" xml:space="preserve" style="fill-rule:evenodd;clip-rule:evenodd;stroke-linejoin:round;stroke-miterlimit:1.41421;">
<metadata>
<rdf:RDF xmlns:cc="http://web.resource.org/cc/"
         xmlns:rdf="http://www.w3.org/1999/02/22-rdf-syntax-ns#"
         xmlns:dc = "http://purl.org/dc/elements/1.1/"
         >

     <rdf:Description rdf:about="">
       <dc:title>Mutant Standard emoji v0.2.5</dc:title>
     </rdf:Description>

    <cc:work rdf:about="">
        <cc:license rdf:resource="http://creativecommons.org/licenses/by-nc-sa/4.0/"/>
        <cc:attributionName>Dzuk</cc:attributionName>
        <cc:attributionURL>http://mutant.tech/</cc:attributionURL>
    </cc:work>

</rdf:RDF>
</metadata>
<rect id="reserved" x="0" y="0" width="32" height="32" style="fill:none;"/><clipPath id="_clip1"><rect x="0" y="0" width="32" height="32"/></clipPath><g clip-path="url(#_clip1)"><g id="outline"><path d="M32,8c0,-4.418 -3.582,-8 -8,-8c-4.887,0 -11.113,0 -16,0c-4.418,0 -8,3.582 -8,8c0,4.887 0,11.113 0,16c0,4.418 3.582,8 8,8c4.887,0 11.113,0 16,0c4.418,0 8,-3.582 8,-8c0,-4.887 0,-11.113 0,-16Z"/></g><g id="emoji"><path d="M30,8c0,-1.591 -0.632,-3.117 -1.757,-4.243c-1.126,-1.125 -2.652,-1.757 -4.243,-1.757c-4.724,0 -11.276,0 -16,0c-1.591,0 -3.117,0.632 -4.243,1.757c-1.125,1.126 -1.757,2.652 -1.757,4.243c0,4.724 0,11.276 0,16c0,1.591 0.632,3.117 1.757,4.243c1.126,1.125 2.652,1.757 4.243,1.757c4.724,0 11.276,0 16,0c1.591,0 3.117,-0.632 4.243,-1.757c1.125,-1.126 1.757,-2.652 1.757,-4.243c0,-4.724 0,-11.276 0,-16Z" style="fill:#219555;"/><path d="M22.887,19.269l0,-1.868l-6.474,0l0,1.868l6.474,0Zm2.911,-9.406c-0.044,0.854 -0.102,1.521 -0.174,1.999c-0.073,0.477 -0.17,0.89 -0.294,1.238c-0.123,0.347 -0.329,0.594 -0.619,0.738c-0.289,0.145 -0.608,0.247 -0.956,0.305c-0.347,0.058 -0.847,0.086 -1.498,0.086c-1.217,0.029 -2.115,0.044 -2.694,0.044c-0.652,0 -1.557,-0.015 -2.716,-0.044c-1.289,-0.014 -2.1,-0.137 -2.433,-0.369c-0.333,-0.232 -0.5,-0.767 -0.5,-1.607l0,-5.757l2.282,0l0,2.15c2.867,-0.492 5.72,-1.173 8.559,-2.042l0.717,1.869c-3.027,0.912 -6.119,1.622 -9.276,2.129l0,0.934c0,0.376 0.054,0.601 0.162,0.673c0.109,0.073 0.468,0.116 1.076,0.13c0.434,0.015 1.1,0.022 1.998,0.022c0.84,0 1.507,-0.007 1.999,-0.022c0.391,-0.014 0.67,-0.021 0.836,-0.021c0.167,0 0.348,-0.04 0.543,-0.12c0.196,-0.079 0.323,-0.155 0.381,-0.228c0.058,-0.072 0.123,-0.232 0.195,-0.478c0.073,-0.246 0.116,-0.481 0.131,-0.706c0.014,-0.224 0.036,-0.59 0.065,-1.097l2.216,0.174Zm-17.228,15.75c-0.333,0 -1.042,-0.036 -2.129,-0.109l-0.086,-1.89c0.811,0.058 1.455,0.087 1.933,0.087c0.188,0 0.3,-0.051 0.337,-0.152c0.036,-0.101 0.054,-0.427 0.054,-0.977l0,-3.585c-1.202,0.29 -1.977,0.471 -2.324,0.543l-0.153,-2.064c0.783,-0.144 1.608,-0.333 2.477,-0.564l0,-5.019l-2.455,0l0,-1.955l2.455,0l0,-3.65l2.281,0l0,3.65l2.216,0l0,1.955l-2.216,0l0,4.367c0.521,-0.174 1.224,-0.42 2.107,-0.739l0.326,1.934c-0.594,0.246 -1.405,0.536 -2.433,0.869l0,4.149c0,1.434 -0.127,2.317 -0.38,2.65c-0.254,0.333 -0.923,0.5 -2.01,0.5Zm7.843,-4.562l0,1.912l6.474,0l0,-1.912l-6.474,0Zm0,3.802l0,0.869l-2.346,0l0,-10.276l11.144,0l0,10.276l-2.324,0l0,-0.869l-6.474,0Z" style="fill:#fff;fill-rule:nonzero;"/></g></g></svg>