<?xml version="1.0" encoding="UTF-8" standalone="no"?><!DOCTYPE svg PUBLIC "-//W3C//DTD SVG 1.1//EN" "http://www.w3.org/Graphics/SVG/1.1/DTD/svg11.dtd"><svg width="100%" height="100%" viewBox="0 0 32 32" version="1.1" xmlns="http://www.w3.org/2000/svg" xmlns:xlink="http://www.w3.org/1999/xlink" xml:space="preserve" style="fill-rule:evenodd;clip-rule:evenodd;stroke-linejoin:round;stroke-miterlimit:1.41421;">
<metadata>
<rdf:RDF xmlns:cc="http://web.resource.org/cc/"
         xmlns:rdf="http://www.w3.org/1999/02/22-rdf-syntax-ns#"
         xmlns:dc = "http://purl.org/dc/elements/1.1/"
         >

     <rdf:Description rdf:about="">
       <dc:title>Mutant Standard emoji v0.2.5</dc:title>
     </rdf:Description>

    <cc:work rdf:about="">
        <cc:license rdf:resource="http://creativecommons.org/licenses/by-nc-sa/4.0/"/>
        <cc:attributionName>Dzuk</cc:attributionName>
        <cc:attributionURL>http://mutant.tech/</cc:attributionURL>
    </cc:work>

</rdf:RDF>
</metadata>
<rect id="open_for_business" x="0" y="0" width="32" height="32" style="fill:none;"/><clipPath id="_clip1"><rect x="0" y="0" width="32" height="32"/></clipPath><g clip-path="url(#_clip1)"><g id="outline"><path d="M32,8c0,-4.418 -3.582,-8 -8,-8c-4.887,0 -11.113,0 -16,0c-4.418,0 -8,3.582 -8,8c0,4.887 0,11.113 0,16c0,4.418 3.582,8 8,8c4.887,0 11.113,0 16,0c4.418,0 8,-3.582 8,-8c0,-4.887 0,-11.113 0,-16Z"/></g><g id="emoji"><path d="M30,8c0,-1.591 -0.632,-3.117 -1.757,-4.243c-1.126,-1.125 -2.652,-1.757 -4.243,-1.757c-4.724,0 -11.276,0 -16,0c-1.591,0 -3.117,0.632 -4.243,1.757c-1.125,1.126 -1.757,2.652 -1.757,4.243c0,4.724 0,11.276 0,16c0,1.591 0.632,3.117 1.757,4.243c1.126,1.125 2.652,1.757 4.243,1.757c4.724,0 11.276,0 16,0c1.591,0 3.117,-0.632 4.243,-1.757c1.125,-1.126 1.757,-2.652 1.757,-4.243c0,-4.724 0,-11.276 0,-16Z" style="fill:#e48a1b;"/><path d="M23.125,10.483l-14.25,0l0,3.953l-2.325,0l0,-5.822l3.215,0c-0.376,-0.724 -0.738,-1.354 -1.086,-1.89l2.042,-0.825c0.521,0.825 1.028,1.73 1.521,2.715l2.672,0c-0.449,-0.869 -0.84,-1.571 -1.173,-2.107l2.02,-0.825c0.507,0.839 1.036,1.817 1.586,2.932l2.433,0c0.536,-0.854 1.057,-1.788 1.564,-2.802l2.086,0.586c-0.333,0.696 -0.732,1.434 -1.195,2.216l3.215,0l0,5.822l-2.325,0l0,-3.953Zm-12.599,12.599l10.948,0l0,-2.606l-10.948,0l0,2.606Zm0,1.673l0,1.086l-2.347,0l0,-7.234l5.714,0c0.188,-0.492 0.355,-0.977 0.499,-1.455l-2.476,0l-2.325,0l0,-5.714l12.818,0l0,5.714l-5.54,0c-0.145,0.478 -0.311,0.963 -0.5,1.455l7.452,0l0,7.234l-2.347,0l0,-1.086l-10.948,0Zm1.39,-9.276l8.168,0l0,-2.172l-8.168,0l0,2.172Z" style="fill:#fff;fill-rule:nonzero;"/></g></g></svg>