<?xml version="1.0" encoding="UTF-8" standalone="no"?><!DOCTYPE svg PUBLIC "-//W3C//DTD SVG 1.1//EN" "http://www.w3.org/Graphics/SVG/1.1/DTD/svg11.dtd"><svg width="100%" height="100%" viewBox="0 0 32 32" version="1.1" xmlns="http://www.w3.org/2000/svg" xmlns:xlink="http://www.w3.org/1999/xlink" xml:space="preserve" style="fill-rule:evenodd;clip-rule:evenodd;stroke-linejoin:round;stroke-miterlimit:1.41421;">
<metadata>
<rdf:RDF xmlns:cc="http://web.resource.org/cc/"
         xmlns:rdf="http://www.w3.org/1999/02/22-rdf-syntax-ns#"
         xmlns:dc = "http://purl.org/dc/elements/1.1/"
         >

     <rdf:Description rdf:about="">
       <dc:title>Mutant Standard emoji v0.2.5</dc:title>
     </rdf:Description>

    <cc:work rdf:about="">
        <cc:license rdf:resource="http://creativecommons.org/licenses/by-nc-sa/4.0/"/>
        <cc:attributionName>Dzuk</cc:attributionName>
        <cc:attributionURL>http://mutant.tech/</cc:attributionURL>
    </cc:work>

</rdf:RDF>
</metadata>
<rect id="not_free" x="0" y="0" width="32" height="32" style="fill:none;"/><clipPath id="_clip1"><rect x="0" y="0" width="32" height="32"/></clipPath><g clip-path="url(#_clip1)"><g id="outline"><path d="M32,8c0,-4.418 -3.582,-8 -8,-8c-4.887,0 -11.113,0 -16,0c-4.418,0 -8,3.582 -8,8c0,4.887 0,11.113 0,16c0,4.418 3.582,8 8,8c4.887,0 11.113,0 16,0c4.418,0 8,-3.582 8,-8c0,-4.887 0,-11.113 0,-16Z"/></g><g id="emoji"><path d="M30,8c0,-1.591 -0.632,-3.117 -1.757,-4.243c-1.126,-1.125 -2.652,-1.757 -4.243,-1.757c-4.724,0 -11.276,0 -16,0c-1.591,0 -3.117,0.632 -4.243,1.757c-1.125,1.126 -1.757,2.652 -1.757,4.243c0,4.724 0,11.276 0,16c0,1.591 0.632,3.117 1.757,4.243c1.126,1.125 2.652,1.757 4.243,1.757c4.724,0 11.276,0 16,0c1.591,0 3.117,-0.632 4.243,-1.757c1.125,-1.126 1.757,-2.652 1.757,-4.243c0,-4.724 0,-11.276 0,-16Z" style="fill:#e48a1b;"/><path d="M6.81,18.433l-0.978,-2.064c2.839,-1.911 4.91,-4.127 6.213,-6.647l-5.539,0l0,-1.912l6.387,0c0.246,-0.608 0.47,-1.289 0.673,-2.042l2.411,0.174c-0.159,0.594 -0.354,1.216 -0.586,1.868l10.449,0l0,1.912l-11.231,0c-0.406,0.811 -0.782,1.492 -1.13,2.042l10.906,0l0,10.818c0,1.231 -0.174,2.039 -0.522,2.423c-0.347,0.383 -1.173,0.575 -2.476,0.575c-0.319,0 -1.391,-0.043 -3.215,-0.13l-0.044,-1.89c1.666,0.072 2.621,0.109 2.868,0.109c0.492,0 0.782,-0.026 0.869,-0.076c0.086,-0.051 0.13,-0.228 0.13,-0.533l0,-1.672l-9.559,0l0,4.236l-2.389,0l0,-9.733c-1.014,0.927 -2.093,1.775 -3.237,2.542Zm5.626,-4.801l0,2.107l9.559,0l0,-2.107l-9.559,0Zm0,3.845l0,2.173l9.559,0l0,-2.173l-9.559,0Z" style="fill:#fff;fill-rule:nonzero;"/></g></g></svg>