<?xml version="1.0" encoding="UTF-8" standalone="no"?><!DOCTYPE svg PUBLIC "-//W3C//DTD SVG 1.1//EN" "http://www.w3.org/Graphics/SVG/1.1/DTD/svg11.dtd"><svg width="100%" height="100%" viewBox="0 0 32 32" version="1.1" xmlns="http://www.w3.org/2000/svg" xmlns:xlink="http://www.w3.org/1999/xlink" xml:space="preserve" style="fill-rule:evenodd;clip-rule:evenodd;stroke-linejoin:round;stroke-miterlimit:1.41421;">
<metadata>
<rdf:RDF xmlns:cc="http://web.resource.org/cc/"
         xmlns:rdf="http://www.w3.org/1999/02/22-rdf-syntax-ns#"
         xmlns:dc = "http://purl.org/dc/elements/1.1/"
         >

     <rdf:Description rdf:about="">
       <dc:title>Mutant Standard emoji v0.2.4</dc:title>
     </rdf:Description>

    <cc:work rdf:about="">
        <cc:license rdf:resource="http://creativecommons.org/licenses/by-nc-sa/4.0/"/>
        <cc:attributionName>Dzuk</cc:attributionName>
        <cc:attributionURL>http://mutant.tech/</cc:attributionURL>
    </cc:work>

</rdf:RDF>
</metadata>
<rect id="month" x="0" y="0" width="32" height="32" style="fill:none;"/><clipPath id="_clip1"><rect x="0" y="0" width="32" height="32"/></clipPath><g clip-path="url(#_clip1)"><g id="outline"><path d="M32,8c0,-4.418 -3.582,-8 -8,-8c-4.887,0 -11.113,0 -16,0c-4.418,0 -8,3.582 -8,8c0,4.887 0,11.113 0,16c0,4.418 3.582,8 8,8c4.887,0 11.113,0 16,0c4.418,0 8,-3.582 8,-8c0,-4.887 0,-11.113 0,-16Z"/></g><g id="emoji"><path d="M30,8c0,-1.591 -0.632,-3.117 -1.757,-4.243c-1.126,-1.125 -2.652,-1.757 -4.243,-1.757c-4.724,0 -11.276,0 -16,0c-1.591,0 -3.117,0.632 -4.243,1.757c-1.125,1.126 -1.757,2.652 -1.757,4.243c0,4.724 0,11.276 0,16c0,1.591 0.632,3.117 1.757,4.243c1.126,1.125 2.652,1.757 4.243,1.757c4.724,0 11.276,0 16,0c1.591,0 3.117,-0.632 4.243,-1.757c1.125,-1.126 1.757,-2.652 1.757,-4.243c0,-4.724 0,-11.276 0,-16Z" style="fill:#e48a1b;"/><path d="M8.52,25.754l-2.281,-1.694c1.173,-1.231 1.97,-2.52 2.39,-3.867c0.42,-1.347 0.63,-3.317 0.63,-5.909l0,-8.038l15.206,0l0,15.793c0,0.884 -0.025,1.532 -0.076,1.945c-0.05,0.412 -0.206,0.756 -0.467,1.031c-0.26,0.276 -0.583,0.439 -0.966,0.489c-0.384,0.051 -0.989,0.076 -1.814,0.076c-1,0 -2.231,-0.036 -3.693,-0.108l-0.152,-2.455c1.911,0.072 2.997,0.108 3.258,0.108c0.493,0 0.786,-0.047 0.88,-0.141c0.094,-0.094 0.141,-0.387 0.141,-0.88l0,-3.041l-9.667,0c-0.42,2.621 -1.55,4.852 -3.389,6.691Zm3.628,-14.316l9.428,0l0,-2.802l-9.428,0l0,2.802Zm0,2.303l0,1.781c0,0.55 -0.007,0.963 -0.022,1.238l9.45,0l0,-3.019l-9.428,0Z" style="fill:#fff;fill-rule:nonzero;"/></g></g></svg>