<?xml version="1.0" encoding="UTF-8" standalone="no"?><!DOCTYPE svg PUBLIC "-//W3C//DTD SVG 1.1//EN" "http://www.w3.org/Graphics/SVG/1.1/DTD/svg11.dtd"><svg width="100%" height="100%" viewBox="0 0 32 32" version="1.1" xmlns="http://www.w3.org/2000/svg" xmlns:xlink="http://www.w3.org/1999/xlink" xml:space="preserve" style="fill-rule:evenodd;clip-rule:evenodd;stroke-linejoin:round;stroke-miterlimit:1.41421;">
<metadata>
<rdf:RDF xmlns:cc="http://web.resource.org/cc/"
         xmlns:rdf="http://www.w3.org/1999/02/22-rdf-syntax-ns#"
         xmlns:dc = "http://purl.org/dc/elements/1.1/"
         >

     <rdf:Description rdf:about="">
       <dc:title>Mutant Standard emoji v0.2.4</dc:title>
     </rdf:Description>

    <cc:work rdf:about="">
        <cc:license rdf:resource="http://creativecommons.org/licenses/by-nc-sa/4.0/"/>
        <cc:attributionName>Dzuk</cc:attributionName>
        <cc:attributionURL>http://mutant.tech/</cc:attributionURL>
    </cc:work>

</rdf:RDF>
</metadata>
<rect id="prohibited" x="0" y="0" width="32" height="32" style="fill:none;"/><clipPath id="_clip1"><rect x="0" y="0" width="32" height="32"/></clipPath><g clip-path="url(#_clip1)"><g id="outline"><path d="M32,8c0,-4.418 -3.582,-8 -8,-8c-4.887,0 -11.113,0 -16,0c-4.418,0 -8,3.582 -8,8c0,4.887 0,11.113 0,16c0,4.418 3.582,8 8,8c4.887,0 11.113,0 16,0c4.418,0 8,-3.582 8,-8c0,-4.887 0,-11.113 0,-16Z"/></g><g id="emoji"><path d="M30,8c0,-1.591 -0.632,-3.117 -1.757,-4.243c-1.126,-1.125 -2.652,-1.757 -4.243,-1.757c-4.724,0 -11.276,0 -16,0c-1.591,0 -3.117,0.632 -4.243,1.757c-1.125,1.126 -1.757,2.652 -1.757,4.243c0,4.724 0,11.276 0,16c0,1.591 0.632,3.117 1.757,4.243c1.126,1.125 2.652,1.757 4.243,1.757c4.724,0 11.276,0 16,0c1.591,0 3.117,-0.632 4.243,-1.757c1.125,-1.126 1.757,-2.652 1.757,-4.243c0,-4.724 0,-11.276 0,-16Z" style="fill:#d72d35;"/><path d="M25.257,18.389l0,1.852l-4.724,0c1.632,0.95 3.27,2.022 4.916,3.213l-1.17,1.66c-1.646,-1.22 -3.413,-2.369 -5.3,-3.447l0.958,-1.426l-2.447,0l0,2.83c0,1.008 -0.16,1.639 -0.479,1.894c-0.319,0.256 -1.117,0.383 -2.394,0.383c-0.766,0 -1.745,-0.035 -2.937,-0.106l-0.085,-1.809c1.092,0.071 1.936,0.107 2.532,0.107c0.511,0 0.809,-0.029 0.894,-0.086c0.085,-0.056 0.128,-0.255 0.128,-0.595l0,-2.618l-3.512,0l1.107,1.341c-1.518,1.418 -3.221,2.582 -5.108,3.49l-1.042,-1.681c1.773,-0.852 3.348,-1.902 4.724,-3.15l-4.575,0l0,-1.852l18.514,0Zm-16.918,-1.128l0,-1.808l15.429,0l0,1.808l-15.429,0Zm17.131,-9.151l0,1.852l-2.958,0c0.951,1.263 2.15,2.469 3.597,3.618l-1.171,1.66c-1.305,-1.093 -2.426,-2.235 -3.362,-3.427l0,3.001l-2.214,0l0,-3.171c-0.95,1.164 -2.05,2.263 -3.298,3.299l-1.192,-1.532c1.419,-1.15 2.582,-2.299 3.49,-3.448l-2.362,0l0,-1.852l3.362,0l0,-2.021l2.214,0l0,2.021l3.894,0Zm-18.94,0l3.405,0l0,-1.809l2.234,0l0,1.809l3.086,0l0,1.852l-2.277,0c1.107,1.021 1.93,1.802 2.469,2.341l-1.298,1.404c-0.582,-0.681 -1.242,-1.39 -1.98,-2.128l0,3.235l-2.234,0l0,-3.107c-0.781,1.234 -1.752,2.412 -2.916,3.533l-1.128,-1.66c1.32,-1.192 2.363,-2.398 3.129,-3.618l-2.49,0l0,-1.852Z" style="fill:#fff;fill-rule:nonzero;"/></g></g></svg>