<?xml version="1.0" encoding="UTF-8" standalone="no"?><!DOCTYPE svg PUBLIC "-//W3C//DTD SVG 1.1//EN" "http://www.w3.org/Graphics/SVG/1.1/DTD/svg11.dtd"><svg width="100%" height="100%" viewBox="0 0 32 32" version="1.1" xmlns="http://www.w3.org/2000/svg" xmlns:xlink="http://www.w3.org/1999/xlink" xml:space="preserve" style="fill-rule:evenodd;clip-rule:evenodd;stroke-linejoin:round;stroke-miterlimit:1.41421;">
<metadata>
<rdf:RDF xmlns:cc="http://web.resource.org/cc/"
         xmlns:rdf="http://www.w3.org/1999/02/22-rdf-syntax-ns#"
         xmlns:dc = "http://purl.org/dc/elements/1.1/"
         >

     <rdf:Description rdf:about="">
       <dc:title>Mutant Standard emoji v0.2.5</dc:title>
     </rdf:Description>

    <cc:work rdf:about="">
        <cc:license rdf:resource="http://creativecommons.org/licenses/by-nc-sa/4.0/"/>
        <cc:attributionName>Dzuk</cc:attributionName>
        <cc:attributionURL>http://mutant.tech/</cc:attributionURL>
    </cc:work>

</rdf:RDF>
</metadata>
<rect id="no_vacancy" x="0" y="0" width="32" height="32" style="fill:none;"/><clipPath id="_clip1"><rect x="0" y="0" width="32" height="32"/></clipPath><g clip-path="url(#_clip1)"><g id="outline"><path d="M32,8c0,-4.418 -3.582,-8 -8,-8c-4.887,0 -11.113,0 -16,0c-4.418,0 -8,3.582 -8,8c0,4.887 0,11.113 0,16c0,4.418 3.582,8 8,8c4.887,0 11.113,0 16,0c4.418,0 8,-3.582 8,-8c0,-4.887 0,-11.113 0,-16Z"/></g><g id="emoji"><path d="M30,8c0,-1.591 -0.632,-3.117 -1.757,-4.243c-1.126,-1.125 -2.652,-1.757 -4.243,-1.757c-4.724,0 -11.276,0 -16,0c-1.591,0 -3.117,0.632 -4.243,1.757c-1.125,1.126 -1.757,2.652 -1.757,4.243c0,4.724 0,11.276 0,16c0,1.591 0.632,3.117 1.757,4.243c1.126,1.125 2.652,1.757 4.243,1.757c4.724,0 11.276,0 16,0c1.591,0 3.117,-0.632 4.243,-1.757c1.125,-1.126 1.757,-2.652 1.757,-4.243c0,-4.724 0,-11.276 0,-16Z" style="fill:#d72d35;"/><path d="M16.454,11.487l3.617,0l0,-1.98l-3.617,0l0,1.98Zm-6.917,4.384c-1.121,-1.064 -2.412,-2.15 -3.873,-3.256l1.298,-1.533c1.419,1.036 2.717,2.1 3.894,3.193l-1.319,1.596Zm-3.043,-7.938l1.319,-1.533c1.107,0.795 2.157,1.646 3.15,2.554l0,-1.255l3.256,0l0,-1.703l2.235,0l0,1.703l3.617,0l0,-1.703l2.235,0l0,1.703l2.979,0l0,1.808l-2.979,0l0,1.98l3.405,0l0,1.851l-6.448,0l0,1.128l5.746,0l0,7.917c0,1.277 -0.124,2.075 -0.373,2.394c-0.248,0.319 -0.862,0.479 -1.841,0.479c-0.595,0 -1.503,-0.036 -2.724,-0.107l-0.042,-1.915c0.865,0.071 1.532,0.106 2,0.106c0.398,0 0.632,-0.039 0.703,-0.117c0.071,-0.078 0.106,-0.322 0.106,-0.734l0,-6.171l-3.66,0l0,4.575l0.936,0l0,-3.788l1.915,0l0,5.597l-1.915,0l-4.044,0l0,1.277l-1.915,0l0,-6.874l1.915,0l0,3.788l0.979,0l0,-4.575l-3.681,0l0,9.151l-2.192,0l0,-7.002c-0.809,2.525 -1.873,4.76 -3.193,6.704l-1.808,-1.213c1.319,-1.972 2.39,-4.179 3.213,-6.619l1.788,0.724l0,-3.597l5.746,0l0,-1.128l-6.427,0l0,-1.851l3.724,0l0,-1.98l-3.086,0l-1.128,1.362c-1.135,-1.064 -2.305,-2.043 -3.511,-2.936Z" style="fill:#fff;fill-rule:nonzero;"/></g></g></svg>