<?xml version="1.0" encoding="UTF-8" standalone="no"?><!DOCTYPE svg PUBLIC "-//W3C//DTD SVG 1.1//EN" "http://www.w3.org/Graphics/SVG/1.1/DTD/svg11.dtd"><svg width="100%" height="100%" viewBox="0 0 32 32" version="1.1" xmlns="http://www.w3.org/2000/svg" xmlns:xlink="http://www.w3.org/1999/xlink" xml:space="preserve" style="fill-rule:evenodd;clip-rule:evenodd;stroke-linejoin:round;stroke-miterlimit:1.41421;">
<metadata>
<rdf:RDF xmlns:cc="http://web.resource.org/cc/"
         xmlns:rdf="http://www.w3.org/1999/02/22-rdf-syntax-ns#"
         xmlns:dc = "http://purl.org/dc/elements/1.1/"
         >

     <rdf:Description rdf:about="">
       <dc:title>Mutant Standard emoji v0.2.5</dc:title>
     </rdf:Description>

    <cc:work rdf:about="">
        <cc:license rdf:resource="http://creativecommons.org/licenses/by-nc-sa/4.0/"/>
        <cc:attributionName>Dzuk</cc:attributionName>
        <cc:attributionURL>http://mutant.tech/</cc:attributionURL>
    </cc:work>

</rdf:RDF>
</metadata>
<rect id="acceptable" x="0" y="0" width="32" height="32" style="fill:none;"/><g id="outline"><circle cx="16" cy="16" r="16"/></g><g id="emoji"><circle cx="16" cy="16" r="14" style="fill:#e48a1b;"/><path d="M20.541,21.998l0,-11.421l-13.276,0l0,-2.203l17.47,0l0,2.203l-1.623,0l0,11.305c0,0.528 -0.01,0.944 -0.029,1.247c-0.02,0.302 -0.071,0.586 -0.155,0.85c-0.084,0.264 -0.18,0.454 -0.29,0.57c-0.109,0.116 -0.293,0.216 -0.551,0.3c-0.257,0.083 -0.528,0.135 -0.811,0.154c-0.284,0.02 -0.677,0.029 -1.179,0.029c-0.451,0 -1.546,-0.032 -3.285,-0.096l-0.136,-2.126c1.701,0.064 2.687,0.096 2.957,0.096c0.425,0 0.683,-0.041 0.773,-0.125c0.09,-0.084 0.135,-0.345 0.135,-0.783Zm-9.044,-3.536l4.445,0l0,-4.059l-4.445,0l0,4.059Zm0,1.971l0,1.546l-2.551,0l0,-9.547l9.47,0l0,8.001l-6.919,0Z" style="fill:#fff;fill-rule:nonzero;"/></g></svg>