<svg clip-rule="evenodd" fill-rule="evenodd" stroke-linecap="square" stroke-linejoin="round" stroke-miterlimit="1.5" viewBox="0 0 32 32" xmlns="http://www.w3.org/2000/svg" xmlns:xlink="http://www.w3.org/1999/xlink"><clipPath id="a"><path clip-rule="evenodd" d="m0 0h32v32h-32z"/></clipPath><path d="m0 0h32v32h-32z" fill="none"/><g clip-path="url(#a)"><g fill="none"><path d="m22 5s.471-.471 1.004-1.004c.826-.826 2.166-.826 2.992 0 .003.003.005.005.008.008.826.826.826 2.166 0 2.992-4.565 4.565-18.004 18.004-18.004 18.004" stroke="#000" stroke-width="6"/><path d="m3 30s10.004-17.508 11.744-20.552c.158-.277.453-.448.773-.448h.921c.13 0 .253.063.329.168.076.106.096.242.055.365-.182.546-.462 1.388-.644 1.934-.041.123-.021.259.055.365.076.105.199.168.329.168h1.876c.13 0 .253.063.329.168.076.106.096.242.055.365-.157.472-.389 1.167-.566 1.699-.048.145-.011.306.098.414.108.109.269.146.414.098.532-.177 1.227-.409 1.699-.566.123-.041.259-.021.365.055.105.076.168.199.168.329v1.876c0 .13.063.253.168.329.106.076.242.096.365.055.546-.182 1.388-.462 1.934-.644.123-.041.259-.021.365.055.105.076.168.199.168.329v.921c0 .32-.171.615-.448.773-3.044 1.74-20.552 11.744-20.552 11.744z" stroke="#000" stroke-width="4"/><path d="m22 5s.471-.471 1.004-1.004c.826-.826 2.166-.826 2.992 0 .003.003.005.005.008.008.396.397.619.935.619 1.496s-.223 1.1-.619 1.496c-1.05 1.05-2.267 2.267-2.267 2.267" stroke="#525252" stroke-width="2"/></g><path d="m17 15.414v-.828l3.724-3.724 1.603-.096.282 1.039-4.609 4.609z" fill="#3d3d3d"/><path d="m20.724 10.862 3.276-3.276 1.414 1.414-2.805 2.805z" fill="#525252"/><path d="m18.354 14.646c.108.109.269.146.414.098.532-.177 1.227-.409 1.699-.566.123-.041.259-.021.365.055.105.076.168.199.168.329v1.876c0 .13.063.253.168.329.106.076.242.096.365.055.546-.182 1.388-.462 1.934-.644.123-.041.259-.021.365.055.105.076.168.199.168.329v.921c0 .32-.171.615-.448.773-3.044 1.74-20.552 11.744-20.552 11.744l.864-1.372 13.136-13.628z" fill="#b3222e"/><path d="m3 30 11.744-20.552c.158-.277.453-.448.773-.448h.921c.13 0 .253.063.329.168.076.106.096.242.055.365-.182.546-.462 1.388-.644 1.934-.041.123-.021.259.055.365.076.105.199.168.329.168h1.876c.13 0 .253.063.329.168.076.106.096.242.055.365-.157.472-.389 1.167-.566 1.699l.098.414-15.354 15.354z" fill="#e82731"/></g></svg>