<svg clip-rule="evenodd" fill-rule="evenodd" stroke-linejoin="round" stroke-miterlimit="1.41421" viewBox="0 0 32 32" xmlns="http://www.w3.org/2000/svg" xmlns:xlink="http://www.w3.org/1999/xlink"><clipPath id="a"><path clip-rule="evenodd" d="m0 0h32v32h-32z"/></clipPath><clipPath id="b"><circle clip-rule="evenodd" cx="16" cy="16" r="14"/></clipPath><path d="m0 0h32v32h-32z" fill="none"/><g clip-path="url(#a)"><circle cx="16" cy="16" r="16"/><circle cx="16" cy="16" fill="#1a58d3" r="14"/><g clip-path="url(#b)"><path d="m8.597 11.676 1.403.324.885 1.5-.039.5 1.154 1 1-1v2h1v1h5l3.141.77c.591.146 1.085.552 1.34 1.105.248.538.519 1.125.519 1.125l2 1s-1.904 3.807-2.678 5.356c-.212.423-.52.791-.901 1.072l-4.837 3.572-1.075-2 1.491-4-2-1-2-3-.667-1 .667-2-2-1-3-1-.5-1-.5-2zm8.403-8.676h-2l-1 1 2 1 1-1 2 2s-1.245 1.245-1.771 1.771c-.152.152-.278.327-.374.519-.277.555-.855 1.71-.855 1.71l-1.077 3-.923-1h-3l-2-.514h-1l-.5 2.014-1.5-1.5v-4l-3-3v-4h14z" fill="#27b85b"/><path d="m13.333 20h.667l3 4 2 1-2 4.596.584 1.404-1.353 1-.231-3 1-4-2-1-2-3zm-5.833-6.5-.5-1.5v-2.628l1.5 1.628h1l1.5-.5v1.5l-.115 1.5h-.385l-.5-.5h-.5v-1h-1v3l-.5-1z" fill="#f4c815"/><path d="m19 1 1 4h2v-4z" fill="#fff"/><g fill="#27b85b"><path d="m15 14v1h2l-1-1z"/><path d="m17 15h1v1h-1z"/></g></g></g></svg>