<svg clip-rule="evenodd" fill-rule="evenodd" stroke-linejoin="round" stroke-miterlimit="1.41421" viewBox="0 0 32 32" xmlns="http://www.w3.org/2000/svg" xmlns:xlink="http://www.w3.org/1999/xlink"><clipPath id="a"><path clip-rule="evenodd" d="m0 0h32v32h-32z"/></clipPath><clipPath id="b"><circle clip-rule="evenodd" cx="16" cy="16" r="14"/></clipPath><clipPath id="c"><path clip-rule="evenodd" d="m12 3 1 1-1 1s-.855.428-1.447.724c-.339.169-.553.515-.553.894v.382l-2 1v1l1 1h1l2-2 2 1 1 1v-1l2-1h1v-2l2 1-2 2 2 1h1l-2 2-3-1v1l-3-1-1-1-3 1s-1.118 1.49-1.988 2.651c-.629.838-.775 1.942-.386 2.914.197.491.415 1.038.62 1.549.455 1.139 1.558 1.886 2.785 1.886h1.969l2 2v1s.495.991.789 1.578c.139.277.211.584.211.894v2.528l2 2h2l1-3 2-4v-1l2-4h-2l-2-5h1s.901 1.802 1.493 2.987c.129.256.361.445.638.519s.573.025.812-.134c.879-.587 2.057-1.372 2.057-1.372l-1-1-1-2h1s.216.432.447.894c.339.678 1.032 1.106 1.789 1.106h.764l3-3v1h2v-12h-13-7l-1 3z"/></clipPath><path d="m0 0h32v32h-32z" fill="none"/><g clip-path="url(#a)"><circle cx="16" cy="16" r="16"/><circle cx="16" cy="16" fill="#1a58d3" r="14"/><g clip-path="url(#b)"><path d="m12 3 1 1-1 1s-.855.428-1.447.724c-.339.169-.553.515-.553.894v.382l-2 1v1l1 1h1l2-2 2 1 1 1v-1l2-1h1v-2l2 1-2 2 2 1h1l-2 2-3-1v1l-3-1-1-1-3 1s-1.118 1.49-1.988 2.651c-.629.838-.775 1.942-.386 2.914.197.491.415 1.038.62 1.549.455 1.139 1.558 1.886 2.785 1.886h1.969l2 2v1s.495.991.789 1.578c.139.277.211.584.211.894v2.528l2 2h2l1-3 2-4v-1l2-4h-2l-2-5h1s.901 1.802 1.493 2.987c.129.256.361.445.638.519s.573.025.812-.134c.879-.587 2.057-1.372 2.057-1.372l-1-1-1-2h1s.216.432.447.894c.339.678 1.032 1.106 1.789 1.106h.764l3-3v1h2v-12h-13-7l-1 3z" fill="#27b85b"/><g clip-path="url(#c)" fill="#f4c815"><path d="m6 18h4l2 1h2l3-1h3l1 1v2l-1 1h3l3.438-3.438 2.562-4.562 1-2-2-5h-5l1 3-2 1h-4-11l-2 3z"/><path d="m14 25h2v2l1 1 1-1v2l1 2h-5z"/></g><g fill="#27b85b"><path d="m10 4h1v1h-1z"/><path d="m24 23h-1l-1 3 2 1z"/></g></g><path d="m22 6h1v1l1 2h-2v-2z" fill="#1850c0"/></g></svg>