<svg clip-rule="evenodd" fill-rule="evenodd" stroke-linejoin="round" stroke-miterlimit="1.41421" viewBox="0 0 32 32" xmlns="http://www.w3.org/2000/svg" xmlns:xlink="http://www.w3.org/1999/xlink"><clipPath id="a"><path clip-rule="evenodd" d="m0 0h32v32h-32z"/></clipPath><clipPath id="b"><circle clip-rule="evenodd" cx="16" cy="16" r="14"/></clipPath><clipPath id="c"><path clip-rule="evenodd" d="m1 14 1 2s.572 1.716.851 2.552c.098.295.263.562.483.782.569.569 1.666 1.666 1.666 1.666s0-.932 0-1.757c0-.796.316-1.559.879-2.122.885-.885 2.121-2.121 2.121-2.121l1 2h1v4l1 3 1-1-1-2v-3l1 2h2v-2l-1-2h1.528c.31 0 .617-.072.894-.211.583-.291 1.654-.827 2.472-1.236.678-.339 1.106-1.032 1.106-1.789 0-.456 0-.945 0-1.292 0-.31-.072-.617-.211-.894-.294-.587-.789-1.578-.789-1.578v-1l2 2 1-1-1-1h1v-2-1l2 1v-1l-1-2v-1h-21v12z"/></clipPath><clipPath id="d"><path clip-rule="evenodd" d="m17 30s-.219-.656-.451-1.354c-.315-.945.112-1.977 1.002-2.422 1.125-.562 2.449-1.224 2.449-1.224l2-3 1 2h1l1-2v2l2 4-2 3-3-1z"/></clipPath><path d="m0 0h32v32h-32z" fill="none"/><g clip-path="url(#a)"><circle cx="16" cy="16" r="16"/><circle cx="16" cy="16" fill="#1a58d3" r="14"/><g clip-path="url(#b)"><path d="m1 14 1 2s.572 1.716.851 2.552c.098.295.263.562.483.782.569.569 1.666 1.666 1.666 1.666s0-.932 0-1.757c0-.796.316-1.559.879-2.122.885-.885 2.121-2.121 2.121-2.121l1 2h1v4l1 3 1-1-1-2v-3l1 2h2v-2l-1-2h1.528c.31 0 .617-.072.894-.211.583-.291 1.654-.827 2.472-1.236.678-.339 1.106-1.032 1.106-1.789 0-.456 0-.945 0-1.292 0-.31-.072-.617-.211-.894-.294-.587-.789-1.578-.789-1.578v-1l2 2 1-1-1-1h1v-2-1l2 1v-1l-1-2v-1h-21v12z" fill="#27b85b"/><g clip-path="url(#c)"><path d="m2 7h13v1l-2.5 1 2 1.5-1.5.5h-4l-1 1.5 2 .5-4.5.5-1.5.5v7h-2z" fill="#f4c815"/></g><path d="m22 7v2l-2 2 1 1 2-3v-2z" fill="#27b85b"/><path d="m16 17-1 2v1l1 1z" fill="#27b85b"/><path d="m13 24v2h1l1-2v-2z" fill="#27b85b"/><path d="m17 20v1l-1 1 1 1 1-1v-1l1-1h-1z" fill="#27b85b"/><path d="m17 30s-.219-.656-.451-1.354c-.315-.945.112-1.977 1.002-2.422 1.125-.562 2.449-1.224 2.449-1.224l2-3 1 2h1l1-2v2l2 4-2 3-3-1z" fill="#27b85b"/><g clip-path="url(#d)"><path d="m16 26h5l1-1 3 1v3h-6l-3-2z" fill="#f4c815"/></g><g fill="#27b85b"><path d="m8 23 1 1 2 3h1v-1l-2-2"/><path d="m20 20v1h2l2 1v-1l1-1v-1l-2 1z"/><path d="m18 17h1v2l-1-1z"/><path d="m18 15h1v1h-1z"/><path d="m16 24v1h1l1-1z"/><path d="m26 21v1l2 2v-1z"/></g></g></g></svg>