<?xml version="1.0" encoding="UTF-8" standalone="no"?><!DOCTYPE svg PUBLIC "-//W3C//DTD SVG 1.1//EN" "http://www.w3.org/Graphics/SVG/1.1/DTD/svg11.dtd"><svg width="100%" height="100%" viewBox="0 0 32 32" version="1.1" xmlns="http://www.w3.org/2000/svg" xmlns:xlink="http://www.w3.org/1999/xlink" xml:space="preserve" xmlns:serif="http://www.serif.com/" style="fill-rule:evenodd;clip-rule:evenodd;stroke-linejoin:round;stroke-miterlimit:1.41421;">
<metadata>
<rdf:RDF xmlns:cc="http://web.resource.org/cc/"
         xmlns:rdf="http://www.w3.org/1999/02/22-rdf-syntax-ns#"
         xmlns:dc = "http://purl.org/dc/elements/1.1/"
         >

     <rdf:Description rdf:about="">
       <dc:title>Mutant Standard emoji v0.2.5</dc:title>
     </rdf:Description>

    <cc:work rdf:about="">
        <cc:license rdf:resource="http://creativecommons.org/licenses/by-nc-sa/4.0/"/>
        <cc:attributionName>Dzuk</cc:attributionName>
        <cc:attributionURL>http://mutant.tech/</cc:attributionURL>
    </cc:work>

</rdf:RDF>
</metadata>
<rect id="earth_asia_oceania" x="0" y="0" width="32" height="32" style="fill:none;"/><clipPath id="_clip1"><rect x="0" y="0" width="32" height="32"/></clipPath><g clip-path="url(#_clip1)"><g id="outline"><circle cx="16" cy="16" r="16"/></g><g id="emoji"><circle cx="16" cy="16" r="14" style="fill:#5462cb;"/><clipPath id="_clip2"><circle cx="16" cy="16" r="14"/></clipPath><g clip-path="url(#_clip2)"><path d="M17,30l-1,-3l4,-2l2,-3l1,2l1,0l1,-2l0,2l2,4l-2,3l-3,-1l-1,-1l-4,1Zm-5,-3l-1,0l-2,-3l-1,-1l2,1l2,2l0,1Zm1,-3l0,2l1,0l1,-2l0,-2l-2,2Zm3,0l2,0l-1,1l-1,0l0,-1Zm6,-22l0,1l1,2l0,1l-2,-1l0,3l-1,0l1,1l-1,1l-2,-2l0,1l1,2l0,3l-4,2l-2,0l1,2l0,2l-2,0l-1,-2l0,3l1,2l-1,1l-1,-3l0,-4l-1,0l-1,-2l-3,3l0,3l-2,-2l0,-3l-2,-2l0,-12l21,0Zm4,19l0,1l2,2l0,-1l-2,-2Zm-7,-1l-1,1l0,1l-1,1l-1,-1l1,-1l0,-1l2,0Zm4,0l2,-1l0,1l-1,1l0,1l-2,-1l-2,0l0,-1l3,0Zm-7,-3l-1,2l0,1l1,1l0,-4Zm2,0l1,0l0,2l-1,-1l0,-1Zm0,-2l1,0l0,1l-1,0l0,-1Zm5,-8l0,2l-2,3l-1,-1l2,-2l0,-2l1,0Z" style="fill:#14b85b;"/></g></g></g></svg>