<svg clip-rule="evenodd" fill-rule="evenodd" stroke-linejoin="round" stroke-miterlimit="1.5" viewBox="0 0 32 32" xmlns="http://www.w3.org/2000/svg"><path d="m0 0h32v32h-32z" fill="none"/><circle cx="16" cy="16" r="16"/><circle cx="16" cy="16" fill="#d0e3e6" r="14"/><path d="m7 11.171v-.171c0-.796.316-1.559.879-2.121.562-.563 1.325-.879 2.121-.879s1.559.316 2.121.879c.563.562.879 1.325.879 2.121v3c0 .796-.316 1.559-.879 2.121-.562.563-1.325.879-2.121.879-.344 0-.681-.059-.999-.171 1.164-.413-1.688-5.769-2.001-5.658z" fill="#fff"/><path d="m7 11.171c.313-.111.649-.171 1-.171 1.656 0 3 1.344 3 3 0 1.305-.835 2.416-1.999 2.829-.418-.148-.803-.388-1.122-.708-.563-.562-.879-1.325-.879-2.121z"/><path d="m19 11.171v-.171c0-.796.316-1.559.879-2.121.562-.563 1.325-.879 2.121-.879s1.559.316 2.121.879c.563.562.879 1.325.879 2.121v3c0 .796-.316 1.559-.879 2.121-.562.563-1.325.879-2.121.879-.344 0-.681-.059-.999-.171 1.164-.413-1.688-5.769-2.001-5.658z" fill="#fff"/><path d="m19 11.171c.313-.111.649-.171 1-.171 1.656 0 3 1.344 3 3 0 1.305-.835 2.416-1.999 2.829-.418-.148-.803-.388-1.122-.708-.563-.562-.879-1.325-.879-2.121z"/><g fill="none" stroke="#769ab6" stroke-width="2"><path d="m13 19 3 1 3-1"/><path d="m10 23s1.341.447 2.23.743c.51.17 1.044.257 1.581.257h4.378c.537 0 1.071-.087 1.581-.257.889-.296 2.23-.743 2.23-.743" stroke-linejoin="miter"/></g></svg>