<svg clip-rule="evenodd" fill-rule="evenodd" stroke-linecap="square" stroke-linejoin="round" stroke-miterlimit="1.5" viewBox="0 0 32 32" xmlns="http://www.w3.org/2000/svg" xmlns:xlink="http://www.w3.org/1999/xlink"><clipPath id="a"><path clip-rule="evenodd" d="m0 0h32v32h-32z"/></clipPath><clipPath id="b"><path clip-rule="evenodd" d="m17.031 17c.319 5.164 3.092 9.668 7.165 12.359-1.325.416-2.734.641-4.196.641-7.727 0-14-6.273-14-14s6.273-14 14-14c1.462 0 2.871.225 4.196.641-3.602 2.38-6.188 6.178-6.958 10.597l3.762 3.762z"/></clipPath><path d="m0 0h32v32h-32z" fill="none"/><g clip-path="url(#a)"><path d="m17.031 17c.319 5.164 3.092 9.668 7.165 12.359-1.325.416-2.734.641-4.196.641-7.727 0-14-6.273-14-14s6.273-14 14-14c1.462 0 2.871.225 4.196.641-3.603 2.381-6.189 6.18-6.956 10.599l3.76 3.76z" fill="none" stroke="#000" stroke-width="4"/><path d="m17.031 17c.319 5.164 3.092 9.668 7.165 12.359-1.325.416-2.734.641-4.196.641-7.727 0-14-6.273-14-14s6.273-14 14-14c1.462 0 2.871.225 4.196.641-3.602 2.38-6.188 6.178-6.958 10.597l3.762 3.762z" fill="#d0e3e6"/><g clip-path="url(#b)"><path d="m12.052 19.001.053.004.051.007.052.01.051.012.05.015.049.017.049.02.047.023.046.025.045.027.043.03.041.032.04.034.038.036.824.824.058.056.054.051.056.049.057.048.057.046.059.044.06.043.061.042.061.04.063.038.063.037.064.035.065.034.066.032.067.031.067.029.068.027.068.025.07.024.069.022.071.021.071.018.071.017.072.016.072.013.073.012.073.01.073.008.074.007.074.004.074.003.081.001h3.337l.052.001.053.004.051.007.052.01.051.012.05.015.049.017.049.02.047.023.046.025.045.027.043.03.041.032.04.034.038.036.036.038.034.04.032.041.03.043.027.045.025.046.023.047.02.049.017.049.015.05.012.051.01.052.007.051.004.053.001.052-.001.052-.004.053-.007.051-.01.052-.012.051-.015.05-.017.049-.02.049-.023.047-.025.046-.027.045-.03.043-.032.041-.034.04-.036.038-.038.036-.04.034-.041.032-.043.03-.045.027-.046.025-.047.023-.049.02-.049.017-.05.015-.051.012-.052.01-.051.007-.053.004-.052.001h-3.349l-.118-.001-.124-.005-.123-.008-.123-.01-.123-.014-.121-.017-.122-.019-.12-.023-.12-.025-.119-.029-.118-.031-.117-.034-.117-.037-.115-.04-.114-.042-.114-.046-.112-.048-.111-.05-.109-.054-.109-.056-.107-.059-.105-.061-.104-.064-.103-.067-.101-.069-.1-.072-.098-.074-.096-.077-.094-.08-.093-.081-.091-.085-.084-.082-.833-.833-.036-.038-.034-.04-.032-.041-.03-.043-.027-.045-.025-.046-.023-.047-.02-.049-.017-.049-.015-.05-.012-.051-.01-.052-.007-.051-.004-.053-.001-.052.001-.052.004-.053.007-.051.01-.052.012-.051.015-.05.017-.049.02-.049.023-.047.025-.046.027-.045.03-.043.032-.041.034-.04.036-.038.038-.036.04-.034.041-.032.043-.03.045-.027.046-.025.047-.023.049-.02.049-.017.05-.015.051-.012.052-.01.052-.007.052-.004.052-.001.052.001z" fill="#4c728e"/></g><path d="m15 11.5c0-.398-.158-.779-.439-1.061-.282-.281-.663-.439-1.061-.439s-.779.158-1.061.439c-.281.282-.439.663-.439 1.061v2c0 .398.158.779.439 1.061.282.281.663.439 1.061.439s.779-.158 1.061-.439c.281-.282.439-.663.439-1.061 0-.633 0-1.367 0-2z"/></g></svg>