<svg clip-rule="evenodd" fill-rule="evenodd" stroke-linejoin="round" stroke-miterlimit="1.5" viewBox="0 0 32 32" xmlns="http://www.w3.org/2000/svg"><path d="m0 0h32v32h-32z" fill="none"/><circle cx="16" cy="16" r="16"/><circle cx="16" cy="16" fill="#ffc144" r="14"/><path d="m9.001 8.171c.318-.112.655-.171.999-.171.796 0 1.559.316 2.121.879.563.562.879 1.325.879 2.121v3c0 .796-.316 1.559-.879 2.121-.562.563-1.325.879-2.121.879s-1.559-.316-2.121-.879c-.563-.562-.879-1.325-.879-2.121v-.171c.313.111 3.165-5.245 2.001-5.658z" fill="#fff"/><path d="m9.001 8.171c1.164.413 1.999 1.524 1.999 2.829 0 1.656-1.344 3-3 3-.351 0-.687-.06-1-.171v-2.829c0-.796.316-1.559.879-2.121.319-.32.704-.56 1.122-.708z"/><path d="m21.001 8.171c.318-.112.655-.171.999-.171.796 0 1.559.316 2.121.879.563.562.879 1.325.879 2.121v3c0 .796-.316 1.559-.879 2.121-.562.563-1.325.879-2.121.879s-1.559-.316-2.121-.879c-.563-.562-.879-1.325-.879-2.121v-.171c.313.111 3.165-5.245 2.001-5.658z" fill="#fff"/><path d="m21.001 8.171c1.164.413 1.999 1.524 1.999 2.829 0 1.656-1.344 3-3 3-.351 0-.687-.06-1-.171v-2.829c0-.796.316-1.559.879-2.121.319-.32.704-.56 1.122-.708z"/><g fill="none" stroke="#d97408" stroke-width="2"><path d="m13 19 3 1 3-1"/><path d="m10 23s1.341.447 2.23.743c.51.17 1.044.257 1.581.257h4.378c.537 0 1.071-.087 1.581-.257.889-.296 2.23-.743 2.23-.743" stroke-linejoin="miter"/></g></svg>