<svg clip-rule="evenodd" fill-rule="evenodd" stroke-linecap="square" stroke-linejoin="round" stroke-miterlimit="1.5" viewBox="0 0 32 32" xmlns="http://www.w3.org/2000/svg" xmlns:xlink="http://www.w3.org/1999/xlink"><clipPath id="a"><path clip-rule="evenodd" d="m0 0h32v32h-32z"/></clipPath><clipPath id="b"><path clip-rule="evenodd" d="m14.969 17c-.319 5.164-3.092 9.668-7.165 12.359 1.325.416 2.734.641 4.196.641 7.727 0 14-6.273 14-14s-6.273-14-14-14c-1.462 0-2.871.225-4.196.641 3.602 2.38 6.188 6.178 6.958 10.597l-3.762 3.762z"/></clipPath><path d="m0 0h32v32h-32z" fill="none"/><g clip-path="url(#a)"><path d="m14.969 17c-.319 5.164-3.092 9.668-7.165 12.359 1.325.416 2.734.641 4.196.641 7.727 0 14-6.273 14-14s-6.273-14-14-14c-1.462 0-2.871.225-4.196.641 3.603 2.381 6.189 6.18 6.956 10.599l-3.76 3.76z" fill="none" stroke="#000" stroke-width="4"/><path d="m14.969 17c-.319 5.164-3.092 9.668-7.165 12.359 1.325.416 2.734.641 4.196.641 7.727 0 14-6.273 14-14s-6.273-14-14-14c-1.462 0-2.871.225-4.196.641 3.602 2.38 6.188 6.178 6.958 10.597l-3.762 3.762z" fill="#d0e3e6"/><g clip-path="url(#b)"><path d="m20.052 19.001.052.004.052.007.052.01.051.012.05.015.049.017.049.02.047.023.046.025.045.027.043.03.041.032.04.034.038.036.036.038.034.04.032.041.03.043.027.045.025.046.023.047.02.049.017.049.015.05.012.051.01.052.007.051.004.053.001.052-.001.052-.004.053-.007.051-.01.052-.012.051-.015.05-.017.049-.02.049-.023.047-.025.046-.027.045-.03.043-.032.041-.034.04-.036.038-.833.833-.084.082-.091.085-.093.081-.094.08-.096.077-.098.074-.1.072-.101.069-.103.067-.104.064-.105.061-.107.059-.109.056-.109.054-.111.05-.112.048-.114.046-.114.042-.115.04-.117.037-.117.034-.118.031-.119.029-.12.025-.12.023-.122.019-.121.017-.123.014-.123.01-.123.008-.124.005-.118.001h-3.349l-.052-.001-.053-.004-.051-.007-.052-.01-.051-.012-.05-.015-.049-.017-.049-.02-.047-.023-.046-.025-.045-.027-.043-.03-.041-.032-.04-.034-.038-.036-.036-.038-.034-.04-.032-.041-.03-.043-.027-.045-.025-.046-.023-.047-.02-.049-.017-.049-.015-.05-.012-.051-.01-.052-.007-.051-.004-.053-.001-.052.001-.052.004-.053.007-.051.01-.052.012-.051.015-.05.017-.049.02-.049.023-.047.025-.046.027-.045.03-.043.032-.041.034-.04.036-.038.038-.036.04-.034.041-.032.043-.03.045-.027.046-.025.047-.023.049-.02.049-.017.05-.015.051-.012.052-.01.051-.007.053-.004.052-.001h3.337l.081-.001.074-.003.074-.004.074-.007.073-.008.073-.01.073-.012.072-.013.072-.016.071-.017.071-.018.071-.021.069-.022.07-.024.068-.025.068-.027.067-.029.067-.031.066-.032.065-.034.064-.035.063-.037.063-.038.061-.04.061-.042.06-.043.059-.044.057-.046.057-.048.056-.049.054-.051.058-.056.824-.824.038-.036.04-.034.041-.032.043-.03.045-.027.046-.025.047-.023.049-.02.049-.017.05-.015.051-.012.052-.01.051-.007.053-.004.052-.001.052.001z" fill="#4c728e"/></g><path d="m17 11.5c0-.398.158-.779.439-1.061.282-.281.663-.439 1.061-.439s.779.158 1.061.439c.281.282.439.663.439 1.061v2c0 .398-.158.779-.439 1.061-.282.281-.663.439-1.061.439s-.779-.158-1.061-.439c-.281-.282-.439-.663-.439-1.061 0-.633 0-1.367 0-2z"/></g></svg>