<svg clip-rule="evenodd" fill-rule="evenodd" stroke-linecap="round" stroke-linejoin="round" stroke-miterlimit="2" viewBox="0 0 32 32" xmlns="http://www.w3.org/2000/svg" xmlns:xlink="http://www.w3.org/1999/xlink"><clipPath id="a"><path clip-rule="evenodd" d="m0 0h32v32h-32z"/></clipPath><path d="m0 0h32v32h-32z" fill="none"/><g clip-path="url(#a)"><path d="m15 5.5v-2c0-.133.053-.26.146-.354.094-.093.221-.146.354-.146h1c.133 0 .26.053.354.146.093.094.146.221.146.354v4.36c1.14-.279 2.588-.87 4-.86 1.351.01 2.767.032 4.548.841 1.384.628 3.36 2.811 3.624 6.544.161 2.274-.221 4.81-2.704 9.726-2.517 4.982-4.542 5.904-6.468 5.889-1.639-.013-4-1-4-1s-2.361.987-4 1c-1.926.015-3.951-.907-6.468-5.889-2.483-4.916-2.865-7.452-2.704-9.726.264-3.733 2.24-5.916 3.624-6.544.31-.141.609-.258.898-.355l-4.35-2.486s.447-.268 1.073-.644c2.446-1.467 5.472-1.584 8.023-.308zm0 2.36v-1.36l-1.733.866c.621.172 1.209.366 1.733.494z" fill="none" stroke="#000" stroke-width="4"/><path d="m17 3.5c0-.133-.053-.26-.146-.354-.094-.093-.221-.146-.354-.146-.305 0-.695 0-1 0-.133 0-.26.053-.354.146-.093.094-.146.221-.146.354v7.5h2s0-5.749 0-7.5z" fill="#675230"/><path d="m16 6s-1.936-.968-3.904-1.952c-2.551-1.276-5.577-1.159-8.023.308-.626.376-1.073.644-1.073.644s2.483 1.419 4.491 2.566c1.567.896 3.479.949 5.094.142 1.625-.813 3.415-1.708 3.415-1.708z" fill="#219555"/><path d="m16.03 8c1.2.011 3.116-1.013 4.97-1 1.351.01 2.767.032 4.548.841 1.384.628 3.36 2.811 3.624 6.544.161 2.274-.221 4.81-2.704 9.726-2.517 4.982-4.542 5.904-6.468 5.889-1.639-.013-4-1-4-1s-2.361.987-4 1c-1.926.015-3.951-.907-6.468-5.889-2.483-4.916-2.865-7.452-2.704-9.726.264-3.733 2.24-5.916 3.624-6.544 1.781-.809 3.197-.831 4.548-.841 1.854-.013 3.77 1.011 4.97 1h.013.017.017z" fill="#d72d35"/><path d="m8.616 8.504.077.008.076.012.076.016.074.02.074.023.072.028.071.03.069.035.067.038.065.041.063.045.061.048.058.051.055.054.053.057.049.059.047.062.043.064.039.066.037.068.032.07.03.072.025.073.022.074.017.075.014.076.01.077.006.077.002.077v.74l-.684.524-.081.066-.08.067-.078.068-.077.07-.074.071-.073.072-.071.074-.07.075-.067.076-.066.077-.064.079-.063.08-.06.08-.059.082-.056.083-.055.085-.054.085-.051.086-.05.087-.047.088-.046.089-.044.089-.042.091-.04.091-.039.092-.036.093-.034.094-.033.094-.03.095-.029.095-.027.096-.025.097-.022.097-.021.097-.019.098-.017.098-.014.099-.013.099-.011.099-.009.099-.006.1-.005.1-.003.1v.1l.001.1.004.1.006.101.008.1.009.1.012.101.015.1.016.1.018.1.021.1.023.099.024.099.028.1.029.098.031.099.034.098.036.098.038.098.043.104 1.028 2.397.028.072.025.073.021.074.017.076.014.076.009.076.006.077.001.078-.003.077-.006.077-.011.076-.014.076-.018.075-.022.074-.026.073-.03.071-.033.07-.037.068-.04.066-.044.064-.046.061-.05.059-.053.057-.056.053-.058.051-.061.047-.064.044-.065.041-.067.038-.07.034-.071.03-.072.027-.074.023-.075.019-.076.016-.076.011-.077.007-.077.004-.077-.001-.077-.004-.077-.009-.076-.012-.076-.017-.074-.02-.074-.024-.072-.028-.071-.031-.068-.035-.067-.039-.065-.041-.063-.046-.06-.048-.058-.051-.055-.055-.052-.057-.049-.059-.046-.063-.042-.064-.04-.066-.035-.069-.033-.07-1.033-2.412-.062-.149-.062-.157-.058-.158-.054-.158-.051-.16-.047-.159-.044-.161-.04-.161-.037-.161-.033-.162-.03-.162-.027-.162-.022-.162-.02-.162-.016-.163-.013-.163-.009-.162-.006-.162-.002-.163.001-.162.004-.162.007-.161.011-.161.014-.161.018-.16.02-.16.024-.159.027-.159.031-.158.033-.157.037-.157.04-.156.043-.155.046-.154.05-.153.052-.152.056-.151.059-.15.061-.149.065-.147.068-.147.071-.145.074-.143.078-.143.08-.14.083-.14.086-.138.089-.136.092-.134.095-.133.098-.131.101-.13.104-.127.106-.125.11-.124.112-.121.115-.119.118-.118.121-.115.124-.112.126-.111.129-.108.132-.105.121-.093.013-.01.063-.045.065-.041.067-.038.069-.035.071-.03.072-.028.074-.023.074-.02.076-.016.076-.012.077-.008.077-.004h.078z" fill="#fd626a"/></g></svg>