<svg clip-rule="evenodd" fill-rule="evenodd" stroke-linejoin="round" stroke-miterlimit="1.41421" viewBox="0 0 32 32" xmlns="http://www.w3.org/2000/svg"><path d="m0 0h32v32h-32z" fill="none"/><path d="m2.449 7.008-.664-1.661c-.15-.391-.229-.801-.222-1.22.005-.288.049-.576.131-.852.27-.907.946-1.662 1.819-2.028.386-.162.797-.24 1.214-.247.074 0 .074.001.148.003.172.012.34.033.508.075.331.083.644.232.918.434.098.073.188.152.276.236l1.599 1.599.042-.001c.141-.003.14-.003.282-.002.376.009.749.042 1.119.111.84.155 1.649.472 2.37.931.371.236.713.51 1.034.811 1.371 1.34 2.705 2.717 4.068 4.064.354.342.732.656 1.139.933s.837.514 1.285.718c2.149.95 4.315 1.862 6.464 2.813.356.163.702.343 1.036.548.726.444 1.389.99 1.967 1.615.763.827 1.373 1.794 1.791 2.839.391.977.613 2.019.655 3.069.037.927-.066 1.858-.305 2.754-.522 1.958-1.696 3.724-3.273 4.992-.922.742-1.98 1.312-3.106 1.676-1.25.404-2.579.55-3.887.429-1.006-.093-1.996-.344-2.925-.741-.392-.168-.77-.363-1.138-.578-1.901-1.144-3.793-2.303-5.679-3.471-.771-.49-1.509-1.028-2.2-1.625-1.634-1.41-3.01-3.114-4.044-5.008-.402-.736-.753-1.5-1.048-2.285-.149-.396-.282-.797-.405-1.201-.482-1.65-.946-3.305-1.418-4.958-.07-.255-.129-.511-.171-.772-.082-.517-.102-1.043-.06-1.565.068-.846.3-1.677.68-2.435z"/><path d="m13 8 2.606 2.606c.921.921 2.007 1.661 3.201 2.18 1.573.684 3.956 1.721 6.266 2.725 1.812.788 3.223 2.28 3.91 4.132.686 1.852.589 3.903-.271 5.681-.001.001-.001.001-.001.002-.95 1.963-2.684 3.434-4.777 4.049-2.092.615-4.347.317-6.207-.82-1.802-1.101-3.699-2.26-5.389-3.293-3.433-2.098-5.951-5.409-7.057-9.277l-.781-2.735 1.995-6.002z" fill="#5c247c"/><path d="m4.5 13.25-.574-2.01c-.552-1.93.207-3.996 1.878-5.109 0 0 0-.001.001-.001 1.858-1.238 4.331-.994 5.91.585l1.285 1.285v1h-3l-1 3-3-1z" fill="#219555"/><path d="m12.047 12.501c.121.006.24.022.358.055.35.098.658.325.856.631.124.193.184.412.265.625.038.094.077.187.117.28.125.274.266.54.428.794.363.568.82 1.076 1.347 1.496.316.252.656.469 1.013.656 1.741.884 3.493 1.747 5.24 2.62.194.103.365.235.503.408.12.151.211.326.265.512.048.162.068.332.059.501-.008.145-.037.289-.085.425-.049.137-.118.266-.203.383-.26.354-.671.58-1.108.61-.245.016-.481-.031-.707-.125-1.801-.846-3.565-1.767-5.339-2.668-.433-.226-.849-.481-1.242-.772-.868-.641-1.62-1.436-2.211-2.339-.287-.437-.536-.899-.743-1.379-.075-.173-.145-.348-.209-.525-.012-.036-.025-.071-.037-.107-.011-.031-.043-.126-.033-.094l-.021-.069c-.05-.189-.072-.38-.052-.575.053-.511.375-.969.837-1.193.176-.086.363-.13.557-.148.073-.003.072-.003.145-.002z" fill="#8836ba" fill-rule="nonzero"/><path d="m5 8s-.768-1.921-1.353-3.382c-.145-.363-.101-.775.119-1.1.219-.324.585-.518.977-.518h.003c.162 0 .319.065.434.18.647.647 2.82 2.82 2.82 2.82z" fill="#219555"/></svg>