<svg clip-rule="evenodd" fill-rule="evenodd" stroke-linecap="round" stroke-linejoin="round" stroke-miterlimit="1.5" viewBox="0 0 32 32" xmlns="http://www.w3.org/2000/svg" xmlns:xlink="http://www.w3.org/1999/xlink"><clipPath id="a"><path clip-rule="evenodd" d="m0 0h32v32h-32z"/></clipPath><clipPath id="b"><path clip-rule="evenodd" d="m3-3h26v23.704h-26z"/></clipPath><clipPath id="c"><path clip-rule="evenodd" d="m3 1h26v14c0 2.208-5.825 4-13 4s-13-1.792-13-4z"/></clipPath><clipPath id="d"><ellipse clip-rule="evenodd" cx="16" cy="16.5" rx="11.143" ry="12.5"/></clipPath><path d="m0 0h32v32h-32z" fill="none"/><g clip-path="url(#a)"><path d="m3-3h26v23.704h-26z" fill="none"/><g clip-path="url(#b)"><ellipse cx="16" cy="16.5" fill="none" rx="11.143" ry="12.5" stroke="#000" stroke-width="4"/></g><path d="m3 15c0 6.627 5.82 12 13 12s13-5.373 13-12h-13z" fill="none" stroke="#000" stroke-width="4"/><path d="m16.351 9.001.349.004.346.007.345.01.342.012.34.014.337.018.334.019.332.023.329.024.326.027.324.03.32.032.317.034.314.037.31.039.308.042.303.043.301.046.296.048.293.051.29.053.285.054.282.057.277.06.274.061.269.064.266.065.261.068.254.07.13.036.125.037.125.037.124.038.122.038.122.038.12.04.119.04.119.04.117.041.116.042.114.042.114.043.113.044.111.044.111.045.109.045.108.046.107.047.106.048.105.048.104.049.103.05.101.051.101.052.099.052.098.053.097.055.096.055.095.056.094.057.093.059.092.059.091.061.089.062.089.063.087.065.087.066.085.067.084.07.083.071.081.072.081.075.079.077.078.078.077.081.075.084.073.085.072.088.07.091.069.094.066.096.064.099.061.102.059.106.056.108.053.111.05.114.046.118.042.12.038.123.034.125.029.127.024.13.019.131.013.133.009.133.002.134-.002.134-.009.133-.013.133-.019.131-.024.13-.029.127-.034.125-.038.123-.042.12-.046.118-.05.114-.053.111-.056.108-.059.105-.061.103-.064.099-.067.097-.068.093-.07.091-.072.088-.073.085-.075.084-.077.081-.078.078-.079.077-.081.075-.081.072-.083.071-.084.07-.085.067-.087.066-.087.065-.089.063-.089.062-.091.061-.092.059-.093.059-.094.057-.094.056-.096.055-.098.055-.098.053-.099.052-.101.052-.101.051-.103.05-.104.049-.105.048-.106.048-.107.047-.108.046-.109.045-.111.045-.111.044-.113.044-.114.043-.114.042-.116.042-.117.041-.118.04-.12.04-.12.04-.122.038-.122.038-.124.038-.125.037-.125.037-.13.036-.254.07-.261.068-.266.065-.269.064-.274.061-.277.06-.282.057-.285.054-.29.053-.293.051-.296.048-.301.046-.303.043-.308.042-.31.039-.314.037-.317.034-.32.032-.323.03-.327.027-.329.024-.332.023-.334.019-.337.018-.34.014-.342.012-.345.01-.346.007-.349.004-.351.001-.351-.001-.349-.004-.346-.007-.345-.01-.342-.012-.34-.014-.337-.018-.334-.019-.332-.023-.329-.024-.327-.027-.323-.03-.32-.032-.317-.034-.314-.037-.31-.039-.308-.042-.303-.043-.301-.046-.296-.048-.293-.051-.29-.053-.285-.054-.282-.057-.277-.06-.274-.061-.269-.064-.266-.065-.261-.068-.254-.07-.13-.036-.125-.037-.125-.037-.124-.038-.122-.038-.122-.038-.12-.04-.119-.04-.118-.04-.118-.041-.116-.042-.114-.042-.114-.043-.113-.044-.111-.044-.111-.045-.109-.045-.108-.046-.107-.047-.106-.048-.105-.048-.104-.049-.103-.05-.101-.051-.101-.052-.099-.052-.098-.053-.098-.055-.096-.055-.094-.056-.094-.057-.093-.059-.092-.059-.091-.061-.089-.062-.089-.063-.087-.065-.087-.066-.085-.067-.084-.07-.083-.071-.082-.072-.08-.075-.079-.077-.078-.078-.077-.081-.075-.084-.073-.085-.072-.088-.07-.091-.069-.094-.066-.096-.064-.099-.061-.102-.059-.106-.056-.108-.053-.111-.05-.115-.046-.117-.042-.12-.038-.123-.034-.125-.029-.127-.024-.13-.019-.131-.013-.132-.009-.134-.002-.134.002-.134.009-.134.013-.132.019-.131.024-.13.029-.127.034-.125.038-.123.042-.12.046-.117.05-.115.053-.111.056-.108.059-.106.061-.102.064-.099.066-.096.069-.094.07-.091.072-.088.073-.085.075-.084.077-.081.078-.078.079-.077.08-.075.082-.072.083-.071.084-.07.085-.067.087-.066.087-.065.089-.063.089-.062.091-.061.092-.059.093-.059.094-.057.095-.056.096-.055.097-.055.098-.053.099-.052.101-.052.101-.051.103-.05.104-.049.105-.048.106-.048.107-.047.108-.046.109-.045.111-.045.111-.044.113-.044.114-.043.114-.042.116-.042.117-.041.119-.04.119-.04.12-.039.122-.039.122-.038.124-.038.125-.037.125-.037.13-.036.254-.07.261-.068.266-.065.269-.064.274-.061.277-.06.282-.057.285-.054.29-.053.293-.051.296-.048.301-.046.303-.043.308-.042.31-.039.314-.037.317-.034.32-.032.324-.03.326-.027.329-.024.332-.023.334-.019.337-.018.34-.014.342-.012.345-.01.346-.007.349-.004.351-.001zm-.686 2-.334.004-.331.007-.328.009-.327.011-.324.014-.321.017-.319.018-.315.022-.313.023-.31.026-.307.028-.304.03-.3.033-.297.035-.293.037-.29.039-.286.041-.282.043-.278.045-.275.047-.27.049-.266.052-.261.053-.257.054-.253.057-.248.059-.243.06-.239.062-.233.064-.115.032-.113.033-.113.033-.111.034-.109.034-.109.035-.107.035-.105.035-.104.036-.103.036-.102.036-.1.037-.099.037-.097.038-.096.038-.094.038-.093.039-.091.039-.09.039-.089.04-.086.04-.086.041-.084.04-.082.042-.081.041-.079.042-.077.042-.076.042-.074.043-.073.043-.071.043-.069.043-.068.044-.066.044-.064.045-.063.045-.061.045-.059.045-.057.045-.056.046-.053.046-.052.047-.051.046-.048.047-.047.047-.044.047-.043.048-.041.048-.04.048-.037.048-.035.049-.034.048-.031.049-.03.049-.027.05-.026.049-.024.05-.021.05-.02.05-.018.05-.015.051-.014.05-.012.051-.009.051-.007.051-.006.052-.003.051-.001.052.001.052.003.051.006.052.007.051.009.051.012.051.014.05.015.051.018.05.02.05.021.05.024.05.026.049.027.05.03.049.031.049.034.048.035.049.037.048.04.048.041.048.043.048.044.047.047.047.048.047.051.046.052.047.053.046.056.046.057.045.059.045.061.045.063.045.064.045.066.044.068.044.069.043.071.043.073.043.074.043.076.042.077.042.079.042.081.041.082.042.084.04.086.041.086.04.089.04.09.039.091.039.093.039.094.038.096.038.097.038.099.037.1.037.102.036.103.036.104.036.105.035.107.035.109.035.109.034.111.034.113.033.113.033.115.032.233.064.239.062.243.06.248.059.253.057.257.054.261.053.266.052.27.049.275.047.278.045.282.043.286.041.29.039.293.037.297.035.3.033.304.03.307.028.31.026.313.023.315.022.319.018.321.017.324.014.327.011.328.009.331.007.334.004.335.001.335-.001.334-.004.331-.007.328-.009.327-.011.324-.014.321-.017.319-.018.315-.022.313-.023.31-.026.307-.028.304-.03.3-.033.297-.035.293-.037.29-.039.286-.041.282-.043.278-.045.275-.047.27-.049.266-.052.261-.053.257-.054.253-.057.248-.059.243-.06.239-.062.233-.064.115-.032.113-.033.113-.033.111-.034.109-.034.109-.035.107-.035.105-.035.104-.036.103-.036.102-.036.1-.037.099-.037.097-.038.096-.038.094-.038.093-.039.091-.039.09-.039.089-.04.086-.04.086-.041.084-.04.082-.042.081-.041.079-.042.077-.042.076-.042.074-.043.073-.043.071-.043.069-.043.068-.044.066-.044.064-.045.063-.045.061-.045.059-.045.057-.045.056-.046.053-.046.052-.047.051-.046.048-.047.047-.047.044-.047.043-.048.041-.048.04-.048.037-.048.035-.049.034-.048.031-.049.03-.049.027-.05.026-.049.024-.05.021-.05.02-.05.018-.05.015-.051.014-.05.012-.051.009-.051.007-.051.006-.052.003-.051.001-.052-.001-.052-.003-.051-.006-.052-.007-.051-.009-.051-.012-.051-.014-.05-.015-.051-.018-.05-.02-.05-.021-.05-.024-.05-.026-.049-.027-.05-.03-.049-.031-.049-.034-.048-.035-.049-.037-.048-.04-.048-.041-.048-.043-.048-.044-.047-.047-.047-.048-.047-.051-.046-.052-.047-.053-.046-.056-.046-.057-.045-.059-.045-.061-.045-.063-.045-.064-.045-.066-.044-.068-.044-.069-.043-.071-.043-.073-.043-.074-.043-.076-.042-.077-.042-.079-.042-.081-.041-.082-.042-.084-.04-.086-.041-.086-.04-.089-.04-.09-.039-.091-.039-.093-.039-.094-.038-.096-.038-.097-.038-.099-.037-.1-.037-.102-.036-.103-.036-.104-.036-.105-.035-.107-.035-.109-.035-.109-.034-.111-.034-.113-.033-.113-.033-.115-.032-.233-.064-.239-.062-.243-.06-.248-.059-.253-.057-.257-.054-.261-.053-.266-.052-.27-.049-.275-.047-.278-.045-.282-.043-.286-.041-.29-.039-.293-.037-.297-.035-.3-.033-.304-.03-.307-.028-.31-.026-.313-.023-.315-.022-.319-.018-.321-.017-.324-.014-.327-.011-.328-.009-.331-.007-.334-.004-.335-.001z"/><ellipse cx="16" cy="27" fill="none" rx="6" ry="2" stroke="#000" stroke-width="4"/><path d="m24 25h-16v2l2 1h12l2-1z"/><ellipse cx="16" cy="27" fill="#999" rx="6" ry="2"/><path d="m10 25h12v2h-12z" fill="#999"/><path d="m3 15c0 6.627 5.82 12 13 12s13-5.373 13-12h-13z" fill="#ccc"/><ellipse cx="16" cy="15" fill="#808080" rx="13" ry="4"/><path d="m3 1h26v14c0 2.208-5.825 4-13 4s-13-1.792-13-4z" fill="none"/><g clip-path="url(#c)"><ellipse cx="16" cy="16.5" fill="#fff" rx="11.143" ry="12.5"/><g clip-path="url(#d)" fill="none" stroke="#e1e1e1" stroke-width="2"><path d="m20 9-2 2"/><path d="m9 10-2 2"/><path d="m20 16-2 2"/><path d="m27 9-2 2"/><path d="m19 3-2 2"/><path d="m10 17-2 2"/><path d="m14 9-2-2"/><path d="m24 15-2-2"/><path d="m14 15-2-2"/></g></g></g></svg>