<svg clip-rule="evenodd" fill-rule="evenodd" stroke-linecap="round" stroke-linejoin="round" stroke-miterlimit="1.5" viewBox="0 0 32 32" xmlns="http://www.w3.org/2000/svg"><path d="m0 0h32v32h-32z" fill="none"/><path d="m6.575 7.425c-.959.959-1.269 2.391-.793 3.661.667 1.778 1.581 4.217 1.997 5.324.147.392.251.799.31 1.214.107.749.294 2.059.471 3.298.286 1.998 1.212 3.85 2.639 5.277.067.067.135.135.204.204 1.75 1.75 4.123 2.733 6.597 2.733s4.847-.983 6.597-2.733l1.806-1.806c1.75-1.75 2.733-4.123 2.733-6.597s-.983-4.847-2.733-6.597c-.069-.069-.137-.137-.204-.204-1.427-1.427-3.279-2.353-5.277-2.639-1.239-.177-2.549-.364-3.298-.471-.415-.059-.822-.163-1.214-.31-1.107-.416-3.546-1.33-5.324-1.997-1.27-.476-2.702-.166-3.661.793-.28.28-.57.57-.85.85z" fill="none" stroke="#000" stroke-width="4"/><path d="m9 7-2 2-5-5 2-2z" stroke="#000" stroke-width="4"/><path d="m9 7-2 2-5-5 2-2z" fill="#8b5e11"/><path d="m6.575 7.425c-.959.959-1.269 2.391-.793 3.661.667 1.778 1.581 4.217 1.997 5.324.147.392.251.799.31 1.214.107.749.294 2.059.471 3.298.286 1.998 1.212 3.85 2.639 5.277.067.067.135.135.204.204 1.75 1.75 4.123 2.733 6.597 2.733s4.847-.983 6.597-2.733l1.806-1.806c1.75-1.75 2.733-4.123 2.733-6.597s-.983-4.847-2.733-6.597c-.069-.069-.137-.137-.204-.204-1.427-1.427-3.279-2.353-5.277-2.639-1.239-.177-2.549-.364-3.298-.471-.415-.059-.822-.163-1.214-.31-1.107-.416-3.546-1.33-5.324-1.997-1.27-.476-2.702-.166-3.661.793-.28.28-.57.57-.85.85z" fill="#a8d752"/><path d="m12.09 8.503.083.007.084.012.082.017.081.021.081.026.078.03.077.035.074.039 2.616 1.458.103.056.097.051.098.049.099.048.099.045.101.044.101.042.101.041.102.038.103.037.103.035.104.033.105.031.105.03.105.028.106.026.106.024.107.022.107.02.108.019.107.017.108.014.109.013.108.011.109.01.109.007.11.005.109.004.11.002.11-.001.109-.002.119-.004h-.003l.09-.004.095-.003.095-.002.096-.001h.095l.095.001.095.002.095.003.094.004.095.004.095.006.094.007.094.007.095.009.094.009.094.011.093.011.094.012.094.014.093.014.093.015.093.016.093.017.092.018.093.018.092.02.092.021.092.021.091.023.091.023.091.024.091.026.091.026.09.027.09.028.09.028.089.03.089.031.089.031.089.033.088.033.088.034.087.035.087.036.087.037.087.038.086.038.086.04.086.04.085.041.084.042.085.043.084.044.083.045.083.046.083.046.082.047.082.049.081.049.081.049.081.051.08.052.08.052.076.051.547.373.068.049.066.053.062.057.059.06.056.063.051.066.049.069.044.072.04.074.036.076.031.078.027.08.023.081.018.082.013.083.009.083.004.085-.001.084-.005.084-.01.083-.015.083-.019.082-.024.081-.029.079-.033.077-.037.076-.041.073-.046.071-.049.068-.053.065-.056.063-.06.059-.064.055-.066.052-.069.048-.071.044-.074.04-.077.036-.078.032-.079.027-.081.023-.082.018-.083.013-.084.009-.084.004-.084-.001-.084-.005-.084-.011-.083-.014-.082-.02-.08-.024-.079-.028-.078-.033-.075-.037-.074-.042-.07-.045-.542-.368-.057-.039-.054-.035-.055-.036-.055-.034-.055-.034-.055-.033-.056-.033-.056-.032-.056-.032-.057-.031-.057-.031-.057-.029-.057-.03-.058-.028-.058-.029-.058-.027-.059-.027-.059-.026-.058-.026-.06-.025-.059-.024-.06-.024-.06-.024-.06-.022-.06-.022-.061-.022-.06-.021-.061-.02-.061-.02-.062-.019-.061-.018-.062-.018-.062-.017-.062-.016-.062-.016-.062-.016-.063-.014-.062-.014-.063-.014-.063-.013-.063-.012-.063-.011-.063-.011-.064-.011-.064-.009-.063-.009-.064-.009-.064-.007-.064-.007-.064-.007-.064-.006-.064-.005-.065-.004-.064-.004-.065-.003-.064-.003-.065-.002-.065-.001-.064-.001h-.065l-.065.001-.065.001-.065.002-.07.003h-.003l-.154.006-.162.003-.162.001-.162-.003-.161-.005-.162-.008-.16-.011-.161-.013-.16-.017-.16-.019-.16-.022-.159-.024-.158-.028-.158-.03-.158-.033-.157-.035-.156-.038-.155-.041-.155-.044-.154-.046-.154-.049-.152-.052-.152-.054-.151-.057-.149-.059-.149-.063-.148-.064-.147-.068-.146-.07-.145-.072-.143-.076-.137-.074-2.627-1.465-.073-.043-.069-.047-.067-.051-.065-.054-.061-.058-.057-.062-.054-.064-.05-.067-.047-.071-.042-.072-.039-.075-.034-.077-.03-.079-.025-.08-.021-.082-.016-.082-.011-.083-.007-.084-.002-.084.003-.085.007-.083.012-.084.017-.082.021-.081.026-.081.03-.078.035-.077.039-.074.043-.073.047-.069.051-.067.054-.065.058-.061.062-.057.064-.054.067-.05.071-.047.072-.042.075-.039.077-.034.079-.03.08-.025.082-.021.082-.016.083-.011.084-.007.084-.002z" fill="#c3ea68"/></svg>