<svg clip-rule="evenodd" fill-rule="evenodd" stroke-linejoin="round" stroke-miterlimit="1.41421" viewBox="0 0 32 32" xmlns="http://www.w3.org/2000/svg" xmlns:xlink="http://www.w3.org/1999/xlink"><clipPath id="a"><path clip-rule="evenodd" d="m0 0h32v32h-32z"/></clipPath><clipPath id="b"><path clip-rule="nonzero" d="m29.414 28-1.414 1.414-16.414-16.414 1.414-1.414z"/></clipPath><clipPath id="c"><circle clip-rule="evenodd" cx="10.5" cy="10.5" r="8.5"/></clipPath><clipPath id="d"><path clip-rule="evenodd" d="m16.707 3.707c-.39-.39-1.024-.39-1.414 0-2.265 2.265-9.321 9.321-11.586 11.586-.39.39-.39 1.024 0 1.414.19.19.396.396.586.586.39.39 1.024.39 1.414 0 2.265-2.265 9.321-9.321 11.586-11.586.39-.39.39-1.024 0-1.414-.19-.19-.396-.396-.586-.586z"/></clipPath><path d="m0 0h32v32h-32z" fill="none"/><g clip-path="url(#a)"><circle cx="10.5" cy="10.5" r="10.5"/><path d="m29.414 28-1.414 1.414-16.414-16.414 1.414-1.414z" fill="none" stroke="#000" stroke-width="4"/><path d="m16.707 3.707c-.39-.39-1.024-.39-1.414 0-2.265 2.265-9.321 9.321-11.586 11.586-.39.39-.39 1.024 0 1.414.19.19.396.396.586.586.39.39 1.024.39 1.414 0 2.265-2.265 9.321-9.321 11.586-11.586.39-.39.39-1.024 0-1.414-.19-.19-.396-.396-.586-.586z" fill="none" stroke="#000" stroke-miterlimit="1.5" stroke-width="4"/><path d="m29.414 28-1.414 1.414-16.414-16.414 1.414-1.414z" fill="#e6e6e6" fill-rule="nonzero"/><g clip-path="url(#b)"><path d="m10 11h9v14.453h-9z" fill="#b0b0b0"/></g><circle cx="10.5" cy="10.5" fill="#d21b67" r="8.5"/><g clip-path="url(#c)"><ellipse cx="10.5" cy="10.355" fill="#be0a55" rx="6.5" ry="6.375"/><ellipse cx="10.5" cy="6" fill="#f65598" rx="4.5" ry="3"/><path d="m16.707 3.707c-.39-.39-1.024-.39-1.414 0-2.265 2.265-9.321 9.321-11.586 11.586-.39.39-.39 1.024 0 1.414.19.19.396.396.586.586.39.39 1.024.39 1.414 0 2.265-2.265 9.321-9.321 11.586-11.586.39-.39.39-1.024 0-1.414-.19-.19-.396-.396-.586-.586z" fill="#d21b67" stroke="#9b144c" stroke-miterlimit="1.5" stroke-width="2"/></g><path d="m16.707 3.707c-.39-.39-1.024-.39-1.414 0-2.265 2.265-9.321 9.321-11.586 11.586-.39.39-.39 1.024 0 1.414.19.19.396.396.586.586.39.39 1.024.39 1.414 0 2.265-2.265 9.321-9.321 11.586-11.586.39-.39.39-1.024 0-1.414-.19-.19-.396-.396-.586-.586z" fill="#d21b67"/><g clip-path="url(#d)"><ellipse cx="10.5" cy="10.355" fill="#be0a55" rx="7.5" ry="7.355"/><path d="m14.344 3.509s.77.719 1.388 1.294c.199.185.314.443.319.714.004.272-.101.533-.293.725-.419.419-.957.957-1.447 1.447-.803.803-1.992 1.084-3.07.725-.654-.218-1.241-.414-1.241-.414z" fill="#f65598"/></g></g></svg>