<?xml version="1.0" encoding="UTF-8" standalone="no"?><!DOCTYPE svg PUBLIC "-//W3C//DTD SVG 1.1//EN" "http://www.w3.org/Graphics/SVG/1.1/DTD/svg11.dtd"><svg width="100%" height="100%" viewBox="0 0 32 32" version="1.1" xmlns="http://www.w3.org/2000/svg" xmlns:xlink="http://www.w3.org/1999/xlink" xml:space="preserve" style="fill-rule:evenodd;clip-rule:evenodd;stroke-linejoin:round;stroke-miterlimit:1.41421;">
<metadata>
<rdf:RDF xmlns:cc="http://web.resource.org/cc/"
         xmlns:rdf="http://www.w3.org/1999/02/22-rdf-syntax-ns#"
         xmlns:dc = "http://purl.org/dc/elements/1.1/"
         >

     <rdf:Description rdf:about="">
       <dc:title>Mutant Standard emoji v0.2.5</dc:title>
     </rdf:Description>

    <cc:work rdf:about="">
        <cc:license rdf:resource="http://creativecommons.org/licenses/by-nc-sa/4.0/"/>
        <cc:attributionName>Dzuk</cc:attributionName>
        <cc:attributionURL>http://mutant.tech/</cc:attributionURL>
    </cc:work>

</rdf:RDF>
</metadata>
<rect id="d6" x="0" y="0" width="32" height="32" style="fill:none;"/><g id="outline"><path d="M16.086,0.619c0.231,0.01 0.459,0.04 0.683,0.099c0.17,0.045 0.333,0.107 0.494,0.178c3.724,1.796 7.396,3.698 11.094,5.547c0.182,0.094 0.355,0.202 0.515,0.33c0.457,0.365 0.801,0.863 0.982,1.419c0.086,0.267 0.13,0.54 0.144,0.82c0.082,4.629 0.002,9.258 0.002,13.888c-0.004,0.205 -0.023,0.407 -0.066,0.608c-0.122,0.572 -0.413,1.102 -0.829,1.512c-0.2,0.197 -0.426,0.358 -0.67,0.497c-3.691,1.927 -7.421,3.781 -11.173,5.587c-0.16,0.071 -0.323,0.133 -0.493,0.178c-0.446,0.118 -0.918,0.132 -1.37,0.039c-0.229,-0.046 -0.448,-0.122 -0.661,-0.217c-3.726,-1.794 -7.397,-3.697 -11.095,-5.547c-0.182,-0.094 -0.355,-0.202 -0.515,-0.33c-0.457,-0.365 -0.801,-0.863 -0.982,-1.419c-0.086,-0.267 -0.13,-0.54 -0.144,-0.82c-0.082,-4.629 -0.002,-9.258 -0.002,-13.888c0.004,-0.205 0.023,-0.407 0.066,-0.608c0.122,-0.572 0.413,-1.102 0.829,-1.512c0.2,-0.197 0.426,-0.358 0.67,-0.497c3.691,-1.927 7.422,-3.778 11.172,-5.587c0.161,-0.071 0.324,-0.133 0.494,-0.178c0.224,-0.059 0.452,-0.089 0.683,-0.099c0.086,-0.001 0.086,-0.001 0.172,0Z" style="fill-rule:nonzero;"/></g><g id="emoji"><path d="M28,9.618l0,13.264c0,0.379 -0.214,0.725 -0.553,0.894l-10.447,5.224l-1,0l0,-15l11,-5l1,0.618Zm-12,4.382l0,15l-1,0l-10.447,-5.224c-0.339,-0.169 -0.553,-0.515 -0.553,-0.894l0,-13.264l1,-0.618l11,5Zm-10.882,-6.059l10.435,-5.217c0.281,-0.141 0.613,-0.141 0.894,0l10.435,5.217l0.118,1.059l-11,5l-11,-5l0.118,-1.059Z" style="fill:#e48a1b;"/><clipPath id="_clip1"><path d="M28,9.618l0,13.264c0,0.379 -0.214,0.725 -0.553,0.894l-10.447,5.224l-1,0l0,-15l11,-5l1,0.618Zm-12,4.382l0,15l-1,0l-10.447,-5.224c-0.339,-0.169 -0.553,-0.515 -0.553,-0.894l0,-13.264l1,-0.618l11,5Zm-10.882,-6.059l10.435,-5.217c0.281,-0.141 0.613,-0.141 0.894,0l10.435,5.217l0.118,1.059l-11,5l-11,-5l0.118,-1.059Z"/></clipPath><g clip-path="url(#_clip1)"><g><ellipse cx="16" cy="8" rx="3" ry="1.5" style="fill:#fff;"/><path d="M20.5,24.75c0,-0.966 -0.56,-1.75 -1.25,-1.75c-0.69,0 -1.25,0.784 -1.25,1.75c0,0.966 0.56,1.75 1.25,1.75c0.69,0 1.25,-0.784 1.25,-1.75Z" style="fill:#fff;"/><path d="M14,24.75c0,-0.966 -0.56,-1.75 -1.25,-1.75c-0.69,0 -1.25,0.784 -1.25,1.75c0,0.966 0.56,1.75 1.25,1.75c0.69,0 1.25,-0.784 1.25,-1.75Z" style="fill:#fff;"/><path d="M14,17.25c0,-0.966 -0.56,-1.75 -1.25,-1.75c-0.69,0 -1.25,0.784 -1.25,1.75c0,0.966 0.56,1.75 1.25,1.75c0.69,0 1.25,-0.784 1.25,-1.75Z" style="fill:#fff;"/><path d="M7.5,14.25c0,-0.966 -0.56,-1.75 -1.25,-1.75c-0.69,0 -1.25,0.784 -1.25,1.75c0,0.966 0.56,1.75 1.25,1.75c0.69,0 1.25,-0.784 1.25,-1.75Z" style="fill:#fff;"/><path d="M7.5,21.75c0,-0.966 -0.56,-1.75 -1.25,-1.75c-0.69,0 -1.25,0.784 -1.25,1.75c0,0.966 0.56,1.75 1.25,1.75c0.69,0 1.25,-0.784 1.25,-1.75Z" style="fill:#fff;"/><path d="M26.983,14.25c0,-0.966 -0.56,-1.75 -1.25,-1.75c-0.69,0 -1.25,0.784 -1.25,1.75c0,0.966 0.56,1.75 1.25,1.75c0.69,0 1.25,-0.784 1.25,-1.75Z" style="fill:#fff;"/></g></g><path d="M16,13.382l10.882,-5.441l0.565,0.283c0.339,0.169 0.553,0.515 0.553,0.894l0,0.5l-11,5.5l0,13.882l-0.553,0.276c-0.281,0.141 -0.613,0.141 -0.894,0l-0.553,-0.276l0,-13.882l-11,-5.5l0,-0.5c0,-0.379 0.214,-0.725 0.553,-0.894l0.565,-0.283l10.882,5.441Z" style="fill:#97580a;"/></g></svg>