<svg clip-rule="evenodd" fill-rule="evenodd" stroke-linecap="round" stroke-linejoin="round" stroke-miterlimit="1.5" viewBox="0 0 32 32" xmlns="http://www.w3.org/2000/svg" xmlns:xlink="http://www.w3.org/1999/xlink"><clipPath id="a"><path clip-rule="evenodd" d="m0 0h32v32h-32z"/></clipPath><clipPath id="b"><path clip-rule="evenodd" d="m8 3h16v26h-16z"/></clipPath><path d="m0 0h32v32h-32z" fill="none"/><g clip-path="url(#a)"><path d="m25 3c0-.265-.105-.52-.293-.707-.187-.188-.442-.293-.707-.293-3.151 0-12.849 0-16 0-.265 0-.52.105-.707.293-.188.187-.293.442-.293.707v26c0 .265.105.52.293.707.187.188.442.293.707.293h16c.265 0 .52-.105.707-.293.188-.187.293-.442.293-.707 0-4.355 0-21.645 0-26z" stroke="#000" stroke-width="4"/><path d="m25 3c0-.265-.105-.52-.293-.707-.187-.188-.442-.293-.707-.293-3.151 0-12.849 0-16 0-.265 0-.52.105-.707.293-.188.187-.293.442-.293.707v26c0 .265.105.52.293.707.187.188.442.293.707.293h16c.265 0 .52-.105.707-.293.188-.187.293-.442.293-.707 0-4.355 0-21.645 0-26z" fill="#eb0505"/><path d="m8 3h16v26h-16z" fill="#ff7272"/><g clip-path="url(#b)"><path d="m5 21s2.865-1.432 5.528-2.764c2.815-1.408 6.129-1.408 8.944 0 2.663 1.332 5.528 2.764 5.528 2.764v10h-20z" fill="#370202"/><circle cx="13" cy="10" fill="#fff4f4" r="5"/></g></g></svg>