<svg clip-rule="evenodd" fill-rule="evenodd" stroke-linecap="round" stroke-miterlimit="1.5" viewBox="0 0 32 32" xmlns="http://www.w3.org/2000/svg" xmlns:xlink="http://www.w3.org/1999/xlink"><clipPath id="a"><path clip-rule="evenodd" d="m0 0h32v32h-32z"/></clipPath><path d="m0 0h32v32h-32z" fill="none"/><g clip-path="url(#a)"><path d="m6 4h24v16h-24z" fill="none" stroke="#000" stroke-width="4"/><path d="m2 2h2v28h-2z" fill="none" stroke="#000" stroke-width="4"/><path d="m6 4h24v16h-24z" fill="#404040"/><path d="m2 2h2v28h-2z" fill="#7f7f7f"/><g fill="#fff"><path d="m6 4h6v4h-6z"/><path d="m6 12h6v4h-6z"/><path d="m12 8h6v4h-6z"/><path d="m12 16h6v4h-6z"/><path d="m18 4h6v4h-6z"/><path d="m18 12h6v4h-6z"/><path d="m24 8h6v4h-6z"/><path d="m24 16h6v4h-6z"/></g></g></svg>