<svg clip-rule="evenodd" fill-rule="evenodd" stroke-linejoin="round" stroke-miterlimit="1.41421" viewBox="0 0 32 32" xmlns="http://www.w3.org/2000/svg"><path d="m0 0h32v32h-32z" fill="none"/><path d="m2.995 11.401c-.004-.68 0-1.36.006-2.04.015-.501.111-.999.308-1.462.12-.281.267-.548.446-.796.332-.462.763-.85 1.256-1.132.207-.119.424-.216.648-.298 1.52-.523 3.049-1.017 4.573-1.525.148-.046.297-.085.449-.11.12-.019.24-.029.361-.036 3.686-.075 7.374-.047 11.06-.001.436.017.864.092 1.274.242.544.2 1.043.519 1.452.928.41.41.729.909.929 1.453.15.41.225.838.242 1.274.015 1.203.017 2.406.006 3.61.002.224.004.449.006.674l2.128 2.128c.131.138.252.281.358.44.217.325.369.693.446 1.077.037.186.052.373.057.562v8.221c-.005.19-.02.377-.057.563-.077.384-.229.752-.446 1.077-.106.159-.227.302-.358.44l-1.45 1.449c-.137.131-.281.252-.439.358-.366.244-.786.406-1.221.471-.139.02-.278.029-.418.032h-11.611v-2.014c.002-.122.002-.122.006-.244.011-.168.026-.336.051-.503.057-.367.154-.728.29-1.073.065-.167.14-.329.223-.486-.155.066-.314.122-.476.168-.421.12-.861.169-1.298.147-.432-.022-.86-.114-1.263-.273-.449-.177-.865-.436-1.223-.761-.376-.342-.686-.756-.909-1.214-.383.144-.788.227-1.197.248-.404.02-.81-.02-1.202-.121-.441-.113-.862-.303-1.24-.558-.612-.413-1.104-.996-1.408-1.669-.149-.33-.253-.681-.308-1.039-.026-.168-.038-.336-.045-.505-.033-2.567-.035-5.135-.006-7.702z"/><path d="m27 16.414c0-.265-.105-.519-.293-.707-.295-.295-.707-.707-.707-.707h-3l-7.5 10-.5 1v1h9.586c.265 0 .519-.105.707-.293l1.414-1.414c.188-.188.293-.442.293-.707 0-1.504 0-6.668 0-8.172z" fill="#00a6af"/><path d="m15 13h9l2 2c-.003 1.998 0 4.013 0 6.012-.006.498-.095.99-.278 1.455-.259.658-.695 1.241-1.251 1.679-.408.32-.878.561-1.377.702-.388.11-.793.161-1.196.151-.467-.012-.931-.106-1.365-.277-.372-.147-.721-.35-1.033-.599-.009.007-.019.015-.029.023-.408.32-.878.561-1.377.702-.388.11-.793.161-1.196.151-.335-.009-.668-.059-.99-.15-.01.009-.02.019-.03.029-.562.562-.878 1.327-.878 2.122v-3c0-.552-.448-1-1-1-.873 0-2 0-2 0v-2h-5v-8z" fill="#006266"/><path d="m5 11v-1.558c0-.861.551-1.626 1.368-1.898 1.418-.473 3.538-1.179 4.324-1.441.204-.068.418-.103.633-.103h10.675c1.105 0 2 .895 2 2v13c0 1.105-.895 2-2 2s-2-.895-2-2v-7h-1v7c0 1.105-.895 2-2 2s-2-.895-2-2v-7h-1v7c0 1.105-.895 2-2 2s-2-.895-2-2v-7h-1v5c0 1.105-.895 2-2 2s-2-.895-2-2c0-2.22 0-5.78 0-8z" fill="#00e2d7"/></svg>