<svg clip-rule="evenodd" fill-rule="evenodd" stroke-linejoin="round" stroke-miterlimit="1.41421" viewBox="0 0 32 32" xmlns="http://www.w3.org/2000/svg"><path d="m0 0h32v32h-32z" fill="none"/><path d="m22.073.001.049.001.049.003.049.003.048.004.049.005.048.005.049.007.048.007.048.008.048.008.048.01.048.01.048.011.047.012.047.013.047.013.047.014.046.015.047.015.046.017.045.017.046.018.045.018.045.02.044.02.045.021.043.021.044.022.043.023.043.024.042.024.042.025.042.026.041.026.04.027.041.028.039.028.04.029.039.03.038.03.038.031.037.031.037.032.036.033.036.033.035.034.035.034.034.035.034.036.033.036.032.036.032.037.031.038.03.038.03.039.03.039.028.039.028.04.027.041.027.041.026.041.025.042.025.042.024.043.023.043.023.043.022.044.021.044.02.044.02.045.019.045.018.045.018.045.016.046.016.046.016.047.014.047.014.046.013.047.012.048.011.047.011.048.01.048.009.048.008.048.008.048.007.048.006.049.005.048.004.049.004.049.002.049.002.048.002.049v.049 2 .049l-.002.049-.002.048-.002.049-.004.049-.004.049-.005.048-.006.049-.007.048-.008.048-.008.048-.009.048-.01.048-.011.048-.011.047-.012.048-.013.047-.014.046-.014.047-.016.047-.016.046-.016.046-.018.045-.018.045-.019.045-.02.045-.02.044-.021.044-.022.044-.023.043-.023.043-.024.043-.025.042-.025.042-.026.041-.027.041-.027.041-.028.04-.028.039-.03.039-.03.039-.03.038-.031.038-.032.037-.032.036-.033.036-.034.036-.034.035-.035.034-.035.034-.036.033-.036.033-.037.032-.037.031-.038.031-.038.03-.039.03-.04.029-.039.028-.041.028-.04.027-.041.026-.042.026-.042.025-.042.024-.043.024-.043.023-.044.022-.043.021-.045.021-.044.02-.045.02-.045.018-.046.018-.045.017-.046.017-.047.015-.046.015-.047.014-.047.013-.047.013-.047.012-.048.011-.048.01-.048.01-.048.008-.048.008-.048.007-.049.007-.048.005-.049.005-.048.004-.049.003-.049.003-.049.001-.049.001h-.048l-.049-.001-.049-.001-.049-.003-.049-.003-.048-.004-.049-.005-.048-.005-.049-.007-.048-.007-.048-.008-.048-.008-.048-.01-.048-.01-.048-.011-.047-.012-.047-.013-.047-.013-.047-.014-.046-.015-.047-.015-.046-.017-.045-.017-.046-.018-.045-.018-.045-.02-.044-.02-.045-.021-.043-.021-.044-.022-.043-.023-.043-.024-.042-.024-.042-.025-.042-.026-.041-.026-.04-.027-.041-.028-.039-.028-.04-.029-.039-.03-.038-.03-.038-.031-.037-.031-.037-.032-.036-.033-.036-.033-.035-.034-.035-.034-.034-.035-.034-.036-.033-.036-.032-.036-.032-.037-.031-.038-.03-.038-.03-.039-.03-.039-.028-.039-.028-.04-.027-.041-.027-.041-.026-.041-.025-.042-.025-.042-.024-.043-.023-.043-.023-.043-.022-.044-.021-.044-.02-.044-.02-.045-.019-.045-.018-.045-.018-.045-.016-.046-.016-.046-.016-.047-.014-.047-.014-.046-.013-.047-.012-.048-.011-.047-.011-.048-.01-.048-.009-.048-.008-.048-.008-.048-.007-.048-.006-.049-.005-.048-.004-.049-.004-.049-.002-.049-.002-.048-.002-.049v-.049-2-.049l.002-.049.002-.048.002-.049.004-.049.004-.049.005-.048.006-.049.007-.048.008-.048.008-.048.009-.048.01-.048.011-.048.011-.047.012-.048.013-.047.014-.046.014-.047.016-.047.016-.046.016-.046.018-.045.018-.045.019-.045.02-.045.02-.044.021-.044.022-.044.023-.043.023-.043.024-.043.025-.042.025-.042.026-.041.027-.041.027-.041.028-.04.028-.039.03-.039.03-.039.03-.038.031-.038.032-.037.032-.036.033-.036.034-.036.034-.035.035-.034.035-.034.036-.033.036-.033.037-.032.037-.031.038-.031.038-.03.039-.03.04-.029.039-.028.041-.028.04-.027.041-.026.042-.026.042-.025.042-.024.043-.024.043-.023.044-.022.043-.021.045-.021.044-.02.045-.02.045-.018.046-.018.045-.017.046-.017.047-.015.046-.015.047-.014.047-.013.047-.013.047-.012.048-.011.048-.01.048-.01.048-.008.048-.008.048-.007.049-.007.048-.005.049-.005.048-.004.049-.003.049-.003.049-.001.049-.001h.048l.049.001z"/><path d="m27.037 2 .048.001.049.002.049.003.049.003.048.004.049.005.048.006.049.006.048.008.048.008.048.009.048.009.048.011.047.011.048.012.047.013.047.013.046.015.047.015.046.016.046.016.046.017.045.018.045.019.045.02.044.02.045.021.043.022.044.022.043.023.042.024.043.024.041.025.042.026.041.027.04.027.041.028.039.028.039.029.039.03.038.031.038.031.037.031.037.032.036.033.036.034.035.033.035.035.033.035.034.036.033.036.032.037.031.037.031.038.031.038.03.039.029.039.028.039.028.041.027.04.027.041.026.042.025.041.024.043.024.042.023.043.022.044.022.043.021.045.02.044.02.045.019.045.018.045.017.046.016.046.016.046.015.047.015.046.013.047.013.047.012.048.011.047.011.048.009.048.009.048.008.048.008.048.006.049.006.048.005.049.004.048.003.049.003.049.002.049.001.048v.049l-.001.049-.001.049-.002.049-.003.048-.004.049-.005.049-.005.048-.006.049-.007.048-.008.048-.008.048-.009.048-.011.048-.01.048-.012.047-.012.047-.013.047-.014.047-.015.047-.016.046-.016.046-.017.046-.017.045-.019.046-.019.045-.02.044-.02.044-.022.044-.022.044-.022.043-.024.043-.024.043-.025.042-.025.041-.026.041-.027.041-.028.041-.028.039-.029.04-.029.039-.03.038-.031.038-.031.038-.032.037-.033.036-.033.036-.033.036-.035.034-2 2-.034.035-.036.033-.036.033-.036.033-.037.032-.038.031-.038.031-.038.03-.039.029-.04.029-.039.028-.041.028-.041.027-.041.026-.041.025-.042.025-.043.024-.043.024-.043.022-.044.022-.044.022-.044.02-.044.02-.045.019-.046.019-.045.017-.046.017-.046.016-.046.016-.047.015-.047.014-.047.013-.047.012-.047.012-.048.01-.048.011-.048.009-.048.008-.048.008-.048.007-.049.006-.048.005-.049.005-.049.004-.048.003-.049.002-.049.001-.049.001h-.049l-.048-.001-.049-.002-.049-.003-.049-.003-.048-.004-.049-.005-.048-.006-.049-.006-.048-.008-.048-.008-.048-.009-.048-.009-.048-.011-.047-.011-.048-.012-.047-.013-.047-.013-.046-.015-.047-.015-.046-.016-.046-.016-.046-.017-.045-.018-.045-.019-.045-.02-.044-.02-.045-.021-.043-.022-.044-.022-.043-.023-.042-.024-.043-.024-.041-.025-.042-.026-.041-.027-.04-.027-.041-.028-.039-.028-.039-.029-.039-.03-.038-.031-.038-.031-.037-.031-.037-.032-.036-.033-.036-.034-.035-.033-.035-.035-.033-.035-.034-.036-.033-.036-.032-.037-.031-.037-.031-.038-.031-.038-.03-.039-.029-.039-.028-.039-.028-.041-.027-.04-.027-.041-.026-.042-.025-.041-.024-.043-.024-.042-.023-.043-.022-.044-.022-.043-.021-.045-.02-.044-.02-.045-.019-.045-.018-.045-.017-.046-.016-.046-.016-.046-.015-.047-.015-.046-.013-.047-.013-.047-.012-.048-.011-.047-.011-.048-.009-.048-.009-.048-.008-.048-.008-.048-.006-.049-.006-.048-.005-.049-.004-.048-.003-.049-.003-.049-.002-.049-.001-.048v-.049l.001-.049.001-.049.002-.049.003-.048.004-.049.005-.049.005-.048.006-.049.007-.048.008-.048.008-.048.009-.048.011-.048.01-.048.012-.047.012-.047.013-.047.014-.047.015-.047.016-.046.016-.046.017-.046.017-.045.019-.046.019-.045.02-.044.02-.044.022-.044.022-.044.022-.043.024-.043.024-.043.025-.042.025-.041.026-.041.027-.041.028-.041.028-.039.029-.04.029-.039.03-.038.031-.038.031-.038.032-.037.033-.036.033-.036.033-.036.035-.034 2-2 .034-.035.036-.033.036-.033.036-.033.037-.032.038-.031.038-.031.038-.03.039-.029.04-.029.039-.028.041-.028.041-.027.041-.026.041-.025.042-.025.043-.024.043-.024.043-.022.044-.022.044-.022.044-.02.044-.02.045-.019.046-.019.045-.017.046-.017.046-.016.046-.016.047-.015.047-.014.047-.013.047-.012.047-.012.048-.01.048-.011.048-.009.048-.008.048-.008.048-.007.049-.006.048-.005.049-.005.049-.004.048-.003.049-.002.049-.001.049-.001z"/><path d="m29.049 7 .049.002.048.002.049.002.049.004.049.004.048.005.049.006.048.007.048.008.048.008.048.009.048.01.048.011.047.011.048.012.047.013.046.014.047.014.047.016.046.016.046.016.045.018.045.018.045.019.045.02.044.02.044.021.044.022.043.023.043.023.043.024.042.025.042.025.041.026.041.027.041.027.04.028.039.028.039.03.039.03.038.03.038.031.037.032.036.032.036.033.036.034.035.034.034.035.034.035.033.036.033.036.032.037.031.037.031.038.03.038.03.039.029.04.028.039.028.041.027.04.026.041.026.042.025.042.024.042.024.043.023.043.022.044.021.043.021.045.02.044.02.045.018.045.018.046.017.045.017.046.015.047.015.046.014.047.013.047.013.047.012.047.011.048.01.048.01.048.008.048.008.048.007.048.007.049.005.048.005.049.004.048.003.049.003.049.001.049.001.049v.048l-.001.049-.001.049-.003.049-.003.049-.004.048-.005.049-.005.048-.007.049-.007.048-.008.048-.008.048-.01.048-.01.048-.011.048-.012.047-.013.047-.013.047-.014.047-.015.046-.015.047-.017.046-.017.045-.018.046-.018.045-.02.045-.02.044-.021.045-.021.043-.022.044-.023.043-.024.043-.024.042-.025.042-.026.042-.026.041-.027.04-.028.041-.028.039-.029.04-.03.039-.03.038-.031.038-.031.037-.032.037-.033.036-.033.036-.034.035-.034.035-.035.034-.036.034-.036.033-.036.032-.037.032-.038.031-.038.03-.039.03-.039.03-.039.028-.04.028-.041.027-.041.027-.041.026-.042.025-.042.025-.043.024-.043.023-.043.023-.044.022-.044.021-.044.02-.045.02-.045.019-.045.018-.045.018-.046.016-.046.016-.047.016-.047.014-.046.014-.047.013-.048.012-.047.011-.048.011-.048.01-.048.009-.048.008-.048.008-.048.007-.049.006-.048.005-.049.004-.049.004-.049.002-.048.002-.049.002h-.049-2-.049l-.049-.002-.048-.002-.049-.002-.049-.004-.049-.004-.048-.005-.049-.006-.048-.007-.048-.008-.048-.008-.048-.009-.048-.01-.048-.011-.047-.011-.048-.012-.047-.013-.046-.014-.047-.014-.047-.016-.046-.016-.046-.016-.045-.018-.045-.018-.045-.019-.045-.02-.044-.02-.044-.021-.044-.022-.043-.023-.043-.023-.043-.024-.042-.025-.042-.025-.041-.026-.041-.027-.041-.027-.04-.028-.039-.028-.039-.03-.039-.03-.038-.03-.038-.031-.037-.032-.036-.032-.036-.033-.036-.034-.035-.034-.034-.035-.034-.035-.033-.036-.033-.036-.032-.037-.031-.037-.031-.038-.03-.038-.03-.039-.029-.04-.028-.039-.028-.041-.027-.04-.026-.041-.026-.042-.025-.042-.024-.042-.024-.043-.023-.043-.022-.044-.021-.043-.021-.045-.02-.044-.02-.045-.018-.045-.018-.046-.017-.045-.017-.046-.015-.047-.015-.046-.014-.047-.013-.047-.013-.047-.012-.047-.011-.048-.01-.048-.01-.048-.008-.048-.008-.048-.007-.048-.007-.049-.005-.048-.005-.049-.004-.048-.003-.049-.003-.049-.001-.049-.001-.049v-.048l.001-.049.001-.049.003-.049.003-.049.004-.048.005-.049.005-.048.007-.049.007-.048.008-.048.008-.048.01-.048.01-.048.011-.048.012-.047.013-.047.013-.047.014-.047.015-.046.015-.047.017-.046.017-.045.018-.046.018-.045.02-.045.02-.044.021-.045.021-.043.022-.044.023-.043.024-.043.024-.042.025-.042.026-.042.026-.041.027-.04.028-.041.028-.039.029-.04.03-.039.03-.038.031-.038.031-.037.032-.037.033-.036.033-.036.034-.035.034-.035.035-.034.036-.034.036-.033.036-.032.037-.032.038-.031.038-.03.039-.03.039-.03.039-.028.04-.028.041-.027.041-.027.041-.026.042-.025.042-.025.043-.024.043-.023.043-.023.044-.022.044-.021.044-.02.045-.02.045-.019.045-.018.045-.018.046-.016.046-.016.047-.016.047-.014.046-.014.047-.013.048-.012.047-.011.048-.011.048-.01.048-.009.048-.008.048-.008.048-.007.049-.006.048-.005.049-.004.049-.004.049-.002.048-.002.049-.002h.049 2z"/><path d="m10.073 24.001.049.001.049.003.049.003.048.004.049.005.048.005.049.007.048.007.048.008.048.008.048.01.048.01.048.011.047.012.047.013.047.013.047.014.046.015.047.015.046.017.045.017.046.018.045.018.045.02.044.02.045.021.043.021.044.022.043.023.043.024.042.024.042.025.042.026.041.026.04.027.041.028.039.028.04.029.039.03.038.03.038.031.037.031.037.032.036.033.036.033.035.034.035.034.034.035.034.036.033.036.032.036.032.037.031.038.03.038.03.039.03.039.028.039.028.04.027.041.027.041.026.041.025.042.025.042.024.043.023.043.023.043.022.044.021.044.02.044.02.045.019.045.018.045.018.045.016.046.016.046.016.047.014.047.014.046.013.047.012.048.011.047.011.048.01.048.009.048.008.048.008.048.007.048.006.049.005.048.004.049.004.049.002.049.002.048.002.049v.049 2 .049l-.002.049-.002.048-.002.049-.004.049-.004.049-.005.048-.006.049-.007.048-.008.048-.008.048-.009.048-.01.048-.011.048-.011.047-.012.048-.013.047-.014.046-.014.047-.016.047-.016.046-.016.046-.018.045-.018.045-.019.045-.02.045-.02.044-.021.044-.022.044-.023.043-.023.043-.024.043-.025.042-.025.042-.026.041-.027.041-.027.041-.028.04-.028.039-.03.039-.03.039-.03.038-.031.038-.032.037-.032.036-.033.036-.034.036-.034.035-.035.034-.035.034-.036.033-.036.033-.037.032-.037.031-.038.031-.038.03-.039.03-.04.029-.039.028-.041.028-.04.027-.041.026-.042.026-.042.025-.042.024-.043.024-.043.023-.044.022-.043.021-.045.021-.044.02-.045.02-.045.018-.046.018-.045.017-.046.017-.047.015-.046.015-.047.014-.047.013-.047.013-.047.012-.048.011-.048.01-.048.01-.048.008-.048.008-.048.007-.049.007-.048.005-.049.005-.048.004-.049.003-.049.003-.049.001-.049.001h-.048l-.049-.001-.049-.001-.049-.003-.049-.003-.048-.004-.049-.005-.048-.005-.049-.007-.048-.007-.048-.008-.048-.008-.048-.01-.048-.01-.048-.011-.047-.012-.047-.013-.047-.013-.047-.014-.046-.015-.047-.015-.046-.017-.045-.017-.046-.018-.045-.018-.045-.02-.044-.02-.045-.021-.043-.021-.044-.022-.043-.023-.043-.024-.042-.024-.042-.025-.042-.026-.041-.026-.04-.027-.041-.028-.039-.028-.04-.029-.039-.03-.038-.03-.038-.031-.037-.031-.037-.032-.036-.033-.036-.033-.035-.034-.035-.034-.034-.035-.034-.036-.033-.036-.032-.036-.032-.037-.031-.038-.03-.038-.03-.039-.03-.039-.028-.039-.028-.04-.027-.041-.027-.041-.026-.041-.025-.042-.025-.042-.024-.043-.023-.043-.023-.043-.022-.044-.021-.044-.02-.044-.02-.045-.019-.045-.018-.045-.018-.045-.016-.046-.016-.046-.016-.047-.014-.047-.014-.046-.013-.047-.012-.048-.011-.047-.011-.048-.01-.048-.009-.048-.008-.048-.008-.048-.007-.048-.006-.049-.005-.048-.004-.049-.004-.049-.002-.049-.002-.048-.002-.049v-.049-2-.049l.002-.049.002-.048.002-.049.004-.049.004-.049.005-.048.006-.049.007-.048.008-.048.008-.048.009-.048.01-.048.011-.048.011-.047.012-.048.013-.047.014-.046.014-.047.016-.047.016-.046.016-.046.018-.045.018-.045.019-.045.02-.045.02-.044.021-.044.022-.044.023-.043.023-.043.024-.043.025-.042.025-.042.026-.041.027-.041.027-.041.028-.04.028-.039.03-.039.03-.039.03-.038.031-.038.032-.037.032-.036.033-.036.034-.036.034-.035.035-.034.035-.034.036-.033.036-.033.037-.032.037-.031.038-.031.038-.03.039-.03.04-.029.039-.028.041-.028.04-.027.041-.026.042-.026.042-.025.042-.024.043-.024.043-.023.044-.022.043-.021.045-.021.044-.02.045-.02.045-.018.046-.018.045-.017.046-.017.047-.015.046-.015.047-.014.047-.013.047-.013.047-.012.048-.011.048-.01.048-.01.048-.008.048-.008.048-.007.049-.007.048-.005.049-.005.048-.004.049-.003.049-.003.049-.001.049-.001h.048z"/><path d="m7.037 22 .048.001.049.002.049.003.049.003.048.004.049.005.048.006.049.006.048.008.048.008.048.009.048.009.048.011.047.011.048.012.047.013.047.013.046.015.047.015.046.016.046.016.046.017.045.018.045.019.045.02.044.02.045.021.043.022.044.022.043.023.042.024.043.024.041.025.042.026.041.027.04.027.041.028.039.028.039.029.039.03.038.031.038.031.037.031.037.032.036.033.036.034.035.033.035.035.033.035.034.036.033.036.032.037.031.037.031.038.031.038.03.039.029.039.028.039.028.041.027.04.027.041.026.042.025.041.024.043.024.042.023.043.022.044.022.043.021.045.02.044.02.045.019.045.018.045.017.046.016.046.016.046.015.047.015.046.013.047.013.047.012.048.011.047.011.048.009.048.009.048.008.048.008.048.006.049.006.048.005.049.004.048.003.049.003.049.002.049.001.048v.049l-.001.049-.001.049-.002.049-.003.048-.004.049-.005.049-.005.048-.006.049-.007.048-.008.048-.008.048-.009.048-.011.048-.01.048-.012.047-.012.047-.013.047-.014.047-.015.047-.016.046-.016.046-.017.046-.017.045-.019.046-.019.045-.02.044-.02.044-.022.044-.022.044-.022.043-.024.043-.024.043-.025.042-.025.041-.026.041-.027.041-.028.041-.028.039-.029.04-.029.039-.03.038-.031.038-.031.038-.032.037-.033.036-.033.036-.033.036-.035.034-2 2-.034.035-.036.033-.036.033-.036.033-.037.032-.038.031-.038.031-.038.03-.039.029-.04.029-.039.028-.041.028-.041.027-.041.026-.041.025-.042.025-.043.024-.043.024-.043.022-.044.022-.044.022-.044.02-.044.02-.045.019-.046.019-.045.017-.046.017-.046.016-.046.016-.047.015-.047.014-.047.013-.047.012-.047.012-.048.01-.048.011-.048.009-.048.008-.048.008-.048.007-.049.006-.048.005-.049.005-.049.004-.048.003-.049.002-.049.001-.049.001h-.049l-.048-.001-.049-.002-.049-.003-.049-.003-.048-.004-.049-.005-.048-.006-.049-.006-.048-.008-.048-.008-.048-.009-.048-.009-.048-.011-.047-.011-.048-.012-.047-.013-.047-.013-.046-.015-.047-.015-.046-.016-.046-.016-.046-.017-.045-.018-.045-.019-.045-.02-.044-.02-.045-.021-.043-.022-.044-.022-.043-.023-.042-.024-.043-.024-.041-.025-.042-.026-.041-.027-.04-.027-.041-.028-.039-.028-.039-.029-.039-.03-.038-.031-.038-.031-.037-.031-.037-.032-.036-.033-.036-.034-.035-.033-.035-.035-.033-.035-.034-.036-.033-.036-.032-.037-.031-.037-.031-.038-.031-.038-.03-.039-.029-.039-.028-.039-.028-.041-.027-.04-.027-.041-.026-.042-.025-.041-.024-.043-.024-.042-.023-.043-.022-.044-.022-.043-.021-.045-.02-.044-.02-.045-.019-.045-.018-.045-.017-.046-.016-.046-.016-.046-.015-.047-.015-.046-.013-.047-.013-.047-.012-.048-.011-.047-.011-.048-.009-.048-.009-.048-.008-.048-.008-.048-.006-.049-.006-.048-.005-.049-.004-.048-.003-.049-.003-.049-.002-.049-.001-.048v-.049l.001-.049.001-.049.002-.049.003-.048.004-.049.005-.049.005-.048.006-.049.007-.048.008-.048.008-.048.009-.048.011-.048.01-.048.012-.047.012-.047.013-.047.014-.047.015-.047.016-.046.016-.046.017-.046.017-.045.019-.046.019-.045.02-.044.02-.044.022-.044.022-.044.022-.043.024-.043.024-.043.025-.042.025-.041.026-.041.027-.041.028-.041.028-.039.029-.04.029-.039.03-.038.031-.038.031-.038.032-.037.033-.036.033-.036.033-.036.035-.034 2-2 .034-.035.036-.033.036-.033.036-.033.037-.032.038-.031.038-.031.038-.03.039-.029.04-.029.039-.028.041-.028.041-.027.041-.026.041-.025.042-.025.043-.024.043-.024.043-.022.044-.022.044-.022.044-.02.044-.02.045-.019.046-.019.045-.017.046-.017.046-.016.046-.016.047-.015.047-.014.047-.013.047-.012.047-.012.048-.01.048-.011.048-.009.048-.008.048-.008.048-.007.049-.006.048-.005.049-.005.049-.004.048-.003.049-.002.049-.001.049-.001z"/><path d="m5.049 19 .049.002.048.002.049.002.049.004.049.004.048.005.049.006.048.007.048.008.048.008.048.009.048.01.048.011.047.011.048.012.047.013.046.014.047.014.047.016.046.016.046.016.045.018.045.018.045.019.045.02.044.02.044.021.044.022.043.023.043.023.043.024.042.025.042.025.041.026.041.027.041.027.04.028.039.028.039.03.039.03.038.03.038.031.037.032.036.032.036.033.036.034.035.034.034.035.034.035.033.036.033.036.032.037.031.037.031.038.03.038.03.039.029.04.028.039.028.041.027.04.026.041.026.042.025.042.024.042.024.043.023.043.022.044.021.043.021.045.02.044.02.045.018.045.018.046.017.045.017.046.015.047.015.046.014.047.013.047.013.047.012.047.011.048.01.048.01.048.008.048.008.048.007.048.007.049.005.048.005.049.004.048.003.049.003.049.001.049.001.049v.048l-.001.049-.001.049-.003.049-.003.049-.004.048-.005.049-.005.048-.007.049-.007.048-.008.048-.008.048-.01.048-.01.048-.011.048-.012.047-.013.047-.013.047-.014.047-.015.046-.015.047-.017.046-.017.045-.018.046-.018.045-.02.045-.02.044-.021.045-.021.043-.022.044-.023.043-.024.043-.024.042-.025.042-.026.042-.026.041-.027.04-.028.041-.028.039-.029.04-.03.039-.03.038-.031.038-.031.037-.032.037-.033.036-.033.036-.034.035-.034.035-.035.034-.036.034-.036.033-.036.032-.037.032-.038.031-.038.03-.039.03-.039.03-.039.028-.04.028-.041.027-.041.027-.041.026-.042.025-.042.025-.043.024-.043.023-.043.023-.044.022-.044.021-.044.02-.045.02-.045.019-.045.018-.045.018-.046.016-.046.016-.047.016-.047.014-.046.014-.047.013-.048.012-.047.011-.048.011-.048.01-.048.009-.048.008-.048.008-.048.007-.049.006-.048.005-.049.004-.049.004-.049.002-.048.002-.049.002h-.049-2-.049l-.049-.002-.048-.002-.049-.002-.049-.004-.049-.004-.048-.005-.049-.006-.048-.007-.048-.008-.048-.008-.048-.009-.048-.01-.048-.011-.047-.011-.048-.012-.047-.013-.046-.014-.047-.014-.047-.016-.046-.016-.046-.016-.045-.018-.045-.018-.045-.019-.045-.02-.044-.02-.044-.021-.044-.022-.043-.023-.043-.023-.043-.024-.042-.025-.042-.025-.041-.026-.041-.027-.041-.027-.04-.028-.039-.028-.039-.03-.039-.03-.038-.03-.038-.031-.037-.032-.036-.032-.036-.033-.036-.034-.035-.034-.034-.035-.034-.035-.033-.036-.033-.036-.032-.037-.031-.037-.031-.038-.03-.038-.03-.039-.029-.04-.028-.039-.028-.041-.027-.04-.026-.041-.026-.042-.025-.042-.024-.042-.024-.043-.023-.043-.022-.044-.021-.043-.021-.045-.02-.044-.02-.045-.018-.045-.018-.046-.017-.045-.017-.046-.015-.047-.015-.046-.014-.047-.013-.047-.013-.047-.012-.047-.011-.048-.01-.048-.01-.048-.008-.048-.008-.048-.007-.048-.007-.049-.005-.048-.005-.049-.004-.048-.003-.049-.003-.049-.001-.049-.001-.049v-.048l.001-.049.001-.049.003-.049.003-.049.004-.048.005-.049.005-.048.007-.049.007-.048.008-.048.008-.048.01-.048.01-.048.011-.048.012-.047.013-.047.013-.047.014-.047.015-.046.015-.047.017-.046.017-.045.018-.046.018-.045.02-.045.02-.044.021-.045.021-.043.022-.044.023-.043.024-.043.024-.042.025-.042.026-.042.026-.041.027-.04.028-.041.028-.039.029-.04.03-.039.03-.038.031-.038.031-.037.032-.037.033-.036.033-.036.034-.035.034-.035.035-.034.036-.034.036-.033.036-.032.037-.032.038-.031.038-.03.039-.03.039-.03.039-.028.04-.028.041-.027.041-.027.041-.026.042-.025.042-.025.043-.024.043-.023.043-.023.044-.022.044-.021.044-.02.045-.02.045-.019.045-.018.045-.018.046-.016.046-.016.047-.016.047-.014.046-.014.047-.013.048-.012.047-.011.048-.011.048-.01.048-.009.048-.008.048-.008.048-.007.049-.006.048-.005.049-.004.049-.004.049-.002.048-.002.049-.002h.049 2z"/><path d="m11.777 14.385-4.162-4.163-.062-.064-.058-.068-.054-.071-.05-.073-.048-.075-.042-.078-.039-.081-.035-.082-.03-.084-.026-.085-.022-.087-.017-.087-.012-.088-.008-.089-.004-.089.001-.089.006-.089.01-.088.015-.088.02-.087.023-.086.028-.084.033-.084.037-.081.041-.079.045-.077.049-.074.052-.072.056-.069.06-.067.063-.063.066-.059.069-.057.072-.052.074-.049.078-.045.079-.041.081-.037.083-.032.084-.028.086-.024.088-.02.087-.014.088-.011.089-.005.089-.001.09.003.089.008.088.012.087.018.087.021.085.026.084.031.081.034.081.039.078.043.076.047.073.05.071.055.067.058.065.061 4.162 4.162.085-.084-2.609-4.347-.042-.074-.038-.076-.035-.078-.03-.079-.027-.081-.023-.081-.018-.084-.015-.083-.01-.084-.007-.085-.002-.085.002-.085.006-.085.011-.084.014-.084.019-.083.023-.081.026-.081.031-.079.034-.078.038-.076.042-.074.045-.072.049-.069.053-.067.055-.064.059-.062.061-.059.064-.055.067-.052.07-.049.071-.045.074-.043.076-.038.078-.034.079-.031.081-.026.081-.023.083-.019.084-.014.084-.011.085-.006.085-.002.085.001.085.007.084.011.083.014.084.018.081.023.081.027.079.03.078.035.076.038.074.041.071.046.07.049.067.052.064.055.062.059.059.062.055.064.052.067.049.069.045.072 4.21 7.016.611.611v-2.885l.001-.078.004-.079.008-.078.01-.078.014-.077.016-.077.019-.077.022-.075.025-.074.028-.074.03-.073.033-.071.036-.07.038-.069.041-.066.043-.066.047-.064.048-.062.051-.059.053-.059.054-.056.058-.054.059-.052.061-.049.063-.047.064-.045.067-.042.067-.04.07-.037.07-.035.072-.032.073-.028.075-.027.074-.023.076-.021.077-.018.077-.014.077-.012.079-.009.078-.006.079-.003h.078l.079.003.078.006.079.009.077.012.077.014.077.018.076.021.074.023.075.027.073.028.072.032.07.035.07.037.067.04.067.042.064.045.063.047.061.049.059.052.058.054.055.056.052.059.051.059.048.062.047.064.043.066.041.066.039.069.035.07.033.071.03.073.028.074.025.074.022.075.019.077.016.077.014.077.01.078.008.078.004.079.001.078.001 5.86-.001.079-.002.085-.002.085-.004.085-.004.085-.006.084-.007.084-.008.084-.009.085-.01.084-.011.083-.012.084-.012.083-.015.084-.014.082-.016.083-.017.082-.018.081-.019.082-.02.082-.021.082-.022.08-.023.081-.024.08-.025.08-.026.08-.027.079-.027.079-.028.078-.031.079-.03.078-.031.077-.033.077-.034.077-.034.076-.035.076-.036.076-.038.075-.037.074-.039.074-.04.074-.042.073-.041.073-.043.072-.043.072-.045.071-.045.07-.046.071-.047.069-.048.07-.005.008-.025.049-.042.077-.046.074-.05.072-.054.069-.057.067-.06.064-.289.288-.014.016-.06.061-.055.056-.07.07-.057.055-.017.015-.489.489-.055.053-.054.051-.055.051-.055.051-.056.048-.056.05-.057.048-.057.048-.057.046-.058.046-.059.046-.058.045-.059.044-.059.044-.06.043-.06.042-.061.041-.061.041-.061.04-.061.04-.063.039-.062.038-.063.037-.063.036-.063.037-.063.035-.064.035-.064.033-.065.034-.065.032-.065.032-.065.031-.065.03-.067.03-.066.029-.066.028-.066.028-.067.026-.067.027-.068.025-.067.025-.068.024-.068.024-.067.022-.069.022-.068.021-.069.021-.069.02-.069.019-.069.018-.069.018-.069.017-.07.016-.07.016-.07.014-.07.015-.07.013-.071.013-.07.012-.071.011-.07.011-.071.01-.071.009-.071.008-.07.008-.071.007-.072.006-.071.005-.071.005-.071.004-.072.003-.071.003-.072.002-.071.001h-.072-.071l-.072-.001-.071-.001-.072-.003-.071-.003-.072-.004-.072-.005-.071-.005-.072-.006-.071-.007-.072-.008-.071-.009-.072-.008-.071-.01-.071-.01-.071-.012-.071-.012-.071-.013-.072-.013-.141-.03-.071-.015-.071-.017-.07-.017-.07-.018-.071-.019-.07-.019-.07-.021-.07-.021-.069-.021-.07-.023-.069-.023-.069-.024-.069-.025-.069-.026-.069-.025-.068-.028-.068-.028-.068-.028-.068-.03-.068-.029-.067-.031-.068-.032-.067-.032-.066-.033-.066-.034-.067-.034-.065-.035-.066-.037-.065-.036-.065-.038-.061-.036-6.563-3.931-.074-.047-.071-.05-.069-.055-.066-.057-.063-.061-.061-.064-.056-.067-.053-.07-.05-.072-.046-.075-.042-.077-.038-.079-.033-.081-.03-.082-.026-.084-.022-.085-.016-.086-.012-.087-.009-.087-.004-.088.001-.087.005-.088.009-.088.014-.086.019-.086.022-.084.027-.084.031-.081.035-.081.04-.078.043-.077.046-.074.051-.071.055-.069.057-.066.061-.063.064-.06.067-.057.07-.053.072-.05.075-.045.077-.042.079-.039.081-.033.082-.03.084-.026.085-.021.086-.017.087-.012.088-.009.087-.004.087.001.088.005.087.01.087.014.085.018.085.022.084.027.082.032.08.035.078.039.077.043.526.315-2.494-1.706-.071-.051-.068-.055-.066-.059-.062-.061-.06-.065-.056-.067-.052-.07-.049-.074-.045-.074-.041-.078-.038-.079-.033-.081-.029-.083-.024-.084-.021-.086-.017-.086-.011-.086-.007-.088-.004-.088.002-.088.006-.087.011-.086.015-.087.019-.086.023-.084.028-.083.032-.082.036-.08.039-.078.044-.076.048-.074.052-.071.054-.068.058-.066.062-.062.065-.059.067-.056.071-.053.072-.049.076-.045.077-.041.079-.037.081-.033.083-.029.084-.025.085-.02.087-.017.087-.012.087-.007.087-.003.088.002.088.006.086.01.087.015.086.019.084.023.083.028.082.032.08.036.078.04.076.044.073.048 4.046 2.768z" fill="none" stroke="#000" stroke-width="4"/><path d="m11.777 14.385-4.162-4.163-.062-.064-.058-.068-.054-.071-.05-.073-.048-.075-.042-.078-.039-.081-.035-.082-.03-.084-.026-.085-.022-.087-.017-.087-.012-.088-.008-.089-.004-.089.001-.089.006-.089.01-.088.015-.088.02-.087.023-.086.028-.084.033-.084.037-.081.041-.079.045-.077.049-.074.052-.072.056-.069.06-.067.063-.063.066-.059.069-.057.072-.052.074-.049.078-.045.079-.041.081-.037.083-.032.084-.028.086-.024.088-.02.087-.014.088-.011.089-.005.089-.001.09.003.089.008.088.012.087.018.087.021.085.026.084.031.081.034.081.039.078.043.076.047.073.05.071.055.067.058.065.061 4.162 4.162.085-.084-2.609-4.347-.042-.074-.038-.076-.035-.078-.03-.079-.027-.081-.023-.081-.018-.084-.015-.083-.01-.084-.007-.085-.002-.085.002-.085.006-.085.011-.084.014-.084.019-.083.023-.081.026-.081.031-.079.034-.078.038-.076.042-.074.045-.072.049-.069.053-.067.055-.064.059-.062.061-.059.064-.055.067-.052.07-.049.071-.045.074-.043.076-.038.078-.034.079-.031.081-.026.081-.023.083-.019.084-.014.084-.011.085-.006.085-.002.085.001.085.007.084.011.083.014.084.018.081.023.081.027.079.03.078.035.076.038.074.041.071.046.07.049.067.052.064.055.062.059.059.062.055.064.052.067.049.069.045.072 4.21 7.016.611.611v-2.885l.001-.078.004-.079.008-.078.01-.078.014-.077.016-.077.019-.077.022-.075.025-.074.028-.074.03-.073.033-.071.036-.07.038-.069.041-.066.043-.066.047-.064.048-.062.051-.059.053-.059.054-.056.058-.054.059-.052.061-.049.063-.047.064-.045.067-.042.067-.04.07-.037.07-.035.072-.032.073-.028.075-.027.074-.023.076-.021.077-.018.077-.014.077-.012.079-.009.078-.006.079-.003h.078l.079.003.078.006.079.009.077.012.077.014.077.018.076.021.074.023.075.027.073.028.072.032.07.035.07.037.067.04.067.042.064.045.063.047.061.049.059.052.058.054.055.056.052.059.051.059.048.062.047.064.043.066.041.066.039.069.035.07.033.071.03.073.028.074.025.074.022.075.019.077.016.077.014.077.01.078.008.078.004.079.001.078.001 5.86-.001.079-.002.085-.002.085-.004.085-.004.085-.006.084-.007.084-.008.084-.009.085-.01.084-.011.083-.012.084-.012.083-.015.084-.014.082-.016.083-.017.082-.018.081-.019.082-.02.082-.021.082-.022.08-.023.081-.024.08-.025.08-.026.08-.027.079-.027.079-.028.078-.031.079-.03.078-.031.077-.033.077-.034.077-.034.076-.035.076-.036.076-.038.075-.037.074-.039.074-.04.074-.042.073-.041.073-.043.072-.043.072-.045.071-.045.07-.046.071-.047.069-.048.07-.005.008-.025.049-.042.077-.046.074-.05.072-.054.069-.057.067-.06.064-.289.288-.014.016-.06.061-.055.056-.07.07-.057.055-.017.015-.489.489-.055.053-.054.051-.055.051-.055.051-.056.048-.056.05-.057.048-.057.048-.057.046-.058.046-.059.046-.058.045-.059.044-.059.044-.06.043-.06.042-.061.041-.061.041-.061.04-.061.04-.063.039-.062.038-.063.037-.063.036-.063.037-.063.035-.064.035-.064.033-.065.034-.065.032-.065.032-.065.031-.065.03-.067.03-.066.029-.066.028-.066.028-.067.026-.067.027-.068.025-.067.025-.068.024-.068.024-.067.022-.069.022-.068.021-.069.021-.069.02-.069.019-.069.018-.069.018-.069.017-.07.016-.07.016-.07.014-.07.015-.07.013-.071.013-.07.012-.071.011-.07.011-.071.01-.071.009-.071.008-.07.008-.071.007-.072.006-.071.005-.071.005-.071.004-.072.003-.071.003-.072.002-.071.001h-.072-.071l-.072-.001-.071-.001-.072-.003-.071-.003-.072-.004-.072-.005-.071-.005-.072-.006-.071-.007-.072-.008-.071-.009-.072-.008-.071-.01-.071-.01-.071-.012-.071-.012-.071-.013-.072-.013-.141-.03-.071-.015-.071-.017-.07-.017-.07-.018-.071-.019-.07-.019-.07-.021-.07-.021-.069-.021-.07-.023-.069-.023-.069-.024-.069-.025-.069-.026-.069-.025-.068-.028-.068-.028-.068-.028-.068-.03-.068-.029-.067-.031-.068-.032-.067-.032-.066-.033-.066-.034-.067-.034-.065-.035-.066-.037-.065-.036-.065-.038-.061-.036-6.563-3.931-.074-.047-.071-.05-.069-.055-.066-.057-.063-.061-.061-.064-.056-.067-.053-.07-.05-.072-.046-.075-.042-.077-.038-.079-.033-.081-.03-.082-.026-.084-.022-.085-.016-.086-.012-.087-.009-.087-.004-.088.001-.087.005-.088.009-.088.014-.086.019-.086.022-.084.027-.084.031-.081.035-.081.04-.078.043-.077.046-.074.051-.071.055-.069.057-.066.061-.063.064-.06.067-.057.07-.053.072-.05.075-.045.077-.042.079-.039.081-.033.082-.03.084-.026.085-.021.086-.017.087-.012.088-.009.087-.004.087.001.088.005.087.01.087.014.085.018.085.022.084.027.082.032.08.035.078.039.077.043.526.315-2.494-1.706-.071-.051-.068-.055-.066-.059-.062-.061-.06-.065-.056-.067-.052-.07-.049-.074-.045-.074-.041-.078-.038-.079-.033-.081-.029-.083-.024-.084-.021-.086-.017-.086-.011-.086-.007-.088-.004-.088.002-.088.006-.087.011-.086.015-.087.019-.086.023-.084.028-.083.032-.082.036-.08.039-.078.044-.076.048-.074.052-.071.054-.068.058-.066.062-.062.065-.059.067-.056.071-.053.072-.049.076-.045.077-.041.079-.037.081-.033.083-.029.084-.025.085-.02.087-.017.087-.012.087-.007.087-.003.088.002.088.006.086.01.087.015.086.019.084.023.083.028.082.032.08.036.078.04.076.044.073.048 4.046 2.768z" fill="#ed399f"/><path d="m4.435 13.895 5.996 4.283" style="fill:none;stroke:#000;stroke-width:.69;stroke-linecap:round;stroke-linejoin:miter;stroke-miterlimit:1.5"/><path d="m7.127 10.224 4.895 4.895" style="fill:none;stroke:#000;stroke-width:.69;stroke-linecap:round;stroke-linejoin:miter;stroke-miterlimit:1.5"/><path d="m10.064 7.288 4.65 4.649" style="fill:none;stroke:#000;stroke-width:.69;stroke-linecap:round;stroke-linejoin:miter;stroke-miterlimit:1.5"/><path d="m5.935 12.711c.376-.625 1.409-.695 2.304-.157.897.539 1.319 1.483.943 2.108-.375.625-1.408.696-2.303.157-.897-.538-1.319-1.483-.944-2.108z" fill="#a11b67"/><path d="m5.938 17.189c.313-.52 1.136-.599 1.837-.178.702.422 1.019 1.186.707 1.706-.313.519-1.136.599-1.838.177s-1.018-1.186-.706-1.705z" fill="#a11b67"/><path d="m8.355 8.507c.541-.54 1.637-.321 2.448.489.81.811 1.029 1.907.489 2.448-.54.54-1.637.321-2.447-.49-.811-.81-1.03-1.907-.49-2.447z" fill="#a11b67"/><path d="m12.665 5.796c.605-.363 1.547.091 2.102 1.015s.514 1.969-.09 2.333c-.606.363-1.548-.092-2.103-1.015-.555-.924-.514-1.969.091-2.333z" fill="#a11b67"/><path d="m21.323 9.229c.884 0 1.602 1.025 1.602 2.287s-.718 2.287-1.602 2.287c-.885 0-1.603-1.025-1.603-2.287s.718-2.287 1.603-2.287z" fill="#a11b67"/><path d="m17.643 15.356-4.162-4.162-.065-.062-.068-.058-.071-.054-.072-.05-.076-.048-.078-.042-.081-.039-.082-.035-.084-.03-.085-.026-.087-.022-.087-.017-.088-.012-.088-.008-.09-.004-.089.001-.089.006-.089.01-.087.015-.087.02-.086.023-.084.028-.084.033-.081.037-.079.041-.077.045-.074.049-.072.052-.069.056-.067.06-.063.063-.059.066-.057.069-.052.072-.049.075-.045.077-.04.079-.038.081-.032.083-.028.084-.024.086-.019.088-.016.087-.01.089-.005.088-.001.089.003.09.008.089.012.088.018.087.021.087.026.085.031.084.034.082.039.08.043.078.047.076.051.073.054.071.058.067.061.065 4.163 4.162-.04.04-4.046-2.768-.074-.048-.076-.043-.077-.04-.081-.036-.081-.033-.083-.027-.085-.023-.085-.02-.087-.014-.087-.011-.087-.006-.088-.001-.088.003-.087.007-.087.012-.086.016-.086.02-.083.025-.083.029-.081.033-.08.038-.077.041-.075.045-.073.049-.07.053-.068.055-.064.059-.062.063-.058.066-.055.068-.051.071-.048.073-.044.077-.04.077-.036.081-.032.082-.028.082-.023.085-.019.086-.015.086-.01.087-.006.087-.002.088.003.088.008.087.011.087.017.086.02.085.025.084.029.083.033.081.037.08.042.077.045.075.049.073.052.07.056.068.06.064.062.062.065.058.069.055.071.052 2.494 1.706-.527-.315-.076-.044-.078-.039-.081-.035-.082-.031-.083-.027-.085-.022-.086-.018-.086-.014-.088-.01-.087-.006h-.088l-.087.004-.088.008-.086.012-.086.018-.085.021-.084.025-.083.03-.081.034-.079.038-.076.042-.075.046-.073.05-.069.053-.068.056-.063.06-.061.063-.058.066-.054.069-.051.072-.046.074-.044.076-.039.079-.035.08-.031.082-.027.084-.023.084-.018.086-.014.086-.009.088-.006.087v.088l.003.088.009.087.012.086.017.086.021.086.026.083.03.083.034.081.038.079.042.077.046.074.05.073.053.069.056.067.06.064.063.062.066.057.069.054.072.051.074.047 6.562 3.931.061.036.066.037.065.037.065.036.066.035.066.035.067.034.066.033.067.032.067.031.068.032.135.058.068.029.068.028.069.027.069.026.068.025.069.025.069.024.07.024.069.022.07.022.07.021.07.02.07.019.07.02.071.017.07.018.07.016.072.016.141.029.071.014.071.012.071.012.072.012.071.01.071.01.071.009.072.009.071.008.072.006.071.006.071.006.073.005.071.004.072.002.071.003.072.002.072.001h.07.072l.072-.001.071-.002.072-.003.071-.003.071-.004.072-.005.071-.006.071-.005.071-.008.071-.007.071-.009.071-.009.07-.01.071-.01.071-.012.07-.011.07-.014.07-.013.07-.014.071-.015.069-.015.07-.016.069-.018.07-.017.069-.018.069-.019.069-.021.068-.02.069-.022.068-.021.068-.023.068-.024.068-.023.067-.025.067-.026.068-.026.066-.026.067-.028.066-.029.066-.029.066-.029.066-.031.065-.031.065-.031.064-.033.065-.033.064-.034.064-.035.064-.035.063-.036.063-.037.062-.037.063-.038.062-.039.061-.039.062-.04.06-.041.061-.042.06-.042.06-.042.06-.044.058-.044.059-.045.059-.046.058-.046.057-.047.057-.048.056-.047.057-.05.055-.049.056-.05.055-.051.054-.052.054-.052.49-.49.017-.015.057-.054.07-.07.055-.057.059-.061.058-.062.058-.062.056-.063.056-.064.055-.065.054-.065.053-.065.052-.067.051-.066.051-.068.05-.068.049-.068.048-.07.047-.069.046-.071.045-.07.045-.072.043-.071.043-.073.041-.072.041-.074.04-.073.039-.074.038-.075.037-.075.037-.075.035-.076.034-.077.033-.076.033-.077.031-.077.031-.079.03-.078.029-.078.027-.08.027-.078.026-.08.024-.08.025-.081.022-.08.022-.081.021-.081.02-.082.019-.082.019-.082.016-.082.016-.083.016-.082.013-.084.013-.083.012-.083.011-.084.01-.084.009-.084.007-.084.007-.084.006-.085.005-.085.003-.084.003-.085.002-.085v-.079-5.86l-.001-.079-.005-.078-.007-.079-.011-.077-.013-.078-.016-.077-.019-.076-.023-.075-.024-.075-.028-.074-.03-.072-.033-.071-.036-.07-.038-.069-.042-.067-.043-.065-.046-.064-.048-.062-.051-.06-.053-.059-.055-.055-.057-.055-.059-.051-.061-.049-.063-.047-.065-.045-.066-.043-.068-.04-.069-.037-.071-.034-.072-.032-.073-.029-.074-.026-.074-.024-.077-.02-.076-.018-.077-.015-.078-.011-.078-.009-.078-.006-.079-.003h-.079l-.078.003-.079.006-.078.009-.077.011-.078.015-.076.018-.076.02-.075.024-.074.026-.073.029-.072.032-.07.034-.07.037-.068.04-.066.043-.065.045-.062.047-.062.049-.059.051-.057.055-.055.055-.053.059-.051.06-.048.062-.046.064-.043.065-.041.067-.038.068-.037.071-.032.071-.031.072-.028.074-.024.075-.023.075-.018.076-.016.077-.014.078-.01.077-.008.079-.005.078-.001.079v2.818l-.71-.711-4.11-6.85-.045-.071-.049-.069-.053-.068-.055-.064-.059-.061-.061-.059-.064-.055-.067-.053-.07-.049-.072-.045-.074-.042-.076-.037-.077-.035-.08-.031-.081-.027-.081-.022-.083-.019-.084-.014-.084-.011-.085-.006-.085-.002-.084.003-.085.006-.085.01-.083.015-.083.018-.082.023-.08.027-.079.03-.078.035-.076.038-.074.042-.071.045-.07.049-.067.053-.064.055-.062.059-.059.061-.055.064-.052.067-.049.07-.046.072-.041.074-.038.076-.035.078-.03.079-.027.08-.023.082-.018.083-.014.084-.011.084-.006.085-.002.085.002.084.006.085.011.085.014.083.019.083.023.082.026.08.031.08.034.077.038.076.043.074 2.608 4.348-.084.084z" fill="none" stroke="#000" stroke-width="4"/><path d="m17.643 15.356-4.162-4.162-.065-.062-.068-.058-.071-.054-.072-.05-.076-.048-.078-.042-.081-.039-.082-.035-.084-.03-.085-.026-.087-.022-.087-.017-.088-.012-.088-.008-.09-.004-.089.001-.089.006-.089.01-.087.015-.087.02-.086.023-.084.028-.084.033-.081.037-.079.041-.077.045-.074.049-.072.052-.069.056-.067.06-.063.063-.059.066-.057.069-.052.072-.049.075-.045.077-.04.079-.038.081-.032.083-.028.084-.024.086-.019.088-.016.087-.01.089-.005.088-.001.089.003.09.008.089.012.088.018.087.021.087.026.085.031.084.034.082.039.08.043.078.047.076.051.073.054.071.058.067.061.065 4.163 4.162-.04.04-4.046-2.768-.074-.048-.076-.043-.077-.04-.081-.036-.081-.033-.083-.027-.085-.023-.085-.02-.087-.014-.087-.011-.087-.006-.088-.001-.088.003-.087.007-.087.012-.086.016-.086.02-.083.025-.083.029-.081.033-.08.038-.077.041-.075.045-.073.049-.07.053-.068.055-.064.059-.062.063-.058.066-.055.068-.051.071-.048.073-.044.077-.04.077-.036.081-.032.082-.028.082-.023.085-.019.086-.015.086-.01.087-.006.087-.002.088.003.088.008.087.011.087.017.086.02.085.025.084.029.083.033.081.037.08.042.077.045.075.049.073.052.07.056.068.06.064.062.062.065.058.069.055.071.052 2.494 1.706-.527-.315-.076-.044-.078-.039-.081-.035-.082-.031-.083-.027-.085-.022-.086-.018-.086-.014-.088-.01-.087-.006h-.088l-.087.004-.088.008-.086.012-.086.018-.085.021-.084.025-.083.03-.081.034-.079.038-.076.042-.075.046-.073.05-.069.053-.068.056-.063.06-.061.063-.058.066-.054.069-.051.072-.046.074-.044.076-.039.079-.035.08-.031.082-.027.084-.023.084-.018.086-.014.086-.009.088-.006.087v.088l.003.088.009.087.012.086.017.086.021.086.026.083.03.083.034.081.038.079.042.077.046.074.05.073.053.069.056.067.06.064.063.062.066.057.069.054.072.051.074.047 6.562 3.931.061.036.066.037.065.037.065.036.066.035.066.035.067.034.066.033.067.032.067.031.068.032.135.058.068.029.068.028.069.027.069.026.068.025.069.025.069.024.07.024.069.022.07.022.07.021.07.02.07.019.07.02.071.017.07.018.07.016.072.016.141.029.071.014.071.012.071.012.072.012.071.01.071.01.071.009.072.009.071.008.072.006.071.006.071.006.073.005.071.004.072.002.071.003.072.002.072.001h.07.072l.072-.001.071-.002.072-.003.071-.003.071-.004.072-.005.071-.006.071-.005.071-.008.071-.007.071-.009.071-.009.07-.01.071-.01.071-.012.07-.011.07-.014.07-.013.07-.014.071-.015.069-.015.07-.016.069-.018.07-.017.069-.018.069-.019.069-.021.068-.02.069-.022.068-.021.068-.023.068-.024.068-.023.067-.025.067-.026.068-.026.066-.026.067-.028.066-.029.066-.029.066-.029.066-.031.065-.031.065-.031.064-.033.065-.033.064-.034.064-.035.064-.035.063-.036.063-.037.062-.037.063-.038.062-.039.061-.039.062-.04.06-.041.061-.042.06-.042.06-.042.06-.044.058-.044.059-.045.059-.046.058-.046.057-.047.057-.048.056-.047.057-.05.055-.049.056-.05.055-.051.054-.052.054-.052.49-.49.017-.015.057-.054.07-.07.055-.057.059-.061.058-.062.058-.062.056-.063.056-.064.055-.065.054-.065.053-.065.052-.067.051-.066.051-.068.05-.068.049-.068.048-.07.047-.069.046-.071.045-.07.045-.072.043-.071.043-.073.041-.072.041-.074.04-.073.039-.074.038-.075.037-.075.037-.075.035-.076.034-.077.033-.076.033-.077.031-.077.031-.079.03-.078.029-.078.027-.08.027-.078.026-.08.024-.08.025-.081.022-.08.022-.081.021-.081.02-.082.019-.082.019-.082.016-.082.016-.083.016-.082.013-.084.013-.083.012-.083.011-.084.01-.084.009-.084.007-.084.007-.084.006-.085.005-.085.003-.084.003-.085.002-.085v-.079-5.86l-.001-.079-.005-.078-.007-.079-.011-.077-.013-.078-.016-.077-.019-.076-.023-.075-.024-.075-.028-.074-.03-.072-.033-.071-.036-.07-.038-.069-.042-.067-.043-.065-.046-.064-.048-.062-.051-.06-.053-.059-.055-.055-.057-.055-.059-.051-.061-.049-.063-.047-.065-.045-.066-.043-.068-.04-.069-.037-.071-.034-.072-.032-.073-.029-.074-.026-.074-.024-.077-.02-.076-.018-.077-.015-.078-.011-.078-.009-.078-.006-.079-.003h-.079l-.078.003-.079.006-.078.009-.077.011-.078.015-.076.018-.076.02-.075.024-.074.026-.073.029-.072.032-.07.034-.07.037-.068.04-.066.043-.065.045-.062.047-.062.049-.059.051-.057.055-.055.055-.053.059-.051.06-.048.062-.046.064-.043.065-.041.067-.038.068-.037.071-.032.071-.031.072-.028.074-.024.075-.023.075-.018.076-.016.077-.014.078-.01.077-.008.079-.005.078-.001.079v2.818l-.71-.711-4.11-6.85-.045-.071-.049-.069-.053-.068-.055-.064-.059-.061-.061-.059-.064-.055-.067-.053-.07-.049-.072-.045-.074-.042-.076-.037-.077-.035-.08-.031-.081-.027-.081-.022-.083-.019-.084-.014-.084-.011-.085-.006-.085-.002-.084.003-.085.006-.085.01-.083.015-.083.018-.082.023-.08.027-.079.03-.078.035-.076.038-.074.042-.071.045-.07.049-.067.053-.064.055-.062.059-.059.061-.055.064-.052.067-.049.07-.046.072-.041.074-.038.076-.035.078-.03.079-.027.08-.023.082-.018.083-.014.084-.011.084-.006.085-.002.085.002.084.006.085.011.085.014.083.019.083.023.082.026.08.031.08.034.077.038.076.043.074 2.608 4.348-.084.084z" fill="#ed399f"/><g stroke-linecap="round" stroke-linejoin="miter"><path d="m7.854 17.314 5.996 4.283" fill="#808080" stroke="#000" stroke-miterlimit="1.5" stroke-width=".69"/><path d="m10.546 13.643 4.894 4.894" fill="#808080" stroke="#000" stroke-miterlimit="1.5" stroke-width=".69"/><path d="m13.483 10.706 4.649 4.65" fill="#808080" stroke="#000" stroke-miterlimit="1.5" stroke-width=".69"/><path d="m22 5v-2" fill="none" stroke="#fff" stroke-miterlimit="2" stroke-width="2"/><path d="m25 7 2-2" fill="none" stroke="#fff" stroke-miterlimit="2" stroke-width="2"/><path d="m27 10h2" fill="none" stroke="#fff" stroke-miterlimit="2" stroke-width="2"/><path d="m10 27v2" fill="none" stroke="#fff" stroke-miterlimit="2" stroke-width="2"/><path d="m7 25-2 2" fill="none" stroke="#fff" stroke-miterlimit="2" stroke-width="2"/><path d="m5 22h-2" fill="none" stroke="#fff" stroke-miterlimit="2" stroke-width="2"/></g></svg>