<svg clip-rule="evenodd" fill-rule="evenodd" stroke-linejoin="round" stroke-miterlimit="1.41421" viewBox="0 0 32 32" xmlns="http://www.w3.org/2000/svg" xmlns:xlink="http://www.w3.org/1999/xlink"><clipPath id="a"><path clip-rule="evenodd" d="m26 15-3-3h-8v13h11z"/></clipPath><path d="m0 0h32v32h-32z" fill="none"/><path d="m22.102 7.001.102.004.102.006.101.009.1.012.1.014.099.016.098.019.097.021.097.024.096.026.095.028.094.031.092.032.092.035.091.037.089.039.088.041.087.044.086.045.084.047.084.049.081.051.081.053.079.055.077.056.077.059.074.06.074.062.071.064.07.065.069.066.066.069.065.07.064.071.062.074.06.074.059.077.056.078.054.077.054.081.051.083.049.082.047.085.045.085.044.088.041.088.039.089.037.091.035.092.033.093.03.094.028.094.026.095.024.097.021.098.019.098.016.1.014.099.012.1.009.102.006.1.004.102.001.09v10.026l-.001.09-.004.102-.006.1-.009.102-.012.1-.014.099-.016.1-.019.098-.021.098-.024.097-.026.095-.028.094-.03.094-.033.093-.035.092-.037.091-.039.089-.041.088-.044.088-.045.085-.047.085-.049.082-.051.083-.054.081-.054.077-.056.078-.059.077-.06.074-.062.074-.064.071-.065.07-.066.069-.069.066-.07.065-.071.064-.074.062-.074.06-.077.059-.077.056-.079.055-.081.053-.081.051-.084.049-.084.047-.086.045-.087.044-.088.041-.089.039-.091.037-.092.035-.092.032-.094.031-.095.028-.096.026-.097.024-.097.021-.098.019-.099.016-.1.014-.1.012-.101.009-.102.006-.102.004-.102.001-.102-.001-.102-.004-.102-.006-.101-.009-.1-.012-.099-.014-.1-.016-.098-.019-.098-.021-.096-.024-.096-.026-.095-.028-.094-.031-.092-.032-.092-.035-.09-.037-.09-.039-.089-.041-.086-.044-.086-.045-.084-.047-.084-.049-.081-.051-.081-.053-.079-.055-.077-.056-.077-.059-.074-.06-.073-.062-.072-.063-.07-.066-.069-.066-.067-.069-.065-.07-.063-.071-.062-.073-.06-.075-.059-.077-.056-.077-.055-.079-.053-.08-.051-.083-.049-.083-.047-.084-.045-.085-.044-.088-.041-.088-.039-.09-.037-.09-.035-.092-.032-.092-.031-.094-.028-.095-.026-.096-.024-.097-.021-.097-.019-.098-.016-.099-.014-.1-.012-.1-.009-.101-.006-.102-.004-.102-.001-.089v-10.026l.001-.089.004-.102.006-.102.009-.101.012-.1.014-.1.016-.099.019-.098.021-.097.024-.097.026-.096.028-.095.031-.094.032-.092.035-.092.037-.09.039-.09.041-.088.044-.088.045-.085.047-.084.049-.083.051-.083.053-.08.055-.079.056-.077.059-.077.06-.075.062-.073.063-.071.065-.07.067-.069.069-.066.07-.066.072-.063.073-.062.074-.06.077-.059.077-.056.079-.055.081-.053.081-.051.084-.049.084-.047.086-.045.086-.044.089-.041.09-.039.09-.037.092-.035.092-.032.094-.031.095-.028.096-.026.096-.024.098-.021.098-.019.1-.016.099-.014.1-.012.101-.009.102-.006.102-.004.102-.001.102.001zm-.102 4.012v9.974.001-.001-9.974-.001z"/><path d="m17.102 7.001.102.004.102.006.101.009.1.012.099.014.1.016.098.019.098.021.096.024.096.026.095.028.094.031.092.032.092.035.09.037.09.039.089.041.086.044.086.045.084.047.084.049.081.051.081.053.079.055.077.056.077.059.074.06.073.062.072.063.071.066.067.066.067.069.066.07.063.071.062.073.06.075.059.077.056.077.055.079.053.08.051.083.049.083.047.084.045.085.044.088.041.088.039.09.037.09.035.092.032.092.031.094.028.095.026.096.024.097.021.097.019.098.016.099.014.1.012.1.009.102.006.101.004.101.001.09v10.026l-.001.09-.004.101-.006.101-.009.102-.012.1-.014.1-.016.099-.019.098-.021.097-.024.097-.026.096-.028.095-.031.094-.032.092-.035.092-.037.09-.039.09-.041.088-.044.088-.045.085-.047.084-.049.083-.051.083-.053.08-.055.079-.056.077-.059.077-.06.075-.062.073-.063.071-.066.07-.067.069-.067.066-.071.066-.072.063-.073.062-.074.06-.077.059-.077.056-.079.055-.081.053-.081.051-.084.049-.084.047-.086.045-.086.044-.089.041-.09.039-.09.037-.092.035-.092.032-.094.031-.095.028-.096.026-.096.024-.098.021-.098.019-.1.016-.099.014-.1.012-.101.009-.102.006-.102.004-.102.001-.102-.001-.102-.004-.102-.006-.101-.009-.1-.012-.099-.014-.1-.016-.098-.019-.097-.021-.097-.024-.096-.026-.095-.028-.094-.03-.092-.033-.092-.035-.091-.037-.089-.039-.088-.041-.087-.043-.086-.046-.085-.047-.083-.049-.081-.051-.081-.053-.079-.055-.077-.056-.077-.059-.074-.06-.073-.062-.072-.063-.071-.066-.067-.066-.067-.069-.066-.07-.063-.071-.062-.074-.06-.074-.058-.076-.057-.079-.055-.078-.053-.08-.051-.083-.049-.082-.047-.085-.045-.085-.044-.088-.041-.088-.039-.089-.037-.091-.035-.092-.033-.093-.03-.094-.028-.094-.026-.095-.024-.097-.021-.098-.019-.098-.016-.1-.014-.099-.012-.1-.009-.102-.006-.1-.004-.102-.001-.09v-10.026l.001-.09.004-.102.006-.1.009-.102.012-.1.014-.099.016-.1.019-.098.021-.098.024-.097.026-.095.028-.094.03-.094.033-.093.035-.092.037-.091.039-.089.041-.088.044-.088.045-.085.047-.085.049-.082.051-.083.053-.08.055-.078.057-.079.058-.076.06-.074.062-.074.063-.071.066-.07.067-.069.068-.066.07-.065.072-.064.073-.062.074-.06.077-.059.077-.056.079-.055.081-.053.081-.051.083-.049.085-.047.086-.046.087-.043.088-.041.089-.039.091-.037.092-.035.092-.032.094-.031.095-.028.096-.026.097-.024.097-.021.098-.019.1-.016.099-.014.1-.012.101-.009.102-.006.102-.004.102-.001.102.001zm-.102 4.012v9.974.001-.001-9.974-.001z"/><path d="m12.102 7.001.102.004.102.006.101.009.1.012.099.014.1.016.098.019.098.021.096.024.096.026.095.028.094.031.092.032.092.035.09.037.09.039.089.041.086.044.086.045.084.047.084.049.081.051.081.053.079.055.077.056.077.059.074.06.073.062.072.063.07.066.069.066.067.069.064.07.064.071.062.074.06.074.059.077.056.077.055.079.053.08.051.083.049.082.047.085.046.086.043.087.041.088.039.09.037.09.035.092.032.092.031.094.028.095.026.095.024.098.021.098.019.097.016.099.014.1.012.1.009.101.006.102.004.102.001.089v10.026l-.001.089-.004.102-.006.102-.009.101-.012.1-.014.1-.016.099-.019.097-.021.098-.024.098-.026.095-.028.095-.031.094-.032.092-.035.092-.037.09-.039.09-.041.088-.043.087-.046.086-.047.085-.049.082-.051.083-.053.08-.055.079-.056.077-.059.077-.06.074-.062.074-.064.071-.064.07-.067.069-.069.066-.07.066-.072.063-.073.062-.074.06-.077.059-.077.056-.079.055-.081.053-.081.051-.084.049-.084.047-.086.045-.086.044-.089.041-.09.039-.09.037-.092.035-.092.032-.094.031-.095.028-.096.026-.096.024-.098.021-.098.019-.1.016-.099.014-.1.012-.101.009-.102.006-.102.004-.102.001-.102-.001-.102-.004-.102-.006-.101-.009-.1-.012-.099-.014-.1-.016-.098-.019-.097-.021-.097-.024-.096-.026-.095-.028-.094-.031-.092-.032-.092-.035-.09-.037-.09-.039-.088-.041-.087-.044-.086-.045-.084-.047-.084-.049-.082-.051-.08-.053-.079-.055-.078-.057-.076-.058-.074-.06-.074-.062-.071-.064-.07-.065-.069-.066-.066-.069-.065-.07-.064-.072-.062-.073-.06-.074-.059-.077-.056-.078-.055-.078-.053-.08-.051-.082-.049-.083-.047-.085-.046-.086-.043-.087-.041-.088-.039-.09-.037-.09-.035-.092-.032-.092-.031-.094-.028-.095-.026-.095-.024-.097-.021-.099-.019-.097-.016-.099-.014-.101-.012-.099-.009-.101-.006-.102-.004-.102-.001-.089v-10.026l.001-.089.004-.102.006-.102.009-.101.012-.099.014-.101.016-.099.019-.097.021-.099.024-.097.026-.095.028-.095.031-.094.032-.092.035-.092.037-.09.039-.09.041-.088.043-.087.046-.086.047-.085.049-.083.051-.082.053-.08.055-.078.056-.078.059-.077.06-.074.062-.073.064-.072.065-.07.066-.069.069-.066.07-.065.071-.064.074-.062.074-.06.076-.058.078-.057.079-.055.08-.053.082-.051.084-.049.084-.047.086-.045.087-.044.088-.041.09-.039.09-.037.092-.035.092-.032.094-.031.095-.028.096-.026.097-.024.097-.021.098-.019.1-.016.099-.014.1-.012.101-.009.102-.006.102-.004.102-.001.102.001z"/><path d="m7.102 7.001.102.004.102.006.101.009.1.012.1.014.099.016.098.019.098.021.096.024.096.026.095.028.094.03.093.033.091.035.091.037.089.039.088.041.087.044.086.045.084.047.083.049.083.051.08.053.079.055.077.056.077.059.075.061.072.061.072.063.07.066.068.066.067.069.065.07.064.072.062.073.06.074.058.076.057.079.055.078.053.08.051.082.049.084.048.085.044.085.043.086.042.089.039.089.037.09.035.092.033.094.03.094.028.095.026.094.024.097.021.098.019.099.016.099.014.098.012.101.009.101.006.102.004.101.001.09v8.026l-.001.09-.004.101-.006.102-.009.101-.012.101-.014.098-.016.099-.019.099-.021.098-.024.097-.026.094-.028.095-.03.094-.033.094-.035.092-.037.09-.039.089-.042.089-.043.086-.044.085-.048.085-.049.084-.051.082-.053.08-.055.078-.057.079-.058.076-.06.074-.062.073-.064.072-.065.07-.067.069-.068.066-.07.066-.072.063-.072.061-.075.061-.077.059-.077.056-.079.055-.08.053-.083.051-.083.049-.084.047-.086.045-.087.044-.088.041-.089.039-.091.037-.091.035-.093.033-.094.03-.095.028-.096.026-.096.024-.098.021-.098.019-.099.016-.1.014-.1.012-.101.009-.102.006-.102.004-.102.001-.102-.001-.102-.004-.102-.006-.101-.009-.1-.012-.1-.014-.099-.016-.098-.019-.098-.021-.096-.024-.096-.026-.095-.028-.094-.03-.093-.033-.091-.035-.091-.037-.089-.039-.088-.041-.087-.044-.086-.045-.084-.047-.083-.049-.083-.051-.08-.053-.079-.055-.077-.056-.077-.059-.075-.061-.072-.061-.072-.063-.07-.066-.068-.066-.067-.069-.065-.07-.064-.072-.062-.073-.06-.074-.058-.076-.057-.079-.055-.078-.053-.08-.051-.082-.049-.084-.048-.085-.044-.085-.043-.086-.042-.089-.039-.089-.037-.09-.035-.092-.033-.094-.03-.094-.028-.095-.026-.094-.024-.097-.021-.098-.019-.099-.016-.099-.014-.098-.012-.101-.009-.101-.006-.102-.004-.101-.001-.09v-8.026l.001-.09.004-.101.006-.102.009-.101.012-.101.014-.098.016-.099.019-.099.021-.098.024-.097.026-.094.028-.095.03-.094.033-.094.035-.092.037-.09.039-.089.042-.089.043-.086.044-.085.048-.085.049-.084.051-.082.053-.08.055-.078.057-.079.058-.076.06-.074.062-.073.064-.072.065-.07.067-.069.068-.066.07-.066.072-.063.072-.061.075-.061.077-.059.077-.056.079-.055.08-.053.083-.051.083-.049.084-.047.086-.045.087-.044.088-.041.089-.039.091-.037.091-.035.093-.033.094-.03.095-.028.096-.026.096-.024.098-.021.098-.019.099-.016.1-.014.1-.012.101-.009.102-.006.102-.004.102-.001zm-.102 4.012v7.974.002-.002-7.974-.002z"/><path d="m28.139 14.31.085.09.097.112.09.117.086.121.078.124.072.127.066.131.059.134.053.136.046.139.039.142.033.144.025.145.018.145.011.148.003.125v8.22l-.003.125-.011.147-.018.146-.026.146-.032.143-.039.141-.046.14-.053.137-.059.133-.066.13-.072.128-.079.125-.084.12-.091.117-.097.112-.085.09-1.449 1.449-.09.085-.113.097-.116.091-.12.084-.125.079-.127.072-.131.066-.134.059-.136.053-.139.046-.142.039-.143.032-.146.026-.146.018-.147.011-.125.003h-14.111l-.389-.939 4.606-4.606.08-.078.091-.084.093-.082.094-.079.096-.077.098-.074.1-.072.101-.069.103-.067.104-.064.105-.062.107-.058.109-.056.109-.054.111-.051.112-.048.113-.045.115-.042.115-.04.059-.019-4.781-8.605 12.688-2.82zm-10.089 2.061 4.793 8.629h1.329l.828-.828v-7.344l-1.638-1.637z"/><path d="m22.099 3.001.099.004.099.006.098.008.098.011.098.014.097.015.096.018.096.021.095.023.095.025.093.027.094.029.092.032.091.034.091.036.089.039.089.04.088.043.086.045.086.047.085.05.083.05.082.054.081.055.08.058.078.059.077.061.076.064.074.066.073.067.071.069.069.071.067.073.066.074.063.075.062.078.059.079.057.078.056.082.053.082.052.083.049.085.047.086.045.087.043.087.04.088.039.09.036.09.034.092.032.093.029.092.028.095.025.095.022.094.02.095.019.097.015.098.014.097.011.098.008.097.006.099.004.1.001.087v5.025l-.001.089-.004.102-.006.101-.009.102-.012.1-.014.099-.016.099-.019.099-.021.097-.024.098-.026.095-.028.095-.031.094-.032.092-.035.092-.037.09-.039.089-.042.09-.043.086-.045.086-.047.084-.049.084-.052.082-.052.079-.055.08-.057.078-.058.076-.06.074-.061.073-.064.072-.066.071-.067.068-.068.067-.07.064-.071.064-.074.062-.074.06-.077.059-.077.056-.079.055-.081.053-.081.051-.083.049-.085.047-.086.046-.087.043-.088.041-.089.039-.091.037-.092.035-.093.033-.093.03-.095.028-.096.026-.096.024-.098.021-.098.019-.099.016-.1.014-.1.012-.101.009-.102.006-.102.004-.089.001h-15.026l-.089-.001-.102-.004-.101-.006-.102-.009-.1-.012-.1-.014-.099-.016-.098-.019-.097-.021-.097-.024-.096-.026-.095-.028-.093-.03-.093-.033-.092-.035-.091-.037-.089-.039-.088-.041-.087-.043-.086-.046-.085-.047-.082-.049-.082-.051-.081-.053-.079-.055-.077-.056-.077-.059-.074-.06-.074-.062-.071-.064-.07-.064-.069-.067-.067-.069-.065-.07-.063-.071-.062-.073-.06-.075-.059-.077-.056-.077-.055-.079-.053-.081-.051-.081-.049-.084-.047-.084-.045-.085-.044-.088-.041-.087-.039-.09-.037-.091-.035-.091-.032-.093-.031-.094-.028-.096-.026-.095-.023-.095-.022-.098-.019-.1-.016-.099-.014-.099-.012-.1-.009-.101-.006-.102-.004-.102-.001-.089v-3.582l.001-.07.002-.08.004-.08.006-.079.007-.079.008-.079.011-.079.011-.077.013-.078.015-.078.017-.077.017-.076.02-.076.02-.075.022-.075.024-.075.025-.073.026-.074.028-.072.032-.08.058-.133.068-.139.072-.135.078-.133.082-.13.088-.126.092-.123.097-.12.101-.115.106-.112.111-.108.107-.097.067-.057.06-.049.061-.048.062-.047.062-.045.064-.045.065-.043.066-.042.067-.041.068-.04.069-.039.07-.037.069-.036.072-.034.072-.033.073-.032.074-.031.074-.029.075-.027.066-.023 4.507-1.502.097-.03.117-.032.117-.026.119-.022.119-.017.12-.012.121-.007.1-.002h10.87zm-15.098 5.44-.001.011v3.535.013h.013 14.974.013v-.013-4.975-.012h-.012-10.663l-4.315 1.438z"/><path d="m14.689 24.243c.075-.299.008-.616-.182-.858-.189-.243-.48-.385-.788-.385-.815 0-1.719 0-1.719 0v-4h9v8h-7s.396-1.583.689-2.757z" fill="#765018"/><path d="m7 12h13v9h-13z" fill="#765018"/><path d="m22 15v9s-2.277 0-3.758 0c-.795 0-1.558.316-2.12.878-.885.885-2.122 2.122-2.122 2.122h10.586c.265 0 .519-.105.707-.293l1.414-1.414c.188-.188.293-.442.293-.707 0-1.504 0-6.668 0-8.172 0-.265-.105-.519-.293-.707-.755-.755-2.707-2.707-2.707-2.707z" fill="#ce8d15"/><path d="m26 15-3-3h-8v13h11z" fill="none"/><g clip-path="url(#a)" fill="#765018"><path d="m17.102 7.001.102.004.102.006.101.009.1.012.099.014.1.016.098.019.098.021.096.024.096.026.095.028.094.031.092.032.092.035.09.037.09.039.089.041.086.044.086.045.084.047.084.049.081.051.081.053.079.055.077.056.077.059.074.06.073.062.072.063.071.066.067.066.067.069.066.07.063.071.062.073.06.075.059.077.056.077.055.079.053.08.051.083.049.083.047.084.045.085.044.088.041.088.039.09.037.09.035.092.032.092.031.094.028.095.026.096.024.097.021.097.019.098.016.099.014.1.012.1.009.102.006.101.004.101.001.09v10.026l-.001.09-.004.101-.006.101-.009.102-.012.1-.014.1-.016.099-.019.098-.021.097-.024.097-.026.096-.028.095-.031.094-.032.092-.035.092-.037.09-.039.09-.041.088-.044.088-.045.085-.047.084-.049.083-.051.083-.053.08-.055.079-.056.077-.059.077-.06.075-.062.073-.063.071-.066.07-.067.069-.067.066-.071.066-.072.063-.073.062-.074.06-.077.059-.077.056-.079.055-.081.053-.081.051-.084.049-.084.047-.086.045-.086.044-.089.041-.09.039-.09.037-.092.035-.092.032-.094.031-.095.028-.096.026-.096.024-.098.021-.098.019-.1.016-.099.014-.1.012-.101.009-.102.006-.102.004-.102.001-.102-.001-.102-.004-.102-.006-.101-.009-.1-.012-.099-.014-.1-.016-.098-.019-.097-.021-.097-.024-.096-.026-.095-.028-.094-.03-.092-.033-.092-.035-.091-.037-.089-.039-.088-.041-.087-.043-.086-.046-.085-.047-.083-.049-.081-.051-.081-.053-.079-.055-.077-.056-.077-.059-.074-.06-.073-.062-.072-.063-.071-.066-.067-.066-.067-.069-.066-.07-.063-.071-.062-.074-.06-.074-.058-.076-.057-.079-.055-.078-.053-.08-.051-.083-.049-.082-.047-.085-.045-.085-.044-.088-.041-.088-.039-.089-.037-.091-.035-.092-.033-.093-.03-.094-.028-.094-.026-.095-.024-.097-.021-.098-.019-.098-.016-.1-.014-.099-.012-.1-.009-.102-.006-.1-.004-.102-.001-.09v-10.026l.001-.09.004-.102.006-.1.009-.102.012-.1.014-.099.016-.1.019-.098.021-.098.024-.097.026-.095.028-.094.03-.094.033-.093.035-.092.037-.091.039-.089.041-.088.044-.088.045-.085.047-.085.049-.082.051-.083.053-.08.055-.078.057-.079.058-.076.06-.074.062-.074.063-.071.066-.07.067-.069.068-.066.07-.065.072-.064.073-.062.074-.06.077-.059.077-.056.079-.055.081-.053.081-.051.083-.049.085-.047.086-.046.087-.043.088-.041.089-.039.091-.037.092-.035.092-.032.094-.031.095-.028.096-.026.097-.024.097-.021.098-.019.1-.016.099-.014.1-.012.101-.009.102-.006.102-.004.102-.001.102.001zm-.102 4.012v9.974.001-.001-9.974-.001z"/><path d="m22.102 7.001.102.004.102.006.101.009.1.012.1.014.099.016.098.019.097.021.097.024.096.026.095.028.094.031.092.032.092.035.091.037.089.039.088.041.087.044.086.045.084.047.084.049.081.051.081.053.079.055.077.056.077.059.074.06.074.062.071.064.07.065.069.066.066.069.065.07.064.071.062.074.06.074.059.077.056.078.054.077.054.081.051.083.049.082.047.085.045.085.044.088.041.088.039.089.037.091.035.092.033.093.03.094.028.094.026.095.024.097.021.098.019.098.016.1.014.099.012.1.009.102.006.1.004.102.001.09v10.026l-.001.09-.004.102-.006.1-.009.102-.012.1-.014.099-.016.1-.019.098-.021.098-.024.097-.026.095-.028.094-.03.094-.033.093-.035.092-.037.091-.039.089-.041.088-.044.088-.045.085-.047.085-.049.082-.051.083-.054.081-.054.077-.056.078-.059.077-.06.074-.062.074-.064.071-.065.07-.066.069-.069.066-.07.065-.071.064-.074.062-.074.06-.077.059-.077.056-.079.055-.081.053-.081.051-.084.049-.084.047-.086.045-.087.044-.088.041-.089.039-.091.037-.092.035-.092.032-.094.031-.095.028-.096.026-.097.024-.097.021-.098.019-.099.016-.1.014-.1.012-.101.009-.102.006-.102.004-.102.001-.102-.001-.102-.004-.102-.006-.101-.009-.1-.012-.099-.014-.1-.016-.098-.019-.098-.021-.096-.024-.096-.026-.095-.028-.094-.031-.092-.032-.092-.035-.09-.037-.09-.039-.089-.041-.086-.044-.086-.045-.084-.047-.084-.049-.081-.051-.081-.053-.079-.055-.077-.056-.077-.059-.074-.06-.073-.062-.072-.063-.07-.066-.069-.066-.067-.069-.065-.07-.063-.071-.062-.073-.06-.075-.059-.077-.056-.077-.055-.079-.053-.08-.051-.083-.049-.083-.047-.084-.045-.085-.044-.088-.041-.088-.039-.09-.037-.09-.035-.092-.032-.092-.031-.094-.028-.095-.026-.096-.024-.097-.021-.097-.019-.098-.016-.099-.014-.1-.012-.1-.009-.101-.006-.102-.004-.102-.001-.089v-10.026l.001-.089.004-.102.006-.102.009-.101.012-.1.014-.1.016-.099.019-.098.021-.097.024-.097.026-.096.028-.095.031-.094.032-.092.035-.092.037-.09.039-.09.041-.088.044-.088.045-.085.047-.084.049-.083.051-.083.053-.08.055-.079.056-.077.059-.077.06-.075.062-.073.063-.071.065-.07.067-.069.069-.066.07-.066.072-.063.073-.062.074-.06.077-.059.077-.056.079-.055.081-.053.081-.051.084-.049.084-.047.086-.045.086-.044.089-.041.09-.039.09-.037.092-.035.092-.032.094-.031.095-.028.096-.026.096-.024.098-.021.098-.019.1-.016.099-.014.1-.012.101-.009.102-.006.102-.004.102-.001.102.001zm-.102 4.012v9.974.001-.001-9.974-.001z"/></g><g fill="#ffc20b"><path d="m20 9h4v12c0 1.105-.895 2-2 2s-2-.895-2-2c0-3.869 0-12 0-12z"/><path d="m15 9h4v12c0 1.105-.895 2-2 2s-2-.895-2-2c0-3.869 0-12 0-12z"/><path d="m10 9h4v12c0 1.105-.895 2-2 2s-2-.895-2-2c0-3.869 0-12 0-12z"/><path d="m5 9h4v10c0 1.105-.895 2-2 2s-2-.895-2-2c0-3.414 0-10 0-10z"/><path d="m5 8.442c0-.861.551-1.626 1.368-1.898 1.418-.473 3.538-1.179 4.324-1.441.204-.068.418-.103.633-.103h10.675c1.105 0 2 .895 2 2v6h-19s0-2.783 0-4.558z"/></g></svg>