<svg clip-rule="evenodd" fill-rule="evenodd" stroke-linejoin="round" stroke-miterlimit="1.41421" viewBox="0 0 32 32" xmlns="http://www.w3.org/2000/svg" xmlns:xlink="http://www.w3.org/1999/xlink"><clipPath id="a"><path clip-rule="evenodd" d="m-.145-.047h32v32h-32z"/></clipPath><clipPath id="b"><path clip-rule="evenodd" d="m16.904 15.279-4.746-4.745c-.461-.462-.461-1.21 0-1.672.001-.001.002-.002.003-.003.462-.461 1.21-.461 1.672 0l7.536 7.537s-.251-.754-.559-1.677c-.616-1.848.383-3.846 2.231-4.462.002-.001.002-.001.002-.001s1.864 5.591 3.104 9.312c.663 1.989.145 4.182-1.337 5.665-.001.001-.001.001-.001.001-3.133 3.133-8.212 3.133-11.345 0l-.467-.467s-.188-.188-.188-.188l-1.486-1.486s-4.188-4.187-4.188-4.187c-.221-.222-.346-.523-.346-.836 0-.314.125-.614.346-.836.001-.001.002-.002.003-.003.222-.221.522-.346.836-.346.313 0 .614.125.836.346l4.187 4.188.558-.559-5.862-5.861c-.461-.462-.461-1.21 0-1.672.001-.001.002-.002.003-.003.462-.461 1.21-.461 1.672 0l5.303 5.304.558-.558-.558-.558-5.303-5.304c-.462-.461-.462-1.21 0-1.671.001-.001.002-.002.003-.003.461-.462 1.21-.462 1.671 0l5.304 5.303z"/></clipPath><path d="m-.145-.047h32v32h-32z" fill="none"/><g clip-path="url(#a)"><path d="m2.629 24.944c-.38-.031-.751-.129-1.094-.297-.351-.172-.667-.413-.926-.706-.248-.28-.443-.607-.572-.959-.117-.321-.179-.663-.181-1.004-.004-.457.098-.912.295-1.323.198-.412.489-.776.848-1.058.217-.172.458-.312.714-.418.348-.143.718-.216 1.094-.225.699-.006 1.398-.006 2.097 0 .425.01.843.103 1.228.284.354.167.674.402.938.691.252.276.452.6.587.95.122.319.189.659.198 1.001.002.081 0 .162-.004.243.076.027.151.057.225.09.313.139.601.332.848.568.331.314.587.704.745 1.132.006.015.011.03.017.045.081-.004.162-.005.243-.004.342.011.68.075 1.001.198.812.311 1.46.976 1.752 1.795.11.308.165.631.173.957.006.716.016 1.432-.001 2.147-.017.424-.117.841-.305 1.223-.172.351-.413.667-.706.926-.28.248-.607.443-.959.571-.321.118-.662.179-1.004.182-.456.004-.912-.098-1.323-.295-.411-.198-.775-.49-1.058-.848-.171-.217-.312-.459-.417-.714-.121-.293-.192-.602-.217-.916-.303.27-.654.48-1.038.612-.37.126-.764.179-1.155.156-.373-.023-.742-.117-1.082-.275-.31-.144-.595-.342-.838-.581-.198-.194-.368-.416-.505-.657-.225-.396-.358-.843-.386-1.299-.028-.455.05-.915.225-1.337.131-.314.316-.602.543-.855zm19.397-16.996c-.049.003-.097.005-.146.005-.277.002-.554-.034-.821-.107-.439-.121-.85-.344-1.191-.646-.342-.302-.613-.683-.786-1.104-.144-.348-.217-.718-.226-1.094-.006-.715-.016-1.431.001-2.147.013-.309.068-.615.172-.908.28-.787.891-1.434 1.662-1.758.301-.127.619-.201.945-.228.098-.006.195-.009.293-.007.342.011.68.075 1.001.198.812.311 1.46.976 1.752 1.795.09.252.143.514.164.779.144-.128.298-.244.464-.344.449-.27.961-.413 1.484-.428.05-.001.049-.001.098-.001.409.009.811.093 1.184.26.313.139.601.332.848.568.331.314.587.704.745 1.132.159.428.217.891.171 1.345-.028.275-.095.546-.197.804-.132.332-.324.635-.561.901.314.025.623.096.916.216.422.174.802.444 1.104.786.303.342.525.752.646 1.192.073.267.11.544.107.821-.002.341-.064.683-.181 1.004-.129.352-.324.679-.572.959-.259.293-.575.534-.926.706-.382.187-.798.287-1.223.305-.731.017-1.464.017-2.195 0-.425-.018-.841-.118-1.223-.305-.351-.172-.667-.413-.926-.706-.248-.28-.443-.607-.572-.959-.117-.321-.179-.663-.181-1.004-.001-.065.001-.13.004-.195-.091-.032-.182-.069-.27-.11-.31-.144-.595-.342-.838-.581-.198-.194-.368-.416-.505-.657-.088-.155-.162-.318-.221-.487z"/><path d="m7.724 5.408c.325-.6.84-1.091 1.464-1.38.28-.13.578-.219.884-.263.134-.019.168-.019.303-.029.152-.003.152-.003.304 0 .205.015.405.039.604.088.354.086.693.234.997.434.176.116.337.251.488.398l3.885 3.885c.044-.096.044-.095.09-.19.061-.118.061-.117.124-.233.2-.347.426-.673.692-.972.453-.508.999-.931 1.604-1.241.244-.125.497-.229.756-.319l1.914-.657c1.248 3.745 2.496 7.49 3.745 11.235.067.208.128.417.179.63.131.552.2 1.118.205 1.685.004.602-.063 1.205-.202 1.791-.218.925-.613 1.807-1.157 2.585-.443.635-.987 1.19-1.585 1.679-1.297 1.063-2.859 1.79-4.507 2.099-1.095.205-2.223.225-3.324.061-1.171-.175-2.309-.559-3.347-1.129-.437-.24-.853-.513-1.247-.814l-.066.065-.94-.941-.002-.002-1.621-1.621-4.73-4.73c-.088-.092-.11-.112-.195-.216-.23-.28-.411-.601-.533-.942-.106-.295-.168-.605-.183-.918-.016-.313.016-.628.092-.932.147-.585.463-1.117.895-1.53-.102-.174-.187-.358-.255-.549-.117-.338-.178-.695-.178-1.052s.061-.714.178-1.051c.262-.747.803-1.378 1.496-1.753.002-.301.046-.603.132-.892.257-.87.892-1.603 1.714-1.985.28-.13.579-.218.884-.262.135-.02.168-.02.304-.029.067-.002.105-.003.139-.003z"/><path d="m14.434 12.499-4.745-4.745c-.462-.462-.462-1.21 0-1.672.001-.001.002-.002.003-.003.461-.461 1.21-.461 1.671 0l7.536 7.537s-.251-.754-.558-1.677c-.617-1.848.382-3.846 2.231-4.462.001-.001.002-.001.002-.001s1.863 5.591 3.104 9.312c.663 1.989.145 4.182-1.338 5.665 0 .001 0 .001-.001.001-3.133 3.133-8.212 3.133-11.345 0l-.467-.467s-.208-.208-.208-.208l-1.466-1.466s-4.187-4.187-4.187-4.187c-.222-.222-.346-.523-.346-.836 0-.314.124-.614.346-.836.001-.001.002-.002.003-.003.221-.221.522-.346.835-.346.314 0 .614.125.836.346l4.187 4.188.559-.559-5.862-5.861c-.462-.462-.462-1.21 0-1.672.001-.001.002-.002.003-.003.461-.461 1.21-.461 1.671 0l5.304 5.304.558-.558-.558-.558-5.304-5.304c-.461-.461-.461-1.21 0-1.671.001-.001.002-.002.003-.003.462-.462 1.21-.462 1.672 0l5.303 5.303z" fill="#5d1668"/><path d="m10.193 8.188c.325-.6.842-1.091 1.464-1.38.28-.13.579-.219.885-.263.133-.019.169-.019.303-.029.152-.003.151-.003.304 0 .204.015.405.039.604.088.354.086.692.234.997.434.176.116.337.251.488.398l3.885 3.885c.043-.096.044-.095.089-.189.061-.119.061-.118.124-.234.2-.346.427-.673.693-.972.452-.508.998-.931 1.604-1.241.247-.126.502-.231.764-.322l1.911-.637c1.246 3.74 2.493 7.479 3.739 11.218.081.25.153.502.209.759.112.511.171 1.033.175 1.556.005.602-.063 1.205-.201 1.791-.209.882-.577 1.726-1.083 2.478-.457.678-1.028 1.269-1.659 1.786-1.298 1.063-2.859 1.79-4.508 2.099-1.135.212-2.306.227-3.445.042-1.169-.189-2.302-.587-3.332-1.17-.399-.225-.779-.477-1.141-.754l-.065.065-2.553-2.553-1.671-1.671-3.07-3.07c-.103-.108-.201-.218-.29-.339-.185-.25-.333-.527-.438-.819-.105-.295-.167-.604-.183-.916-.018-.365.028-.733.134-1.083.16-.526.458-1.003.853-1.381-.128-.219-.229-.453-.301-.697-.102-.341-.145-.7-.128-1.055.015-.307.074-.611.175-.9.261-.747.803-1.378 1.496-1.753.002-.353.062-.705.178-1.037.282-.807.892-1.48 1.667-1.839.28-.13.579-.219.885-.263.134-.02.168-.02.303-.029.068-.002.105-.003.139-.003z"/><path d="m16.904 15.279-4.746-4.745c-.461-.462-.461-1.21 0-1.672.001-.001.002-.002.003-.003.462-.461 1.21-.461 1.672 0l7.536 7.537s-.251-.754-.559-1.677c-.616-1.848.383-3.846 2.231-4.462.002-.001.002-.001.002-.001s1.864 5.591 3.104 9.312c.663 1.989.145 4.182-1.337 5.665-.001.001-.001.001-.001.001-3.133 3.133-8.212 3.133-11.345 0l-.467-.467s-.188-.188-.188-.188l-1.486-1.486s-4.188-4.187-4.188-4.187c-.221-.222-.346-.523-.346-.836 0-.314.125-.614.346-.836.001-.001.002-.002.003-.003.222-.221.522-.346.836-.346.313 0 .614.125.836.346l4.187 4.188.558-.559-5.862-5.861c-.461-.462-.461-1.21 0-1.672.001-.001.002-.002.003-.003.462-.461 1.21-.461 1.672 0l5.303 5.304.558-.558-.558-.558-5.303-5.304c-.462-.461-.462-1.21 0-1.671.001-.001.002-.002.003-.003.461-.462 1.21-.462 1.671 0l5.304 5.303z" fill="#7d2982"/><g clip-path="url(#b)"><path d="m19.132 12.325c.182.01.346.077.484.198 1.154 1.107 2.286 2.239 3.393 3.393.077.087.135.186.168.298.026.091.035.186.026.28-.008.094-.035.186-.078.27-.161.317-.536.479-.878.38-.112-.033-.298-.168-.298-.168l-3.393-3.393s-.125-.168-.159-.269c-.113-.337.033-.718.343-.892.102-.058.213-.087.329-.096.031-.001.031-.001.063-.001z" fill="#5d1668" fill-rule="nonzero"/></g><path d="m9.884 25.954c.103.004.204.021.302.055.276.097.5.315.604.588.04.105.06.215.065.328.01.695.028 1.39-.001 2.084-.01.141-.045.277-.11.403-.06.116-.143.221-.243.305-.093.079-.2.14-.315.18-.359.126-.769.032-1.038-.237-.072-.073-.134-.156-.181-.248-.069-.134-.105-.28-.111-.431-.01-.694-.028-1.39.001-2.084.007-.103.027-.204.064-.3.094-.247.286-.449.526-.557.095-.042.194-.068.297-.081.046-.004.093-.006.14-.005zm-3-2c.141.005.278.037.405.098.343.165.566.521.566.901 0 .103-.015.206-.047.304-.046.144-.124.272-.226.383-.677.696-1.345 1.402-2.06 2.059-.107.092-.228.164-.363.207-.125.04-.257.055-.388.044-.121-.011-.24-.043-.349-.096-.343-.165-.567-.521-.567-.901 0-.103.016-.206.048-.304.046-.143.124-.272.226-.383.677-.696 1.345-1.402 2.06-2.059.18-.156.4-.243.638-.253.029-.001.029-.001.057 0zm-2-3c.141.005.278.037.405.098.118.057.225.137.312.235.081.09.145.196.189.31.139.364.049.787-.227 1.063-.073.073-.157.134-.249.182-.134.069-.28.104-.43.111-.695.009-1.391.028-2.085-.001-.14-.01-.277-.045-.402-.11-.117-.061-.221-.144-.306-.244-.078-.093-.139-.2-.179-.315-.126-.358-.032-.768.236-1.037.073-.073.157-.134.249-.181.134-.07.28-.105.43-.111.686-.01 1.371-.01 2.057 0zm24-12c.141.005.278.037.405.098.118.057.225.137.312.235.081.09.145.196.189.31.139.364.049.787-.227 1.063-.073.073-.157.134-.249.182-.134.069-.28.104-.43.111-.695.009-1.391.028-2.085-.001-.14-.01-.277-.045-.402-.11-.117-.061-.221-.144-.306-.244-.078-.093-.139-.2-.179-.315-.126-.358-.032-.768.236-1.037.073-.073.157-.134.249-.181.134-.07.28-.105.43-.111.686-.01 1.371-.01 2.057 0zm-2-5c.15.006.296.041.43.111.092.047.176.108.249.181.268.269.362.679.236 1.037-.046.134-.121.253-.217.357-.677.696-1.345 1.402-2.06 2.059-.107.092-.228.164-.363.207-.125.04-.257.055-.388.044-.121-.011-.24-.043-.349-.096-.343-.165-.567-.521-.567-.901 0-.103.016-.206.048-.304.046-.143.124-.272.226-.383.677-.696 1.345-1.402 2.06-2.059.18-.156.4-.243.638-.253.029-.001.029-.001.057 0zm-5-2c.112.004.223.025.328.065.273.104.491.328.587.604.035.098.052.199.056.302.01.695.028 1.39-.001 2.084-.01.141-.045.277-.11.403-.06.116-.143.221-.243.305-.093.079-.2.14-.315.18-.359.126-.769.032-1.038-.237-.072-.073-.134-.156-.181-.248-.069-.134-.105-.28-.111-.431-.01-.694-.028-1.39.001-2.084.007-.103.027-.204.064-.3.094-.247.286-.449.526-.557.095-.042.194-.068.297-.081.046-.004.093-.006.14-.005z" fill="#fff"/></g></svg>