<svg clip-rule="evenodd" fill-rule="evenodd" stroke-linecap="round" stroke-miterlimit="1.5" viewBox="0 0 32 32" xmlns="http://www.w3.org/2000/svg" xmlns:xlink="http://www.w3.org/1999/xlink"><clipPath id="a"><path clip-rule="evenodd" d="m32 0v32h-32v-32z"/></clipPath><clipPath id="b"><path clip-rule="evenodd" d="m2 17.5s0-.488 0-1.238c0-4.735 3.03-8.939 7.521-10.436 3.743-1.247 7.479-2.493 7.479-2.493v2.338c0 2.249-1.257 4.309-3.258 5.336-3.553 1.827-8.742 4.493-8.742 4.493v5z"/></clipPath><clipPath id="c"><path clip-rule="evenodd" d="m22 14v5l-1 1-1 3-1 2-2 2h-5v-13z"/></clipPath><path d="m32 0v32h-32v-32z" fill="none"/><g clip-path="url(#a)"><path d="m10.144 16.502.12.006.119.008.119.012.119.015.119.018.118.021.117.025.116.027 8 2 .116.031.115.034.114.036.113.04.112.043.111.046.109.048.109.052.106.054.106.057.103.06.102.063.101.065.098.069.097.07.095.073.093.076.09.078.089.081.087.083.084.085.082.087.079.09.078.092.074.093.073.096.069.097.067.1.065.101.061.102.059.105.056.106.053.107.051.109.047.11.045.111.041.112.039.114.035.114.033.115.029.117.026.116.023.118.02.118.017.119.014.119.011.119.007.12.004.119.001.12-.002.12-.006.12-.008.119-.012.119-.015.119-.018.119-.021.118-.025.117-.027.116-.031.116-.034.115-.036.114-.04.113-.043.112-.046.111-.048.109-.052.109-.054.106-.057.106-.06.103-.063.102-.065.101-.069.098-.07.097-.073.095-.076.093-.078.09-.081.089-.083.087-.085.084-.087.082-.09.079-.092.078-.093.074-.096.073-.097.069-.1.067-.101.065-.102.061-.105.059-.106.056-.107.053-.109.051-.11.047-.111.045-.112.041-.114.039-.114.035-.115.033-.117.029-.116.026-.118.023-.118.02-.119.017-.119.014-.119.011-.12.007-.119.004-.12.001-.12-.002-.12-.006-.119-.008-.119-.012-.119-.015-.119-.018-.118-.021-.117-.025-.116-.027-8-2-.116-.031-.115-.034-.114-.036-.113-.04-.112-.043-.111-.046-.109-.048-.109-.052-.106-.054-.106-.057-.103-.06-.102-.063-.101-.065-.098-.069-.097-.07-.095-.073-.093-.076-.09-.078-.089-.081-.087-.083-.084-.085-.082-.087-.079-.09-.078-.092-.074-.093-.073-.096-.069-.097-.067-.1-.065-.101-.061-.102-.059-.105-.056-.106-.053-.107-.051-.109-.047-.11-.045-.111-.041-.112-.039-.114-.035-.114-.033-.115-.029-.117-.026-.116-.023-.118-.02-.118-.017-.119-.014-.119-.011-.119-.007-.12-.004-.119-.001-.12.002-.12.006-.12.008-.119.012-.119.015-.119.018-.119.021-.118.025-.117.027-.116.031-.116.034-.115.036-.114.04-.113.043-.112.046-.111.048-.109.052-.109.054-.106.057-.106.06-.103.063-.102.065-.101.069-.098.07-.097.073-.095.076-.093.078-.09.081-.089.083-.087.085-.084.087-.082.09-.079.092-.078.093-.074.096-.073.097-.069.1-.067.101-.065.102-.061.105-.059.106-.056.107-.053.109-.051.11-.047.111-.045.112-.041.114-.039.114-.035.115-.033.117-.029.116-.026.118-.023.118-.02.119-.017.119-.014.119-.011.12-.007.119-.004.12-.001.12.002z"/><path d="m27.681 8.004.181.011.18.018.18.025.178.033.177.04.175.047.173.054.171.06.168.068.165.074.162.081.159.088.155.094.151.1.147.106.143.111.138.118.133.123.128.128.123.133.118.138.111.143.106.147.1.151.094.155.088.159.081.162.074.165.068.168.06.171.054.173.047.175.04.177.033.178.025.18.018.18.011.181.004.181-.004.181-.011.181-.018.18-.025.18-.033.178-.04.177-.047.175-.054.173-.06.171-.068.168-.074.165-.081.162-.088.159-.094.155-.1.151-.106.147-.111.143-.118.138-.123.133-.128.128-.133.123-.138.118-.143.111-.147.106-.151.1-.155.094-.159.088-.162.081-.165.074-.168.068-.171.06-.173.054-.175.047-.177.04-.178.033-.18.025-.18.018-.181.011-.181.004h-18.5l-.181-.004-.181-.011-.18-.018-.18-.025-.178-.033-.177-.04-.175-.047-.173-.054-.171-.06-.168-.068-.165-.074-.162-.081-.159-.088-.155-.094-.151-.1-.147-.106-.143-.111-.138-.118-.133-.123-.128-.128-.123-.133-.118-.138-.111-.143-.106-.147-.1-.151-.094-.155-.088-.159-.081-.162-.074-.165-.068-.168-.06-.171-.054-.173-.047-.175-.04-.177-.033-.178-.025-.18-.018-.18-.011-.181-.004-.181.004-.181.011-.181.018-.18.025-.18.033-.178.04-.177.047-.175.054-.173.06-.171.068-.168.074-.165.081-.162.088-.159.094-.155.1-.151.106-.147.111-.143.118-.138.123-.133.128-.128.133-.123.138-.118.143-.111.147-.106.151-.1.155-.094.159-.088.162-.081.165-.074.168-.068.171-.06.173-.054.175-.047.177-.04.178-.033.18-.025.18-.018.181-.011.181-.004h18.5z"/><path d="m4.575 12.501.137.004.137.008.137.013.136.017.136.021.135.025.134.029.133.033.132.037.131.042.13.045.128.049.126.053.125.057.123.061.121.064.12.068.117.072.115.075.112.079.11.082.107.085.105.089.102.092.099.095.097.098.093.1.09.104.087.106.084.109.08.111.077.114.073.116.07.118.066.12.062.123.059.124.055.125.051.128.047.129.043.13.039.132.035.132.031.134.027.135.023.135.019.136.014.136.011.137.006.137.002.138-.001 1.018.001.047v.033l.001.035.001.034.002.032.002.034.002.035.003.033.003.032.003.034.004.032.004.034.004.033.005.032.005.033.005.032.006.033.006.032.006.031.007.032.007.032.007.032.007.03.008.031.009.035.009.03.008.03.01.032.009.029.01.031.01.031.01.03.011.032.011.03.011.029.012.031.013.03.011.029.013.029.014.031.013.029.013.029.013.028.015.03.014.029.014.027.016.029.015.028.015.028.017.03.016.027.016.028.017.028.016.025.017.027.019.029.017.026.018.027.018.026.019.027.02.026.018.025.02.026.019.025.019.024.021.027.021.025.021.024.02.024.02.024.023.025.022.024.021.022.023.025.022.022.022.023.023.023.023.022.023.022.024.022.024.022.024.021.024.021.025.022.024.02.025.021.025.02.025.02.025.019.026.02.026.019.025.018.027.019.027.019.026.018.027.018.027.017.027.017.027.017.028.017.029.017.027.016.028.016.029.015.029.016.029.015.028.015.029.014.029.014.03.014.03.014.03.013.03.013.03.013.03.012.031.013.032.012.03.011.031.011.032.011.032.011.032.011.032.009.032.01.032.01.033.009.034.009.045.011 4.696 1.174.133.036.132.039.13.043.129.048.127.051.126.055.124.059.122.062.12.067.118.07.116.073.114.077.111.081.108.083.107.087.103.091.101.093.097.096.095.1.092.102.088.105.085.107.082.111.079.112.075.115.071.117.068.12.064.121.061.123.057.125.052.127.049.128.046.129.041.131.037.133.033.133.029.134.025.135.02.136.017.136.012.137.008.137.005.137-.001.137-.004.137-.008.137-.013.137-.017.136-.021.136-.025.135-.029.134-.034.133-.037.132-.041.131-.046.129-.049.128-.053.127-.057.125-.061.123-.064.121-.068.119-.072.117-.075.115-.079.112-.082.11-.086.108-.088.105-.092.102-.095.099-.098.096-.101.093-.103.09-.106.087-.109.084-.112.08-.113.077-.116.073-.119.07-.12.066-.122.062-.124.059-.126.055-.128.05-.129.048-.13.043-.131.039-.133.035-.134.031-.134.027-.136.022-.136.019-.136.015-.137.01-.137.006-.137.002-.138-.002-.137-.007-.137-.01-.136-.015-.136-.019-.135-.023-.135-.027-.133-.031-4.721-1.181-.114-.029-.125-.033-.125-.035-.125-.036-.123-.037-.124-.039-.123-.04-.121-.041-.121-.042-.121-.043-.121-.045-.119-.046-.119-.047-.118-.049-.118-.049-.117-.051-.116-.052-.116-.053-.115-.054-.113-.055-.114-.056-.114-.059-.112-.058-.11-.059-.111-.061-.11-.062-.109-.064-.108-.063-.107-.065-.107-.066-.106-.068-.106-.069-.104-.069-.104-.07-.102-.071-.101-.072-.102-.074-.1-.074-.099-.075-.099-.077-.098-.077-.097-.078-.096-.079-.095-.08-.094-.081-.093-.082-.093-.083-.091-.083-.091-.085-.089-.085-.09-.087-.087-.086-.088-.089-.086-.089-.084-.089-.085-.091-.084-.092-.081-.091-.082-.093-.081-.095-.08-.095-.077-.095-.077-.095-.078-.098-.075-.098-.074-.098-.075-.101-.072-.099-.071-.1-.07-.102-.07-.103-.069-.103-.066-.102-.066-.104-.067-.108-.064-.105-.063-.106-.062-.108-.061-.107-.06-.108-.059-.109-.057-.11-.058-.112-.055-.11-.054-.111-.054-.113-.052-.114-.052-.114-.049-.112-.049-.115-.048-.116-.046-.116-.045-.115-.045-.118-.043-.118-.042-.117-.04-.119-.04-.119-.038-.119-.037-.121-.036-.12-.035-.122-.033-.123-.032-.119-.031-.122-.03-.125-.028-.123-.027-.124-.026-.123-.025-.126-.023-.126-.022-.124-.021-.126-.019-.126-.019-.126-.016-.127-.016-.127-.014-.128-.013-.127-.011-.129-.011-.128-.008-.127-.008-.129-.006-.131-.005-.129-.003-.129-.002-.13-.001-.118.001-1.043.002-.137.006-.137.011-.137.015-.136.019-.136.023-.135.027-.135.031-.134.035-.132.039-.132.044-.13.047-.129.051-.127.055-.126.059-.124.062-.122.067-.12.07-.119.073-.115.077-.114.08-.111.084-.109.087-.106.09-.104.094-.1.096-.098.099-.095.103-.091.104-.089.108-.085.11-.082.113-.079.115-.075.117-.071.119-.068.121-.065.123-.06.125-.057.127-.053.128-.049.13-.045.131-.041.132-.037.133-.033.134-.029.135-.025.136-.021.136-.017.137-.012.137-.008.137-.005.137.001z"/><path d="m2 17.5s0-.488 0-1.238c0-4.735 3.03-8.939 7.521-10.436 3.743-1.247 7.479-2.493 7.479-2.493v2.338c0 2.249-1.257 4.309-3.258 5.336-3.553 1.827-8.742 4.493-8.742 4.493v5z"/><path d="m19 1.077v4.602l-.001.132-.004.14-.006.139-.008.139-.011.139-.014.138-.015.138-.018.137-.02.136-.023.136-.025.136-.027.135-.03.133-.031.133-.035.133-.036.132-.038.131-.041.13-.042.129-.045.129-.047.127-.049.127-.052.126-.053.125-.056.124-.057.122-.06.122-.061.12-.064.12-.066.119-.067.117-.069.116-.072.115-.074.114-.075.112-.077.111-.079.11-.081.109-.083.107-.085.106-.087.104-.088.104-.09.101-.092.1-.094.099-.095.097-.097.096-.1.094-.1.092-.103.091-.104.089-.105.088-.108.085-.109.085-.11.082-.112.08-.114.079-.115.077-.117.075-.119.073-.119.071-.121.069-.123.067-.117.061-7.664 3.939v6.198l-1.704.706-5.296-5.297v-2.071l.001-.126.002-.131.003-.13.004-.13.006-.131.007-.13.009-.128.009-.129.011-.13.013-.128.013-.129.015-.128.016-.127.017-.127.018-.128.02-.127.021-.126.022-.126.024-.126.024-.125.026-.125.027-.125.028-.124.029-.123.031-.123.032-.124.033-.122.034-.123.035-.121.036-.121.038-.121.039-.12.039-.12.041-.12.043-.119.043-.118.044-.118.046-.117.046-.117.048-.116.048-.116.05-.115.051-.115.052-.114.053-.114.055-.113.055-.113.056-.111.057-.112.059-.111.059-.11.061-.109.061-.109.063-.108.063-.108.065-.107.066-.107.066-.105.068-.105.069-.105.069-.103.071-.104.071-.102.073-.101.073-.102.075-.1.075-.099.077-.099.077-.098.078-.098.08-.096.08-.096.081-.095.082-.095.083-.093.084-.093.085-.092.085-.091.087-.091.087-.089.089-.089.089-.088.09-.087.091-.087.092-.085.093-.085.093-.084.095-.082.095-.082.096-.081.097-.081.098-.079.098-.078.1-.078.1-.077.101-.075.102-.075.103-.074.104-.073.104-.072.105-.071.106-.07.106-.068.108-.068.108-.068.109-.065.109-.065.111-.065.111-.063.112-.061.112-.061.114-.06.114-.059.114-.057.116-.057.116-.056.117-.054.117-.053.118-.053.119-.051.12-.05.12-.049.121-.048.121-.046.122-.046.123-.044.123-.043.119-.041 9.624-3.208.492.355zm-8.841 6.645-.091.031-.086.03-.085.03-.084.032-.085.032-.084.034-.083.033-.083.035-.082.035-.082.037-.081.037-.081.037-.08.039-.08.039-.079.04-.079.041-.078.041-.078.042-.078.043-.077.043-.076.044-.076.045-.075.046-.075.046-.074.047-.074.048-.073.049-.073.048-.072.05-.071.051-.071.051-.071.051-.07.053-.069.053-.069.053-.068.055-.068.055-.067.055-.066.056-.067.057-.065.057-.065.058-.064.059-.063.059-.063.06-.063.06-.062.061-.061.062-.06.062-.06.062-.06.064-.059.063-.057.064-.058.065-.057.066-.056.066-.056.066-.055.067-.054.067-.053.068-.053.069-.053.069-.051.07-.051.069-.05.071-.05.071-.049.071-.048.072-.048.072-.046.073-.047.074-.045.073-.045.074-.044.075-.043.075-.043.075-.042.076-.041.077-.04.076-.04.077-.039.078-.038.078-.038.078-.037.079-.036.079-.035.079-.034.08-.034.08-.033.081-.032.08-.032.082-.031.081-.03.082-.029.082-.028.083-.027.083-.027.083-.001.002 8.404-4.319.07-.036.061-.034.061-.034.06-.036.059-.037.058-.037.058-.039.057-.039.056-.04.055-.041.054-.042.054-.043.053-.044.052-.044.051-.046.05-.045.049-.047.049-.048.048-.049.047-.049.046-.05.045-.051.044-.052.043-.052.043-.053.041-.053.041-.055.039-.055.039-.056.038-.056.036-.057.036-.057.035-.058.034-.059.033-.059.031-.06.031-.06.03-.061.029-.062.028-.062.026-.062.026-.063.024-.063.024-.064.022-.064.022-.065.02-.065.019-.065.018-.066.017-.066.016-.067.015-.067.013-.067.013-.067.011-.068.01-.069.009-.068.005-.041z"/><path d="m27.5 10c.663 0 1.299.263 1.768.732s.732 1.105.732 1.768-.263 1.299-.732 1.768-1.105.732-1.768.732c-4.945 0-15.5 0-15.5 0v-5z" stroke="#000" stroke-width="2"/><path d="m20.13 13.502.129.005.13.01.129.013.128.017.128.02.128.024.126.028.126.032.125.035.124.038.123.042.121.046.12.049.118.053.117.056.116.059.113.063.112.066.11.069.107.072.106.076.103.078.101.081.099.084.096.087.094.09.091.093.088.094.086.098.083.1.079.102.077.105.074.106.071.109.067.111.065.112.061.115.057.116.055.118.051.119.047.121.044.122.041.123.036.124.034.126.029.126.026.127.023.128.018.128.015.129.011.129.008.13.004.129v.13l-.004.129-.008.13-.011.129-.015.129-.018.128-.023.128-.026.127-.029.126-.034.126-.036.124-.041.123-.044.122-.047.121-.051.119-.055.118-.057.116-.061.115-.065.112-.067.111-.071.109-.074.106-.077.105-.079.102-.083.1-.086.098-.088.094-.091.093-.094.09-.096.086-.099.085-.101.081-.103.078-.106.076-.107.072-.11.069-.112.066-.113.063-.116.059-.117.056-.118.053-.12.049-.121.046-.123.042-.124.038-.125.035-.126.032-.126.028-.128.024-.128.02-.128.017-.129.013-.13.01-.129.005-.13.002h-9.496l-.13-.002-.129-.005-.13-.01-.129-.013-.128-.017-.128-.02-.128-.024-.126-.028-.126-.032-.125-.035-.124-.038-.123-.042-.121-.046-.12-.049-.118-.053-.117-.056-.116-.059-.113-.063-.112-.066-.11-.069-.107-.072-.106-.076-.103-.078-.101-.081-.099-.085-.096-.086-.094-.09-.091-.093-.088-.094-.086-.098-.083-.1-.08-.102-.076-.105-.074-.106-.071-.109-.067-.111-.065-.112-.061-.115-.057-.116-.055-.118-.051-.119-.047-.121-.044-.122-.041-.123-.036-.124-.034-.126-.029-.126-.026-.127-.023-.128-.018-.128-.015-.129-.011-.129-.008-.13-.004-.129v-.13l.004-.129.008-.13.011-.129.015-.129.018-.128.023-.128.026-.127.029-.126.034-.126.036-.124.041-.123.044-.122.047-.121.051-.119.055-.118.057-.116.061-.115.065-.112.067-.111.071-.109.074-.106.076-.105.08-.102.083-.1.086-.098.088-.094.091-.093.094-.09.096-.087.099-.084.101-.081.103-.078.106-.076.107-.072.11-.069.112-.066.113-.063.116-.059.117-.056.118-.053.12-.049.121-.046.123-.042.124-.038.125-.035.126-.032.126-.028.128-.024.128-.02.128-.017.129-.013.13-.01.129-.005.13-.002h9.496z"/><path d="m22 14v5l-1 1-1 3-1 2-2 2h-5v-13z" fill="#107286"/><g fill="#85e9e4"><path d="m10.077 18.501.089.005.089.007.089.011.088.014.087.017.087.02 8 2 .087.023.085.026.084.029.083.033.082.035.081.038.079.041.078.044.076.046.075.049.072.052.071.055.069.057.067.059.064.062.062.063.06.067.058.068.055.07.053.072.049.074.048.076.044.077.042.079.039.08.036.082.033.083.03.084.027.085.024.086.021.087.018.087.015.088.011.089.009.088.005.089.002.09-.001.089-.005.089-.007.089-.011.089-.014.088-.017.087-.02.087-.023.087-.026.085-.029.084-.033.083-.035.082-.038.081-.041.079-.044.078-.046.076-.049.075-.052.072-.055.071-.057.069-.059.067-.062.064-.063.062-.067.06-.068.058-.07.055-.072.053-.074.049-.076.048-.077.044-.079.042-.08.039-.082.036-.083.033-.084.03-.085.027-.086.024-.087.021-.087.018-.088.015-.089.011-.088.009-.089.005-.09.002-.089-.001-.089-.005-.089-.007-.089-.011-.088-.014-.087-.017-.087-.02-8-2-.087-.023-.085-.026-.084-.029-.083-.033-.082-.035-.081-.038-.079-.041-.078-.044-.076-.046-.075-.049-.072-.052-.071-.055-.069-.057-.067-.059-.064-.062-.062-.063-.06-.067-.058-.068-.055-.07-.053-.072-.049-.074-.048-.076-.044-.077-.042-.079-.039-.08-.036-.082-.033-.083-.03-.084-.027-.085-.024-.086-.021-.087-.018-.087-.015-.088-.011-.089-.009-.088-.005-.089-.002-.09.001-.089.005-.089.007-.089.011-.089.014-.088.017-.087.02-.087.023-.087.026-.085.029-.084.033-.083.035-.082.038-.081.041-.079.044-.078.046-.076.049-.075.052-.072.055-.071.057-.069.059-.067.062-.064.063-.062.067-.06.068-.058.07-.055.072-.053.074-.049.076-.048.077-.044.079-.042.08-.039.082-.036.083-.033.084-.03.085-.027.086-.024.087-.021.087-.018.088-.015.089-.011.088-.009.089-.005.09-.002.089.001z"/><path d="m20.097 15.502.097.006.096.009.096.013.096.017.095.02.093.025.093.027.092.032.091.035.089.038.087.042.086.045.084.049.082.051.08.055.078.058.075.061.073.064.071.066.067.069.066.072.062.074.059.077.057.079.053.081.05.083.047.085.043.087.041.088.036.09.033.091.03.092.026.093.022.095.019.095.015.096.011.096.008.097.004.097v.096l-.004.097-.008.097-.011.096-.015.096-.019.095-.022.095-.026.093-.03.092-.033.091-.036.09-.041.088-.043.087-.047.085-.05.083-.053.081-.057.079-.059.077-.062.074-.066.072-.067.069-.071.066-.073.064-.075.061-.078.058-.08.055-.082.051-.084.049-.086.045-.087.042-.089.038-.091.035-.092.032-.093.027-.093.025-.095.02-.096.017-.096.013-.096.009-.097.006-.097.002h-9.496l-.097-.002-.097-.006-.096-.009-.096-.013-.096-.017-.095-.02-.093-.025-.093-.027-.092-.032-.091-.035-.089-.038-.087-.042-.086-.045-.084-.049-.082-.051-.08-.055-.078-.058-.075-.061-.073-.064-.071-.066-.067-.069-.066-.072-.062-.074-.059-.077-.057-.079-.053-.081-.05-.083-.047-.085-.043-.087-.041-.088-.036-.09-.033-.091-.03-.092-.026-.093-.022-.095-.019-.095-.015-.096-.011-.096-.008-.097-.004-.097v-.096l.004-.097.008-.097.011-.096.015-.096.019-.095.022-.095.026-.093.03-.092.033-.091.036-.09.041-.088.043-.087.047-.085.05-.083.053-.081.057-.079.059-.077.062-.074.066-.072.067-.069.071-.066.073-.064.075-.061.078-.058.08-.055.082-.051.084-.049.086-.045.087-.042.089-.038.091-.035.092-.032.093-.027.093-.025.095-.02.096-.017.096-.013.096-.009.097-.006.097-.002h9.496z"/><path d="m2 17.5s0-.488 0-1.238c0-4.735 3.03-8.939 7.521-10.436 3.743-1.247 7.479-2.493 7.479-2.493v2.338c0 2.249-1.257 4.309-3.258 5.336-3.553 1.827-8.742 4.493-8.742 4.493v5z"/></g><g clip-path="url(#b)"><path d="m18 10v-2s-3.84 0-5.71 0c-.552 0-1 .448-1 1s.448 1 1 1z" fill="#55bdd2"/></g><path d="m4.657 14.505.102.008.101.012.1.017.1.021.099.024.098.029.097.033.095.036.093.041.092.044.09.048.088.052.086.055.084.058.081.062.078.066.076.068.073.071.07.075.066.077.064.079.06.083.057.084.053.087.05.089.046.091.043.093.038.094.035.096.031.098.026.098.023.1.019.1.014.101.011.101.006.102.002.102v1.028.063l.001.055.002.056.002.055.002.054.004.055.003.055.005.054.004.054.006.054.006.054.007.054.007.054.007.053.009.054.008.053.01.052.01.053.01.052.011.053.011.052.012.053.013.051.013.052.014.052.013.05.015.051.015.052.016.049.016.052.017.05.017.05.018.05.018.049.019.05.019.048.02.05.02.049.02.048.022.048.021.048.022.048.023.048.023.046.023.048.024.046.025.047.025.046.025.046.026.046.026.045.027.045.028.045.027.045.029.044.028.044.029.043.03.044.029.043.031.043.031.043.031.042.031.041.033.042.032.041.032.04.034.041.034.041.034.04.034.039.035.039.036.039.036.038.036.038.036.038.037.037.037.037.038.036.038.037.039.036.038.035.039.035.04.035.04.034.04.034.041.033.041.034.041.032.041.032.042.032.043.032.043.031.042.03.044.03.044.03.044.029.044.029.045.028.045.028.045.028.045.026.047.027.046.026.047.026.047.025.047.025.047.024.048.024.049.024.048.022.048.023.049.021.05.022.05.021.05.02.05.02.051.02.05.018.052.019.051.018.052.017.052.017.052.017.053.016.053.015.053.015.053.014.06.015 4.7 1.176.098.027.098.031.096.035.094.038.093.043.091.046.089.05.087.053.084.057.082.06.08.064.077.067.074.07.072.073.068.075.065.079.062.081.059.083.055.086.051.088.048.09.045.092.04.094.037.095.032.096.029.098.025.099.02.1.017.101.012.101.008.102.005.102v.102l-.005.102-.008.101-.013.101-.016.101-.021.1-.025.099-.028.098-.033.096-.037.095-.04.094-.045.092-.048.09-.051.088-.055.086-.059.083-.062.081-.065.079-.069.075-.071.073-.074.07-.077.067-.08.063-.083.06-.084.057-.087.054-.089.049-.091.046-.093.043-.094.038-.096.035-.098.031-.098.026-.099.023-.101.019-.101.014-.101.01-.102.007-.102.002-.102-.003-.102-.006-.101-.01-.101-.015-.1-.018-.1-.023-4.712-1.179-.099-.026-.105-.028-.104-.029-.104-.03-.103-.031-.103-.032-.103-.034-.102-.034-.101-.035-.1-.036-.101-.038-.1-.038-.099-.04-.099-.04-.098-.041-.097-.043-.097-.043-.097-.044-.096-.046-.095-.046-.094-.046-.095-.049-.094-.049-.092-.05-.092-.05-.092-.052-.09-.052-.091-.054-.09-.055-.089-.055-.088-.056-.088-.057-.087-.057-.087-.059-.085-.059-.085-.061-.085-.061-.083-.062-.083-.063-.082-.063-.082-.065-.081-.065-.08-.066-.08-.067-.078-.068-.078-.068-.077-.069-.077-.07-.075-.07-.075-.072-.075-.072-.073-.072-.073-.074-.072-.075-.071-.075-.07-.075-.069-.076-.069-.077-.069-.078-.067-.079-.066-.078-.065-.079-.065-.082-.064-.081-.063-.081-.062-.082-.062-.084-.06-.083-.06-.084-.059-.085-.058-.085-.057-.086-.057-.087-.055-.087-.054-.088-.054-.088-.053-.089-.052-.089-.051-.091-.05-.09-.049-.092-.048-.091-.048-.092-.046-.093-.046-.093-.044-.094-.044-.094-.043-.095-.041-.095-.041-.096-.04-.096-.039-.096-.038-.098-.037-.097-.036-.099-.035-.098-.034-.099-.033-.1-.031-.099-.031-.101-.03-.1-.029-.1-.028-.103-.027-.101-.026-.103-.025-.102-.023-.103-.023-.103-.022-.103-.02-.105-.02-.104-.018-.105-.018-.105-.016-.105-.015-.105-.014-.106-.013-.106-.012-.106-.011-.107-.01-.107-.008-.108-.007-.106-.007-.108-.005-.109-.004-.108-.003-.107-.001-.108-.001-.103v-1.042l.002-.102.006-.102.011-.101.014-.101.019-.1.022-.1.027-.098.031-.098.035-.096.038-.094.043-.093.046-.091.049-.089.054-.087.057-.084.06-.083.064-.079.066-.077.07-.075.073-.071.076-.068.078-.066.081-.062.084-.058.086-.055.088-.052.09-.048.091-.044.094-.041.095-.036.097-.033.098-.029.099-.024.1-.021.1-.017.101-.012.102-.008.102-.004h.102l.102.004z" fill="#85e9e4"/><path d="m19 22v-11h-11l-3 2 2 9z" fill="#85e9e4"/><path d="m27.5 10c1.381 0 2.5 1.119 2.5 2.5s-1.119 2.5-2.5 2.5c-5.567 0-18.5 0-18.5 0v-5z" fill="#85e9e4"/><path d="m22 14v5l-1 1-1 3-1 2-2 2h-5v-13z" fill="none"/><g clip-path="url(#c)" fill="none" stroke="#107286"><path d="m27 15.5h-9.5"/><path d="m16 20 5 1.125"/><path d="m14 25 5 1.25"/></g></g></svg>