<svg clip-rule="evenodd" fill-rule="evenodd" stroke-linejoin="round" stroke-miterlimit="1.41421" viewBox="0 0 32 32" xmlns="http://www.w3.org/2000/svg" xmlns:xlink="http://www.w3.org/1999/xlink"><clipPath id="a"><path clip-rule="evenodd" d="m29 16.243c0-.796-.316-1.559-.879-2.122-.885-.885-2.121-2.121-2.121-2.121h-9v14h12s0-6.879 0-9.757z"/></clipPath><path d="m0 0h32v32h-32z" fill="none"/><path d="m22.102 8.001.102.004.102.006.101.009.1.012.1.014.099.016.098.019.098.021.096.024.096.026.095.028.093.03.093.033.092.035.091.037.089.039.088.041.087.044.086.045.085.047.082.049.083.051.08.053.079.055.078.057.076.058.074.06.074.062.071.064.07.065.069.066.066.069.066.07.063.072.062.073.06.074.059.077.056.077.055.079.053.081.051.082.049.083.047.084.046.086.043.087.041.088.039.089.037.091.035.092.032.092.031.094.028.095.026.096.024.096.021.098.019.098.016.099.014.1.012.1.009.101.006.102.004.102.001.09v10.024l-.001.09-.004.102-.006.102-.009.101-.012.1-.014.1-.016.099-.019.098-.021.098-.024.096-.026.096-.028.095-.031.094-.032.092-.035.092-.037.091-.039.089-.041.088-.044.087-.045.086-.047.084-.049.083-.051.082-.053.081-.055.079-.056.077-.059.077-.06.074-.062.073-.063.072-.066.07-.066.069-.069.066-.07.066-.071.063-.074.062-.074.06-.077.059-.077.056-.079.055-.08.053-.083.051-.082.049-.085.047-.086.045-.087.044-.088.041-.089.039-.091.037-.092.035-.093.033-.094.03-.094.028-.096.026-.096.024-.098.021-.098.019-.099.016-.1.014-.1.012-.101.009-.102.006-.102.004-.102.001-.102-.001-.102-.004-.102-.006-.101-.009-.1-.012-.1-.014-.099-.016-.098-.019-.097-.021-.097-.024-.096-.026-.095-.028-.093-.03-.093-.033-.092-.035-.091-.037-.089-.039-.088-.041-.087-.044-.086-.045-.085-.047-.082-.049-.082-.051-.081-.053-.079-.055-.077-.056-.077-.059-.074-.06-.073-.062-.072-.063-.07-.066-.069-.066-.067-.069-.065-.07-.063-.071-.062-.074-.06-.074-.058-.076-.057-.078-.055-.079-.053-.081-.051-.082-.049-.082-.047-.085-.045-.086-.044-.087-.041-.088-.039-.089-.037-.091-.035-.092-.033-.093-.03-.093-.028-.095-.026-.096-.024-.096-.021-.098-.019-.098-.016-.1-.014-.099-.012-.1-.009-.101-.006-.102-.004-.102-.001-.089v-10.026l.001-.089.004-.102.006-.102.009-.101.012-.1.014-.099.016-.1.019-.098.021-.098.024-.096.026-.096.028-.095.03-.093.033-.093.035-.092.037-.091.039-.089.041-.088.043-.087.046-.086.047-.085.049-.082.051-.082.053-.081.055-.079.057-.078.058-.076.06-.074.062-.073.063-.072.066-.07.066-.069.069-.066.07-.065.072-.064.073-.062.074-.06.076-.058.078-.057.079-.055.081-.053.082-.051.082-.049.085-.047.086-.045.087-.044.088-.041.089-.039.091-.037.092-.035.093-.033.093-.03.095-.028.096-.026.097-.024.097-.021.098-.019.099-.016.1-.014.1-.012.101-.009.102-.006.102-.004.102-.001.102.001z"/><path d="m24 26h-13.012l-.116-.001-.128-.005-.127-.008-.126-.012-.125-.014-.125-.017-.124-.021-.122-.023-.122-.027-.121-.029-.12-.033-.118-.035-.118-.038-.115-.041-.115-.043-.113-.047-.112-.049-.11-.051-.108-.054-.108-.057-.105-.059-.104-.061-.103-.064-.1-.066-.099-.068-.097-.071-.095-.073-.093-.075-.092-.078-.089-.079-.088-.082-.086-.083-.083-.086-.082-.088-.079-.089-.078-.092-.075-.093-.073-.095-.071-.097-.068-.099-.066-.1-.064-.103-.061-.104-.059-.105-.057-.108-.054-.108-.051-.11-.049-.112-.047-.113-.043-.115-.041-.116-.038-.117-.035-.118-.033-.12-.029-.12-.027-.122-.023-.123-.021-.124-.017-.125-.014-.125-.012-.126-.008-.127-.005-.128-.001-.115v-11.013h18zm-14-12v6.987l.001.04v.026l.002.026.002.026.003.025.004.025.004.024.005.025.005.023.006.025.006.023.007.023.007.023.008.023.009.022.009.023.009.021.011.023.01.021.012.021.011.021.013.021.012.02.014.021.014.02.014.019.014.019.016.019.015.019.017.018.016.018.017.017.017.017.018.016.018.017.019.015.019.015.019.015.019.014.02.014.021.014.02.012.021.013.021.011.021.012.022.01.021.011.022.009.023.009.022.009.023.008.023.007.023.007.024.007.023.005.024.005.025.005.024.004.025.004.025.003.026.002.026.002.026.001h.039 8.988v-8z"/><path d="m10 19.514-.001.1-.004.111-.007.111-.01.11-.012.111-.015.109-.018.109-.02.109-.023.107-.026.107-.028.107-.03.105-.034.105-.035.104-.038.102-.041.102-.043.101-.046.1-.048.099-.051.097-.053.096-.055.095-.058.094-.06.093-.062.091-.064.089-.067.088-.07.087-.071.085-.073.083-.077.082-.077.08-.08.077-.082.076-.083.074-.085.072-.087.069-.088.066-.089.065-.091.062-.093.06-.094.058-.094.055-.097.053-.098.051-.098.048-.1.045-.101.044-.101.04-.103.039-.104.036-.105.033-.105.03-.107.028-.107.026-.107.023-.109.02-.109.018-.109.015-.111.012-.11.01-.111.007-.111.004-.1.001h-.028l-.1-.001-.111-.004-.111-.007-.11-.01-.111-.012-.109-.015-.109-.018-.109-.02-.107-.023-.107-.026-.107-.028-.105-.03-.105-.033-.104-.036-.103-.039-.101-.04-.101-.044-.1-.045-.098-.048-.098-.051-.097-.053-.094-.055-.094-.058-.093-.06-.091-.062-.089-.065-.088-.066-.087-.069-.085-.072-.083-.074-.082-.076-.08-.077-.077-.08-.077-.082-.073-.083-.071-.085-.07-.087-.067-.088-.064-.089-.062-.091-.06-.093-.058-.094-.055-.095-.053-.096-.051-.097-.048-.099-.046-.1-.043-.101-.041-.102-.038-.102-.035-.104-.034-.105-.03-.105-.028-.107-.026-.107-.023-.107-.02-.109-.018-.109-.015-.109-.012-.111-.01-.11-.007-.111-.004-.111-.001-.1v-7.514h9zm-5-3.514v3.49.024l.001.013.001.012.001.013.001.011.002.012.002.012.002.012.002.013.003.011.003.012.004.012.003.011.004.012.005.011.004.012.005.011.005.011.005.011.006.01.006.011.006.011.006.01.007.01.007.01.007.01.007.01.008.009.008.01.008.009.008.009.009.009.009.009.009.008.009.008.009.008.01.008.01.007.01.007.01.007.01.007.01.006.011.006.011.006.01.006.011.005.012.005.01.005.012.004.011.005.012.004.011.003.012.004.012.003.012.003.012.002.011.002.012.002.013.002.011.001.013.001.012.001.013.001h.014.014l.013-.001.012-.001.013-.001.011-.001.013-.002.012-.002.011-.002.012-.002.012-.003.012-.003.012-.004.011-.003.012-.004.011-.005.012-.004.01-.005.012-.005.011-.005.01-.006.011-.006.011-.006.01-.006.01-.007.01-.007.01-.007.01-.007.01-.008.009-.008.009-.008.009-.008.009-.009.009-.009.008-.009.008-.009.008-.01.008-.009.007-.01.007-.01.007-.01.007-.01.006-.01.006-.011.006-.011.006-.01.005-.011.005-.011.005-.011.004-.012.005-.011.004-.012.003-.011.004-.012.003-.012.003-.011.002-.013.002-.012.002-.012.002-.012.001-.011.001-.013.001-.012.001-.013v-.024-3.49h-1z"/><path d="m29.544 12.716.078.08.085.091.081.092.08.095.077.096.074.098.072.099.069.102.067.102.064.104.061.106.059.107.056.109.054.109.05.111.049.112.045.114.042.114.04.115.037.117.034.117.031.118.029.119.025.12.023.12.019.121.017.122.014.123.01.123.008.123.005.123.001.112v8.38l-.003.125-.011.147-.018.147-.026.145-.032.143-.039.142-.046.139-.053.136-.059.134-.066.131-.072.128-.079.124-.084.12-.091.116-.097.113-.085.09-2.449 2.449-.09.085-.113.097-.116.091-.12.084-.124.079-.128.072-.131.066-.134.059-.136.053-.139.046-.142.039-.143.032-.145.026-.147.018-.147.011-.124.003h-10.611v-2.014l.001-.112.005-.124.008-.123.01-.123.014-.122.017-.122.019-.121.023-.12.025-.12.029-.12.031-.117.034-.118.037-.116.04-.115.042-.115.045-.113.048-.112.051-.111.054-.109.056-.108.058-.108.062-.105.064-.104.067-.103.069-.101.072-.1.074-.098.077-.096.079-.094.082-.092.084-.092.087-.088.088-.087.092-.084.092-.082.094-.079.096-.077.098-.074.1-.072.101-.069.103-.067.104-.064.105-.062.108-.058.108-.056.109-.054.111-.051.027-.011v-13.417h8.828zm-7.544 1.284v12h3.172l1.828-1.828v-7.917-.037l-.001-.025-.002-.025-.002-.024-.003-.025-.003-.024-.004-.024-.005-.024-.005-.024-.005-.024-.007-.024-.006-.023-.008-.023-.008-.024-.008-.022-.009-.023-.01-.022-.01-.022-.011-.023-.011-.021-.012-.022-.012-.021-.013-.021-.013-.02-.014-.02-.014-.02-.015-.02-.016-.019-.015-.019-.017-.018-.017-.018-.026-.027-1.526-1.527z"/><path d="m19.116 3.001.115.002.116.004.115.005.114.006.114.008.114.01.114.01.113.013.113.013.112.015.112.017.112.017.111.019.111.021.11.022.109.023.11.024.109.026.108.027.108.029.107.03.107.031.106.032.105.033.105.035.105.036.103.038.104.038.102.04.103.041.101.042.101.043.1.045.099.046.099.047.098.048.098.049.096.05.096.051.096.053.094.054.094.054.093.056.093.057.091.058.091.059.09.06.09.061.088.063.088.063.087.064.086.065.086.067.084.067.084.068.082.069.082.07.082.071.08.072.079.073.079.074.077.075.077.076.076.077.075.077.074.079.073.079.072.08.071.082.07.081.069.083.068.084.068.084.066.086.065.086.064.087.063.088.063.088.061.09.06.09.059.091.058.091.057.093.056.093.054.094.054.094.053.096.051.096.05.096.049.098.048.098.047.099.046.099.045.1.043.101.042.101.041.103.04.102.038.104.038.103.036.105.035.105.033.105.032.107.031.106.03.107.029.108.027.109.026.108.024.11.023.109.022.111.021.11.019.111.017.112.017.112.015.112.013.113.013.113.01.114.01.114.008.114.006.114.005.115.004.116.002.115.001.11v1.018l-.001.087-.004.099-.006.099-.008.098-.011.098-.014.098-.015.097-.018.096-.021.096-.023.095-.024.094-.028.094-.029.093-.032.093-.034.091-.036.091-.039.09-.04.088-.043.088-.045.086-.047.086-.049.085-.052.083-.053.082-.055.081-.058.08-.059.078-.062.077-.063.076-.066.074-.067.073-.07.071-.071.069-.072.067-.074.066-.076.063-.077.062-.078.059-.08.058-.081.055-.082.053-.083.052-.085.049-.085.047-.087.045-.088.043-.088.04-.09.039-.091.036-.091.034-.093.032-.093.029-.093.027-.095.025-.095.023-.096.021-.096.018-.097.015-.098.014-.098.011-.098.008-.099.006-.099.004-.087.001h-19.024l-.087-.001-.099-.004-.099-.006-.098-.008-.098-.011-.097-.014-.098-.015-.096-.018-.096-.021-.095-.023-.095-.025-.093-.027-.093-.029-.093-.032-.091-.034-.091-.036-.09-.039-.088-.04-.088-.043-.086-.045-.086-.047-.085-.049-.083-.052-.082-.053-.081-.055-.08-.058-.078-.059-.077-.062-.076-.063-.074-.066-.073-.067-.071-.069-.069-.071-.067-.073-.066-.074-.063-.076-.062-.077-.059-.078-.058-.08-.055-.081-.053-.082-.052-.083-.049-.085-.047-.086-.045-.086-.043-.088-.04-.089-.039-.089-.036-.091-.034-.091-.032-.093-.029-.093-.027-.093-.025-.095-.023-.095-.021-.096-.018-.096-.015-.097-.014-.098-.011-.098-.008-.098-.006-.099-.004-.099-.001-.086v-1.698l.001-.151.005-.161.008-.159.011-.159.015-.159.017-.158.02-.157.024-.156.026-.155.03-.155.032-.153.036-.153.038-.152.041-.15.045-.15.046-.148.05-.147.053-.146.055-.145.058-.144.061-.142.063-.141.066-.139.069-.138.071-.137.074-.135.076-.134.079-.132.081-.13.084-.129.086-.128.089-.125.091-.124.094-.122.095-.12.098-.119.101-.116.102-.115.105-.113.107-.111.11-.108.111-.107.114-.105.116-.102.117-.101.12-.098.122-.096.124-.094.126-.091.128-.089.13-.087.131-.084.134-.082.136-.08.137-.076.139-.075.141-.071.142-.069.144-.067.146-.063.148-.061.149-.058.15-.056.143-.049.992-.331.144-.046.154-.046.155-.043.156-.04.157-.037.157-.034.158-.03.158-.028.159-.024.159-.021.16-.018.16-.014.161-.012.161-.008.161-.004.151-.002h9.042zm-9.132 3.999-.091.001-.08.002-.081.004-.08.006-.08.007-.08.009-.08.011-.079.012-.079.013-.079.016-.079.017-.078.018-.078.02-.077.022-.077.023-.087.027-.954.319-.086.029-.076.028-.075.029-.074.031-.072.031-.072.034-.072.034-.07.036-.069.037-.069.038-.067.04-.067.041-.066.042-.065.043-.063.044-.063.046-.062.047-.061.048-.06.049-.059.05-.057.051-.057.053-.056.053-.055.054-.053.056-.053.056-.051.058-.05.058-.05.059-.048.061-.046.061-.046.062-.044.063-.044.063-.041.065-.041.065-.04.067-.038.066-.037.068-.036.068-.034.069-.033.07-.032.071-.03.071-.029.071-.027.073-.027.073-.024.073-.024.074-.022.075-.02.075-.02.075-.017.076-.016.077-.015.077-.013.078-.012.078-.01.078-.009.079-.007.079-.006.08-.004.08-.002.081-.001.091v1.652.013h.012 18.976.012v-.012-.982-.071l-.002-.065-.002-.065-.003-.064-.003-.064-.005-.064-.005-.063-.006-.064-.007-.063-.007-.062-.009-.063-.009-.062-.01-.062-.01-.062-.012-.061-.012-.061-.012-.061-.014-.06-.014-.06-.015-.06-.016-.06-.017-.059-.017-.059-.017-.058-.019-.059-.019-.058-.02-.058-.021-.057-.021-.057-.022-.057-.023-.056-.023-.056-.024-.056-.025-.056-.025-.055-.026-.055-.027-.054-.027-.054-.028-.054-.028-.053-.029-.053-.03-.052-.031-.053-.031-.051-.031-.052-.032-.05-.033-.051-.034-.05-.034-.05-.034-.049-.036-.049-.035-.048-.037-.048-.037-.048-.037-.047-.038-.047-.038-.046-.04-.046-.039-.045-.04-.044-.041-.045-.041-.043-.042-.044-.042-.043-.043-.042-.044-.042-.043-.041-.045-.04-.044-.041-.045-.039-.046-.039-.046-.039-.047-.038-.047-.038-.048-.036-.048-.037-.048-.036-.049-.035-.049-.034-.05-.034-.05-.034-.051-.033-.05-.032-.052-.031-.051-.031-.053-.031-.052-.03-.053-.029-.053-.028-.054-.028-.054-.027-.054-.027-.055-.026-.055-.025-.056-.025-.056-.024-.056-.023-.056-.023-.057-.022-.057-.021-.057-.021-.058-.02-.058-.019-.058-.019-.059-.017-.059-.017-.059-.017-.06-.016-.06-.015-.06-.014-.06-.014-.061-.012-.061-.012-.062-.012-.061-.01-.062-.01-.062-.009-.063-.009-.062-.007-.063-.007-.064-.006-.063-.005-.064-.005-.064-.003-.064-.003-.065-.002-.065-.002h-.071-9.01z"/><path d="m17 25c0-.265-.105-.52-.293-.707-.187-.188-.442-.293-.707-.293-1.707 0-5 0-5 0v-4h13v6h-5l-2 2s0-1.815 0-3z" fill="#083139"/><path d="m6 15h14v7h-14z" fill="#083139"/><path d="m26 12h-4v13s-.938 0-2.002 0c-1.656 0-2.998 1.342-2.998 2.998v.002h8.586c.265 0 .519-.105.707-.293l2.414-2.414c.188-.188.293-.442.293-.707 0-1.414 0-6.086 0-8.343 0-.796-.316-1.559-.879-2.122-.885-.885-2.121-2.121-2.121-2.121z" fill="#13595e"/><path d="m29 16.243c0-.796-.316-1.559-.879-2.122-.885-.885-2.121-2.121-2.121-2.121h-9v14h12s0-6.879 0-9.757z" fill="none"/><g clip-path="url(#a)"><path d="m27.5 21.01-.001.106-.005.114-.007.114-.01.114-.013.113-.016.112-.018.112-.021.11-.024.11-.027.108-.029.108-.031.107-.035.105-.036.104-.04.103-.041.102-.044.101-.046.099-.049.098-.051.096-.053.095-.055.093-.058.093-.059.09-.062.089-.064.087-.065.086-.068.084-.07.082-.071.081-.074.079-.075.077-.077.075-.079.074-.081.071-.082.07-.084.068-.086.065-.087.064-.089.062-.091.059-.091.058-.094.055-.095.053-.096.051-.098.049-.099.046-.101.044-.102.041-.103.04-.104.036-.105.035-.107.031-.107.029-.109.027-.11.024-.11.021-.111.018-.113.016-.113.013-.113.01-.115.007-.115.005-.115.001-.115-.001-.115-.005-.115-.007-.113-.01-.113-.013-.113-.016-.111-.018-.11-.021-.11-.024-.109-.027-.107-.029-.107-.031-.105-.035-.104-.036-.103-.04-.102-.041-.101-.044-.099-.046-.098-.049-.096-.051-.095-.053-.094-.055-.091-.058-.091-.059-.089-.062-.087-.064-.086-.065-.084-.068-.082-.07-.081-.071-.079-.074-.077-.075-.075-.077-.074-.079-.071-.081-.07-.082-.068-.084-.065-.086-.064-.087-.062-.089-.059-.091-.058-.092-.055-.093-.053-.095-.051-.096-.049-.098-.046-.099-.044-.101-.041-.102-.04-.103-.036-.104-.035-.105-.031-.107-.029-.108-.027-.108-.024-.11-.021-.11-.018-.111-.016-.113-.013-.113-.01-.113-.007-.115-.005-.115-.001-.106v-10.509h9zm-6-7.51v7.491l.001.049.001.039.003.038.003.038.004.038.005.037.007.037.007.037.007.036.009.036.01.035.01.036.012.034.012.035.013.034.013.033.015.034.015.032.016.033.017.032.018.031.018.032.02.03.019.03.021.03.021.03.022.028.023.029.023.027.024.027.025.027.025.026.026.025.027.025.027.024.027.023.029.023.028.022.03.021.029.021.031.019.03.02.032.018.031.018.032.017.032.016.033.015.034.015.033.013.034.013.035.012.034.012.036.01.035.01.036.008.036.008.037.007.037.007.037.005.038.004.038.003.039.003.039.001.039.001.039-.001.039-.001.039-.003.038-.003.038-.004.037-.005.037-.007.037-.007.036-.008.036-.008.036-.01.035-.01.034-.012.035-.012.034-.013.033-.013.034-.015.033-.015.032-.016.032-.017.031-.018.032-.018.03-.02.031-.019.029-.021.029-.021.029-.022.029-.023.027-.023.027-.024.027-.025.026-.026.025-.025.024-.027.025-.027.023-.028.023-.028.022-.028.021-.03.021-.03.02-.03.019-.03.018-.031.018-.032.017-.032.016-.033.015-.032.015-.033.013-.034.013-.034.012-.035.012-.034.01-.036.01-.035.009-.036.007-.036.007-.037.007-.037.005-.037.004-.038.003-.038.003-.038.001-.04.001-.049v-7.49h-3z" fill="#083139"/></g><g fill="#1b7a76"><path d="m20 12h6v9c0 1.657-1.343 3-3 3s-3-1.343-3-3c0-3.554 0-9 0-9z"/><path d="m14 12h6v9c0 1.657-1.343 3-3 3s-3-1.343-3-3c0-3.554 0-9 0-9z"/><path d="m8 12h6v9c0 1.657-1.343 3-3 3s-3-1.343-3-3c0-3.554 0-9 0-9z"/><path d="m3 12h6v7c0 .796-.316 1.559-.879 2.121-.562.563-1.325.879-2.121.879s-1.559-.316-2.121-.879c-.563-.562-.879-1.325-.879-2.121 0-2.946 0-7 0-7z"/><path d="m3 11.325c0-2.583 1.653-4.876 4.103-5.693.357-.119.689-.229.973-.324.612-.204 1.253-.308 1.898-.308h9.026c3.866 0 7 3.134 7 7v1c0 .53-.211 1.039-.586 1.414s-.884.586-1.414.586c-4.354 0-14.646 0-19 0-.53 0-1.039-.211-1.414-.586s-.586-.884-.586-1.414c0-.516 0-1.091 0-1.675z"/></g><path d="m7 15h1v7h-1z" fill="#083139"/><path d="m13 15h1v8.547h-1z" fill="#083139"/><path d="m20 15h1v9h-1z" fill="#083139"/></svg>