<svg clip-rule="evenodd" fill-rule="evenodd" stroke-linecap="round" stroke-linejoin="round" stroke-miterlimit="2" viewBox="0 0 32 32" xmlns="http://www.w3.org/2000/svg"><g fill="none"><path d="m0 0h32v32h-32z"/><path d="m6 24.5 5 2.5" stroke="#000" stroke-width="5.5"/><path d="m6 27.5 3 1.5" stroke="#000" stroke-width="5.5"/><path d="m18 4 3 3" stroke="#000" stroke-width="5.5"/><path d="m21 3 2 2" stroke="#000" stroke-width="5.5"/><path d="m12.985 15.751-4.608-4.608-.068-.071-.064-.075-.06-.079-.056-.081-.053-.084-.047-.086-.043-.089-.038-.091-.034-.093-.029-.094-.023-.096-.02-.096-.013-.098-.009-.098-.004-.099.001-.099.006-.098.011-.098.017-.097.022-.096.026-.096.031-.093.036-.092.041-.09.045-.087.05-.086.054-.082.058-.08.063-.076.066-.074.069-.069.074-.067.076-.062.08-.058.082-.054.086-.05.087-.045.09-.041.092-.036.093-.031.096-.026.096-.022.097-.016.098-.012.098-.006.099-.001.099.004.098.009.098.013.096.019.097.024.093.029.094.034.09.038.089.043.087.047.084.052.08.056.079.06.075.064.071.069 4.608 4.608.094-.094-2.888-4.813-.047-.082-.042-.084-.038-.086-.034-.088-.029-.089-.026-.09-.02-.092-.017-.092-.011-.094-.007-.094-.003-.093.002-.095.007-.094.012-.093.016-.092.021-.092.025-.091.029-.089.034-.088.038-.086.042-.084.046-.082.051-.079.054-.077.058-.074.061-.071.065-.069.068-.065.071-.061.075-.058.077-.054.079-.05.081-.047.084-.042.087-.038.087-.034.089-.029.091-.026.092-.02.092-.016.094-.012.093-.007.094-.003.094.003.094.007.093.012.093.015.092.021.09.025.09.03.087.033.087.039.084.041.081.046.08.051.077.054.074.058.071.061.068.065.065.068.062.071.058.075.054.077.05.079 4.66 7.768.677.676v-3.194l.001-.087.005-.087.008-.087.012-.086.015-.085.018-.086.02-.084.025-.084.027-.082.031-.082.034-.08.036-.078.04-.078.042-.076.046-.074.048-.073.051-.071.053-.068.057-.066.058-.065.061-.062.063-.06.066-.057.067-.055.07-.052.071-.049.074-.047.075-.045.077-.041.078-.038.079-.035.081-.032.083-.029.082-.026.084-.023.085-.019.086-.017.085-.013.087-.009.087-.007.087-.004h.087l.087.004.087.007.086.009.086.013.085.017.085.019.085.023.082.026.082.029.081.032.08.035.078.038.077.041.074.045.074.047.072.049.069.052.068.055.065.057.064.06.06.062.059.065.056.066.053.068.052.071.048.073.045.074.043.076.039.078.037.078.033.08.031.082.027.082.025.084.021.084.018.086.015.085.011.086.009.087.005.087.001.087v6.488.087l-.002.094-.003.094-.004.094-.005.094-.007.093-.007.094-.009.093-.01.093-.011.093-.012.093-.013.092-.014.092-.016.093-.016.091-.018.091-.018.091-.02.091-.022.09-.022.091-.023.09-.025.09-.024.089-.027.089-.028.088-.028.089-.03.087-.03.088-.032.086-.034.087-.033.087-.035.085-.036.085-.037.085-.038.084-.039.085-.04.083-.042.083-.041.083-.043.082-.045.081-.045.082-.046.08-.047.08-.048.079-.05.079-.05.078-.051.078-.052.077-.053.077-.006.009-.027.055-.046.084-.052.083-.055.079-.06.077-.063.074-.067.07-.319.32-.016.017-.066.068-.061.062-.078.077-.062.061-.019.016-.542.543-.06.058-.061.057-.06.056-.062.056-.061.054-.063.055-.062.053-.063.053-.064.051-.064.051-.065.051-.065.05-.065.049-.065.048-.067.047-.066.047-.068.046-.067.045-.068.044-.067.044-.07.043-.069.042-.069.041-.07.041-.069.04-.071.039-.071.039-.071.037-.071.037-.072.036-.072.035-.072.034-.072.034-.074.033-.073.032-.073.031-.074.031-.073.029-.075.029-.075.029-.074.027-.075.026-.075.027-.075.025-.076.024-.076.023-.076.023-.076.022-.076.022-.077.02-.077.019-.076.019-.078.018-.077.017-.078.017-.077.015-.078.015-.078.014-.077.014-.079.012-.078.012-.078.011-.078.01-.079.009-.078.008-.079.009-.079.006-.079.006-.079.005-.078.005-.079.004-.08.003-.079.001-.079.002h-.079-.079l-.079-.001-.08-.002-.079-.003-.079-.003-.079-.005-.08-.005-.079-.006-.079-.006-.079-.008-.079-.009-.079-.009-.08-.01-.079-.011-.078-.011-.079-.013-.079-.014-.078-.013-.08-.016-.156-.032-.079-.018-.078-.018-.077-.019-.078-.019-.078-.022-.078-.021-.077-.022-.078-.024-.077-.024-.077-.025-.077-.026-.076-.026-.076-.028-.076-.028-.077-.029-.076-.03-.075-.031-.075-.031-.076-.033-.074-.032-.075-.035-.074-.035-.075-.035-.073-.037-.073-.038-.074-.038-.073-.039-.072-.04-.072-.04-.072-.042-.068-.04-7.266-4.352-.081-.051-.08-.057-.076-.06-.073-.063-.07-.068-.067-.071-.062-.074-.058-.077-.056-.08-.051-.083-.046-.085-.042-.088-.037-.089-.033-.092-.029-.092-.024-.095-.018-.095-.014-.096-.01-.096-.004-.097.001-.097.006-.097.01-.097.015-.096.021-.095.025-.093.03-.093.034-.09.039-.089.044-.087.047-.085.052-.082.056-.079.06-.076.064-.073.068-.07.07-.067.075-.062.077-.059.08-.055.083-.051.084-.046.088-.042.09-.038.091-.033.093-.029.094-.022.095-.02.096-.013.097-.01.097-.004.097.001.097.006.096.01.096.016.095.02.094.025.092.029.091.035.089.039.087.043.085.048.582.349-2.761-1.889-.078-.057-.076-.061-.073-.065-.069-.067-.066-.072-.061-.075-.058-.077-.055-.081-.05-.083-.046-.086-.041-.088-.037-.09-.032-.091-.027-.093-.022-.095-.019-.095-.012-.096-.008-.097-.004-.097.002-.097.006-.097.012-.096.017-.096.021-.095.025-.093.031-.092.035-.09.04-.089.044-.086.049-.085.053-.081.057-.079.06-.075.065-.073.068-.07.072-.065.074-.061.078-.059.081-.054.083-.05.086-.046.087-.041.09-.037.092-.032.093-.027.094-.022.096-.019.096-.013.097-.007.097-.004.097.001.097.008.096.011.096.016.094.022.094.025.092.031.09.035.089.04.086.044.084.049.081.053 4.48 3.064z" stroke="#000" stroke-linecap="butt" stroke-miterlimit="1.41421" stroke-width="4"/></g><path d="m12.985 15.751-4.608-4.608-.068-.071-.064-.075-.06-.079-.056-.081-.053-.084-.047-.086-.043-.089-.038-.091-.034-.093-.029-.094-.023-.096-.02-.096-.013-.098-.009-.098-.004-.099.001-.099.006-.098.011-.098.017-.097.022-.096.026-.096.031-.093.036-.092.041-.09.045-.087.05-.086.054-.082.058-.08.063-.076.066-.074.069-.069.074-.067.076-.062.08-.058.082-.054.086-.05.087-.045.09-.041.092-.036.093-.031.096-.026.096-.022.097-.016.098-.012.098-.006.099-.001.099.004.098.009.098.013.096.019.097.024.093.029.094.034.09.038.089.043.087.047.084.052.08.056.079.06.075.064.071.069 4.608 4.608.094-.094-2.888-4.813-.047-.082-.042-.084-.038-.086-.034-.088-.029-.089-.026-.09-.02-.092-.017-.092-.011-.094-.007-.094-.003-.093.002-.095.007-.094.012-.093.016-.092.021-.092.025-.091.029-.089.034-.088.038-.086.042-.084.046-.082.051-.079.054-.077.058-.074.061-.071.065-.069.068-.065.071-.061.075-.058.077-.054.079-.05.081-.047.084-.042.087-.038.087-.034.089-.029.091-.026.092-.02.092-.016.094-.012.093-.007.094-.003.094.003.094.007.093.012.093.015.092.021.09.025.09.03.087.033.087.039.084.041.081.046.08.051.077.054.074.058.071.061.068.065.065.068.062.071.058.075.054.077.05.079 4.66 7.768.677.676v-3.194l.001-.087.005-.087.008-.087.012-.086.015-.085.018-.086.02-.084.025-.084.027-.082.031-.082.034-.08.036-.078.04-.078.042-.076.046-.074.048-.073.051-.071.053-.068.057-.066.058-.065.061-.062.063-.06.066-.057.067-.055.07-.052.071-.049.074-.047.075-.045.077-.041.078-.038.079-.035.081-.032.083-.029.082-.026.084-.023.085-.019.086-.017.085-.013.087-.009.087-.007.087-.004h.087l.087.004.087.007.086.009.086.013.085.017.085.019.085.023.082.026.082.029.081.032.08.035.078.038.077.041.074.045.074.047.072.049.069.052.068.055.065.057.064.06.06.062.059.065.056.066.053.068.052.071.048.073.045.074.043.076.039.078.037.078.033.08.031.082.027.082.025.084.021.084.018.086.015.085.011.086.009.087.005.087.001.087v6.488.087l-.002.094-.003.094-.004.094-.005.094-.007.093-.007.094-.009.093-.01.093-.011.093-.012.093-.013.092-.014.092-.016.093-.016.091-.018.091-.018.091-.02.091-.022.09-.022.091-.023.09-.025.09-.024.089-.027.089-.028.088-.028.089-.03.087-.03.088-.032.086-.034.087-.033.087-.035.085-.036.085-.037.085-.038.084-.039.085-.04.083-.042.083-.041.083-.043.082-.045.081-.045.082-.046.08-.047.08-.048.079-.05.079-.05.078-.051.078-.052.077-.053.077-.006.009-.027.055-.046.084-.052.083-.055.079-.06.077-.063.074-.067.07-.319.32-.016.017-.066.068-.061.062-.078.077-.062.061-.019.016-.542.543-.06.058-.061.057-.06.056-.062.056-.061.054-.063.055-.062.053-.063.053-.064.051-.064.051-.065.051-.065.05-.065.049-.065.048-.067.047-.066.047-.068.046-.067.045-.068.044-.067.044-.07.043-.069.042-.069.041-.07.041-.069.04-.071.039-.071.039-.071.037-.071.037-.072.036-.072.035-.072.034-.072.034-.074.033-.073.032-.073.031-.074.031-.073.029-.075.029-.075.029-.074.027-.075.026-.075.027-.075.025-.076.024-.076.023-.076.023-.076.022-.076.022-.077.02-.077.019-.076.019-.078.018-.077.017-.078.017-.077.015-.078.015-.078.014-.077.014-.079.012-.078.012-.078.011-.078.01-.079.009-.078.008-.079.009-.079.006-.079.006-.079.005-.078.005-.079.004-.08.003-.079.001-.079.002h-.079-.079l-.079-.001-.08-.002-.079-.003-.079-.003-.079-.005-.08-.005-.079-.006-.079-.006-.079-.008-.079-.009-.079-.009-.08-.01-.079-.011-.078-.011-.079-.013-.079-.014-.078-.013-.08-.016-.156-.032-.079-.018-.078-.018-.077-.019-.078-.019-.078-.022-.078-.021-.077-.022-.078-.024-.077-.024-.077-.025-.077-.026-.076-.026-.076-.028-.076-.028-.077-.029-.076-.03-.075-.031-.075-.031-.076-.033-.074-.032-.075-.035-.074-.035-.075-.035-.073-.037-.073-.038-.074-.038-.073-.039-.072-.04-.072-.04-.072-.042-.068-.04-7.266-4.352-.081-.051-.08-.057-.076-.06-.073-.063-.07-.068-.067-.071-.062-.074-.058-.077-.056-.08-.051-.083-.046-.085-.042-.088-.037-.089-.033-.092-.029-.092-.024-.095-.018-.095-.014-.096-.01-.096-.004-.097.001-.097.006-.097.01-.097.015-.096.021-.095.025-.093.03-.093.034-.09.039-.089.044-.087.047-.085.052-.082.056-.079.06-.076.064-.073.068-.07.07-.067.075-.062.077-.059.08-.055.083-.051.084-.046.088-.042.09-.038.091-.033.093-.029.094-.022.095-.02.096-.013.097-.01.097-.004.097.001.097.006.096.01.096.016.095.02.094.025.092.029.091.035.089.039.087.043.085.048.582.349-2.761-1.889-.078-.057-.076-.061-.073-.065-.069-.067-.066-.072-.061-.075-.058-.077-.055-.081-.05-.083-.046-.086-.041-.088-.037-.09-.032-.091-.027-.093-.022-.095-.019-.095-.012-.096-.008-.097-.004-.097.002-.097.006-.097.012-.096.017-.096.021-.095.025-.093.031-.092.035-.09.04-.089.044-.086.049-.085.053-.081.057-.079.06-.075.065-.073.068-.07.072-.065.074-.061.078-.059.081-.054.083-.05.086-.046.087-.041.09-.037.092-.032.093-.027.094-.022.096-.019.096-.013.097-.007.097-.004.097.001.097.008.096.011.096.016.094.022.094.025.092.031.09.035.089.04.086.044.084.049.081.053 4.48 3.064z" fill="#318268"/><path d="m4.857 15.209 6.638 4.742" fill="none" stroke="#000" stroke-linejoin="miter" stroke-miterlimit="1.5" stroke-width=".77"/><path d="m7.837 11.145 5.419 5.419" fill="none" stroke="#000" stroke-linejoin="miter" stroke-miterlimit="1.5" stroke-width=".77"/><path d="m11.088 7.894 5.148 5.148" fill="none" stroke="#000" stroke-linejoin="miter" stroke-miterlimit="1.5" stroke-width=".77"/><path d="m6.518 13.898c.415-.692 1.559-.77 2.55-.173.993.596 1.46 1.641 1.044 2.333-.415.692-1.558.77-2.55.174-.992-.595-1.46-1.642-1.044-2.334z" fill="#195244"/><path d="m6.521 18.855c.346-.575 1.257-.663 2.034-.196s1.127 1.313.782 1.888c-.347.575-1.258.663-2.035.196s-1.127-1.313-.781-1.888z" fill="#195244"/><path d="m9.197 9.244c.598-.598 1.812-.356 2.709.542.897.897 1.14 2.111.542 2.709s-1.812.355-2.709-.542c-.898-.897-1.14-2.111-.542-2.709z" fill="#195244"/><path d="m13.968 6.243c.67-.402 1.713.101 2.327 1.124.615 1.022.57 2.179-.1 2.582-.67.402-1.713-.102-2.327-1.124-.615-1.023-.57-2.18.1-2.582z" fill="#195244"/><path d="m23.553 10.044c.979 0 1.774 1.134 1.774 2.531s-.795 2.532-1.774 2.532c-.98 0-1.775-1.134-1.774-2.532-.001-1.397.794-2.531 1.774-2.531z" fill="#195244"/><path d="m16.05 24.235c-.575-.575-.898-1.354-.898-2.168 0-.887 0-2.114 0-3.251 0-.813.323-1.592.898-2.167s1.354-.898 2.167-.898h3.252c.813 0 1.593.323 2.168.898l.271.271c.5.501.742 1.205.656 1.907-.086.703-.492 1.326-1.099 1.69-.621.373-1.207.725-1.554.932-.215.13-.413.284-.59.462-.003.002-.006.006-.009.008-.177.177-.332.375-.461.59-.208.348-.559.933-.932 1.554-.365.608-.988 1.013-1.691 1.099-.702.087-1.406-.155-1.906-.655-.093-.094-.184-.185-.272-.272z" fill="#195244"/><path d="m6 24.5 5 2.5" fill="none" stroke="#565656" stroke-width="1.5"/><path d="m6 27.5 3 1.5" fill="none" stroke="#565656" stroke-width="1.5"/><path d="m18 4 3 3" fill="none" stroke="#565656" stroke-width="1.5"/><path d="m21 3 2 2" fill="none" stroke="#565656" stroke-width="1.5"/></svg>