<svg clip-rule="evenodd" fill-rule="evenodd" stroke-miterlimit="3" viewBox="0 0 32 32" xmlns="http://www.w3.org/2000/svg" xmlns:xlink="http://www.w3.org/1999/xlink"><clipPath id="a"><path clip-rule="evenodd" d="m0 0h32v32h-32z"/></clipPath><clipPath id="b"><path clip-rule="evenodd" d="m24.342 11.106s1.836 5.509 3.087 9.26c.694 2.085.152 4.385-1.403 5.939-.177.178-.359.36-.544.545-2.805 2.805-7.354 2.805-10.159 0-1.524-1.525-2.8-2.8-2.8-2.8l2.814-2.814-.563-.563 1.689-1.688-.563-.563 3.94-3.939 2.814 2.814s-.254-.759-.563-1.689c-.622-1.865.386-3.881 2.251-4.502z"/></clipPath><path d="m0 0h32v32h-32z" fill="none"/><g clip-path="url(#a)"><path d="m22.073.001.049.001.049.003.049.003.048.004.049.005.048.005.049.007.048.007.048.008.048.008.048.01.048.01.048.011.047.012.047.013.047.013.047.014.046.015.047.015.046.017.045.017.046.018.045.018.045.02.044.02.045.021.043.021.044.022.043.023.043.024.042.024.042.025.042.026.041.026.04.027.041.028.039.028.04.029.039.03.038.03.038.031.037.031.037.032.036.033.036.033.035.034.035.034.034.035.034.036.033.036.032.036.032.037.031.038.03.038.03.039.03.039.028.039.028.04.027.041.027.041.026.041.025.042.025.042.024.043.023.043.023.043.022.044.021.044.02.044.02.045.019.045.018.045.018.045.016.046.016.046.016.047.014.047.014.046.013.047.012.048.011.047.011.048.01.048.009.048.008.048.008.048.007.048.006.049.005.048.004.049.004.049.002.049.002.048.002.049v.049 2 .049l-.002.049-.002.048-.002.049-.004.049-.004.049-.005.048-.006.049-.007.048-.008.048-.008.048-.009.048-.01.048-.011.048-.011.047-.012.048-.013.047-.014.046-.014.047-.016.047-.016.046-.016.046-.018.045-.018.045-.019.045-.02.045-.02.044-.021.044-.022.044-.023.043-.023.043-.024.043-.025.042-.025.042-.026.041-.027.041-.027.041-.028.04-.028.039-.03.039-.03.039-.03.038-.031.038-.032.037-.032.036-.033.036-.034.036-.034.035-.035.034-.035.034-.036.033-.036.033-.037.032-.037.031-.038.031-.038.03-.039.03-.04.029-.039.028-.041.028-.04.027-.041.026-.042.026-.042.025-.042.024-.043.024-.043.023-.044.022-.043.021-.045.021-.044.02-.045.02-.045.018-.046.018-.045.017-.046.017-.047.015-.046.015-.047.014-.047.013-.047.013-.047.012-.048.011-.048.01-.048.01-.048.008-.048.008-.048.007-.049.007-.048.005-.049.005-.048.004-.049.003-.049.003-.049.001-.049.001h-.048l-.049-.001-.049-.001-.049-.003-.049-.003-.048-.004-.049-.005-.048-.005-.049-.007-.048-.007-.048-.008-.048-.008-.048-.01-.048-.01-.048-.011-.047-.012-.047-.013-.047-.013-.047-.014-.046-.015-.047-.015-.046-.017-.045-.017-.046-.018-.045-.018-.045-.02-.044-.02-.045-.021-.043-.021-.044-.022-.043-.023-.043-.024-.042-.024-.042-.025-.042-.026-.041-.026-.04-.027-.041-.028-.039-.028-.04-.029-.039-.03-.038-.03-.038-.031-.037-.031-.037-.032-.036-.033-.036-.033-.035-.034-.035-.034-.034-.035-.034-.036-.033-.036-.032-.036-.032-.037-.031-.038-.03-.038-.03-.039-.03-.039-.028-.039-.028-.04-.027-.041-.027-.041-.026-.041-.025-.042-.025-.042-.024-.043-.023-.043-.023-.043-.022-.044-.021-.044-.02-.044-.02-.045-.019-.045-.018-.045-.018-.045-.016-.046-.016-.046-.016-.047-.014-.047-.014-.046-.013-.047-.012-.048-.011-.047-.011-.048-.01-.048-.009-.048-.008-.048-.008-.048-.007-.048-.006-.049-.005-.048-.004-.049-.004-.049-.002-.049-.002-.048-.002-.049v-.049-2-.049l.002-.049.002-.048.002-.049.004-.049.004-.049.005-.048.006-.049.007-.048.008-.048.008-.048.009-.048.01-.048.011-.048.011-.047.012-.048.013-.047.014-.046.014-.047.016-.047.016-.046.016-.046.018-.045.018-.045.019-.045.02-.045.02-.044.021-.044.022-.044.023-.043.023-.043.024-.043.025-.042.025-.042.026-.041.027-.041.027-.041.028-.04.028-.039.03-.039.03-.039.03-.038.031-.038.032-.037.032-.036.033-.036.034-.036.034-.035.035-.034.035-.034.036-.033.036-.033.037-.032.037-.031.038-.031.038-.03.039-.03.04-.029.039-.028.041-.028.04-.027.041-.026.042-.026.042-.025.042-.024.043-.024.043-.023.044-.022.043-.021.045-.021.044-.02.045-.02.045-.018.046-.018.045-.017.046-.017.047-.015.046-.015.047-.014.047-.013.047-.013.047-.012.048-.011.048-.01.048-.01.048-.008.048-.008.048-.007.049-.007.048-.005.049-.005.048-.004.049-.003.049-.003.049-.001.049-.001h.048l.049.001z"/><path d="m27.037 2 .048.001.049.002.049.003.049.003.048.004.049.005.048.006.049.006.048.008.048.008.048.009.048.009.048.011.047.011.048.012.047.013.047.013.046.015.047.015.046.016.046.016.046.017.045.018.045.019.045.02.044.02.045.021.043.022.044.022.043.023.042.024.043.024.041.025.042.026.041.027.04.027.041.028.039.028.039.029.039.03.038.031.038.031.037.031.037.032.036.033.036.034.035.033.035.035.033.035.034.036.033.036.032.037.031.037.031.038.031.038.03.039.029.039.028.039.028.041.027.04.027.041.026.042.025.041.024.043.024.042.023.043.022.044.022.043.021.045.02.044.02.045.019.045.018.045.017.046.016.046.016.046.015.047.015.046.013.047.013.047.012.048.011.047.011.048.009.048.009.048.008.048.008.048.006.049.006.048.005.049.004.048.003.049.003.049.002.049.001.048v.049l-.001.049-.001.049-.002.049-.003.048-.004.049-.005.049-.005.048-.006.049-.007.048-.008.048-.008.048-.009.048-.011.048-.01.048-.012.047-.012.047-.013.047-.014.047-.015.047-.016.046-.016.046-.017.046-.017.045-.019.046-.019.045-.02.044-.02.044-.022.044-.022.044-.022.043-.024.043-.024.043-.025.042-.025.041-.026.041-.027.041-.028.041-.028.039-.029.04-.029.039-.03.038-.031.038-.031.038-.032.037-.033.036-.033.036-.033.036-.035.034-2 2-.034.035-.036.033-.036.033-.036.033-.037.032-.038.031-.038.031-.038.03-.039.029-.04.029-.039.028-.041.028-.041.027-.041.026-.041.025-.042.025-.043.024-.043.024-.043.022-.044.022-.044.022-.044.02-.044.02-.045.019-.046.019-.045.017-.046.017-.046.016-.046.016-.047.015-.047.014-.047.013-.047.012-.047.012-.048.01-.048.011-.048.009-.048.008-.048.008-.048.007-.049.006-.048.005-.049.005-.049.004-.048.003-.049.002-.049.001-.049.001h-.049l-.048-.001-.049-.002-.049-.003-.049-.003-.048-.004-.049-.005-.048-.006-.049-.006-.048-.008-.048-.008-.048-.009-.048-.009-.048-.011-.047-.011-.048-.012-.047-.013-.047-.013-.046-.015-.047-.015-.046-.016-.046-.016-.046-.017-.045-.018-.045-.019-.045-.02-.044-.02-.045-.021-.043-.022-.044-.022-.043-.023-.042-.024-.043-.024-.041-.025-.042-.026-.041-.027-.04-.027-.041-.028-.039-.028-.039-.029-.039-.03-.038-.031-.038-.031-.037-.031-.037-.032-.036-.033-.036-.034-.035-.033-.035-.035-.033-.035-.034-.036-.033-.036-.032-.037-.031-.037-.031-.038-.031-.038-.03-.039-.029-.039-.028-.039-.028-.041-.027-.04-.027-.041-.026-.042-.025-.041-.024-.043-.024-.042-.023-.043-.022-.044-.022-.043-.021-.045-.02-.044-.02-.045-.019-.045-.018-.045-.017-.046-.016-.046-.016-.046-.015-.047-.015-.046-.013-.047-.013-.047-.012-.048-.011-.047-.011-.048-.009-.048-.009-.048-.008-.048-.008-.048-.006-.049-.006-.048-.005-.049-.004-.048-.003-.049-.003-.049-.002-.049-.001-.048v-.049l.001-.049.001-.049.002-.049.003-.048.004-.049.005-.049.005-.048.006-.049.007-.048.008-.048.008-.048.009-.048.011-.048.01-.048.012-.047.012-.047.013-.047.014-.047.015-.047.016-.046.016-.046.017-.046.017-.045.019-.046.019-.045.02-.044.02-.044.022-.044.022-.044.022-.043.024-.043.024-.043.025-.042.025-.041.026-.041.027-.041.028-.041.028-.039.029-.04.029-.039.03-.038.031-.038.031-.038.032-.037.033-.036.033-.036.033-.036.035-.034 2-2 .034-.035.036-.033.036-.033.036-.033.037-.032.038-.031.038-.031.038-.03.039-.029.04-.029.039-.028.041-.028.041-.027.041-.026.041-.025.042-.025.043-.024.043-.024.043-.022.044-.022.044-.022.044-.02.044-.02.045-.019.046-.019.045-.017.046-.017.046-.016.046-.016.047-.015.047-.014.047-.013.047-.012.047-.012.048-.01.048-.011.048-.009.048-.008.048-.008.048-.007.049-.006.048-.005.049-.005.049-.004.048-.003.049-.002.049-.001.049-.001z"/><path d="m29.049 7 .049.002.048.002.049.002.049.004.049.004.048.005.049.006.048.007.048.008.048.008.048.009.048.01.048.011.047.011.048.012.047.013.046.014.047.014.047.016.046.016.046.016.045.018.045.018.045.019.045.02.044.02.044.021.044.022.043.023.043.023.043.024.042.025.042.025.041.026.041.027.041.027.04.028.039.028.039.03.039.03.038.03.038.031.037.032.036.032.036.033.036.034.035.034.034.035.034.035.033.036.033.036.032.037.031.037.031.038.03.038.03.039.029.04.028.039.028.041.027.04.026.041.026.042.025.042.024.042.024.043.023.043.022.044.021.043.021.045.02.044.02.045.018.045.018.046.017.045.017.046.015.047.015.046.014.047.013.047.013.047.012.047.011.048.01.048.01.048.008.048.008.048.007.048.007.049.005.048.005.049.004.048.003.049.003.049.001.049.001.049v.048l-.001.049-.001.049-.003.049-.003.049-.004.048-.005.049-.005.048-.007.049-.007.048-.008.048-.008.048-.01.048-.01.048-.011.048-.012.047-.013.047-.013.047-.014.047-.015.046-.015.047-.017.046-.017.045-.018.046-.018.045-.02.045-.02.044-.021.045-.021.043-.022.044-.023.043-.024.043-.024.042-.025.042-.026.042-.026.041-.027.04-.028.041-.028.039-.029.04-.03.039-.03.038-.031.038-.031.037-.032.037-.033.036-.033.036-.034.035-.034.035-.035.034-.036.034-.036.033-.036.032-.037.032-.038.031-.038.03-.039.03-.039.03-.039.028-.04.028-.041.027-.041.027-.041.026-.042.025-.042.025-.043.024-.043.023-.043.023-.044.022-.044.021-.044.02-.045.02-.045.019-.045.018-.045.018-.046.016-.046.016-.047.016-.047.014-.046.014-.047.013-.048.012-.047.011-.048.011-.048.01-.048.009-.048.008-.048.008-.048.007-.049.006-.048.005-.049.004-.049.004-.049.002-.048.002-.049.002h-.049-2-.049l-.049-.002-.048-.002-.049-.002-.049-.004-.049-.004-.048-.005-.049-.006-.048-.007-.048-.008-.048-.008-.048-.009-.048-.01-.048-.011-.047-.011-.048-.012-.047-.013-.046-.014-.047-.014-.047-.016-.046-.016-.046-.016-.045-.018-.045-.018-.045-.019-.045-.02-.044-.02-.044-.021-.044-.022-.043-.023-.043-.023-.043-.024-.042-.025-.042-.025-.041-.026-.041-.027-.041-.027-.04-.028-.039-.028-.039-.03-.039-.03-.038-.03-.038-.031-.037-.032-.036-.032-.036-.033-.036-.034-.035-.034-.034-.035-.034-.035-.033-.036-.033-.036-.032-.037-.031-.037-.031-.038-.03-.038-.03-.039-.029-.04-.028-.039-.028-.041-.027-.04-.026-.041-.026-.042-.025-.042-.024-.042-.024-.043-.023-.043-.022-.044-.021-.043-.021-.045-.02-.044-.02-.045-.018-.045-.018-.046-.017-.045-.017-.046-.015-.047-.015-.046-.014-.047-.013-.047-.013-.047-.012-.047-.011-.048-.01-.048-.01-.048-.008-.048-.008-.048-.007-.048-.007-.049-.005-.048-.005-.049-.004-.048-.003-.049-.003-.049-.001-.049-.001-.049v-.048l.001-.049.001-.049.003-.049.003-.049.004-.048.005-.049.005-.048.007-.049.007-.048.008-.048.008-.048.01-.048.01-.048.011-.048.012-.047.013-.047.013-.047.014-.047.015-.046.015-.047.017-.046.017-.045.018-.046.018-.045.02-.045.02-.044.021-.045.021-.043.022-.044.023-.043.024-.043.024-.042.025-.042.026-.042.026-.041.027-.04.028-.041.028-.039.029-.04.03-.039.03-.038.031-.038.031-.037.032-.037.033-.036.033-.036.034-.035.034-.035.035-.034.036-.034.036-.033.036-.032.037-.032.038-.031.038-.03.039-.03.039-.03.039-.028.04-.028.041-.027.041-.027.041-.026.042-.025.042-.025.043-.024.043-.023.043-.023.044-.022.044-.021.044-.02.045-.02.045-.019.045-.018.045-.018.046-.016.046-.016.047-.016.047-.014.046-.014.047-.013.048-.012.047-.011.048-.011.048-.01.048-.009.048-.008.048-.008.048-.007.049-.006.048-.005.049-.004.049-.004.049-.002.048-.002.049-.002h.049 2z"/><path d="m10.073 24.001.049.001.049.003.049.003.048.004.049.005.048.005.049.007.048.007.048.008.048.008.048.01.048.01.048.011.047.012.047.013.047.013.047.014.046.015.047.015.046.017.045.017.046.018.045.018.045.02.044.02.045.021.043.021.044.022.043.023.043.024.042.024.042.025.042.026.041.026.04.027.041.028.039.028.04.029.039.03.038.03.038.031.037.031.037.032.036.033.036.033.035.034.035.034.034.035.034.036.033.036.032.036.032.037.031.038.03.038.03.039.03.039.028.039.028.04.027.041.027.041.026.041.025.042.025.042.024.043.023.043.023.043.022.044.021.044.02.044.02.045.019.045.018.045.018.045.016.046.016.046.016.047.014.047.014.046.013.047.012.048.011.047.011.048.01.048.009.048.008.048.008.048.007.048.006.049.005.048.004.049.004.049.002.049.002.048.002.049v.049 2 .049l-.002.049-.002.048-.002.049-.004.049-.004.049-.005.048-.006.049-.007.048-.008.048-.008.048-.009.048-.01.048-.011.048-.011.047-.012.048-.013.047-.014.046-.014.047-.016.047-.016.046-.016.046-.018.045-.018.045-.019.045-.02.045-.02.044-.021.044-.022.044-.023.043-.023.043-.024.043-.025.042-.025.042-.026.041-.027.041-.027.041-.028.04-.028.039-.03.039-.03.039-.03.038-.031.038-.032.037-.032.036-.033.036-.034.036-.034.035-.035.034-.035.034-.036.033-.036.033-.037.032-.037.031-.038.031-.038.03-.039.03-.04.029-.039.028-.041.028-.04.027-.041.026-.042.026-.042.025-.042.024-.043.024-.043.023-.044.022-.043.021-.045.021-.044.02-.045.02-.045.018-.046.018-.045.017-.046.017-.047.015-.046.015-.047.014-.047.013-.047.013-.047.012-.048.011-.048.01-.048.01-.048.008-.048.008-.048.007-.049.007-.048.005-.049.005-.048.004-.049.003-.049.003-.049.001-.049.001h-.048l-.049-.001-.049-.001-.049-.003-.049-.003-.048-.004-.049-.005-.048-.005-.049-.007-.048-.007-.048-.008-.048-.008-.048-.01-.048-.01-.048-.011-.047-.012-.047-.013-.047-.013-.047-.014-.046-.015-.047-.015-.046-.017-.045-.017-.046-.018-.045-.018-.045-.02-.044-.02-.045-.021-.043-.021-.044-.022-.043-.023-.043-.024-.042-.024-.042-.025-.042-.026-.041-.026-.04-.027-.041-.028-.039-.028-.04-.029-.039-.03-.038-.03-.038-.031-.037-.031-.037-.032-.036-.033-.036-.033-.035-.034-.035-.034-.034-.035-.034-.036-.033-.036-.032-.036-.032-.037-.031-.038-.03-.038-.03-.039-.03-.039-.028-.039-.028-.04-.027-.041-.027-.041-.026-.041-.025-.042-.025-.042-.024-.043-.023-.043-.023-.043-.022-.044-.021-.044-.02-.044-.02-.045-.019-.045-.018-.045-.018-.045-.016-.046-.016-.046-.016-.047-.014-.047-.014-.046-.013-.047-.012-.048-.011-.047-.011-.048-.01-.048-.009-.048-.008-.048-.008-.048-.007-.048-.006-.049-.005-.048-.004-.049-.004-.049-.002-.049-.002-.048-.002-.049v-.049-2-.049l.002-.049.002-.048.002-.049.004-.049.004-.049.005-.048.006-.049.007-.048.008-.048.008-.048.009-.048.01-.048.011-.048.011-.047.012-.048.013-.047.014-.046.014-.047.016-.047.016-.046.016-.046.018-.045.018-.045.019-.045.02-.045.02-.044.021-.044.022-.044.023-.043.023-.043.024-.043.025-.042.025-.042.026-.041.027-.041.027-.041.028-.04.028-.039.03-.039.03-.039.03-.038.031-.038.032-.037.032-.036.033-.036.034-.036.034-.035.035-.034.035-.034.036-.033.036-.033.037-.032.037-.031.038-.031.038-.03.039-.03.04-.029.039-.028.041-.028.04-.027.041-.026.042-.026.042-.025.042-.024.043-.024.043-.023.044-.022.043-.021.045-.021.044-.02.045-.02.045-.018.046-.018.045-.017.046-.017.047-.015.046-.015.047-.014.047-.013.047-.013.047-.012.048-.011.048-.01.048-.01.048-.008.048-.008.048-.007.049-.007.048-.005.049-.005.048-.004.049-.003.049-.003.049-.001.049-.001h.048z"/><path d="m7.037 22 .048.001.049.002.049.003.049.003.048.004.049.005.048.006.049.006.048.008.048.008.048.009.048.009.048.011.047.011.048.012.047.013.047.013.046.015.047.015.046.016.046.016.046.017.045.018.045.019.045.02.044.02.045.021.043.022.044.022.043.023.042.024.043.024.041.025.042.026.041.027.04.027.041.028.039.028.039.029.039.03.038.031.038.031.037.031.037.032.036.033.036.034.035.033.035.035.033.035.034.036.033.036.032.037.031.037.031.038.031.038.03.039.029.039.028.039.028.041.027.04.027.041.026.042.025.041.024.043.024.042.023.043.022.044.022.043.021.045.02.044.02.045.019.045.018.045.017.046.016.046.016.046.015.047.015.046.013.047.013.047.012.048.011.047.011.048.009.048.009.048.008.048.008.048.006.049.006.048.005.049.004.048.003.049.003.049.002.049.001.048v.049l-.001.049-.001.049-.002.049-.003.048-.004.049-.005.049-.005.048-.006.049-.007.048-.008.048-.008.048-.009.048-.011.048-.01.048-.012.047-.012.047-.013.047-.014.047-.015.047-.016.046-.016.046-.017.046-.017.045-.019.046-.019.045-.02.044-.02.044-.022.044-.022.044-.022.043-.024.043-.024.043-.025.042-.025.041-.026.041-.027.041-.028.041-.028.039-.029.04-.029.039-.03.038-.031.038-.031.038-.032.037-.033.036-.033.036-.033.036-.035.034-2 2-.034.035-.036.033-.036.033-.036.033-.037.032-.038.031-.038.031-.038.03-.039.029-.04.029-.039.028-.041.028-.041.027-.041.026-.041.025-.042.025-.043.024-.043.024-.043.022-.044.022-.044.022-.044.02-.044.02-.045.019-.046.019-.045.017-.046.017-.046.016-.046.016-.047.015-.047.014-.047.013-.047.012-.047.012-.048.01-.048.011-.048.009-.048.008-.048.008-.048.007-.049.006-.048.005-.049.005-.049.004-.048.003-.049.002-.049.001-.049.001h-.049l-.048-.001-.049-.002-.049-.003-.049-.003-.048-.004-.049-.005-.048-.006-.049-.006-.048-.008-.048-.008-.048-.009-.048-.009-.048-.011-.047-.011-.048-.012-.047-.013-.047-.013-.046-.015-.047-.015-.046-.016-.046-.016-.046-.017-.045-.018-.045-.019-.045-.02-.044-.02-.045-.021-.043-.022-.044-.022-.043-.023-.042-.024-.043-.024-.041-.025-.042-.026-.041-.027-.04-.027-.041-.028-.039-.028-.039-.029-.039-.03-.038-.031-.038-.031-.037-.031-.037-.032-.036-.033-.036-.034-.035-.033-.035-.035-.033-.035-.034-.036-.033-.036-.032-.037-.031-.037-.031-.038-.031-.038-.03-.039-.029-.039-.028-.039-.028-.041-.027-.04-.027-.041-.026-.042-.025-.041-.024-.043-.024-.042-.023-.043-.022-.044-.022-.043-.021-.045-.02-.044-.02-.045-.019-.045-.018-.045-.017-.046-.016-.046-.016-.046-.015-.047-.015-.046-.013-.047-.013-.047-.012-.048-.011-.047-.011-.048-.009-.048-.009-.048-.008-.048-.008-.048-.006-.049-.006-.048-.005-.049-.004-.048-.003-.049-.003-.049-.002-.049-.001-.048v-.049l.001-.049.001-.049.002-.049.003-.048.004-.049.005-.049.005-.048.006-.049.007-.048.008-.048.008-.048.009-.048.011-.048.01-.048.012-.047.012-.047.013-.047.014-.047.015-.047.016-.046.016-.046.017-.046.017-.045.019-.046.019-.045.02-.044.02-.044.022-.044.022-.044.022-.043.024-.043.024-.043.025-.042.025-.041.026-.041.027-.041.028-.041.028-.039.029-.04.029-.039.03-.038.031-.038.031-.038.032-.037.033-.036.033-.036.033-.036.035-.034 2-2 .034-.035.036-.033.036-.033.036-.033.037-.032.038-.031.038-.031.038-.03.039-.029.04-.029.039-.028.041-.028.041-.027.041-.026.041-.025.042-.025.043-.024.043-.024.043-.022.044-.022.044-.022.044-.02.044-.02.045-.019.046-.019.045-.017.046-.017.046-.016.046-.016.047-.015.047-.014.047-.013.047-.012.047-.012.048-.01.048-.011.048-.009.048-.008.048-.008.048-.007.049-.006.048-.005.049-.005.049-.004.048-.003.049-.002.049-.001.049-.001z"/><path d="m5.049 19 .049.002.048.002.049.002.049.004.049.004.048.005.049.006.048.007.048.008.048.008.048.009.048.01.048.011.047.011.048.012.047.013.046.014.047.014.047.016.046.016.046.016.045.018.045.018.045.019.045.02.044.02.044.021.044.022.043.023.043.023.043.024.042.025.042.025.041.026.041.027.041.027.04.028.039.028.039.03.039.03.038.03.038.031.037.032.036.032.036.033.036.034.035.034.034.035.034.035.033.036.033.036.032.037.031.037.031.038.03.038.03.039.029.04.028.039.028.041.027.04.026.041.026.042.025.042.024.042.024.043.023.043.022.044.021.043.021.045.02.044.02.045.018.045.018.046.017.045.017.046.015.047.015.046.014.047.013.047.013.047.012.047.011.048.01.048.01.048.008.048.008.048.007.048.007.049.005.048.005.049.004.048.003.049.003.049.001.049.001.049v.048l-.001.049-.001.049-.003.049-.003.049-.004.048-.005.049-.005.048-.007.049-.007.048-.008.048-.008.048-.01.048-.01.048-.011.048-.012.047-.013.047-.013.047-.014.047-.015.046-.015.047-.017.046-.017.045-.018.046-.018.045-.02.045-.02.044-.021.045-.021.043-.022.044-.023.043-.024.043-.024.042-.025.042-.026.042-.026.041-.027.04-.028.041-.028.039-.029.04-.03.039-.03.038-.031.038-.031.037-.032.037-.033.036-.033.036-.034.035-.034.035-.035.034-.036.034-.036.033-.036.032-.037.032-.038.031-.038.03-.039.03-.039.03-.039.028-.04.028-.041.027-.041.027-.041.026-.042.025-.042.025-.043.024-.043.023-.043.023-.044.022-.044.021-.044.02-.045.02-.045.019-.045.018-.045.018-.046.016-.046.016-.047.016-.047.014-.046.014-.047.013-.048.012-.047.011-.048.011-.048.01-.048.009-.048.008-.048.008-.048.007-.049.006-.048.005-.049.004-.049.004-.049.002-.048.002-.049.002h-.049-2-.049l-.049-.002-.048-.002-.049-.002-.049-.004-.049-.004-.048-.005-.049-.006-.048-.007-.048-.008-.048-.008-.048-.009-.048-.01-.048-.011-.047-.011-.048-.012-.047-.013-.046-.014-.047-.014-.047-.016-.046-.016-.046-.016-.045-.018-.045-.018-.045-.019-.045-.02-.044-.02-.044-.021-.044-.022-.043-.023-.043-.023-.043-.024-.042-.025-.042-.025-.041-.026-.041-.027-.041-.027-.04-.028-.039-.028-.039-.03-.039-.03-.038-.03-.038-.031-.037-.032-.036-.032-.036-.033-.036-.034-.035-.034-.034-.035-.034-.035-.033-.036-.033-.036-.032-.037-.031-.037-.031-.038-.03-.038-.03-.039-.029-.04-.028-.039-.028-.041-.027-.04-.026-.041-.026-.042-.025-.042-.024-.042-.024-.043-.023-.043-.022-.044-.021-.043-.021-.045-.02-.044-.02-.045-.018-.045-.018-.046-.017-.045-.017-.046-.015-.047-.015-.046-.014-.047-.013-.047-.013-.047-.012-.047-.011-.048-.01-.048-.01-.048-.008-.048-.008-.048-.007-.048-.007-.049-.005-.048-.005-.049-.004-.048-.003-.049-.003-.049-.001-.049-.001-.049v-.048l.001-.049.001-.049.003-.049.003-.049.004-.048.005-.049.005-.048.007-.049.007-.048.008-.048.008-.048.01-.048.01-.048.011-.048.012-.047.013-.047.013-.047.014-.047.015-.046.015-.047.017-.046.017-.045.018-.046.018-.045.02-.045.02-.044.021-.045.021-.043.022-.044.023-.043.024-.043.024-.042.025-.042.026-.042.026-.041.027-.04.028-.041.028-.039.029-.04.03-.039.03-.038.031-.038.031-.037.032-.037.033-.036.033-.036.034-.035.034-.035.035-.034.036-.034.036-.033.036-.032.037-.032.038-.031.038-.03.039-.03.039-.03.039-.028.04-.028.041-.027.041-.027.041-.026.042-.025.042-.025.043-.024.043-.023.043-.023.044-.022.044-.021.044-.02.045-.02.045-.019.045-.018.045-.018.046-.016.046-.016.047-.016.047-.014.046-.014.047-.013.048-.012.047-.011.048-.011.048-.01.048-.009.048-.008.048-.008.048-.007.049-.006.048-.005.049-.004.049-.004.049-.002.048-.002.049-.002h.049 2z"/><path d="m11.03 6.333c.422 0 .828.168 1.126.466l6.85 6.85s-.253-.758-.563-1.688c-.621-1.865.386-3.881 2.252-4.503 0 0 1.836 5.51 3.087 9.26.694 2.086.151 4.385-1.403 5.94-.178.178-.36.36-.545.545-2.805 2.805-7.353 2.805-10.158 0l-2.373-2.373-6.055-6.055h2.717c.422 0 .827.168 1.126.466l3.473 3.473.563-.562-7.316-7.317h2.717c.422 0 .827.168 1.125.466l4.6 4.599.562-.562-7.316-7.317h2.717c.422 0 .828.168 1.126.466l4.599 4.599.563-.562-6.191-6.191z" fill="none" stroke="#000" stroke-width="4"/><path d="m11.03 6.333c.422 0 .828.168 1.126.466l6.85 6.85s-.253-.758-.563-1.688c-.621-1.865.386-3.881 2.252-4.503 0 0 1.836 5.51 3.087 9.26.694 2.086.151 4.385-1.403 5.94-.178.178-.36.36-.545.545-2.805 2.805-7.353 2.805-10.158 0l-2.744-2.744-5.684-5.684h2.717c.422 0 .827.168 1.126.466l3.473 3.473.563-.562-7.316-7.317h2.717c.422 0 .827.168 1.125.466l4.6 4.599.562-.562-7.316-7.317h2.717c.422 0 .828.168 1.126.466l4.599 4.599.563-.562-6.191-6.191z" fill="#7b24cc"/><path d="m14.678 9.98c.422 0 .827.168 1.125.466l6.851 6.851s-.254-.759-.563-1.689c-.622-1.865.386-3.881 2.251-4.502 0 0 1.836 5.509 3.087 9.26.694 2.085.152 4.385-1.403 5.939-.177.178-.359.36-.544.545-2.805 2.805-7.354 2.805-10.159 0l-2.373-2.373-6.055-6.055h2.717c.423 0 .828.168 1.126.466l3.474 3.474.562-.563-7.316-7.316h2.717c.422 0 .828.167 1.126.466l4.599 4.599.563-.563-7.317-7.316h2.718c.422 0 .827.167 1.125.466l4.599 4.599.563-.563-6.191-6.191z" fill="none" stroke="#000" stroke-width="4"/><path d="m14.678 9.98c.422 0 .827.168 1.125.466l6.851 6.851v-.294l-.396-2.182-.346-.517c.072-1.422.998-2.721 2.43-3.198 0 0 1.836 5.509 3.087 9.26.694 2.085.152 4.385-1.403 5.939-.177.178-.359.36-.544.545-2.805 2.805-7.354 2.805-10.159 0-1.524-1.525-2.8-2.8-2.8-2.8l-5.628-5.628h2.717c.423 0 .828.168 1.126.466l3.474 3.474.562-.563-7.316-7.316h2.717c.422 0 .828.167 1.126.466l4.599 4.599.563-.563-7.317-7.316h2.718c.422 0 .827.167 1.125.466l4.599 4.599.563-.563-6.191-6.191z" fill="#925adb"/><g clip-path="url(#b)"><path d="m22.654 17.297-2.252-4.503s2.732 2.732 3.94 3.94c.311.31.311.815 0 1.125-.311.311-.815.311-1.126 0-.281-.281-.562-.562-.562-.562z" fill="#7b24cc"/></g><g fill="none" stroke="#fff" stroke-linecap="round" stroke-miterlimit="2" stroke-width="2"><path d="m22 5v-2"/><path d="m25 7 2-2"/><path d="m27 10h2"/><path d="m10 27v2"/><path d="m7 25-2 2"/><path d="m5 22h-2"/></g></g></svg>