<svg clip-rule="evenodd" fill-rule="evenodd" stroke-miterlimit="3" viewBox="0 0 32 32" xmlns="http://www.w3.org/2000/svg" xmlns:xlink="http://www.w3.org/1999/xlink"><clipPath id="a"><path clip-rule="evenodd" d="m0 0h32v32h-32z"/></clipPath><path d="m0 0h32v32h-32z" fill="none"/><g clip-path="url(#a)"><path d="m27.998 21.6-.006.129-.01.128-.015.129-.018.126-.023.127-.026.126-.031.124-.035.125-.038.122-.042.122-.046.119-.05.117-.055.119-.057.115-.054.1-3.393 6.032-.038.065-.043.072-.044.072-.045.07-.047.07-.047.069-.049.067-.05.067-.05.067-.052.065-.054.065-.053.062-.054.062-.056.061-.057.061-.057.059-.058.057-.06.058-.061.057-.06.054-.062.054-.064.054-.062.051-.064.05-.066.051-.066.048-.066.048-.068.046-.067.045-.069.044-.07.043-.07.042-.071.041-.072.039-.072.039-.073.037-.073.036-.074.035-.074.033-.076.032-.077.032-.076.03-.076.028-.077.028-.078.026-.079.025-.079.024-.079.022-.079.021-.081.02-.081.019-.081.017-.081.016-.082.014-.082.013-.082.012-.083.011-.083.009-.083.007-.084.007-.084.005-.084.003-.084.002-.076.001h-4.938l-.087-.001-.099-.004-.099-.006-.098-.008-.098-.011-.097-.014-.098-.015-.096-.018-.095-.021-.096-.023-.094-.024-.094-.028-.093-.029-.093-.032-.091-.034-.09-.036-.09-.039-.088-.04-.089-.043-.087-.046-.085-.046-.084-.049-.083-.051-.083-.054-.081-.056-.079-.057-.079-.059-.077-.062-.074-.062-.076-.067-.073-.068-.061-.06-4.1-4.099-.071-.073-.078-.086-.075-.087-.074-.09-.071-.093-.068-.094-.064-.094-.062-.097-.06-.101-.057-.101-.053-.102-.05-.104-.048-.105-.045-.109-.041-.108-.034-.095-.756-2.268-.021-.066-.024-.078-.021-.077-.02-.078-.019-.081-.017-.079-.015-.075-.013-.079-.013-.082-.01-.079-.009-.079-.007-.082-.006-.08-.004-.079-.002-.079-.001-.071v-9.188l.938-.389 5.313 5.313.096.098.101.109.098.111.096.114.092.115.088.117.087.12.083.121.08.123.077.125.074.127.07.128.068.13.064.132.061.134.057.133.055.136.051.138.048.138.044.14.041.14.037.143.034.143.031.142.027.145.023.146.02.146.017.147.007.086.491.491.013.012.017-.007 2.897-1.158 1.162-3.488h9.442v4.487zm-6.556-.6-.403 1.207-.022.063-.033.088-.061.141-.072.146-.079.142-.088.137-.093.13-.102.128-.108.121-.113.113-.121.109-.126.102-.131.095-.137.088-.143.081-.135.068-.087.039-.063.026-3.375 1.35-.122.046-.141.048-.142.042-.143.036-.143.031-.144.026-.145.021-.144.015-.145.01-.145.004h-.145l-.144-.006-.143-.011-.143-.016-.142-.022-.142-.026-.14-.032-.139-.036-.138-.041-.136-.047-.135-.051-.133-.057-.131-.061-.129-.066-.128-.071-.125-.076-.121-.08-.119-.085-.117-.09-.115-.095-.111-.099-.094-.091-1.09-1.089.167.5.005.015.011.01 4.061 4.061.009.009h.012 4.896.026l.016-.001h.017l.017-.001.017-.002.016-.001.017-.002.017-.002.016-.002.016-.003.017-.003.016-.003.016-.004.016-.003.016-.004.016-.004.016-.005.016-.005.015-.004.016-.006.015-.005.016-.006.016-.006.013-.006.016-.006.015-.007.015-.008.015-.007.014-.007.015-.008.014-.008.014-.008.015-.008.013-.009.013-.008.015-.01.013-.009.014-.01.013-.009.012-.01.014-.011.013-.011.012-.009.012-.011.013-.012.012-.01.011-.011.012-.012.011-.012.012-.012.011-.012.011-.013.011-.013.01-.012.01-.013.01-.013.01-.013.01-.014.01-.014.009-.013.009-.016.009-.014.009-.014.013-.023 3.368-5.988.008-.015.001-.002v-.001-.001-.001h.001v-.002-.016-.456z"/><g stroke="#000" stroke-width="4"><path d="m24.894 17.211-1.788 3.578-7.578-3.789h-1.528v-4h2c.31 0 .617.072.894.211 1.707.853 8 4 8 4z" fill="none"/><path d="m9 13s.965 1.287 1.801 2.401c.755 1.007 1.94 1.599 3.198 1.599h.001v-4z" fill="none" stroke-linecap="round"/><path d="m25.789 9.106c.139.277.211.584.211.894v8h-4v-7.528s-.503-1.006-1.048-2.096c-.828-1.657-.673-3.635.403-5.142.485-.679.881-1.234.881-1.234 1.132 2.264 2.405 4.809 3.553 7.106z" fill="none"/><path d="m24.828 10-2.828 2.828s-1.944-1.944-3.365-3.365c-.918-.917-1.333-2.224-1.113-3.503.226-1.318.478-2.788.478-2.788z" fill="#565656" fill-rule="nonzero"/></g><path d="m19.737 30c1.089 0 2.093-.587 2.627-1.536 1.042-1.853 2.734-4.86 3.377-6.003.17-.302.259-.643.259-.99 0-.861 0-2.471 0-2.471h-6s-.575 1.726-.853 2.56c-.093.279-.305.503-.578.612-.735.294-2.259.904-3.345 1.338-.742.297-1.591.123-2.157-.443-.521-.521-1.067-1.067-1.067-1.067s0-.139 0-.343c0-1.061-.421-2.078-1.172-2.829-1.18-1.18-2.828-2.828-2.828-2.828v5.675c0 .215.035.429.103.633.177.532.542 1.627.748 2.244.098.295.263.562.483.782l4.08 4.08c.375.375.884.586 1.414.586z" fill="#7f531d"/><path d="m24.828 10-2.828 2.828s-1.944-1.944-3.365-3.365c-.918-.917-1.333-2.224-1.113-3.503.226-1.318.478-2.788.478-2.788z" fill="#663a1d" fill-rule="nonzero"/><path d="m23.528 19-1.528-.764v-4.472l.156-.764 3.685 2 .159.764v3.236z" fill="#663a1d"/><path d="m22 13.764v-3.292s-.503-1.006-1.048-2.096c-.828-1.657-.673-3.635.403-5.142.485-.679.881-1.234.881-1.234 1.132 2.264 2.405 4.809 3.553 7.106.139.277.211.584.211.894v5.764z" fill="#7f531d"/><path d="m24.894 17.211-1.788 3.578-7.578-3.789h-1.528v-4h2c.31 0 .617.072.894.211 1.707.853 8 4 8 4z" fill="#7f531d" fill-rule="nonzero"/><path d="m9 13s.965 1.286 1.8 2.4c.755 1.007 1.941 1.6 3.2 1.6h1v-4z" fill="#7f531d"/><circle cx="24" cy="19" fill="#7f531d" r="2"/></g></svg>