<svg clip-rule="evenodd" fill-rule="evenodd" stroke-linecap="round" stroke-miterlimit="1.5" viewBox="0 0 32 32" xmlns="http://www.w3.org/2000/svg" xmlns:xlink="http://www.w3.org/1999/xlink"><clipPath id="a"><path clip-rule="evenodd" d="m14.5 2h1.238c4.735 0 8.939 3.03 10.436 7.521 1.247 3.743 2.493 7.479 2.493 7.479s-1.088 0-2.338 0c-2.249 0-4.309-1.257-5.336-3.258-1.827-3.553-4.493-8.742-4.493-8.742h-5z"/></clipPath><clipPath id="b"><path clip-rule="evenodd" d="m18 22h-5l-1-1-3-1-2-1-2-2v-5h13z"/></clipPath><path d="m0 0h32v32h-32z" fill="none"/><path d="m11.144 5.502.12.006.119.008.119.012.119.015.119.018.118.021.117.025.116.027.116.031.115.034.114.036.113.04.112.043.111.046.109.048.109.052.106.054.106.057.103.06.102.063.101.065.098.069.097.07.095.073.093.076.09.078.089.081.087.083.084.085.082.087.079.09.078.092.074.093.073.096.069.097.067.1.065.101.061.102.059.105.056.106.053.107.051.109.047.11.045.111.041.112.039.114.035.114.033.115.029.117.026.116.023.118.02.118.017.119.014.119.011.119.007.12.004.119.001.12-.002.12-.006.12-.008.119-.012.119-.015.119-.018.119-.021.118-.025.117-.027.116-2 8-.031.116-.034.115-.036.114-.04.113-.043.112-.046.111-.048.109-.052.109-.054.106-.057.106-.06.103-.063.102-.065.101-.069.098-.07.097-.073.095-.076.093-.078.09-.081.089-.083.087-.085.084-.087.082-.09.079-.092.078-.093.074-.096.073-.097.069-.1.067-.101.065-.102.061-.105.059-.106.056-.107.053-.109.051-.11.047-.111.045-.112.041-.114.039-.114.035-.115.033-.117.029-.116.026-.118.023-.118.02-.119.017-.119.014-.119.011-.12.007-.119.004-.12.001-.12-.002-.12-.006-.119-.008-.119-.012-.119-.015-.119-.018-.118-.021-.117-.025-.116-.027-.116-.031-.115-.034-.114-.036-.113-.04-.112-.043-.111-.046-.109-.048-.109-.052-.106-.054-.106-.057-.103-.06-.102-.063-.101-.065-.098-.069-.097-.07-.095-.073-.093-.076-.09-.078-.089-.081-.087-.083-.084-.085-.082-.087-.079-.09-.078-.092-.074-.093-.073-.096-.069-.097-.067-.1-.065-.101-.061-.102-.059-.105-.056-.106-.053-.107-.051-.109-.047-.11-.045-.111-.041-.112-.039-.114-.035-.114-.033-.115-.029-.117-.026-.116-.023-.118-.02-.118-.017-.119-.014-.119-.011-.119-.007-.12-.004-.119-.001-.12.002-.12.006-.12.008-.119.012-.119.015-.119.018-.119.021-.118.025-.117.027-.116 2-8 .031-.116.034-.115.036-.114.04-.113.043-.112.046-.111.048-.109.052-.109.054-.106.057-.106.06-.103.063-.102.065-.101.069-.098.07-.097.073-.095.076-.093.078-.09.081-.089.083-.087.085-.084.087-.082.09-.079.092-.078.093-.074.096-.073.097-.069.1-.067.101-.065.102-.061.105-.059.106-.056.107-.053.109-.051.11-.047.111-.045.112-.041.114-.039.114-.035.115-.033.117-.029.116-.026.118-.023.118-.02.119-.017.119-.014.119-.011.12-.007.119-.004.12-.001.12.002z"/><path d="m19.681 4.504.181.011.18.018.18.025.178.033.177.04.175.047.173.054.171.06.168.068.165.074.162.081.159.088.155.094.151.1.147.106.143.111.138.118.133.123.128.128.123.133.118.138.112.143.105.147.1.151.094.155.088.159.081.162.074.165.068.168.06.171.054.173.047.175.04.177.033.178.025.18.018.18.011.181.004.181v18.5l-.004.181-.011.181-.018.18-.025.18-.033.178-.04.177-.047.175-.054.173-.06.171-.068.168-.074.165-.081.162-.088.159-.094.155-.1.151-.105.147-.112.143-.118.138-.123.133-.128.128-.133.123-.138.118-.143.111-.147.106-.151.1-.155.094-.159.088-.162.081-.165.074-.168.068-.171.06-.173.054-.175.047-.177.04-.178.033-.18.025-.18.018-.181.011-.181.004-.181-.004-.181-.011-.18-.018-.18-.025-.178-.033-.177-.04-.175-.047-.173-.054-.171-.06-.168-.068-.165-.074-.162-.081-.159-.088-.155-.094-.151-.1-.147-.106-.143-.111-.138-.118-.133-.123-.128-.128-.123-.133-.118-.138-.111-.143-.106-.147-.1-.151-.094-.155-.088-.159-.081-.162-.074-.165-.068-.168-.06-.171-.054-.173-.047-.175-.04-.177-.033-.178-.025-.18-.018-.18-.011-.181-.004-.181v-18.5l.004-.181.011-.181.018-.18.025-.18.033-.178.04-.177.047-.175.054-.173.06-.171.068-.168.074-.165.081-.162.088-.159.094-.155.1-.151.106-.147.111-.143.118-.138.123-.133.128-.128.133-.123.138-.118.143-.111.147-.106.151-.1.155-.094.159-.088.162-.081.165-.074.168-.068.171-.06.173-.054.175-.047.177-.04.178-.033.18-.025.18-.018.181-.011.181-.004z"/><path d="m15.003.004.137.002.137.006.137.011.136.015.136.019.135.023.135.027.134.031.132.035.132.039.13.044.129.047.127.051.126.055.124.059.122.062.12.067.118.07.116.073.114.077.111.08.109.084.106.087.104.09.1.094.098.096.095.099.091.103.089.104.085.108.082.11.079.113.075.114.071.118.068.119.065.121.06.123.057.125.053.127.049.128.045.13.041.131.037.132.033.133.029.134.025.135.021.136.017.136.012.137.008.137.005.137-.001.137-.004.137-.008.137-.013.137-.017.136-.021.136-.025.135-.029.134-.033.133-.037.132-.042.131-.045.13-.049.128-.053.126-.057.125-.061.123-.064.121-.068.12-.072.117-.075.114-.079.113-.082.11-.085.107-.089.105-.092.102-.095.099-.097.097-.101.093-.104.09-.106.087-.109.083-.111.081-.114.077-.116.073-.118.07-.12.066-.122.062-.125.059-.125.055-.128.051-.129.047-.13.043-.132.039-.132.035-.134.031-.135.027-.135.023-.136.019-.136.014-.137.011-.137.006-.137.002-1.019-.001-.047.001h-.034l-.033.001-.034.001-.034.002-.033.002-.034.002-.034.003-.033.003-.033.003-.032.004-.033.004-.033.004-.033.005-.033.005-.032.005-.032.006-.032.006-.032.006-.032.007-.032.007-.031.007-.032.008-.032.008-.031.008-.031.008-.031.009-.032.01-.03.009-.03.01-.032.01-.03.011-.03.01-.031.011-.03.012-.029.011-.03.012-.031.013-.029.012-.029.013-.03.013-.029.014-.029.014-.028.014-.029.014-.03.015-.027.015-.029.015-.029.016-.027.015-.028.016-.027.017-.028.016-.027.018-.028.017-.026.017-.027.018-.026.018-.028.019-.026.018-.025.019-.025.019-.027.02-.026.02-.024.019-.025.02-.025.02-.025.022-.024.02-.024.021-.025.022-.023.022-.024.022-.023.021-.022.022-.024.023-.023.024-.023.023-.021.022-.022.024-.022.024-.022.024-.021.024-.02.024-.021.025-.021.025-.02.025-.02.025-.019.025-.019.025-.02.027-.019.026-.019.027-.019.027-.017.025-.018.027-.017.027-.017.027-.017.027-.017.029-.017.028-.016.027-.016.028-.015.028-.016.029-.015.029-.015.03-.014.028-.014.029-.015.031-.013.029-.014.03-.012.029-.013.031-.013.032-.011.028-.012.031-.012.033-.012.031-.01.031-.011.031-.01.033-.011.033-.009.031-.01.032-.009.034-.008.032-.012.045-1.174 4.697-.036.133-.039.132-.043.13-.048.129-.051.127-.055.126-.059.124-.062.122-.067.12-.07.118-.073.116-.077.114-.081.111-.083.108-.087.107-.091.103-.093.101-.096.097-.1.095-.102.092-.105.088-.108.085-.11.082-.112.079-.115.075-.117.071-.12.068-.121.064-.123.061-.125.057-.127.053-.128.049-.129.045-.131.041-.133.037-.133.033-.134.029-.135.025-.136.02-.136.017-.137.012-.137.008-.137.005-.137-.001-.137-.004-.137-.008-.137-.013-.136-.017-.136-.021-.135-.025-.134-.029-.133-.034-.132-.037-.131-.041-.129-.045-.128-.05-.127-.053-.125-.057-.123-.061-.121-.064-.119-.068-.117-.072-.115-.075-.112-.079-.11-.082-.108-.086-.105-.088-.102-.092-.099-.095-.096-.098-.093-.101-.09-.103-.087-.106-.084-.109-.08-.112-.077-.113-.073-.116-.07-.119-.066-.12-.062-.122-.059-.124-.055-.126-.05-.128-.048-.129-.043-.13-.039-.131-.035-.133-.031-.134-.027-.134-.022-.136-.019-.136-.015-.136-.01-.137-.006-.137-.002-.137.002-.138.007-.137.01-.137.015-.136.019-.136.023-.135.027-.135.031-.133 1.18-4.721.029-.113.034-.127.035-.124.036-.124.038-.126.038-.122.039-.121.042-.123.042-.123.044-.12.044-.119.046-.119.048-.121.048-.118.049-.116.051-.119.052-.116.053-.115.054-.114.055-.115.057-.114.057-.112.059-.112.059-.111.061-.111.062-.11.064-.109.064-.108.064-.107.067-.107.067-.106.068-.105.07-.105.071-.104.071-.102.072-.102.073-.101.073-.099.076-.1.076-.099.078-.098.078-.097.079-.096.08-.095.081-.094.082-.094.083-.092.083-.091.084-.091.087-.09.086-.089.086-.087.088-.087.089-.086.091-.086.09-.084.092-.084.091-.081.094-.082.094-.081.094-.079.095-.078.097-.077.098-.078.097-.075.098-.074.099-.074.101-.073.101-.071.101-.07.102-.07.104-.068.104-.068.104-.066.104-.065.106-.065.107-.063.107-.062.109-.061.108-.06.109-.059.11-.058.11-.056.111-.056.112-.054.112-.054.113-.052.114-.051.114-.05.115-.049.115-.048.115-.046.117-.046.117-.044.117-.043.119-.042.119-.041.118-.039.119-.038.121-.037.12-.036.121-.035.122-.033.122-.032.123-.031.122-.03.124-.028.124-.027.124-.026.125-.025.125-.023.125-.022.126-.021.126-.019.126-.019.127-.016.127-.016.127-.014.128-.013.129-.011.128-.011.128-.008.129-.008.129-.006.129-.005.131-.003.129-.002.118-.001 1.043.001z"/><path d="m14.5 2h1.238c4.735 0 8.939 3.03 10.436 7.521 1.247 3.743 2.493 7.479 2.493 7.479s-1.088 0-2.338 0c-2.249 0-4.309-1.257-5.336-3.258-1.827-3.553-4.493-8.742-4.493-8.742h-5z"/><path d="m15.869.001.131.002.13.003.131.004.13.006.129.007.129.009.13.009.129.011.128.013.129.013.128.015.127.016.128.017.127.019.127.019.126.021.126.022.126.024.125.024.125.026.125.027.124.028.123.029.124.031.123.032.122.033.122.034.122.035.121.036.121.038.12.039.12.039.119.041.12.043.118.043.118.044.117.045.117.047.116.048.116.049.115.049.115.051.114.052.114.053.113.055.113.055.111.056.112.058.111.058.11.059.109.061.109.061.108.063.108.064.107.064.106.066.106.066.105.068.104.068.104.07.104.071.102.071.101.073.102.073.1.075.099.075.099.077.098.077.098.078.096.08.096.08.095.081.095.082.093.083.093.084.092.085.091.085.091.087.09.087.088.089.088.089.087.09.087.091.085.092.085.093.084.093.082.095.082.095.081.096.081.097.079.098.078.098.078.1.077.1.076.102.074.102.074.102.073.104.072.104.071.105.069.105.069.107.069.108.066.108.066.109.065.109.064.111.063.111.062.112.061.112.06.114.059.114.057.114.057.116.056.116.054.117.053.117.053.118.051.119.05.12.049.12.048.121.046.121.046.122.044.123.043.123.041.119 3.208 9.624-.355.492h-4.602l-.132-.001-.14-.004-.139-.006-.139-.008-.139-.011-.138-.014-.138-.015-.137-.018-.136-.02-.136-.023-.136-.025-.134-.027-.134-.03-.133-.031-.133-.034-.132-.037-.131-.038-.13-.041-.13-.042-.128-.045-.127-.047-.127-.05-.126-.051-.125-.053-.124-.056-.122-.057-.122-.06-.121-.061-.119-.064-.119-.065-.117-.068-.116-.07-.115-.071-.114-.073-.112-.076-.111-.077-.111-.08-.108-.08-.107-.083-.106-.085-.104-.087-.104-.088-.101-.09-.101-.092-.098-.094-.097-.095-.096-.098-.094-.099-.092-.1-.091-.103-.089-.104-.088-.105-.085-.108-.085-.109-.082-.11-.08-.112-.079-.114-.077-.115-.075-.117-.073-.118-.071-.12-.069-.122-.067-.122-.061-.117-3.939-7.664h-6.198l-.706-1.704 5.297-5.296h2.071l.126.001zm6.899 12.82.036.07.034.061.035.061.035.06.037.059.037.058.039.058.039.057.04.056.041.055.042.054.043.054.044.053.044.052.045.051.047.05.047.05.047.048.049.048.049.047.05.046.051.045.052.044.052.043.053.042.054.042.054.041.055.039.055.039.057.038.057.036.057.036.058.035.059.034.059.033.06.031.06.031.061.03.062.029.062.028.062.026.063.026.063.024.064.024.064.022.065.022.065.02.065.019.066.018.066.017.067.016.067.015.067.013.067.013.068.011.069.01.068.009.041.005-1.605-4.816-.031-.091-.03-.086-.03-.085-.032-.084-.032-.085-.034-.084-.033-.083-.035-.082-.036-.083-.036-.082-.037-.081-.037-.081-.039-.08-.039-.08-.04-.08-.041-.079-.041-.078-.042-.077-.043-.078-.043-.077-.044-.076-.045-.076-.046-.075-.047-.075-.046-.074-.048-.074-.049-.073-.049-.073-.049-.072-.05-.071-.052-.072-.052-.07-.052-.07-.053-.069-.053-.069-.055-.068-.055-.068-.055-.067-.056-.066-.057-.067-.057-.065-.058-.064-.059-.065-.059-.064-.06-.062-.06-.063-.061-.062-.062-.061-.061-.06-.063-.06-.064-.06-.063-.058-.064-.058-.065-.058-.066-.057-.066-.056-.066-.056-.067-.055-.067-.054-.068-.053-.069-.053-.069-.053-.069-.051-.07-.051-.071-.05-.071-.05-.071-.049-.072-.048-.072-.048-.073-.047-.073-.046-.074-.045-.074-.045-.075-.044-.075-.043-.075-.043-.076-.042-.076-.041-.077-.04-.077-.04-.078-.039-.078-.038-.078-.038-.079-.037-.079-.036-.079-.035-.08-.034-.08-.034-.081-.033-.08-.032-.082-.032-.081-.031-.082-.029-.082-.029-.083-.029-.083-.027-.083-.027-.002-.001z"/><path d="m22 27.5c0 .663-.263 1.299-.732 1.768s-1.105.732-1.768.732-1.299-.263-1.768-.732-.732-1.105-.732-1.768c0-4.945 0-15.5 0-15.5h5z" stroke="#000" stroke-width="2"/><path d="m14.194 6.008.13.008.129.011.129.015.128.018.128.023.127.026.126.029.126.034.124.036.123.041.122.044.121.047.119.051.118.055.116.057.115.061.112.065.111.067.109.071.106.074.105.076.102.08.1.083.097.086.095.088.093.091.09.094.086.096.085.099.081.101.078.103.076.106.072.107.069.11.066.112.063.113.059.116.056.117.053.118.049.12.045.121.043.123.038.124.035.125.032.126.028.126.024.128.02.128.017.128.013.129.009.13.006.129.002.13v9.496l-.002.13-.006.129-.009.13-.013.129-.017.128-.02.128-.024.128-.028.126-.032.126-.035.125-.038.124-.043.123-.045.121-.049.12-.053.118-.056.117-.059.116-.063.113-.066.112-.069.11-.072.107-.076.106-.078.103-.081.101-.085.099-.086.096-.09.094-.093.091-.095.088-.097.086-.1.083-.102.079-.105.077-.106.074-.109.071-.111.067-.112.065-.115.061-.116.057-.118.055-.119.051-.121.047-.122.044-.123.041-.124.036-.126.034-.126.029-.127.026-.128.023-.128.018-.129.015-.129.011-.13.008-.129.004h-.13l-.13-.004-.129-.008-.129-.011-.129-.015-.128-.018-.128-.023-.127-.026-.126-.029-.126-.034-.124-.036-.123-.041-.122-.044-.121-.047-.119-.051-.118-.055-.116-.057-.115-.061-.112-.065-.111-.067-.109-.071-.106-.074-.105-.077-.102-.079-.1-.083-.098-.086-.094-.088-.093-.091-.09-.094-.087-.096-.084-.099-.081-.101-.078-.103-.076-.106-.072-.107-.069-.11-.066-.112-.063-.113-.059-.116-.056-.117-.053-.118-.049-.12-.046-.121-.042-.123-.038-.124-.035-.125-.032-.126-.028-.126-.024-.128-.02-.128-.017-.128-.013-.129-.01-.13-.005-.129-.002-.13v-9.496l.002-.13.005-.129.01-.13.013-.129.017-.128.02-.128.024-.128.028-.126.032-.126.035-.125.038-.124.042-.123.046-.121.049-.12.053-.118.056-.117.059-.116.063-.113.066-.112.069-.11.072-.107.076-.106.078-.103.081-.101.084-.099.087-.096.09-.094.093-.091.094-.088.098-.086.1-.083.102-.08.105-.076.106-.074.109-.071.111-.067.112-.065.115-.061.116-.057.118-.055.119-.051.121-.047.122-.044.123-.041.124-.036.126-.034.126-.029.127-.026.128-.023.128-.018.129-.015.129-.011.129-.008.13-.004h.13z"/><path d="m18 22h-5l-1-1-3-1-2-1-2-2v-5h13z" fill="#417e29"/><g fill="#b1ed9b"><path d="m11.077 7.501.089.005.089.007.089.011.088.014.087.017.087.02.087.023.085.026.084.029.083.033.082.035.081.038.079.041.078.044.076.046.075.049.072.052.071.055.069.057.067.059.064.062.062.063.06.067.058.068.055.07.053.072.049.074.048.076.044.077.042.079.039.08.036.082.033.083.03.084.027.085.024.086.021.087.018.087.015.088.011.089.009.088.005.089.002.09-.001.089-.005.089-.007.089-.011.089-.014.088-.017.087-.02.087-2 8-.023.087-.026.085-.029.084-.033.083-.035.082-.038.081-.041.079-.044.078-.046.076-.049.075-.052.072-.055.071-.057.069-.059.067-.062.064-.063.062-.067.06-.068.058-.07.055-.072.053-.074.049-.076.048-.077.044-.079.042-.08.039-.082.036-.083.033-.084.03-.085.027-.086.024-.087.021-.087.018-.088.015-.089.011-.088.009-.089.005-.09.002-.089-.001-.089-.005-.089-.007-.089-.011-.088-.014-.087-.017-.087-.02-.087-.023-.085-.026-.084-.029-.083-.033-.082-.035-.081-.038-.079-.041-.078-.044-.076-.046-.075-.049-.072-.052-.071-.055-.069-.057-.067-.059-.064-.062-.062-.063-.06-.067-.058-.068-.055-.07-.053-.072-.049-.074-.048-.076-.044-.077-.042-.079-.039-.08-.036-.082-.033-.083-.03-.084-.027-.085-.024-.086-.021-.087-.018-.087-.015-.088-.011-.089-.009-.088-.005-.089-.002-.09.001-.089.005-.089.007-.089.011-.089.014-.088.017-.087.02-.087 2-8 .023-.087.026-.085.029-.084.033-.083.035-.082.038-.081.041-.079.044-.078.046-.076.049-.075.052-.072.055-.071.057-.069.059-.067.062-.064.063-.062.067-.06.068-.058.07-.055.072-.053.074-.049.076-.048.077-.044.079-.042.08-.039.082-.036.083-.033.084-.03.085-.027.086-.024.087-.021.087-.018.088-.015.089-.011.088-.009.089-.005.09-.002.089.001z"/><path d="m14.145 8.008.097.008.096.011.096.015.095.019.095.022.093.026.092.03.091.033.09.036.088.041.087.043.085.047.083.05.081.053.079.057.077.059.074.062.072.066.069.067.066.071.064.073.061.075.058.078.055.08.051.082.049.084.045.086.042.087.038.089.035.091.032.092.027.093.025.093.02.095.017.096.013.096.009.096.006.097.002.097v9.496l-.002.097-.006.097-.009.096-.013.096-.017.096-.02.095-.025.093-.027.093-.032.092-.035.091-.038.089-.042.087-.045.086-.049.084-.051.082-.055.08-.058.078-.061.075-.064.073-.066.071-.069.067-.072.066-.074.062-.077.059-.079.057-.081.053-.083.05-.085.047-.087.043-.088.041-.09.036-.091.033-.092.03-.093.026-.095.022-.095.019-.096.015-.096.011-.097.008-.097.004h-.097l-.096-.004-.097-.008-.096-.011-.096-.015-.095-.019-.095-.022-.093-.026-.092-.03-.091-.033-.09-.036-.088-.041-.087-.043-.085-.047-.083-.05-.081-.053-.079-.057-.077-.059-.074-.062-.072-.066-.069-.067-.066-.071-.064-.073-.061-.075-.058-.078-.055-.08-.051-.082-.049-.084-.045-.086-.042-.087-.038-.089-.035-.091-.032-.092-.027-.093-.025-.093-.02-.095-.017-.096-.013-.096-.01-.096-.005-.097-.002-.097v-9.496l.002-.097.005-.097.01-.096.013-.096.017-.096.02-.095.025-.093.027-.093.032-.092.035-.091.038-.089.042-.087.045-.086.049-.084.051-.082.055-.08.058-.078.061-.075.064-.073.066-.071.069-.067.072-.066.074-.062.077-.059.079-.057.081-.053.083-.05.085-.047.087-.043.088-.041.09-.036.091-.033.092-.03.093-.026.095-.022.095-.019.096-.015.096-.011.097-.008.096-.004h.097z"/><path d="m14.5 2h1.238c4.735 0 8.939 3.03 10.436 7.521 1.247 3.743 2.493 7.479 2.493 7.479s-1.088 0-2.338 0c-2.249 0-4.309-1.257-5.336-3.258-1.827-3.553-4.493-8.742-4.493-8.742h-5z"/></g><g clip-path="url(#a)"><path d="m22 18h2s0-3.84 0-5.71c0-.552-.448-1-1-1s-1 .448-1 1z" fill="#7ac85b"/></g><path d="m15.102 2.006.102.006.101.011.101.014.1.019.1.022.098.027.098.031.096.035.094.038.093.043.091.046.089.049.087.054.084.057.083.06.079.064.077.066.075.07.071.073.068.076.066.078.062.081.058.084.055.086.052.088.048.09.044.091.041.094.036.095.033.097.029.098.024.099.021.1.017.1.012.101.008.102.004.102v.102l-.004.102-.008.102-.012.101-.017.1-.021.1-.024.099-.029.098-.033.097-.036.095-.041.093-.044.092-.048.09-.052.088-.055.086-.058.084-.062.081-.066.078-.068.076-.071.073-.075.07-.077.066-.079.064-.083.06-.084.057-.087.053-.089.05-.091.046-.093.043-.094.038-.096.035-.098.031-.098.026-.1.023-.1.019-.101.014-.101.011-.102.006-.102.002h-1.029-.062l-.055.001-.056.002-.054.002-.055.002-.055.004-.055.003-.054.005-.054.005-.055.005-.053.006-.054.007-.054.007-.053.007-.053.009-.054.008-.053.01-.052.01-.053.01-.052.011-.053.011-.051.012-.052.013-.052.013-.051.014-.052.014-.051.014-.051.015-.05.016-.05.016-.051.017-.05.017-.05.018-.049.018-.05.019-.049.019-.049.019-.049.021-.048.02-.048.021-.048.022-.048.022-.047.023-.047.023-.048.023-.047.025-.046.024-.046.025-.046.025-.046.026-.045.027-.045.026-.045.027-.045.028-.044.028-.044.029-.044.029-.043.03-.043.03-.043.03-.043.031-.041.031-.042.031-.042.033-.041.032-.041.033-.041.033-.039.034-.04.034-.04.035-.039.035-.039.035-.038.035-.038.037-.038.036-.037.037-.037.037-.037.038-.036.038-.036.038-.035.039-.035.039-.035.04-.034.04-.034.04-.033.04-.033.041-.033.042-.033.042-.031.042-.031.041-.031.043-.031.044-.03.043-.029.043-.03.045-.029.044-.028.045-.028.045-.028.045-.027.046-.026.046-.026.046-.026.047-.025.046-.025.048-.024.048-.024.048-.023.047-.023.048-.023.05-.022.049-.021.05-.021.049-.02.049-.02.051-.02.051-.019.05-.018.052-.018.051-.017.052-.017.052-.017.052-.015.052-.016.054-.015.052-.014.054-.016.061-1.175 4.699-.027.098-.031.098-.035.096-.038.094-.043.093-.046.091-.05.089-.053.087-.057.084-.06.082-.064.08-.067.077-.07.074-.073.072-.075.068-.079.065-.081.062-.083.059-.086.055-.088.051-.09.048-.092.045-.094.04-.095.037-.097.032-.097.029-.099.025-.1.02-.101.017-.101.012-.102.008-.102.005h-.102l-.102-.005-.101-.008-.101-.013-.101-.016-.1-.021-.099-.025-.098-.028-.096-.033-.096-.037-.093-.04-.092-.045-.09-.048-.088-.051-.086-.055-.083-.059-.081-.062-.079-.065-.075-.069-.073-.071-.07-.074-.067-.077-.063-.08-.06-.083-.057-.084-.054-.087-.049-.089-.047-.091-.042-.093-.038-.094-.035-.096-.031-.098-.026-.098-.023-.099-.019-.101-.014-.101-.01-.101-.007-.102-.002-.102.002-.102.007-.102.01-.101.015-.101.018-.1.023-.1 1.18-4.713.025-.098.028-.105.029-.105.03-.103.031-.103.033-.104.033-.102.034-.101.035-.102.037-.101.037-.1.038-.1.04-.099.04-.099.042-.098.042-.098.043-.097.044-.095.045-.096.047-.097.047-.094.048-.094.049-.093.049-.093.051-.092.052-.092.053-.091.053-.09.054-.09.056-.089.056-.088.057-.088.057-.087.059-.086.06-.087.06-.084.061-.084.062-.085.063-.083.064-.082.064-.081.065-.08.066-.081.067-.08.067-.078.069-.078.069-.077.07-.077.07-.075.072-.075.072-.074.073-.074.073-.072.074-.073.075-.071.076-.07.077-.07.076-.068.078-.068.078-.067.08-.067.079-.065.081-.065.081-.064.081-.063.082-.062.084-.062.083-.06.084-.06.085-.059.085-.058.086-.057.087-.056.087-.056.088-.054.088-.054.089-.053.09-.052.09-.051.09-.05.091-.049.092-.048.092-.048.093-.046.093-.046.094-.044.094-.044.095-.042.095-.042.096-.041.096-.04.097-.039.097-.038.097-.037.099-.036.098-.035.099-.034.099-.032.1-.032.1-.031.101-.03.101-.029.101-.028.102-.027.102-.026.103-.025.103-.023.103-.023.104-.022.104-.02.104-.02.105-.018.104-.018.106-.016.105-.015.106-.014.106-.013.107-.012.106-.011.107-.009.107-.009.108-.007.107-.007.108-.005.108-.004.108-.003.109-.002h.102 1.042l.102.002z" fill="#b1ed9b"/><path d="m10 19h11v-11l-2-3-9 2z" fill="#b1ed9b"/><path d="m22 27.5c0 1.381-1.119 2.5-2.5 2.5s-2.5-1.119-2.5-2.5c0-5.567 0-18.5 0-18.5h5z" fill="#b1ed9b"/><path d="m18 22h-5l-1-1-3-1-2-1-2-2v-5h13z" fill="none"/><g clip-path="url(#b)" fill="none" stroke="#417e29"><path d="m16.5 27v-9.5"/><path d="m12 16-1.125 5"/><path d="m7 14-1.25 5"/></g></svg>