<svg clip-rule="evenodd" fill-rule="evenodd" stroke-linejoin="round" stroke-miterlimit="1.41421" viewBox="0 0 32 32" xmlns="http://www.w3.org/2000/svg" xmlns:xlink="http://www.w3.org/1999/xlink"><clipPath id="a"><path clip-rule="evenodd" d="m0 0h32v32h-32z"/></clipPath><path d="m0 0h32v32h-32z" fill="none"/><g clip-path="url(#a)"><path d="m7.154 15.002.153.006.153.009.151.014.151.017.149.021.149.024.147.029.146.032.145.035.143.039.142.042.141.046.139.049.137.052.136.055.134.059.132.062.131.064.128.068.127.071.125.074.123.076.12.08.119.082.116.085.114.088.113.09.109.092.108.096.105.098.103.1.1.103.098.105.095.108.093.11.09.112.088.114.085.116.082.119.08.121.076.122.074.125.071.127.068.128.064.131.062.132.059.134.055.136.052.137.05.139.045.141.042.141.039.144.035.144.032.147.029.148.024.148.021.15.017.15.014.151.009.153.006.154.002.14v.185l.528.527.012.012.017-.005 3.862-1.287 1.064-3.194 9.517-1.586v5.849l-.002.112-.006.129-.01.129-.015.127-.018.128-.023.127-.026.125-.031.124-.034.124-.039.123-.042.121-.046.12-.05.118-.054.117-.059.116-.053.1-3.393 6.031-.038.066-.043.072-.044.072-.045.07-.047.07-.047.069-.049.067-.05.068-.051.066-.051.065-.053.064-.054.063-.055.063-.055.06-.057.061-.058.059-.058.058-.058.057-.061.056-.061.055-.062.054-.063.053-.063.052-.065.051-.065.049-.065.049-.067.048-.068.046-.067.045-.07.044-.069.043-.071.042-.07.041-.071.039-.073.039-.073.037-.073.036-.074.035-.075.033-.075.033-.076.031-.076.03-.077.028-.078.028-.077.026-.079.025-.079.024-.079.022-.079.021-.081.02-.081.019-.081.017-.081.016-.082.014-.082.013-.083.012-.082.011-.083.009-.083.007-.084.007-.084.005-.084.003-.084.002-.076.001h-5.938l-.087-.001-.099-.004-.098-.006-.099-.008-.098-.011-.097-.014-.097-.015-.097-.018-.095-.021-.096-.023-.094-.024-.094-.028-.093-.029-.093-.032-.091-.034-.09-.036-.09-.039-.089-.04-.087-.043-.087-.045-.086-.047-.085-.05-.083-.051-.081-.053-.082-.055-.08-.058-.078-.059-.077-.062-.076-.063-.073-.066-.073-.067-.062-.061-4.099-4.099-.071-.073-.079-.086-.076-.088-.073-.09-.071-.091-.067-.094-.066-.096-.062-.098-.059-.098-.057-.101-.053-.103-.051-.104-.047-.106-.045-.107-.041-.108-.034-.096-.756-2.268-.022-.067-.023-.078-.021-.077-.02-.077-.019-.079-.017-.079-.015-.079-.013-.078-.013-.08-.01-.08-.009-.08-.007-.08-.006-.08-.004-.081-.002-.08-.001-.07v-6.711l2.154.027zm14.363 5.773-.466 1.397-.025.07-.031.081-.034.082-.036.081-.038.077-.041.077-.041.075-.046.075-.047.074-.048.07-.052.072-.052.067-.054.067-.057.065-.059.065-.06.062-.06.058-.064.059-.066.057-.067.055-.068.052-.07.05-.071.049-.073.047-.074.045-.076.042-.078.041-.079.038-.08.036-.08.034-.082.032-.07.024-4.384 1.461-.118.037-.136.038-.136.032-.137.028-.138.022-.137.018-.138.013-.138.009-.138.003-.138-.001-.137-.006-.137-.011-.136-.015-.135-.02-.134-.025-.134-.029-.132-.034-.132-.038-.13-.042-.128-.048-.127-.051-.125-.056-.124-.061-.122-.064-.12-.069-.117-.074-.115-.077-.113-.082-.111-.086-.107-.09-.105-.094-.089-.087-1.148-1.147.167.5.005.015.01.01 4.061 4.061.009.009h.013 5.896.025l.018-.001h.016l.017-.001.017-.002.016-.001.017-.002.017-.002.016-.002.016-.003.017-.003.016-.003.016-.004.016-.003.016-.004.016-.004.016-.005.016-.005.015-.005.016-.005.015-.005.015-.006.016-.006.015-.006.015-.007.015-.006.015-.007.015-.008.014-.007.014-.008.015-.008.015-.008.014-.008.013-.009.014-.009.014-.009.013-.009.013-.009.014-.01.013-.01.013-.01.013-.011.012-.01.013-.011.011-.011.012-.011.012-.012.012-.012.011-.011.011-.012.012-.013.011-.012.01-.012.011-.013.01-.013.011-.014.009-.012.01-.014.01-.014.009-.014.009-.014.009-.014.009-.015.013-.023 3.368-5.988.008-.015v-.001l.001-.001v-.001-.001l.001-.001v-.001-.001-.017-1.094z"/><path d="m16 19h-3.013l-.141-.002-.153-.006-.152-.009-.152-.014-.151-.017-.149-.021-.149-.024-.147-.029-.146-.032-.145-.035-.143-.039-.142-.042-.141-.046-.139-.049-.137-.052-.136-.055-.134-.059-.132-.062-.131-.064-.128-.068-.127-.071-.125-.074-.122-.076-.121-.08-.119-.082-.116-.085-.114-.087-.113-.091-.109-.093-.108-.095-.105-.098-.103-.1-.1-.103-.098-.106-.096-.107-.092-.109-.091-.113-.087-.114-.085-.116-.082-.119-.08-.121-.076-.122-.074-.125-.071-.127-.068-.128-.064-.131-.062-.132-.059-.134-.055-.136-.053-.137-.048-.139-.046-.14-.042-.143-.039-.143-.035-.145-.032-.146-.028-.147-.025-.148-.021-.15-.017-.151-.014-.152-.009-.152-.006-.153-.028-2.154h9.026z"/><path d="m24 9.172v5.656s-2.871-2.87-5.173-5.173c-1.561-1.561-1.561-4.092 0-5.654.001-.001.001-.001.001-.001z" fill="none" stroke="#000" stroke-width="4"/><path d="m25.789 9.106c.139.277.211.584.211.894v11h-4v-10.528s-.759-1.518-1.554-3.107c-.474-.949-.552-2.047-.217-3.052.336-1.006 1.057-1.838 2.005-2.312.001-.001.002-.001.002-.001s2.759 5.518 3.553 7.106z" fill="none" stroke="#000" stroke-width="4"/><path d="m24.894 17.211-1.788 3.578-7.578-3.789h-1.528v-4h2c.31 0 .617.072.894.211 1.707.853 8 4 8 4z" fill="none" stroke="#000" stroke-linejoin="miter" stroke-miterlimit="3" stroke-width="4"/><path d="m19.737 30c1.089 0 2.093-.587 2.627-1.536 1.042-1.853 2.734-4.86 3.377-6.003.17-.302.259-.643.259-.99 0-1.087 0-3.471 0-3.471l-6 1s-.56 1.68-.842 2.526c-.099.298-.334.533-.632.632-.933.311-3.028 1.009-4.353 1.451-.719.24-1.511.053-2.047-.483-.538-.538-1.126-1.126-1.126-1.126s0-.412 0-1c0-2.209-1.791-4-4-4v4.675c0 .215.035.429.103.633.177.532.542 1.627.748 2.244.098.295.263.562.483.782.835.835 3.025 3.025 4.08 4.08.375.375.884.586 1.414.586z" fill="#8c2b62"/><path d="m24 9.172v5.656s-2.871-2.87-5.173-5.173c-1.561-1.561-1.561-4.092 0-5.654.001-.001.001-.001.001-.001z" fill="#731052" fill-rule="nonzero"/><path d="m23.528 19-1.528-.764v-4.472l.5-.764 3.21 2 .29.764v3.236z" fill="#731052"/><g fill="#8c2b62"><path d="m22 13.764v-3.292s-.759-1.518-1.554-3.107c-.474-.949-.552-2.047-.217-3.052.336-1.006 1.057-1.838 2.005-2.312.001-.001.002-.001.002-.001s2.759 5.518 3.553 7.106c.139.277.211.584.211.894v5.764z"/><path d="m9 13c0 1.061.421 2.078 1.172 2.828.75.751 1.767 1.172 2.828 1.172h2v-4z"/><path d="m24.894 17.211-1.788 3.578-7.578-3.789h-1.528v-4h2c.31 0 .617.072.894.211 1.707.853 8 4 8 4z" fill-rule="nonzero"/><circle cx="24" cy="19" r="2"/></g></g></svg>