<svg clip-rule="evenodd" fill-rule="evenodd" stroke-linejoin="round" stroke-miterlimit="1.41421" viewBox="0 0 32 32" xmlns="http://www.w3.org/2000/svg" xmlns:xlink="http://www.w3.org/1999/xlink"><clipPath id="a"><path clip-rule="evenodd" d="m0 0h32v32h-32z"/></clipPath><clipPath id="b"><path clip-rule="evenodd" d="m15.618 18c0-.183.05-.365.149-.526.183-.295.504-.474.851-.474h9.882v-1.496h.5v-12.004h-1.5v-1.5s-9.468 0-14.475 0c-.803 0-1.572.319-2.139.886s-.886 1.336-.886 2.139v6.253c0 1.133.264 2.249.77 3.262l1.73 3.46 2.5.5zm1.382 4v-.528c0-.31-.072-.617-.211-.894l-.789-1.578-3-.5-2 .5 1.5 3 2.5.5zm-4 1v6s1.648-1.648 2.828-2.828c.751-.751 1.172-1.768 1.172-2.829v-.343l-2-.5z"/></clipPath><path d="m0 0h32v32h-32z" fill="none"/><g clip-path="url(#a)"><path d="m12.828 32 4.423-4.423c.239-.245.461-.504.658-.784.45-.64.772-1.367.944-2.13.087-.386.131-.776.145-1.171.009-.678.002-1.356.002-2.035-.003-.227-.021-.453-.06-.677-.067-.378-.19-.739-.356-1.084l-.338-.677c2.781.011 5.562.015 8.344-.02.147-.006.294-.017.44-.039.343-.052.677-.156.989-.306.404-.195.77-.468 1.071-.8.285-.313.512-.677.667-1.07.15-.38.232-.786.242-1.194.009-.353-.035-.707-.132-1.047-.101-.356-.259-.695-.466-1.001-.009-.014-.019-.028-.029-.042.177-.253.319-.529.423-.82.136-.378.205-.779.205-1.18 0-.573-.142-1.143-.412-1.648-.065-.121-.137-.239-.216-.352.156-.223.285-.463.385-.716.15-.38.232-.786.242-1.195.009-.353-.035-.706-.132-1.046-.124-.437-.334-.848-.614-1.205-.149-.189-.317-.363-.501-.517.005-.014.01-.027.016-.04.132-.344.21-.709.228-1.077.034-.693-.14-1.391-.496-1.986-.209-.349-.478-.661-.793-.919-.267-.219-.567-.398-.886-.53-.425-.177-.879-.263-1.339-.269h-20.489l-.095.001c-.102.004-.102.004-.204.01-.398.036-.788.12-1.161.267-1.055.416-1.9 1.282-2.29 2.347-.15.41-.225.837-.242 1.273-.039 3.068-.039 6.136 0 9.204.005.136.014.27.031.405.042.329.124.652.246.96.236.598.618 1.136 1.104 1.557.39.338.846.6 1.335.766.411.138.838.205 1.27.21h2.777l3.236 6.472v8.528z"/><path d="m17.5 15s-8.523 0-12.5 0c-.53 0-1.039-.211-1.414-.586s-.586-.884-.586-1.414c0-2.444 0-6.556 0-9 0-.53.211-1.039.586-1.414s.884-.586 1.414-.586h12.5z" fill="#ce8d15"/><path d="m15.618 18c0-.183.05-.365.149-.526.183-.295.504-.474.851-.474h9.882v-1.496h.5v-12.004h-1.5v-1.5s-9.468 0-14.475 0c-.803 0-1.572.319-2.139.886s-.886 1.336-.886 2.139v6.253c0 1.133.264 2.249.77 3.262l1.73 3.46 2.5.5zm1.382 4v-.528c0-.31-.072-.617-.211-.894l-.789-1.578-3-.5-2 .5 1.5 3 2.5.5zm-4 1v6s1.648-1.648 2.828-2.828c.751-.751 1.172-1.768 1.172-2.829v-.343l-2-.5z" fill="#ffc20b"/><g clip-path="url(#b)"><path d="m19.584 14.013c-.056.05-.111.101-.165.154l-3.364 3.364.194.469c3.439 0 6.877.043 10.315-.001.369-.013.729-.099 1.06-.265.293-.148.557-.353.771-.602.199-.231.356-.5.459-.788.243-.679.177-1.447-.178-2.075-.111-.196-.249-.377-.408-.537-.084-.083-.173-.161-.267-.231.094-.071.184-.149.267-.233.199-.198.363-.43.485-.682.289-.599.325-1.303.101-1.929-.104-.288-.26-.557-.46-.789-.118-.136-.25-.26-.394-.368.078-.058.153-.122.223-.189.524-.498.81-1.214.774-1.935-.012-.245-.061-.488-.143-.719-.104-.288-.26-.557-.46-.789-.214-.249-.478-.454-.771-.602-.082-.041-.166-.077-.252-.109.428-.485.658-1.13.626-1.781-.013-.265-.069-.528-.165-.776-.11-.286-.273-.551-.479-.778-.22-.243-.488-.442-.785-.582-.316-.15-.657-.226-1.006-.239-.806-.01-1.613-.01-2.419 0-.263.01-.523.039-.78.097-.509.115-.994.33-1.421.629-.187.132-.36.28-.523.44l-3.364 3.364.194.469c.449 0 .898.001 1.347.002-.06.054-.12.109-.177.165l-3.364 3.364.194.469c1.114 0 2.227.004 3.34.009-.058.051-.115.104-.17.158l-3.364 3.364.194.469c1.445 0 2.89.007 4.335.013z" fill="#765018"/></g><path d="m16 19-.276-.553c-.071-.141-.106-.294-.106-.447h-5.118l.5 1zm1 3h-4.5l.5 1h4z" fill="#ce8d15"/><g fill="#ffc20b"><path d="m25.5 5c.398 0 .779-.158 1.061-.439.281-.282.439-.663.439-1.061s-.158-.779-.439-1.061c-.282-.281-.663-.439-1.061-.439-.721 0-1.574 0-2.257 0-.796 0-1.559.316-2.122.879-.885.885-2.121 2.121-2.121 2.121z"/><path d="m26.5 9c.398 0 .779-.158 1.061-.439.281-.282.439-.663.439-1.061s-.158-.779-.439-1.061c-.282-.281-.663-.439-1.061-.439-1.518 0-3.839 0-5.257 0-.796 0-1.559.316-2.122.879-.885.885-2.121 2.121-2.121 2.121z"/><path d="m26.502 13c.827 0 1.498-.671 1.498-1.498 0-.001 0-.001 0-.002 0-.398-.158-.779-.439-1.061-.282-.281-.663-.439-1.061-.439-1.518 0-3.839 0-5.257 0-.796 0-1.559.316-2.122.879-.885.885-2.121 2.121-2.121 2.121z"/><path d="m26.502 17c.397 0 .778-.158 1.059-.439s.439-.662.439-1.059c0-.001 0-.001 0-.002 0-.398-.158-.779-.439-1.061-.282-.281-.663-.439-1.061-.439-1.269 0-3.067 0-4.257 0-.796 0-1.559.316-2.122.879-.885.885-2.121 2.121-2.121 2.121z"/></g></g></svg>