<svg clip-rule="evenodd" fill-rule="evenodd" stroke-linejoin="round" stroke-miterlimit="1.41421" viewBox="0 0 32 32" xmlns="http://www.w3.org/2000/svg" xmlns:xlink="http://www.w3.org/1999/xlink"><clipPath id="a"><path clip-rule="evenodd" d="m0 0h32v32h-32z"/></clipPath><clipPath id="b"><path clip-rule="nonzero" d="m26.743 11.5-4.243 4.243s-2.273-2.274-4.501-4.502c-2.343-2.342-2.343-6.14 0-8.482.001-.001.001-.002.001-.002 2.914 2.915 5.828 5.829 8.743 8.743z"/></clipPath><path d="m0 0h32v32h-32z" fill="none"/><g clip-path="url(#a)"><path d="m29 21.488-.002.113-.006.128-.01.129-.015.127-.018.127-.023.128-.026.125-.031.125-.035.124-.038.121-.042.122-.047.12-.049.118-.055.118-.057.115-.054.099-3.393 6.032-.038.066-.043.072-.044.071-.046.072-.046.07-.047.067-.049.068-.05.068-.05.065-.052.065-.053.065-.054.063-.054.062-.056.062-.057.06-.057.059-.058.058-.06.057-.061.057-.06.054-.061.054-.064.053-.064.052-.064.051-.065.05-.065.048-.067.047-.068.047-.067.045-.07.044-.069.043-.07.042-.071.041-.071.039-.073.039-.073.037-.073.036-.074.035-.075.034-.076.032-.075.031-.076.03-.077.028-.078.028-.077.026-.079.025-.078.024-.08.022-.08.021-.08.02-.081.019-.081.017-.081.016-.082.014-.082.013-.082.012-.083.011-.083.009-.083.007-.084.007-.084.005-.084.003-.084.002-.076.001h-7.74l-.105-.002-.121-.005-.12-.009-.118-.013-.119-.016-.117-.019-.117-.023-.116-.027-.114-.029-.114-.034-.112-.036-.111-.04-.11-.043-.109-.046-.107-.049-.105-.052-.104-.056-.102-.058-.101-.062-.098-.064-.097-.067-.095-.07-.093-.074-.091-.076-.089-.078-.087-.082-.084-.085-.081-.086-.08-.09-.077-.092-.074-.095-.063-.085-4.043-5.66-.04-.057-.044-.066-.041-.063-.041-.067-.04-.068-.038-.067-.037-.068-.039-.077-.063-.132-.061-.142-.056-.144-.049-.146-.045-.148-.038-.15-.033-.151-.025-.142-.013-.087-.01-.078-.008-.076-.007-.077-.005-.078-.004-.077-.002-.079-.001-.068v-6.369h4.537l.097.001.106.003.106.004.105.007.105.008.105.01.104.012.104.014.103.016.103.017.103.019.102.021.101.022.101.025.101.026.099.027.099.03.099.031.098.033.097.034.097.036.096.038.095.039.094.04.093.043.093.044.092.045.091.048.091.048.089.05.089.052.087.053.087.054.086.057.085.057.083.059.084.061.081.062.081.063.08.065.079.066.077.068.077.068.075.071.074.071.073.073.072.074.071.076.069.077.068.078.067.079.065.081.065.082.063.083.061.084.06.086.059.087.058.088.055.089.055.09.053.091.051.092.05.094.045.087 1.1 2.2.446.223 1.907-1.089 1.139-3.418 9.517-1.586zm-20 .869.001.003.004.006 4.015 5.622.009.012h.015 7.693.025l.017-.001h.018l.016-.001.017-.002.016-.001.017-.002.017-.002.016-.002.017-.003.016-.003.016-.003.017-.004.015-.003.016-.004.016-.004.016-.005.016-.005.015-.005.016-.005.015-.005.015-.006.016-.006.015-.006.016-.007.014-.006.015-.007.015-.008.014-.007.014-.008.015-.008.014-.008.014-.008.014-.009.014-.009.014-.009.013-.009.013-.009.014-.01.013-.01.013-.011.013-.01.011-.01.013-.011.013-.012.012-.011.011-.011.012-.011.012-.012.011-.012.011-.012.011-.013.011-.013.01-.012.01-.013.011-.014.009-.012.009-.013.011-.016.009-.013.009-.014.009-.014.009-.015.012-.022 3.368-5.988.009-.015v-.001-.001h.001v-.001-.001-.001l.001-.001v-.001-.001-.001-.016-1.094l-2.483.414-.506 1.517-.039.108-.052.127-.058.125-.064.121-.069.118-.074.115-.078.11-.084.107-.09.104-.093.1-.097.094-.102.09-.107.087-.111.081-.114.077-.099.059-2.737 1.564-.068.038-.083.042-.084.04-.085.037-.086.034-.087.031-.089.03-.087.025-.089.024-.09.02-.089.018-.091.015-.09.012-.091.01-.091.006-.091.004-.091.001-.091-.001-.092-.005-.091-.007-.09-.01-.091-.012-.091-.016-.09-.018-.09-.021-.088-.024-.088-.027-.089-.03-.088-.032-.085-.035-.085-.038-.072-.034-1.254-.627-.09-.047-.106-.061-.101-.065-.099-.068-.097-.073-.093-.076-.089-.079-.087-.084-.083-.086-.08-.091-.077-.093-.072-.096-.068-.099-.065-.102-.061-.105-.047-.09-1.251-2.501-.02-.039-.016-.031-.017-.031-.018-.031-.018-.03-.019-.03-.019-.029-.02-.029-.019-.028-.021-.028-.021-.028-.021-.027-.022-.027-.022-.026-.023-.026-.023-.026-.024-.025-.023-.025-.025-.024-.025-.024-.025-.023-.025-.023-.026-.023-.026-.022-.026-.021-.028-.021-.027-.021-.028-.02-.028-.02-.028-.019-.028-.019-.03-.018-.029-.018-.03-.017-.029-.017-.031-.016-.03-.016-.031-.015-.031-.015-.031-.014-.032-.014-.031-.013-.032-.012-.032-.012-.032-.012-.033-.011-.033-.01-.033-.01-.033-.009-.033-.008-.034-.008-.034-.008-.034-.007-.033-.006-.035-.006-.034-.005-.035-.005-.035-.004-.035-.003-.034-.003-.036-.002-.035-.002-.036-.001h-.044-.519v2.349.008z"/><path d="m17 20h-3.006l-.084-.001-.09-.001-.089-.003-.089-.004-.09-.005-.088-.006-.089-.008-.088-.008-.089-.01-.087-.01-.087-.012-.088-.013-.086-.013-.087-.015-.086-.016-.086-.017-.085-.018-.085-.019-.085-.02-.084-.021-.084-.023-.083-.023-.083-.024-.083-.025-.082-.026-.082-.027-.081-.028-.081-.029-.081-.03-.085-.033-.152-.063-.157-.068-.154-.072-.152-.076-.15-.079-.148-.083-.145-.086-.143-.089-.141-.093-.138-.095-.137-.1-.133-.102-.13-.105-.129-.108-.125-.112-.123-.114-.12-.117-.117-.12-.114-.123-.111-.125-.109-.128-.105-.131-.103-.134-.099-.136-.095-.138-.093-.141-.089-.143-.086-.145-.083-.148-.079-.15-.076-.152-.072-.154-.068-.157-.063-.152-.033-.086-.03-.081-.029-.081-.027-.079-.028-.083-.026-.082-.025-.083-.024-.083-.023-.083-.023-.084-.021-.084-.02-.085-.019-.085-.018-.085-.017-.086-.016-.086-.015-.087-.013-.086-.013-.088-.012-.087-.01-.087-.01-.088-.008-.089-.008-.088-.006-.09-.005-.089-.004-.089-.003-.089-.002-.09v-.084-3.006h10zm-5.806-5.934.011.028.03.073.029.067.031.066.032.065.034.063.035.063.037.063.039.061.039.061.042.06.042.058.044.057.045.056.047.055.048.055.049.053.051.051.052.051.053.049.053.048.055.046.057.046.057.044.059.042.059.042.061.039.061.039.062.037.063.035.064.034.066.032.065.031.067.029.073.03.029.011.034.013.031.011v-1.83h-1.83l.012.032z"/><path d="m25.236 14.528.118.061.117.064.115.068.113.07.111.073.109.076.107.08.105.082.103.084.1.088.098.09.095.092.094.096.09.097.088.1.085.102.083.105.079.107.077.108.074.111.071.113.068.114.064.117.062.118.058.119.056.121.052.123.048.124.046.125.042.126.039.128.035.128.032.129.028.13.025.131.022.131.018.132.014.132.011.133.008.133.003.133.001.133-.004.133-.006.133-.011.133-.014.132-.017.132-.021.132-.024.131-.028.13-.031.129-.035.129-.038.127-.042.127-.045.125-.048.124-.051.123-.055.121-.058.12-.061.118-.064.117-.068.115-.07.113-.073.111-.076.109-.08.107-.082.105-.084.103-.088.1-.09.098-.092.096-.096.093-.097.09-.1.088-.103.085-.104.083-.107.079-.108.077-.111.074-.113.071-.114.068-.117.064-.118.062-.119.058-.121.056-.123.052-.124.049-.125.045-.126.042-.128.039-.128.035-.129.032-.13.028-.131.025-.131.022-.132.018-.132.014-.133.011-.133.008-.133.003-.133.001-.133-.004-.133-.006-.133-.011-.132-.013-.132-.018-.132-.021-.131-.024-.13-.028-.129-.031-.129-.035-.127-.038-.127-.042-.125-.045-.124-.048-.123-.051-.121-.055-.12-.058-6.952-3.476-.078-.003-.133-.009-.132-.012-.133-.016-.131-.02-.131-.023-.131-.026-.13-.03-.129-.033-.127-.037-.127-.04-.126-.043-.125-.047-.123-.05-.122-.054-.121-.056-.118-.06-.118-.063-.115-.066-.114-.069-.112-.072-.11-.075-.108-.078-.106-.081-.103-.084-.102-.086-.099-.089-.096-.092-.094-.094-.092-.096-.089-.099-.086-.102-.084-.103-.081-.106-.078-.108-.075-.11-.072-.112-.069-.114-.066-.115-.063-.118-.06-.118-.056-.121-.054-.122-.05-.123-.047-.125-.043-.126-.04-.127-.037-.127-.033-.129-.03-.13-.026-.131-.023-.131-.02-.131-.016-.133-.012-.132-.009-.133-.005-.133-.002-.133.002-.133.005-.133.009-.133.012-.132.016-.133.02-.131.023-.131.026-.131.03-.13.033-.129.037-.127.04-.127.043-.126.047-.125.05-.123.054-.122.056-.121.06-.118.063-.118.066-.115.069-.114.072-.112.075-.11.078-.108.081-.106.084-.103.086-.102.089-.099.092-.096.094-.094.096-.092.099-.089.102-.086.103-.084.106-.081.108-.078.11-.075.112-.072.114-.069.115-.066.118-.063.118-.06.121-.056.122-.054.123-.05.125-.046.126-.044.127-.04.127-.037.129-.033.13-.03.131-.026.131-.023.131-.02.133-.016.132-.012.133-.009.133-.005.133-.002h2.18l9.056 4.528z"/><path d="m26.743 11.5-4.243 4.243s-2.273-2.274-4.501-4.502c-2.343-2.342-2.343-6.14 0-8.482.001-.001.001-.002.001-.002 2.914 2.915 5.828 5.829 8.743 8.743z" fill="#565656" fill-rule="nonzero" stroke="#000" stroke-width="4"/><path d="m26.789 10.869c.139.278.211.584.211.895v8.236h-6v-7.292s-.603-1.206-1.343-2.685c-.711-1.423-.828-3.07-.325-4.579s1.585-2.757 3.008-3.468c.001-.001.002-.001.002-.001 1.482 2.965 2.964 5.93 4.447 8.894z" fill="#767676" fill-rule="nonzero" stroke="#000" stroke-width="4"/><path d="m14 19h5v4h-5z"/><path d="m16.4 8.37c-.457-1.952.076-4.089 1.599-5.611.001-.001.001-.002.001-.002 2.914 2.915 5.828 5.829 8.743 8.743l-4.243 4.243-2.157-2.158c.314-.464-2.946-5.406-3.943-5.215z" fill="#b8d419"/><path d="m16.4 8.37c.997-.191 2.069.099 2.842.872.252.252.509.509.758.758.531.531.829 1.25.829 2 0 .569-.172 1.121-.486 1.585l-2.344-2.344c-.821-.82-1.354-1.819-1.599-2.871z" fill="#72820a"/><path d="m26.743 11.5-4.243 4.243s-2.273-2.274-4.501-4.502c-2.343-2.342-2.343-6.14 0-8.482.001-.001.001-.002.001-.002 2.914 2.915 5.828 5.829 8.743 8.743z" fill="none"/><g clip-path="url(#b)"><path d="m27 11.292v8.708h-6v-7.292s-.603-1.206-1.343-2.685c-.711-1.423-.828-3.07-.325-4.579s1.585-2.757 3.008-3.468c.001-.001.002-.001.002-.001 1.552 3.106 3.105 6.211 4.658 9.317z" fill="none" stroke="#88a00f" stroke-width="2"/></g><path d="m19.39 5.278c.526-1.435 1.58-2.617 2.95-3.302.001-.001.002-.001.002-.001 1.482 2.965 2.964 5.93 4.447 8.894.139.278.211.584.211.895v8.236h-6v-6l.656-.328c.887-.444-1.888-8.388-2.266-8.394z" fill="#b8d419"/><path d="m19.39 5.278c.378.006.755.069 1.12.191.941.314 1.718.988 2.162 1.875.217.434.439.878.656 1.312.444.887.516 1.914.203 2.854-.314.941-.988 1.718-1.875 2.162l-.656.328v-1.292s-.603-1.206-1.343-2.685c-.711-1.423-.828-3.07-.325-4.579.019-.056.038-.111.058-.166z" fill="#72820a"/><path d="m21 12.708 6 3v4.292h-6v-6l-.5-1z" fill="#88a00f"/><path d="m20.47 20.589-4.47-2.235s-1.799-2.153-2.5-2.854-3.835-1.382-4.319-1.16c-.118-.427-.181-.876-.181-1.34v-1h7.236c.311 0 .617.072.895.211l8.174 4.087.182.096.002.001c.902.518 1.511 1.491 1.511 2.605v2.471c0 .347-.089.688-.259.99l-3.377 6.003c-.534.949-1.538 1.536-2.627 1.536-2.207 0-5.917 0-7.708 0-.646 0-1.252-.312-1.627-.838-1.044-1.461-3.17-4.438-4.029-5.64-.243-.34-.373-.746-.373-1.163 0-1.349 0-4.359 0-4.359h1.028c-.06 1.155 5.046 4.068 5.834 3.723l.489.979c.097.193.254.35.447.447.323.162.843.422 1.223.612.299.149.653.139.944-.027.717-.409 2.076-1.186 2.703-1.544.214-.123.375-.319.453-.552z" fill="#b8d419"/><g fill="#72820a"><path d="m8.028 18h1.5c1.515 0 2.9.856 3.578 2.211l.756 1.512c-.788.345-1.717.35-2.545-.065-.536-.267-1.098-.549-1.634-.816-1.101-.551-1.715-1.687-1.655-2.842z"/><path d="m9.181 14.34c.484-.222 1.015-.34 1.558-.34h1.522c.992 0 1.943.394 2.644 1.095s1.095 1.652 1.095 2.643v.616l-.708-.354h-1.292c-2.297 0-4.233-1.549-4.819-3.66z"/></g></g></svg>