<svg clip-rule="evenodd" fill-rule="evenodd" stroke-linecap="round" stroke-miterlimit="1.5" viewBox="0 0 32 32" xmlns="http://www.w3.org/2000/svg" xmlns:xlink="http://www.w3.org/1999/xlink"><clipPath id="a"><path clip-rule="evenodd" d="m0 0h32v32h-32z"/></clipPath><clipPath id="b"><path clip-rule="evenodd" d="m17.5 30s-.488 0-1.238 0c-4.735 0-8.939-3.03-10.436-7.521-1.247-3.743-2.493-7.479-2.493-7.479h2.338c2.249 0 4.309 1.257 5.336 3.258 1.827 3.553 4.493 8.742 4.493 8.742h5z"/></clipPath><clipPath id="c"><path clip-rule="evenodd" d="m14 10h5l1 1 3 1 2 1 2 2v5h-13z"/></clipPath><path d="m0 0h32v32h-32z" fill="none"/><g clip-path="url(#a)"><path d="m23.144 9.502.12.006.119.008.119.012.119.015.119.018.118.021.117.025.116.027.116.031.115.034.114.036.113.04.112.043.111.046.109.048.109.052.106.054.106.057.103.06.102.063.101.065.098.069.097.07.095.073.093.076.09.078.089.081.087.083.084.085.082.087.079.09.078.092.074.093.073.096.069.097.067.1.065.101.061.102.059.105.056.106.053.107.051.109.047.11.045.111.041.112.039.114.035.114.033.115.029.117.026.116.023.118.02.118.017.119.014.119.011.119.007.12.004.119.001.12-.002.12-.006.12-.008.119-.012.119-.015.119-.018.119-.021.118-.025.117-.027.116-2 8-.031.116-.034.115-.036.114-.04.113-.043.112-.046.111-.048.109-.052.109-.054.106-.057.106-.06.103-.063.102-.065.101-.069.098-.07.097-.073.095-.076.093-.078.09-.081.089-.083.087-.085.084-.087.082-.09.079-.092.078-.093.074-.096.073-.097.069-.1.067-.101.065-.102.061-.105.059-.106.056-.107.053-.109.051-.11.047-.111.045-.112.041-.114.039-.114.035-.115.033-.117.029-.116.026-.118.023-.118.02-.119.017-.119.014-.119.011-.12.007-.119.004-.12.001-.12-.002-.12-.006-.119-.008-.119-.012-.119-.015-.119-.018-.118-.021-.117-.025-.116-.027-.116-.031-.115-.034-.114-.036-.113-.04-.112-.043-.111-.046-.109-.048-.109-.052-.106-.054-.106-.057-.103-.06-.102-.063-.101-.065-.098-.069-.097-.07-.095-.073-.093-.076-.09-.078-.089-.081-.087-.083-.084-.085-.082-.087-.079-.09-.078-.092-.074-.093-.073-.096-.069-.097-.067-.1-.065-.101-.061-.102-.059-.105-.056-.106-.053-.107-.051-.109-.047-.11-.045-.111-.041-.112-.039-.114-.035-.114-.033-.115-.029-.117-.026-.116-.023-.118-.02-.118-.017-.119-.014-.119-.011-.119-.007-.12-.004-.119-.001-.12.002-.12.006-.12.008-.119.012-.119.015-.119.018-.119.021-.118.025-.117.027-.116 2-8 .031-.116.034-.115.036-.114.04-.113.043-.112.046-.111.048-.109.052-.109.054-.106.057-.106.06-.103.063-.102.065-.101.069-.098.07-.097.073-.095.076-.093.078-.09.081-.089.083-.087.085-.084.087-.082.09-.079.092-.078.093-.074.096-.073.097-.069.1-.067.101-.065.102-.061.105-.059.106-.056.107-.053.109-.051.11-.047.111-.045.112-.041.114-.039.114-.035.115-.033.117-.029.116-.026.118-.023.118-.02.119-.017.119-.014.119-.011.12-.007.119-.004.12-.001.12.002z"/><path d="m12.681.004.181.011.18.018.18.025.178.033.177.04.175.047.173.054.171.06.168.068.165.074.162.081.159.088.155.094.151.1.147.105.143.112.138.118.133.123.128.128.123.133.118.138.112.143.105.147.1.151.094.155.088.159.081.162.074.165.068.168.06.171.054.173.047.175.04.177.033.178.025.18.018.18.011.181.004.181v18.5l-.004.181-.011.181-.018.18-.025.18-.033.178-.04.177-.047.175-.054.173-.06.171-.068.168-.074.165-.081.162-.088.159-.094.155-.1.151-.105.147-.112.143-.118.138-.123.133-.128.128-.133.123-.138.118-.143.111-.147.106-.151.1-.155.094-.159.088-.162.081-.165.074-.168.068-.171.06-.173.054-.175.047-.177.04-.178.033-.18.025-.18.018-.181.011-.181.004-.181-.004-.181-.011-.18-.018-.18-.025-.178-.033-.177-.04-.175-.047-.173-.054-.171-.06-.168-.068-.165-.074-.162-.081-.159-.088-.155-.094-.151-.1-.147-.106-.143-.111-.138-.118-.133-.123-.128-.128-.123-.133-.118-.138-.111-.143-.106-.147-.1-.151-.094-.155-.088-.159-.081-.162-.074-.165-.068-.168-.06-.171-.054-.173-.047-.175-.04-.177-.033-.178-.025-.18-.018-.18-.011-.181-.004-.181v-18.5l.004-.181.011-.181.018-.18.025-.18.033-.178.04-.177.047-.175.054-.173.06-.171.068-.168.074-.165.081-.162.088-.159.094-.155.1-.151.106-.147.111-.143.118-.138.123-.133.128-.128.133-.123.138-.118.143-.112.147-.105.151-.1.155-.094.159-.088.162-.081.165-.074.168-.068.171-.06.173-.054.175-.047.177-.04.178-.033.18-.025.18-.018.181-.011.181-.004.181.004z"/><path d="m26.698 12.501.137.004.137.008.137.013.136.017.136.021.135.025.134.029.133.034.132.037.131.041.129.046.128.049.127.053.125.057.123.061.121.064.119.068.117.072.115.075.112.079.11.082.108.086.105.088.102.092.099.095.096.098.093.101.09.103.087.106.084.109.08.112.077.113.073.116.07.119.066.12.062.122.059.124.055.126.05.128.048.129.043.13.039.131.035.133.031.134.027.134.022.136.019.136.015.136.01.137.006.137.002.137-.002.138-.007.137-.01.137-.015.136-.019.136-.023.135-.027.135-.031.133-1.18 4.721-.03.114-.033.126-.035.124-.036.124-.037.124-.039.124-.04.122-.041.122-.042.122-.044.121-.044.12-.046.119-.048.12-.048.118-.049.116-.051.118-.052.117-.053.114-.054.116-.055.114-.057.113-.057.113-.059.112-.059.111-.061.111-.062.11-.063.109-.065.108-.064.107-.067.107-.067.106-.068.105-.069.104-.071.104-.072.103-.072.102-.073.101-.074.1-.075.099-.076.099-.078.098-.078.097-.079.096-.08.095-.081.094-.081.093-.084.093-.083.091-.085.091-.085.09-.087.089-.087.088-.088.087-.088.085-.091.086-.09.084-.091.083-.093.083-.093.081-.093.08-.095.08-.096.078-.096.078-.097.076-.098.076-.099.075-.099.073-.099.072-.102.072-.101.07-.103.07-.103.068-.103.068-.105.066-.104.065-.107.065-.106.063-.107.062-.108.061-.109.06-.109.059-.109.057-.111.057-.111.056-.112.054-.112.054-.113.052-.114.051-.114.05-.114.049-.116.048-.116.046-.116.046-.117.044-.118.043-.117.042-.119.04-.119.04-.12.038-.12.037-.12.036-.121.035-.122.033-.122.032-.123.031-.123.03-.123.028-.124.027-.124.026-.124.025-.126.023-.125.022-.125.021-.127.019-.126.019-.127.016-.127.016-.128.014-.127.013-.129.011-.128.011-.128.008-.129.008-.129.006-.13.005-.129.003-.13.002-.118.001-1.042-.001-.138-.002-.137-.006-.137-.011-.136-.015-.136-.019-.135-.023-.135-.027-.134-.031-.132-.035-.132-.039-.13-.044-.129-.047-.127-.051-.126-.055-.124-.059-.122-.062-.12-.067-.118-.07-.116-.073-.114-.077-.111-.08-.109-.084-.106-.087-.104-.09-.1-.094-.098-.096-.095-.099-.091-.103-.089-.104-.085-.108-.082-.11-.079-.113-.075-.114-.071-.118-.068-.119-.065-.121-.06-.123-.057-.125-.053-.127-.049-.128-.045-.13-.041-.131-.037-.132-.033-.133-.029-.134-.025-.135-.021-.136-.017-.136-.012-.137-.008-.137-.005-.137.001-.137.004-.137.008-.137.013-.137.017-.136.021-.136.025-.135.029-.134.033-.133.037-.132.042-.131.045-.13.049-.128.053-.126.057-.125.061-.123.064-.121.068-.12.072-.117.075-.114.079-.113.082-.11.085-.107.089-.105.092-.102.095-.099.097-.097.101-.093.104-.09.106-.087.109-.083.111-.081.114-.077.116-.073.118-.07.12-.066.123-.062.124-.059.125-.055.128-.051.129-.047.13-.043.132-.039.132-.035.134-.031.135-.027.135-.023.136-.019.136-.014.137-.011.137-.006.138-.002 1.018.001.047-.001h.033l.035-.001.033-.001.034-.002.033-.002.034-.002.034-.003.033-.003.033-.003.033-.004.033-.004.033-.004.032-.005.032-.005.033-.005.032-.006.032-.006.032-.006.032-.007.032-.007.032-.007.031-.008.031-.008.032-.008.031-.008.031-.009.032-.01.03-.009.031-.01.03-.01.031-.01.031-.011.03-.011.03-.012.03-.011.03-.012.029-.012.03-.013.029-.013.03-.013.029-.014.029-.014.029-.014.029-.014.028-.015.029-.015.028-.015.028-.016.028-.015.028-.016.028-.017.027-.016.027-.018.027-.017.027-.017.027-.018.027-.018.026-.019.026-.018.026-.019.026-.019.026-.02.025-.019.025-.02.026-.02.024-.02.025-.021.025-.021.024-.021.023-.022.024-.022.024-.021.023-.022.023-.023.023-.023.023-.022.022-.023.022-.023.022-.024.022-.024.021-.023.021-.025.022-.024.02-.025.021-.025.02-.025.02-.025.019-.025.02-.026.019-.026.019-.026.019-.027.017-.025.019-.027.018-.027.017-.027.018-.027.016-.027.017-.029.017-.027.016-.028.016-.028.015-.028.016-.03.015-.028.015-.029.014-.03.014-.028.014-.03.014-.03.013-.03.013-.029.013-.031.013-.031.012-.03.012-.032.011-.031.011-.031.011-.031.011-.032.01-.032.01-.032.01-.032.01-.032.009-.034.009-.033.011-.044 1.174-4.697.036-.133.039-.132.043-.13.048-.129.051-.127.055-.126.059-.124.062-.122.067-.12.07-.118.073-.116.077-.114.081-.111.083-.108.087-.107.091-.103.093-.101.096-.097.1-.095.102-.092.105-.088.108-.085.11-.082.112-.079.115-.075.117-.071.12-.068.121-.064.123-.061.125-.057.127-.053.128-.048.13-.046.13-.041.133-.037.133-.033.134-.029.135-.025.136-.02.136-.017.137-.012.137-.008.137-.005.137.001z"/><path d="m17.5 30s-.488 0-1.238 0c-4.735 0-8.939-3.03-10.436-7.521-1.247-3.743-2.493-7.479-2.493-7.479h2.338c2.249 0 4.309 1.257 5.336 3.258 1.827 3.553 4.493 8.742 4.493 8.742h5z"/><path d="m5.811 13.001.14.004.139.006.139.008.139.011.138.014.138.015.137.018.137.021.135.022.135.025.135.027.134.03.134.032.132.033.132.037.131.038.13.041.13.042.128.045.128.047.126.05.126.051.125.053.123.056.123.057.122.06.121.061.119.064.119.066.117.067.116.07.115.071.114.074.112.075.111.077.11.079.109.081.107.083.106.085.105.087.102.088.102.09.1.092.099.094.097.095.096.098.094.099.092.1.091.103.089.104.088.106.086.107.083.109.083.11.08.112.079.114.077.116.075.116.073.118.071.12.069.121.067.123.061.117 3.939 7.664h6.198l.706 1.704-5.297 5.296h-2.071l-.126-.001-.131-.002-.13-.003-.13-.004-.13-.006-.13-.007-.13-.009-.129-.009-.129-.011-.128-.013-.129-.013-.128-.015-.127-.016-.128-.017-.127-.018-.127-.02-.126-.021-.126-.022-.126-.024-.125-.024-.125-.026-.124-.027-.125-.028-.123-.029-.124-.031-.123-.032-.122-.033-.122-.034-.122-.035-.121-.036-.121-.038-.12-.039-.12-.039-.12-.041-.119-.043-.118-.043-.118-.044-.117-.046-.117-.046-.116-.048-.116-.049-.115-.049-.115-.051-.114-.052-.114-.053-.113-.055-.113-.055-.111-.056-.112-.057-.111-.059-.11-.059-.109-.061-.109-.061-.108-.063-.108-.063-.107-.065-.107-.066-.105-.066-.105-.068-.105-.069-.104-.069-.103-.071-.102-.071-.102-.073-.101-.073-.1-.075-.099-.075-.099-.077-.098-.077-.098-.078-.096-.08-.096-.08-.095-.081-.095-.082-.093-.083-.093-.084-.092-.085-.092-.085-.09-.087-.089-.087-.089-.089-.088-.089-.087-.09-.086-.091-.086-.092-.085-.093-.084-.093-.082-.095-.082-.095-.082-.096-.08-.097-.079-.098-.079-.099-.077-.099-.077-.1-.075-.101-.075-.102-.074-.103-.073-.104-.072-.104-.07-.105-.071-.106-.069-.106-.068-.108-.066-.108-.067-.109-.064-.109-.064-.111-.063-.111-.062-.112-.061-.112-.06-.114-.059-.114-.058-.115-.056-.115-.056-.116-.054-.116-.053-.118-.053-.118-.051-.119-.05-.119-.049-.121-.048-.121-.046-.121-.046-.122-.044-.123-.043-.123-.041-.119-3.208-9.624.355-.492h4.602l.132.001zm1.911 8.84.031.091.03.086.03.085.032.085.032.084.033.083.034.083.035.083.036.083.036.082.037.081.037.081.039.08.039.08.04.08.04.078.042.079.042.077.043.078.043.077.045.076.044.076.046.075.046.075.048.074.047.074.048.073.049.073.05.072.051.072.051.07.051.071.053.07.053.069.053.069.055.068.054.068.056.067.056.066.057.066.057.066.058.065.059.064.059.063.06.063.06.063.061.062.061.061.063.06.062.061.063.059.064.058.064.058.065.058.066.057.065.056.067.056.067.055.067.054.068.053.069.053.069.053.07.051.069.051.071.05.071.05.071.049.072.048.072.048.073.046.074.047.073.045.074.045.075.044.075.043.075.043.076.042.076.041.077.04.077.04.078.039.078.038.078.038.079.037.079.036.079.035.08.034.08.034.081.033.08.032.082.032.081.03.082.03.083.03.082.028.083.027.083.027.002.001-4.319-8.404-.036-.07-.034-.061-.035-.061-.035-.06-.037-.059-.037-.058-.039-.058-.039-.057-.04-.055-.041-.056-.042-.055-.043-.053-.044-.053-.044-.052-.045-.051-.047-.05-.047-.049-.047-.049-.049-.048-.049-.047-.05-.045-.051-.046-.052-.044-.052-.043-.053-.043-.053-.041-.055-.04-.055-.04-.056-.039-.056-.038-.057-.036-.057-.036-.058-.035-.059-.034-.059-.033-.06-.031-.06-.031-.061-.03-.062-.029-.062-.027-.062-.027-.063-.026-.063-.024-.064-.024-.064-.022-.065-.022-.065-.02-.065-.019-.066-.018-.066-.017-.067-.016-.067-.015-.067-.013-.068-.013-.068-.011-.068-.01-.068-.009-.041-.005z"/><path d="m10 4.5c0-.663.263-1.299.732-1.768s1.105-.732 1.768-.732 1.299.263 1.768.732.732 1.105.732 1.768v15.5h-5s0-10.555 0-15.5z" stroke="#000" stroke-width="2"/><path d="m18.195 7.504.129.008.129.011.129.015.128.018.128.023.127.026.126.029.126.034.124.037.123.04.122.044.121.047.119.051.118.055.116.057.115.061.112.065.111.067.109.071.106.074.105.077.102.079.1.083.098.086.094.088.093.091.09.094.087.096.084.099.081.101.078.103.076.106.072.107.069.11.066.112.063.113.059.116.056.117.053.118.049.12.046.121.042.123.038.124.035.125.032.126.028.126.024.128.02.128.017.128.013.129.01.13.005.129.002.13v9.496l-.002.13-.005.129-.01.13-.013.129-.017.128-.02.128-.024.128-.028.126-.032.126-.035.125-.038.124-.042.123-.046.121-.049.12-.053.118-.056.117-.059.116-.063.113-.066.112-.069.11-.072.107-.076.106-.078.103-.081.101-.084.099-.087.096-.09.094-.093.091-.094.088-.098.086-.1.083-.102.08-.105.076-.106.074-.109.071-.111.067-.112.065-.115.061-.116.057-.118.055-.119.051-.121.047-.122.044-.123.041-.124.036-.126.034-.126.029-.127.026-.128.023-.128.018-.129.015-.129.011-.129.008-.13.004h-.13l-.129-.004-.13-.008-.129-.011-.129-.015-.128-.018-.128-.023-.127-.026-.126-.029-.126-.034-.124-.036-.123-.041-.122-.044-.121-.047-.119-.051-.118-.055-.116-.057-.115-.061-.112-.065-.111-.067-.109-.071-.106-.074-.105-.076-.102-.08-.1-.083-.097-.086-.095-.088-.093-.091-.09-.094-.086-.096-.085-.099-.081-.101-.078-.103-.076-.106-.072-.107-.069-.11-.066-.112-.063-.113-.059-.116-.056-.117-.053-.118-.049-.12-.045-.121-.043-.123-.038-.124-.035-.125-.032-.126-.028-.126-.024-.128-.02-.128-.017-.128-.013-.129-.009-.13-.006-.129-.002-.13v-9.496l.002-.13.006-.129.009-.13.013-.129.017-.128.02-.128.024-.128.028-.126.032-.126.035-.125.038-.124.043-.123.045-.121.049-.12.053-.118.056-.117.059-.116.063-.113.066-.112.069-.11.072-.107.076-.106.078-.103.081-.101.085-.099.086-.096.09-.094.093-.091.095-.088.097-.086.1-.083.102-.079.105-.077.106-.074.109-.071.111-.067.112-.065.115-.061.116-.057.118-.055.119-.051.121-.047.122-.044.123-.04.124-.037.126-.034.126-.029.127-.026.128-.023.128-.018.129-.015.129-.011.13-.008.129-.004h.13z"/><path d="m14 10h5l1 1 3 1 2 1 2 2v5h-13z" fill="#20631a"/><g fill="#6dd349"><path d="m23.077 11.501.089.005.089.007.089.011.088.014.087.017.087.02.087.023.085.026.084.029.083.033.082.035.081.038.079.041.078.044.076.046.075.049.072.052.071.055.069.057.067.059.064.062.062.063.06.067.058.068.055.07.053.072.049.074.048.076.044.077.042.079.039.08.036.082.033.083.03.084.027.085.024.086.021.087.018.087.015.088.011.089.009.088.005.089.002.09-.001.089-.005.089-.007.089-.011.089-.014.088-.017.087-.02.087-2 8-.023.087-.026.085-.029.084-.033.083-.035.082-.038.081-.041.079-.044.078-.046.076-.049.075-.052.072-.055.071-.057.069-.059.067-.062.064-.063.062-.067.06-.068.058-.07.055-.072.053-.074.049-.076.048-.077.044-.079.042-.08.039-.082.036-.083.033-.084.03-.085.027-.086.024-.087.021-.087.018-.088.015-.089.011-.088.009-.089.005-.09.002-.089-.001-.089-.005-.089-.007-.089-.011-.088-.014-.087-.017-.087-.02-.087-.023-.085-.026-.084-.029-.083-.033-.082-.035-.081-.038-.079-.041-.078-.044-.076-.046-.075-.049-.072-.052-.071-.055-.069-.057-.067-.059-.064-.062-.062-.063-.06-.067-.058-.068-.055-.07-.053-.072-.049-.074-.048-.076-.044-.077-.042-.079-.039-.08-.036-.082-.033-.083-.03-.084-.027-.085-.024-.086-.021-.087-.018-.087-.015-.088-.011-.089-.009-.088-.005-.089-.002-.09.001-.089.005-.089.007-.089.011-.089.014-.088.017-.087.02-.087 2-8 .023-.087.026-.085.029-.084.033-.083.035-.082.038-.081.041-.079.044-.078.046-.076.049-.075.052-.072.055-.071.057-.069.059-.067.062-.064.063-.062.067-.06.068-.058.07-.055.072-.053.074-.049.076-.048.077-.044.079-.042.08-.039.082-.036.083-.033.084-.03.085-.027.086-.024.087-.021.087-.018.088-.015.089-.011.088-.009.089-.005.09-.002z"/><path d="m18.145 9.504.097.008.096.011.096.015.095.019.095.022.093.026.092.03.091.033.09.036.088.041.087.043.085.047.083.05.081.053.079.057.077.059.074.062.072.066.069.067.066.071.064.073.061.076.058.077.055.08.051.082.049.084.045.086.042.087.038.09.035.09.032.092.027.093.025.093.02.095.017.096.013.096.01.096.005.097.002.097v9.496l-.002.097-.005.097-.01.096-.013.096-.017.096-.02.095-.025.093-.027.093-.032.092-.035.091-.038.089-.042.087-.045.086-.049.084-.051.082-.055.08-.058.078-.061.075-.064.073-.066.071-.069.067-.072.066-.074.062-.077.059-.079.057-.081.053-.083.05-.085.047-.087.043-.088.041-.09.036-.091.033-.092.03-.093.026-.095.022-.095.019-.096.015-.096.011-.097.008-.096.004h-.097l-.097-.004-.097-.008-.096-.011-.096-.015-.095-.019-.095-.022-.093-.026-.092-.03-.091-.033-.09-.036-.088-.041-.087-.043-.085-.047-.083-.05-.081-.053-.079-.057-.077-.059-.074-.062-.072-.066-.069-.067-.066-.071-.064-.073-.061-.075-.058-.078-.055-.08-.051-.082-.049-.084-.045-.086-.042-.087-.038-.089-.035-.091-.032-.092-.027-.093-.025-.093-.02-.095-.017-.096-.013-.096-.009-.096-.006-.097-.002-.097v-9.496l.002-.097.006-.097.009-.096.013-.096.017-.096.02-.095.025-.093.027-.093.032-.092.035-.09.038-.09.042-.087.045-.086.049-.084.051-.082.055-.08.058-.077.061-.076.064-.073.066-.071.069-.067.072-.066.074-.062.077-.059.079-.057.081-.053.083-.05.085-.047.087-.043.088-.041.09-.036.091-.033.092-.03.093-.026.095-.022.095-.019.096-.015.096-.011.097-.008.097-.004h.097z"/><path d="m17.5 30s-.488 0-1.238 0c-4.735 0-8.939-3.03-10.436-7.521-1.247-3.743-2.493-7.479-2.493-7.479h2.338c2.249 0 4.309 1.257 5.336 3.258 1.827 3.553 4.493 8.742 4.493 8.742h5z"/></g><g clip-path="url(#b)"><path d="m10 14h-2v5.71c0 .552.448 1 1 1s1-.448 1-1c0-1.87 0-5.71 0-5.71z" fill="#2ea82c"/></g><path d="m26.678 14.504.102.005.101.008.101.013.101.016.1.021.099.025.098.028.096.033.095.037.094.04.092.045.09.048.088.051.086.055.083.059.081.062.079.065.075.069.073.071.07.074.067.077.063.08.06.083.057.084.054.087.049.089.046.091.043.093.038.094.035.096.031.098.026.098.023.099.019.101.014.101.01.101.007.102.002.102-.003.102-.006.102-.01.101-.015.101-.018.1-.023.1-1.179 4.712-.026.099-.028.105-.029.104-.03.104-.031.103-.032.103-.034.103-.034.102-.035.101-.037.101-.037.1-.038.1-.04.1-.04.098-.041.097-.043.098-.043.098-.044.096-.045.096-.046.095-.048.095-.048.094-.048.093-.051.093-.05.092-.052.092-.052.091-.054.09-.054.09-.055.089-.057.089-.057.087-.057.087-.059.087-.06.085-.06.085-.061.085-.062.083-.063.083-.064.083-.064.081-.065.081-.066.08-.067.079-.068.079-.068.078-.069.077-.07.077-.071.076-.071.074-.072.075-.073.073-.073.073-.074.072-.075.071-.076.07-.076.069-.077.069-.078.068-.079.068-.078.066-.08.065-.081.065-.081.064-.081.063-.083.062-.082.062-.084.06-.084.06-.085.059-.085.058-.086.057-.087.056-.087.056-.088.054-.088.054-.089.053-.09.052-.09.051-.09.05-.091.049-.092.048-.092.048-.093.046-.093.046-.094.044-.094.044-.095.043-.095.041-.096.041-.096.04-.097.039-.097.038-.098.037-.097.035-.099.036-.099.034-.099.032-.1.032-.1.031-.101.03-.101.029-.101.028-.102.027-.102.026-.103.025-.103.023-.103.023-.104.022-.104.02-.104.02-.104.018-.106.018-.105.016-.105.015-.106.014-.106.013-.106.012-.107.011-.107.009-.107.009-.108.007-.107.007-.108.005-.108.004-.108.003-.109.002h-.102-1.042l-.102-.002-.102-.006-.101-.011-.101-.014-.1-.019-.1-.022-.098-.027-.098-.031-.096-.035-.094-.038-.093-.043-.091-.046-.089-.049-.087-.054-.084-.057-.083-.06-.079-.064-.077-.066-.075-.07-.071-.073-.068-.076-.066-.078-.062-.081-.058-.084-.055-.086-.052-.088-.048-.09-.044-.091-.041-.094-.036-.095-.033-.097-.029-.098-.024-.099-.021-.1-.017-.1-.012-.101-.008-.102-.004-.102v-.102l.004-.102.008-.102.012-.101.017-.1.021-.1.024-.099.029-.098.033-.097.036-.095.041-.093.044-.092.048-.09.052-.088.055-.086.058-.084.062-.081.066-.078.068-.076.071-.073.075-.07.077-.066.079-.064.083-.06.084-.057.087-.053.089-.05.091-.046.093-.043.094-.038.096-.035.098-.031.098-.026.1-.023.1-.019.101-.014.101-.011.102-.006.102-.002h1.029.062l.055-.001.055-.002.056-.002.054-.002.055-.003.055-.004.054-.005.054-.005.054-.005.054-.006.054-.007.054-.007.053-.007.054-.009.052-.008.053-.01.053-.01.053-.01.052-.011.052-.011.052-.012.052-.013.052-.013.051-.014.052-.014.051-.014.05-.015.051-.016.05-.016.051-.017.05-.017.049-.018.05-.018.05-.019.049-.019.049-.019.049-.021.048-.02.048-.022.048-.021.048-.022.048-.023.047-.023.047-.024.046-.023.047-.025.046-.025.046-.025.046-.026.045-.027.045-.026.045-.028.045-.027.044-.028.044-.029.044-.029.043-.03.043-.029.043-.031.042-.031.043-.031.041-.031.042-.033.041-.032.041-.033.04-.033.041-.034.039-.034.04-.034.039-.035.039-.036.038-.035.038-.037.038-.036.037-.037.037-.037.037-.038.036-.038.036-.038.035-.039.035-.039.035-.04.034-.04.034-.04.033-.041.034-.041.032-.041.032-.041.032-.043.031-.042.031-.042.031-.044.03-.043.03-.044.029-.044.029-.044.028-.045.028-.045.028-.045.027-.046.026-.045.026-.047.026-.047.025-.046.025-.048.024-.048.024-.047.023-.048.023-.049.023-.049.021-.048.022-.05.021-.05.02-.05.02-.05.019-.05.02-.051.018-.052.018-.051.017-.052.017-.051.017-.053.015-.053.016-.053.015-.053.014-.053.015-.061 1.176-4.699.027-.098.031-.098.035-.096.038-.094.043-.093.046-.091.05-.089.053-.087.057-.084.06-.082.064-.08.067-.077.07-.074.073-.072.075-.068.079-.065.081-.062.083-.059.086-.055.088-.051.09-.048.092-.045.094-.04.095-.037.096-.032.098-.029.099-.025.1-.02.101-.017.101-.012.102-.008.102-.005h.102z" fill="#6dd349"/><path d="m22 13h-11v11l2 3 9-2z" fill="#6dd349"/><path d="m10 4.5c0-1.381 1.119-2.5 2.5-2.5s2.5 1.119 2.5 2.5v18.5h-5s0-12.933 0-18.5z" fill="#6dd349"/><path d="m14 10h5l1 1 3 1 2 1 2 2v5h-13z" fill="none"/><g clip-path="url(#c)" fill="none" stroke="#20631a"><path d="m15.5 5v9.5"/><path d="m20 16 1.125-5"/><path d="m25 18 1.25-5"/></g></g></svg>