<svg clip-rule="evenodd" fill-rule="evenodd" stroke-linecap="round" stroke-miterlimit="1.5" viewBox="0 0 32 32" xmlns="http://www.w3.org/2000/svg" xmlns:xlink="http://www.w3.org/1999/xlink"><clipPath id="a"><path clip-rule="evenodd" d="m0 0v32h32v-32z"/></clipPath><clipPath id="b"><path clip-rule="evenodd" d="m30 17.5s0-.488 0-1.238c0-4.735-3.03-8.939-7.521-10.436-3.743-1.247-7.479-2.493-7.479-2.493v2.338c0 2.249 1.257 4.309 3.258 5.336 3.553 1.827 8.742 4.493 8.742 4.493v5z"/></clipPath><clipPath id="c"><path clip-rule="evenodd" d="m10 14v5l1 1 1 3 1 2 2 2h5v-13z"/></clipPath><path d="m0 0v32h32v-32z" fill="none"/><g clip-path="url(#a)"><path d="m22.096 16.501.119.004.12.007.119.011.119.014.119.017.118.02.118.023.116.026.117.029.115.033.114.035.114.039.112.041.111.045.11.047.109.051.107.053.106.056.105.059.102.061.101.065.1.067.097.069.096.073.093.074.092.078.09.079.087.082.085.084.083.087.081.089.078.09.076.093.073.095.07.097.069.098.065.101.063.102.06.103.057.106.054.106.052.109.048.109.046.111.043.112.04.113.036.114.034.115.031.116.027.116.025.117.021.118.018.119.015.119.012.119.008.119.006.12.002.12-.001.12-.004.119-.007.12-.011.119-.014.119-.017.119-.02.118-.023.118-.026.116-.029.117-.033.115-.035.114-.039.114-.041.112-.045.111-.047.11-.051.109-.053.107-.056.106-.059.105-.061.102-.065.101-.067.1-.069.097-.073.096-.074.093-.078.092-.079.09-.082.087-.084.085-.087.083-.089.081-.09.078-.093.076-.095.073-.097.07-.098.069-.101.065-.102.063-.103.06-.106.057-.106.054-.109.052-.109.048-.111.046-.112.043-.113.04-.114.036-.115.034-.116.031-8 2-.116.027-.117.025-.118.021-.119.018-.119.015-.119.012-.119.008-.12.006-.12.002-.12-.001-.119-.004-.12-.007-.119-.011-.119-.014-.119-.017-.118-.02-.118-.023-.116-.026-.117-.029-.115-.033-.114-.035-.114-.039-.112-.041-.111-.045-.11-.047-.109-.051-.107-.053-.106-.056-.105-.059-.102-.061-.101-.065-.1-.067-.097-.069-.096-.073-.093-.074-.092-.078-.09-.079-.087-.082-.085-.084-.083-.087-.081-.089-.078-.09-.076-.093-.073-.095-.07-.097-.069-.098-.065-.101-.063-.102-.06-.103-.057-.106-.054-.106-.052-.109-.048-.109-.046-.111-.043-.112-.04-.113-.036-.114-.034-.115-.031-.116-.027-.116-.025-.117-.021-.118-.018-.119-.015-.119-.012-.119-.008-.119-.006-.12-.002-.12.001-.12.004-.119.007-.12.011-.119.014-.119.017-.119.02-.118.023-.118.026-.116.029-.117.033-.115.035-.114.039-.114.041-.112.045-.111.047-.11.051-.109.053-.107.056-.106.059-.105.061-.102.065-.101.067-.1.069-.097.073-.096.074-.093.078-.092.079-.09.082-.087.084-.085.087-.083.089-.081.09-.078.093-.076.095-.073.097-.07.098-.069.101-.065.102-.063.103-.06.106-.057.106-.054.109-.052.109-.048.111-.046.112-.043.113-.04.114-.036.115-.034.116-.031 8-2 .116-.027.117-.025.118-.021.119-.018.119-.015.119-.012.119-.008.12-.006.12-.002.12.001z"/><path d="m23.181 8.004.181.011.18.018.18.025.178.033.177.04.175.047.173.054.171.06.168.068.165.074.162.081.159.088.155.094.151.1.147.106.143.111.138.118.133.123.128.128.123.133.118.138.111.143.106.147.1.151.094.155.088.159.081.162.074.165.068.168.06.171.054.173.047.175.04.177.033.178.025.18.018.18.011.181.004.181-.004.181-.011.181-.018.18-.025.18-.033.178-.04.177-.047.175-.054.173-.06.171-.068.168-.074.165-.081.162-.088.159-.094.155-.1.151-.106.147-.111.143-.118.138-.123.133-.128.128-.133.123-.138.118-.143.111-.147.106-.151.1-.155.094-.159.088-.162.081-.165.074-.168.068-.171.06-.173.054-.175.047-.177.04-.178.033-.18.025-.18.018-.181.011-.181.004h-18.5l-.181-.004-.181-.011-.18-.018-.18-.025-.178-.033-.177-.04-.175-.047-.173-.054-.171-.06-.168-.068-.165-.074-.162-.081-.159-.088-.155-.094-.151-.1-.147-.106-.143-.111-.138-.118-.133-.123-.128-.128-.123-.133-.118-.138-.112-.143-.105-.147-.1-.151-.094-.155-.088-.159-.081-.162-.074-.165-.068-.168-.06-.171-.054-.173-.047-.175-.04-.177-.033-.178-.025-.18-.018-.18-.011-.181-.004-.181.004-.181.011-.181.018-.18.025-.18.033-.178.04-.177.047-.175.054-.173.06-.171.068-.168.074-.165.081-.162.088-.159.094-.155.1-.151.105-.147.112-.143.118-.138.123-.133.128-.128.133-.123.138-.118.143-.111.147-.106.151-.1.155-.094.159-.088.162-.081.165-.074.168-.068.171-.06.173-.054.175-.047.177-.04.178-.033.18-.025.18-.018.181-.011.181-.004h18.5z"/><path d="m27.699 12.505.137.008.137.012.136.017.136.021.135.025.134.029.133.033.132.037.131.041.13.045.128.049.127.053.125.057.123.06.121.065.119.068.117.071.115.075.113.079.11.082.108.085.104.089.103.091.099.095.096.098.094.1.09.104.087.106.084.109.08.111.077.114.073.115.07.119.067.12.062.122.059.124.055.126.051.127.047.129.044.13.039.132.035.132.031.134.027.135.023.135.019.136.015.136.011.137.006.137.002.137.001 1.043-.001.118-.002.13-.003.129-.005.129-.006.131-.008.127-.008.129-.011.128-.011.129-.013.129-.014.125-.016.128-.017.128-.018.125-.019.126-.021.126-.022.124-.023.126-.025.126-.026.123-.027.124-.028.123-.03.123-.031.123-.032.122-.033.122-.035.121-.036.12-.037.121-.038.119-.04.119-.04.119-.042.117-.043.118-.045.118-.045.115-.046.116-.048.115-.049.116-.05.114-.051.112-.052.114-.054.113-.054.111-.055.11-.058.112-.057.11-.059.109-.06.108-.061.107-.061.106-.064.108-.065.106-.065.105-.067.106-.067.103-.068.102-.07.103-.07.102-.071.1-.072.099-.075.101-.074.098-.075.098-.077.097-.077.096-.079.096-.079.094-.081.095-.081.092-.082.092-.085.093-.084.09-.084.089-.086.089-.088.089-.087.086-.089.086-.09.086-.091.085-.091.083-.093.083-.092.081-.096.082-.094.08-.096.079-.098.078-.097.077-.099.077-.099.075-.1.074-.102.074-.101.072-.102.071-.104.07-.104.069-.106.069-.106.068-.106.065-.108.066-.109.064-.108.063-.11.061-.11.061-.112.06-.112.059-.113.058-.114.056-.113.055-.115.054-.116.053-.116.052-.117.051-.118.049-.118.049-.118.047-.12.046-.121.045-.121.043-.12.042-.122.041-.124.04-.122.039-.124.037-.125.036-.125.035-.125.033-.114.029-4.721 1.181-.133.031-.135.027-.135.023-.136.019-.136.015-.137.01-.137.007-.138.002-.137-.002-.137-.006-.137-.01-.136-.015-.136-.019-.136-.022-.134-.027-.134-.031-.133-.035-.131-.039-.13-.043-.129-.048-.128-.05-.126-.055-.124-.059-.122-.062-.12-.066-.119-.07-.116-.073-.113-.077-.112-.08-.109-.084-.106-.087-.103-.09-.101-.093-.098-.096-.095-.099-.092-.102-.088-.105-.086-.108-.082-.11-.079-.112-.075-.115-.072-.117-.068-.119-.064-.121-.061-.123-.057-.125-.053-.127-.049-.128-.046-.129-.041-.131-.037-.132-.034-.133-.029-.134-.025-.135-.021-.136-.017-.136-.013-.137-.008-.137-.004-.137-.001-.137.005-.137.008-.137.012-.137.017-.136.02-.136.025-.135.029-.134.033-.133.037-.133.041-.131.046-.129.048-.128.053-.127.057-.125.061-.123.064-.121.068-.12.071-.117.075-.115.079-.112.082-.111.085-.107.088-.105.092-.102.095-.1.097-.096.101-.093.103-.091.107-.087.108-.083.111-.081.114-.077.116-.073.118-.07.12-.067.122-.062.124-.059.126-.055.127-.051.129-.048.13-.043.132-.039.133-.036 4.696-1.174.046-.011.033-.009.033-.009.032-.01.032-.009.033-.011.031-.01.031-.01.033-.012.032-.011.029-.011.031-.012.032-.013.03-.012.03-.013.03-.013.03-.013.03-.014.03-.014.029-.014.029-.014.029-.015.029-.015.028-.015.028-.016.029-.016.028-.016.028-.017.027-.016.028-.018.027-.017.027-.017.027-.018.026-.018.027-.019.027-.019.025-.018.026-.019.026-.02.025-.019.026-.021.024-.019.025-.021.025-.021.023-.02.025-.022.024-.021.024-.022.024-.022.022-.021.024-.023.023-.023.022-.023.022-.022.023-.025.022-.023.021-.023.022-.024.021-.025.02-.024.022-.025.02-.024.02-.026.02-.025.019-.025.02-.026.018-.025.02-.026.019-.027.018-.026.018-.027.018-.028.018-.027.016-.026.017-.027.017-.027.016-.027.016-.028.017-.03.015-.028.015-.028.016-.029.014-.027.014-.029.015-.03.013-.028.013-.029.014-.03.013-.03.012-.028.012-.03.013-.03.012-.031.011-.029.011-.03.011-.032.01-.03.01-.031.01-.031.009-.029.01-.032.009-.032.008-.03.008-.031.008-.031.008-.032.007-.032.007-.032.007-.032.006-.031.006-.032.006-.033.005-.032.005-.033.005-.034.004-.031.004-.032.004-.036.003-.032.003-.032.003-.033.002-.034.002-.035.002-.032.001-.034.001-.035v-.033l.001-.047-.001-1.018.002-.138.006-.137.011-.137.014-.136.019-.136.023-.135.027-.135.031-.134.035-.132.039-.132.043-.13.047-.129.051-.128.055-.125.059-.124.062-.123.066-.12.07-.118.073-.116.077-.114.08-.111.084-.109.087-.106.09-.104.093-.1.097-.098.099-.095.102-.092.105-.089.107-.085.11-.082.112-.079.115-.075.117-.072.119-.068.122-.064.123-.061.125-.057.126-.053.128-.049.13-.045.131-.042.132-.037.133-.033.134-.029.135-.025.136-.021.136-.017.137-.013.137-.008.137-.004.137-.001.137.005z"/><path d="m30 17.5s0-.488 0-1.238c0-4.735-3.03-8.939-7.521-10.436-3.743-1.247-7.479-2.493-7.479-2.493v2.338c0 2.249 1.257 4.309 3.258 5.336 3.553 1.827 8.742 4.493 8.742 4.493v5z"/><path d="m23.116 3.93.119.041.123.043.123.044.122.046.121.046.121.048.12.049.12.05.119.051.118.053.117.053.117.054.116.056.116.057.114.057.114.059.114.06.112.061.112.061.111.063.111.065.109.065.109.065.108.068.108.068.106.068.106.07.105.071.104.072.104.073.103.074.102.075.101.075.1.077.1.078.098.078.098.079.097.081.096.081.095.082.095.082.093.084.093.085.092.085.091.087.09.087.089.088.089.089.087.089.087.091.085.091.085.092.084.093.083.093.082.095.081.095.08.096.08.096.078.098.077.098.077.099.075.099.075.1.073.102.073.101.071.102.071.104.069.103.069.105.068.105.066.106.066.106.064.107.064.108.063.108.061.109.061.109.059.111.058.11.058.111.056.112.055.113.055.113.053.114.052.114.051.115.05.115.048.116.048.116.046.117.046.117.044.118.043.118.043.12.041.119.039.119.039.121.038.121.036.121.035.121.034.123.033.122.032.124.031.123.029.123.028.124.027.125.026.125.024.125.024.126.022.126.021.126.02.127.018.128.017.127.016.127.015.128.013.129.013.128.011.13.009.129.009.128.007.13.006.131.004.13.003.13.002.131.001.126v2.071l-5.296 5.297-1.704-.706v-6.198l-7.664-3.939-.117-.061-.123-.067-.121-.069-.119-.071-.119-.073-.117-.075-.115-.077-.114-.079-.112-.08-.11-.082-.109-.085-.108-.085-.105-.088-.104-.089-.103-.091-.1-.092-.099-.094-.098-.096-.095-.097-.094-.099-.092-.1-.09-.101-.088-.104-.087-.104-.085-.106-.083-.107-.081-.109-.079-.11-.077-.111-.075-.112-.074-.114-.072-.115-.069-.116-.067-.117-.066-.119-.064-.12-.061-.12-.06-.122-.057-.122-.056-.124-.053-.125-.052-.126-.049-.127-.047-.127-.045-.129-.042-.129-.041-.13-.038-.131-.036-.132-.035-.133-.031-.133-.03-.133-.027-.135-.025-.136-.023-.136-.02-.136-.018-.137-.015-.138-.014-.138-.011-.139-.008-.139-.006-.139-.004-.14-.001-.132v-4.602l.492-.355 9.624 3.208zm-6.086 2.228.009.068.01.069.011.068.013.067.013.067.015.067.016.067.017.066.018.066.019.065.02.065.022.065.022.064.024.064.024.063.026.063.026.062.028.062.029.062.03.061.031.06.031.06.033.059.034.059.035.058.036.057.036.057.038.056.039.056.039.055.041.055.041.053.043.053.043.052.044.052.045.051.046.05.047.049.048.049.049.048.049.047.05.045.051.046.052.044.053.044.054.043.054.042.055.041.056.04.057.039.058.039.058.037.059.037.06.036.061.034.061.034.07.036 8.404 4.319-.001-.002-.026-.083-.028-.084-.029-.082-.028-.082-.03-.082-.031-.081-.032-.082-.032-.08-.033-.081-.034-.08-.034-.08-.035-.079-.036-.079-.037-.079-.038-.078-.038-.078-.039-.078-.04-.077-.04-.077-.041-.076-.042-.076-.043-.075-.043-.075-.044-.074-.045-.075-.045-.074-.047-.073-.046-.073-.048-.072-.048-.072-.049-.071-.05-.071-.05-.071-.051-.069-.051-.07-.053-.069-.053-.069-.053-.068-.054-.067-.055-.067-.056-.066-.056-.066-.057-.066-.058-.065-.057-.064-.059-.063-.06-.064-.06-.062-.06-.062-.061-.062-.062-.061-.063-.06-.063-.06-.063-.059-.064-.059-.065-.058-.065-.057-.067-.057-.066-.056-.067-.055-.068-.055-.068-.055-.069-.053-.069-.053-.07-.053-.071-.051-.071-.051-.071-.051-.072-.05-.073-.048-.073-.049-.074-.048-.074-.047-.075-.046-.075-.046-.076-.045-.076-.044-.077-.043-.078-.043-.078-.042-.078-.041-.079-.041-.079-.04-.08-.039-.08-.039-.081-.037-.081-.037-.082-.037-.082-.035-.083-.035-.083-.033-.084-.034-.085-.032-.084-.031-.085-.031-.086-.03-.091-.031-4.816-1.605z"/><path d="m4.5 10c-.663 0-1.299.263-1.768.732s-.732 1.105-.732 1.768.263 1.299.732 1.768 1.105.732 1.768.732h15.5v-5s-10.555 0-15.5 0z" stroke="#000" stroke-width="2"/><path d="m21.626 13.502.129.005.13.01.129.013.128.017.128.02.128.024.126.028.126.032.125.035.124.038.123.042.121.046.12.049.119.053.116.056.116.059.113.063.112.066.11.069.107.072.106.076.103.078.101.081.099.084.096.087.094.09.091.093.088.094.086.098.083.1.08.102.076.105.074.106.071.109.067.111.065.112.061.115.057.116.055.118.051.119.047.121.044.122.041.123.036.124.034.126.029.126.026.127.023.128.018.128.015.129.011.129.008.13.004.129v.13l-.004.129-.008.13-.011.129-.015.129-.018.128-.023.128-.026.127-.029.126-.034.126-.036.124-.041.123-.044.122-.047.121-.051.119-.055.118-.057.116-.061.115-.065.112-.067.111-.071.109-.074.106-.076.105-.08.102-.083.1-.086.098-.088.094-.091.093-.094.09-.096.086-.099.085-.101.081-.103.078-.106.076-.107.072-.11.069-.112.066-.113.063-.116.059-.116.056-.119.053-.12.049-.121.046-.123.042-.124.038-.125.035-.126.032-.126.028-.128.024-.128.02-.128.017-.129.013-.13.01-.129.005-.13.002h-9.496l-.13-.002-.129-.005-.13-.01-.129-.013-.128-.017-.128-.02-.128-.024-.126-.028-.126-.032-.125-.035-.124-.038-.123-.042-.121-.046-.12-.049-.118-.053-.117-.056-.116-.059-.113-.063-.112-.066-.11-.069-.107-.072-.106-.076-.103-.078-.101-.081-.099-.085-.096-.086-.094-.09-.091-.093-.088-.094-.086-.098-.083-.1-.079-.102-.077-.105-.074-.106-.071-.109-.067-.111-.065-.112-.061-.115-.057-.116-.055-.118-.051-.119-.047-.121-.044-.122-.04-.123-.037-.124-.034-.126-.029-.126-.026-.127-.023-.128-.018-.128-.015-.129-.011-.129-.008-.13-.004-.129v-.13l.004-.129.008-.13.011-.129.015-.129.018-.128.023-.128.026-.127.029-.126.034-.126.037-.124.04-.123.044-.122.047-.121.051-.119.055-.118.057-.116.061-.115.065-.112.067-.111.071-.109.074-.106.077-.105.079-.102.083-.1.086-.098.088-.094.091-.093.094-.09.096-.087.099-.084.101-.081.103-.078.106-.076.107-.072.11-.069.112-.066.113-.063.116-.059.117-.056.118-.053.12-.049.121-.046.123-.042.124-.038.125-.035.126-.032.126-.028.128-.024.128-.02.128-.017.129-.013.13-.01.129-.005.13-.002h9.496z"/><path d="m10 14v5l1 1 1 3 1 2 2 2h5v-13z" fill="#3a2305"/><g fill="#7c6112"><path d="m22.102 18.502.089.005.088.009.089.011.088.015.087.018.087.021.086.024.085.027.084.03.083.033.082.036.08.039.079.042.077.044.076.048.074.049.072.053.07.055.068.058.067.06.063.062.062.064.059.067.057.069.055.071.052.072.049.075.046.076.044.078.041.079.038.081.035.082.033.083.029.084.026.085.023.087.02.087.017.087.014.088.011.089.007.089.005.089.001.089-.002.09-.005.089-.009.088-.011.089-.015.088-.018.087-.021.087-.024.086-.027.085-.03.084-.033.083-.036.082-.039.08-.042.079-.044.077-.048.076-.049.074-.053.072-.055.07-.058.068-.06.067-.062.063-.064.062-.067.059-.069.057-.071.055-.072.052-.075.049-.076.046-.078.044-.079.041-.081.038-.082.035-.083.033-.084.029-.085.026-.087.023-8 2-.087.02-.087.017-.088.014-.089.011-.089.007-.089.005-.089.001-.09-.002-.089-.005-.088-.009-.089-.011-.088-.015-.087-.018-.087-.021-.086-.024-.085-.027-.084-.03-.083-.033-.082-.036-.08-.039-.079-.042-.077-.044-.076-.048-.074-.049-.072-.053-.07-.055-.068-.058-.067-.06-.063-.062-.062-.064-.059-.067-.057-.069-.055-.071-.052-.072-.049-.075-.046-.076-.044-.078-.041-.079-.038-.081-.035-.082-.033-.083-.029-.084-.026-.085-.023-.087-.02-.087-.017-.087-.014-.088-.011-.089-.007-.089-.005-.089-.001-.089.002-.09.005-.089.009-.088.011-.089.015-.088.018-.087.021-.087.024-.086.027-.085.03-.084.033-.083.036-.082.039-.08.042-.079.044-.077.048-.076.049-.074.053-.072.055-.07.058-.068.06-.067.062-.063.064-.062.067-.059.069-.057.071-.055.072-.052.075-.049.076-.046.078-.044.079-.041.081-.038.082-.035.083-.033.084-.029.085-.026.087-.023 8-2 .087-.02.087-.017.088-.014.089-.011.089-.007.089-.005.089-.001z"/><path d="m21.593 15.502.097.006.096.009.096.013.096.017.095.02.094.025.092.027.092.032.091.035.089.038.087.042.086.045.084.049.082.051.08.055.078.058.075.061.073.064.071.066.068.069.065.072.062.074.059.077.057.079.053.081.05.083.047.085.043.087.041.088.036.09.033.091.03.092.026.093.022.095.019.095.015.096.011.096.008.097.004.097v.096l-.004.097-.008.097-.011.096-.015.096-.019.095-.022.095-.026.093-.03.092-.033.091-.036.09-.041.088-.043.087-.047.085-.05.083-.053.081-.057.079-.059.077-.062.074-.065.072-.068.069-.071.066-.073.064-.075.061-.078.058-.08.055-.082.051-.084.049-.086.045-.087.042-.089.038-.091.035-.092.032-.092.027-.094.025-.095.02-.096.017-.096.013-.096.009-.097.006-.097.002h-9.496l-.097-.002-.097-.006-.096-.009-.096-.013-.096-.017-.095-.02-.093-.025-.093-.027-.092-.032-.09-.035-.09-.038-.087-.042-.086-.045-.084-.049-.082-.051-.08-.055-.077-.058-.076-.061-.073-.064-.071-.066-.067-.069-.066-.072-.062-.074-.059-.077-.057-.079-.053-.081-.05-.083-.047-.085-.043-.087-.041-.088-.036-.09-.033-.091-.03-.092-.026-.093-.022-.095-.019-.095-.015-.096-.011-.096-.008-.097-.004-.097v-.096l.004-.097.008-.097.011-.096.015-.096.019-.095.022-.095.026-.093.03-.092.033-.091.036-.09.041-.088.043-.087.047-.085.05-.083.053-.081.057-.079.059-.077.062-.074.066-.072.067-.069.071-.066.073-.064.076-.061.077-.058.08-.055.082-.051.084-.049.086-.045.087-.042.09-.038.09-.035.092-.032.093-.027.093-.025.095-.02.096-.017.096-.013.096-.009.097-.006.097-.002h9.496z"/><path d="m30 17.5s0-.488 0-1.238c0-4.735-3.03-8.939-7.521-10.436-3.743-1.247-7.479-2.493-7.479-2.493v2.338c0 2.249 1.257 4.309 3.258 5.336 3.553 1.827 8.742 4.493 8.742 4.493v5z"/></g><g clip-path="url(#b)"><path d="m14 10v-2h5.71c.552 0 1 .448 1 1s-.448 1-1 1c-1.87 0-5.71 0-5.71 0z" fill="#64420e"/></g><path d="m27.649 14.505.102.008.101.012.1.017.1.021.099.024.098.029.097.033.095.036.094.041.091.044.09.048.088.052.086.055.084.058.081.062.078.066.076.068.073.071.07.075.066.077.064.079.06.083.057.084.054.087.049.089.046.091.043.093.038.094.035.096.031.098.027.098.022.1.019.1.014.101.011.101.006.102.002.102v1.042l-.001.103-.001.108-.003.107-.004.108-.005.109-.007.108-.007.106-.008.108-.01.107-.011.107-.012.106-.013.106-.014.106-.015.105-.016.105-.018.105-.018.105-.02.104-.02.105-.022.103-.023.103-.023.103-.025.102-.026.103-.027.102-.028.102-.028.099-.031.101-.031.101-.031.099-.033.1-.035.099-.034.098-.036.098-.038.099-.037.097-.039.095-.04.097-.041.097-.041.094-.043.094-.044.095-.045.095-.045.092-.046.092-.048.093-.048.092-.049.091-.05.09-.051.091-.052.089-.053.089-.054.088-.054.088-.055.087-.057.087-.057.086-.058.085-.059.085-.06.084-.06.083-.062.084-.062.082-.063.082-.064.08-.065.081-.065.08-.066.078-.067.079-.069.078-.069.077-.069.076-.07.075-.072.076-.071.074-.073.073-.073.073-.075.072-.075.072-.075.07-.077.07-.077.069-.078.068-.078.068-.08.067-.081.066-.08.065-.081.064-.083.064-.083.063-.084.062-.084.061-.085.06-.085.06-.087.059-.087.057-.088.057-.088.056-.089.056-.09.054-.09.054-.091.052-.092.052-.092.05-.092.05-.094.049-.095.049-.094.046-.095.046-.096.046-.097.044-.096.043-.098.043-.098.041-.099.04-.099.04-.1.038-.101.038-.1.036-.101.035-.102.034-.103.034-.102.032-.104.031-.104.03-.104.029-.105.028-.099.026-4.712 1.179-.1.023-.1.018-.101.015-.101.01-.102.006-.102.003-.102-.002-.102-.007-.101-.01-.101-.014-.101-.019-.099-.023-.098-.026-.098-.031-.096-.035-.094-.038-.093-.043-.091-.046-.089-.049-.087-.054-.084-.057-.083-.06-.08-.063-.077-.067-.074-.07-.071-.073-.069-.075-.065-.079-.062-.081-.059-.083-.055-.086-.051-.088-.048-.09-.045-.092-.04-.094-.037-.095-.033-.096-.028-.098-.025-.099-.021-.1-.016-.101-.013-.101-.008-.101-.005-.102v-.102l.005-.102.008-.102.012-.101.017-.101.02-.1.025-.099.029-.098.032-.096.037-.095.04-.094.045-.092.048-.09.051-.088.055-.086.059-.083.062-.081.065-.079.068-.075.072-.073.074-.07.077-.067.08-.064.082-.06.084-.057.087-.053.089-.05.091-.046.093-.043.094-.038.096-.035.098-.031.098-.027 4.7-1.176.06-.015.053-.014.054-.015.052-.015.053-.016.052-.017.052-.017.052-.017.051-.018.052-.019.05-.018.051-.02.05-.02.05-.02.05-.021.049-.021.049-.022.049-.023.048-.022.049-.024.048-.024.047-.024.047-.025.047-.025.047-.026.046-.026.046-.026.046-.028.045-.027.045-.028.045-.028.044-.029.044-.029.044-.03.043-.03.043-.03.043-.032.043-.031.042-.032.041-.032.041-.032.042-.034.04-.033.04-.034.04-.034.04-.035.039-.035.038-.035.039-.036.038-.037.038-.036.037-.037.037-.037.037-.038.035-.038.036-.038.036-.039.035-.039.034-.039.034-.04.034-.041.033-.04.033-.041.033-.042.032-.041.031-.041.031-.042.031-.043.031-.043.029-.043.03-.044.029-.043.028-.044.029-.044.027-.045.028-.045.027-.045.026-.045.025-.045.026-.047.025-.047.025-.046.023-.046.024-.047.024-.048.022-.047.022-.047.021-.049.022-.049.02-.047.02-.048.02-.051.02-.049.018-.048.018-.05.018-.051.017-.049.017-.05.016-.052.016-.049.014-.051.015-.052.015-.051.013-.051.013-.052.013-.051.012-.053.011-.052.011-.053.01-.052.01-.053.01-.052.008-.053.009-.054.007-.053.007-.054.007-.054.006-.054.006-.054.004-.054.005-.054.004-.055.003-.055.002-.054.002-.055.002-.056.001-.055v-.063-1.028l.002-.102.006-.102.011-.101.014-.101.019-.1.023-.1.026-.098.031-.098.035-.096.038-.094.043-.093.046-.091.05-.089.053-.087.057-.084.06-.083.064-.079.066-.077.07-.075.073-.071.076-.068.078-.066.081-.062.084-.058.086-.055.088-.052.09-.048.092-.044.093-.041.095-.036.097-.033.098-.029.099-.024.1-.021.1-.017.101-.012.102-.008.102-.004h.102l.102.004z" fill="#7c6112"/><path d="m13 22v-11h11l3 2-2 9z" fill="#7c6112"/><path d="m4.5 10c-1.381 0-2.5 1.119-2.5 2.5s1.119 2.5 2.5 2.5h18.5v-5s-12.933 0-18.5 0z" fill="#7c6112"/><path d="m10 14v5l1 1 1 3 1 2 2 2h5v-13z" fill="none"/><g clip-path="url(#c)" fill="none" stroke="#3a2305"><path d="m5 15.5h9.5"/><path d="m16 20-5 1.125"/><path d="m18 25-5 1.25"/></g></g></svg>