<svg clip-rule="evenodd" fill-rule="evenodd" stroke-linecap="round" stroke-linejoin="round" stroke-miterlimit="1.5" viewBox="0 0 32 32" xmlns="http://www.w3.org/2000/svg" xmlns:xlink="http://www.w3.org/1999/xlink"><clipPath id="a"><path clip-rule="evenodd" d="m0 .017h32v32h-32z"/></clipPath><clipPath id="b"><path clip-rule="evenodd" d="m6.649 21.153c-.169-.296-.208-.647-.11-.973.099-.326.327-.596.631-.749.131-.065.258-.128.371-.185.294-.147.634-.171.945-.067 1.135.378 3.943 1.314 5.052 1.684.306.102.626.154.949.154h3.026c.323 0 .643-.052.949-.154 1.109-.37 3.917-1.306 5.052-1.684.311-.104.651-.08.945.067.113.057.24.12.371.185.304.153.532.423.631.749.098.326.059.677-.11.973-.6 1.05-1.505 2.634-2.223 3.89-.667 1.167-2.029 1.748-3.333 1.423-.631-.158-1.235-.309-1.556-.39-.159-.039-.322-.059-.485-.059-.716 0-2.792 0-3.508 0-.163 0-.326.02-.485.059-.321.081-.925.232-1.556.39-1.304.325-2.666-.256-3.333-1.423-.718-1.256-1.623-2.84-2.223-3.89z"/></clipPath><path d="m0 .017h32v32h-32z" fill="none"/><g clip-path="url(#a)"><path d="m3 5.385c0-.989.487-1.914 1.302-2.473.814-.56 1.852-.682 2.775-.327.784.301 1.623.624 2.461.946 4.16 1.6 8.764 1.6 12.924 0 .838-.322 1.677-.645 2.461-.946.923-.355 1.961-.233 2.775.327.815.559 1.302 1.484 1.302 2.473v12.59c0 1.959-.719 3.851-2.021 5.315-1.092 1.229-2.448 2.754-3.592 4.042-1.518 1.708-3.694 2.685-5.98 2.685-.691 0-1.412 0-2.093 0-2.122 0-4.157-.843-5.657-2.343-1.329-1.329-2.985-2.986-4.314-4.314-1.5-1.5-2.343-3.535-2.343-5.657 0-3.37 0-8.611 0-12.318z" fill="none" stroke="#000" stroke-width="4"/><path d="m3 5.385c0-.989.487-1.914 1.302-2.473.814-.56 1.852-.682 2.775-.327.784.301 1.623.624 2.461.946 4.16 1.6 8.764 1.6 12.924 0 .838-.322 1.677-.645 2.461-.946.923-.355 1.961-.233 2.775.327.815.559 1.302 1.484 1.302 2.473v12.59c0 1.959-.719 3.851-2.021 5.315-1.092 1.229-2.448 2.754-3.592 4.042-1.518 1.708-3.694 2.685-5.98 2.685-.691 0-1.412 0-2.093 0-2.122 0-4.157-.843-5.657-2.343-1.329-1.329-2.985-2.986-4.314-4.314-1.5-1.5-2.343-3.535-2.343-5.657 0-3.37 0-8.611 0-12.318z" fill="#de1a31"/><path d="m6.649 21.153c-.169-.296-.208-.647-.11-.973.099-.326.327-.596.631-.749.131-.065.258-.128.371-.185.294-.147.634-.171.945-.067 1.135.378 3.943 1.314 5.052 1.684.306.102.626.154.949.154h3.026c.323 0 .643-.052.949-.154 1.109-.37 3.917-1.306 5.052-1.684.311-.104.651-.08.945.067.113.057.24.12.371.185.304.153.532.423.631.749.098.326.059.677-.11.973-.6 1.05-1.505 2.634-2.223 3.89-.667 1.167-2.029 1.748-3.333 1.423-.631-.158-1.235-.309-1.556-.39-.159-.039-.322-.059-.485-.059-.716 0-2.792 0-3.508 0-.163 0-.326.02-.485.059-.321.081-.925.232-1.556.39-1.304.325-2.666-.256-3.333-1.423-.718-1.256-1.623-2.84-2.223-3.89z" fill="#fff"/><g clip-path="url(#b)" stroke="#848484"><path d="m6.5 23.017 1.5-1.5 3.5 3.5 2.5-2.5 2 2 2-2 2.5 2.5 3.5-3.5 2 2" fill="none"/><g fill="#fff"><path d="m23.5 25.517v-.001c0-1.561-.78-3.02-2.08-3.886-.513-.342-.92-.613-.92-.613v5.5"/><path d="m8.5 25.517v-.001c0-1.561.78-3.02 2.08-3.886.513-.342.92-.613.92-.613v5.5"/></g></g><path d="m8.155 18.116.109.005.109.011.102.016.061.011.053.012.054.012.054.015.053.015.047.015 5.053 1.684.043.014.038.012.039.011.039.01.039.009.04.008.039.008.039.007.04.006.04.005.04.005.04.003.04.003.04.002.041.001.045.001h3.016l.045-.001.041-.001.04-.002.04-.003.04-.003.04-.005.04-.005.04-.006.039-.007.039-.008.04-.008.039-.009.039-.01.039-.011.038-.012.043-.014 5.053-1.684.047-.015.053-.015.054-.015.054-.012.053-.012.061-.011.102-.016.109-.011.109-.005h.11l.109.005.108.01.109.016.107.021.106.026.099.03.058.019.052.019.051.021.051.021.051.023.044.022.383.191.045.023.05.028.05.029.048.03.048.031.048.033.045.033.045.035.044.035.043.037.043.038.041.039.04.04.039.04.038.042.037.043.036.044.035.044.033.046.033.046.031.047.03.048.029.049.028.049.026.05.026.051.024.052.022.053.022.052.02.053.018.055.018.056.016.055.014.055.013.055.012.057.01.056.009.057.007.056.006.056.004.057.003.056.002.056v.057l-.002.057-.002.056-.005.057-.005.057-.007.055-.009.055-.01.057-.011.055-.013.055-.014.055-.015.054-.017.055-.018.054-.02.053-.021.052-.022.053-.024.052-.025.052-.027.051-.025.045-2.229 3.9-.04.068-.043.071-.045.07-.046.069-.048.067-.049.067-.05.065-.051.064-.052.063-.054.062-.054.06-.056.059-.057.059-.058.056-.059.055-.06.055-.061.052-.062.052-.063.05-.064.049-.064.047-.066.046-.067.045-.067.043-.068.042-.068.041-.07.039-.07.038-.071.036-.072.035-.072.033-.073.032-.074.031-.074.029-.075.027-.075.026-.076.025-.076.023-.077.022-.077.02-.078.018-.079.017-.078.016-.079.014-.079.012-.08.011-.08.009-.081.008-.08.005-.081.005-.081.002-.081.001h-.081l-.082-.003-.081-.004-.082-.005-.082-.008-.082-.009-.081-.01-.082-.013-.082-.014-.081-.016-.082-.018-.076-.018-1.554-.389-.038-.008-.03-.006-.03-.005-.03-.005-.031-.003-.03-.002-.031-.002h-.038-3.492-.038l-.031.002-.03.002-.031.003-.03.005-.03.005-.03.006-.038.008-1.554.389-.076.018-.082.018-.081.016-.082.014-.082.013-.081.01-.082.009-.082.008-.082.005-.081.004-.082.003h-.081l-.081-.001-.081-.002-.081-.005-.08-.005-.081-.008-.08-.009-.079-.011-.08-.012-.079-.014-.078-.016-.079-.017-.078-.018-.077-.02-.077-.022-.076-.023-.076-.025-.075-.026-.075-.027-.074-.029-.074-.031-.073-.032-.072-.033-.072-.035-.071-.037-.07-.037-.07-.039-.068-.041-.068-.042-.068-.043-.066-.045-.065-.046-.065-.047-.064-.049-.063-.05-.062-.052-.061-.053-.06-.054-.059-.055-.058-.057-.057-.058-.055-.059-.055-.06-.054-.062-.052-.063-.051-.064-.05-.065-.049-.066-.048-.068-.046-.069-.045-.07-.043-.071-.04-.068-2.229-3.9-.025-.045-.027-.051-.025-.052-.023-.051-.023-.053-.021-.053-.02-.053-.018-.054-.017-.055-.015-.054-.014-.055-.013-.055-.011-.055-.01-.056-.009-.056-.007-.056-.005-.056-.005-.056-.002-.057-.002-.057v-.056l.002-.057.003-.056.004-.057.006-.056.007-.057.009-.056.01-.056.012-.056.013-.056.014-.055.016-.056.018-.055.018-.054.02-.054.022-.053.022-.052.024-.052.026-.051.026-.05.028-.05.029-.048.03-.048.031-.047.033-.046.033-.046.036-.045.035-.043.037-.043.038-.042.039-.04.04-.04.042-.039.042-.038.043-.037.044-.035.045-.035.046-.033.047-.033.048-.031.048-.03.05-.029.05-.028.045-.023.383-.191.044-.022.051-.023.051-.021.051-.021.051-.019.058-.019.1-.03.106-.026.108-.021.108-.016.108-.01.109-.005h.11zm-.148 1.002-.06.006-.06.009-.059.011-.059.015-.058.017-.029.01-.028.011-.029.011-.028.012-.028.013-.028.013-.371.185-.028.015-.028.015-.027.016-.027.017-.026.017-.026.018-.026.019-.025.019-.024.02-.024.02-.023.021-.023.021-.022.022-.022.023-.021.023-.02.024-.02.024-.019.024-.019.026-.018.025-.017.026-.017.027-.016.027-.015.027-.015.028-.014.028-.013.029-.013.029-.012.029-.011.03-.01.03-.01.03-.009.031-.008.03-.007.031-.006.031-.006.031-.005.031-.004.032-.003.031-.002.031-.002.031-.001.032v.031l.001.031.002.031.002.032.003.031.004.031.005.031.005.03.006.031.007.031.008.03.009.03.009.03.01.03.011.029.012.03.012.029.013.028.014.029.015.028.015.028 2.223 3.89.032.055.033.053.034.053.034.051.036.051.037.05.037.049.039.048.039.047.04.046.041.046.042.044.042.043.044.043.044.041.045.041.046.039.046.039.047.037.048.037.049.036.049.034.05.034.05.032.051.032.052.03.052.029.053.029.053.027.054.026.054.025.055.024.055.023.056.022.056.021.056.019.057.019.058.017.057.016.058.016.059.013.058.013.059.012.059.01.06.009.06.008.06.007.06.006.06.004.061.004.06.002h.061.061l.061-.002.061-.003.062-.004.061-.006.061-.006.061-.009.062-.009.061-.011.061-.012.062-.013.061-.014 1.556-.39.06-.014.06-.012.06-.01.061-.008.061-.007.061-.005.061-.002.061-.001h3.508l.061.001.061.002.061.005.061.007.061.008.06.01.06.012.06.014 1.556.39.061.014.062.013.061.012.061.011.062.009.061.009.061.006.061.006.062.004.061.003.061.002h.061.061l.06-.002.061-.004.06-.004.06-.006.06-.007.06-.008.06-.009.059-.01.059-.012.058-.013.059-.013.058-.016.057-.016.058-.017.057-.019.056-.019.056-.021.056-.022.055-.023.055-.024.054-.025.054-.026.053-.027.053-.029.052-.029.052-.03.051-.032.05-.032.05-.034.049-.034.049-.036.048-.037.047-.037.046-.039.046-.039.045-.041.044-.041.044-.043.042-.043.042-.044.041-.046.04-.046.039-.047.039-.048.037-.049.037-.05.036-.051.034-.051.034-.053.033-.053.032-.055 2.223-3.89.015-.028.015-.028.014-.029.013-.028.012-.029.012-.03.011-.029.01-.03.009-.03.009-.03.008-.03.007-.031.006-.031.005-.03.005-.031.004-.031.003-.031.002-.032.002-.031.001-.031v-.031l-.001-.032-.002-.031-.002-.031-.003-.031-.004-.032-.005-.031-.006-.031-.006-.031-.007-.031-.008-.03-.009-.031-.01-.03-.01-.03-.011-.03-.012-.029-.013-.029-.013-.029-.014-.028-.015-.028-.015-.027-.016-.027-.017-.027-.017-.026-.018-.025-.019-.026-.019-.024-.02-.024-.02-.024-.021-.023-.022-.023-.022-.022-.023-.021-.023-.021-.024-.02-.024-.02-.025-.019-.026-.019-.026-.018-.026-.017-.027-.017-.027-.016-.028-.015-.028-.015-.371-.185-.028-.013-.028-.013-.028-.012-.029-.011-.028-.011-.029-.01-.058-.017-.059-.015-.059-.011-.06-.009-.06-.006-.061-.002h-.06l-.06.003-.061.006-.06.009-.03.006-.029.006-.03.007-.03.008-.029.008-.029.01-5.052 1.684-.058.018-.058.018-.058.016-.058.015-.059.014-.059.012-.059.012-.059.01-.06.009-.06.008-.06.007-.06.005-.06.004-.06.003-.06.002-.061.001h-3.026l-.061-.001-.06-.002-.06-.003-.06-.004-.06-.005-.06-.007-.06-.008-.06-.009-.059-.01-.059-.012-.059-.012-.059-.014-.058-.015-.058-.016-.058-.018-.058-.018-5.052-1.684-.029-.01-.029-.008-.03-.008-.03-.007-.029-.006-.03-.006-.06-.009-.061-.006-.06-.003h-.06l-.061.002z" fill="#9b141d"/><path d="m21.028 10.256c-1.155.433-1.802 1.665-1.503 2.862.005.02.01.04.015.06.27 1.081 1.242 1.839 2.356 1.839h2.104c.796 0 1.559-.316 2.121-.879.563-.563.879-1.326.879-2.121 0-.37 0-.747 0-1.114 0-.656-.322-1.271-.861-1.644-.539-.374-1.227-.459-1.841-.229-1.07.401-2.278.854-3.27 1.226z" fill="#ffba43"/><path d="m10.972 10.256c1.155.433 1.802 1.665 1.503 2.862-.005.02-.01.04-.015.06-.27 1.081-1.242 1.839-2.356 1.839-.648 0-1.39 0-2.104 0-.796 0-1.559-.316-2.121-.879-.563-.563-.879-1.326-.879-2.121 0-.37 0-.747 0-1.114 0-.656.322-1.271.861-1.644.539-.374 1.227-.459 1.841-.229 1.07.401 2.278.854 3.27 1.226z" fill="#ffba43"/><circle cx="22.5" cy="12.517" r="1.5"/><circle cx="9.5" cy="12.517" r="1.5"/><path d="m17.242 11.986c-.142-.57-.654-.969-1.241-.969-.001 0-.001 0-.002 0-.587 0-1.099.399-1.241.969-.059.234-.123.493-.19.758-.334 1.336-1.534 2.273-2.91 2.273-1.718 0-4.026 0-5.658 0-.53 0-1.039.21-1.414.585-.375.376-.586.884-.586 1.415 0 .53.211 1.039.586 1.414s.884.586 1.414.586h13.218c.473 0 .926-.188 1.26-.522s.522-.788.522-1.26c0-.001 0-.001 0-.002 0-.726-.465-1.371-1.154-1.601-.093-.031-.188-.063-.284-.095-.973-.324-1.713-1.123-1.961-2.118-.122-.485-.251-1.003-.359-1.433z" fill="#7e1016"/><path d="m20.224 5.667c-.724.207-1.224.869-1.224 1.623v.003c0 .952.772 1.724 1.724 1.724h1.276c.649 0 1.281-.211 1.8-.6.666-.5 1.613-1.21 2.304-1.728.519-.389.685-1.094.395-1.674 0-.001-.001-.001-.001-.002-.289-.578-.948-.868-1.569-.69-1.267.362-3.374.964-4.705 1.344z"/><path d="m11.776 5.667c.724.207 1.224.869 1.224 1.623v.003c0 .952-.772 1.724-1.724 1.724-.436 0-.889 0-1.276 0-.649 0-1.281-.211-1.8-.6-.666-.5-1.613-1.21-2.304-1.728-.519-.389-.685-1.094-.395-1.674 0-.001.001-.001.001-.002.289-.578.948-.868 1.569-.69 1.267.362 3.374.964 4.705 1.344z"/></g></svg>