<svg clip-rule="evenodd" fill-rule="evenodd" stroke-linecap="round" stroke-linejoin="round" stroke-miterlimit="1.5" viewBox="0 0 32 32" xmlns="http://www.w3.org/2000/svg" xmlns:xlink="http://www.w3.org/1999/xlink"><clipPath id="a"><path clip-rule="evenodd" d="m0 0h32v32h-32z"/></clipPath><path d="m0 0h32v32h-32z" fill="none"/><g clip-path="url(#a)"><path d="m23.039 7.069-.039-.069s1.319-.659 2.442-1.221c1.032-.516 1.974-1.195 2.79-2.011.828-.828 1.768-1.768 1.768-1.768v4.758c0 2.225-.724 4.375-2.041 6.135.67 1.568 1.041 3.294 1.041 5.107v1.502c0 2.784-1.106 5.454-3.075 7.423s-4.639 3.075-7.423 3.075c-1.649 0-3.355 0-5.004 0-2.784 0-5.454-1.106-7.423-3.075s-3.075-4.639-3.075-7.423c0-.498 0-1 0-1.504 0-1.812.371-3.538 1.041-5.105-1.317-1.761-2.041-3.911-2.041-6.135 0-2.333 0-4.758 0-4.758s.94.94 1.768 1.768c.816.816 1.758 1.495 2.79 2.011 1.123.562 2.442 1.221 2.442 1.221l-.039.068c2.028-1.309 4.444-2.068 7.037-2.068h.002c2.594 0 5.011.76 7.039 2.069z" fill="none" stroke="#000" stroke-width="4"/><path d="m23 7s1.319-.659 2.442-1.221c1.032-.516 1.974-1.195 2.79-2.011.828-.828 1.768-1.768 1.768-1.768v4.758c0 2.716-1.079 5.321-3 7.242z" fill="#530f8a"/><path d="m9 7s-1.319-.659-2.442-1.221c-1.032-.516-1.974-1.195-2.79-2.011-.828-.828-1.768-1.768-1.768-1.768v4.758c0 2.716 1.079 5.321 3 7.242z" fill="#530f8a"/><path d="m29 18c0-7.18-5.82-13-13-13-.001 0-.001 0-.002 0-7.179 0-12.998 5.819-12.998 12.998v1.504c0 2.784 1.106 5.454 3.075 7.423s4.639 3.075 7.423 3.075h5.004c2.784 0 5.454-1.106 7.423-3.075s3.075-4.639 3.075-7.423c0-.497 0-.999 0-1.502z" fill="#a253e2"/><path d="m18.939 22.147 2.145-2.145.045.003 3.671 4.895.045.065.039.068.034.07.028.074.023.075.016.077.011.077.004.079-.002.078-.008.078-.014.078-.02.076-.026.074-.032.071-.038.069-.042.066-.048.063-.052.058-.057.054-.061.05-.065.045-.068.039-.07.034-.074.028-.075.023-.077.016-.077.011-.079.004-.078-.002-.078-.008-.078-.014-.076-.02-.074-.026-.071-.032-.069-.038-.066-.042-.063-.048-.058-.052-.054-.057-.05-.061-2.308-3.078-1.831 1.831-3.059-2.55-3.064 2.571-1.833-1.848-2.305 3.074-.05.061-.054.057-.058.052-.063.048-.066.042-.069.038-.071.032-.074.026-.076.02-.078.014-.078.008-.078.002-.079-.004-.077-.011-.077-.016-.075-.023-.074-.028-.07-.034-.068-.039-.065-.045-.061-.05-.057-.054-.052-.058-.048-.063-.042-.066-.038-.069-.032-.071-.026-.074-.02-.076-.014-.078-.008-.078-.002-.078.004-.079.011-.077.016-.077.023-.075.028-.074.034-.07.039-.068.045-.065 3.671-4.895.052-.003 2.139 2.157 2.936-2.462z" fill="#3f0c69"/><path d="m18 15 5-5c1.105 0 2 .895 2 2v3.5c0 1.933-1.567 3.5-3.5 3.5s-3.5-1.567-3.5-3.5c0-.165 0-.332 0-.5z"/><path d="m14 15-5-5c-1.105 0-2 .895-2 2v3.5c0 1.933 1.567 3.5 3.5 3.5s3.5-1.567 3.5-3.5c0-.165 0-.332 0-.5z"/><g fill="#f2c040"><path d="m9.065 12.065 2.935 2.935v.483c0 .398-.158.78-.439 1.061-.282.281-.663.439-1.061.439s-.779-.158-1.061-.439c-.281-.281-.439-.663-.439-1.061 0-.911 0-2.071 0-2.983 0-.149.022-.295.065-.435z"/><path d="m22.935 12.065c.043.14.065.286.065.435v2.983c0 .398-.158.78-.439 1.061-.282.281-.663.439-1.061.439s-.779-.158-1.061-.439c-.281-.281-.439-.663-.439-1.061v-.483z"/></g></g></svg>