<svg clip-rule="evenodd" fill-rule="evenodd" stroke-linecap="round" stroke-linejoin="round" stroke-miterlimit="1.5" viewBox="0 0 32 32" xmlns="http://www.w3.org/2000/svg" xmlns:xlink="http://www.w3.org/1999/xlink"><clipPath id="a"><path clip-rule="evenodd" d="m0 .017h32v32h-32z"/></clipPath><clipPath id="b"><path clip-rule="evenodd" d="m18.46 19.556s0-.16 0-.433c0-1.763.701-3.453 1.947-4.699 1.246-1.247 2.937-1.947 4.699-1.947h.434v.433c0 1.763-.701 3.453-1.947 4.7-1.246 1.246-2.937 1.946-4.699 1.946-.273 0-.434 0-.434 0z"/></clipPath><clipPath id="c"><path clip-rule="evenodd" d="m13.625 19.642s0-.229 0-.604c0-1.763-.7-3.453-1.947-4.7-1.246-1.246-2.937-1.946-4.699-1.946-.376 0-.604 0-.604 0v.604c0 1.762.7 3.453 1.947 4.699 1.246 1.246 2.937 1.947 4.699 1.947z"/></clipPath><path d="m0 .017h32v32h-32z" fill="none"/><g clip-path="url(#a)"><path d="m3.812 11.317c-1.113 4.73.505 9.685 4.194 12.848 1.886 1.616 3.871 3.318 5.391 4.62 1.498 1.284 3.708 1.284 5.206 0 1.52-1.302 3.505-3.004 5.391-4.62 3.689-3.163 5.307-8.118 4.194-12.848-.004-.016-.007-.033-.011-.049-1.276-5.42-6.113-9.251-11.681-9.251-.33 0-.662 0-.992 0-5.568 0-10.405 3.831-11.681 9.251-.004.016-.007.033-.011.049z" fill="none" stroke="#000" stroke-width="4"/><path d="m3.812 11.317c-1.113 4.73.505 9.685 4.194 12.848 1.886 1.616 3.871 3.318 5.391 4.62 1.498 1.284 3.708 1.284 5.206 0 1.52-1.302 3.505-3.004 5.391-4.62 3.689-3.163 5.307-8.118 4.194-12.848-.004-.016-.007-.033-.011-.049-1.276-5.42-6.113-9.251-11.681-9.251-.33 0-.662 0-.992 0-5.568 0-10.405 3.831-11.681 9.251-.004.016-.007.033-.011.049z" fill="#89c794"/><path d="m18.46 19.556s0-.16 0-.433c0-1.763.701-3.453 1.947-4.699 1.246-1.247 2.937-1.947 4.699-1.947h.434v.433c0 1.763-.701 3.453-1.947 4.7-1.246 1.246-2.937 1.946-4.699 1.946-.273 0-.434 0-.434 0z"/><g clip-path="url(#b)"><path d="m17 19.017h1c2.761 0 5-2.239 5-5 0-2.072 0-4 0-4h-6z" fill="#666"/></g><path d="m13.625 19.642s0-.229 0-.604c0-1.763-.7-3.453-1.947-4.7-1.246-1.246-2.937-1.946-4.699-1.946-.376 0-.604 0-.604 0v.604c0 1.762.7 3.453 1.947 4.699 1.246 1.246 2.937 1.947 4.699 1.947z"/><g clip-path="url(#c)"><path d="m6 13.017h.002c1.326 0 2.597.526 3.534 1.464.937.937 1.464 2.208 1.464 3.534v3.002h-5z" fill="#666"/></g><path d="m26 12.017v1.354l-.001.086-.001.085-.003.086-.004.085-.004.085-.006.084-.007.084-.008.084-.009.084-.01.083-.011.083-.013.083-.013.082-.014.082-.015.082-.016.081-.017.081-.018.081-.019.08-.02.08-.021.079-.022.079-.023.079-.024.078-.025.078-.025.077-.027.077-.027.077-.029.076-.029.076-.03.075-.031.075-.032.074-.033.074-.034.073-.034.073-.036.072-.036.072-.037.072-.038.071-.039.07-.04.07-.04.069-.041.069-.042.068-.043.068-.044.067-.044.067-.045.066-.046.065-.047.065-.047.064-.049.064-.048.063-.05.062-.051.062-.051.061-.052.061-.052.06-.054.059-.053.059-.055.058-.056.057-.056.057-.056.056-.058.056-.058.054-.058.054-.06.053-.06.053-.06.052-.062.051-.061.051-.063.049-.063.049-.064.048-.064.048-.065.047-.065.045-.066.046-.067.044-.067.044-.068.043-.068.042-.069.041-.069.04-.07.04-.07.039-.071.038-.071.037-.072.036-.073.035-.073.035-.073.034-.074.032-.074.032-.075.032-.075.03-.076.029-.076.028-.076.028-.077.027-.078.025-.078.025-.078.024-.079.023-.079.021-.079.021-.08.02-.08.02-.081.018-.081.017-.081.016-.082.015-.082.014-.082.013-.083.012-.083.011-.083.01-.083.009-.084.008-.085.007-.084.006-.085.005-.085.004-.085.003-.086.001-.086.001h-1.354v-1.354l.001-.086.001-.086.003-.085.004-.085.004-.085.006-.085.007-.084.008-.084.009-.083.01-.084.011-.083.013-.082.013-.083.014-.082.015-.081.016-.082.017-.081.018-.08.019-.08.02-.08.021-.08.022-.079.023-.078.024-.079.025-.077.025-.078.027-.077.027-.076.029-.077.029-.075.03-.075.031-.075.032-.075.033-.073.034-.074.034-.073.036-.072.036-.072.037-.071.038-.071.039-.071.04-.069.04-.07.041-.068.042-.069.043-.067.044-.068.044-.066.045-.066.046-.066.047-.064.047-.065.049-.063.048-.063.05-.063.051-.062.051-.061.052-.061.052-.06.054-.059.053-.059.055-.058.056-.057.056-.057.056-.056.058-.055.058-.055.058-.054.06-.053.06-.053.06-.052.062-.051.061-.05.063-.05.063-.049.064-.048.064-.047.065-.047.065-.046.066-.045.067-.045.067-.043.068-.043.068-.042.069-.041.069-.041.07-.039.07-.039.071-.038.071-.037.072-.037.073-.035.073-.035.073-.033.074-.033.074-.032.075-.031.075-.03.076-.03.076-.028.076-.028.077-.026.078-.026.078-.025.078-.023.079-.023.079-.022.079-.021.08-.02.08-.019.081-.018.081-.017.081-.016.082-.015.082-.015.082-.013.083-.012.083-.011.083-.01.083-.009.084-.008.085-.007.084-.006.085-.005.085-.003.085-.003.086-.002h.086 1.354zm-1.351 1h-.076l-.073.002-.073.002-.072.003-.073.004-.072.005-.071.006-.071.007-.072.008-.07.008-.071.01-.07.01-.07.011-.07.012-.069.013-.069.013-.069.015-.068.015-.068.016-.068.017-.067.018-.067.019-.067.019-.066.02-.066.021-.066.022-.065.023-.065.023-.065.024-.064.025-.064.026-.063.026-.063.027-.063.028-.062.029-.062.029-.062.03-.061.031-.06.031-.061.033-.059.032-.06.034-.058.034-.059.036-.058.035-.057.036-.057.038-.057.037-.056.039-.056.039-.055.039-.055.041-.054.041-.053.041-.053.043-.053.043-.052.043-.052.044-.051.045-.05.045-.05.046-.049.047-.049.047-.048.047-.048.049-.047.048-.047.05-.045.05-.046.05-.044.051-.045.052-.043.052-.043.052-.042.053-.042.054-.041.054-.04.055-.04.055-.039.056-.038.056-.038.056-.037.057-.036.058-.036.058-.035.058-.035.059-.033.059-.033.06-.032.061-.032.06-.031.061-.03.061-.029.062-.029.063-.028.062-.027.063-.026.064-.026.064-.025.064-.024.064-.023.065-.023.066-.021.065-.021.066-.021.067-.019.067-.018.066-.018.068-.017.068-.016.068-.016.068-.014.069-.014.069-.013.069-.012.07-.011.07-.01.07-.01.07-.008.071-.008.071-.007.071-.005.072-.005.072-.005.073-.003.072-.002.072-.002.073v.077.351h.351l.076-.001.073-.001.073-.002.072-.004.073-.004.072-.005.071-.006.071-.007.072-.007.07-.009.071-.009.07-.01.07-.012.07-.012.069-.012.069-.014.069-.015.068-.015.068-.016.068-.017.067-.018.067-.018.067-.02.066-.02.066-.021.066-.022.065-.022.065-.024.065-.024.064-.025.064-.025.063-.027.063-.027.063-.028.062-.028.062-.03.062-.03.061-.03.06-.032.061-.032.059-.033.06-.034.059-.034.058-.035.058-.036.057-.036.057-.037.057-.038.056-.038.056-.039.055-.04.055-.041.054-.04.053-.042.053-.042.053-.043.052-.044.052-.044.051-.045.05-.045.05-.046.049-.046.049-.047.048-.048.048-.048.047-.049.047-.049.045-.05.046-.051.044-.051.045-.051.043-.052.043-.053.042-.053.042-.054.041-.054.04-.055.04-.055.039-.055.038-.056.038-.057.037-.057.036-.057.036-.058.035-.059.035-.059.033-.059.033-.06.032-.06.032-.061.031-.061.03-.061.029-.062.029-.062.028-.063.027-.063.026-.063.026-.064.025-.064.024-.065.023-.065.023-.065.021-.066.021-.066.021-.067.019-.066.018-.067.018-.067.017-.068.016-.069.016-.068.014-.068.014-.069.013-.07.012-.069.011-.07.01-.071.01-.07.008-.071.008-.071.007-.071.005-.072.005-.072.005-.072.003-.073.002-.072.002-.073v-.077-.35z"/><path d="m7.44 12.017.086.002.085.003.085.003.085.005.084.006.085.007.084.008.083.009.083.01.083.011.083.012.082.013.082.015.082.015.081.016.081.017.081.018.08.019.08.02.079.021.079.022.079.023.078.023.078.025.078.026.077.026.076.028.076.028.076.03.075.03.075.031.074.032.074.033.073.033.073.035.073.035.072.037.071.037.071.038.07.039.07.039.069.041.069.041.068.042.068.043.067.043.067.045.066.045.065.046.065.047.064.047.064.048.063.049.063.05.061.05.062.051.06.052.06.053.06.053.058.054.058.055.058.055.056.056.056.057.056.057.055.058.053.059.054.059.052.06.052.061.051.061.051.062.05.063.048.063.049.063.047.065.047.064.046.066.045.066.044.066.044.068.043.067.042.069.041.068.04.07.04.069.039.071.038.071.037.071.036.072.036.072.034.073.034.074.033.073.032.075.031.075.03.075.029.075.029.077.027.076.027.077.025.078.025.077.024.079.023.078.022.079.021.08.02.08.019.08.018.08.017.081.016.082.015.081.014.082.013.083.013.082.011.083.01.084.009.083.008.084.007.084.006.085.004.085.004.085.003.085.001.086.001.086v1.354h-1.354l-.086-.001-.086-.001-.085-.003-.085-.004-.085-.005-.084-.006-.085-.007-.084-.008-.083-.009-.083-.01-.083-.011-.083-.012-.082-.013-.082-.014-.082-.015-.081-.016-.081-.017-.081-.018-.08-.02-.08-.02-.079-.021-.079-.021-.079-.023-.078-.024-.078-.025-.078-.025-.077-.027-.076-.028-.076-.028-.076-.029-.075-.03-.075-.032-.074-.032-.074-.032-.073-.034-.073-.035-.073-.035-.072-.036-.071-.037-.071-.038-.07-.039-.07-.04-.069-.04-.069-.041-.068-.042-.068-.043-.067-.044-.067-.044-.066-.046-.065-.045-.065-.047-.064-.048-.064-.048-.063-.049-.063-.049-.061-.051-.062-.051-.06-.052-.06-.053-.06-.053-.058-.054-.058-.054-.058-.056-.056-.056-.056-.057-.056-.057-.055-.058-.053-.059-.054-.059-.052-.06-.052-.061-.051-.061-.051-.062-.05-.062-.048-.063-.049-.064-.047-.064-.047-.065-.046-.065-.045-.066-.044-.067-.044-.067-.043-.068-.042-.068-.041-.069-.04-.069-.04-.07-.039-.07-.038-.071-.037-.072-.036-.072-.036-.072-.034-.073-.034-.073-.033-.074-.032-.074-.031-.075-.03-.075-.029-.076-.029-.076-.027-.077-.027-.077-.025-.077-.025-.078-.024-.078-.023-.079-.022-.079-.021-.079-.02-.08-.019-.08-.018-.081-.017-.081-.016-.081-.015-.082-.014-.082-.013-.082-.013-.083-.011-.083-.01-.083-.009-.084-.008-.084-.007-.084-.006-.084-.004-.085-.004-.085-.003-.086-.001-.085-.001-.086v-1.354h1.354.086zm-.44 1v.35.077l.002.073.002.072.003.073.005.072.005.072.005.072.007.071.008.071.008.071.01.07.01.071.011.07.012.069.013.07.014.069.014.068.016.068.016.069.017.068.018.067.018.067.019.066.021.067.021.066.021.066.023.065.023.065.024.065.025.064.026.064.026.063.027.063.028.063.029.062.029.062.03.061.031.061.032.061.032.06.033.06.033.059.035.059.035.059.036.058.036.057.037.057.038.057.038.056.039.055.04.055.04.055.041.054.042.054.042.053.043.053.043.052.045.051.044.051.046.051.045.05.047.049.047.049.048.048.048.048.049.047.049.046.05.046.05.045.051.045.052.044.052.044.053.043.053.042.053.042.054.04.055.041.055.04.056.039.056.038.057.038.057.037.057.036.058.036.058.035.059.034.06.034.059.033.061.032.06.032.061.03.062.03.062.03.062.028.063.028.063.027.063.027.064.025.064.025.065.024.065.024.065.022.066.022.066.021.066.02.067.02.067.018.067.018.068.017.068.016.068.015.069.015.069.014.069.012.07.012.07.012.07.01.071.009.07.009.072.007.071.007.071.006.072.005.073.004.072.004.073.002.073.001.076.001h.351v-.351-.077l-.002-.073-.002-.072-.003-.072-.005-.073-.005-.072-.005-.072-.007-.071-.008-.071-.008-.071-.01-.07-.01-.07-.011-.07-.012-.07-.013-.069-.014-.069-.014-.069-.016-.068-.016-.068-.017-.068-.018-.068-.018-.066-.019-.067-.021-.067-.021-.066-.021-.065-.023-.066-.023-.065-.024-.064-.025-.064-.026-.064-.026-.064-.027-.063-.028-.062-.029-.063-.029-.062-.03-.061-.031-.061-.032-.06-.032-.061-.033-.06-.033-.059-.035-.059-.035-.058-.036-.058-.036-.058-.037-.057-.038-.056-.038-.056-.039-.056-.04-.055-.04-.055-.041-.054-.042-.054-.042-.053-.043-.052-.043-.052-.045-.052-.044-.051-.046-.05-.045-.05-.047-.05-.047-.048-.048-.049-.048-.047-.049-.047-.049-.047-.05-.046-.05-.045-.051-.045-.052-.044-.052-.043-.053-.043-.053-.043-.053-.041-.054-.041-.055-.041-.055-.039-.056-.039-.056-.039-.057-.037-.057-.038-.057-.036-.058-.035-.059-.036-.058-.034-.06-.034-.059-.032-.061-.033-.06-.031-.061-.031-.062-.03-.062-.029-.062-.029-.063-.028-.063-.027-.063-.026-.064-.026-.064-.025-.065-.024-.065-.023-.065-.023-.066-.022-.066-.021-.066-.02-.067-.019-.067-.019-.067-.018-.068-.017-.068-.016-.068-.015-.069-.015-.069-.013-.069-.013-.07-.012-.07-.011-.07-.01-.071-.01-.07-.008-.072-.008-.071-.007-.071-.006-.072-.005-.073-.004-.072-.003-.073-.002-.073-.002h-.076-.351z"/><path d="m13 25.017 3-3 3 3" fill="none" stroke="#3f854b" stroke-width="2"/></g></svg>