<svg clip-rule="evenodd" fill-rule="evenodd" stroke-miterlimit="3" viewBox="0 0 32 32" xmlns="http://www.w3.org/2000/svg" xmlns:xlink="http://www.w3.org/1999/xlink"><clipPath id="a"><path clip-rule="evenodd" d="m0 0h32v32h-32z"/></clipPath><clipPath id="b"><path clip-rule="evenodd" d="m0 4h27v28h-27z"/></clipPath><path d="m0 0h32v32h-32z" fill="none"/><g clip-path="url(#a)"><path d="m28.683 7.106-2.302 4.605-.051.099-.058.107-.06.106-.061.104-.064.102-.066.102-.067.1-.07.098-.071.097-.073.096-.076.094-.077.093-.079.09-.08.089-.083.088-.084.085-.085.084-.088.083-.089.08-.091.079-.092.077-.094.076-.096.073-.096.071-.099.07-.1.067-.101.066-.103.064-.105.062-.105.059-.107.058-.099.051-1.711.855-8-4v-.472l3.904-1.952.045-.023.035-.019.036-.02.035-.021.034-.021.034-.022.033-.022.033-.024.032-.023.032-.025.031-.025.031-.026.03-.026.03-.027.029-.027.029-.028.028-.029.027-.029.027-.03.027-.031.025-.03.025-.031.024-.032.024-.032.024-.033.022-.034.022-.033.021-.035.021-.034.019-.035.02-.036.023-.045 2.294-4.587zm-6.302 2.605-.051.099-.058.107-.06.106-.061.104-.064.102-.066.102-.067.1-.07.098-.071.097-.025.032.209.105.023-.013.035-.021.034-.021.034-.022.033-.022.033-.024.032-.023.032-.025.031-.025.031-.026.03-.026.03-.027.029-.027.029-.028.028-.029.027-.029.027-.03.027-.031.025-.03.025-.031.024-.032.024-.032.024-.033.022-.034.022-.033.021-.035.021-.034.019-.035.02-.036.023-.045.505-1.01-.423-.211z"/><path d="m24.236 13h-6.472l6.5-13h6.472z"/><path d="m0 4h27v28h-27z" fill="none"/><g clip-path="url(#b)"><path d="m11 30 7.293-7.293c.39-.39 1.024-.39 1.414 0l.05.05c1.126 1.126 1.758 2.652 1.758 4.243 0 1.065-.283 2.101-.812 3z" fill="none" stroke="#000" stroke-width="4"/><path d="m25.876 17.215-2.599 9.096-.029.1-.034.106-.034.105-.037.106-.038.105-.04.103-.041.103-.043.102-.044.101-.047.101-.047.1-.049.098-.051.099-.053.099-.054.096-.054.095-.057.095-.059.095-.059.092-.062.093-.063.091-.064.09-.066.089-.067.089-.069.087-.069.086-.071.084-.073.084-.074.084-.076.082-.076.079-.073.074-.184.185-.063.06-.072.068-.075.066-.075.063-.076.061-.078.059-.081.059-.082.055-.08.053-.084.051-.085.05-.086.047-.086.045-.088.042-.088.041-.09.038-.091.037-.092.034-.092.031-.092.03-.094.027-.095.025-.095.023-.096.02-.096.018-.097.016-.098.013-.098.011-.098.009-.099.006-.099.003-.099.002-.099-.002-.099-.003-.099-.006-.098-.009-.098-.011-.098-.013-.097-.016-.096-.018-.096-.02-.095-.023-.095-.025-.094-.027-.092-.03-.093-.032-.092-.034-.09-.036-.089-.038-.089-.041-.088-.042-.086-.045-.086-.047-.085-.05-.084-.051-.082-.054-.08-.055-.08-.057-.079-.06-.077-.062-.075-.063-.074-.065-.072-.068-.063-.06-3.508-3.509 5.25-5.251.088-.087.095-.09.096-.089.097-.088.098-.086.099-.084.1-.083.102-.082.103-.08.104-.079.105-.077.106-.076.107-.073.108-.073.109-.07.111-.07.111-.067.112-.066.113-.065.114-.062.115-.061.116-.06.117-.058.117-.056.119-.054.119-.053.12-.051.121-.049.122-.048.122-.046.123-.044.118-.04 4.728-1.576.219.209zm-8.048 8.785.663.663.009.008.009-.008.155-.155.039-.04.033-.035.033-.035.031-.035.031-.036.031-.037.03-.037.029-.037.029-.038.028-.038.028-.039.027-.039.026-.039.026-.04.024-.04.025-.041.024-.042.023-.041.022-.041.021-.042.022-.043.02-.043.02-.043.019-.043.019-.044.017-.045.017-.044.017-.045.015-.044.015-.046.014-.046.016-.052.322-1.126z"/><path d="m2 27 11.293-11.293c.39-.39 1.024-.39 1.414 0l.05.05c1.126 1.126 1.758 2.652 1.758 4.243s-.632 3.117-1.758 4.243l-5.757 5.757h-7z" fill="none" stroke="#000" stroke-miterlimit="2" stroke-width="4"/><path d="m20.876 10.215-2.599 9.096-.029.099-.034.107-.035.106-.036.105-.038.103-.04.105-.041.103-.043.102-.044.101-.046.1-.048.102-.049.098-.051.098-.053.099-.053.095-.055.096-.058.096-.058.094-.059.092-.062.093-.063.091-.064.09-.066.089-.066.088-.069.087-.071.088-.071.084-.072.083-.074.084-.076.082-.076.08-.073.074-.184.184-.062.06-.073.068-.075.066-.075.063-.077.061-.078.059-.079.058-.081.055-.083.054-.084.052-.084.049-.086.047-.086.044-.088.043-.089.041-.089.038-.091.037-.092.034-.091.031-.093.03-.095.027-.094.025-.095.023-.096.02-.096.018-.097.016-.098.013-.098.011-.098.009-.099.006-.099.004-.099.001-.099-.001-.099-.004-.099-.006-.098-.009-.098-.011-.098-.013-.096-.016-.097-.018-.096-.02-.095-.023-.095-.025-.093-.027-.094-.03-.092-.032-.091-.034-.09-.036-.09-.038-.089-.041-.088-.042-.087-.046-.086-.047-.084-.049-.083-.051-.082-.053-.082-.056-.078-.057-.079-.059-.078-.063-.075-.063-.074-.065-.073-.068-.062-.06-3.508-3.509 5.25-5.251.089-.087.094-.09.095-.089.098-.088.098-.086.099-.084.101-.084.102-.081.102-.08.104-.079.105-.077.106-.075.107-.074.109-.073.109-.07.109-.07.112-.067.112-.066.113-.064.114-.063.115-.062.116-.059.116-.058.118-.056.119-.054.119-.053.12-.051.121-.049.122-.048.122-.046.123-.044.117-.04 4.729-1.576zm-8.048 8.785.663.663.009.008.009-.008.155-.155.039-.04.033-.035.032-.035.032-.035.032-.037.031-.037.029-.035.029-.037.029-.039.028-.038.028-.039.027-.039.026-.039.026-.04.025-.041.024-.04.023-.041.024-.042.022-.041.022-.043.021-.043.02-.041.02-.044.019-.043.019-.044.017-.045.017-.043.017-.046.015-.045.015-.045.014-.044.016-.054.322-1.126z"/><path d="m0 17 5.293-5.293c.39-.39 1.024-.39 1.414 0 .017.017.033.033.05.05 1.126 1.126 1.758 2.652 1.758 4.243s-.632 3.117-1.758 4.243l-6.757 6.757v-10z" fill="none" stroke="#000" stroke-miterlimit="2" stroke-width="4"/><path d="m12.876 6.215-2.599 9.096-.029.1-.034.106-.034.105-.037.106-.038.105-.04.103-.041.103-.043.102-.044.101-.047.101-.047.1-.049.099-.051.098-.052.098-.054.097-.055.095-.057.095-.059.095-.059.092-.062.093-.063.091-.064.09-.066.089-.067.089-.069.087-.069.086-.071.084-.073.085-.075.083-.074.081-.078.081-.073.074-.183.184-.063.06-.071.067-.075.066-.076.064-.076.061-.079.06-.08.058-.08.054-.082.054-.084.051-.085.05-.086.047-.087.045-.087.042-.089.041-.089.038-.09.036-.093.035-.092.031-.092.03-.094.027-.095.025-.095.023-.096.02-.096.018-.097.016-.098.013-.098.011-.098.009-.099.006-.099.003-.099.002-.1-.002-.098-.003-.099-.006-.098-.009-.098-.011-.098-.013-.097-.016-.096-.018-.096-.02-.095-.023-.095-.025-.094-.027-.092-.03-.092-.031-.093-.035-.09-.036-.089-.038-.089-.041-.088-.042-.086-.045-.086-.047-.085-.05-.083-.051-.083-.054-.08-.055-.08-.057-.079-.06-.076-.061-.076-.064-.075-.066-.071-.067-.063-.06-3.508-3.509 5.25-5.251.088-.087.095-.09.096-.089.097-.088.098-.086.099-.084.1-.083.102-.082.103-.08.104-.079.105-.077.106-.076.107-.073.108-.073.109-.07.111-.07.111-.067.112-.066.113-.065.114-.062.115-.061.116-.06.117-.058.117-.056.119-.054.119-.053.12-.051.121-.049.122-.048.122-.046.123-.044.117-.04 4.729-1.576.219.209zm-8.048 8.785.663.663.009.008.009-.008.155-.156.039-.039.033-.034.033-.036.031-.036.031-.035.031-.037.03-.037.029-.037.029-.038.028-.038.028-.039.027-.039.026-.039.026-.04.024-.04.025-.041.024-.042.022-.04.023-.042.022-.043.021-.042.02-.043.02-.043.019-.043.019-.044.017-.045.018-.044.016-.044.015-.045.015-.046.014-.046.016-.052.322-1.126z"/></g><path d="m16.372 18.697c.429 1.935-.11 4.041-1.615 5.546l-5.757 5.757h-7v-3l7.207-7.207c.142.662 7.165-1.096 7.165-1.096zm5 7c.321 1.446.101 2.988-.66 4.303h-9.712l3.207-3.207c1.069-.153 7.165-1.096 7.165-1.096zm-13-11c.429 1.935-.11 4.041-1.615 5.546l-4.757 4.757v-7.007c.742.024 6.372-3.296 6.372-3.296zm10.631 7.306c-.058.054-.115.109-.171.165l.168-.168zm-5-7c-.058.054-.115.109-.171.165l.168-.168zm-8-4c-.058.054-.115.109-.171.165l.168-.168z" fill="#318268"/><path d="m14.207 28.207c-.39-.39-.39-1.024 0-1.414l4.625-4.625c.768-.768 1.705-1.347 2.736-1.691.726-.242 1.432-.477 1.432-.477s-1.069 3.742-1.644 5.754c-.234.817-.671 1.561-1.272 2.162-.29.29-.624.624-.963.963-.562.562-1.325.878-2.121.878s-1.559-.316-2.121-.878c-.24-.24-.471-.471-.672-.672zm-5-7c-.39-.39-.39-1.024 0-1.414l4.625-4.625c.768-.768 1.705-1.347 2.736-1.691.726-.242 1.432-.477 1.432-.477s-1.069 3.742-1.644 5.754c-.234.817-.671 1.561-1.272 2.162-.29.29-.624.624-.963.963-.562.562-1.325.878-2.121.878s-1.559-.316-2.121-.878c-.24-.24-.471-.471-.672-.672zm-7.207-6.207 3.832-3.832c.768-.768 1.705-1.347 2.736-1.691.726-.242 1.432-.477 1.432-.477s-1.069 3.742-1.644 5.754c-.234.817-.671 1.561-1.272 2.162-.29.29-.624.624-.963.963-.562.562-1.325.878-2.121.878-.74 0-1.451-.273-2-.764z" fill="#c97cb3"/><path d="m27.5 2h-2l-4.5 9h2z" fill="#575757"/><path d="m18 11s.379-.19.807-.404c.775-.387 1.402-1.014 1.789-1.789.59-1.178 1.404-2.807 1.404-2.807l4 2s-.814 1.629-1.404 2.807c-.387.775-1.014 1.402-1.789 1.789-.428.214-.807.404-.807.404z" fill="#c97cb3"/></g></svg>