<svg clip-rule="evenodd" fill-rule="evenodd" stroke-linejoin="round" stroke-miterlimit="1.41421" viewBox="0 0 32 32" xmlns="http://www.w3.org/2000/svg" xmlns:xlink="http://www.w3.org/1999/xlink"><clipPath id="a"><path clip-rule="evenodd" d="m0 0h32v32h-32z"/></clipPath><clipPath id="b"><path clip-rule="evenodd" d="m4.342 30c.822-2.331 3.044-4 5.656-4h12.002c2.612 0 4.834 1.669 5.657 4z"/></clipPath><clipPath id="c"><path clip-rule="evenodd" d="m24 13c0-4.418-3.582-8-8-8-4.418 0-8 3.582-8 8v3c0 4.418 3.582 8 8 8 4.418 0 8-3.582 8-8 0-.993 0-2.007 0-3z"/></clipPath><path d="m0 0h32v32h-32z" fill="none"/><g clip-path="url(#a)"><path d="m9.999 24c-1.472-1.107-2.628-2.617-3.305-4.333-.303-.769-.51-1.576-.614-2.396-.048-.379-.072-.76-.079-1.142-.007-1.086-.007-2.172 0-3.258.006-.34.025-.679.064-1.017.089-.782.272-1.553.542-2.292.485-1.324 1.253-2.539 2.238-3.548 1.069-1.095 2.388-1.94 3.832-2.448.704-.248 1.436-.416 2.177-.501.338-.039.677-.058 1.017-.064.13-.001.129-.001.258 0 .34.006.679.025 1.017.064.741.085 1.473.253 2.177.501 1.33.468 2.556 1.222 3.577 2.195 1.107 1.056 1.967 2.364 2.493 3.801.27.739.452 1.51.542 2.292.039.338.058.677.064 1.017.007 1.086.007 2.172 0 3.258-.009.466-.044.93-.114 1.392-.143.935-.42 1.849-.82 2.706-.543 1.163-1.313 2.219-2.253 3.094-.258.24-.529.467-.812.679l.162.002c.268.008.534.023.8.055.52.063 1.034.177 1.532.34 1.643.538 3.088 1.617 4.075 3.036.262.376.491.773.684 1.188.087.186.164.376.238.567l1.025 2.812h-29.032l1.024-2.811c.074-.192.151-.381.238-.568.193-.414.422-.812.684-1.187.987-1.419 2.432-2.499 4.075-3.037.497-.163 1.011-.277 1.531-.34.266-.032.532-.047.8-.055z"/><path d="m4.342 30c.822-2.331 3.044-4 5.656-4h12.002c2.612 0 4.834 1.669 5.657 4z" fill="#999"/><g clip-path="url(#b)"><circle cx="16" cy="20.5" fill="#925adb" r="8"/></g><path d="m24 13c0-4.418-3.582-8-8-8-4.418 0-8 3.582-8 8v3c0 4.418 3.582 8 8 8 4.418 0 8-3.582 8-8 0-.993 0-2.007 0-3z" fill="#925adb"/><g clip-path="url(#c)"><path d="m25 9v3s-2.723 0-4.5 0c-.828 0-1.5-.672-1.5-1.5s.672-1.5 1.5-1.5zm-18 0h4.5c.828 0 1.5.672 1.5 1.5s-.672 1.5-1.5 1.5c-1.777 0-4.5 0-4.5 0z" fill="#7b24cc"/></g><path d="m22.046 13.001c.147.01.288.045.419.114.372.195.585.615.524 1.03-.026.184-.11.345-.204.503-.076.13-.162.254-.256.372-.56.701-1.406 1.145-2.301 1.208-.302.022-.607 0-.903-.063-.471-.1-.918-.307-1.299-.601-.326-.25-.602-.563-.811-.916-.052-.088-.104-.178-.142-.273-.04-.099-.064-.203-.071-.309-.009-.132.009-.266.053-.392.038-.112.098-.218.173-.31.249-.302.664-.432 1.041-.327.102.028.199.073.288.132.145.097.257.23.337.384l-.003-.008c.021.042.044.082.068.122.024.036.049.07.075.104.109.132.238.242.39.322.436.231.983.174 1.363-.14.137-.113.241-.252.322-.408l-.003.008c.018-.036.038-.07.059-.103.023-.033.046-.065.072-.096.044-.05.09-.097.142-.138.169-.134.373-.204.588-.215.04-.001.039-.001.079 0zm-8 0c.147.01.288.045.419.114.372.195.585.615.524 1.03-.026.184-.11.345-.204.503-.076.13-.162.254-.256.372-.56.701-1.406 1.145-2.301 1.208-.302.022-.607 0-.903-.063-.471-.1-.918-.307-1.299-.601-.326-.25-.602-.563-.811-.916-.052-.088-.104-.178-.142-.273-.04-.099-.064-.203-.071-.309-.009-.132.009-.266.053-.392.038-.112.098-.218.173-.31.068-.082.149-.153.238-.21.331-.209.765-.203 1.091.015.145.097.257.23.337.384l-.003-.008c.021.042.044.082.068.122.024.036.049.07.075.104.109.132.238.242.39.322.436.231.983.174 1.363-.14.137-.113.241-.252.322-.408l-.003.008c.018-.036.038-.07.059-.103.023-.033.046-.065.072-.096.044-.05.09-.097.142-.138.169-.134.373-.204.588-.215.04-.001.039-.001.079 0z"/><path d="m8.329 4.927 5.354 2.677c-.367.735-.726 1.474-1.103 2.204-.168.307-.367.592-.608.846-.546.576-1.268.975-2.046 1.131-.305.061-.615.083-.926.072v6.142c-.699 0-1.398.006-2.097-.001-.095-.003-.095-.003-.19-.008-.408-.028-.808-.1-1.197-.227-.966-.316-1.818-.943-2.407-1.771-.256-.36-.455-.753-.607-1.167-.376-1.089-.73-2.186-1.095-3.28-.13-.405-.235-.817-.304-1.238-.068-.422-.099-.846-.103-1.272v-9.036h8.562c-.411 1.643-.822 3.286-1.233 4.928zm16.682 13.072h-2.011v-6.142c-.087.003-.087.003-.173.004-.095-.002-.095-.002-.189-.005-.35-.022-.693-.083-1.026-.194-.691-.23-1.31-.657-1.771-1.221-.179-.219-.33-.457-.46-.708l-1.064-2.129 5.354-2.677-1.233-4.928h8.562v9.036c-.004.427-.035.85-.103 1.272-.06.371-.15.734-.258 1.094-.369 1.145-.749 2.287-1.141 3.424-.141.385-.322.751-.554 1.09-.59.866-1.464 1.522-2.46 1.848-.45.147-.915.221-1.387.235z"/><path d="m29 1.999v7.026c0 .645-.104 1.286-.308 1.897-.281.845-.706 2.119-1.06 3.18-.185.554-.533 1.021-.98 1.352l-.612-.359-.544.859c-.162.03-.327.045-.495.045-.001 0-.001 0-.001 0s0-3.46 0-5.515c0-.318-.165-.614-.435-.781-.271-.167-.609-.182-.894-.04-.443.222-.956.258-1.426.102-.47-.157-.859-.494-1.08-.937-.099-.197-.165-.329-.165-.329s2.9-1.45 4.283-2.142c.419-.209.636-.682.522-1.136l-.805-3.222h4z" fill="#808080"/><path d="m25.496 15.954 1.431-5.724.97.243-1.245 4.981c-.338.25-.733.424-1.156.5z" fill="#2b2b2b"/><path d="m3 1.999v7.026c0 .645.104 1.286.308 1.897.281.845.706 2.119 1.06 3.18.185.554.533 1.021.98 1.352l.612-.359.544.859c.162.03.327.045.495.045h.001s0-3.46 0-5.515c0-.318.165-.614.435-.781.271-.167.609-.182.894-.04.443.222.956.258 1.426.102.47-.157.859-.494 1.08-.937.099-.197.165-.329.165-.329s-2.9-1.45-4.283-2.142c-.419-.209-.636-.682-.522-1.136l.805-3.222h-4z" fill="#808080"/><path d="m6.504 15.954-1.431-5.724-.97.243 1.245 4.981c.338.25.733.424 1.156.5z" fill="#2b2b2b"/></g></svg>