<svg clip-rule="evenodd" fill-rule="evenodd" stroke-linecap="round" stroke-linejoin="round" stroke-miterlimit="3" viewBox="0 0 32 32" xmlns="http://www.w3.org/2000/svg" xmlns:xlink="http://www.w3.org/1999/xlink"><clipPath id="a"><path clip-rule="evenodd" d="m0 0h32v32h-32z"/></clipPath><clipPath id="b"><path clip-rule="evenodd" d="m0 32v-28h16v6l11 11v11z"/></clipPath><clipPath id="c"><path clip-rule="evenodd" d="m2 2h28v28h-28z"/></clipPath><clipPath id="d"><path clip-rule="evenodd" d="m-4 30s8.116-8.116 13.294-13.294c1.116-1.116 2.628-1.742 4.206-1.742s3.09.626 4.206 1.742c.001.001.002.002.002.002 1.542 1.542 1.542 4.042 0 5.584-4.94 4.94-14.708 14.708-14.708 14.708z"/></clipPath><clipPath id="e"><path clip-rule="evenodd" d="m-9 24s6.012-6.012 10.294-10.294c2.323-2.323 6.089-2.323 8.412 0 .001.001.002.002.002.002.741.741 1.157 1.745 1.157 2.792s-.416 2.051-1.157 2.792c-4.212 4.212-11.708 11.708-11.708 11.708z"/></clipPath><path d="m0 0h32v32h-32z" fill="none"/><g clip-path="url(#a)"><path d="m28.683 7.106-2.302 4.605-.051.099-.058.107-.059.106-.062.104-.064.102-.066.102-.067.1-.07.098-.071.097-.073.096-.076.094-.077.093-.079.09-.08.089-.083.088-.084.085-.085.084-.088.083-.089.08-.091.079-.092.077-.094.076-.096.073-.096.071-.099.07-.1.067-.101.066-.103.064-.105.062-.105.059-.107.058-.1.051-1.71.855-8-4v-.472l3.904-1.952.045-.023.035-.019.036-.02.035-.021.034-.021.033-.022.034-.023.033-.023.032-.023.032-.025.031-.025.031-.026.03-.026.03-.027.029-.027.029-.028.028-.029.027-.029.027-.03.027-.031.025-.03.025-.031.024-.032.024-.032.024-.033.022-.034.022-.033.021-.035.021-.034.019-.035.02-.036.023-.045 2.294-4.587zm-6.302 2.605-.051.099-.058.107-.059.106-.062.104-.064.102-.066.102-.067.1-.07.098-.071.097-.025.032.209.105.023-.013.035-.021.034-.021.033-.022.034-.023.033-.023.032-.023.032-.025.031-.025.031-.026.03-.026.03-.027.029-.027.029-.028.028-.029.027-.029.027-.03.027-.031.025-.03.025-.031.024-.032.024-.032.024-.033.022-.034.022-.033.021-.035.021-.034.019-.035.02-.036.023-.045.505-1.01-.423-.211z"/><path d="m24.236 13h-6.472l6.5-13h6.472z"/><path d="m0 32v-28h16v6l11 11v11z" fill="none"/><g clip-path="url(#b)"><path d="m18.595 19.964.095.002.096.003.095.004.095.005.095.006.095.008.095.008.095.01.095.011.094.011.094.013.095.015.094.015.094.016.094.018.094.019.094.02.093.021.094.022.093.023.092.025.093.025.092.027.092.028.092.029.092.03.091.031.091.033.09.033.091.035.09.036.089.037.09.038.089.039.089.041.087.041.088.043.087.044.087.045.087.046.086.047.086.049.085.049.085.051.084.052.082.052.083.054.084.056.081.056.081.057.081.059.08.059.08.061.079.063.078.063.078.064.077.065.077.067.075.067.075.068.074.07.073.07.073.072.015.016.091.093.1.107.097.111.095.113.091.114.088.116.086.118.083.121.079.123.076.123.073.125.07.128.067.129.064.131.06.131.057.134.054.134.05.136.048.138.044.138.04.14.037.14.034.141.031.144.026.143.024.143.02.146.016.145.012.146.01.147.005.148.002.147-.002.147-.005.148-.01.147-.012.146-.016.145-.02.146-.024.143-.026.143-.031.144-.034.141-.037.14-.04.14-.044.138-.048.138-.05.136-.054.134-.057.134-.06.131-.064.131-.067.129-.07.128-.073.125-.076.123-.079.123-.083.121-.086.118-.088.116-.091.114-.095.113-.097.111-.1.107-.095.097-3.303 3.303h-18.329l-.389-.939 10.774-10.774.069-.067.073-.071.074-.07.075-.068.076-.068.076-.066.076-.065.079-.065.079-.063.078-.061.079-.061.081-.06.081-.059.081-.057.081-.056.084-.056.083-.054.083-.052.084-.052.084-.05.086-.051.085-.048.086-.047.087-.046.086-.045.088-.044.088-.043.088-.041.088-.041.089-.039.09-.038.089-.037.09-.036.091-.035.09-.033.091-.033.091-.031.092-.03.092-.029.092-.028.093-.027.092-.025.092-.025.093-.023.094-.022.094-.021.093-.02.094-.019.093-.017.095-.017.094-.015.095-.015.094-.013.095-.012.094-.01.095-.01.095-.008.095-.008.096-.006.094-.005.095-.004.096-.003.095-.002h.095.095zm-.142 4-.048.001-.047.001-.048.002-.048.003-.047.003-.047.004-.047.004-.048.005-.047.005-.047.006-.048.007-.047.007-.046.007-.047.008-.047.009-.047.01-.046.009-.047.011-.046.011-.046.011-.046.013-.046.012-.046.014-.045.013-.046.015-.045.015-.046.015-.045.016-.044.017-.045.017-.045.018-.044.018-.044.019-.044.019-.044.02-.043.021-.043.021-.043.021-.044.023-.042.023-.043.023-.042.024-.041.024-.043.025-.042.026-.041.026-.041.027-.04.027-.041.028-.041.029-.039.028-.04.03-.039.03-.04.031-.04.032-.037.031-.039.033-.039.033-.037.034-.038.034-.037.035-.037.036-.041.041-4.876 4.875h8.344l2.113-2.114.043-.043.033-.036.032-.036.03-.036.03-.038.03-.039.028-.038.026-.039.026-.04.025-.041.024-.041.023-.042.022-.042.021-.043.02-.043.018-.044.018-.044.017-.045.015-.044.014-.045.014-.046.012-.047.011-.046.01-.046.009-.047.007-.048.007-.046.005-.048.004-.049.003-.048.002-.047.001-.049-.001-.049-.002-.047-.003-.048-.004-.049-.005-.048-.007-.046-.007-.048-.009-.047-.01-.046-.011-.046-.012-.047-.014-.046-.014-.045-.015-.044-.017-.045-.018-.044-.018-.044-.02-.043-.021-.043-.022-.042-.023-.041-.024-.042-.025-.041-.026-.04-.026-.039-.028-.038-.03-.039-.03-.038-.03-.036-.032-.036-.033-.036-.04-.04-.033-.033-.037-.036-.037-.035-.038-.034-.038-.034-.038-.033-.038-.032-.039-.033-.039-.031-.039-.03-.039-.031-.041-.03-.039-.028-.041-.029-.041-.028-.04-.027-.041-.027-.042-.026-.041-.026-.042-.025-.042-.024-.042-.024-.043-.023-.042-.023-.043-.022-.044-.022-.043-.021-.044-.021-.043-.02-.044-.019-.044-.019-.044-.018-.045-.018-.045-.017-.044-.017-.045-.016-.046-.015-.045-.015-.046-.015-.045-.014-.046-.013-.046-.012-.046-.013-.046-.011-.046-.011-.047-.011-.047-.01-.046-.009-.047-.009-.047-.008-.047-.007-.046-.007-.047-.007-.048-.006-.047-.005-.048-.005-.047-.004-.047-.004-.047-.003-.048-.003-.048-.002-.047-.001-.048-.001h-.047-.047z"/><path d="m13.599 12.964.098.002.099.003.098.004.098.006.098.007.098.008.098.009.097.01.097.011.097.013.097.014.096.015.096.016.096.017.096.019.095.02.095.02.095.022.094.023.095.025.093.025.094.027.093.027.092.029.093.03.091.031.092.032.091.033.091.035.09.035.09.037.089.037.089.039.088.04.088.041.087.042.087.043.087.044.085.045.086.046.085.047.084.049.084.049.083.051.082.051.082.052.081.054.081.054.081.056.079.057.079.057.077.059.078.06.077.06.076.062.076.063.074.063.074.064.074.066.072.066.071.067.072.069.066.065.016.016.097.101.103.11.101.114.097.117.092.116.091.12.087.121.083.123.081.125.076.126.074.129.07.129.066.13.063.132.06.133.056.134.053.134.049.136.046.138.043.138.039.137.036.14.032.14.029.139.026.142.022.14.018.142.016.142.012.142.008.142.005.143.002.142-.002.142-.005.143-.008.142-.012.142-.016.141-.018.143-.023.141-.025.14-.029.14-.032.141-.036.139-.039.137-.043.138-.046.138-.049.136-.053.134-.056.134-.06.133-.063.132-.066.13-.07.129-.074.129-.076.126-.081.125-.083.123-.087.121-.09.119-.093.118-.097.116-.101.114-.103.111-.097.1-10.304 10.303h-10.828v-8.828l9.884-9.885.066-.065.071-.068.072-.068.073-.066.072-.065.075-.065.075-.064.074-.062.077-.062.077-.061.078-.059.077-.059.079-.057.079-.056.08-.056.082-.055.081-.054.081-.052.083-.051.083-.051.084-.049.084-.049.085-.047.086-.046.085-.045.087-.044.086-.043.087-.042.089-.041.088-.04.089-.039.09-.037.089-.037.09-.035.091-.035.091-.033.092-.032.091-.031.093-.03.092-.029.093-.027.094-.027.093-.025.094-.025.095-.023.095-.022.095-.021.095-.019.096-.019.096-.017.096-.016.096-.015.097-.014.097-.013.097-.011.097-.01.098-.009.098-.008.098-.007.098-.006.098-.004.099-.003.098-.002h.099.099zm-.148 4-.049.001-.049.002-.049.002-.048.002-.049.004-.049.004-.048.004-.049.005-.048.006-.048.006-.048.007-.048.008-.048.008-.047.008-.048.009-.047.01-.048.011-.047.01-.046.012-.047.012-.046.012-.047.014-.046.013-.046.015-.046.015-.046.015-.045.016-.045.016-.045.018-.046.017-.044.018-.044.019-.044.019-.045.02-.042.02-.044.021-.044.022-.042.021-.043.023-.043.023-.042.023-.041.024-.042.025-.041.025-.041.025-.042.027-.04.026-.039.027-.04.027-.039.029-.04.028-.039.03-.039.03-.038.029-.036.03-.039.032-.037.032-.036.031-.037.033-.036.033-.035.033-.036.035-.039.038-8.704 8.704v3.172h5.172l9.113-9.113.045-.047.035-.037.033-.037.031-.038.031-.039.03-.039.028-.04.027-.04.026-.04.025-.041.024-.041.022-.042.022-.043.02-.042.02-.043.018-.044.017-.044.017-.045.014-.044.014-.044.013-.047.012-.045.01-.044.01-.047.008-.047.007-.046.006-.046.006-.047.003-.047.003-.047.002-.047.001-.047-.001-.047-.002-.047-.003-.047-.003-.047-.005-.046-.007-.047-.007-.047-.008-.045-.01-.048-.01-.045-.012-.045-.013-.046-.014-.044-.014-.044-.017-.045-.017-.044-.018-.044-.02-.043-.02-.042-.022-.043-.022-.042-.024-.041-.025-.041-.025-.04-.028-.04-.028-.04-.03-.038-.031-.04-.032-.038-.032-.037-.036-.038-.04-.042-.032-.031-.035-.034-.036-.034-.037-.033-.035-.032-.038-.033-.037-.032-.037-.03-.038-.031-.038-.03-.038-.029-.039-.03-.04-.029-.039-.028-.039-.027-.04-.027-.041-.026-.041-.027-.041-.025-.041-.025-.042-.025-.041-.024-.042-.023-.043-.023-.043-.023-.042-.021-.043-.022-.044-.021-.044-.02-.044-.02-.044-.019-.045-.019-.044-.018-.045-.017-.045-.018-.045-.016-.045-.016-.046-.015-.046-.015-.046-.015-.046-.013-.047-.014-.046-.012-.047-.012-.047-.012-.047-.011-.047-.01-.047-.01-.048-.009-.047-.008-.048-.008-.048-.008-.048-.007-.048-.006-.048-.006-.049-.005-.048-.004-.049-.004-.049-.004-.048-.002-.049-.002-.049-.002-.049-.001h-.049-.049z"/><path d="m5.733 9.967.172.007.172.011.172.014.172.018.171.022.171.025.17.029.17.033.17.037.168.04.168.045.168.047.166.052.166.055.164.06.164.062.162.067.162.07.159.074.159.078.158.082.151.083.081.046.078.045.076.046.076.047.076.048.076.049.074.049.074.051.074.051.074.053.073.053.072.054.072.055.072.057.071.057.07.057.07.059.069.059.069.061.068.062.068.062.067.063.066.064.065.065.016.016.091.093.1.107.097.11.095.114.091.114.089.116.085.119.083.12.079.122.076.124.073.126.07.127.067.128.064.131.06.133.057.133.054.134.051.137.047.137.044.138.04.14.037.14.034.142.031.143.026.143.024.143.019.145.017.146.012.146.01.147.005.147.002.148-.002.148-.005.147-.01.147-.012.146-.017.146-.019.145-.024.143-.026.143-.031.143-.034.142-.037.141-.04.139-.044.138-.047.137-.051.137-.054.134-.057.133-.06.133-.064.131-.067.128-.07.127-.073.126-.076.124-.079.122-.083.12-.085.119-.089.116-.091.114-.095.114-.097.11-.1.107-.094.097-10.193 10.193-.939-.389v-18.408l.887-.646.073-.052.074-.051.075-.051.074-.049.075-.048.077-.048.075-.047.077-.045.077-.045.078-.044.082-.045.151-.081.159-.079.16-.076.16-.071.162-.068.163-.064.164-.061.166-.057.166-.053.166-.049.168-.045.169-.042.169-.038.169-.034.171-.031.171-.026.171-.023.171-.02.172-.015.172-.012.172-.008.172-.004.173-.001.172.003zm-.287 3.998-.086.002-.086.004-.085.006-.085.007-.086.01-.085.011-.085.014-.084.015-.084.017-.084.018-.083.021-.083.023-.083.024-.082.026-.081.028-.081.03-.08.031-.023.01v7.91l4.285-4.286.042-.043.034-.036.032-.036.03-.036.03-.038.029-.038.028-.039.027-.039.026-.041.025-.04.024-.041.023-.042.022-.043.021-.042.019-.043.019-.043.018-.045.016-.044.016-.045.014-.046.014-.045.012-.046.011-.046.01-.047.008-.047.008-.048.007-.047.005-.048.004-.047.003-.048.002-.049.001-.048-.001-.048-.002-.049-.003-.048-.004-.047-.005-.048-.007-.047-.008-.048-.008-.047-.01-.047-.011-.046-.012-.046-.014-.045-.014-.046-.016-.045-.016-.044-.018-.045-.019-.043-.019-.043-.021-.042-.022-.043-.023-.042-.024-.041-.025-.04-.026-.041-.027-.039-.028-.039-.029-.038-.03-.038-.03-.036-.032-.036-.033-.036-.04-.041-.029-.028-.034-.033-.034-.032-.034-.031-.034-.031-.034-.03-.034-.03-.036-.029-.035-.03-.035-.028-.035-.027-.036-.028-.037-.027-.036-.026-.036-.026-.036-.026-.037-.025-.038-.025-.037-.024-.036-.023-.038-.023-.039-.023-.037-.022-.034-.019-.082-.045-.077-.04-.079-.039-.079-.036-.079-.035-.081-.033-.081-.031-.081-.029-.082-.028-.082-.025-.084-.024-.083-.022-.084-.02-.084-.018-.084-.016-.085-.015-.085-.013-.085-.01-.086-.009-.085-.008-.086-.005-.086-.003-.085-.002z"/></g><g fill="none"><path d="m9.746 9.687c-1.703-.426-3.506.073-4.748 1.315-.255.255-.511.511-.749.749-.69.69-.69 1.808 0 2.498l.002.002c.69.69 1.808.69 2.498 0 1.623-1.623 4.251-4.251 4.251-4.251s-.556-.139-1.254-.313z" stroke="#000" stroke-width="4"/><path d="m17.746 13.687c-1.703-.426-3.506.073-4.748 1.315-.255.255-.511.511-.749.749-.69.69-.69 1.808 0 2.498.001.001.001.001.002.002.69.69 1.808.69 2.498 0 1.623-1.623 4.251-4.251 4.251-4.251s-.556-.139-1.254-.313z" stroke="#000" stroke-width="4"/><path d="m23.746 20.687c-1.703-.426-3.506.073-4.748 1.315-.255.255-.511.511-.749.749-.69.69-.69 1.808 0 2.498l.002.002c.69.69 1.808.69 2.498 0 1.623-1.623 4.251-4.251 4.251-4.251s-.556-.139-1.254-.313z" stroke="#000" stroke-width="4"/><path d="m2 2h28v28h-28z"/></g><g clip-path="url(#c)"><path d="m4 34s6.012-6.012 10.294-10.294c2.323-2.323 6.089-2.323 8.412 0 .001.001.002.002.002.002.741.741 1.157 1.745 1.157 2.792s-.416 2.051-1.157 2.792c-4.212 4.212-11.708 11.708-11.708 11.708z" fill="#f2c181"/><path d="m-4 30s8.116-8.116 13.294-13.294c1.116-1.116 2.628-1.742 4.206-1.742s3.09.626 4.206 1.742c.001.001.002.002.002.002 1.542 1.542 1.542 4.042 0 5.584-4.94 4.94-14.708 14.708-14.708 14.708z" fill="#f2c181"/><g clip-path="url(#d)"><path d="m18.583 20.964.084.002.083.002.083.004.083.004.083.006.083.006.083.007.084.009.082.009.083.011.083.011.082.013.083.013.082.014.082.016.082.016.082.018.082.018.081.019.082.021.081.021.081.022.08.024.081.024.08.026.08.026.08.027.079.029.08.029.078.03.079.031.078.033.079.033.077.035.077.035.078.036.076.037.076.039.076.039.076.04.075.042.075.042.074.043.074.045.073.045.073.046.073.047.072.049.071.049.071.05.071.051.071.052.069.054.068.053.069.056.068.056.067.057.067.058.066.059.066.06.065.061.064.062.062.061.009.008.081.084.084.09.08.091.079.094.076.096.074.096.071.099.069.1.065.101.064.103.061.105.058.106.055.107.053.109.051.11.047.111.045.111.042.113.039.115.037.115.033.116.032.117.028.118.025.118.022.12.02.12.016.12.014.121.01.121.008.123.004.122.002.123-.002.123-.004.122-.008.123-.01.121-.014.121-.016.12-.02.12-.022.12-.025.118-.028.118-.032.117-.033.116-.037.115-.039.115-.042.113-.045.111-.047.111-.051.11-.053.109-.055.107-.058.106-.061.105-.064.103-.065.101-.069.1-.071.099-.074.097-.076.095-.079.094-.08.091-.084.09-.081.084-12.42 12.419-8.414-8.414 11.003-11.004.062-.06.064-.062.065-.061.066-.06.066-.059.067-.058.067-.058.068-.055.068-.055.069-.055.07-.053.07-.052.071-.051.071-.05.071-.049.072-.049.073-.047.073-.046.073-.046.074-.044.074-.043.075-.043.075-.041.076-.04.076-.039.076-.038.076-.038.078-.036.077-.036.078-.034.078-.033.078-.032.079-.032.079-.03.079-.029.079-.029.08-.027.08-.026.08-.026.081-.024.08-.024.081-.022.082-.021.081-.021.081-.019.082-.018.082-.018.082-.016.082-.016.082-.014.083-.013.082-.013.083-.011.083-.011.083-.009.083-.009.083-.007.083-.006.083-.006.083-.004.083-.004.083-.002.084-.002h.083.083zm-.154 1-.072.001-.071.003-.071.003-.072.003-.071.005-.071.006-.071.006-.071.007-.071.008-.071.009-.071.01-.071.011-.07.011-.071.012-.07.014-.07.014-.07.015-.07.015-.07.017-.07.017-.069.019-.069.019-.069.02-.069.021-.069.021-.068.023-.069.023-.068.024-.067.026-.068.025-.067.027-.067.028-.067.028-.066.03-.067.03-.065.031-.066.032-.065.033-.065.033-.065.035-.064.035-.064.036-.063.037-.064.038-.062.039-.063.039-.062.041-.061.041-.062.042-.06.043-.061.044-.06.044-.059.046-.059.046-.059.048-.058.048-.058.049-.057.049-.057.051-.056.051-.056.053-.055.053-.055.054-10.294 10.294 7 7 11.708-11.708.069-.071.066-.071.065-.073.063-.075.06-.076.059-.077.057-.079.054-.08.053-.081.051-.082.048-.083.047-.085.044-.085.042-.087.04-.088.038-.088.036-.09.034-.09.031-.091.029-.092.027-.092.025-.094.022-.094.02-.094.018-.095.015-.096.014-.096.01-.097.009-.097.006-.097.003-.098.002-.098-.002-.098-.003-.098-.006-.097-.009-.097-.01-.097-.014-.096-.015-.096-.018-.095-.02-.094-.022-.094-.025-.094-.027-.092-.029-.092-.031-.091-.034-.09-.036-.09-.038-.088-.04-.088-.042-.087-.044-.085-.047-.085-.048-.083-.051-.082-.053-.081-.054-.08-.057-.079-.059-.077-.06-.076-.063-.075-.065-.073-.066-.071-.069-.071-.002-.002-.055-.054-.055-.053-.056-.053-.056-.051-.057-.051-.057-.049-.058-.049-.058-.048-.059-.048-.059-.046-.059-.046-.06-.044-.061-.044-.06-.043-.062-.042-.061-.041-.062-.041-.063-.039-.062-.039-.064-.038-.063-.037-.064-.036-.064-.035-.065-.035-.065-.033-.065-.033-.066-.032-.065-.031-.067-.03-.066-.03-.067-.028-.067-.028-.067-.027-.068-.025-.067-.026-.068-.024-.069-.023-.068-.023-.069-.021-.069-.021-.069-.02-.069-.019-.069-.019-.07-.017-.07-.017-.07-.015-.07-.015-.07-.014-.07-.014-.071-.012-.07-.011-.071-.011-.071-.01-.071-.009-.071-.008-.071-.007-.071-.006-.071-.006-.071-.005-.072-.003-.071-.003-.071-.003-.072-.001h-.071-.071z" fill="#925b1d"/></g><path d="m-9 24s6.012-6.012 10.294-10.294c2.323-2.323 6.089-2.323 8.412 0 .001.001.002.002.002.002.741.741 1.157 1.745 1.157 2.792s-.416 2.051-1.157 2.792c-4.212 4.212-11.708 11.708-11.708 11.708z" fill="#f2c181"/><g clip-path="url(#e)"><path d="m13.586 13.964.086.002.087.003.086.003.085.005.086.006.085.007.086.008.085.009.085.01.085.011.084.012.084.013.084.014.084.015.084.016.083.018.083.018.083.019.083.02.082.021.082.023.081.023.082.024.081.025.081.026.08.027.08.029.079.029.079.03.079.031.079.032.078.033.078.033.077.035.077.036.076.037.076.037.076.039.075.039.074.041.075.041.073.042.073.043.073.044.072.045.072.046.071.047.07.048.07.048.07.05.069.05.068.051.068.053.067.052.066.054.066.055.066.056.064.056.064.057.064.058.062.059.063.06.061.061.009.009.082.084.086.093.084.095.08.096.078.098.075.099.072.101.07.103.066.103.064.105.061.106.058.108.056.108.052.11.05.11.046.111.044.113.041.113.039.114.035.114.033.115.029.116.027.116.024.117.021.117.019.117.015.118.013.119.01.118.007.118.004.118.002.119-.002.119-.004.118-.007.118-.01.118-.013.119-.015.118-.019.117-.021.117-.024.117-.027.116-.029.116-.033.115-.035.114-.039.114-.041.113-.044.113-.046.111-.05.11-.052.11-.056.108-.058.107-.061.107-.064.105-.066.103-.07.103-.072.1-.075.1-.078.098-.08.096-.084.095-.086.093-.084.086-15.42 15.42-8.414-8.414 14.003-14.003.059-.059.063-.06.062-.059.064-.058.064-.057.064-.056.066-.056.066-.055.066-.054.067-.053.068-.052.068-.051.069-.05.07-.05.07-.048.07-.048.071-.047.072-.046.072-.045.073-.044.073-.043.074-.042.074-.041.074-.041.075-.039.076-.039.076-.037.076-.037.077-.036.077-.035.078-.033.078-.033.079-.032.078-.031.08-.03.079-.029.08-.028.081-.028.08-.026.081-.025.082-.024.081-.023.082-.022.082-.022.083-.02.083-.019.083-.018.083-.018.084-.016.084-.015.084-.014.084-.013.085-.012.084-.011.085-.01.085-.009.086-.008.085-.007.086-.006.085-.005.086-.003.087-.003.086-.002h.086.086zm-.16 1-.074.002-.073.002-.074.003-.073.004-.074.005-.073.006-.073.007-.073.008-.072.008-.073.01-.072.01-.073.011-.071.012-.072.013-.072.014-.071.015-.071.015-.071.017-.071.017-.07.018-.07.019-.07.02-.07.021-.069.021-.069.023-.069.023-.069.024-.068.025-.068.026-.067.026-.067.028-.067.028-.067.029-.066.029-.065.031-.066.031-.065.033-.065.033-.064.033-.064.035-.063.035-.063.037-.063.037-.062.037-.062.039-.061.039-.061.04-.06.041-.06.041-.06.043-.059.043-.058.044-.058.044-.058.046-.057.046-.056.047-.056.047-.055.048-.055.049-.054.05-.054.051-.053.051-.053.052-13.294 13.294 7 7 14.708-14.708.071-.073.069-.075.067-.075.064-.077.062-.078.06-.08.058-.08.055-.082.053-.082.051-.084.049-.085.046-.085.044-.086.042-.088.039-.088.038-.088.035-.09.032-.09.031-.091.028-.091.026-.092.024-.092.021-.093.019-.093.017-.093.015-.094.012-.094.011-.095.008-.094.005-.095.004-.094.001-.095-.001-.095-.004-.094-.005-.095-.008-.094-.011-.095-.012-.094-.015-.094-.017-.093-.019-.093-.021-.093-.024-.092-.026-.092-.028-.091-.031-.091-.032-.09-.035-.09-.038-.088-.039-.088-.042-.088-.044-.086-.046-.086-.049-.084-.051-.084-.053-.082-.055-.082-.058-.08-.06-.08-.062-.078-.064-.077-.067-.075-.069-.075-.071-.073-.002-.002-.053-.052-.053-.051-.054-.051-.054-.05-.055-.049-.055-.048-.056-.047-.056-.047-.057-.046-.058-.046-.058-.044-.058-.044-.059-.043-.06-.043-.06-.041-.06-.041-.061-.04-.061-.039-.062-.039-.062-.037-.063-.037-.063-.037-.063-.035-.064-.035-.064-.033-.065-.033-.065-.033-.066-.031-.065-.031-.066-.029-.067-.029-.067-.028-.067-.028-.068-.026-.067-.026-.068-.025-.069-.024-.069-.023-.069-.023-.069-.021-.07-.021-.07-.02-.07-.019-.07-.018-.071-.017-.071-.017-.071-.015-.071-.015-.072-.014-.072-.013-.071-.012-.073-.011-.072-.01-.073-.01-.072-.008-.073-.008-.073-.007-.073-.006-.074-.005-.073-.004-.074-.003-.073-.002-.074-.002h-.074z" fill="#925b1d"/></g></g><path d="m27.5 2h-2l-4.5 9h2z" fill="#575757"/><path d="m18 11s.379-.19.807-.404c.775-.387 1.402-1.014 1.789-1.789.59-1.178 1.404-2.807 1.404-2.807l4 2s-.814 1.629-1.404 2.807c-.387.775-1.014 1.402-1.789 1.789-.428.214-.807.404-.807.404z" fill="#4eaa53"/><path d="m9.746 9.687c-1.703-.426-3.506.073-4.748 1.315-.255.255-.511.511-.749.749-.69.69-.69 1.808 0 2.498l.002.002c.69.69 1.808.69 2.498 0 1.623-1.623 4.251-4.251 4.251-4.251s-.556-.139-1.254-.313z" fill="#4eaa53"/><path d="m17.746 13.687c-1.703-.426-3.506.073-4.748 1.315-.255.255-.511.511-.749.749-.69.69-.69 1.808 0 2.498.001.001.001.001.002.002.69.69 1.808.69 2.498 0 1.623-1.623 4.251-4.251 4.251-4.251s-.556-.139-1.254-.313z" fill="#4eaa53"/><path d="m23.746 20.687c-1.703-.426-3.506.073-4.748 1.315-.255.255-.511.511-.749.749-.69.69-.69 1.808 0 2.498l.002.002c.69.69 1.808.69 2.498 0 1.623-1.623 4.251-4.251 4.251-4.251s-.556-.139-1.254-.313z" fill="#4eaa53"/></g></svg>