<svg clip-rule="evenodd" fill-rule="evenodd" stroke-linejoin="round" stroke-miterlimit="1.41421" viewBox="0 0 32 32" xmlns="http://www.w3.org/2000/svg" xmlns:xlink="http://www.w3.org/1999/xlink"><clipPath id="a"><path clip-rule="evenodd" d="m0 0h32v32h-32z"/></clipPath><path d="m0 0h32v32h-32z" fill="none"/><g clip-path="url(#a)"><path d="m27.483 6.506 1.2.6c-.784 1.568-1.553 3.144-2.353 4.704-.058.107-.058.107-.118.213-.185.312-.39.609-.625.886-.364.427-.788.803-1.256 1.112-.2.133-.407.251-.62.36l-1.711.855-1.634-.817.009.055c.069.466.088.937.065 1.408l-.003.056c.02.12.019.12.038.24.019.137.019.137.036.275.04.366.06.732.06 1.101v.047l.429-.43c.513.513 1.033 1.018 1.536 1.54.429.457.8.963 1.096 1.517.373.699.625 1.462.743 2.246.069.466.088.937.065 1.408l-.003.057c.018.104.033.208.049.312.016.125.031.251.044.376.044.5.054 1.001.02 1.502-.081 1.179-.395 2.34-.92 3.399-.29.586-.645 1.132-1.05 1.644l-.675.828h-21.905v-17.828l7.086-7.086 1.914-1.914c.512.512 1.032 1.016 1.535 1.538.079.083.156.169.232.255.331.391.624.811.865 1.264.414.775.678 1.627.776 2.5.042.383.05.768.032 1.153l-.003.057c.02.119.019.119.038.239.019.137.019.136.036.274.04.367.06.733.06 1.102v.047l2.053-2.053-.624-.312v-.472c1.328-.664 2.677-1.289 3.984-1.994.059-.033.116-.069.172-.106.266-.188.479-.429.633-.715l.023-.045 2.294-4.587 1.2.6 1.958-3.917h6.472l-3.253 6.506z"/><path d="m2 27 8.5-8.5s7.798-1.344 7.921-2.457c.473 2.258-.167 4.703-1.92 6.456l-7.501 7.501h-7v-3zm20.421-2.957c.429 2.051-.059 4.256-1.466 5.957h-9.955l3.5-3.5s7.798-1.344 7.921-2.457zm-20.421-9.043.5-.5s7.798-1.344 7.921-2.457c.473 2.258-.167 4.703-1.92 6.456l-6.501 6.501z" fill="#ccc"/><path d="m14.5 26.5 6.5-6.5s0 0 .001.001c.928.928 1.449 2.187 1.449 3.499s-.521 2.571-1.449 3.499c-.561.561-1.113 1.113-1.587 1.587-.375.375-.884.586-1.414.586s-1.039-.211-1.414-.586c-.971-.971-2.086-2.086-2.086-2.086zm-4-8 6.5-6.5s0 0 .001.001c.928.928 1.449 2.187 1.449 3.499s-.521 2.571-1.449 3.499c-.561.561-1.113 1.113-1.587 1.587-.375.375-.884.586-1.414.586s-1.039-.211-1.414-.586c-.971-.971-2.086-2.086-2.086-2.086zm-8-4 6.5-6.5s0 0 .001.001c.928.928 1.449 2.187 1.449 3.499s-.521 2.571-1.449 3.499c-.561.561-1.113 1.113-1.587 1.587-.375.375-.884.586-1.414.586s-1.039-.211-1.414-.586c-.971-.971-2.086-2.086-2.086-2.086z" fill="#4f56e3"/><path d="m27.5 2h-2l-4.5 9h2z" fill="#575757"/><path d="m18 11s.379-.19.807-.404c.775-.387 1.402-1.014 1.789-1.789.59-1.178 1.404-2.807 1.404-2.807l4 2s-.814 1.629-1.404 2.807c-.387.775-1.014 1.402-1.789 1.789-.428.214-.807.404-.807.404z" fill="#4f56e3"/></g></svg>