<?xml version="1.0" encoding="UTF-8" standalone="no"?><!DOCTYPE svg PUBLIC "-//W3C//DTD SVG 1.1//EN" "http://www.w3.org/Graphics/SVG/1.1/DTD/svg11.dtd"><svg width="100%" height="100%" viewBox="0 0 32 32" version="1.1" xmlns="http://www.w3.org/2000/svg" xmlns:xlink="http://www.w3.org/1999/xlink" xml:space="preserve" xmlns:serif="http://www.serif.com/" style="fill-rule:evenodd;clip-rule:evenodd;stroke-linecap:round;stroke-miterlimit:3;">
<metadata>
<rdf:RDF xmlns:cc="http://web.resource.org/cc/"
         xmlns:rdf="http://www.w3.org/1999/02/22-rdf-syntax-ns#"
         xmlns:dc = "http://purl.org/dc/elements/1.1/"
         >

     <rdf:Description rdf:about="">
       <dc:title>Mutant Standard emoji v0.2.4</dc:title>
     </rdf:Description>

    <cc:work rdf:about="">
        <cc:license rdf:resource="http://creativecommons.org/licenses/by-nc-sa/4.0/"/>
        <cc:attributionName>Dzuk</cc:attributionName>
        <cc:attributionURL>http://mutant.tech/</cc:attributionURL>
    </cc:work>

</rdf:RDF>
</metadata>
<rect id="_100" serif:id="100" x="0" y="0" width="32" height="32" style="fill:none;"/><clipPath id="_clip1"><rect x="0" y="0" width="32" height="32"/></clipPath><g clip-path="url(#_clip1)"><g id="outline"><path d="M5,5c0,0 0.804,-0.268 1.58,-0.527c0.285,-0.095 0.598,-0.027 0.818,0.177c0.22,0.204 0.312,0.511 0.239,0.802c-1.028,4.113 -3.887,15.548 -3.887,15.548" style="fill:none;stroke:#000;stroke-width:7px;"/><path d="M15.232,4.455c-1.543,-0.257 -3.024,0.715 -3.404,2.232c-0.582,2.33 -1.426,5.704 -2.04,8.16c-0.203,0.813 -0.057,1.673 0.402,2.373c0.459,0.7 1.19,1.177 2.015,1.314c0.021,0.004 0.042,0.007 0.063,0.011c1.543,0.257 3.024,-0.715 3.404,-2.232c0.582,-2.33 1.426,-5.704 2.04,-8.16c0.203,-0.813 0.057,-1.673 -0.402,-2.373c-0.459,-0.7 -1.19,-1.177 -2.015,-1.314c-0.021,-0.004 -0.042,-0.007 -0.063,-0.011Z" style="fill:none;stroke:#000;stroke-width:7px;"/><path d="M25.732,4.455c-1.543,-0.257 -3.024,0.715 -3.404,2.232c-0.582,2.33 -1.426,5.704 -2.04,8.16c-0.203,0.813 -0.057,1.673 0.402,2.373c0.459,0.7 1.19,1.177 2.015,1.314c0.021,0.004 0.042,0.007 0.063,0.011c1.543,0.257 3.024,-0.715 3.404,-2.232c0.582,-2.33 1.426,-5.704 2.04,-8.16c0.203,-0.813 0.057,-1.673 -0.402,-2.373c-0.459,-0.7 -1.19,-1.177 -2.015,-1.314c-0.021,-0.004 -0.042,-0.007 -0.063,-0.011Z" style="fill:none;stroke:#000;stroke-width:7px;"/><path d="M7,24c0,0 1.195,-0.398 2.076,-0.692c0.612,-0.204 1.253,-0.308 1.898,-0.308c3.325,0 14.026,0 14.026,0" style="fill:none;stroke:#000;stroke-width:7px;"/><path d="M6,28.667c0,0 2.631,-0.877 4.076,-1.359c0.612,-0.204 1.253,-0.308 1.898,-0.308c2.513,0 9.026,0 9.026,0" style="fill:none;stroke:#000;stroke-width:7px;"/><rect x="5" y="17" width="17" height="7"/></g><g id="emoji"><path d="M5,5c0,0 0.804,-0.268 1.58,-0.527c0.285,-0.095 0.598,-0.027 0.818,0.177c0.22,0.204 0.312,0.511 0.239,0.802c-1.028,4.113 -3.887,15.548 -3.887,15.548" style="fill:none;stroke:#d72d35;stroke-width:3px;"/><path d="M15.232,4.455c-1.543,-0.257 -3.024,0.715 -3.404,2.232c-0.582,2.33 -1.426,5.704 -2.04,8.16c-0.203,0.813 -0.057,1.673 0.402,2.373c0.459,0.7 1.19,1.177 2.015,1.314c0.021,0.004 0.042,0.007 0.063,0.011c1.543,0.257 3.024,-0.715 3.404,-2.232c0.582,-2.33 1.426,-5.704 2.04,-8.16c0.203,-0.813 0.057,-1.673 -0.402,-2.373c-0.459,-0.7 -1.19,-1.177 -2.015,-1.314c-0.021,-0.004 -0.042,-0.007 -0.063,-0.011Z" style="fill:none;stroke:#d72d35;stroke-width:3px;"/><path d="M25.732,4.455c-1.543,-0.257 -3.024,0.715 -3.404,2.232c-0.582,2.33 -1.426,5.704 -2.04,8.16c-0.203,0.813 -0.057,1.673 0.402,2.373c0.459,0.7 1.19,1.177 2.015,1.314c0.021,0.004 0.042,0.007 0.063,0.011c1.543,0.257 3.024,-0.715 3.404,-2.232c0.582,-2.33 1.426,-5.704 2.04,-8.16c0.203,-0.813 0.057,-1.673 -0.402,-2.373c-0.459,-0.7 -1.19,-1.177 -2.015,-1.314c-0.021,-0.004 -0.042,-0.007 -0.063,-0.011Z" style="fill:none;stroke:#d72d35;stroke-width:3px;"/><path d="M7,24c0,0 1.195,-0.398 2.076,-0.692c0.612,-0.204 1.253,-0.308 1.898,-0.308c3.325,0 14.026,0 14.026,0" style="fill:none;stroke:#d72d35;stroke-width:3px;"/><path d="M6,28.667c0,0 2.631,-0.877 4.076,-1.359c0.612,-0.204 1.253,-0.308 1.898,-0.308c2.513,0 9.026,0 9.026,0" style="fill:none;stroke:#d72d35;stroke-width:3px;"/></g></g></svg>