<svg clip-rule="evenodd" fill-rule="evenodd" stroke-linejoin="round" stroke-miterlimit="1.5" viewBox="0 0 32 32" xmlns="http://www.w3.org/2000/svg" xmlns:xlink="http://www.w3.org/1999/xlink"><clipPath id="a"><path clip-rule="evenodd" d="m0 0h32v32h-32z"/></clipPath><path d="m0 0h32v32h-32z" fill="none"/><g clip-path="url(#a)"><path d="m12.525 10c-.341-.598-.525-1.28-.525-1.981 0-.002 0-.003 0-.004 0-1.061.421-2.078 1.171-2.827.75-.75 1.767-1.171 2.827-1.171h5.002v3.5c0 .918-.275 1.771-.747 2.483h.747c2.761 0 5 2.239 5 5 0 .75-.165 1.461-.461 2.099 1.073.206 2.068.728 2.851 1.511 1.031 1.031 1.61 2.43 1.61 3.888v.004c0 1.458-.579 2.857-1.61 3.888s-2.43 1.61-3.888 1.61c-4.917 0-12.087 0-17.004 0-1.458 0-2.857-.579-3.888-1.61s-1.61-2.43-1.61-3.888c0-.001 0-.003 0-.004 0-1.458.579-2.857 1.61-3.888.783-.783 1.778-1.305 2.851-1.511-.296-.638-.461-1.349-.461-2.099 0-2.761 2.239-5 5-5z" fill="none" stroke="#000" stroke-width="4"/><path d="m12.525 10c-.341-.598-.525-1.28-.525-1.981 0-.002 0-.003 0-.004 0-1.061.421-2.078 1.171-2.827.75-.75 1.767-1.171 2.827-1.171h5.002v3.5c0 .918-.275 1.771-.747 2.483h.747c2.761 0 5 2.239 5 5 0 .75-.165 1.461-.461 2.099 1.073.206 2.068.728 2.851 1.511 1.031 1.031 1.61 2.43 1.61 3.888v.004c0 1.458-.579 2.857-1.61 3.888s-2.43 1.61-3.888 1.61c-4.917 0-12.087 0-17.004 0-1.458 0-2.857-.579-3.888-1.61s-1.61-2.43-1.61-3.888c0-.001 0-.003 0-.004 0-1.458.579-2.857 1.61-3.888.783-.783 1.778-1.305 2.851-1.511-.296-.638-.461-1.349-.461-2.099 0-2.761 2.239-5 5-5z" fill="#9a6f42"/><path d="m19.304 12.305c-.194.355 3.278 3.509 3.696 3.195 0 .663-.263 1.299-.732 1.768s-1.105.732-1.768.732-1.299-.263-1.768-.732-.732-1.105-.732-1.768c0-.331 0-.669 0-1 0-.663.263-1.299.732-1.768.171-.171.364-.314.572-.427z" fill="#fff"/><path d="m19.304 12.305c.364-.199.774-.305 1.196-.305.663 0 1.299.263 1.768.732s.732 1.105.732 1.768v1c-.418.314-.937.5-1.5.5-1.38 0-2.5-1.12-2.5-2.5 0-.433.11-.84.304-1.195z"/><path d="m10.304 12.305c-.194.355 3.278 3.509 3.696 3.195 0 .663-.263 1.299-.732 1.768s-1.105.732-1.768.732-1.299-.263-1.768-.732-.732-1.105-.732-1.768c0-.331 0-.669 0-1 0-.663.263-1.299.732-1.768.171-.171.364-.314.572-.427z" fill="#fff"/><path d="m10.304 12.305c.364-.199.774-.305 1.196-.305.663 0 1.299.263 1.768.732s.732 1.105.732 1.768v1c-.418.314-.937.5-1.5.5-1.38 0-2.5-1.12-2.5-2.5 0-.433.11-.84.304-1.195z"/><path d="m22.928 20c-.484 3.39-3.404 6-6.928 6s-6.444-2.61-6.928-6z" fill="#352412"/></g></svg>