<svg clip-rule="evenodd" fill-rule="evenodd" stroke-linejoin="round" stroke-miterlimit="2" viewBox="0 0 32 32" xmlns="http://www.w3.org/2000/svg" xmlns:xlink="http://www.w3.org/1999/xlink"><clipPath id="a"><path clip-rule="evenodd" d="m7.718 9.706c.182-.455.524-.827.962-1.046 1.53-.765 5.282-2.641 7.531-3.766.475-.237 1.024-.276 1.527-.108s.919.528 1.156 1.003c.512 1.022 1.152 2.303 1.67 3.339.244.489.278 1.056.094 1.57-.185.514-.571.93-1.071 1.152-1.587.706-3.587 1.594-3.587 1.594v-2.444l-2 1h-3v9s1.191-.851 2.591-1.85c2.712-1.938 6.274-2.218 9.256-.727 2.55 1.275 5.153 2.577 5.153 2.577v5s-10.014 1.252-14.197 1.775c-1.176.147-2.368-.058-3.428-.587-2.338-1.17-6.375-3.188-6.375-3.188s0-2.816 0-4.222c0-.514.098-1.023.289-1.501.74-1.85 2.696-6.739 3.429-8.571z"/></clipPath><path d="m0 0h32v32h-32z" fill="none"/><path d="m7.718 9.706c.182-.455.524-.827.962-1.046 1.53-.765 5.282-2.641 7.531-3.766.475-.237 1.024-.276 1.527-.108s.919.528 1.156 1.003c.512 1.022 1.152 2.303 1.67 3.339.244.489.278 1.056.094 1.57-.185.514-.571.93-1.071 1.152-1.587.706-3.587 1.594-3.587 1.594v-2.444l-2 1h-3v9s1.191-.851 2.591-1.85c2.712-1.938 6.274-2.218 9.256-.727 2.55 1.275 5.153 2.577 5.153 2.577v5s-10.014 1.252-14.197 1.775c-1.176.147-2.368-.058-3.428-.587-2.338-1.17-6.375-3.188-6.375-3.188s0-2.816 0-4.222c0-.514.098-1.023.289-1.501.74-1.85 2.696-6.739 3.429-8.571z" fill="#767676"/><path d="m17.212 2.685.098.003.097.007.098.008.097.011.097.013.097.016.097.018.096.021.097.023.095.025.095.028.094.03.094.033.093.035.092.037.091.039.088.041.089.044.088.046.085.047.084.05.084.051.081.054.08.055.079.058.078.059.076.061.074.063.074.066.071.066.07.068.067.07.066.071.065.074.064.075.06.077.06.079.057.079.056.081.053.083.052.084.049.085.048.087.039.077 1.682 3.362.039.081.042.093.039.093.037.094.035.096.032.096.03.097.027.097.025.096.022.1.02.099.017.097.015.101.012.1.01.098.007.101.005.101.002.099v.101l-.003.101-.005.101-.008.099-.011.099-.013.101-.015.101-.018.1-.021.097-.023.099-.026.099-.028.097-.03.098-.033.096-.036.095-.038.095-.041.094-.043.092-.044.09-.048.091-.049.088-.052.087-.053.085-.056.084-.057.082-.06.082-.061.078-.064.078-.066.077-.067.074-.069.072-.071.071-.073.069-.075.068-.076.065-.078.064-.079.061-.081.06-.083.058-.084.055-.087.054-.087.052-.089.049-.09.047-.091.045-.081.037-6.412 2.85v-2.522h-1v3.14l.061-.038.162-.098.163-.094.165-.092.165-.089.167-.085.168-.083.17-.08.17-.076.171-.074.173-.071.173-.067.174-.065.175-.062.176-.058.177-.056.177-.052.179-.05.178-.046.18-.044.18-.04.181-.037.181-.035.181-.031.183-.028.182-.025.183-.022.183-.019.183-.016.184-.013.184-.01.184-.007.184-.003.184-.001.184.003.185.005.184.009.184.012.184.015.184.018.184.021.183.024.184.027.183.031.182.033.182.037.182.04.181.043.181.046.18.049.18.052.179.056.178.058.177.062.177.065.176.068.175.071.174.075.174.077.172.081.163.08 6.267 3.133v8.002l-15.958 1.994-.138.016-.147.015-.147.011-.148.009-.147.006-.147.003-.147.001-.147-.002-.147-.005-.146-.007-.146-.01-.147-.013-.145-.015-.146-.019-.145-.02-.144-.024-.144-.026-.144-.028-.143-.032-.143-.034-.142-.036-.141-.039-.141-.042-.14-.045-.139-.047-.138-.049-.138-.052-.137-.055-.135-.057-.135-.06-.134-.063-.125-.06-7.489-3.745v-5.47l.002-.132.005-.143.008-.144.012-.143.016-.143.018-.142.022-.142.026-.141.029-.14.032-.141.035-.139.039-.138.042-.137.045-.136.049-.136.048-.124 3.437-8.593.031-.074.036-.083.039-.084.041-.081.042-.08.044-.079.046-.079.048-.079.049-.075.05-.074.054-.075.054-.072.055-.071.058-.07.058-.068.061-.068.062-.066.063-.064.065-.063.066-.061.067-.06.07-.059.071-.057.071-.055.073-.054.075-.052.076-.051.076-.049.078-.047.08-.045.08-.044.072-.037 7.552-3.776.078-.038.09-.041.091-.038.092-.037.093-.034.093-.032.093-.029.095-.027.095-.024.095-.023.095-.02.097-.017.096-.015.097-.013.097-.011.097-.008.097-.006.098-.003.098-.001.097.002zm1.531 16.789-.118.002-.117.004-.117.007-.117.008-.117.01-.116.012-.117.014-.116.016-.116.018-.115.02-.116.022-.115.023-.114.026-.115.028-.113.029-.114.032-.112.033-.113.036-.112.037-.111.039-.111.041-.11.043-.11.045-.109.047-.108.049-.108.05-.106.053-.107.054-.105.057-.105.058-.103.06-.103.062-.103.065-.101.065-.1.068-.107.075-5.233 3.738 1.748.875.075.036.067.031.067.03.069.029.068.027.068.026.07.025.07.024.069.022.071.021.07.019.071.019.072.016.071.016.072.014.072.014.072.011.073.011.073.009.073.007.072.007.074.005.073.003.073.003.074.001h.073l.074-.002.073-.003.074-.005.074-.005.073-.007.083-.01 12.436-1.555v-1.998l-4.04-2.02-.117-.057-.11-.052-.11-.049-.111-.047-.112-.046-.111-.043-.113-.041-.113-.039-.113-.038-.114-.035-.114-.033-.115-.031-.114-.03-.116-.027-.115-.025-.116-.024-.116-.021-.117-.019-.116-.018-.117-.015-.117-.014-.117-.011-.117-.009-.117-.008-.117-.006-.118-.003-.117-.002zm-12.593-.465-.021.056-.017.046-.015.046-.014.047-.014.047-.011.047-.011.046-.01.048-.009.048-.007.048-.006.048-.006.049-.004.048-.003.048-.001.049-.001.061v2.973l3 1.5v-12.379zm11.85-8.642.763-.339.011-.005.001-.001-.006-.011-.769-1.539zm-.906-3.678-6.622 3.311h3.056l4.189-2.094-.606-1.211-.005-.011h-.001z"/><path d="m7.718 9.706c.182-.455.524-.827.962-1.046 1.53-.765 5.282-2.641 7.531-3.766.475-.237 1.024-.276 1.527-.108s.919.528 1.156 1.003c.512 1.022 1.152 2.303 1.67 3.339.244.489.278 1.056.094 1.57-.185.514-.571.93-1.071 1.152-1.587.706-3.587 1.594-3.587 1.594v-2.444l-2 1h-3v9s1.191-.851 2.591-1.85c2.712-1.938 6.274-2.218 9.256-.727 2.55 1.275 5.153 2.577 5.153 2.577v5s-10.014 1.252-14.197 1.775c-1.176.147-2.368-.058-3.428-.587-2.338-1.17-6.375-3.188-6.375-3.188s0-2.816 0-4.222c0-.514.098-1.023.289-1.501.74-1.85 2.696-6.739 3.429-8.571z" fill="#ef8e10"/><g clip-path="url(#a)" fill="none"><g stroke="#7b3c12"><path d="m12 13.5 9-4.5"/><path d="m19 10-1.5-3"/><path d="m17 11-1.5-3"/><path d="m15 12-1.5-3"/></g><path d="m12 19-2 3" stroke="#cc600f" stroke-linecap="round" stroke-width="2"/><path d="m12 13-2-2" stroke="#cc600f" stroke-linecap="round" stroke-width="2"/><path d="m15 22s.649.162 1.425.356c1.691.423 3.459.423 5.15 0 .776-.194 1.425-.356 1.425-.356" stroke="#cc600f" stroke-linecap="round" stroke-width="2"/></g></svg>