<svg clip-rule="evenodd" fill-rule="evenodd" stroke-linejoin="round" stroke-miterlimit="2" viewBox="0 0 32 32" xmlns="http://www.w3.org/2000/svg" xmlns:xlink="http://www.w3.org/1999/xlink"><clipPath id="a"><path clip-rule="evenodd" d="m8.714 7.687c.184-.443.522-.805.952-1.02.868-.434 2.452-1.226 3.927-1.963 1.908-.954 4.229-.243 5.275 1.616.436.776.893 1.588 1.3 2.312.341.607.411 1.329.192 1.99s-.706 1.199-1.342 1.481c-.001.001-.002.001-.003.001-1.127.501-2.449.027-3.001-1.077-.009-.017-.014-.027-.014-.027l-2 1h-3v9s1.191-.851 2.591-1.85c2.712-1.938 6.274-2.218 9.256-.727 2.55 1.275 5.153 2.577 5.153 2.577v5s-10.014 1.252-14.197 1.775c-1.176.147-2.368-.058-3.428-.587-2.338-1.17-6.375-3.188-6.375-3.188s0-2.777 0-4.192c0-.533.106-1.062.311-1.554.905-2.173 3.53-8.472 4.403-10.567z"/></clipPath><path d="m0 0h32v32h-32z" fill="none"/><path d="m8.714 7.687c.184-.443.522-.805.952-1.02.868-.434 2.452-1.226 3.927-1.963 1.908-.954 4.229-.243 5.275 1.616.436.776.893 1.588 1.3 2.312.341.607.411 1.329.192 1.99s-.706 1.199-1.342 1.481c-.001.001-.002.001-.003.001-1.127.501-2.449.027-3.001-1.077-.009-.017-.014-.027-.014-.027l-2 1h-3v9s1.191-.851 2.591-1.85c2.712-1.938 6.274-2.218 9.256-.727 2.55 1.275 5.153 2.577 5.153 2.577v5s-10.014 1.252-14.197 1.775c-1.176.147-2.368-.058-3.428-.587-2.338-1.17-6.375-3.188-6.375-3.188s0-2.777 0-4.192c0-.533.106-1.062.311-1.554.905-2.173 3.53-8.472 4.403-10.567z" fill="#767676"/><path d="m15.487 2.282.141.004.14.007.14.011.14.014.138.017.139.021.137.023.137.027.136.03.136.033.135.036.134.04.132.042.132.046.131.048.13.052.128.054.127.058.126.06.125.064.123.066.122.07.121.072.119.076.117.078.115.081.114.084.112.087.111.09.108.092.106.095.104.098.103.101.1.104.097.106.096.109.093.111.091.115.087.116.086.119.083.122.08.123.078.127.068.118 1.313 2.334.05.092.054.105.05.106.048.106.045.108.042.109.039.11.036.11.033.111.03.112.028.113.024.114.021.112.019.115.016.114.012.114.01.116.007.116.003.116.001.114-.003.116-.005.115-.008.117-.012.116-.014.115-.017.114-.021.115-.023.115-.027.114-.029.114-.033.112-.035.112-.039.112-.041.11-.044.109-.047.107-.05.106-.052.103-.054.103-.059.102-.059.099-.062.097-.066.097-.067.094-.069.092-.072.09-.074.089-.077.087-.078.084-.081.083-.083.08-.085.078-.087.077-.09.074-.091.072-.093.068-.095.068-.096.064-.099.062-.101.06-.102.057-.103.055-.106.052-.091.042-.025.011-.091.039-.099.04-.1.037-.1.034-.1.032-.101.03-.102.027-.101.024-.102.022-.103.019-.102.017-.102.014-.102.012-.103.009-.103.007-.102.004-.102.002-.102-.001-.101-.003-.102-.005-.1-.008-.101-.01-.1-.012-.099-.015-.1-.017-.099-.02-.098-.021-.098-.024-.096-.026-.096-.028-.096-.031-.095-.033-.094-.035-.093-.037-.093-.039-.09-.041-.091-.044-.089-.046-.089-.048-.088-.05-.086-.052-.085-.054-.084-.056-.083-.058-.026-.02-1.06.53h-1.472v3.14l.061-.038.162-.098.163-.094.165-.092.165-.089.167-.085.168-.083.17-.08.17-.076.171-.074.172-.071.174-.067.174-.065.175-.062.176-.058.177-.056.177-.052.179-.05.178-.046.18-.044.18-.04.181-.037.181-.035.181-.031.182-.028.183-.025.183-.022.183-.019.183-.016.184-.013.184-.01.184-.007.184-.003.184-.001.185.003.184.005.184.009.184.012.184.015.184.018.184.021.183.024.184.027.183.031.182.033.182.037.182.04.181.043.181.046.18.049.18.052.179.056.178.058.178.062.176.065.176.068.175.071.174.075.174.077.172.081.163.08 6.267 3.133v8.002l-15.958 1.994-.138.016-.147.015-.147.011-.148.009-.147.006-.147.003-.147.001-.147-.002-.147-.005-.146-.007-.146-.01-.147-.013-.145-.015-.146-.019-.145-.02-.144-.024-.144-.026-.144-.028-.143-.032-.143-.034-.142-.036-.141-.039-.141-.042-.14-.045-.139-.047-.138-.049-.138-.052-.137-.055-.135-.057-.135-.06-.134-.063-.125-.061-7.489-3.744v-5.44l.002-.137.005-.15.009-.148.013-.148.017-.149.02-.147.024-.148.027-.146.031-.145.035-.145.038-.145.042-.142.045-.142.049-.141.052-.14.051-.127 4.412-10.589.031-.072.037-.08.039-.082.041-.08.042-.078.045-.078.046-.077.047-.074.049-.075.051-.073.051-.071.055-.071.056-.07.056-.067.058-.066.06-.066.061-.065.062-.062.064-.062.066-.059.067-.059.068-.058.069-.054.07-.055.072-.052.073-.051.075-.05.075-.047.076-.046.078-.045.079-.043.071-.036 3.947-1.974.123-.059.135-.062.136-.057.136-.055.138-.05.138-.048.139-.043.14-.041.14-.036.14-.033.141-.03.141-.026.141-.023.142-.02.142-.015.141-.013.142-.009.141-.006.141-.002.141.001zm3.256 17.192-.118.002-.117.004-.117.007-.117.008-.117.01-.116.012-.117.014-.116.016-.116.018-.115.02-.116.022-.115.023-.114.026-.114.028-.114.029-.114.032-.112.033-.113.035-.112.038-.111.039-.111.041-.11.043-.11.045-.109.047-.108.049-.108.05-.106.053-.107.054-.105.057-.105.058-.104.06-.102.062-.103.064-.101.067-.1.067-.107.075-5.233 3.738 1.748.875.075.036.067.031.067.03.069.029.068.027.069.026.069.025.069.024.07.022.071.021.07.019.071.019.072.016.071.016.072.014.072.014.072.011.073.011.073.009.073.007.072.007.074.005.073.003.073.003.074.001h.073l.074-.002.073-.003.074-.005.074-.005.073-.007.083-.01 12.436-1.555v-1.998l-4.04-2.02-.117-.057-.11-.052-.11-.049-.111-.047-.111-.045-.112-.044-.113-.041-.113-.039-.113-.038-.114-.035-.114-.033-.115-.031-.114-.03-.116-.027-.115-.025-.116-.024-.116-.021-.117-.019-.116-.018-.117-.015-.117-.014-.117-.011-.117-.009-.117-.008-.117-.006-.118-.003-.117-.002zm-12.581-.462-.024.058-.017.047-.017.048-.015.047-.014.05-.013.048-.012.048-.01.05-.01.05-.008.049-.006.05-.006.05-.004.05-.003.051-.002.05-.001.062v2.944l3 1.5v-12.064zm9.159-12.73-.047.002-.047.003-.047.004-.046.005-.047.006-.047.008-.046.009-.047.009-.046.011-.047.013-.046.013-.046.014-.046.016-.046.017-.046.018-.046.02-.045.021-.057.027-3.907 1.953-.009.005-.005.011-.638 1.533h3.611l3.368-1.684.901 1.806.009.018.009.015.008.013.008.012.009.011.01.011.009.01.01.01.011.009.011.009.011.008.012.008.013.008.013.006.014.007.013.005.014.005.014.005.014.003.015.003.014.003.015.001.014.001.014.001.007-.001h.007.007l.007-.001.007-.001.007-.001.007-.001.007-.001.007-.002.007-.001.007-.002.007-.002.008-.003.007-.002.008-.003.007-.003.008-.003.014-.007.011-.005.011-.006.011-.006.01-.006.01-.007.011-.007.009-.007.011-.007.009-.008.009-.007.009-.008.01-.009.008-.008.008-.008.009-.01.008-.009.008-.009.008-.01.007-.01.008-.01.006-.009.007-.011.006-.011.006-.01.006-.01.005-.012.006-.011.005-.012.004-.011.004-.011.004-.011.004-.013.004-.013.003-.012.003-.011.002-.012.002-.012.002-.013.002-.012.001-.012.001-.011v-.012-.013-.013-.013l-.001-.01-.001-.012-.001-.013-.002-.012-.001-.012-.003-.013-.002-.011-.003-.012-.003-.012-.004-.012-.004-.011-.004-.012-.004-.011-.005-.011-.005-.012-.005-.011-.006-.011-.012-.022-1.288-2.29-.032-.055-.026-.043-.027-.042-.028-.04-.028-.04-.03-.039-.03-.038-.031-.037-.031-.036-.033-.035-.033-.034-.033-.033-.035-.033-.035-.031-.036-.031-.036-.029-.037-.029-.038-.028-.038-.027-.039-.026-.04-.025-.04-.024-.041-.023-.041-.023-.041-.021-.043-.02-.042-.019-.043-.019-.044-.017-.044-.016-.044-.015-.045-.015-.045-.013-.045-.012-.045-.011-.046-.01-.046-.009-.046-.008-.046-.007-.047-.006-.046-.004-.047-.004-.047-.002-.046-.002h-.047l-.047.001z"/><path d="m8.714 7.687c.184-.443.522-.805.952-1.02.868-.434 2.452-1.226 3.927-1.963 1.908-.954 4.229-.243 5.275 1.616.436.776.893 1.588 1.3 2.312.341.607.411 1.329.192 1.99s-.706 1.199-1.342 1.481c-.001.001-.002.001-.003.001-1.127.501-2.449.027-3.001-1.077-.009-.017-.014-.027-.014-.027l-2 1h-3v9s1.191-.851 2.591-1.85c2.712-1.938 6.274-2.218 9.256-.727 2.55 1.275 5.153 2.577 5.153 2.577v5s-10.014 1.252-14.197 1.775c-1.176.147-2.368-.058-3.428-.587-2.338-1.17-6.375-3.188-6.375-3.188s0-2.777 0-4.192c0-.533.106-1.062.311-1.554.905-2.173 3.53-8.472 4.403-10.567z" fill="#8fe9ce"/><g clip-path="url(#a)" fill="none"><g stroke="#1c7171"><path d="m12 13.5 9-4.5"/><path d="m19 10-1-2"/><path d="m17 11-1-2"/><path d="m15 12-1-2"/></g><path d="m12 19-2 3" stroke="#4fc0ae" stroke-linecap="round" stroke-width="2"/><path d="m12 13-2-2" stroke="#4fc0ae" stroke-linecap="round" stroke-width="2"/><path d="m15 22s.649.162 1.425.356c1.691.423 3.459.423 5.15 0 .776-.194 1.425-.356 1.425-.356" stroke="#4fc0ae" stroke-linecap="round" stroke-width="2"/></g></svg>