<svg clip-rule="evenodd" fill-rule="evenodd" stroke-linejoin="round" stroke-miterlimit="1.41421" viewBox="0 0 32 32" xmlns="http://www.w3.org/2000/svg" xmlns:xlink="http://www.w3.org/1999/xlink"><clipPath id="a"><path clip-rule="evenodd" d="m11 12v9s1.191-.851 2.591-1.85c2.712-1.938 6.274-2.218 9.256-.727 2.55 1.275 5.153 2.577 5.153 2.577v5s-10.014 1.252-14.197 1.775c-1.176.147-2.368-.058-3.428-.587-2.338-1.17-6.375-3.188-6.375-3.188s0-2.816 0-4.222c0-.514.098-1.023.289-1.501.74-1.85 2.696-6.739 3.429-8.571.182-.455.524-.827.962-1.046 1.53-.765 5.282-2.641 7.531-3.766.475-.237 1.024-.276 1.527-.108s.919.528 1.156 1.003l1.482 2.964-.041.417-3.967 1.919-.304-.143-.854.422-1.223.611-.105.021zm9.747-2.314c.057.336.028.685-.089 1.012-.185.514-.571.93-1.071 1.152-.279.124-.565.251-.841.374-.778.346-1.664.155-2.234-.421v-.474l3.864-1.924z"/></clipPath><path d="m0 0h32v32h-32z" fill="none"/><path d="m17.212 2.685c.362.014.718.067 1.064.173.721.221 1.372.647 1.864 1.218.193.225.356.47.498.73.588 1.139 1.147 2.292 1.721 3.439.189.392.321.807.38 1.24.1.735-.009 1.494-.313 2.172-.192.429-.461.824-.789 1.16-.235.241-.499.451-.786.625-.117.071-.237.133-.359.193-.339.156-.681.308-1.024.456-.333.133-.676.229-1.033.274-.746.095-1.514-.027-2.196-.345-.284-.133-.547-.301-.795-.493l-.01-.008-.962.481h-1.472v3.14c.111-.069.111-.068.223-.135.271-.158.546-.308.829-.444.558-.269 1.139-.49 1.735-.661 1.837-.527 3.804-.565 5.66-.109.547.134 1.084.311 1.603.527.232.097.458.203.683.313l6.267 3.133v8.002l-15.958 1.994c-.34.04-.679.063-1.021.061-.733-.003-1.465-.108-2.17-.31-.47-.135-.923-.316-1.362-.53l-7.489-3.745v-5.47c.002-.138.002-.137.007-.275.02-.335.059-.667.131-.995.061-.282.145-.556.242-.827 1.137-2.944 2.309-5.875 3.516-8.791.073-.167.154-.329.248-.486.232-.388.531-.736.88-1.025.211-.175.439-.323.68-.454 2.552-1.313 5.119-2.598 7.702-3.851.239-.109.485-.199.741-.262.254-.063.512-.097.772-.113.098-.003.195-.004.293-.002z" fill-rule="nonzero"/><path d="m11 12v9s1.191-.851 2.591-1.85c2.712-1.938 6.274-2.218 9.256-.727 2.55 1.275 5.153 2.577 5.153 2.577v5s-10.014 1.252-14.197 1.775c-1.176.147-2.368-.058-3.428-.587-2.338-1.17-6.375-3.188-6.375-3.188s0-2.816 0-4.222c0-.514.098-1.023.289-1.501.74-1.85 2.696-6.739 3.429-8.571.182-.455.524-.827.962-1.046 1.53-.765 5.282-2.641 7.531-3.766.475-.237 1.024-.276 1.527-.108s.919.528 1.156 1.003l1.482 2.964-.041.417-3.967 1.919-.304-.143-.854.422-1.223.611-.105.021zm9.747-2.314c.057.336.028.685-.089 1.012-.185.514-.571.93-1.071 1.152-.279.124-.565.251-.841.374-.778.346-1.664.155-2.234-.421v-.474l3.864-1.924z" fill="#85e9e4"/><g clip-path="url(#a)"><path d="m23.036 21.001c.17.01.331.053.479.142.343.205.533.608.474 1.004-.014.093-.04.183-.079.268-.055.119-.133.228-.228.317-.112.103-.242.174-.385.223-.491.137-.989.249-1.483.372-.345.084-.693.157-1.045.211-.76.117-1.532.158-2.301.123-.713-.033-1.417-.136-2.112-.293-.534-.129-1.066-.265-1.599-.398-.2-.056-.379-.16-.516-.319-.073-.085-.132-.183-.173-.287-.123-.318-.074-.686.129-.959.055-.075.121-.143.196-.199.104-.08.223-.139.35-.172.147-.04.295-.04.445-.016.544.12 1.081.272 1.623.403.24.054.481.102.724.14.581.09 1.171.126 1.759.108.639-.02 1.271-.108 1.895-.248.524-.127 1.046-.26 1.568-.391.056-.012.055-.012.111-.021.056-.006.111-.009.168-.008zm-11.018-3.001c.139.005.275.034.401.092.385.178.62.591.576 1.012-.015.139-.06.27-.127.392-.631 1.063-1.352 2.07-2.056 3.087-.09.121-.2.222-.333.295-.111.06-.234.1-.36.115-.114.014-.23.007-.343-.018-.101-.023-.198-.062-.287-.115-.322-.191-.513-.557-.487-.93.012-.163.064-.316.147-.456.662-1.03 1.342-2.05 2.039-3.057.124-.168.292-.297.491-.364.066-.022.133-.036.202-.046.046-.005.091-.007.137-.007zm-1.99-8c.238.01.458.098.638.254.722.664 1.416 1.358 2.08 2.08.092.106.164.228.207.362.04.125.054.258.043.388-.01.121-.042.24-.095.35-.045.093-.104.178-.174.253-.262.276-.668.381-1.031.266-.144-.046-.272-.124-.383-.226-.696-.677-1.402-1.346-2.059-2.061-.092-.106-.164-.228-.207-.362-.109-.344-.021-.729.226-.991.071-.075.153-.138.243-.188.132-.073.278-.113.428-.123.028-.002.056-.002.084-.002z" fill="#55bdd2"/></g><path d="m13.882 12 .447-.224-1.276-2.552.894-.448 1.277 2.553 1.105-.553-1.276-2.552.894-.448 1.277 2.553 1.105-.553-1.276-2.552.894-.448 1.277 2.553 1.152-.576.188.375c.089.178.15.366.183.558l-4.235 2.117c-.145-.147-.27-.318-.367-.512-.087-.176-.145-.291-.145-.291l-2 1z" fill="#107286"/></svg>