<svg clip-rule="evenodd" fill-rule="evenodd" stroke-linecap="round" stroke-linejoin="round" stroke-miterlimit="1.5" viewBox="0 0 32 32" xmlns="http://www.w3.org/2000/svg"><path d="m0 0h32v32h-32z" fill="none"/><path d="m2 7h28v18h-28z" fill="none" stroke="#000" stroke-width="4"/><path d="m29 21h-26l-1 1v3h28v-3z" fill="#948f35"/><path d="m2 7h28v15h-28z" fill="#c5c05c"/><path d="m24 12c0-.552-.448-1-1-1-.871 0-2.129 0-3 0-.552 0-1 .448-1 1v1c0 .552.448 1 1 1h3c.552 0 1-.448 1-1 0-.322 0-.678 0-1z" fill="#808537"/><path d="m24 16c0-.552-.448-1-1-1-.871 0-2.129 0-3 0-.552 0-1 .448-1 1v1c0 .552.448 1 1 1h3c.552 0 1-.448 1-1 0-.322 0-.678 0-1z" fill="#808537"/><g fill="none" stroke="#808537" stroke-linecap="butt" stroke-linejoin="miter"><path d="m25 10s.771-.771 1.207-1.207c.188-.188.442-.293.707-.293h1.586v1.586c0 .265-.105.519-.293.707-.436.436-1.207 1.207-1.207 1.207"/><path d="m7 10s-.771-.771-1.207-1.207c-.188-.188-.442-.293-.707-.293-.586 0-1.586 0-1.586 0v1.586c0 .265.105.519.293.707.436.436 1.207 1.207 1.207 1.207"/><path d="m25 19s.771.771 1.207 1.207c.188.188.442.293.707.293h1.586s0-1 0-1.586c0-.265-.105-.519-.293-.707-.436-.436-1.207-1.207-1.207-1.207"/><path d="m7 19s-.771.771-1.207 1.207c-.188.188-.442.293-.707.293-.586 0-1.586 0-1.586 0s0-1 0-1.586c0-.265.105-.519.293-.707.436-.436 1.207-1.207 1.207-1.207"/></g><path d="m12.958 11h1.042v2h1v1h-1v1h1v1h-1v2h-1v-2h-1.042l-.729 1.75h-.458l-.729-1.75h-1.042v2h-1v-2h-1v-1h1v-1h-1v-1h1v-2h1.042l.833 2h2.25zm-3.75 3h-.208v1h.625zm2.5 0h-1.416l.416 1h.584zm1.292 0h-.208l-.417 1h.625z" fill="#fff"/><path d="m20 22-1-1h-6l-1 1v3h8z" fill="#bdbdbd"/><path d="m12 7h8v15h-8z" fill="#ededed"/></svg>