<svg clip-rule="evenodd" fill-rule="evenodd" stroke-linecap="round" stroke-linejoin="round" stroke-miterlimit="1.5" viewBox="0 0 32 32" xmlns="http://www.w3.org/2000/svg"><path d="m0 0h32v32h-32z" fill="none"/><path d="m2 7h28v18h-28z" fill="none" stroke="#000" stroke-width="4"/><path d="m2 21h28v4h-28z" fill="#6a50da"/><path d="m2 7h28v15h-28z" fill="#8c77ea"/><g fill="#6652c0"><path d="m11 9c0-.552-.448-1-1-1s-1 .448-1 1v2c0 .552.448 1 1 1s1-.448 1-1c0-.611 0-1.389 0-2z"/><path d="m8 9c0-.552-.448-1-1-1s-1 .448-1 1v2c0 .552.448 1 1 1s1-.448 1-1c0-.611 0-1.389 0-2z"/><path d="m5 9c0-.552-.448-1-1-1s-1 .448-1 1v2c0 .552.448 1 1 1s1-.448 1-1c0-.611 0-1.389 0-2z"/><path d="m28 20c0-1.657-1.343-3-3-3-.965 0-2.035 0-3 0-1.657 0-3 1.343-3 3z"/><path d="m27 12.498c0-1.932-1.566-3.498-3.498-3.498-.001 0-.003 0-.004 0-1.932 0-3.498 1.566-3.498 3.498v.004c0 1.932 1.566 3.498 3.498 3.498h.004c1.932 0 3.498-1.566 3.498-3.498 0-.001 0-.003 0-.004z"/></g><path d="m8.958 13h1.042v2h1v1h-1v1h1v1h-1v2h-1v-2h-1.042l-.729 1.75h-.458l-.729-1.75h-1.042v2h-1v-2h-1v-1h1v-1h-1v-1h1v-2h1.042l.833 2h2.25zm-3.75 3h-.208v1h.625zm2.5 0h-1.416l.416 1h.584zm1.292 0h-.208l-.417 1h.625z" fill="#fff"/><path d="m12 7h8v18h-8z" fill="#ededed"/><path d="m12 22h8v3h-8z" fill="#bdbdbd"/></svg>