<svg clip-rule="evenodd" fill-rule="evenodd" stroke-linecap="round" stroke-linejoin="round" stroke-miterlimit="1.5" viewBox="0 0 32 32" xmlns="http://www.w3.org/2000/svg"><path d="m0 0h32v32h-32z" fill="none"/><path d="m2 7h28v18h-28z" fill="none" stroke="#000" stroke-width="4"/><path d="m29 21h-26l-1 1v3h28v-3z" fill="#3ca155"/><path d="m2 7h28v15h-28z" fill="#5bc966"/><g fill="#378a3d"><path d="m8.5 9.5c0-.828-.672-1.5-1.5-1.5-.777 0-1.723 0-2.5 0-.398 0-.779.158-1.061.439-.281.282-.439.663-.439 1.061 0 .828.672 1.5 1.5 1.5h2.5c.828 0 1.5-.672 1.5-1.5z"/><path d="m8.5 19.5c0-.828-.672-1.5-1.5-1.5-.777 0-1.723 0-2.5 0-.398 0-.779.158-1.061.439-.281.282-.439.663-.439 1.061 0 .828.672 1.5 1.5 1.5h2.5c.828 0 1.5-.672 1.5-1.5z"/><path d="m29 9.5c0-.828-.672-1.5-1.5-1.5-.777 0-1.723 0-2.5 0-.398 0-.779.158-1.061.439-.281.282-.439.663-.439 1.061 0 .828.672 1.5 1.5 1.5h2.5c.828 0 1.5-.672 1.5-1.5z"/><path d="m29 19.5c0-.828-.672-1.5-1.5-1.5-.777 0-1.723 0-2.5 0-.398 0-.779.158-1.061.439-.281.282-.439.663-.439 1.061 0 .828.672 1.5 1.5 1.5h2.5c.828 0 1.5-.672 1.5-1.5z"/><path d="m21 14c0-.552-.448-1-1-1s-1 .448-1 1v1c0 .552.448 1 1 1s1-.448 1-1c0-.322 0-.678 0-1z"/><path d="m24 14c0-.552-.448-1-1-1s-1 .448-1 1v1c0 .552.448 1 1 1s1-.448 1-1c0-.322 0-.678 0-1z"/></g><path d="m13.958 11h1.042v2h1v1h-1v1h1v1h-1v2h-1v-2h-1.042l-.729 1.75h-.458l-.729-1.75h-1.042v2h-1v-2h-1v-1h1v-1h-1v-1h1v-2h1.042l.833 2h2.25zm-3.75 3h-.208v1h.625zm2.5 0h-1.416l.416 1h.584zm1.292 0h-.208l-.417 1h.625z" fill="#fff"/><path d="m27 20h-22v-11h22zm-21-10v9h20v-9z" fill="#378a3d"/><path d="m20 22-1-1h-6l-1 1v3h8z" fill="#bdbdbd"/><path d="m12 7h8v15h-8z" fill="#ededed"/></svg>