<svg clip-rule="evenodd" fill-rule="evenodd" stroke-linecap="round" stroke-linejoin="round" stroke-miterlimit="1.5" viewBox="0 0 32 32" xmlns="http://www.w3.org/2000/svg" xmlns:xlink="http://www.w3.org/1999/xlink"><clipPath id="a"><path clip-rule="evenodd" d="m2 7h28v15h-28z"/></clipPath><path d="m0 0h32v32h-32z" fill="none"/><path d="m2 7h28v18h-28z" fill="none" stroke="#000" stroke-width="4"/><path d="m29 21h-26l-1 1v3h28v-3z" fill="#b84972"/><path d="m2 7h28v15h-28z" fill="#df6a93"/><g clip-path="url(#a)" fill="none" stroke="#e997b5" stroke-linecap="butt" stroke-linejoin="miter"><path d="m31 11s-2.975.992-4.735 1.578c-.821.274-1.709.274-2.53 0-1.021-.34-2.449-.816-3.47-1.156-.821-.274-1.709-.274-2.53 0-1.021.34-2.449.816-3.47 1.156-.821.274-1.709.274-2.53 0-.819-.273-1.735-.578-1.735-.578"/><path d="m31 14s-2.975.992-4.735 1.578c-.821.274-1.709.274-2.53 0-1.021-.34-2.449-.816-3.47-1.156-.821-.274-1.709-.274-2.53 0-1.021.34-2.449.816-3.47 1.156-.821.274-1.709.274-2.53 0-.819-.273-1.735-.578-1.735-.578"/><path d="m31 8s-2.975.992-4.735 1.578c-.821.274-1.709.274-2.53 0-1.021-.34-2.449-.816-3.47-1.156-.821-.274-1.709-.274-2.53 0-1.021.34-2.449.816-3.47 1.156-.821.274-1.709.274-2.53 0-.819-.273-1.735-.578-1.735-.578"/></g><g fill="#ca4072"><path d="m9 19c0-.552-.448-1-1-1-.871 0-2.129 0-3 0-.552 0-1 .448-1 1v1c0 .552.448 1 1 1h3c.552 0 1-.448 1-1 0-.322 0-.678 0-1z"/><path d="m29 18c0-.552-.448-1-1-1s-1 .448-1 1v2c0 .552.448 1 1 1s1-.448 1-1c0-.611 0-1.389 0-2z"/><path d="m26 18c0-.552-.448-1-1-1s-1 .448-1 1v2c0 .552.448 1 1 1s1-.448 1-1c0-.611 0-1.389 0-2z"/><path d="m23 18c0-.552-.448-1-1-1s-1 .448-1 1v2c0 .552.448 1 1 1s1-.448 1-1c0-.611 0-1.389 0-2z"/></g><path d="m8.958 8h1.042v2h1v1h-1v1h1v1h-1v2h-1v-2h-1.042l-.729 1.75h-.458l-.729-1.75h-1.042v2h-1v-2h-1v-1h1v-1h-1v-1h1v-2h1.042l.833 2h2.25zm-3.75 3h-.208v1h.625zm2.5 0h-1.416l.416 1h.584zm1.292 0h-.208l-.417 1h.625z" fill="#fff"/><path d="m20 22-1-1h-6l-1 1v3h8z" fill="#bdbdbd"/><path d="m12 7h8v15h-8z" fill="#ededed"/></svg>