<?xml version="1.0" encoding="UTF-8" standalone="no"?><!DOCTYPE svg PUBLIC "-//W3C//DTD SVG 1.1//EN" "http://www.w3.org/Graphics/SVG/1.1/DTD/svg11.dtd"><svg width="100%" height="100%" viewBox="0 0 32 32" version="1.1" xmlns="http://www.w3.org/2000/svg" xmlns:xlink="http://www.w3.org/1999/xlink" xml:space="preserve" style="fill-rule:evenodd;clip-rule:evenodd;stroke-linejoin:round;stroke-miterlimit:1.41421;">
<metadata>
<rdf:RDF xmlns:cc="http://web.resource.org/cc/"
         xmlns:rdf="http://www.w3.org/1999/02/22-rdf-syntax-ns#"
         xmlns:dc = "http://purl.org/dc/elements/1.1/"
         >

     <rdf:Description rdf:about="">
       <dc:title>Mutant Standard emoji v0.2.4</dc:title>
     </rdf:Description>

    <cc:work rdf:about="">
        <cc:license rdf:resource="http://creativecommons.org/licenses/by-nc-sa/4.0/"/>
        <cc:attributionName>Dzuk</cc:attributionName>
        <cc:attributionURL>http://mutant.tech/</cc:attributionURL>
    </cc:work>

</rdf:RDF>
</metadata>
<rect id="date" x="0" y="0" width="32" height="32" style="fill:none;"/><g id="outline"><path d="M8,4l0,-1.025c0.007,-0.288 0.045,-0.571 0.129,-0.848c0.259,-0.852 0.9,-1.558 1.723,-1.899c0.226,-0.094 0.463,-0.16 0.705,-0.196c0.13,-0.019 0.163,-0.019 0.294,-0.029c0.149,-0.004 0.148,-0.004 0.298,0c0.131,0.01 0.164,0.01 0.294,0.029c0.242,0.036 0.479,0.102 0.705,0.196c0.823,0.341 1.464,1.047 1.723,1.899c0.084,0.277 0.122,0.56 0.129,0.848l0,1.025l4,0l0,-1.025c0.003,-0.121 0.002,-0.145 0.014,-0.272c0.024,-0.243 0.079,-0.484 0.161,-0.715c0.284,-0.791 0.9,-1.439 1.677,-1.76c0.226,-0.094 0.463,-0.16 0.705,-0.196c0.13,-0.019 0.163,-0.019 0.294,-0.029c0.15,-0.004 0.149,-0.004 0.298,0c0.131,0.01 0.164,0.01 0.294,0.029c0.242,0.036 0.479,0.102 0.705,0.196c0.823,0.341 1.464,1.047 1.723,1.899c0.084,0.277 0.122,0.56 0.129,0.848l0,1.025l5,0l0,28l-26,0l0,-28l5,0Z"/></g><g id="emoji"><path d="M27,6l-22,0l0,17l1,1l20,0l1,-1l0,-17Z" style="fill:#fff;"/><rect x="5" y="23" width="22" height="7" style="fill:#808080;"/><path d="M12,3c0,-0.265 -0.105,-0.52 -0.293,-0.707c-0.187,-0.188 -0.442,-0.293 -0.707,-0.293c0,0 0,0 0,0c-0.265,0 -0.52,0.105 -0.707,0.293c-0.188,0.187 -0.293,0.442 -0.293,0.707c0,1.331 0,3.669 0,5c0,0.265 0.105,0.52 0.293,0.707c0.187,0.188 0.442,0.293 0.707,0.293c0,0 0,0 0,0c0.265,0 0.52,-0.105 0.707,-0.293c0.188,-0.187 0.293,-0.442 0.293,-0.707c0,-1.331 0,-3.669 0,-5Z" style="fill:#666;"/><path d="M22,3c0,-0.265 -0.105,-0.52 -0.293,-0.707c-0.187,-0.188 -0.442,-0.293 -0.707,-0.293c0,0 0,0 0,0c-0.265,0 -0.52,0.105 -0.707,0.293c-0.188,0.187 -0.293,0.442 -0.293,0.707c0,1.331 0,3.669 0,5c0,0.265 0.105,0.52 0.293,0.707c0.187,0.188 0.442,0.293 0.707,0.293c0,0 0,0 0,0c0.265,0 0.52,-0.105 0.707,-0.293c0.188,-0.187 0.293,-0.442 0.293,-0.707c0,-1.331 0,-3.669 0,-5Z" style="fill:#666;"/><path d="M13.333,12.515c-1.083,0 -1.714,0.412 -1.893,1.237l-1.847,0c0.099,-0.954 0.486,-1.674 1.162,-2.161c0.636,-0.447 1.47,-0.67 2.503,-0.67c1.063,0 1.927,0.248 2.593,0.745c0.695,0.506 1.043,1.157 1.043,1.952c0,0.496 -0.134,0.926 -0.402,1.289c-0.268,0.362 -0.666,0.633 -1.192,0.812c0.586,0.198 1.055,0.494 1.408,0.886c0.352,0.393 0.529,0.842 0.529,1.349c0,0.506 -0.092,0.939 -0.276,1.296c-0.184,0.358 -0.444,0.666 -0.782,0.924c-0.715,0.546 -1.644,0.82 -2.787,0.82c-1.092,0 -2.011,-0.279 -2.756,-0.835c-0.835,-0.606 -1.252,-1.41 -1.252,-2.414l1.878,0c0.029,0.507 0.235,0.904 0.618,1.192c0.382,0.288 0.882,0.432 1.497,0.432c0.616,0 1.096,-0.136 1.438,-0.409c0.343,-0.274 0.514,-0.621 0.514,-1.043c0,-0.423 -0.156,-0.753 -0.469,-0.991c-0.313,-0.239 -0.807,-0.358 -1.483,-0.358l-1.281,0l0,-1.386l1.103,0c0.566,0 1.008,-0.121 1.326,-0.365c0.318,-0.243 0.477,-0.564 0.477,-0.961c0,-0.397 -0.137,-0.72 -0.41,-0.968c-0.273,-0.249 -0.693,-0.373 -1.259,-0.373Z" style="fill-rule:nonzero;"/><path d="M18.623,11.844c0.745,-0.109 1.4,-0.372 1.966,-0.789l1.327,0l0,9.73l-1.759,0l0,-7.629c-0.506,0.248 -1.018,0.372 -1.534,0.372l0,-1.684Z" style="fill-rule:nonzero;"/><path d="M12.127,24.295c0.288,0 0.552,0.048 0.791,0.143c0.24,0.095 0.446,0.236 0.619,0.422c0.363,0.39 0.545,0.949 0.545,1.676c0,0.731 -0.182,1.296 -0.545,1.695c-0.346,0.372 -0.818,0.558 -1.417,0.558c-0.594,0 -1.063,-0.19 -1.409,-0.571c-0.364,-0.395 -0.545,-0.956 -0.545,-1.682c0,-0.736 0.181,-1.299 0.545,-1.689c0.341,-0.368 0.813,-0.552 1.416,-0.552Zm0.835,1.107c-0.207,-0.268 -0.485,-0.402 -0.835,-0.402c-0.35,0 -0.629,0.134 -0.838,0.402c-0.208,0.268 -0.312,0.649 -0.312,1.143c0,0.495 0.104,0.874 0.312,1.137c0.209,0.264 0.488,0.396 0.838,0.396c0.35,0 0.628,-0.132 0.835,-0.396c0.206,-0.263 0.309,-0.642 0.309,-1.137c0,-0.494 -0.103,-0.875 -0.309,-1.143Z" style="fill:#fff;fill-rule:nonzero;"/><path d="M16.562,24.295c0.266,0 0.496,0.032 0.691,0.096c0.195,0.065 0.364,0.154 0.506,0.27c0.279,0.226 0.461,0.543 0.545,0.95l-0.838,0.153c-0.071,-0.226 -0.181,-0.409 -0.329,-0.548c-0.149,-0.14 -0.334,-0.21 -0.555,-0.21c-0.302,0 -0.545,0.127 -0.732,0.379c-0.199,0.275 -0.299,0.655 -0.299,1.141c0,0.485 0.089,0.864 0.266,1.136c0.177,0.273 0.419,0.409 0.725,0.409c0.306,0 0.536,-0.074 0.691,-0.222c0.155,-0.149 0.233,-0.341 0.233,-0.575l0.844,0c0,0.483 -0.154,0.856 -0.462,1.12c-0.308,0.264 -0.73,0.395 -1.266,0.395c-0.572,0 -1.026,-0.199 -1.363,-0.598c-0.342,-0.408 -0.512,-0.962 -0.512,-1.662c0,-0.709 0.175,-1.263 0.525,-1.662c0.337,-0.382 0.78,-0.572 1.33,-0.572Z" style="fill:#fff;fill-rule:nonzero;"/><path d="M18.65,24.381l3.457,0l0,0.678l-1.337,0l0,3.637l-0.784,0l0,-3.637l-1.336,0l0,-0.678Z" style="fill:#fff;fill-rule:nonzero;"/></g></svg>