<svg clip-rule="evenodd" fill-rule="evenodd" stroke-linecap="square" stroke-linejoin="round" stroke-miterlimit="1.5" viewBox="0 0 32 32" xmlns="http://www.w3.org/2000/svg" xmlns:xlink="http://www.w3.org/1999/xlink"><clipPath id="a"><path clip-rule="evenodd" d="m0 0h32v32h-32z"/></clipPath><path d="m0 0h32v32h-32z" fill="none"/><g clip-path="url(#a)"><path d="m25 8c0 4.873.03 9.745-.001 14.618-.007.391-.033.781-.087 1.169-.125.921-.387 1.822-.774 2.667-.519 1.133-1.262 2.161-2.175 3.009-.854.792-1.853 1.425-2.935 1.858-1.009.403-2.088.632-3.175.672-.994.037-1.994-.082-2.952-.354-1.038-.294-2.023-.768-2.902-1.393-1.463-1.04-2.617-2.493-3.296-4.154-.312-.764-.523-1.568-.627-2.386-.046-.36-.068-.721-.075-1.084-.031-4.907-.031-9.814 0-14.721.016-.887.168-1.763.467-2.598.176-.491.399-.964.667-1.41.674-1.129 1.629-2.084 2.758-2.758.446-.268.919-.491 1.409-.667.805-.288 1.647-.439 2.5-.466.1-.001.2-.002.301-.001.339.006.676.029 1.012.076.751.106 1.487.318 2.179.631.645.291 1.25.669 1.796 1.12 1.271 1.049 2.202 2.488 2.633 4.079.184.68.273 1.38.277 2.084v.009z"/><path d="m22 11v11.5c0 1.724-.685 3.377-1.904 4.596s-2.872 1.904-4.596 1.904c-3.59 0-6.5-2.91-6.5-6.5 0-4.491 0-10.375 0-14.5 0-1.326.527-2.598 1.464-3.536.938-.937 2.21-1.464 3.536-1.464 2.761 0 5 2.239 5 5v11.5c0 1.933-1.567 3.5-3.5 3.5s-3.5-1.567-3.5-3.5c0-3.542 0-8.5 0-8.5" fill="none" stroke="#a7a7a7" stroke-width="2"/></g></svg>