<?xml version="1.0" encoding="UTF-8" standalone="no"?><!DOCTYPE svg PUBLIC "-//W3C//DTD SVG 1.1//EN" "http://www.w3.org/Graphics/SVG/1.1/DTD/svg11.dtd"><svg width="100%" height="100%" viewBox="0 0 32 32" version="1.1" xmlns="http://www.w3.org/2000/svg" xmlns:xlink="http://www.w3.org/1999/xlink" xml:space="preserve" style="fill-rule:evenodd;clip-rule:evenodd;stroke-linejoin:round;stroke-miterlimit:1.41421;">
<metadata>
<rdf:RDF xmlns:cc="http://web.resource.org/cc/"
         xmlns:rdf="http://www.w3.org/1999/02/22-rdf-syntax-ns#"
         xmlns:dc = "http://purl.org/dc/elements/1.1/"
         >

     <rdf:Description rdf:about="">
       <dc:title>Mutant Standard emoji v0.2.4</dc:title>
     </rdf:Description>

    <cc:work rdf:about="">
        <cc:license rdf:resource="http://creativecommons.org/licenses/by-nc-sa/4.0/"/>
        <cc:attributionName>Dzuk</cc:attributionName>
        <cc:attributionURL>http://mutant.tech/</cc:attributionURL>
    </cc:work>

</rdf:RDF>
</metadata>
<rect id="bookmark" x="0" y="0" width="32" height="32" style="fill:none;"/><clipPath id="_clip1"><rect x="0" y="0" width="32" height="32"/></clipPath><g clip-path="url(#_clip1)"><g id="outline"><path d="M28,32l-24,0l0,-32l15.828,0l8.172,8.172l0,6.828l2,0l0,12l-2,0l0,5Z"/></g><g id="emoji"><path d="M26,30l-20,0l0,-28c0,0 7.233,0 13,0l7,7c0,8.294 0,21 0,21Z" style="fill:#fff;"/><clipPath id="_clip2"><path d="M26,30l-20,0l0,-28c0,0 7.233,0 13,0l7,7c0,8.294 0,21 0,21Z"/></clipPath><g clip-path="url(#_clip2)"><path d="M18,10l0,-9l9,0l0,9l-9,0Z" style="fill:#b2b2b2;"/></g><rect x="8" y="8" width="16" height="2" style="fill:#b2b2b2;"/><rect x="8" y="11" width="16" height="2" style="fill:#b2b2b2;"/><rect x="8" y="14" width="16" height="2" style="fill:#b2b2b2;"/><rect x="8" y="17" width="16" height="2" style="fill:#b2b2b2;"/><rect x="8" y="20" width="16" height="2" style="fill:#b2b2b2;"/><rect x="8" y="23" width="16" height="2" style="fill:#b2b2b2;"/><rect x="8" y="26" width="16" height="2" style="fill:#b2b2b2;"/><path d="M19,1l0,8l8,0l0,2l-10,0l0,-10l2,0" style="fill-rule:nonzero;"/></g><path d="M28,17c0,0 -5.082,0 -8,0c-0.53,0 -1.039,0.211 -1.414,0.586c-0.375,0.375 -0.586,0.884 -0.586,1.414c0,1.222 0,2.778 0,4c0,0.53 0.211,1.039 0.586,1.414c0.375,0.375 0.884,0.586 1.414,0.586c2.918,0 8,0 8,0l0,-8Z" style="fill:#5462cb;"/></g></svg>