<?xml version="1.0" encoding="UTF-8" standalone="no"?><!DOCTYPE svg PUBLIC "-//W3C//DTD SVG 1.1//EN" "http://www.w3.org/Graphics/SVG/1.1/DTD/svg11.dtd"><svg width="100%" height="100%" viewBox="0 0 32 32" version="1.1" xmlns="http://www.w3.org/2000/svg" xmlns:xlink="http://www.w3.org/1999/xlink" xml:space="preserve" style="fill-rule:evenodd;clip-rule:evenodd;stroke-linejoin:round;stroke-miterlimit:1.41421;">
<metadata>
<rdf:RDF xmlns:cc="http://web.resource.org/cc/"
         xmlns:rdf="http://www.w3.org/1999/02/22-rdf-syntax-ns#"
         xmlns:dc = "http://purl.org/dc/elements/1.1/"
         >

     <rdf:Description rdf:about="">
       <dc:title>Mutant Standard emoji v0.2.4</dc:title>
     </rdf:Description>

    <cc:work rdf:about="">
        <cc:license rdf:resource="http://creativecommons.org/licenses/by-nc-sa/4.0/"/>
        <cc:attributionName>Dzuk</cc:attributionName>
        <cc:attributionURL>http://mutant.tech/</cc:attributionURL>
    </cc:work>

</rdf:RDF>
</metadata>
<rect id="page_with_pencil" x="0" y="0" width="32" height="32" style="fill:none;"/><clipPath id="_clip1"><rect x="0" y="0" width="32" height="32"/></clipPath><g clip-path="url(#_clip1)"><g id="outline"><path d="M28,8.172l0,23.828l-24,0l0,-32l15.828,0l8.172,8.172Z" style="fill-rule:nonzero;"/></g><g id="emoji"><path d="M26,30l-20,0l0,-28c0,0 7.233,0 13,0l7,7c0,8.294 0,21 0,21Z" style="fill:#fff;"/><clipPath id="_clip2"><path d="M26,30l-20,0l0,-28c0,0 7.233,0 13,0l7,7c0,8.294 0,21 0,21Z"/></clipPath><g clip-path="url(#_clip2)"><path d="M18,10l0,-9l9,0l0,9l-9,0Z" style="fill:#b2b2b2;"/></g><g><rect x="8" y="8" width="16" height="2" style="fill:#b2b2b2;"/><rect x="8" y="11" width="16" height="2" style="fill:#b2b2b2;"/><rect x="8" y="14" width="16" height="2" style="fill:#b2b2b2;"/><rect x="8" y="17" width="16" height="2" style="fill:#b2b2b2;"/><rect x="8" y="20" width="16" height="2" style="fill:#b2b2b2;"/><rect x="8" y="23" width="16" height="2" style="fill:#b2b2b2;"/><path d="M20,26l-12,0l0,2l14,0l-2,-2Z" style="fill:#b2b2b2;"/></g><path d="M19,9l8,0l0,2l-10,0l0,-10l2,0l0,8Z" style="fill-rule:nonzero;"/><path d="M19.806,19.978l1.943,7.771l-7.771,-1.943l-12.806,-12.806l5.828,-5.828c4.269,4.268 8.537,8.537 12.806,12.806Z" style="fill-rule:nonzero;"/><path d="M4,13l3,-3l11,11l1,4l-4,-1l-11,-11Z" style="fill:#fff;"/><clipPath id="_clip3"><path d="M4,13l3,-3l11,11l1,4l-4,-1l-11,-11Z"/></clipPath><g clip-path="url(#_clip3)"><path d="M1,14l7,-7l11.5,11.5l-7,7l-11.5,-11.5Z" style="fill:#e4d20b;"/><clipPath id="_clip4"><path d="M1,14l7,-7l11.5,11.5l-7,7l-11.5,-11.5Z"/></clipPath><g clip-path="url(#_clip4)"><path d="M3,10l14,14l1,-1l-14,-14l-1,1Z" style="fill:#78701a;"/></g></g><path d="M18.707,20.707l-4,4l-1.414,-1.414l4,-4l1.414,1.414Z" style="fill-rule:nonzero;"/></g></g></svg>