<?xml version="1.0" encoding="UTF-8" standalone="no"?><!DOCTYPE svg PUBLIC "-//W3C//DTD SVG 1.1//EN" "http://www.w3.org/Graphics/SVG/1.1/DTD/svg11.dtd"><svg width="100%" height="100%" viewBox="0 0 32 32" version="1.1" xmlns="http://www.w3.org/2000/svg" xmlns:xlink="http://www.w3.org/1999/xlink" xml:space="preserve" style="fill-rule:evenodd;clip-rule:evenodd;stroke-linejoin:round;stroke-miterlimit:1.41421;">
<metadata>
<rdf:RDF xmlns:cc="http://web.resource.org/cc/"
         xmlns:rdf="http://www.w3.org/1999/02/22-rdf-syntax-ns#"
         xmlns:dc = "http://purl.org/dc/elements/1.1/"
         >

     <rdf:Description rdf:about="">
       <dc:title>Mutant Standard emoji v0.2.5</dc:title>
     </rdf:Description>

    <cc:work rdf:about="">
        <cc:license rdf:resource="http://creativecommons.org/licenses/by-nc-sa/4.0/"/>
        <cc:attributionName>Dzuk</cc:attributionName>
        <cc:attributionURL>http://mutant.tech/</cc:attributionURL>
    </cc:work>

</rdf:RDF>
</metadata>
<rect id="arrows_counterclockwise" x="0" y="0" width="32" height="32" style="fill:none;"/><clipPath id="_clip1"><rect x="0" y="0" width="32" height="32"/></clipPath><g clip-path="url(#_clip1)"><g id="outline"><path d="M0,24c0,4.418 3.582,8 8,8c4.887,0 11.113,0 16,0c4.418,0 8,-3.582 8,-8c0,-4.887 0,-11.113 0,-16c0,-4.418 -3.582,-8 -8,-8c-4.887,0 -11.113,0 -16,0c-4.418,0 -8,3.582 -8,8c0,4.887 0,11.113 0,16Z"/></g><g id="emoji"><path d="M30,24c0,1.591 -0.632,3.117 -1.757,4.243c-1.126,1.125 -2.652,1.757 -4.243,1.757c-4.724,0 -11.276,0 -16,0c-1.591,0 -3.117,-0.632 -4.243,-1.757c-1.125,-1.126 -1.757,-2.652 -1.757,-4.243c0,-4.724 0,-11.276 0,-16c0,-1.591 0.632,-3.117 1.757,-4.243c1.126,-1.125 2.652,-1.757 4.243,-1.757c4.724,0 11.276,0 16,0c1.591,0 3.117,0.632 4.243,1.757c1.125,1.126 1.757,2.652 1.757,4.243c0,4.724 0,11.276 0,16Z" style="fill:#808080;"/><path d="M23.07,23.07c-0.057,0.056 -0.114,0.112 -0.172,0.167c-0.902,0.861 -1.964,1.551 -3.119,2.023c-1.196,0.489 -2.486,0.74 -3.779,0.74c-1.293,0 -2.582,-0.251 -3.779,-0.74c-1.155,-0.472 -2.217,-1.162 -3.119,-2.023c-0.872,-0.83 -1.592,-1.817 -2.114,-2.902c-0.447,-0.926 -0.748,-1.921 -0.891,-2.939c-0.018,-0.132 -0.034,-0.264 -0.047,-0.396l3.021,0c0.097,0.676 0.293,1.337 0.582,1.956c0.358,0.764 0.854,1.462 1.458,2.052c0.625,0.609 1.362,1.102 2.166,1.442c0.832,0.352 1.73,0.538 2.632,0.549c0.907,0.012 1.813,-0.152 2.656,-0.484c0.813,-0.321 1.563,-0.796 2.202,-1.391c0.062,-0.058 0.122,-0.116 0.182,-0.175l-2.949,-2.949l8,0l0,8l-2.93,-2.93Zm-14.138,-14.138c0.822,-0.822 1.785,-1.503 2.843,-1.997c0.856,-0.4 1.77,-0.677 2.704,-0.82c0.462,-0.07 0.926,-0.105 1.392,-0.114c0.13,-0.001 0.129,-0.001 0.258,0c0.466,0.009 0.93,0.044 1.392,0.114c0.934,0.143 1.848,0.42 2.705,0.82c0.982,0.459 1.888,1.079 2.672,1.828c0.842,0.802 1.543,1.751 2.061,2.793c0.42,0.844 0.719,1.748 0.885,2.676c0.045,0.255 0.081,0.511 0.106,0.768l-3.021,0c-0.011,-0.08 -0.024,-0.16 -0.038,-0.24c-0.116,-0.648 -0.325,-1.279 -0.618,-1.868c-0.678,-1.363 -1.802,-2.487 -3.165,-3.165c-0.589,-0.293 -1.22,-0.502 -1.868,-0.618c-0.321,-0.057 -0.644,-0.089 -0.969,-0.104c-0.12,-0.004 -0.241,-0.005 -0.362,-0.004c-0.327,0.006 -0.652,0.03 -0.976,0.08c-0.653,0.1 -1.29,0.293 -1.889,0.573c-0.74,0.346 -1.415,0.822 -1.992,1.398l2.948,2.948l-8,0l0,-8l2.932,2.932Z" style="fill:#fff;"/></g></g></svg>