<?xml version="1.0" encoding="UTF-8" standalone="no"?><!DOCTYPE svg PUBLIC "-//W3C//DTD SVG 1.1//EN" "http://www.w3.org/Graphics/SVG/1.1/DTD/svg11.dtd"><svg width="100%" height="100%" viewBox="0 0 32 32" version="1.1" xmlns="http://www.w3.org/2000/svg" xmlns:xlink="http://www.w3.org/1999/xlink" xml:space="preserve" style="fill-rule:evenodd;clip-rule:evenodd;stroke-linejoin:round;stroke-miterlimit:1.41421;">
<metadata>
<rdf:RDF xmlns:cc="http://web.resource.org/cc/"
         xmlns:rdf="http://www.w3.org/1999/02/22-rdf-syntax-ns#"
         xmlns:dc = "http://purl.org/dc/elements/1.1/"
         >

     <rdf:Description rdf:about="">
       <dc:title>Mutant Standard emoji v0.2.5</dc:title>
     </rdf:Description>

    <cc:work rdf:about="">
        <cc:license rdf:resource="http://creativecommons.org/licenses/by-nc-sa/4.0/"/>
        <cc:attributionName>Dzuk</cc:attributionName>
        <cc:attributionURL>http://mutant.tech/</cc:attributionURL>
    </cc:work>

</rdf:RDF>
</metadata>
<rect id="magnifying_glass_right" x="0" y="0" width="32" height="32" style="fill:none;"/><clipPath id="_clip1"><rect x="0" y="0" width="32" height="32"/></clipPath><g clip-path="url(#_clip1)"><g id="outline"><path d="M14.944,22.884c0.172,0.08 0.345,0.156 0.521,0.228c1.436,0.587 2.984,0.888 4.535,0.888c1.551,0 3.099,-0.301 4.535,-0.888c1.385,-0.567 2.66,-1.395 3.743,-2.427c1.045,-0.997 1.909,-2.181 2.537,-3.483c0.536,-1.111 0.897,-2.305 1.069,-3.527c0.176,-1.258 0.152,-2.545 -0.072,-3.796c-0.199,-1.114 -0.557,-2.199 -1.061,-3.212c-0.579,-1.164 -1.348,-2.232 -2.267,-3.151c-0.988,-0.988 -2.147,-1.802 -3.413,-2.393c-1.028,-0.481 -2.125,-0.813 -3.247,-0.985c-0.553,-0.084 -1.11,-0.126 -1.67,-0.137c-0.155,-0.001 -0.154,-0.001 -0.308,0c-0.56,0.011 -1.117,0.053 -1.67,0.137c-1.122,0.172 -2.219,0.504 -3.247,0.985c-1.266,0.591 -2.425,1.405 -3.413,2.393c-0.919,0.919 -1.688,1.987 -2.267,3.151c-0.504,1.013 -0.862,2.098 -1.061,3.212c-0.224,1.251 -0.248,2.538 -0.072,3.796c0.164,1.169 0.502,2.311 1,3.381l-8.944,8.944l5.828,5.828l8.944,-8.944Z"/></g><g id="emoji"><path d="M17,18l-11,11l-3,-3l11,-11l3,3Z" style="fill:#4c4c4c;"/><clipPath id="_clip2"><path d="M17,18l-11,11l-3,-3l11,-11l3,3Z"/></clipPath><g clip-path="url(#_clip2)"><circle cx="20" cy="12" r="12" style="fill:#333;"/></g><circle cx="20" cy="12" r="10" style="fill:#cdcdcd;"/><circle cx="20" cy="12" r="8" style="fill:#4575e7;"/><path d="M16.665,7.608l0.057,0.005l0.056,0.008l0.056,0.011l0.055,0.015l0.055,0.018l0.053,0.02l0.052,0.024l0.05,0.027l0.049,0.03l0.047,0.032l0.045,0.035l0.043,0.037l0.041,0.04l0.039,0.042l0.036,0.045l0.033,0.046l0.031,0.048l0.028,0.05l0.025,0.051l0.022,0.053l0.019,0.054l0.016,0.054l0.013,0.056l0.01,0.056l0.006,0.057l0.004,0.057l-0.001,0.057l-0.003,0.057l-0.007,0.057l-0.009,0.056l-0.013,0.056l-0.017,0.055l-0.019,0.053l-0.022,0.053l-0.026,0.051l-0.028,0.05l-0.031,0.048l-0.033,0.046l-0.037,0.044l-0.038,0.042l-0.075,0.077l-0.064,0.069l-0.062,0.07l-0.06,0.072l-0.059,0.073l-0.056,0.074l-0.055,0.076l-0.052,0.077l-0.051,0.078l-0.049,0.079l-0.047,0.08l-0.044,0.082l-0.043,0.082l-0.041,0.083l-0.038,0.085l-0.037,0.085l-0.034,0.086l-0.032,0.087l-0.031,0.087l-0.028,0.089l-0.026,0.089l-0.023,0.09l-0.022,0.09l-0.019,0.091l-0.017,0.092l-0.015,0.092l-0.013,0.092l-0.01,0.093l-0.008,0.094l-0.006,0.093l-0.004,0.095l-0.001,0.097l0,0.046l0.001,0.049l0.002,0.049l0.002,0.049l0.003,0.049l0.003,0.048l0.004,0.048l0.005,0.048l0.005,0.048l0.006,0.048l0.006,0.047l0.007,0.047l0.007,0.047l0.008,0.047l0.009,0.047l0.009,0.043l0.02,0.095l0.023,0.092l0.024,0.09l0.027,0.089l0.029,0.089l0.03,0.088l0.033,0.086l0.035,0.086l0.037,0.084l0.039,0.084l0.041,0.082l0.043,0.082l0.045,0.08l0.047,0.079l0.048,0.077l0.051,0.077l0.052,0.075l0.054,0.074l0.056,0.073l0.057,0.071l0.059,0.07l0.061,0.068l0.062,0.067l0.064,0.065l0.065,0.064l0.067,0.062l0.068,0.061l0.07,0.059l0.071,0.057l0.073,0.056l0.074,0.054l0.075,0.052l0.077,0.051l0.077,0.048l0.079,0.047l0.08,0.045l0.082,0.043l0.082,0.041l0.084,0.039l0.084,0.037l0.086,0.035l0.086,0.033l0.088,0.03l0.089,0.029l0.089,0.027l0.09,0.024l0.092,0.023l0.095,0.02l0.043,0.009l0.047,0.009l0.047,0.008l0.047,0.007l0.047,0.007l0.047,0.006l0.048,0.006l0.048,0.005l0.048,0.005l0.048,0.004l0.048,0.003l0.049,0.003l0.049,0.002l0.049,0.002l0.049,0.001l0.046,0l0.097,-0.001l0.094,-0.004l0.094,-0.006l0.094,-0.008l0.093,-0.01l0.092,-0.013l0.092,-0.015l0.092,-0.017l0.091,-0.019l0.09,-0.022l0.09,-0.023l0.089,-0.026l0.089,-0.028l0.087,-0.031l0.087,-0.032l0.086,-0.034l0.085,-0.037l0.085,-0.038l0.083,-0.041l0.082,-0.043l0.082,-0.044l0.08,-0.047l0.079,-0.049l0.078,-0.051l0.077,-0.052l0.076,-0.055l0.074,-0.056l0.073,-0.059l0.072,-0.06l0.07,-0.062l0.069,-0.064l0.077,-0.075l0.042,-0.038l0.044,-0.037l0.046,-0.033l0.048,-0.031l0.05,-0.028l0.051,-0.026l0.053,-0.022l0.053,-0.019l0.055,-0.017l0.056,-0.013l0.056,-0.009l0.057,-0.007l0.057,-0.003l0.057,-0.001l0.057,0.004l0.057,0.006l0.056,0.01l0.055,0.012l0.055,0.016l0.054,0.02l0.053,0.022l0.051,0.025l0.05,0.028l0.048,0.031l0.046,0.033l0.045,0.036l0.042,0.039l0.04,0.041l0.037,0.043l0.035,0.045l0.032,0.047l0.03,0.049l0.027,0.05l0.024,0.052l0.02,0.053l0.018,0.055l0.015,0.055l0.011,0.056l0.008,0.056l0.005,0.057l0.002,0.057l-0.001,0.057l-0.005,0.057l-0.008,0.057l-0.011,0.056l-0.015,0.055l-0.017,0.054l-0.021,0.054l-0.024,0.052l-0.026,0.05l-0.03,0.049l-0.032,0.047l-0.035,0.046l-0.037,0.043l-0.04,0.041l-0.094,0.092l-0.105,0.098l-0.108,0.094l-0.109,0.093l-0.112,0.089l-0.113,0.086l-0.116,0.083l-0.117,0.081l-0.119,0.077l-0.121,0.074l-0.123,0.072l-0.124,0.068l-0.126,0.065l-0.127,0.062l-0.128,0.059l-0.13,0.056l-0.132,0.052l-0.132,0.049l-0.134,0.047l-0.135,0.042l-0.136,0.04l-0.137,0.036l-0.138,0.033l-0.139,0.03l-0.14,0.026l-0.141,0.023l-0.141,0.019l-0.142,0.016l-0.142,0.012l-0.143,0.009l-0.144,0.005l-0.141,0.002l-0.078,0l-0.074,-0.002l-0.074,-0.002l-0.075,-0.004l-0.073,-0.004l-0.074,-0.005l-0.073,-0.006l-0.074,-0.007l-0.073,-0.008l-0.072,-0.009l-0.073,-0.009l-0.072,-0.011l-0.072,-0.011l-0.071,-0.013l-0.072,-0.013l-0.074,-0.015l-0.138,-0.03l-0.139,-0.034l-0.139,-0.037l-0.137,-0.041l-0.136,-0.044l-0.134,-0.047l-0.132,-0.051l-0.131,-0.053l-0.13,-0.057l-0.128,-0.06l-0.126,-0.062l-0.124,-0.066l-0.122,-0.068l-0.121,-0.072l-0.118,-0.074l-0.117,-0.077l-0.115,-0.079l-0.112,-0.082l-0.111,-0.085l-0.108,-0.087l-0.106,-0.09l-0.104,-0.093l-0.102,-0.094l-0.1,-0.097l-0.097,-0.1l-0.094,-0.102l-0.093,-0.104l-0.09,-0.106l-0.087,-0.108l-0.085,-0.111l-0.082,-0.112l-0.079,-0.115l-0.077,-0.117l-0.074,-0.118l-0.072,-0.121l-0.068,-0.122l-0.066,-0.124l-0.062,-0.126l-0.06,-0.128l-0.057,-0.13l-0.053,-0.131l-0.051,-0.132l-0.047,-0.134l-0.044,-0.136l-0.041,-0.137l-0.037,-0.139l-0.034,-0.139l-0.03,-0.138l-0.015,-0.074l-0.013,-0.072l-0.013,-0.071l-0.011,-0.072l-0.011,-0.072l-0.009,-0.073l-0.009,-0.072l-0.008,-0.073l-0.007,-0.074l-0.006,-0.073l-0.005,-0.074l-0.004,-0.073l-0.004,-0.075l-0.002,-0.074l-0.002,-0.074l0,-0.078l0.002,-0.141l0.005,-0.144l0.009,-0.143l0.012,-0.142l0.016,-0.142l0.019,-0.141l0.023,-0.141l0.026,-0.14l0.03,-0.139l0.033,-0.138l0.036,-0.137l0.04,-0.136l0.042,-0.135l0.047,-0.134l0.049,-0.132l0.052,-0.132l0.056,-0.13l0.059,-0.128l0.062,-0.127l0.065,-0.126l0.068,-0.124l0.072,-0.123l0.074,-0.121l0.077,-0.119l0.081,-0.117l0.083,-0.116l0.086,-0.113l0.089,-0.112l0.093,-0.109l0.094,-0.108l0.098,-0.105l0.092,-0.094l0.041,-0.04l0.043,-0.037l0.046,-0.035l0.047,-0.032l0.049,-0.03l0.05,-0.026l0.052,-0.024l0.054,-0.021l0.054,-0.017l0.055,-0.015l0.056,-0.011l0.057,-0.008l0.057,-0.005l0.057,-0.001l0.057,0.002Z" style="fill:#1848b7;"/></g></g></svg>