<?xml version="1.0" encoding="UTF-8" standalone="no"?><!DOCTYPE svg PUBLIC "-//W3C//DTD SVG 1.1//EN" "http://www.w3.org/Graphics/SVG/1.1/DTD/svg11.dtd"><svg width="100%" height="100%" viewBox="0 0 32 32" version="1.1" xmlns="http://www.w3.org/2000/svg" xmlns:xlink="http://www.w3.org/1999/xlink" xml:space="preserve" style="fill-rule:evenodd;clip-rule:evenodd;stroke-linejoin:round;stroke-miterlimit:1.41421;">
<metadata>
<rdf:RDF xmlns:cc="http://web.resource.org/cc/"
         xmlns:rdf="http://www.w3.org/1999/02/22-rdf-syntax-ns#"
         xmlns:dc = "http://purl.org/dc/elements/1.1/"
         >

     <rdf:Description rdf:about="">
       <dc:title>Mutant Standard emoji v0.2.4</dc:title>
     </rdf:Description>

    <cc:work rdf:about="">
        <cc:license rdf:resource="http://creativecommons.org/licenses/by-nc-sa/4.0/"/>
        <cc:attributionName>Dzuk</cc:attributionName>
        <cc:attributionURL>http://mutant.tech/</cc:attributionURL>
    </cc:work>

</rdf:RDF>
</metadata>
<rect id="back" x="0" y="0" width="32" height="32" style="fill:none;"/><clipPath id="_clip1"><rect x="0" y="0" width="32" height="32"/></clipPath><g clip-path="url(#_clip1)"><g id="outline"><path d="M32,8c0,-4.418 -3.582,-8 -8,-8c-4.887,0 -11.113,0 -16,0c-4.418,0 -8,3.582 -8,8c0,4.887 0,11.113 0,16c0,4.418 3.582,8 8,8c4.887,0 11.113,0 16,0c4.418,0 8,-3.582 8,-8c0,-4.887 0,-11.113 0,-16Z"/></g><g id="emoji"><path d="M8,2c-1.591,0 -3.117,0.632 -4.243,1.757c-1.125,1.126 -1.757,2.652 -1.757,4.243c0,4.724 0,11.276 0,16c0,1.591 0.632,3.117 1.757,4.243c1.126,1.125 2.652,1.757 4.243,1.757c4.724,0 11.276,0 16,0c1.591,0 3.117,-0.632 4.243,-1.757c1.125,-1.126 1.757,-2.652 1.757,-4.243c0,-4.724 0,-11.276 0,-16c0,-1.591 -0.632,-3.117 -1.757,-4.243c-1.126,-1.125 -2.652,-1.757 -4.243,-1.757c-4.724,0 -11.276,0 -16,0Z" style="fill:#808080;"/><path d="M25,13l-14,0l0,3l-5,-5l5,-5l0,3l14,0l0,4Z" style="fill:#fff;"/><g><path d="M5.065,18.664l2.326,0c0.639,0 1.133,0.151 1.482,0.452c0.331,0.278 0.497,0.636 0.497,1.074c0,0.326 -0.09,0.604 -0.271,0.835c-0.18,0.23 -0.433,0.393 -0.759,0.488c0.326,0.065 0.595,0.211 0.808,0.439c0.213,0.228 0.319,0.519 0.319,0.874c0,0.71 -0.352,1.196 -1.056,1.456c-0.266,0.095 -0.603,0.142 -1.012,0.142l-2.334,0l0,-5.76Zm2.308,4.846c0.337,0 0.581,-0.068 0.732,-0.204c0.151,-0.136 0.226,-0.317 0.226,-0.542c0,-0.225 -0.078,-0.407 -0.235,-0.546c-0.157,-0.139 -0.398,-0.208 -0.723,-0.208l-1.261,0l0,1.5l1.261,0Zm-1.261,-2.414l1.234,0c0.314,0 0.55,-0.068 0.71,-0.205c0.16,-0.136 0.24,-0.321 0.24,-0.554c0,-0.234 -0.079,-0.42 -0.235,-0.559c-0.157,-0.139 -0.392,-0.209 -0.706,-0.209l-1.243,0l0,1.527Z" style="fill:#fff;fill-rule:nonzero;"/><path d="M12.148,18.664l1.314,0l1.89,5.76l-1.109,0l-0.4,-1.243l-2.139,0l-0.408,1.243l-1.11,0l1.962,-5.76Zm-0.178,3.727l1.616,0l-0.799,-2.476l-0.817,2.476Z" style="fill:#fff;fill-rule:nonzero;"/><path d="M18.441,18.548c0.355,0 0.663,0.043 0.923,0.129c0.26,0.086 0.485,0.206 0.674,0.359c0.373,0.302 0.616,0.725 0.728,1.27l-1.118,0.204c-0.095,-0.302 -0.241,-0.546 -0.439,-0.732c-0.199,-0.187 -0.446,-0.28 -0.742,-0.28c-0.402,0 -0.727,0.169 -0.976,0.506c-0.266,0.367 -0.399,0.874 -0.399,1.522c0,0.648 0.118,1.154 0.355,1.518c0.236,0.364 0.559,0.546 0.967,0.546c0.408,0 0.716,-0.099 0.923,-0.298c0.207,-0.198 0.311,-0.454 0.311,-0.767l1.127,0c0,0.645 -0.205,1.143 -0.617,1.495c-0.411,0.352 -0.975,0.528 -1.691,0.528c-0.763,0 -1.369,-0.266 -1.819,-0.799c-0.456,-0.544 -0.684,-1.284 -0.684,-2.218c0,-0.947 0.234,-1.687 0.702,-2.219c0.449,-0.509 1.041,-0.764 1.775,-0.764Z" style="fill:#fff;fill-rule:nonzero;"/><path d="M23.056,18.664l0,2.369l2.272,-2.369l1.438,0l-2.538,2.591l2.707,3.169l-1.358,0l-2.05,-2.441l-0.471,0.479l0,1.962l-1.056,0l0,-5.76l1.056,0Z" style="fill:#fff;fill-rule:nonzero;"/></g></g></g></svg>