<?xml version="1.0" encoding="UTF-8" standalone="no"?><!DOCTYPE svg PUBLIC "-//W3C//DTD SVG 1.1//EN" "http://www.w3.org/Graphics/SVG/1.1/DTD/svg11.dtd"><svg width="100%" height="100%" viewBox="0 0 32 32" version="1.1" xmlns="http://www.w3.org/2000/svg" xmlns:xlink="http://www.w3.org/1999/xlink" xml:space="preserve" style="fill-rule:evenodd;clip-rule:evenodd;stroke-linejoin:round;stroke-miterlimit:1.41421;">
<metadata>
<rdf:RDF xmlns:cc="http://web.resource.org/cc/"
         xmlns:rdf="http://www.w3.org/1999/02/22-rdf-syntax-ns#"
         xmlns:dc = "http://purl.org/dc/elements/1.1/"
         >

     <rdf:Description rdf:about="">
       <dc:title>Mutant Standard emoji v0.2.4</dc:title>
     </rdf:Description>

    <cc:work rdf:about="">
        <cc:license rdf:resource="http://creativecommons.org/licenses/by-nc-sa/4.0/"/>
        <cc:attributionName>Dzuk</cc:attributionName>
        <cc:attributionURL>http://mutant.tech/</cc:attributionURL>
    </cc:work>

</rdf:RDF>
</metadata>
<rect id="soon" x="0" y="0" width="32" height="32" style="fill:none;"/><clipPath id="_clip1"><rect x="0" y="0" width="32" height="32"/></clipPath><g clip-path="url(#_clip1)"><g id="outline"><path d="M32,8c0,-4.418 -3.582,-8 -8,-8c-4.887,0 -11.113,0 -16,0c-4.418,0 -8,3.582 -8,8c0,4.887 0,11.113 0,16c0,4.418 3.582,8 8,8c4.887,0 11.113,0 16,0c4.418,0 8,-3.582 8,-8c0,-4.887 0,-11.113 0,-16Z"/></g><g id="emoji"><path d="M8,2c-1.591,0 -3.117,0.632 -4.243,1.757c-1.125,1.126 -1.757,2.652 -1.757,4.243c0,4.724 0,11.276 0,16c0,1.591 0.632,3.117 1.757,4.243c1.126,1.125 2.652,1.757 4.243,1.757c4.724,0 11.276,0 16,0c1.591,0 3.117,-0.632 4.243,-1.757c1.125,-1.126 1.757,-2.652 1.757,-4.243c0,-4.724 0,-11.276 0,-16c0,-1.591 -0.632,-3.117 -1.757,-4.243c-1.126,-1.125 -2.652,-1.757 -4.243,-1.757c-4.724,0 -11.276,0 -16,0Z" style="fill:#808080;"/><path d="M7,13l14,0l0,3l5,-5l-5,-5l0,3l-14,0l0,4Z" style="fill:#fff;"/><g><path d="M8.879,20.498c-0.083,-0.442 -0.395,-0.663 -0.936,-0.663c-0.265,0 -0.472,0.053 -0.62,0.16c-0.149,0.107 -0.223,0.235 -0.223,0.386c0,0.151 0.048,0.269 0.145,0.355c0.096,0.086 0.245,0.165 0.448,0.238l1.101,0.429c0.374,0.146 0.663,0.329 0.866,0.551c0.203,0.221 0.304,0.498 0.304,0.831c0,0.457 -0.172,0.82 -0.515,1.088c-0.343,0.268 -0.832,0.402 -1.467,0.402c-0.562,0 -1.017,-0.138 -1.366,-0.414c-0.39,-0.301 -0.595,-0.728 -0.616,-1.279l0.913,0c0,0.416 0.216,0.679 0.648,0.788c0.13,0.036 0.301,0.055 0.515,0.055c0.213,0 0.411,-0.054 0.593,-0.16c0.182,-0.107 0.273,-0.25 0.273,-0.43c0,-0.179 -0.05,-0.317 -0.148,-0.413c-0.099,-0.096 -0.261,-0.186 -0.484,-0.269l-1.007,-0.398c-0.39,-0.151 -0.689,-0.328 -0.897,-0.531c-0.208,-0.203 -0.312,-0.484 -0.312,-0.843c0,-0.421 0.164,-0.754 0.491,-0.999c0.333,-0.255 0.784,-0.382 1.354,-0.382c0.57,0 1.009,0.131 1.319,0.394c0.309,0.263 0.488,0.631 0.534,1.104l-0.913,0Z" style="fill:#fff;fill-rule:nonzero;"/><path d="M13.14,19c0.338,0 0.648,0.056 0.929,0.168c0.281,0.112 0.522,0.277 0.725,0.495c0.427,0.458 0.64,1.114 0.64,1.967c0,0.858 -0.213,1.521 -0.64,1.99c-0.405,0.437 -0.959,0.655 -1.662,0.655c-0.697,0 -1.248,-0.224 -1.654,-0.671c-0.427,-0.463 -0.64,-1.121 -0.64,-1.974c0,-0.864 0.213,-1.525 0.64,-1.982c0.401,-0.432 0.955,-0.648 1.662,-0.648Zm0.979,1.299c-0.242,-0.314 -0.568,-0.472 -0.979,-0.472c-0.411,0 -0.739,0.158 -0.983,0.472c-0.245,0.315 -0.367,0.762 -0.367,1.342c0,0.58 0.122,1.025 0.367,1.335c0.244,0.309 0.572,0.464 0.983,0.464c0.411,0 0.737,-0.155 0.979,-0.464c0.242,-0.31 0.363,-0.755 0.363,-1.335c0,-0.58 -0.121,-1.027 -0.363,-1.342Z" style="fill:#fff;fill-rule:nonzero;"/><path d="M18.47,19c0.338,0 0.647,0.056 0.928,0.168c0.281,0.112 0.523,0.277 0.726,0.495c0.427,0.458 0.64,1.114 0.64,1.967c0,0.858 -0.213,1.521 -0.64,1.99c-0.406,0.437 -0.96,0.655 -1.662,0.655c-0.697,0 -1.249,-0.224 -1.654,-0.671c-0.427,-0.463 -0.64,-1.121 -0.64,-1.974c0,-0.864 0.213,-1.525 0.64,-1.982c0.4,-0.432 0.954,-0.648 1.662,-0.648Zm0.979,1.299c-0.242,-0.314 -0.568,-0.472 -0.979,-0.472c-0.411,0 -0.739,0.158 -0.983,0.472c-0.245,0.315 -0.367,0.762 -0.367,1.342c0,0.58 0.122,1.025 0.367,1.335c0.244,0.309 0.572,0.464 0.983,0.464c0.411,0 0.737,-0.155 0.979,-0.464c0.242,-0.31 0.363,-0.755 0.363,-1.335c0,-0.58 -0.121,-1.027 -0.363,-1.342Z" style="fill:#fff;fill-rule:nonzero;"/><path d="M22.847,19.101l2.232,3.59l0,-3.59l0.921,0l0,5.065l-0.936,0l-2.302,-3.715l0,3.715l-0.921,0l0,-5.065l1.006,0Z" style="fill:#fff;fill-rule:nonzero;"/></g></g></g></svg>