<?xml version="1.0" encoding="UTF-8" standalone="no"?><!DOCTYPE svg PUBLIC "-//W3C//DTD SVG 1.1//EN" "http://www.w3.org/Graphics/SVG/1.1/DTD/svg11.dtd"><svg width="100%" height="100%" viewBox="0 0 32 32" version="1.1" xmlns="http://www.w3.org/2000/svg" xmlns:xlink="http://www.w3.org/1999/xlink" xml:space="preserve" style="fill-rule:evenodd;clip-rule:evenodd;stroke-linejoin:round;stroke-miterlimit:1.41421;">
<metadata>
<rdf:RDF xmlns:cc="http://web.resource.org/cc/"
         xmlns:rdf="http://www.w3.org/1999/02/22-rdf-syntax-ns#"
         xmlns:dc = "http://purl.org/dc/elements/1.1/"
         >

     <rdf:Description rdf:about="">
       <dc:title>Mutant Standard emoji v0.2.4</dc:title>
     </rdf:Description>

    <cc:work rdf:about="">
        <cc:license rdf:resource="http://creativecommons.org/licenses/by-nc-sa/4.0/"/>
        <cc:attributionName>Dzuk</cc:attributionName>
        <cc:attributionURL>http://mutant.tech/</cc:attributionURL>
    </cc:work>

</rdf:RDF>
</metadata>
<rect id="end" x="0" y="0" width="32" height="32" style="fill:none;"/><clipPath id="_clip1"><rect x="0" y="0" width="32" height="32"/></clipPath><g clip-path="url(#_clip1)"><g id="outline"><path d="M32,8c0,-4.418 -3.582,-8 -8,-8c-4.887,0 -11.113,0 -16,0c-4.418,0 -8,3.582 -8,8c0,4.887 0,11.113 0,16c0,4.418 3.582,8 8,8c4.887,0 11.113,0 16,0c4.418,0 8,-3.582 8,-8c0,-4.887 0,-11.113 0,-16Z"/></g><g id="emoji"><path d="M8,2c-1.591,0 -3.117,0.632 -4.243,1.757c-1.125,1.126 -1.757,2.652 -1.757,4.243c0,4.724 0,11.276 0,16c0,1.591 0.632,3.117 1.757,4.243c1.126,1.125 2.652,1.757 4.243,1.757c4.724,0 11.276,0 16,0c1.591,0 3.117,-0.632 4.243,-1.757c1.125,-1.126 1.757,-2.652 1.757,-4.243c0,-4.724 0,-11.276 0,-16c0,-1.591 -0.632,-3.117 -1.757,-4.243c-1.126,-1.125 -2.652,-1.757 -4.243,-1.757c-4.724,0 -11.276,0 -16,0Z" style="fill:#808080;"/><path d="M25,13l-14,0l0,3l-5,-5l5,-5l0,3l14,0l0,4Z" style="fill:#fff;"/></g><g><path d="M7,18.668l4.078,0l0,0.995l-2.927,0l0,1.669l2.742,0l0,0.995l-2.742,0l0,1.668l2.927,0l0,1.005l-4.078,0l0,-6.332Z" style="fill:#fff;fill-rule:nonzero;"/><path d="M13.966,18.668l2.79,4.488l0,-4.488l1.151,0l0,6.332l-1.17,0l-2.878,-4.644l0,4.644l-1.152,0l0,-6.332l1.259,0Z" style="fill:#fff;fill-rule:nonzero;"/><path d="M21.771,18.668c0.962,0 1.74,0.286 2.331,0.859c0.599,0.572 0.898,1.343 0.898,2.312c0,0.963 -0.299,1.73 -0.898,2.302c-0.591,0.573 -1.369,0.859 -2.331,0.859l-2.059,0l0,-6.332l2.059,0Zm-0.898,5.288l0.898,0c0.598,0 1.083,-0.202 1.453,-0.605c0.352,-0.39 0.527,-0.894 0.527,-1.512c0,-0.631 -0.175,-1.141 -0.527,-1.532c-0.364,-0.396 -0.848,-0.595 -1.453,-0.595l-0.898,0l0,4.244Z" style="fill:#fff;fill-rule:nonzero;"/></g></g></svg>