<?xml version="1.0" encoding="UTF-8" standalone="no"?><!DOCTYPE svg PUBLIC "-//W3C//DTD SVG 1.1//EN" "http://www.w3.org/Graphics/SVG/1.1/DTD/svg11.dtd"><svg width="100%" height="100%" viewBox="0 0 32 32" version="1.1" xmlns="http://www.w3.org/2000/svg" xmlns:xlink="http://www.w3.org/1999/xlink" xml:space="preserve" style="fill-rule:evenodd;clip-rule:evenodd;stroke-linejoin:round;stroke-miterlimit:1.41421;">
<metadata>
<rdf:RDF xmlns:cc="http://web.resource.org/cc/"
         xmlns:rdf="http://www.w3.org/1999/02/22-rdf-syntax-ns#"
         xmlns:dc = "http://purl.org/dc/elements/1.1/"
         >

     <rdf:Description rdf:about="">
       <dc:title>Mutant Standard emoji v0.2.5</dc:title>
     </rdf:Description>

    <cc:work rdf:about="">
        <cc:license rdf:resource="http://creativecommons.org/licenses/by-nc-sa/4.0/"/>
        <cc:attributionName>Dzuk</cc:attributionName>
        <cc:attributionURL>http://mutant.tech/</cc:attributionURL>
    </cc:work>

</rdf:RDF>
</metadata>
<rect id="top" x="0" y="0" width="32" height="32" style="fill:none;"/><clipPath id="_clip1"><rect x="0" y="0" width="32" height="32"/></clipPath><g clip-path="url(#_clip1)"><g id="outline"><path d="M32,8c0,-4.418 -3.582,-8 -8,-8c-4.887,0 -11.113,0 -16,0c-4.418,0 -8,3.582 -8,8c0,4.887 0,11.113 0,16c0,4.418 3.582,8 8,8c4.887,0 11.113,0 16,0c4.418,0 8,-3.582 8,-8c0,-4.887 0,-11.113 0,-16Z"/></g><g id="emoji"><path d="M8,2c-1.591,0 -3.117,0.632 -4.243,1.757c-1.125,1.126 -1.757,2.652 -1.757,4.243c0,4.724 0,11.276 0,16c0,1.591 0.632,3.117 1.757,4.243c1.126,1.125 2.652,1.757 4.243,1.757c4.724,0 11.276,0 16,0c1.591,0 3.117,-0.632 4.243,-1.757c1.125,-1.126 1.757,-2.652 1.757,-4.243c0,-4.724 0,-11.276 0,-16c0,-1.591 -0.632,-3.117 -1.757,-4.243c-1.126,-1.125 -2.652,-1.757 -4.243,-1.757c-4.724,0 -11.276,0 -16,0Z" style="fill:#808080;"/><path d="M14,15l0,-5l-3,0l5,-5l5,5l-3,0l0,5l-4,0Z" style="fill:#fff;"/><g><path d="M7,19.133l5.315,0l0,1.042l-2.054,0l0,5.592l-1.206,0l0,-5.592l-2.055,0l0,-1.042Z" style="fill:#fff;fill-rule:nonzero;"/><path d="M15.872,19c0.443,0 0.849,0.073 1.217,0.22c0.368,0.146 0.684,0.363 0.95,0.649c0.559,0.599 0.838,1.458 0.838,2.576c0,1.124 -0.279,1.993 -0.838,2.606c-0.531,0.573 -1.257,0.859 -2.177,0.859c-0.913,0 -1.635,-0.293 -2.167,-0.879c-0.559,-0.607 -0.838,-1.469 -0.838,-2.586c0,-1.132 0.279,-1.997 0.838,-2.597c0.525,-0.565 1.25,-0.848 2.177,-0.848Zm1.283,1.702c-0.317,-0.412 -0.744,-0.619 -1.283,-0.619c-0.538,0 -0.967,0.207 -1.288,0.619c-0.32,0.412 -0.48,0.998 -0.48,1.758c0,0.76 0.16,1.342 0.48,1.748c0.321,0.405 0.75,0.608 1.288,0.608c0.539,0 0.966,-0.203 1.283,-0.608c0.317,-0.406 0.475,-0.988 0.475,-1.748c0,-0.76 -0.158,-1.346 -0.475,-1.758Z" style="fill:#fff;fill-rule:nonzero;"/><path d="M24.371,19.68c0.419,0.364 0.629,0.886 0.629,1.564c0,0.678 -0.21,1.199 -0.629,1.563c-0.419,0.365 -1.003,0.547 -1.753,0.547l-1.124,0l0,2.413l-1.216,0l0,-6.634l2.34,0c0.75,0 1.334,0.182 1.753,0.547Zm-1.753,2.622c0.375,0 0.658,-0.099 0.849,-0.297c0.191,-0.198 0.286,-0.451 0.286,-0.761c0,-0.31 -0.095,-0.566 -0.286,-0.767c-0.191,-0.201 -0.474,-0.302 -0.849,-0.302l-1.124,0l0,2.127l1.124,0Z" style="fill:#fff;fill-rule:nonzero;"/></g></g></g></svg>