<?xml version="1.0" encoding="UTF-8" standalone="no"?><!DOCTYPE svg PUBLIC "-//W3C//DTD SVG 1.1//EN" "http://www.w3.org/Graphics/SVG/1.1/DTD/svg11.dtd"><svg width="100%" height="100%" viewBox="0 0 32 32" version="1.1" xmlns="http://www.w3.org/2000/svg" xmlns:xlink="http://www.w3.org/1999/xlink" xml:space="preserve" style="fill-rule:evenodd;clip-rule:evenodd;stroke-linejoin:round;stroke-miterlimit:1.41421;">
<metadata>
<rdf:RDF xmlns:cc="http://web.resource.org/cc/"
         xmlns:rdf="http://www.w3.org/1999/02/22-rdf-syntax-ns#"
         xmlns:dc = "http://purl.org/dc/elements/1.1/"
         >

     <rdf:Description rdf:about="">
       <dc:title>Mutant Standard emoji v0.2.5</dc:title>
     </rdf:Description>

    <cc:work rdf:about="">
        <cc:license rdf:resource="http://creativecommons.org/licenses/by-nc-sa/4.0/"/>
        <cc:attributionName>Dzuk</cc:attributionName>
        <cc:attributionURL>http://mutant.tech/</cc:attributionURL>
    </cc:work>

</rdf:RDF>
</metadata>
<rect id="on_arrow" x="0" y="0" width="32" height="32" style="fill:none;"/><clipPath id="_clip1"><rect x="0" y="0" width="32" height="32"/></clipPath><g clip-path="url(#_clip1)"><g id="outline"><path d="M32,8c0,-4.418 -3.582,-8 -8,-8c-4.887,0 -11.113,0 -16,0c-4.418,0 -8,3.582 -8,8c0,4.887 0,11.113 0,16c0,4.418 3.582,8 8,8c4.887,0 11.113,0 16,0c4.418,0 8,-3.582 8,-8c0,-4.887 0,-11.113 0,-16Z"/></g><g id="emoji"><path d="M8,2c-1.591,0 -3.117,0.632 -4.243,1.757c-1.125,1.126 -1.757,2.652 -1.757,4.243c0,4.724 0,11.276 0,16c0,1.591 0.632,3.117 1.757,4.243c1.126,1.125 2.652,1.757 4.243,1.757c4.724,0 11.276,0 16,0c1.591,0 3.117,-0.632 4.243,-1.757c1.125,-1.126 1.757,-2.652 1.757,-4.243c0,-4.724 0,-11.276 0,-16c0,-1.591 -0.632,-3.117 -1.757,-4.243c-1.126,-1.125 -2.652,-1.757 -4.243,-1.757c-4.724,0 -11.276,0 -16,0Z" style="fill:#808080;"/><path d="M21,16l0,-3l-10,0l0,3l-5,-5l5,-5l0,3l10,0l0,-3l5,5l-5,5Z" style="fill:#fff;"/></g><g><path d="M10.974,18.685c0.437,0 0.837,0.072 1.2,0.216c0.363,0.145 0.675,0.358 0.938,0.641c0.551,0.591 0.826,1.438 0.826,2.54c0,1.109 -0.275,1.966 -0.826,2.571c-0.525,0.565 -1.241,0.847 -2.148,0.847c-0.901,0 -1.613,-0.289 -2.137,-0.867c-0.551,-0.598 -0.827,-1.448 -0.827,-2.551c0,-1.116 0.276,-1.969 0.827,-2.561c0.517,-0.557 1.233,-0.836 2.147,-0.836Zm1.265,1.678c-0.312,-0.406 -0.734,-0.61 -1.265,-0.61c-0.531,0 -0.954,0.204 -1.27,0.61c-0.316,0.407 -0.474,0.985 -0.474,1.734c0,0.75 0.158,1.324 0.474,1.724c0.316,0.4 0.739,0.6 1.27,0.6c0.531,0 0.953,-0.2 1.265,-0.6c0.313,-0.4 0.469,-0.974 0.469,-1.724c0,-0.749 -0.156,-1.327 -0.469,-1.734Z" style="fill:#fff;fill-rule:nonzero;"/><path d="M16.63,18.816l2.884,4.637l0,-4.637l1.189,0l0,6.543l-1.21,0l-2.974,-4.799l0,4.799l-1.189,0l0,-6.543l1.3,0Z" style="fill:#fff;fill-rule:nonzero;"/><path d="M22.508,18.664l1.29,0l-0.141,4.487l-1.018,0l-0.131,-4.487Zm0.05,6.564c-0.154,-0.148 -0.232,-0.336 -0.232,-0.565c0,-0.228 0.078,-0.42 0.232,-0.574c0.155,-0.155 0.353,-0.232 0.595,-0.232c0.242,0 0.444,0.077 0.605,0.232c0.161,0.154 0.242,0.346 0.242,0.574c0,0.229 -0.081,0.417 -0.242,0.565c-0.161,0.148 -0.363,0.222 -0.605,0.222c-0.242,0 -0.44,-0.074 -0.595,-0.222Z" style="fill:#fff;fill-rule:nonzero;"/></g></g></svg>