<?xml version="1.0" encoding="UTF-8" standalone="no"?><!DOCTYPE svg PUBLIC "-//W3C//DTD SVG 1.1//EN" "http://www.w3.org/Graphics/SVG/1.1/DTD/svg11.dtd"><svg width="100%" height="100%" viewBox="0 0 32 32" version="1.1" xmlns="http://www.w3.org/2000/svg" xmlns:xlink="http://www.w3.org/1999/xlink" xml:space="preserve" style="fill-rule:evenodd;clip-rule:evenodd;stroke-linejoin:round;stroke-miterlimit:1.41421;">
<metadata>
<rdf:RDF xmlns:cc="http://web.resource.org/cc/"
         xmlns:rdf="http://www.w3.org/1999/02/22-rdf-syntax-ns#"
         xmlns:dc = "http://purl.org/dc/elements/1.1/"
         >

     <rdf:Description rdf:about="">
       <dc:title>Mutant Standard emoji v0.2.4</dc:title>
     </rdf:Description>

    <cc:work rdf:about="">
        <cc:license rdf:resource="http://creativecommons.org/licenses/by-nc-sa/4.0/"/>
        <cc:attributionName>Dzuk</cc:attributionName>
        <cc:attributionURL>http://mutant.tech/</cc:attributionURL>
    </cc:work>

</rdf:RDF>
</metadata>
<rect id="abc" x="0" y="0" width="32" height="32" style="fill:none;"/><clipPath id="_clip1"><rect x="0" y="0" width="32" height="32"/></clipPath><g clip-path="url(#_clip1)"><g id="outline"><path d="M32,8c0,-4.418 -3.582,-8 -8,-8c-4.887,0 -11.113,0 -16,0c-4.418,0 -8,3.582 -8,8c0,4.887 0,11.113 0,16c0,4.418 3.582,8 8,8c4.887,0 11.113,0 16,0c4.418,0 8,-3.582 8,-8c0,-4.887 0,-11.113 0,-16Z"/></g><g id="emoji"><path d="M30,8c0,-1.591 -0.632,-3.117 -1.757,-4.243c-1.126,-1.125 -2.652,-1.757 -4.243,-1.757c-4.724,0 -11.276,0 -16,0c-1.591,0 -3.117,0.632 -4.243,1.757c-1.125,1.126 -1.757,2.652 -1.757,4.243c0,4.724 0,11.276 0,16c0,1.591 0.632,3.117 1.757,4.243c1.126,1.125 2.652,1.757 4.243,1.757c4.724,0 11.276,0 16,0c1.591,0 3.117,-0.632 4.243,-1.757c1.125,-1.126 1.757,-2.652 1.757,-4.243c0,-4.724 0,-11.276 0,-16Z" style="fill:#808080;"/><g><path d="M7.638,16.048c0.527,0 1.135,0.086 1.825,0.259l0,-0.654c0,-0.463 -0.093,-0.806 -0.279,-1.028c-0.186,-0.222 -0.491,-0.334 -0.913,-0.334c-0.422,0 -0.747,0.084 -0.973,0.252c-0.227,0.168 -0.341,0.407 -0.341,0.715l-1.757,0c0,-0.753 0.266,-1.298 0.797,-1.634c0.531,-0.336 1.273,-0.504 2.227,-0.504c1.361,0 2.242,0.477 2.642,1.43c0.136,0.327 0.204,0.713 0.204,1.158l0,4.208l-1.403,0l-0.122,-0.885c-0.427,0.717 -1.081,1.076 -1.961,1.076c-0.854,0 -1.517,-0.209 -1.989,-0.627c-0.436,-0.399 -0.654,-0.906 -0.654,-1.518c0,-0.613 0.241,-1.085 0.722,-1.417c0.481,-0.331 1.14,-0.497 1.975,-0.497Zm1.825,1.28c-0.536,-0.145 -1.035,-0.218 -1.498,-0.218c-0.872,0 -1.308,0.291 -1.308,0.872c0,0.245 0.1,0.456 0.3,0.633c0.2,0.177 0.52,0.266 0.96,0.266c0.441,0 0.804,-0.148 1.09,-0.443c0.286,-0.295 0.438,-0.665 0.456,-1.11Z" style="fill:#fff;fill-rule:nonzero;"/><path d="M19.813,16.579c0,1.035 -0.295,1.889 -0.885,2.561c-0.572,0.644 -1.285,0.967 -2.138,0.967c-0.409,0 -0.783,-0.109 -1.124,-0.327c-0.34,-0.218 -0.61,-0.554 -0.81,-1.008l-0.395,1.144l-1.049,0l0,-9.343l1.607,0l0,3.555c0.418,-0.672 1.042,-1.008 1.873,-1.008c0.831,0 1.525,0.318 2.084,0.953c0.558,0.636 0.837,1.471 0.837,2.506Zm-4.794,-0.381l0,0.872c0.019,0.463 0.187,0.844 0.504,1.144c0.3,0.29 0.665,0.435 1.097,0.435c0.431,0 0.801,-0.188 1.11,-0.565c0.308,-0.377 0.463,-0.874 0.463,-1.491c0,-0.617 -0.152,-1.11 -0.457,-1.478c-0.304,-0.367 -0.683,-0.551 -1.137,-0.551c-0.454,0 -0.831,0.15 -1.13,0.449c-0.3,0.3 -0.45,0.695 -0.45,1.185Z" style="fill:#fff;fill-rule:nonzero;"/><path d="M24.294,13.12c0.418,0 0.792,0.07 1.123,0.211c0.332,0.141 0.611,0.325 0.838,0.552c0.454,0.436 0.722,0.985 0.804,1.648l-1.621,0.041c-0.073,-0.291 -0.207,-0.532 -0.402,-0.722c-0.195,-0.191 -0.42,-0.286 -0.674,-0.286c-0.254,0 -0.472,0.038 -0.654,0.115c-0.181,0.078 -0.34,0.198 -0.476,0.361c-0.309,0.382 -0.463,0.908 -0.463,1.58c0,0.672 0.145,1.178 0.435,1.519c0.291,0.34 0.643,0.51 1.056,0.51c0.413,0 0.713,-0.097 0.899,-0.292c0.186,-0.196 0.279,-0.461 0.279,-0.797l1.621,0c0,0.726 -0.241,1.33 -0.722,1.811c-0.491,0.49 -1.176,0.736 -2.057,0.736c-0.871,0 -1.602,-0.318 -2.192,-0.954c-0.627,-0.681 -0.94,-1.53 -0.94,-2.546c0,-1.072 0.313,-1.93 0.94,-2.574c0.59,-0.609 1.325,-0.913 2.206,-0.913Z" style="fill:#fff;fill-rule:nonzero;"/></g></g></g></svg>