<?xml version="1.0" encoding="UTF-8" standalone="no"?><!DOCTYPE svg PUBLIC "-//W3C//DTD SVG 1.1//EN" "http://www.w3.org/Graphics/SVG/1.1/DTD/svg11.dtd"><svg width="100%" height="100%" viewBox="0 0 32 32" version="1.1" xmlns="http://www.w3.org/2000/svg" xmlns:xlink="http://www.w3.org/1999/xlink" xml:space="preserve" style="fill-rule:evenodd;clip-rule:evenodd;stroke-linejoin:round;stroke-miterlimit:1.41421;">
<metadata>
<rdf:RDF xmlns:cc="http://web.resource.org/cc/"
         xmlns:rdf="http://www.w3.org/1999/02/22-rdf-syntax-ns#"
         xmlns:dc = "http://purl.org/dc/elements/1.1/"
         >

     <rdf:Description rdf:about="">
       <dc:title>Mutant Standard emoji v0.2.5</dc:title>
     </rdf:Description>

    <cc:work rdf:about="">
        <cc:license rdf:resource="http://creativecommons.org/licenses/by-nc-sa/4.0/"/>
        <cc:attributionName>Dzuk</cc:attributionName>
        <cc:attributionURL>http://mutant.tech/</cc:attributionURL>
    </cc:work>

</rdf:RDF>
</metadata>
<rect id="numbers" x="0" y="0" width="32" height="32" style="fill:none;"/><clipPath id="_clip1"><rect x="0" y="0" width="32" height="32"/></clipPath><g clip-path="url(#_clip1)"><g id="outline"><path d="M32,8c0,-4.418 -3.582,-8 -8,-8c-4.887,0 -11.113,0 -16,0c-4.418,0 -8,3.582 -8,8c0,4.887 0,11.113 0,16c0,4.418 3.582,8 8,8c4.887,0 11.113,0 16,0c4.418,0 8,-3.582 8,-8c0,-4.887 0,-11.113 0,-16Z"/></g><g id="emoji"><path d="M30,8c0,-1.591 -0.632,-3.117 -1.757,-4.243c-1.126,-1.125 -2.652,-1.757 -4.243,-1.757c-4.724,0 -11.276,0 -16,0c-1.591,0 -3.117,0.632 -4.243,1.757c-1.125,1.126 -1.757,2.652 -1.757,4.243c0,4.724 0,11.276 0,16c0,1.591 0.632,3.117 1.757,4.243c1.126,1.125 2.652,1.757 4.243,1.757c4.724,0 11.276,0 16,0c1.591,0 3.117,-0.632 4.243,-1.757c1.125,-1.126 1.757,-2.652 1.757,-4.243c0,-4.724 0,-11.276 0,-16Z" style="fill:#808080;"/><path d="M9.092,6.012c0.694,-0.102 1.305,-0.347 1.833,-0.736l1.236,0l0,9.071l-1.639,0l0,-7.113c-0.472,0.232 -0.949,0.348 -1.43,0.348l0,-1.57Z" style="fill:#fff;fill-rule:nonzero;"/><path d="M19.034,12.909l5.153,0l0,1.5l-6.793,0l0,-1.542c0,-1.083 0.385,-1.87 1.153,-2.361c0.26,-0.167 0.561,-0.315 0.903,-0.445l1.848,-0.708c0.407,-0.158 0.706,-0.354 0.896,-0.591c0.19,-0.236 0.284,-0.53 0.284,-0.882c0,-0.351 -0.125,-0.646 -0.375,-0.882c-0.25,-0.236 -0.606,-0.354 -1.069,-0.354c-0.463,0 -0.845,0.111 -1.146,0.334c-0.301,0.222 -0.475,0.551 -0.521,0.986l-1.82,0c0.019,-0.88 0.357,-1.57 1.014,-2.07c0.602,-0.454 1.412,-0.681 2.431,-0.681c0.935,0 1.709,0.25 2.32,0.75c0.62,0.519 0.931,1.153 0.931,1.904c0,0.75 -0.188,1.349 -0.563,1.798c-0.375,0.449 -0.956,0.827 -1.743,1.132l-1.876,0.723c-0.361,0.139 -0.622,0.294 -0.784,0.465c-0.162,0.171 -0.243,0.391 -0.243,0.66l0,0.264Z" style="fill:#fff;fill-rule:nonzero;"/><path d="M10.98,18.825c-1.009,0 -1.597,0.384 -1.764,1.153l-1.722,0c0.092,-0.889 0.453,-1.561 1.083,-2.014c0.593,-0.417 1.371,-0.625 2.334,-0.625c0.991,0 1.796,0.231 2.417,0.694c0.648,0.472 0.972,1.079 0.972,1.82c0,0.463 -0.125,0.863 -0.375,1.201c-0.25,0.338 -0.621,0.591 -1.111,0.757c0.546,0.186 0.984,0.461 1.312,0.827c0.329,0.366 0.493,0.785 0.493,1.257c0,0.472 -0.085,0.875 -0.257,1.209c-0.171,0.333 -0.414,0.62 -0.729,0.861c-0.667,0.509 -1.532,0.764 -2.597,0.764c-1.019,0 -1.876,-0.26 -2.57,-0.778c-0.778,-0.565 -1.167,-1.315 -1.167,-2.25l1.75,0c0.028,0.472 0.22,0.842 0.577,1.111c0.356,0.268 0.822,0.403 1.396,0.403c0.574,0 1.021,-0.128 1.34,-0.382c0.32,-0.255 0.479,-0.579 0.479,-0.973c0,-0.393 -0.145,-0.701 -0.437,-0.923c-0.292,-0.223 -0.753,-0.334 -1.382,-0.334l-1.195,0l0,-1.292l1.028,0c0.528,0 0.94,-0.113 1.236,-0.34c0.297,-0.227 0.445,-0.525 0.445,-0.896c0,-0.37 -0.127,-0.671 -0.382,-0.903c-0.255,-0.231 -0.646,-0.347 -1.174,-0.347Z" style="fill:#fff;fill-rule:nonzero;"/><path d="M23.131,17.478l0,5.709l1.57,0l0,1.403l-1.57,0l0,2l-1.625,0l0,-2l-4.57,0l0,-1.237l4.612,-5.875l1.583,0Zm-4.25,5.875l2.708,0l0,-3.445l-2.708,3.445Z" style="fill:#fff;fill-rule:nonzero;"/></g></g></svg>