<?xml version="1.0" encoding="UTF-8" standalone="no"?><!DOCTYPE svg PUBLIC "-//W3C//DTD SVG 1.1//EN" "http://www.w3.org/Graphics/SVG/1.1/DTD/svg11.dtd"><svg width="100%" height="100%" viewBox="0 0 32 32" version="1.1" xmlns="http://www.w3.org/2000/svg" xmlns:xlink="http://www.w3.org/1999/xlink" xml:space="preserve" style="fill-rule:evenodd;clip-rule:evenodd;stroke-linejoin:round;stroke-miterlimit:1.41421;">
<metadata>
<rdf:RDF xmlns:cc="http://web.resource.org/cc/"
         xmlns:rdf="http://www.w3.org/1999/02/22-rdf-syntax-ns#"
         xmlns:dc = "http://purl.org/dc/elements/1.1/"
         >

     <rdf:Description rdf:about="">
       <dc:title>Mutant Standard emoji v0.2.4</dc:title>
     </rdf:Description>

    <cc:work rdf:about="">
        <cc:license rdf:resource="http://creativecommons.org/licenses/by-nc-sa/4.0/"/>
        <cc:attributionName>Dzuk</cc:attributionName>
        <cc:attributionURL>http://mutant.tech/</cc:attributionURL>
    </cc:work>

</rdf:RDF>
</metadata>
<rect id="uppercase" x="0" y="0" width="32" height="32" style="fill:none;"/><clipPath id="_clip1"><rect x="0" y="0" width="32" height="32"/></clipPath><g clip-path="url(#_clip1)"><g id="outline"><path d="M32,8c0,-4.418 -3.582,-8 -8,-8c-4.887,0 -11.113,0 -16,0c-4.418,0 -8,3.582 -8,8c0,4.887 0,11.113 0,16c0,4.418 3.582,8 8,8c4.887,0 11.113,0 16,0c4.418,0 8,-3.582 8,-8c0,-4.887 0,-11.113 0,-16Z"/></g><g id="emoji"><path d="M30,8c0,-1.591 -0.632,-3.117 -1.757,-4.243c-1.126,-1.125 -2.652,-1.757 -4.243,-1.757c-4.724,0 -11.276,0 -16,0c-1.591,0 -3.117,0.632 -4.243,1.757c-1.125,1.126 -1.757,2.652 -1.757,4.243c0,4.724 0,11.276 0,16c0,1.591 0.632,3.117 1.757,4.243c1.126,1.125 2.652,1.757 4.243,1.757c4.724,0 11.276,0 16,0c1.591,0 3.117,-0.632 4.243,-1.757c1.125,-1.126 1.757,-2.652 1.757,-4.243c0,-4.724 0,-11.276 0,-16Z" style="fill:#808080;"/><g><path d="M9.653,4.717l2.176,0l3.132,9.544l-1.838,0l-0.662,-2.059l-3.544,0l-0.676,2.059l-1.838,0l3.25,-9.544Zm-0.294,6.176l2.676,0l-1.324,-4.102l-1.352,4.102Z" style="fill:#fff;fill-rule:nonzero;"/><path d="M17.642,4.717l3.853,0c1.058,0 1.877,0.25 2.455,0.75c0.549,0.461 0.824,1.054 0.824,1.779c0,0.54 -0.15,1 -0.449,1.383c-0.299,0.382 -0.718,0.652 -1.257,0.808c0.539,0.108 0.985,0.351 1.338,0.728c0.353,0.378 0.529,0.861 0.529,1.449c0,1.176 -0.583,1.98 -1.749,2.411c-0.442,0.157 -1,0.236 -1.677,0.236l-3.867,0l0,-9.544Zm3.823,8.029c0.559,0 0.963,-0.113 1.213,-0.338c0.25,-0.226 0.375,-0.525 0.375,-0.897c0,-0.373 -0.13,-0.674 -0.389,-0.905c-0.26,-0.23 -0.66,-0.345 -1.199,-0.345l-2.088,0l0,2.485l2.088,0Zm-2.088,-4l2.044,0c0.52,0 0.912,-0.112 1.176,-0.338c0.265,-0.225 0.397,-0.532 0.397,-0.919c0,-0.387 -0.129,-0.696 -0.389,-0.926c-0.26,-0.231 -0.65,-0.346 -1.169,-0.346l-2.059,0l0,2.529Z" style="fill:#fff;fill-rule:nonzero;"/><path d="M10.873,17.342c0.588,0 1.098,0.071 1.529,0.214c0.432,0.142 0.804,0.34 1.118,0.595c0.618,0.5 1.02,1.201 1.206,2.103l-1.853,0.338c-0.157,-0.5 -0.399,-0.904 -0.728,-1.213c-0.328,-0.309 -0.738,-0.463 -1.228,-0.463c-0.666,0 -1.206,0.279 -1.617,0.838c-0.441,0.608 -0.662,1.448 -0.662,2.522c0,1.073 0.196,1.911 0.588,2.514c0.392,0.603 0.927,0.905 1.603,0.905c0.676,0 1.186,-0.164 1.529,-0.493c0.343,-0.328 0.515,-0.752 0.515,-1.272l1.868,0c0,1.069 -0.341,1.895 -1.022,2.478c-0.682,0.583 -1.616,0.875 -2.802,0.875c-1.264,0 -2.269,-0.441 -3.014,-1.324c-0.755,-0.901 -1.133,-2.127 -1.133,-3.676c0,-1.568 0.388,-2.794 1.162,-3.676c0.745,-0.843 1.726,-1.265 2.941,-1.265Z" style="fill:#fff;fill-rule:nonzero;"/><path d="M20.73,17.541c1.451,0 2.622,0.431 3.514,1.294c0.902,0.863 1.353,2.024 1.353,3.485c0,1.451 -0.451,2.608 -1.353,3.47c-0.892,0.863 -2.063,1.294 -3.514,1.294l-3.103,0l0,-9.543l3.103,0Zm-1.353,7.97l1.353,0c0.902,0 1.632,-0.304 2.191,-0.912c0.529,-0.588 0.794,-1.348 0.794,-2.279c0,-0.951 -0.265,-1.721 -0.794,-2.309c-0.549,-0.598 -1.279,-0.897 -2.191,-0.897l-1.353,0l0,6.397Z" style="fill:#fff;fill-rule:nonzero;"/></g></g></g></svg>