<?xml version="1.0" encoding="UTF-8" standalone="no"?><!DOCTYPE svg PUBLIC "-//W3C//DTD SVG 1.1//EN" "http://www.w3.org/Graphics/SVG/1.1/DTD/svg11.dtd"><svg width="100%" height="100%" viewBox="0 0 32 32" version="1.1" xmlns="http://www.w3.org/2000/svg" xmlns:xlink="http://www.w3.org/1999/xlink" xml:space="preserve" style="fill-rule:evenodd;clip-rule:evenodd;stroke-linejoin:round;stroke-miterlimit:1.41421;">
<metadata>
<rdf:RDF xmlns:cc="http://web.resource.org/cc/"
         xmlns:rdf="http://www.w3.org/1999/02/22-rdf-syntax-ns#"
         xmlns:dc = "http://purl.org/dc/elements/1.1/"
         >

     <rdf:Description rdf:about="">
       <dc:title>Mutant Standard emoji v0.2.5</dc:title>
     </rdf:Description>

    <cc:work rdf:about="">
        <cc:license rdf:resource="http://creativecommons.org/licenses/by-nc-sa/4.0/"/>
        <cc:attributionName>Dzuk</cc:attributionName>
        <cc:attributionURL>http://mutant.tech/</cc:attributionURL>
    </cc:work>

</rdf:RDF>
</metadata>
<rect id="lowercase" x="0" y="0" width="32" height="32" style="fill:none;"/><clipPath id="_clip1"><rect x="0" y="0" width="32" height="32"/></clipPath><g clip-path="url(#_clip1)"><g id="outline"><path d="M32,8c0,-4.418 -3.582,-8 -8,-8c-4.887,0 -11.113,0 -16,0c-4.418,0 -8,3.582 -8,8c0,4.887 0,11.113 0,16c0,4.418 3.582,8 8,8c4.887,0 11.113,0 16,0c4.418,0 8,-3.582 8,-8c0,-4.887 0,-11.113 0,-16Z"/></g><g id="emoji"><path d="M30,8c0,-1.591 -0.632,-3.117 -1.757,-4.243c-1.126,-1.125 -2.652,-1.757 -4.243,-1.757c-4.724,0 -11.276,0 -16,0c-1.591,0 -3.117,0.632 -4.243,1.757c-1.125,1.126 -1.757,2.652 -1.757,4.243c0,4.724 0,11.276 0,16c0,1.591 0.632,3.117 1.757,4.243c1.126,1.125 2.652,1.757 4.243,1.757c4.724,0 11.276,0 16,0c1.591,0 3.117,-0.632 4.243,-1.757c1.125,-1.126 1.757,-2.652 1.757,-4.243c0,-4.724 0,-11.276 0,-16Z" style="fill:#808080;"/><g><path d="M10.745,10c0.569,0 1.226,0.093 1.971,0.279l0,-0.706c0,-0.5 -0.101,-0.87 -0.302,-1.11c-0.201,-0.24 -0.529,-0.36 -0.985,-0.36c-0.456,0 -0.806,0.091 -1.051,0.272c-0.245,0.181 -0.368,0.439 -0.368,0.772l-1.897,0c0,-0.814 0.287,-1.402 0.86,-1.764c0.574,-0.363 1.375,-0.545 2.404,-0.545c1.471,0 2.422,0.515 2.853,1.544c0.147,0.353 0.221,0.77 0.221,1.25l0,4.544l-1.515,0l-0.132,-0.956c-0.461,0.774 -1.167,1.161 -2.118,1.161c-0.921,0 -1.637,-0.225 -2.146,-0.676c-0.471,-0.431 -0.706,-0.978 -0.706,-1.639c0,-0.662 0.26,-1.172 0.779,-1.53c0.52,-0.357 1.23,-0.536 2.132,-0.536Zm1.971,1.382c-0.579,-0.157 -1.118,-0.235 -1.618,-0.235c-0.941,0 -1.411,0.313 -1.411,0.941c0,0.264 0.107,0.492 0.323,0.683c0.216,0.192 0.561,0.287 1.037,0.287c0.475,0 0.867,-0.159 1.176,-0.478c0.309,-0.318 0.473,-0.718 0.493,-1.198Z" style="fill:#fff;fill-rule:nonzero;"/><path d="M24.166,10.573c0,1.118 -0.318,2.039 -0.956,2.764c-0.617,0.696 -1.387,1.044 -2.308,1.044c-0.441,0 -0.846,-0.117 -1.213,-0.352c-0.368,-0.236 -0.659,-0.598 -0.875,-1.088l-0.426,1.235l-1.133,0l0,-10.087l1.735,0l0,3.838c0.451,-0.726 1.125,-1.089 2.022,-1.089c0.897,0 1.647,0.344 2.25,1.03c0.603,0.686 0.904,1.588 0.904,2.705Zm-5.176,-0.411l0,0.941c0.02,0.499 0.201,0.911 0.544,1.235c0.324,0.313 0.718,0.47 1.184,0.47c0.466,0 0.865,-0.203 1.198,-0.61c0.334,-0.407 0.5,-0.944 0.5,-1.61c0,-0.667 -0.164,-1.198 -0.492,-1.595c-0.329,-0.397 -0.738,-0.596 -1.228,-0.596c-0.49,0 -0.897,0.162 -1.22,0.485c-0.324,0.324 -0.486,0.75 -0.486,1.28Z" style="fill:#fff;fill-rule:nonzero;"/><path d="M11.51,19.225c0.451,0 0.855,0.076 1.213,0.228c0.358,0.152 0.659,0.351 0.904,0.596c0.49,0.47 0.779,1.063 0.868,1.779l-1.75,0.044c-0.078,-0.314 -0.223,-0.573 -0.434,-0.779c-0.211,-0.206 -0.453,-0.309 -0.728,-0.309c-0.274,0 -0.509,0.042 -0.705,0.125c-0.196,0.083 -0.368,0.213 -0.515,0.39c-0.333,0.411 -0.5,0.98 -0.5,1.705c0,0.726 0.157,1.272 0.471,1.64c0.313,0.367 0.693,0.551 1.139,0.551c0.446,0 0.77,-0.105 0.971,-0.316c0.2,-0.211 0.301,-0.498 0.301,-0.86l1.75,0c0,0.784 -0.26,1.436 -0.78,1.955c-0.529,0.53 -1.269,0.794 -2.22,0.794c-0.941,0 -1.73,-0.343 -2.367,-1.029c-0.677,-0.735 -1.015,-1.652 -1.015,-2.749c0,-1.157 0.338,-2.084 1.015,-2.779c0.637,-0.657 1.431,-0.986 2.382,-0.986Z" style="fill:#fff;fill-rule:nonzero;"/><path d="M21.916,25.46c-0.441,0.872 -1.117,1.308 -2.029,1.308c-0.911,0 -1.676,-0.348 -2.293,-1.044c-0.638,-0.725 -0.956,-1.646 -0.956,-2.764c0,-1.117 0.304,-2.024 0.911,-2.72c0.598,-0.676 1.343,-1.015 2.235,-1.015c0.892,0 1.564,0.358 2.015,1.074l0,-3.823l1.75,0l0,10.086l-1.427,0l-0.206,-1.102Zm-3.036,-4.081c-0.328,0.397 -0.492,0.929 -0.492,1.596c0,0.666 0.166,1.203 0.499,1.61c0.334,0.407 0.755,0.61 1.265,0.61c0.421,0 0.799,-0.167 1.132,-0.5c0.343,-0.343 0.515,-0.774 0.515,-1.294l0,-0.926c-0.02,-0.51 -0.191,-0.926 -0.515,-1.25c-0.294,-0.294 -0.686,-0.441 -1.176,-0.441c-0.49,0 -0.899,0.198 -1.228,0.595Z" style="fill:#fff;fill-rule:nonzero;"/></g></g></g></svg>