<svg clip-rule="evenodd" fill-rule="evenodd" stroke-linejoin="round" stroke-miterlimit="1.41421" viewBox="0 0 32 32" xmlns="http://www.w3.org/2000/svg" xmlns:xlink="http://www.w3.org/1999/xlink"><clipPath id="a"><path clip-rule="evenodd" d="m3.499 6.499c-.828-.828-.828-2.17 0-2.998.001-.001.001-.001.002-.002.828-.828 2.17-.828 2.998 0 4.956 4.956 20.501 20.501 20.501 20.501l1 3-1 1-3-1s-15.545-15.545-20.501-20.501z"/></clipPath><path d="m0 0h32v32h-32z" fill="none"/><path d="m8.793 2.964 2.207-2.207 12.243 12.243-2.207 2.207 7.712 7.713 1.104 3.313 2.053 4.105-1.567 1.567-4.105-2.053-3.313-1.104-20.844-20.844c-.382-.392-.69-.846-.896-1.355-.162-.399-.261-.824-.291-1.254-.031-.427.005-.858.107-1.274.103-.425.275-.832.507-1.203.386-.618.936-1.129 1.581-1.468.384-.202.8-.342 1.228-.414.163-.028.326-.043.491-.053.099-.004.197-.005.296-.004.297.011.591.046.88.117.525.128 1.023.36 1.459.68.165.122.319.257.466.4z"/><path d="m11 3.586c3.138 3.138 6.276 6.276 9.414 9.414l-1.414 1.414-8-8-2 2-1.414-1.414z" fill="#9a9a9a" fill-rule="nonzero"/><path d="m29 29-4-2 2-2z" fill="#666"/><path d="m3.499 6.499c-.828-.828-.828-2.17 0-2.998.001-.001.001-.001.002-.002.828-.828 2.17-.828 2.998 0 4.956 4.956 20.501 20.501 20.501 20.501l1 3-1 1-3-1s-15.545-15.545-20.501-20.501z" fill="#9a9a9a"/><g clip-path="url(#a)"><path d="m11.414 6-5.414 5.414-1.414-1.414 5.414-5.414z" fill="#686868" fill-rule="nonzero"/></g></svg>