<svg clip-rule="evenodd" fill-rule="evenodd" stroke-linecap="round" stroke-miterlimit="1.5" viewBox="0 0 32 32" xmlns="http://www.w3.org/2000/svg" xmlns:xlink="http://www.w3.org/1999/xlink"><clipPath id="a"><path clip-rule="evenodd" d="m0 0h32v32h-32z"/></clipPath><clipPath id="b"><path clip-rule="evenodd" d="m12 12h9l3 1 2 2v4h-14z"/></clipPath><path d="m0 0h32v32h-32z" fill="none"/><g clip-path="url(#a)"><path d="m10.941 9 .123.004.123.007.123.01.122.013.122.017.121.02.12.024.12.027.12.03.118.033.117.036.117.04.115.043.114.046.113.049.111.052.11.055.108.058.107.062.105.064.103.066.101.07.1.072.097.075.095.078.093.08.091.083.089.085.086.088.084.09.081.092.079.094.076.097.074.098.071.101.068.102.065.104.062.106.06.108.056.109.054.111.05.112.047.113.045.115.041.116.038.117.034.118.032.119 2.124 8.496.028.119.025.121.021.121.019.121.015.122.011.123.008.122.005.123.002.123-.002.123-.005.123-.008.122-.012.123-.015.122-.019.121-.022.121-.025.121-.028.119-.032.119-.035.118-.038.117-.041.116-.045.114-.047.114-.051.112-.053.11-.057.109-.06.108-.062.106-.066.104-.068.102-.071.1-.073.099-.077.096-.079.094-.081.092-.084.09-.087.087-.088.086-.091.082-.094.08-.095.078-.098.075-.099.072-.102.069-.103.067-.105.064-.107.06-.108.058-.11.055-.112.052-.112.049-.115.046-.115.043-.116.039-.118.036-.118.033-.119.03-.12.027-.121.023-.121.02-.122.017-.122.013-.123.01-.123.006-.123.004h-.122l-.123-.004-.123-.007-.123-.01-.122-.013-.122-.017-.121-.02-.12-.024-.12-.027-.12-.03-.118-.033-.117-.036-.117-.04-.115-.043-.114-.046-.113-.049-.111-.052-.11-.055-.108-.058-.107-.062-.105-.063-.103-.067-.101-.07-.1-.072-.097-.075-.095-.078-.094-.08-.09-.083-.089-.085-.086-.088-.084-.09-.081-.092-.079-.094-.076-.097-.074-.098-.071-.101-.068-.102-.065-.104-.062-.106-.06-.108-.056-.109-.054-.111-.05-.112-.047-.113-.045-.115-.041-.116-.038-.117-.034-.118-.032-.119-2.124-8.496-.028-.119-.025-.121-.021-.121-.019-.121-.015-.122-.011-.123-.009-.122-.004-.123-.002-.123.002-.123.005-.123.008-.122.012-.123.015-.122.019-.121.022-.121.025-.121.028-.119.032-.119.035-.118.038-.117.041-.115.045-.115.047-.113.051-.112.053-.111.057-.109.06-.108.062-.106.066-.104.068-.102.071-.1.073-.099.077-.096.079-.094.081-.092.084-.09.087-.087.088-.085.091-.083.094-.08.095-.078.098-.074.099-.073.102-.069.103-.067.105-.063.107-.061.108-.058.11-.055.112-.052.112-.049.114-.046.116-.043.116-.039.118-.036.118-.033.119-.03.12-.027.121-.023.121-.02.122-.017.122-.013.123-.01.123-.006.122-.004z"/><path d="m16.762.004.174.013.173.02.172.027.172.034.17.04.168.047.166.053.164.06.161.066.159.072.156.079.153.084.149.09.146.096.142.101.138.107.134.113.129.117.125.122.119.127.115.132.11.135.104.14.099.144.093.148.087.151.081.154.076.158.069.16.063.163.056.165.05.167.044.169.037.171.03.172.024.173.017.173.01.175.003.174v17l-.003.175-.01.174-.017.173-.024.173-.03.172-.037.171-.044.169-.05.167-.056.165-.063.163-.069.16-.076.158-.081.154-.087.151-.093.148-.099.144-.104.14-.11.136-.115.131-.119.127-.125.122-.129.118-.134.112-.138.107-.142.101-.146.096-.149.09-.153.084-.156.079-.159.072-.161.066-.164.06-.166.053-.168.047-.17.04-.172.034-.172.027-.173.02-.174.013-.175.007h-.174l-.175-.007-.174-.013-.173-.02-.172-.027-.172-.034-.169-.04-.169-.047-.166-.053-.164-.06-.161-.066-.159-.072-.156-.079-.153-.084-.149-.09-.146-.096-.142-.101-.138-.107-.134-.112-.129-.118-.125-.122-.119-.127-.115-.131-.11-.136-.104-.14-.099-.144-.093-.148-.087-.151-.081-.154-.076-.158-.069-.16-.063-.163-.056-.165-.05-.167-.044-.169-.037-.171-.03-.172-.024-.173-.016-.173-.011-.174-.003-.175v-17l.003-.174.011-.175.016-.173.024-.173.03-.172.037-.171.044-.169.05-.167.056-.165.063-.163.069-.16.076-.158.081-.154.087-.151.093-.148.099-.144.104-.14.11-.135.115-.132.119-.127.125-.122.129-.117.134-.113.138-.107.142-.101.146-.096.149-.09.153-.084.156-.079.159-.072.161-.066.164-.06.166-.053.169-.047.169-.04.172-.034.172-.027.173-.02.174-.013.175-.007h.174l.175.007z"/><path d="m16 30s-.537 0-1.351 0c-4.631 0-8.656-3.179-9.728-7.684-.217-.91-.43-1.804-.625-2.621-.212-.893-.004-1.834.565-2.554.569-.721 1.436-1.141 2.354-1.141h3.202l4.583 11h4z"/><path d="m16.333 25h5.086l.706 1.704-5.297 5.296h-2.185l-.124-.001-.13-.002-.129-.003-.129-.005-.129-.006-.129-.008-.128-.009-.128-.01-.128-.012-.127-.013-.127-.014-.127-.016-.126-.017-.126-.018-.125-.02-.126-.02-.124-.023-.125-.023-.124-.025-.123-.026-.124-.027-.122-.029-.123-.03-.122-.031-.121-.032-.121-.034-.12-.035-.12-.036-.12-.037-.119-.038-.118-.04-.118-.041-.117-.042-.117-.043-.116-.045-.116-.045-.116-.047-.114-.048-.114-.049-.114-.05-.112-.052-.113-.052-.112-.054-.11-.054-.111-.056-.109-.057-.11-.058-.108-.06-.108-.06-.107-.061-.107-.062-.106-.064-.105-.065-.104-.065-.104-.067-.103-.068-.102-.068-.101-.07-.102-.071-.1-.072-.099-.073-.099-.074-.097-.074-.097-.076-.097-.077-.095-.078-.095-.079-.094-.079-.093-.081-.092-.082-.091-.083-.091-.083-.089-.084-.089-.086-.089-.086-.087-.088-.086-.088-.085-.089-.085-.09-.084-.091-.082-.092-.082-.092-.081-.094-.08-.095-.079-.095-.078-.096-.077-.097-.076-.098-.075-.099-.074-.099-.073-.101-.073-.101-.071-.102-.07-.103-.069-.104-.068-.104-.067-.105-.066-.106-.065-.107-.064-.108-.063-.108-.062-.109-.06-.11-.06-.11-.059-.112-.057-.112-.056-.113-.055-.113-.054-.114-.053-.116-.052-.115-.05-.116-.05-.117-.048-.118-.047-.118-.045-.119-.045-.12-.043-.12-.042-.121-.041-.121-.04-.123-.038-.122-.037-.123-.036-.124-.035-.125-.033-.125-.032-.125-.03-.121-.628-2.641-.029-.126-.027-.14-.023-.14-.019-.141-.014-.14-.011-.141-.007-.141-.003-.142.001-.14.005-.14.009-.14.012-.139.017-.14.021-.138.024-.138.028-.136.032-.136.036-.135.04-.135.043-.133.047-.132.051-.131.055-.129.058-.128.062-.127.066-.124.069-.123.073-.121.076-.12.08-.118.084-.116.087-.113.09-.111.093-.108.096-.105.099-.103.101-.099.104-.095.106-.093.109-.09.111-.086.113-.083.116-.08.117-.076.119-.073.122-.07.123-.066.125-.063.126-.059.129-.056.13-.052.131-.048.133-.045.134-.041.135-.037.137-.034.137-.03.139-.026.139-.022.141-.018.141-.014.142-.01.143-.006.129-.002h4.549zm-9.104-7-.043.001-.029.001-.028.002-.028.003-.028.003-.028.005-.028.005-.027.006-.027.006-.027.008-.027.008-.027.009-.026.01-.026.01-.026.011-.025.012-.025.013-.025.013-.024.014-.024.015-.023.015-.024.016-.022.016-.022.018-.022.018-.021.018-.021.019-.02.02-.02.02-.019.021-.019.022-.018.022-.017.023-.017.023-.016.024-.015.023-.015.025-.014.025-.013.025-.012.025-.012.025-.011.026-.01.026-.009.027-.009.026-.008.027-.007.027-.006.027-.006.028-.005.027-.004.028-.003.028-.003.028-.002.028-.001.028v.028l.001.028.001.028.002.028.003.028.004.028.005.029.005.028.009.041.62 2.603.022.089.021.085.023.083.023.083.024.083.024.082.026.083.027.081.027.081.028.081.029.08.029.079.031.08.031.078.032.079.033.078.034.077.034.077.035.076.036.077.037.075.037.075.039.075.038.074.04.073.041.073.041.073.042.072.042.072.043.071.044.07.045.07.045.07.046.069.047.069.047.068.048.067.049.067.05.066.049.066.051.065.052.065.052.064.052.064.054.063.053.062.055.062.055.061.056.061.056.06.057.059.058.059.058.058.059.058.059.057.06.056.061.056.06.055.062.055.062.054.063.053.063.053.064.052.064.051.065.05.065.051.066.049.066.048.067.048.067.047.068.047.068.046.069.045.069.045.07.044.07.043.071.042.071.042.071.041.072.04.072.039.073.039.073.038.074.037.074.037.075.035.074.035.076.035.075.033.076.033.077.032.076.031.077.03.078.03.078.029.078.028.078.027.079.026.079.026.08.025.08.024.08.023.08.022.081.022.081.02.081.02.082.019.082.018.082.018.083.016.076.015-4.112-9.868h-1.854z"/><path d="m22.305 9.004.123.006.123.01.122.013.122.017.121.02.121.023.12.027.119.03.118.033.118.036.116.039.116.043.114.046.112.049.112.052.11.055.108.058.107.061.105.063.103.067.102.069.099.072.098.075.095.078.094.08.091.083.088.085.087.087.084.09.081.092.079.094.077.096.073.099.071.1.068.102.066.104.062.106.06.108.057.109.053.111.051.112.047.113.045.115.041.115.038.117.035.118.032.119.028.119.025.121.022.121.019.121.015.122.012.123.008.122.005.123.002.123-.002.123-.004.123-.009.122-.011.123-.015.122-.019.121-.021.121-.025.121-.028.119-2.125 8.5-.032.119-.034.118-.038.117-.041.116-.045.115-.047.113-.05.112-.054.111-.056.109-.06.108-.062.106-.065.104-.068.102-.071.101-.074.098-.076.097-.079.094-.081.092-.084.09-.086.088-.089.085-.09.083-.094.08-.095.078-.097.075-.1.072-.101.07-.103.066-.105.064-.107.062-.108.058-.11.055-.111.052-.113.049-.114.046-.115.043-.117.04-.117.036-.118.033-.12.03-.12.027-.12.024-.121.02-.122.017-.122.013-.123.01-.123.007-.123.004h-.122l-.123-.004-.123-.006-.123-.01-.122-.013-.122-.017-.121-.02-.121-.023-.12-.027-.119-.03-.118-.033-.118-.036-.116-.04-.115-.042-.115-.046-.112-.049-.112-.052-.11-.055-.108-.058-.107-.061-.105-.063-.103-.067-.102-.069-.099-.073-.098-.074-.095-.078-.094-.08-.091-.083-.088-.085-.087-.087-.084-.09-.081-.092-.079-.094-.077-.096-.073-.099-.071-.1-.068-.102-.066-.104-.062-.106-.06-.108-.057-.109-.053-.111-.051-.112-.047-.113-.045-.115-.041-.115-.038-.117-.035-.118-.032-.119-.028-.119-.025-.121-.022-.121-.019-.121-.015-.122-.012-.123-.008-.122-.005-.123-.002-.123.002-.123.005-.123.008-.122.011-.123.015-.122.019-.121.021-.121.025-.121.028-.119 2.125-8.5.032-.119.034-.118.038-.117.041-.116.045-.115.047-.113.05-.112.054-.111.056-.109.06-.108.062-.106.065-.104.068-.102.071-.101.074-.098.076-.097.079-.094.081-.092.084-.09.086-.088.089-.085.091-.083.093-.08.095-.078.097-.075.1-.072.101-.07.103-.066.105-.064.107-.062.108-.058.11-.055.111-.052.113-.049.114-.046.115-.043.117-.04.117-.036.118-.033.12-.03.12-.027.12-.024.121-.02.122-.017.122-.013.123-.01.123-.007.123-.004h.122z"/><path d="m25.698 12.501.137.004.137.008.137.013.136.017.136.021.135.025.134.029.133.034.132.037.131.041.129.046.128.049.127.053.125.057.123.061.121.064.119.068.117.072.115.075.112.079.11.082.108.086.105.088.102.092.099.095.096.098.093.101.09.103.087.106.084.109.08.112.077.113.073.116.07.119.066.12.062.122.059.124.055.126.051.128.047.129.043.13.039.131.035.133.031.134.027.134.022.136.019.136.015.136.01.137.006.137.002.137-.002.138-.007.137-.01.137-.015.136-.019.136-.023.135-.027.135-.031.133-1.18 4.721-.03.114-.033.126-.035.124-.036.125-.037.124-.039.123-.04.122-.041.122-.042.122-.043.12-.045.12-.046.12-.047.12-.049.118-.049.117-.051.118-.052.115-.053.115-.054.116-.055.114-.057.114-.057.112-.059.112-.06.112-.061.11-.061.11-.063.108-.065.109-.065.108-.065.106-.068.106-.068.105-.07.105-.07.103-.071.103-.073.102-.073.101-.074.1-.075.099-.077.099-.077.098-.078.096-.079.097-.08.095-.081.094-.082.093-.083.093-.083.091-.085.091-.085.09-.087.089-.086.087-.088.087-.09.087-.09.085-.09.084-.091.083-.093.083-.093.081-.094.081-.095.079-.094.078-.097.077-.097.077-.098.076-.098.074-.1.074-.1.073-.101.071-.101.07-.102.07-.104.068-.103.068-.105.066-.105.066-.106.064-.106.063-.107.062-.108.061-.109.06-.109.059-.109.058-.111.056-.111.056-.112.054-.112.054-.113.052-.114.051-.113.05-.115.049-.116.048-.115.046-.117.046-.117.044-.118.043-.117.042-.119.041-.119.039-.12.038-.12.037-.12.036-.122.035-.121.033-.122.032-.123.031-.123.03-.123.028-.124.027-.124.026-.124.025-.126.023-.125.022-.125.021-.127.019-.126.019-.127.016-.127.016-.128.014-.127.013-.129.011-.128.011-.128.008-.129.008-.129.006-.13.005-.129.003-.13.002-.118.001-1.043-.001-.137-.002-.137-.006-.137-.011-.136-.015-.136-.019-.135-.023-.135-.027-.134-.031-.132-.035-.132-.039-.13-.044-.129-.047-.127-.051-.126-.055-.124-.059-.122-.062-.12-.067-.118-.07-.116-.073-.114-.077-.111-.08-.109-.084-.106-.087-.104-.09-.1-.094-.098-.096-.095-.099-.091-.103-.089-.104-.085-.108-.082-.11-.079-.113-.075-.114-.071-.118-.068-.119-.065-.121-.06-.123-.057-.125-.053-.127-.049-.128-.045-.13-.041-.131-.037-.132-.033-.133-.029-.134-.025-.135-.021-.136-.017-.136-.012-.137-.008-.137-.005-.137.001-.137.004-.137.008-.137.013-.137.017-.136.021-.136.025-.135.029-.134.033-.133.037-.132.042-.131.045-.13.049-.128.053-.126.057-.125.061-.123.064-.121.068-.12.072-.117.075-.114.079-.113.082-.11.085-.107.089-.105.092-.102.095-.099.097-.097.101-.093.104-.09.106-.087.109-.083.111-.081.114-.077.116-.073.118-.07.12-.066.123-.062.124-.059.125-.055.128-.051.129-.047.13-.043.132-.039.132-.035.134-.031.135-.027.135-.023.136-.019.136-.014.137-.011.137-.006.138-.002 1.018.001.047-.001h.033l.035-.001.033-.001.034-.002.033-.002.034-.002.034-.003.033-.003.033-.003.033-.004.032-.004.034-.004.032-.005.032-.005.033-.005.032-.006.032-.006.032-.006.032-.007.032-.007.032-.007.031-.008.031-.008.032-.008.031-.008.031-.009.032-.01.03-.009.031-.01.031-.01.03-.01.03-.011.031-.011.03-.012.03-.011.03-.012.029-.013.03-.012.029-.013.03-.013.029-.014.029-.014.029-.014.029-.014.028-.015.028-.015.029-.015.028-.016.028-.015.028-.016.028-.017.027-.017.027-.017.027-.017.027-.017.027-.018.027-.018.027-.019.025-.018.026-.019.026-.019.026-.02.025-.019.025-.02.025-.02.026-.021.024-.021.024-.02.025-.021.023-.022.024-.021.024-.023.023-.022.023-.021.023-.023.023-.023.022-.023.022-.023.022-.024.022-.024.021-.024.022-.024.021-.024.02-.025.02-.024.021-.026.02-.025.019-.025.02-.026.019-.026.019-.026.018-.026.019-.027.018-.026.018-.027.017-.027.017-.027.018-.028.017-.028.015-.027.017-.028.016-.029.016-.028.015-.028.015-.029.015-.03.014-.028.014-.029.014-.03.014-.03.014-.03.012-.03.013-.03.013-.031.012-.03.011-.031.012-.031.011-.032.011-.031.011-.032.01-.032.011-.032.009-.033.01-.031.009-.034.009-.033.011-.044 1.174-4.697.036-.133.039-.132.043-.13.048-.129.051-.127.055-.126.059-.124.062-.122.067-.12.07-.118.073-.116.077-.114.081-.111.083-.108.087-.107.091-.103.093-.101.097-.097.099-.095.102-.092.105-.088.108-.085.11-.082.112-.079.115-.075.117-.071.12-.068.121-.064.123-.061.125-.057.127-.053.128-.048.13-.046.13-.041.133-.037.133-.033.134-.029.135-.025.136-.02.136-.017.137-.012.137-.008.137-.005.137.001z"/><path d="m12 12h9l3 1 2 2v4h-14z" fill="#765018"/><g fill="#ffc20b"><path d="m10.994 11.003.091.006.091.009.091.013.089.016.09.019.088.022.088.026.087.029.085.032.084.035.083.038.082.041.08.044.078.047.077.05.074.053.073.055.071.058.068.06.066.063.064.065.062.068.059.07.056.071.054.074.051.076.048.078.045.079.042.081.04.082.036.084.033.085.031.086.027.087.023.089 2.124 8.496.021.089.017.089.014.091.011.09.007.091.004.092.001.091-.003.091-.006.091-.009.091-.013.091-.016.09-.019.089-.022.088-.026.088-.029.087-.032.085-.035.084-.038.083-.041.082-.044.08-.047.078-.05.077-.053.074-.055.073-.058.071-.06.068-.063.066-.065.064-.068.062-.07.059-.071.056-.074.054-.076.051-.078.048-.079.045-.081.043-.082.039-.084.036-.085.034-.086.03-.087.027-.089.023-.089.021-.089.017-.091.014-.09.011-.091.007-.092.004-.091.001-.091-.003-.091-.006-.091-.009-.091-.013-.089-.016-.09-.019-.088-.022-.088-.026-.087-.029-.085-.032-.084-.035-.083-.038-.082-.041-.08-.044-.078-.047-.077-.05-.074-.052-.073-.056-.071-.058-.068-.06-.066-.063-.064-.065-.062-.068-.059-.069-.056-.072-.054-.074-.051-.076-.048-.078-.045-.079-.043-.081-.039-.082-.036-.084-.033-.085-.031-.086-.027-.087-.023-.089-2.124-8.496-.021-.089-.017-.089-.014-.091-.011-.09-.007-.091-.004-.092-.001-.091.003-.091.006-.091.009-.091.013-.091.016-.089.019-.09.022-.088.026-.088.029-.087.032-.085.035-.084.038-.083.041-.082.044-.08.047-.078.05-.077.052-.074.056-.073.058-.071.06-.068.063-.066.065-.064.068-.062.07-.059.071-.056.074-.054.076-.051.078-.048.079-.045.081-.042.082-.04.084-.036.085-.033.086-.031.087-.027.089-.023.089-.021.089-.017.091-.014.09-.011.091-.007.091-.004.092-.001.091.003z"/><path d="m16.693 2.007.128.014.127.02.126.026.125.033.122.039.121.045.118.052.115.057.112.064.109.069.105.074.101.08.096.085.092.09.088.095.082.098.078.103.071.107.067.111.06.113.055.117.048.119.043.122.036.123.029.126.023.126.017.128.01.128.003.129v17l-.003.129-.01.128-.017.128-.023.126-.029.126-.036.123-.043.122-.048.119-.055.117-.06.113-.067.111-.071.107-.078.103-.082.098-.088.095-.092.09-.096.085-.101.08-.105.074-.109.069-.112.064-.115.057-.118.052-.121.045-.122.039-.125.033-.126.026-.127.02-.128.014-.129.006h-.128l-.129-.006-.128-.014-.127-.02-.126-.026-.125-.033-.122-.039-.121-.045-.118-.052-.115-.057-.112-.064-.109-.069-.105-.074-.1-.08-.097-.085-.092-.09-.088-.095-.082-.098-.078-.103-.071-.107-.067-.111-.06-.113-.055-.117-.048-.119-.043-.122-.036-.123-.029-.126-.023-.126-.017-.128-.01-.128-.003-.129v-17l.003-.129.01-.128.017-.128.023-.126.029-.126.036-.123.043-.122.048-.119.055-.117.06-.113.067-.111.071-.107.078-.103.082-.098.088-.095.092-.09.097-.085.1-.08.105-.074.109-.069.112-.064.115-.057.118-.052.121-.045.122-.039.125-.033.126-.026.127-.02.128-.014.129-.006h.128z"/><path d="m22.19 11.001.091.004.091.007.09.011.091.014.089.017.089.021.089.023.087.027.086.03.085.034.084.036.082.039.081.043.079.045.078.048.076.051.074.054.071.056.07.059.068.062.065.064.063.066.06.068.058.071.056.073.052.074.05.077.047.078.044.08.041.082.038.083.035.084.032.085.029.087.026.088.022.088.019.09.016.089.013.091.009.091.006.091.003.091-.001.091-.004.092-.007.091-.011.09-.014.091-.017.089-.021.089-2.125 8.5-.023.089-.027.087-.03.086-.034.085-.036.084-.039.082-.043.081-.045.079-.048.078-.051.076-.054.074-.056.071-.059.07-.062.068-.064.065-.066.063-.068.06-.071.058-.073.055-.074.053-.077.05-.078.047-.08.044-.082.041-.083.038-.084.035-.085.032-.087.029-.088.026-.088.022-.09.019-.089.016-.091.013-.091.009-.091.006-.091.003-.091-.001-.092-.004-.091-.007-.09-.011-.091-.014-.089-.017-.089-.021-.088-.023-.088-.027-.086-.031-.085-.033-.084-.036-.082-.04-.081-.042-.079-.045-.078-.048-.076-.051-.074-.054-.071-.056-.07-.059-.068-.062-.065-.064-.063-.066-.06-.068-.058-.071-.055-.073-.053-.074-.05-.077-.047-.078-.044-.08-.041-.082-.038-.083-.035-.084-.032-.085-.029-.087-.026-.088-.022-.088-.019-.09-.016-.089-.013-.091-.009-.091-.006-.091-.003-.091.001-.091.004-.092.007-.091.011-.09.014-.091.017-.089.021-.089 2.125-8.5.023-.089.027-.087.031-.086.033-.085.036-.084.04-.082.042-.081.045-.079.048-.078.051-.076.054-.074.056-.071.059-.07.062-.068.064-.065.066-.063.068-.06.071-.058.073-.056.074-.052.077-.05.078-.047.08-.044.082-.041.083-.038.084-.035.085-.032.087-.029.088-.026.088-.022.09-.019.089-.016.091-.013.091-.009.091-.006.091-.003.092.001z"/><path d="m25.678 14.504.102.005.101.008.101.013.101.016.1.021.099.025.098.028.096.033.096.037.093.04.092.045.09.048.088.051.086.055.083.059.081.062.079.065.075.069.073.071.07.074.067.077.063.08.06.083.057.084.054.087.049.089.047.091.042.093.038.094.035.096.031.098.026.098.023.099.019.101.014.101.01.101.007.102.002.102-.002.102-.007.102-.01.101-.015.101-.018.1-.023.1-1.179 4.712-.026.099-.028.105-.029.104-.03.104-.031.103-.032.103-.034.102-.034.103-.035.101-.036.1-.038.101-.038.1-.04.099-.04.099-.041.098-.043.098-.043.096-.044.097-.046.096-.046.095-.047.095-.048.094-.048.093-.05.093-.051.093-.052.091-.052.091-.054.09-.054.09-.056.089-.056.088-.057.088-.057.087-.059.086-.06.086-.06.085-.061.085-.062.083-.063.083-.064.083-.064.081-.065.081-.066.08-.067.079-.068.079-.068.078-.069.077-.07.077-.07.075-.072.076-.072.074-.072.073-.074.073-.074.072-.075.071-.076.07-.076.07-.077.068-.078.068-.078.067-.079.067-.08.065-.081.065-.08.064-.082.063-.082.062-.083.062-.084.06-.084.06-.085.059-.086.058-.085.057-.087.056-.087.056-.088.054-.088.054-.089.053-.089.052-.09.051-.091.05-.091.049-.092.048-.092.048-.093.046-.093.046-.094.044-.094.044-.095.043-.095.041-.096.041-.096.04-.097.039-.097.038-.098.037-.098.036-.098.035-.099.034-.099.032-.1.032-.1.031-.101.03-.101.029-.101.028-.102.027-.103.026-.102.025-.103.023-.103.023-.104.022-.104.02-.104.02-.105.018-.105.018-.105.016-.105.015-.106.014-.106.013-.106.012-.107.011-.107.009-.107.009-.108.007-.107.007-.108.005-.108.004-.108.003-.109.002h-.102-1.042l-.102-.002-.102-.006-.101-.011-.101-.014-.1-.019-.1-.022-.098-.027-.098-.031-.095-.035-.095-.038-.093-.043-.091-.046-.089-.049-.087-.054-.084-.057-.083-.06-.079-.064-.077-.066-.075-.07-.071-.073-.068-.076-.066-.078-.062-.081-.058-.084-.055-.086-.052-.088-.048-.09-.044-.091-.041-.094-.036-.095-.033-.097-.029-.098-.024-.099-.021-.1-.017-.1-.012-.101-.008-.102-.004-.102v-.102l.004-.102.008-.102.012-.101.017-.1.021-.1.024-.099.029-.098.033-.097.036-.095.041-.093.044-.092.048-.09.052-.088.055-.086.058-.084.062-.081.066-.078.068-.076.071-.073.075-.07.077-.066.079-.064.083-.06.084-.057.087-.053.089-.05.091-.046.093-.043.095-.038.095-.035.098-.031.098-.026.1-.023.1-.019.101-.014.101-.011.102-.006.102-.002h1.029.062l.055-.001.055-.002.056-.002.054-.002.055-.003.055-.004.054-.005.054-.005.054-.005.055-.006.053-.007.054-.007.053-.007.054-.009.053-.008.052-.01.053-.01.053-.01.052-.011.052-.011.052-.012.052-.013.052-.013.051-.014.052-.014.051-.014.05-.015.051-.016.051-.016.05-.017.05-.017.05-.018.049-.018.05-.019.049-.019.049-.02.049-.02.048-.02.048-.022.048-.021.048-.022.048-.023.047-.023.047-.023.046-.024.047-.025.046-.025.046-.025.046-.026.045-.027.045-.026.045-.028.045-.027.044-.028.044-.029.044-.029.043-.03.043-.029.043-.031.042-.031.043-.031.041-.031.042-.032.041-.033.041-.033.04-.033.04-.034.04-.034.04-.034.039-.035.039-.036.038-.035.038-.037.038-.036.037-.037.037-.037.037-.038.036-.038.036-.038.035-.039.035-.039.035-.04.034-.04.034-.04.033-.041.033-.04.033-.042.032-.042.032-.042.031-.042.031-.042.031-.044.03-.043.03-.044.029-.044.029-.044.028-.045.028-.045.027-.045.027-.045.027-.047.027-.046.025-.047.025-.046.025-.048.024-.047.024-.049.024-.048.022-.048.022-.048.023-.05.021-.049.021-.05.02-.05.02-.05.02-.051.018-.05.019-.052.018-.051.017-.051.017-.053.017-.052.015-.053.016-.053.015-.053.014-.053.015-.06 1.176-4.7.027-.098.031-.098.035-.096.038-.094.043-.093.046-.091.05-.089.053-.087.057-.084.06-.082.064-.08.067-.077.07-.074.073-.072.075-.068.079-.065.081-.062.083-.059.086-.055.088-.051.09-.048.092-.045.094-.04.095-.037.097-.032.097-.029.099-.025.1-.02.101-.017.101-.012.102-.008.102-.005h.102z"/><path d="m11 13h11v14h-11z"/><path d="m16 30s-.577 0-1.442 0c-4.589 0-8.589-3.123-9.702-7.575-.234-.935-.464-1.857-.674-2.697-.224-.897-.023-1.846.546-2.574.568-.728 1.441-1.154 2.364-1.154h3.158l2.75 11h6z"/></g><path d="m8.924 16h-1.924v3.538c0 .255.101.5.282.68.18.181.425.282.68.282s.5-.101.68-.282c.181-.18.282-.425.282-.68 0-1.322 0-3.538 0-3.538z" fill="#ce8d15"/><path d="m12 12h9l3 1 2 2v4h-14z" fill="none"/><g clip-path="url(#b)" fill="none" stroke="#765018"><path d="m19.5 15v-6"/><path d="m13.5 15v-6"/><path d="m24.125 17.5 1.125-4.5"/></g></g></svg>