<svg clip-rule="evenodd" fill-rule="evenodd" stroke-miterlimit="11" viewBox="0 0 32 32" xmlns="http://www.w3.org/2000/svg" xmlns:xlink="http://www.w3.org/1999/xlink"><clipPath id="a"><path clip-rule="evenodd" d="m0 0h32v32h-32z"/></clipPath><clipPath id="b"><path clip-rule="evenodd" d="m2 3 4-2h10v-1h3l3 1 4 2v8.91h6v20.09h-32v-25l1-2z"/></clipPath><clipPath id="c"><path clip-rule="nonzero" d="m9.397 22.448-2.846.949-4.948-14.846s1.703.677 2.781 1.105c.548.218.972.667 1.158 1.226.947 2.841 3.855 11.566 3.855 11.566z"/></clipPath><clipPath id="d"><path clip-rule="nonzero" d="m11.819 19.092-2.911.727-3.908-15.633s1.825 1.056 2.882 1.667c.469.271.807.721.939 1.246.707 2.829 2.998 11.993 2.998 11.993z"/></clipPath><clipPath id="e"><path clip-rule="nonzero" d="m22.818 4-3.728 15.819-2.91-.727s2.156-9.274 2.827-12.157c.125-.538.468-1.001.946-1.278 1.059-.612 2.865-1.657 2.865-1.657z"/></clipPath><clipPath id="f"><path clip-rule="nonzero" d="m19.42 2-3.83 15.319-2.91-.727s2.224-8.896 2.92-11.679c.131-.525.47-.975.939-1.246 1.056-.611 2.881-1.667 2.881-1.667z"/></clipPath><clipPath id="g"><path clip-rule="evenodd" d="m30 17.5s-6.793 6.793-10.364 10.364c-1.368 1.368-3.223 2.136-5.157 2.136-.148 0-.3 0-.454 0-4.984 0-9.025-4.041-9.025-9.025 0-2.22 0-3.975 0-3.975l2-1h3v-1h4v-1h6v5.445c0 .411.252.781.636.931.383.15.819.05 1.098-.253.58-.627 1.222-1.321 1.787-1.933.97-1.049 2.417-1.516 3.817-1.231 1.293.263 2.662.541 2.662.541z"/></clipPath><path d="m0 0h32v32h-32z" fill="none"/><g clip-path="url(#a)"><path d="m26.758 14.881.097.005.098.006.099.007.098.01.098.011.098.012.098.014.098.016.098.018.089.017 6.066 1.234.07.232-12.819 12.82-.078.076-.083.08-.084.079-.085.078-.085.077-.087.075-.087.074-.088.073-.089.073-.09.07-.091.07-.091.069-.092.067-.093.066-.094.065-.094.064-.095.062-.096.062-.096.06-.098.059-.098.058-.098.056-.099.055-.1.054-.1.053-.101.052-.102.05-.102.049-.103.048-.103.046-.104.046-.104.044-.106.042-.105.042-.106.04-.107.039-.106.037-.108.037-.108.035-.108.033-.109.033-.109.031-.11.029-.11.029-.11.027-.111.025-.111.025-.111.023-.112.021-.112.021-.113.019-.112.017-.114.016-.113.015-.114.014-.113.012-.114.01-.115.009-.114.008-.115.007-.115.005-.115.003-.115.002-.11.001h-.466l-.131-.001-.137-.002-.136-.005-.137-.006-.136-.007-.136-.009-.135-.011-.136-.013-.135-.014-.135-.016-.134-.018-.134-.019-.134-.021-.133-.022-.134-.024-.132-.026-.132-.027-.132-.029-.132-.03-.13-.032-.131-.034-.13-.035-.13-.037-.129-.039-.128-.039-.128-.042-.128-.043-.126-.045-.127-.046-.126-.047-.125-.049-.124-.051-.124-.052-.123-.054-.123-.055-.122-.057-.121-.058-.121-.06-.119-.061-.12-.063-.118-.064-.118-.065-.117-.068-.116-.068-.115-.07-.114-.071-.114-.073-.113-.074-.112-.076-.111-.077-.11-.078-.109-.08-.109-.082-.107-.082-.107-.084-.105-.086-.105-.087-.104-.088-.102-.089-.102-.091-.1-.092-.1-.094-.099-.095-.097-.096-.096-.097-.095-.099-.094-.1-.092-.1-.091-.102-.089-.102-.088-.104-.087-.105-.086-.105-.084-.107-.082-.107-.082-.109-.08-.109-.078-.11-.077-.111-.076-.112-.074-.113-.073-.114-.071-.114-.07-.116-.069-.116-.067-.116-.065-.118-.064-.118-.063-.119-.061-.12-.06-.121-.058-.121-.057-.122-.055-.123-.054-.123-.052-.124-.05-.124-.05-.125-.047-.126-.046-.127-.045-.126-.043-.128-.042-.128-.039-.128-.039-.129-.037-.13-.035-.13-.034-.13-.032-.131-.03-.132-.029-.132-.027-.132-.026-.133-.024-.133-.022-.133-.021-.134-.019-.134-.018-.134-.016-.135-.014-.135-.013-.136-.011-.135-.009-.136-.007-.136-.006-.137-.005-.136-.002-.137-.001-.131v-6.981h5v-1h3v-1h11v4.889l.058-.063.063-.066.069-.071.07-.07.071-.069.073-.068.073-.066.074-.065.075-.063.076-.063.077-.061.077-.059.079-.058.079-.057.08-.056.081-.054.082-.053.082-.052.084-.05.083-.048.085-.048.085-.046.087-.044.086-.044.087-.041.088-.041.089-.039.089-.037.089-.036.09-.035.091-.033.091-.032.091-.03.093-.029.092-.028.093-.026.093-.024.094-.023.094-.022.095-.02.095-.018.095-.017.096-.016.095-.014.097-.013.096-.011.096-.009.097-.008.097-.006.097-.005.098-.004.097-.001h.098l.098.001.098.003zm-14.758 2.119v1h-5v2.969l.001.094.001.087.003.087.004.087.005.086.005.087.007.086.008.087.009.086.011.085.011.086.012.086.013.085.015.085.015.085.016.084.018.084.018.084.019.084.021.083.021.084.023.082.023.083.025.082.025.082.027.082.027.081.028.081.03.08.03.08.031.08.033.079.033.079.034.079.035.078.037.078.037.077.038.077.039.076.04.076.041.076.041.074.043.075.044.074.044.073.046.073.046.073.047.071.048.072.05.071.05.07.05.07.052.068.053.069.053.068.055.067.055.067.056.066.057.065.058.065.059.064.06.064.06.062.061.062.063.062.063.06.063.06.064.059.065.058.065.057.066.056.067.055.067.055.068.053.068.053.07.052.069.05.07.05.071.05.071.048.072.047.073.046.073.046.073.044.074.044.075.043.074.041.076.041.076.04.076.039.077.038.077.037.078.037.078.035.079.034.079.033.079.033.08.031.08.03.08.03.081.028.081.027.082.027.082.025.082.025.083.023.082.023.084.021.083.021.084.019.084.018.084.018.085.016.084.015.085.015.085.013.086.012.086.011.085.011.086.009.087.008.086.007.087.005.086.005.087.004.087.003.087.001.094.001h.442.072l.066-.002.065-.002.066-.003.065-.003.065-.005.065-.005.065-.006.065-.007.065-.007.064-.009.065-.009.064-.01.064-.011.064-.011.063-.013.064-.013.063-.014.063-.014.063-.016.063-.016.062-.017.062-.017.062-.019.062-.019.062-.02.061-.021.061-.021.06-.022.061-.023.06-.024.06-.024.059-.025.059-.026.059-.026.059-.028.058-.027.058-.029.057-.029.058-.031.056-.03.057-.032.056-.032.056-.033.055-.033.055-.035.054-.035.055-.035.054-.037.053-.037.053-.037.052-.039.052-.039.052-.039.051-.041.05-.041.051-.041.049-.043.05-.043.049-.043.048-.044.048-.045.047-.046.051-.051 4.705-4.704-.062.051-.09.069-.092.065-.095.062-.096.057-.098.054-.099.051-.102.046-.102.042-.104.039-.105.034-.107.031-.107.027-.108.023-.109.018-.11.015-.111.011-.111.007-.111.002-.111-.002-.112-.005-.112-.01-.111-.014-.112-.019-.111-.023-.11-.027-.11-.031-.108-.035-.108-.04-.107-.044-.104-.048-.102-.052-.099-.055-.097-.058-.095-.063-.091-.065-.089-.068-.085-.072-.084-.074-.08-.078-.076-.08-.074-.083-.071-.085-.067-.088-.064-.09-.061-.092-.057-.095-.054-.097-.05-.099-.047-.101-.043-.102-.039-.105-.035-.106-.031-.107-.028-.11-.023-.11-.02-.112-.015-.113-.011-.113-.006-.114-.002-.096v-3.464h-3v1h-3zm13.547 2.119-.029.016-.029.016-.029.017-.029.017-.028.018-.028.018-.028.018-.027.019-.027.02-.027.02-.027.02-.026.021-.026.021-.026.022-.025.022-.025.023-.025.023-.024.024-.025.024-.023.025-.029.03-1.629 1.763 2.202-2.203z"/><path d="m2 3 4-2h10v-1h3l3 1 4 2v8.91h6v20.09h-32v-25l1-2z" fill="none"/><g clip-path="url(#b)" fill="none" stroke="#000" stroke-width="4"><path d="m9.397 22.448-2.846.949-4.948-14.846s1.703.677 2.781 1.105c.548.218.972.667 1.158 1.226.947 2.841 3.855 11.566 3.855 11.566z"/><path d="m11.819 19.092-2.911.727-3.908-15.633s1.825 1.056 2.882 1.667c.469.271.807.721.939 1.246.707 2.829 2.998 11.993 2.998 11.993z"/><path d="m22.818 4-3.728 15.819-2.91-.727s2.156-9.274 2.827-12.157c.125-.538.468-1.001.946-1.278 1.059-.612 2.865-1.657 2.865-1.657z"/><path d="m19.42 2-3.83 15.319-2.91-.727s2.224-8.896 2.92-11.679c.131-.525.47-.975.939-1.246 1.056-.611 2.881-1.667 2.881-1.667z"/></g><path d="m9.397 22.448-2.846.949-4.948-14.846s1.703.677 2.781 1.105c.548.218.972.667 1.158 1.226.947 2.841 3.855 11.566 3.855 11.566z" fill="#925adb" fill-rule="nonzero"/><g clip-path="url(#c)" fill="none" stroke="#7b24cc" stroke-linecap="square" stroke-miterlimit="1.414"><path d="m2 12 4-1"/><path d="m3 15 4-1"/></g><path d="m11.819 19.092-2.911.727-3.908-15.633s1.825 1.056 2.882 1.667c.469.271.807.721.939 1.246.707 2.829 2.998 11.993 2.998 11.993z" fill="#925adb" fill-rule="nonzero"/><g clip-path="url(#d)" fill="none" stroke="#7b24cc" stroke-linecap="square" stroke-miterlimit="1.414"><path d="m6 8 4-1"/><path d="m7 12 4-1"/></g><path d="m22.818 4-3.728 15.819-2.91-.727s2.156-9.274 2.827-12.157c.125-.538.468-1.001.946-1.278 1.059-.612 2.865-1.657 2.865-1.657z" fill="#925adb" fill-rule="nonzero"/><g clip-path="url(#e)" fill="none" stroke="#7b24cc" stroke-linecap="square" stroke-miterlimit="1.414"><path d="m22 9-4-1"/><path d="m21 13-4-1"/></g><path d="m19.42 2-3.83 15.319-2.91-.727s2.224-8.896 2.92-11.679c.131-.525.47-.975.939-1.246 1.056-.611 2.881-1.667 2.881-1.667z" fill="#925adb" fill-rule="nonzero"/><g clip-path="url(#f)" fill="none" stroke="#7b24cc" stroke-linecap="square" stroke-miterlimit="1.414"><path d="m18 7-4-1"/><path d="m17 11-4-1"/></g><path d="m30 17.5s-6.793 6.793-10.364 10.364c-1.368 1.368-3.223 2.136-5.157 2.136-.148 0-.3 0-.454 0-4.984 0-9.025-4.041-9.025-9.025 0-2.22 0-3.975 0-3.975l2-1h3v-1h4v-1h6v5.445c0 .411.252.781.636.931.383.15.819.05 1.098-.253.58-.627 1.222-1.321 1.787-1.933.97-1.049 2.417-1.516 3.817-1.231 1.293.263 2.662.541 2.662.541z" fill="#925adb"/><g clip-path="url(#g)"><path d="m24 16-5.5 5.5s0 0-.001-.001c-.663-.663-1.562-1.035-2.499-1.035s-1.836.372-2.499 1.035c-1.036 1.036-2.001 2.001-2.001 2.001" fill="none" stroke="#7b24cc" stroke-linecap="round" stroke-miterlimit="2" stroke-width="2"/></g></g></svg>