<?xml version="1.0" encoding="UTF-8" standalone="no"?><!DOCTYPE svg PUBLIC "-//W3C//DTD SVG 1.1//EN" "http://www.w3.org/Graphics/SVG/1.1/DTD/svg11.dtd"><svg width="100%" height="100%" viewBox="0 0 32 32" version="1.1" xmlns="http://www.w3.org/2000/svg" xmlns:xlink="http://www.w3.org/1999/xlink" xml:space="preserve" style="fill-rule:evenodd;clip-rule:evenodd;stroke-linejoin:round;stroke-miterlimit:1.41421;">
<metadata>
<rdf:RDF xmlns:cc="http://web.resource.org/cc/"
         xmlns:rdf="http://www.w3.org/1999/02/22-rdf-syntax-ns#"
         xmlns:dc = "http://purl.org/dc/elements/1.1/"
         >

     <rdf:Description rdf:about="">
       <dc:title>Mutant Standard emoji v0.2.4</dc:title>
     </rdf:Description>

    <cc:work rdf:about="">
        <cc:license rdf:resource="http://creativecommons.org/licenses/by-nc-sa/4.0/"/>
        <cc:attributionName>Dzuk</cc:attributionName>
        <cc:attributionURL>http://mutant.tech/</cc:attributionURL>
    </cc:work>

</rdf:RDF>
</metadata>
<rect id="calendar_spiral" x="0" y="0" width="32" height="32" style="fill:none;"/><g id="outline"><path d="M20,0.766c0.25,-0.225 0.538,-0.408 0.852,-0.538c0.226,-0.094 0.463,-0.16 0.705,-0.196c0.13,-0.019 0.163,-0.019 0.294,-0.029c0.149,-0.004 0.148,-0.004 0.298,0c0.131,0.01 0.164,0.01 0.294,0.029c0.242,0.036 0.479,0.102 0.705,0.196c0.314,0.13 0.602,0.313 0.852,0.538c0.25,-0.225 0.538,-0.408 0.852,-0.538c0.226,-0.094 0.463,-0.16 0.705,-0.196c0.13,-0.019 0.163,-0.019 0.294,-0.029c0.149,-0.004 0.148,-0.004 0.298,0c0.131,0.01 0.164,0.01 0.294,0.029c0.242,0.036 0.479,0.102 0.705,0.196c0.823,0.341 1.464,1.047 1.723,1.899c0.084,0.277 0.122,0.56 0.129,0.848l0,0.025l2,0l0,29l-30,0l0,-29l2,0l0,-0.025c0.007,-0.288 0.045,-0.571 0.129,-0.848c0.259,-0.852 0.9,-1.558 1.723,-1.899c0.226,-0.094 0.463,-0.16 0.705,-0.196c0.13,-0.019 0.163,-0.019 0.294,-0.029c0.15,-0.004 0.149,-0.004 0.298,0c0.131,0.01 0.164,0.01 0.294,0.029c0.242,0.036 0.479,0.102 0.705,0.196c0.314,0.13 0.602,0.313 0.852,0.538c0.25,-0.225 0.538,-0.408 0.852,-0.538c0.226,-0.094 0.463,-0.16 0.705,-0.196c0.13,-0.019 0.163,-0.019 0.294,-0.029c0.149,-0.004 0.148,-0.004 0.298,0c0.131,0.01 0.164,0.01 0.294,0.029c0.242,0.036 0.479,0.102 0.705,0.196c0.314,0.13 0.602,0.313 0.852,0.538c0.25,-0.225 0.538,-0.408 0.852,-0.538c0.226,-0.094 0.463,-0.16 0.705,-0.196c0.13,-0.019 0.163,-0.019 0.294,-0.029c0.149,-0.004 0.148,-0.004 0.298,0c0.131,0.01 0.164,0.01 0.294,0.029c0.242,0.036 0.479,0.102 0.705,0.196c0.314,0.13 0.602,0.313 0.852,0.538c0.25,-0.225 0.538,-0.408 0.852,-0.538c0.226,-0.094 0.463,-0.16 0.705,-0.196c0.13,-0.019 0.163,-0.019 0.294,-0.029c0.15,-0.004 0.149,-0.004 0.298,0c0.131,0.01 0.164,0.01 0.294,0.029c0.242,0.036 0.479,0.102 0.705,0.196c0.314,0.13 0.602,0.313 0.852,0.538Z"/></g><g id="emoji"><path d="M29,5l-26,0l0,20l1,1l24,0l1,-1l0,-20Z" style="fill:#fff;"/><rect x="4" y="10" width="4" height="4" style="fill:#808080;"/><rect x="3" y="25" width="26" height="5" style="fill:#808080;"/><rect x="9" y="10" width="4" height="4" style="fill:#808080;"/><rect x="14" y="10" width="4" height="4" style="fill:#808080;"/><rect x="19" y="10" width="4" height="4" style="fill:#808080;"/><rect x="24" y="10" width="4" height="4" style="fill:#808080;"/><rect x="4" y="15" width="4" height="4" style="fill:#808080;"/><rect x="9" y="15" width="4" height="4" style="fill:#808080;"/><rect x="14" y="15" width="4" height="4" style="fill:#808080;"/><rect x="19" y="15" width="4" height="4" style="fill:#808080;"/><rect x="24" y="15" width="4" height="4" style="fill:#808080;"/><rect x="4" y="20" width="4" height="4" style="fill:#808080;"/><rect x="9" y="20" width="4" height="4" style="fill:#808080;"/><rect x="14" y="20" width="4" height="4" style="fill:#808080;"/><path d="M7,3c0,-0.265 -0.105,-0.52 -0.293,-0.707c-0.187,-0.188 -0.442,-0.293 -0.707,-0.293c0,0 0,0 0,0c-0.265,0 -0.52,0.105 -0.707,0.293c-0.188,0.187 -0.293,0.442 -0.293,0.707c0,1.11 0,2.89 0,4c0,0.265 0.105,0.52 0.293,0.707c0.187,0.188 0.442,0.293 0.707,0.293c0,0 0,0 0,0c0.265,0 0.52,-0.105 0.707,-0.293c0.188,-0.187 0.293,-0.442 0.293,-0.707c0,-1.11 0,-2.89 0,-4Z" style="fill:#666;"/><path d="M11,3c0,-0.265 -0.105,-0.52 -0.293,-0.707c-0.187,-0.188 -0.442,-0.293 -0.707,-0.293c0,0 0,0 0,0c-0.265,0 -0.52,0.105 -0.707,0.293c-0.188,0.187 -0.293,0.442 -0.293,0.707c0,1.11 0,2.89 0,4c0,0.265 0.105,0.52 0.293,0.707c0.187,0.188 0.442,0.293 0.707,0.293c0,0 0,0 0,0c0.265,0 0.52,-0.105 0.707,-0.293c0.188,-0.187 0.293,-0.442 0.293,-0.707c0,-1.11 0,-2.89 0,-4Z" style="fill:#666;"/><path d="M19,3c0,-0.265 -0.105,-0.52 -0.293,-0.707c-0.187,-0.188 -0.442,-0.293 -0.707,-0.293c0,0 0,0 0,0c-0.265,0 -0.52,0.105 -0.707,0.293c-0.188,0.187 -0.293,0.442 -0.293,0.707c0,1.11 0,2.89 0,4c0,0.265 0.105,0.52 0.293,0.707c0.187,0.188 0.442,0.293 0.707,0.293c0,0 0,0 0,0c0.265,0 0.52,-0.105 0.707,-0.293c0.188,-0.187 0.293,-0.442 0.293,-0.707c0,-1.11 0,-2.89 0,-4Z" style="fill:#666;"/><path d="M15,3c0,-0.265 -0.105,-0.52 -0.293,-0.707c-0.187,-0.188 -0.442,-0.293 -0.707,-0.293c0,0 0,0 0,0c-0.265,0 -0.52,0.105 -0.707,0.293c-0.188,0.187 -0.293,0.442 -0.293,0.707c0,1.11 0,2.89 0,4c0,0.265 0.105,0.52 0.293,0.707c0.187,0.188 0.442,0.293 0.707,0.293c0,0 0,0 0,0c0.265,0 0.52,-0.105 0.707,-0.293c0.188,-0.187 0.293,-0.442 0.293,-0.707c0,-1.11 0,-2.89 0,-4Z" style="fill:#666;"/><path d="M23,3c0,-0.265 -0.105,-0.52 -0.293,-0.707c-0.187,-0.188 -0.442,-0.293 -0.707,-0.293c0,0 0,0 0,0c-0.265,0 -0.52,0.105 -0.707,0.293c-0.188,0.187 -0.293,0.442 -0.293,0.707c0,1.11 0,2.89 0,4c0,0.265 0.105,0.52 0.293,0.707c0.187,0.188 0.442,0.293 0.707,0.293c0,0 0,0 0,0c0.265,0 0.52,-0.105 0.707,-0.293c0.188,-0.187 0.293,-0.442 0.293,-0.707c0,-1.11 0,-2.89 0,-4Z" style="fill:#666;"/><path d="M27,3c0,-0.265 -0.105,-0.52 -0.293,-0.707c-0.187,-0.188 -0.442,-0.293 -0.707,-0.293c0,0 0,0 0,0c-0.265,0 -0.52,0.105 -0.707,0.293c-0.188,0.187 -0.293,0.442 -0.293,0.707c0,1.11 0,2.89 0,4c0,0.265 0.105,0.52 0.293,0.707c0.187,0.188 0.442,0.293 0.707,0.293c0,0 0,0 0,0c0.265,0 0.52,-0.105 0.707,-0.293c0.188,-0.187 0.293,-0.442 0.293,-0.707c0,-1.11 0,-2.89 0,-4Z" style="fill:#666;"/></g></svg>