<?xml version="1.0" encoding="UTF-8" standalone="no"?><!DOCTYPE svg PUBLIC "-//W3C//DTD SVG 1.1//EN" "http://www.w3.org/Graphics/SVG/1.1/DTD/svg11.dtd"><svg width="100%" height="100%" viewBox="0 0 32 32" version="1.1" xmlns="http://www.w3.org/2000/svg" xmlns:xlink="http://www.w3.org/1999/xlink" xml:space="preserve" style="fill-rule:evenodd;clip-rule:evenodd;stroke-linejoin:round;stroke-miterlimit:1.41421;">
<metadata>
<rdf:RDF xmlns:cc="http://web.resource.org/cc/"
         xmlns:rdf="http://www.w3.org/1999/02/22-rdf-syntax-ns#"
         xmlns:dc = "http://purl.org/dc/elements/1.1/"
         >

     <rdf:Description rdf:about="">
       <dc:title>Mutant Standard emoji v0.2.5</dc:title>
     </rdf:Description>

    <cc:work rdf:about="">
        <cc:license rdf:resource="http://creativecommons.org/licenses/by-nc-sa/4.0/"/>
        <cc:attributionName>Dzuk</cc:attributionName>
        <cc:attributionURL>http://mutant.tech/</cc:attributionURL>
    </cc:work>

</rdf:RDF>
</metadata>
<rect id="spiral_notebook" x="0" y="0" width="32" height="32" style="fill:none;"/><clipPath id="_clip1"><rect x="0" y="0" width="32" height="32"/></clipPath><g clip-path="url(#_clip1)"><g id="outline"><path d="M10,0.766c0.25,-0.225 0.538,-0.408 0.852,-0.538c0.226,-0.094 0.463,-0.16 0.705,-0.196c0.13,-0.019 0.163,-0.019 0.294,-0.029c0.15,-0.004 0.149,-0.004 0.298,0c0.131,0.01 0.164,0.01 0.294,0.029c0.242,0.036 0.479,0.102 0.705,0.196c0.314,0.13 0.602,0.313 0.852,0.538c0.25,-0.225 0.538,-0.408 0.852,-0.538c0.226,-0.094 0.463,-0.16 0.705,-0.196c0.13,-0.019 0.163,-0.019 0.294,-0.029c0.149,-0.004 0.148,-0.004 0.298,0c0.131,0.01 0.164,0.01 0.294,0.029c0.242,0.036 0.479,0.102 0.705,0.196c0.314,0.13 0.602,0.313 0.852,0.538c0.25,-0.225 0.538,-0.408 0.852,-0.538c0.226,-0.094 0.463,-0.16 0.705,-0.196c0.13,-0.019 0.163,-0.019 0.294,-0.029c0.15,-0.004 0.149,-0.004 0.298,0c0.131,0.01 0.164,0.01 0.294,0.029c0.242,0.036 0.479,0.102 0.705,0.196c0.314,0.13 0.602,0.313 0.852,0.538c0.25,-0.225 0.538,-0.408 0.852,-0.538c0.226,-0.094 0.463,-0.16 0.705,-0.196c0.13,-0.019 0.163,-0.019 0.294,-0.029c0.149,-0.004 0.148,-0.004 0.298,0c0.131,0.01 0.164,0.01 0.294,0.029c0.242,0.036 0.479,0.102 0.705,0.196c0.777,0.321 1.394,0.969 1.677,1.76c0.083,0.231 0.137,0.472 0.161,0.716c0.012,0.126 0.011,0.151 0.014,0.271l0,0.025l2,0l0,29l-26,0l0,-29l2,0l0,-0.025c0.003,-0.12 0.002,-0.145 0.014,-0.271c0.024,-0.244 0.078,-0.485 0.161,-0.716c0.283,-0.791 0.9,-1.439 1.677,-1.76c0.226,-0.094 0.463,-0.16 0.705,-0.196c0.13,-0.019 0.163,-0.019 0.294,-0.029c0.15,-0.004 0.149,-0.004 0.298,0c0.131,0.01 0.164,0.01 0.294,0.029c0.242,0.036 0.479,0.102 0.705,0.196c0.314,0.13 0.602,0.313 0.852,0.538Z"/></g><g id="emoji"><rect x="5" y="5" width="22" height="25" style="fill:#fff;"/><rect x="7" y="5" width="1" height="25" style="fill:#e39fd0;"/><g><rect x="5" y="11" width="22" height="1" style="fill:#9fb9e3;"/><rect x="5" y="15" width="22" height="1" style="fill:#9fb9e3;"/><rect x="5" y="19" width="22" height="1" style="fill:#9fb9e3;"/><rect x="5" y="23" width="22" height="1" style="fill:#9fb9e3;"/><rect x="5" y="27" width="22" height="1" style="fill:#9fb9e3;"/></g><path d="M9,3c0,-0.265 -0.105,-0.52 -0.293,-0.707c-0.187,-0.188 -0.442,-0.293 -0.707,-0.293c0,0 0,0 0,0c-0.265,0 -0.52,0.105 -0.707,0.293c-0.188,0.187 -0.293,0.442 -0.293,0.707c0,1.11 0,2.89 0,4c0,0.265 0.105,0.52 0.293,0.707c0.187,0.188 0.442,0.293 0.707,0.293c0,0 0,0 0,0c0.265,0 0.52,-0.105 0.707,-0.293c0.188,-0.187 0.293,-0.442 0.293,-0.707c0,-1.11 0,-2.89 0,-4Z" style="fill:#666;"/><path d="M17,3c0,-0.265 -0.105,-0.52 -0.293,-0.707c-0.187,-0.188 -0.442,-0.293 -0.707,-0.293c0,0 0,0 0,0c-0.265,0 -0.52,0.105 -0.707,0.293c-0.188,0.187 -0.293,0.442 -0.293,0.707c0,1.11 0,2.89 0,4c0,0.265 0.105,0.52 0.293,0.707c0.187,0.188 0.442,0.293 0.707,0.293c0,0 0,0 0,0c0.265,0 0.52,-0.105 0.707,-0.293c0.188,-0.187 0.293,-0.442 0.293,-0.707c0,-1.11 0,-2.89 0,-4Z" style="fill:#666;"/><path d="M13,3c0,-0.265 -0.105,-0.52 -0.293,-0.707c-0.187,-0.188 -0.442,-0.293 -0.707,-0.293c0,0 0,0 0,0c-0.265,0 -0.52,0.105 -0.707,0.293c-0.188,0.187 -0.293,0.442 -0.293,0.707c0,1.11 0,2.89 0,4c0,0.265 0.105,0.52 0.293,0.707c0.187,0.188 0.442,0.293 0.707,0.293c0,0 0,0 0,0c0.265,0 0.52,-0.105 0.707,-0.293c0.188,-0.187 0.293,-0.442 0.293,-0.707c0,-1.11 0,-2.89 0,-4Z" style="fill:#666;"/><path d="M21,3c0,-0.265 -0.105,-0.52 -0.293,-0.707c-0.187,-0.188 -0.442,-0.293 -0.707,-0.293c0,0 0,0 0,0c-0.265,0 -0.52,0.105 -0.707,0.293c-0.188,0.187 -0.293,0.442 -0.293,0.707c0,1.11 0,2.89 0,4c0,0.265 0.105,0.52 0.293,0.707c0.187,0.188 0.442,0.293 0.707,0.293c0,0 0,0 0,0c0.265,0 0.52,-0.105 0.707,-0.293c0.188,-0.187 0.293,-0.442 0.293,-0.707c0,-1.11 0,-2.89 0,-4Z" style="fill:#666;"/><path d="M25,3c0,-0.265 -0.105,-0.52 -0.293,-0.707c-0.187,-0.188 -0.442,-0.293 -0.707,-0.293c0,0 0,0 0,0c-0.265,0 -0.52,0.105 -0.707,0.293c-0.188,0.187 -0.293,0.442 -0.293,0.707c0,1.11 0,2.89 0,4c0,0.265 0.105,0.52 0.293,0.707c0.187,0.188 0.442,0.293 0.707,0.293c0,0 0,0 0,0c0.265,0 0.52,-0.105 0.707,-0.293c0.188,-0.187 0.293,-0.442 0.293,-0.707c0,-1.11 0,-2.89 0,-4Z" style="fill:#666;"/></g></g></svg>