<svg clip-rule="evenodd" fill-rule="evenodd" stroke-linejoin="round" stroke-miterlimit="1.41421" viewBox="0 0 32 32" xmlns="http://www.w3.org/2000/svg" xmlns:xlink="http://www.w3.org/1999/xlink"><clipPath id="a"><path clip-rule="evenodd" d="m0 0h32v32h-32z"/></clipPath><path d="m0 0h32v32h-32z" fill="none"/><g clip-path="url(#a)"><path d="m6.297.014.146.018.145.026.143.032.142.039.139.046.136.053.134.059.131.066.128.072.124.079.12.084.117.091.098.085.098-.085.117-.091.12-.084.124-.079.128-.072.131-.066.134-.059.136-.053.139-.046.142-.039.143-.032.145-.026.146-.018.148-.011.149-.004.149.004.147.011.147.018.145.026.143.032.142.039.139.046.136.053.134.059.131.066.128.072.124.079.12.084.117.091.098.085.098-.085.117-.091.12-.084.124-.079.128-.072.131-.066.134-.059.136-.053.139-.046.142-.039.143-.032.145-.026.147-.018.147-.011.149-.004.149.004.147.011.147.018.145.026.143.032.142.039.139.046.136.053.134.059.131.066.128.072.124.079.12.084.117.091.098.085.098-.085.117-.091.12-.084.124-.079.128-.072.131-.066.134-.059.136-.053.139-.046.142-.039.143-.032.145-.026.146-.018.148-.011.149-.004.149.004.148.011.146.018.145.026.143.032.142.039.139.046.136.053.134.059.131.066.128.072.124.079.12.084.117.091.098.085.098-.085.117-.091.12-.084.124-.079.128-.072.131-.066.134-.059.136-.053.139-.046.142-.039.143-.032.145-.026.147-.018.147-.011.149-.004.149.004.147.011.147.018.145.026.143.032.142.039.139.046.136.053.134.059.131.066.128.072.124.079.12.084.117.091.098.085.098-.085.117-.091.12-.084.124-.079.128-.072.131-.066.134-.059.136-.053.139-.046.142-.039.143-.032.145-.026.147-.018.147-.011.149-.004.149.004.147.011.147.018.145.026.143.032.142.039.139.046.136.053.134.059.131.066.128.072.124.079.12.084.117.091.112.097.108.102.102.108.097.112.091.117.084.12.079.124.072.128.066.131.059.134.053.136.046.139.039.142.032.143.026.145.018.147.011.147.003.124v.025h3v29h-32v-29h3v-.025l.003-.124.011-.147.018-.147.026-.145.032-.143.039-.142.046-.139.053-.136.059-.134.066-.131.072-.128.079-.124.084-.12.091-.117.097-.112.102-.108.108-.102.112-.097.117-.091.12-.084.124-.079.128-.072.131-.066.134-.059.136-.053.139-.046.142-.039.143-.032.145-.026.146-.018.148-.011.149-.004.149.004.148.011zm-2.297 27.986h24v-21h-24z"/><path d="m2 5h28v25h-28z" fill="#fff"/><g fill="#808080"><path d="m4 10h4v4h-4z"/><path d="m9 10h4v4h-4z"/><path d="m14 10h4v4h-4z"/><path d="m19 10h4v4h-4z"/><path d="m24 10h4v4h-4z"/><path d="m4 15h4v4h-4z"/><path d="m9 15h4v4h-4z"/><path d="m14 15h4v4h-4z"/><path d="m19 15h4v4h-4z"/><path d="m24 15h4v4h-4z"/><path d="m4 20h4v4h-4z"/><path d="m9 20h4v4h-4z"/><path d="m14 20h4v4h-4z"/><path d="m2 26h28v4h-28z"/></g><path d="m7 3c0-.265-.105-.52-.293-.707-.187-.188-.442-.293-.707-.293-.265 0-.52.105-.707.293-.188.187-.293.442-.293.707v4c0 .265.105.52.293.707.187.188.442.293.707.293.265 0 .52-.105.707-.293.188-.187.293-.442.293-.707 0-1.11 0-2.89 0-4z" fill="#666"/><path d="m11 3c0-.265-.105-.52-.293-.707-.187-.188-.442-.293-.707-.293-.265 0-.52.105-.707.293-.188.187-.293.442-.293.707v4c0 .265.105.52.293.707.187.188.442.293.707.293.265 0 .52-.105.707-.293.188-.187.293-.442.293-.707 0-1.11 0-2.89 0-4z" fill="#666"/><path d="m19 3c0-.265-.105-.52-.293-.707-.187-.188-.442-.293-.707-.293-.265 0-.52.105-.707.293-.188.187-.293.442-.293.707v4c0 .265.105.52.293.707.187.188.442.293.707.293.265 0 .52-.105.707-.293.188-.187.293-.442.293-.707 0-1.11 0-2.89 0-4z" fill="#666"/><path d="m15 3c0-.265-.105-.52-.293-.707-.187-.188-.442-.293-.707-.293-.265 0-.52.105-.707.293-.188.187-.293.442-.293.707v4c0 .265.105.52.293.707.187.188.442.293.707.293.265 0 .52-.105.707-.293.188-.187.293-.442.293-.707 0-1.11 0-2.89 0-4z" fill="#666"/><path d="m23 3c0-.265-.105-.52-.293-.707-.187-.188-.442-.293-.707-.293-.265 0-.52.105-.707.293-.188.187-.293.442-.293.707v4c0 .265.105.52.293.707.187.188.442.293.707.293.265 0 .52-.105.707-.293.188-.187.293-.442.293-.707 0-1.11 0-2.89 0-4z" fill="#666"/><path d="m27 3c0-.265-.105-.52-.293-.707-.187-.188-.442-.293-.707-.293-.265 0-.52.105-.707.293-.188.187-.293.442-.293.707v4c0 .265.105.52.293.707.187.188.442.293.707.293.265 0 .52-.105.707-.293.188-.187.293-.442.293-.707 0-1.11 0-2.89 0-4z" fill="#666"/></g></svg>