<svg clip-rule="evenodd" fill-rule="evenodd" stroke-linejoin="round" stroke-miterlimit="1.41421" viewBox="0 0 32 32" xmlns="http://www.w3.org/2000/svg" xmlns:xlink="http://www.w3.org/1999/xlink"><clipPath id="a"><path clip-rule="evenodd" d="m0 0h32v32h-32z"/></clipPath><clipPath id="b"><path clip-rule="evenodd" d="m2 6h28v20h-28z"/></clipPath><clipPath id="c"><path clip-rule="evenodd" d="m8 23v-4l-1-1v-2l-2-1-1-1v-2l-1-2v-2l4 1h3v1h-1l-1 1h2l-1 1-1 1v1h-2l2 2h2l2 2-1 2z"/></clipPath><clipPath id="d"><path clip-rule="evenodd" d="m15 9v2l-1 1h-1v1h1l1-1 1 1v-1h1v1l-1 1h-1-2l-1 1v1l1 1h1l1 1v2l1 1h1l2-5h-1v-2l1 1h1v-1l2 3 1-1 1-1v1h1l2-1 1-2-1-1 1-1h1v-2l-2-1h-4l-2 1-4-1z"/></clipPath><clipPath id="e"><path clip-rule="evenodd" d="m24 21v-1l2-2v1h1v-1l1 2v2l-1-1z"/></clipPath><path d="m0 0h32v32h-32z" fill="none"/><g clip-path="url(#a)"><path d="m0 4h32v24h-32z"/><path d="m2 6h28v20h-28z" fill="#334cec"/><g clip-path="url(#b)"><path d="m1 25h8l3-1 1 1h5l2-1h9l-1 1h3v3h-30z" fill="#fff"/><path d="m8 23v-4l-1-1v-2l-2-1-1-1v-2l-1-2v-2l4 1h3v1h-1l-1 1h2l-1 1-1 1v1h-2l2 2h2l2 2-1 2z" fill="#27b85b"/><g clip-path="url(#c)" fill="#f4c815"><path d="m5 15v-2h1v1z"/><path d="m6 17h2l1 2v5h-3z"/></g><path d="m15 9v2l-1 1h-1v1h1l1-1 1 1v-1h1v1l-1 1h-1-2l-1 1v1l1 1h1l1 1v2l1 1h1l2-5h-1v-2l1 1h1v-1l2 3 1-1 1-1v1h1l2-1 1-2-1-1 1-1h1v-2l-2-1h-4l-2 1-4-1z" fill="#27b85b"/><g clip-path="url(#d)"><path d="m11 14h4l2-2 2 1h3v1l-2 1v1l-1 2h-2l-1-2h-5z" fill="#f4c815"/></g><path d="m7 8h1l1 1v1h1l1-2-2-1z" fill="#fff"/><path d="m15 7v-1l-1 1v1h1z" fill="#fff"/><path d="m24 21v-1l2-2v1h1v-1l1 2v2l-1-1z" fill="#27b85b"/><g clip-path="url(#e)"><path d="m23 20h4v2h-4z" fill="#f4c815"/></g><g fill="#27b85b"><path d="m24 15h1v3h-1z"/><path d="m26 16h1v1h-1z"/><path d="m27 17h1v1h-1z"/><path d="m2 17h1v1h-1z"/><path d="m28 12h1v2h-1z"/><path d="m5 6h2v2h-2z"/></g></g></g></svg>