<svg clip-rule="evenodd" fill-rule="evenodd" stroke-linecap="round" stroke-linejoin="round" stroke-miterlimit="1.5" viewBox="0 0 32 32" xmlns="http://www.w3.org/2000/svg" xmlns:xlink="http://www.w3.org/1999/xlink"><clipPath id="a"><path clip-rule="evenodd" d="m0 0h32v32h-32z"/></clipPath><clipPath id="b"><path clip-rule="evenodd" d="m28 17c0-3.448-1.37-6.754-3.808-9.192s-5.744-3.808-9.192-3.808c-7.18 0-13 5.82-13 13v1.004c0 3.182 1.264 6.233 3.514 8.482 2.249 2.25 5.3 3.514 8.482 3.514h2.008c3.182 0 6.233-1.264 8.482-3.514 2.25-2.249 3.514-5.3 3.514-8.482 0-.334 0-.669 0-1.004z"/></clipPath><path d="m0 0h32v32h-32z" fill="none"/><g clip-path="url(#a)"><path d="m23.789 7.421 2.711-5.421s1.757 3.514 2.942 5.884c.632 1.264.384 2.79-.615 3.789 0 0 0 0-.001.001-.445.445-1.004.749-1.608.884.512 1.411.782 2.912.782 4.442v1.004c0 3.182-1.264 6.233-3.514 8.482-2.249 2.25-5.3 3.514-8.482 3.514-.668 0-1.34 0-2.008 0-3.182 0-6.233-1.264-8.482-3.514-2.25-2.249-3.514-5.3-3.514-8.482 0-.334 0-.669 0-1.004 0-7.18 5.82-13 13-13 3.261 0 6.396 1.225 8.789 3.421z" fill="none" stroke="#000" stroke-width="4"/><path d="m28 17c0-3.448-1.37-6.754-3.808-9.192s-5.744-3.808-9.192-3.808c-7.18 0-13 5.82-13 13v1.004c0 3.182 1.264 6.233 3.514 8.482 2.249 2.25 5.3 3.514 8.482 3.514h2.008c3.182 0 6.233-1.264 8.482-3.514 2.25-2.249 3.514-5.3 3.514-8.482 0-.334 0-.669 0-1.004z" fill="#fbc546"/><g clip-path="url(#b)"><path d="m31.235 6.999.042.086.045.096.042.097.041.097.038.098.036.098.035.099.032.099.03.1.028.099.027.101.024.101.022.101.02.101.018.101.016.101.014.102.013.102.01.102.008.102.006.102.004.102.002.101.001.102-.002.102-.004.102-.005.101-.008.101-.009.102-.012.1-.013.101-.016.1-.017.1-.019.099-.021.1-.023.099-.025.098-.026.098-.029.098-.031.097-.032.096-.034.096-.037.096-.038.094-.039.094-.042.094-.044.093-.046.092-.047.091-.049.09-.051.09-.053.089-.055.087-.056.087-.059.086-.06.085-.062.084-.064.083-.065.082-.068.08-.069.08-.071.078-.072.077-.064.066-.017.016-.088.087-.096.089-.098.086-.1.084-.102.082-.104.078-.105.076-.107.074-.109.07-.11.068-.112.065-.113.062-.115.06-.116.056-.117.054-.118.051-.12.048-.121.045-.122.042-.123.039-.124.036-.125.033-.126.03-.127.027-.128.024-.128.02-.129.018-.129.015-.13.011-.131.008-.131.005-.131.001-.131-.001-.131-.005-.131-.008-.13-.011-.129-.015-.129-.018-.128-.02-.128-.024-.127-.027-.126-.03-.125-.033-.124-.036-.123-.039-.122-.042-.121-.045-.119-.048-.119-.051-.117-.054-.116-.056-.115-.06-.113-.062-.112-.065-.11-.068-.109-.07-.107-.074-.105-.076-.104-.078-.102-.082-.1-.084-.098-.086-.096-.089-.088-.086-.017-.017-.064-.066-.073-.077-.07-.078-.069-.08-.068-.08-.065-.082-.064-.083-.062-.084-.06-.085-.059-.086-.056-.087-.055-.087-.053-.089-.051-.09-.049-.09-.047-.091-.046-.092-.044-.093-.042-.094-.04-.094-.037-.094-.037-.096-.034-.096-.032-.096-.031-.097-.029-.098-.026-.098-.025-.098-.023-.099-.021-.099-.019-.1-.017-.1-.016-.1-.013-.101-.012-.1-.009-.102-.008-.101-.005-.101-.004-.102-.002-.102.001-.102.002-.101.004-.102.006-.102.008-.102.01-.102.013-.102.014-.102.016-.101.018-.101.02-.101.022-.101.024-.101.027-.101.028-.099.03-.1.032-.099.034-.099.037-.098.038-.098.041-.097.042-.097.045-.096.042-.086 3.999-7.999h1.472l3.999 7.999zm-5.884 1.771-.016.032-.011.024-.01.023-.01.024-.009.024-.009.024-.008.024-.008.023-.007.024-.007.025-.006.024-.006.024-.006.025-.004.024-.005.024-.004.025-.003.025-.003.024-.002.025-.002.024-.002.025-.001.025v.025l-.001.025.001.024.001.025.001.025.002.024.002.025.003.024.003.025.004.024.004.025.005.024.005.024.006.024.006.024.006.024.007.024.008.024.008.023.008.023.009.023.009.024.01.022.01.023.01.022.011.022.011.022.012.022.013.022.013.021.013.021.013.021.014.021.015.02.015.021.015.02.017.02.016.019.016.02.018.019.018.019.017.017.025.025.024.022.023.021.025.02.024.02.026.019.025.018.026.018.027.018.027.016.027.016.028.015.028.015.028.013.028.013.029.013.03.012.029.011.03.01.03.009.03.009.031.008.03.008.031.006.031.006.031.005.032.004.031.004.032.003.032.002.032.001h.032.032l.032-.001.032-.002.032-.003.031-.004.031-.004.032-.005.031-.006.031-.006.03-.008.031-.008.03-.009.03-.009.03-.01.03-.011.029-.012.028-.012.029-.014.028-.013.028-.015.028-.015.027-.016.027-.017.027-.017.026-.017.025-.019.026-.019.024-.02.025-.021.024-.021.023-.021.025-.025.017-.017.018-.019.018-.019.016-.02.017-.019.016-.02.015-.02.015-.021.015-.02.014-.021.013-.021.013-.021.013-.021.013-.022.011-.022.012-.022.011-.022.01-.022.01-.023.01-.022.009-.024.009-.023.008-.023.008-.023.008-.024.007-.024.006-.024.006-.024.006-.024.005-.024.005-.024.004-.025.004-.024.003-.025.003-.024.002-.025.002-.024.001-.025.001-.025.001-.024-.001-.025v-.025l-.001-.025-.002-.025-.002-.024-.002-.025-.003-.024-.003-.025-.004-.025-.005-.024-.004-.024-.006-.025-.006-.024-.006-.024-.007-.025-.007-.024-.008-.023-.008-.024-.009-.024-.009-.024-.01-.024-.01-.023-.011-.024-.016-.032-1.149-2.298z" fill="#e59a10"/></g><path d="m24.207 11.793.031.032.029.033.027.035.027.035.024.037.023.038.021.039.019.04.018.04.016.042.014.042.012.042.01.043.008.044.007.044.004.044.002.044.001.044-.002.044-.003.044-.005.044-.008.044-.009.043-.011.043-.013.042-.015.042-.017.041-.018.04-.02.039-.022.039-.024.037-.025.037-.027.035-.029.034-.029.032-.032.032-.032.029-.034.029-.035.027-.037.025-.037.024-.039.022-.039.02-.04.018-.041.017-.042.015-.042.013-.043.011-.043.009-.044.008-.044.005-.044.003-.044.002-.044-.001-.044-.002-.044-.004-.044-.007-.044-.008-.043-.01-.042-.012-.042-.014-.042-.016-.04-.018-.04-.019-.039-.021-.038-.023-.037-.024-.035-.027-.035-.027-.033-.029-.032-.031-1.793-1.793-1.793 1.793-.032.031-.033.029-.035.027-.035.027-.037.024-.038.023-.039.021-.04.019-.04.018-.042.016-.042.014-.042.012-.043.01-.044.008-.044.007-.044.004-.044.002-.044.001-.044-.002-.044-.003-.044-.005-.044-.008-.043-.009-.043-.011-.042-.013-.042-.015-.041-.017-.04-.018-.039-.02-.039-.022-.037-.024-.037-.025-.035-.027-.034-.029-.032-.029-.032-.032-.029-.032-.029-.034-.027-.035-.025-.037-.024-.037-.022-.039-.02-.039-.018-.04-.017-.041-.015-.042-.013-.042-.011-.043-.009-.043-.008-.044-.005-.044-.003-.044-.002-.044.001-.044.002-.044.004-.044.007-.044.008-.044.01-.043.012-.042.014-.042.016-.042.018-.04.019-.04.021-.039.023-.038.024-.037.027-.035.027-.035.029-.033.031-.032 3.207-3.207z"/><path d="m12.207 11.793.031.032.029.033.027.035.027.035.024.037.023.038.021.039.019.04.018.04.016.042.014.042.012.042.01.043.008.044.007.044.004.044.002.044.001.044-.002.044-.003.044-.005.044-.008.044-.009.043-.011.043-.013.042-.015.042-.017.041-.018.04-.02.039-.022.039-.024.037-.025.037-.027.035-.029.034-.029.032-.032.032-.032.029-.034.029-.035.027-.037.025-.037.024-.039.022-.039.02-.04.018-.041.017-.042.015-.042.013-.043.011-.043.009-.044.008-.044.005-.044.003-.044.002-.044-.001-.044-.002-.044-.004-.044-.007-.044-.008-.043-.01-.042-.012-.042-.014-.042-.016-.04-.018-.04-.019-.039-.021-.038-.023-.037-.024-.035-.027-.035-.027-.033-.029-.032-.031-1.793-1.793-1.793 1.793-.032.031-.033.029-.035.027-.035.027-.037.024-.038.023-.039.021-.04.019-.04.018-.042.016-.042.014-.042.012-.043.01-.044.008-.044.007-.044.004-.044.002-.044.001-.044-.002-.044-.003-.044-.005-.044-.008-.043-.009-.043-.011-.042-.013-.042-.015-.041-.017-.04-.018-.039-.02-.039-.022-.037-.024-.037-.025-.035-.027-.034-.029-.032-.029-.032-.032-.029-.032-.029-.034-.027-.035-.025-.037-.024-.037-.022-.039-.02-.039-.018-.04-.017-.041-.015-.042-.013-.042-.011-.043-.009-.043-.008-.044-.005-.044-.003-.044-.002-.044.001-.044.002-.044.004-.044.007-.044.008-.044.01-.043.012-.042.014-.042.016-.042.018-.04.019-.04.021-.039.023-.038.024-.037.027-.035.027-.035.029-.033.031-.032 3.207-3.207z"/><path d="m26.5 2s-1.757 3.514-2.942 5.884c-.632 1.264-.384 2.79.615 3.789 0 0 0 0 .001.001.617.617 1.453.963 2.326.963s1.709-.346 2.326-.963c.001-.001.001-.001.001-.001.999-.999 1.247-2.525.615-3.789-1.185-2.37-2.942-5.884-2.942-5.884z" fill="#fff"/><path d="m8.988 22.853c-2.008-1.644-3.332-4.093-3.475-6.853h18.974c-.143 2.76-1.467 5.209-3.475 6.853-1.107-1.157-10.917-1.157-12.024 0z" fill="#722245"/><path d="m8.988 22.853c1.107-1.157 2.661-1.853 4.337-1.853h3.35c1.676 0 3.23.696 4.337 1.853-1.638 1.342-3.732 2.147-6.012 2.147s-4.374-.805-6.012-2.147z" fill="#ca3b8f"/></g></svg>