<svg clip-rule="evenodd" fill-rule="evenodd" stroke-linejoin="round" stroke-miterlimit="1.41421" viewBox="0 0 32 32" xmlns="http://www.w3.org/2000/svg" xmlns:xlink="http://www.w3.org/1999/xlink"><clipPath id="a"><path clip-rule="evenodd" d="m0 0h32v32h-32z"/></clipPath><path d="m0 0h32v32h-32z" fill="none"/><g clip-path="url(#a)"><path d="m16.206 2.001.206.004.205.007.205.009.204.011.203.015.202.016.202.019.202.022.2.024.2.027.199.029.198.032.198.034.197.036.195.039.195.041.195.044.193.046.192.048.192.05.19.053.19.055.188.058.188.059.186.062.186.064.184.066.184.069.182.07.181.073.181.075.179.077.177.079.177.081.176.084.174.085.173.087.172.09.171.091.169.094.169.095.166.097.166.1.164.101.163.103.162.105.16.107.159.109.158.11.155.112.155.115.154.116.151.117.15.12.149.121.148.123.146.125.144.127.142.128.142.13.139.131.138.133.137.135.135.137.133.138.131.139.13.142.128.142.127.145.125.145.123.148.121.148.12.151.117.152.116.153.115.154.112.157.111.157.108.159.107.16.105.162.103.163.101.164.1.166.097.166.095.169.094.169.091.171.09.172.087.173.085.174.083.176.082.177.079.178.077.178.075.181.073.181.07.182.069.184.066.184.064.186.062.186.059.188.058.188.055.19.053.19.05.192.048.192.046.193.044.195.041.194.039.196.036.197.034.198.032.198.029.199.027.2.024.2.022.202.019.201.016.203.015.203.011.204.009.205.007.205.004.206.001.205-.001.145-.002.144-.004.143-.005.143-.006.143-.008.143-.009.142-.011.142-.012.141-.014.141-.015.141-.016.14-.018.14-.019.139-.021.139-.021.139-.024.138-.024.138-.026.137-.027.137-.029.136-.03.136-.031.135-.032.135-.034.135-.035.133-.036.134-.01.033.016.073.017.084.016.083.013.084.013.083.011.085.01.084.008.084.007.085.005.084.004.085.003.084.001.084v.085l-.002.085-.003.084-.005.085-.006.084-.007.084-.009.084-.011.084-.011.084-.013.084-.015.084-.016.083-.017.082-.019.083-.021.083-.021.082-.024.083-.024.082-.026.081-.027.081-.029.081-.03.079-.032.08-.033.08-.035.079-.036.078-.037.079-.039.077-.04.076-.041.077-.044.076-.044.075-.046.075-.047.073-.049.074-.049.072-.052.072-.053.071-.053.07-.057.07-.056.068-.052.061-.043.049-.068.076-.077.082-.079.08-.08.079-.082.076-.083.074-.084.072-.086.07-.087.068-.089.066-.089.064-.091.061-.092.06-.093.057-.094.055-.094.053-.096.05-.097.049-.097.046-.099.044-.098.042-.1.04-.101.037-.101.036-.07.022-.055.057-.127.13-.13.129-.131.127-.133.125-.135.123-.136.122-.138.12-.139.118-.141.116-.142.115-.144.112-.146.111-.147.109-.148.107-.15.106-.152.103-.152.101-.154.1-.156.097-.157.096-.158.093-.16.092-.161.089-.162.087-.164.086-.164.083-.166.081-.167.079-.169.077-.17.075-.171.072-.172.07-.173.068-.174.066-.175.064-.177.061-.177.059-.179.057-.18.054-.18.052-.182.05-.182.047-.184.045-.184.042-.186.04-.186.038-.187.035-.188.033-.188.03-.19.027-.19.025-.191.023-.192.02-.193.017-.193.015-.194.012-.194.009-.195.007-.196.004-.189.001h-4.014l-.189-.001-.196-.004-.195-.007-.194-.009-.194-.012-.193-.015-.193-.017-.192-.02-.191-.023-.19-.025-.19-.027-.188-.03-.188-.033-.187-.035-.186-.038-.186-.04-.184-.042-.184-.045-.182-.047-.182-.05-.18-.052-.18-.054-.179-.057-.177-.059-.177-.061-.175-.064-.174-.066-.173-.068-.172-.07-.171-.072-.17-.075-.169-.077-.167-.079-.166-.081-.164-.083-.164-.086-.162-.087-.161-.089-.16-.092-.158-.093-.157-.096-.156-.097-.154-.1-.152-.101-.152-.103-.15-.106-.148-.107-.147-.109-.146-.111-.144-.112-.142-.115-.141-.116-.139-.118-.138-.12-.136-.122-.135-.123-.133-.125-.131-.127-.13-.129-.128-.13-.054-.057-.07-.022-.101-.036-.101-.037-.1-.04-.098-.042-.099-.044-.097-.046-.097-.049-.096-.05-.095-.053-.093-.055-.093-.057-.092-.06-.091-.061-.09-.064-.088-.066-.087-.068-.086-.07-.084-.072-.084-.074-.081-.076-.08-.079-.079-.08-.077-.082-.068-.076-.043-.049-.052-.061-.057-.069-.055-.069-.054-.07-.053-.071-.051-.072-.05-.072-.049-.074-.047-.073-.046-.075-.045-.075-.043-.076-.041-.077-.04-.076-.039-.077-.037-.079-.036-.078-.035-.079-.033-.08-.032-.08-.03-.079-.029-.081-.027-.081-.026-.081-.025-.083-.023-.082-.021-.081-.021-.084-.019-.083-.017-.082-.016-.083-.015-.084-.013-.084-.011-.084-.011-.084-.009-.084-.007-.084-.006-.084-.005-.085-.003-.084-.002-.085v-.085l.001-.084.003-.084.004-.085.005-.085.007-.084.008-.084.01-.084.011-.084.013-.084.013-.084.016-.083.017-.084.016-.073-.01-.033-.036-.134-.035-.133-.034-.135-.032-.135-.031-.135-.03-.136-.029-.136-.027-.137-.026-.137-.024-.138-.024-.138-.021-.139-.021-.139-.019-.139-.018-.14-.016-.14-.015-.141-.014-.141-.012-.141-.011-.142-.009-.142-.008-.142-.006-.144-.005-.143-.004-.143-.002-.144-.001-.145.001-.205.004-.206.007-.205.009-.205.011-.204.015-.203.016-.203.019-.201.022-.202.024-.2.027-.2.029-.199.032-.198.034-.198.036-.197.039-.196.041-.194.044-.195.046-.193.048-.192.05-.192.053-.19.055-.19.058-.188.059-.188.062-.186.064-.186.066-.184.069-.184.07-.182.073-.181.075-.181.077-.178.079-.179.082-.176.083-.176.085-.174.087-.173.09-.172.091-.171.094-.169.095-.169.097-.166.1-.166.101-.164.103-.163.105-.162.107-.16.108-.159.111-.158.112-.156.115-.154.116-.153.117-.152.12-.151.121-.148.123-.148.125-.145.127-.145.128-.142.13-.142.131-.139.133-.138.135-.137.137-.135.138-.133.139-.131.142-.13.142-.128.145-.127.145-.125.148-.123.149-.121.15-.12.151-.117.154-.116.155-.115.155-.112.158-.111.159-.108.16-.107.162-.105.163-.103.164-.101.165-.1.167-.097.169-.095.169-.094.171-.091.172-.09.173-.087.174-.085.176-.084.177-.081.177-.079.179-.077.181-.075.181-.073.182-.07.184-.069.184-.066.186-.064.186-.062.188-.059.188-.058.19-.055.19-.053.192-.05.192-.048.193-.046.195-.044.195-.041.195-.039.197-.036.198-.034.198-.032.199-.029.2-.027.2-.024.201-.022.203-.019.202-.016.203-.015.204-.011.205-.009.205-.007.206-.004.2-.001h.012l.2.001zm-.362 4-.155.003-.154.005-.154.007-.154.008-.152.011-.153.013-.151.014-.151.016-.151.019-.15.02-.149.021-.149.024-.148.026-.147.027-.147.029-.146.031-.145.032-.145.035-.143.036-.144.038-.142.039-.142.041-.141.043-.14.045-.14.046-.139.048-.138.05-.137.051-.137.053-.136.054-.134.056-.134.058-.134.059-.132.061-.131.062-.131.064-.13.066-.129.067-.128.068-.127.07-.126.072-.125.073-.124.074-.123.076-.122.077-.122.079-.12.08-.119.082-.118.083-.118.084-.116.086-.115.087-.114.089-.113.089-.111.091-.111.093-.109.094-.109.095-.107.096-.106.098-.105.098-.104.101-.102.101-.101.102-.101.104-.098.105-.098.106-.096.107-.095.109-.094.109-.093.111-.091.112-.089.112-.089.114-.087.115-.086.116-.084.118-.083.118-.082.119-.08.12-.079.122-.077.122-.076.123-.074.124-.073.125-.072.126-.07.127-.068.129-.067.128-.066.13-.064.131-.062.131-.061.133-.059.133-.058.134-.056.135-.054.135-.053.137-.051.137-.05.138-.048.139-.046.14-.045.14-.043.141-.041.142-.039.142-.038.144-.036.143-.035.145-.032.145-.031.147-.029.146-.027.147-.026.148-.024.149-.021.149-.02.15-.019.151-.016.151-.014.151-.013.153-.011.152-.008.154-.007.154-.005.154-.003.155-.001.157.001.103.001.103.003.103.003.103.005.102.006.102.006.102.008.102.009.101.01.101.01.1.012.101.013.099.013.1.015.099.015.099.017.099.018.098.018.098.019.097.021.097.021.097.022.097.023.096.024.095.026.096.025.095.027.094.028.095.028.094.03.093.255.782-.271.698-.006.016-.006.017-.005.016-.005.016-.005.016-.004.016-.005.017-.004.017-.003.016-.003.016-.004.017-.002.017-.003.017-.002.017-.002.017-.002.017-.001.017-.001.017-.001.017-.001.017v.017.017l.001.017v.017l.001.017.001.017.002.017.002.017.002.017.002.017.003.017.003.016.003.017.004.017.003.017.004.016.005.017.004.016.005.015.005.017.006.016.005.016.007.017.006.016.006.014.007.016.007.016.008.015.007.015.008.016.008.015.009.015.009.015.009.014.009.015.01.015.01.014.01.015.011.014.011.015.011.014.012.013.018.021.016.019.023.026.016.016.016.017.016.016.017.015.016.015.017.014.017.014.017.014.018.013.017.012.018.012.018.012.018.011.019.011.019.011.018.01.02.009.019.009.019.009.02.008.02.008.02.008.02.007.021.006.02.007.021.005.02.006.021.005.022.004.021.004.74.123.565.638.088.097.089.095.09.095.092.093.093.092.094.091.095.089.096.089.098.087.098.085.1.085.101.083.102.082.103.081.104.079.105.078.106.077.107.075.108.074.109.072.111.071.111.07.112.068.113.067.114.065.115.064.115.062.117.061.118.059.118.058.119.057.12.054.121.054.122.051.123.05.123.049.124.047.125.045.126.044.127.042.127.04.128.039.128.037.13.035.13.034.13.032.132.03.132.029.133.027.133.025.134.023.135.021.135.02.136.018.137.016.137.014.138.012.138.011.139.009.139.006.14.005.141.003.148.001h3.986l.148-.001.141-.003.14-.005.139-.006.139-.009.138-.011.138-.012.137-.014.137-.016.136-.018.135-.02.135-.021.134-.023.133-.025.133-.027.132-.029.132-.03.13-.032.13-.034.13-.035.128-.037.128-.039.128-.04.126-.042.126-.044.125-.045.124-.047.123-.049.123-.05.122-.051.121-.054.12-.054.119-.057.118-.058.118-.059.117-.061.115-.062.115-.064.114-.065.113-.067.112-.068.111-.07.111-.071.109-.072.108-.074.107-.075.106-.077.105-.078.104-.079.103-.081.102-.082.101-.083.1-.085.098-.085.098-.087.096-.089.095-.089.094-.091.093-.092.092-.093.09-.095.089-.095.088-.097.565-.638.74-.123.022-.004.021-.004.02-.005.021-.006.021-.005.021-.007.02-.006.02-.007.02-.008.02-.008.02-.008.019-.009.019-.009.02-.009.018-.01.019-.011.019-.011.018-.011.018-.012.018-.012.017-.012.018-.013.017-.014.017-.014.017-.014.017-.015.016-.015.016-.016.016-.017.016-.016.023-.026.016-.019.018-.021.012-.014.011-.013.011-.015.011-.014.01-.014.01-.015.01-.015.009-.015.009-.014.009-.015.008-.015.009-.015.008-.016.007-.015.008-.015.007-.016.007-.016.006-.014.006-.016.007-.017.005-.016.006-.016.005-.017.005-.016.004-.015.005-.017.004-.016.003-.017.004-.017.003-.017.003-.016.003-.017.002-.017.002-.017.002-.017.002-.017.001-.017.001-.017v-.017l.001-.017v-.017-.017l-.001-.017-.001-.017-.001-.018-.001-.016-.002-.017-.002-.017-.002-.016-.003-.018-.002-.017-.004-.017-.003-.016-.004-.017-.003-.016-.005-.016-.004-.017-.005-.016-.005-.016-.005-.016-.006-.017-.006-.016-.271-.698.255-.782.029-.093.029-.094.028-.095.027-.094.026-.095.025-.096.024-.095.023-.096.022-.097.021-.096.021-.098.019-.097.018-.098.018-.098.017-.099.015-.099.015-.099.013-.1.013-.099.012-.101.01-.1.01-.101.009-.101.008-.102.006-.102.006-.102.005-.102.003-.103.003-.103.001-.104.001-.102-.001-.157-.003-.155-.005-.154-.007-.154-.008-.154-.011-.152-.013-.153-.014-.151-.016-.152-.019-.15-.02-.15-.021-.149-.024-.149-.026-.148-.027-.147-.029-.146-.031-.147-.032-.145-.035-.145-.036-.144-.038-.143-.039-.142-.041-.142-.043-.141-.045-.14-.046-.14-.048-.139-.05-.138-.051-.137-.053-.137-.054-.135-.056-.135-.058-.134-.059-.134-.061-.132-.062-.131-.064-.131-.066-.13-.067-.128-.068-.128-.07-.128-.072-.126-.073-.125-.074-.124-.076-.123-.077-.122-.079-.122-.08-.12-.082-.119-.083-.118-.084-.118-.086-.116-.087-.115-.089-.114-.089-.112-.091-.112-.093-.111-.094-.109-.095-.109-.096-.107-.098-.106-.098-.105-.101-.104-.101-.102-.102-.101-.104-.101-.105-.098-.106-.098-.107-.096-.109-.095-.109-.094-.111-.092-.111-.092-.113-.089-.114-.089-.115-.087-.116-.086-.118-.084-.118-.083-.119-.082-.12-.08-.122-.079-.122-.077-.123-.076-.124-.074-.125-.073-.126-.072-.127-.07-.128-.068-.129-.067-.13-.066-.131-.064-.131-.062-.132-.061-.134-.059-.134-.058-.134-.056-.136-.054-.137-.053-.137-.051-.138-.05-.139-.048-.139-.046-.141-.045-.141-.043-.142-.041-.142-.039-.144-.038-.143-.036-.145-.035-.146-.032-.145-.031-.147-.029-.147-.027-.148-.026-.149-.024-.149-.021-.15-.02-.151-.019-.151-.016-.151-.014-.153-.013-.152-.011-.154-.008-.154-.007-.154-.005-.155-.003-.156-.001-.156.001z"/><path d="m2.818 22.363c-.528-1.352-.818-2.824-.818-4.363 0-7.732 6.268-14 14-14 7.732 0 14 6.268 14 14 0 1.539-.29 3.011-.818 4.363-.065-.11-3.573 4.446-3.119 4.524-2.13 1.934-4.959 3.113-8.063 3.113-1.325 0-2.675 0-4 0-3.104 0-5.933-1.179-8.063-3.113.454-.078-3.054-4.634-3.119-4.524z" fill="#fbc546"/><path d="m2.818 22.363c.065-.11.138-.217.219-.319 1.627-2.071 3.963-5.044 3.963-5.044s.925 3.7 1.517 6.068c.293 1.171-.145 2.403-1.111 3.127-.059.045-.12.09-.18.136-.393.294-.835.478-1.289.556-1.362-1.236-2.439-2.781-3.119-4.524zm23.245 4.524c-.454-.078-.896-.262-1.289-.556-.06-.046-.121-.091-.18-.136-.966-.724-1.404-1.956-1.111-3.127.592-2.368 1.517-6.068 1.517-6.068s2.336 2.973 3.963 5.044c.081.102.154.209.219.319-.68 1.743-1.757 3.288-3.119 4.524z" fill="#e59a10"/><path d="m9.785 25.077c-1.904-1.25-3.392-3.026-3.95-5.077h20.33c-.558 2.051-2.046 3.827-3.95 5.077-1.116-1.291-11.314-1.291-12.43 0z" fill="#722245"/><path d="m9.785 25.077c1.116-1.291 2.759-2.077 4.54-2.077h3.35c1.781 0 3.424.786 4.54 2.077-1.838 1.207-4.064 1.923-6.215 1.923s-4.377-.716-6.215-1.923z" fill="#ca3b8f"/><path d="m25 16s2.336 2.973 3.963 5.044c.891 1.134.849 2.743-.101 3.829-.01.011-.02.022-.03.033-1.033 1.181-2.802 1.366-4.058.425-.06-.046-.121-.091-.18-.136-.966-.724-1.404-1.956-1.111-3.127.592-2.368 1.517-6.068 1.517-6.068z" fill="#1bb0e6"/><path d="m7 16s-2.336 2.973-3.963 5.044c-.891 1.134-.849 2.743.101 3.829l.03.033c1.033 1.181 2.802 1.366 4.058.425.06-.046.121-.091.18-.136.966-.724 1.404-1.956 1.111-3.127-.592-2.368-1.517-6.068-1.517-6.068z" fill="#1bb0e6"/><g fill-rule="nonzero"><path d="m24.708 10.794c.39.39.39 1.022 0 1.412-1.039 1.039-2.857 2.857-2.857 2.857s1.455.485 2.465.822c.252.084.46.264.578.501.119.237.139.512.055.764 0 0-.001 0-.001.001-.083.251-.264.459-.501.577-.237.119-.511.138-.762.054-1.699-.566-5.088-1.695-5.088-1.695l-.114-.484s3.322-3.323 4.811-4.811c.39-.39 1.022-.39 1.412 0 .001.001.001.001.002.002z"/><path d="m13.517 15.603-.114.484s-3.387 1.129-5.087 1.695c-.524.175-1.09-.108-1.265-.632 0-.001 0-.001 0-.001-.174-.524.108-1.09.632-1.264 1.01-.337 2.466-.822 2.466-.822s-1.817-1.817-2.856-2.856c-.391-.39-.391-1.024 0-1.414 0 0 0-.001.001-.001.39-.39 1.022-.39 1.412 0 1.489 1.488 4.811 4.811 4.811 4.811z"/></g></g></svg>