<svg clip-rule="evenodd" fill-rule="evenodd" stroke-linejoin="round" stroke-miterlimit="1.41421" viewBox="0 0 32 32" xmlns="http://www.w3.org/2000/svg" xmlns:xlink="http://www.w3.org/1999/xlink"><clipPath id="a"><path clip-rule="evenodd" d="m0 0h32v32h-32z"/></clipPath><path d="m0 0h32v32h-32z" fill="none"/><g clip-path="url(#a)"><path d="m16.206 2.001.206.004.205.007.205.009.204.011.203.015.203.016.201.019.202.022.2.024.2.027.199.029.198.032.198.034.197.036.195.039.195.041.195.044.193.046.192.048.192.05.19.053.19.055.188.058.188.059.186.062.186.064.184.066.184.069.182.07.181.073.181.075.179.077.177.079.177.081.176.084.174.085.173.087.172.09.171.091.169.094.168.095.168.097.165.1.164.101.163.103.162.105.16.107.159.108.158.111.156.112.154.115.153.116.152.118.151.119.148.121.148.123.145.125.145.127.143.128.141.13.139.131.138.134.137.134.135.137.133.138.131.139.13.142.128.142.127.145.125.145.123.148.121.148.119.151.118.152.116.153.115.154.112.156.111.158.108.159.107.16.105.162.103.163.101.164.1.166.097.166.095.169.094.169.091.171.089.172.088.173.085.174.083.176.082.177.079.177.077.179.075.181.072.181.071.182.069.184.066.184.064.186.062.186.059.188.058.188.055.19.053.19.05.192.048.192.046.193.044.195.041.195.039.195.036.197.034.198.032.198.029.199.027.2.024.2.022.202.019.201.016.203.015.204.011.203.009.205.007.205.004.206.001.206-.001.181-.004.179-.005.18-.008.179-.01.178-.013.178-.014.177-.017.177-.019.176-.021.175-.024.175-.025.175-.028.173-.03.173-.031.172-.034.171-.036.171-.039.17-.04.169-.042.168-.044.168-.046.166-.048.166-.051.165-.052.165-.054.163-.056.162-.058.162-.06.16-.062.16-.063.159-.066.157-.067.157-.07.155-.071.155-.073.154-.074.152-.077.152-.078.15-.08.149-.082.149-.083.147-.085.146-.087.145-.089.144-.09.142-.092.142-.093.14-.095.139-.097.138-.098.136-.1.136-.102.134-.103.132-.105.132-.106.13-.107.129-.109.127-.111.127-.112.125-.114.123-.115.123-.116.12-.118.119-.12.119-.121.116-.122.115-.123.114-.125.112-.126.11-.128.11-.129.107-.13.106-.132.105-.132.103-.135.102-.135.1-.136.098-.138.097-.139.095-.14.093-.142.092-.142.091-.144.088-.145.087-.146.085-.147.083-.148.082-.15.08-.15.078-.152.077-.152.074-.154.073-.155.071-.155.07-.157.067-.158.066-.158.063-.16.062-.16.06-.162.058-.162.056-.163.054-.165.052-.165.051-.165.048-.167.046-.168.044-.168.042-.169.04-.17.039-.171.036-.171.034-.172.031-.173.03-.173.028-.175.025-.174.024-.176.021-.176.019-.177.017-.177.014-.178.013-.178.01-.179.008-.18.005-.179.004-.175.001h-4.012l-.174-.001-.18-.004-.18-.005-.179-.008-.178-.01-.178-.013-.177-.014-.177-.017-.176-.019-.176-.021-.174-.024-.175-.025-.173-.028-.173-.03-.172-.031-.171-.034-.171-.036-.17-.038-.169-.041-.168-.042-.168-.044-.166-.046-.166-.049-.166-.05-.164-.052-.163-.054-.162-.056-.162-.058-.16-.06-.16-.062-.158-.063-.158-.066-.157-.067-.155-.07-.155-.071-.154-.073-.152-.074-.152-.077-.15-.078-.15-.08-.148-.082-.147-.083-.146-.085-.145-.087-.144-.089-.142-.09-.142-.092-.14-.093-.139-.095-.138-.097-.136-.098-.136-.1-.134-.102-.132-.103-.132-.104-.13-.107-.129-.107-.128-.11-.126-.11-.125-.112-.123-.114-.122-.115-.121-.116-.119-.118-.119-.12-.116-.121-.115-.122-.114-.123-.112-.125-.11-.126-.11-.128-.107-.129-.107-.13-.104-.131-.103-.133-.102-.135-.1-.135-.098-.136-.097-.138-.095-.139-.093-.14-.092-.142-.09-.142-.089-.144-.087-.145-.085-.146-.084-.147-.081-.148-.08-.15-.078-.15-.077-.152-.075-.153-.072-.153-.071-.155-.07-.155-.067-.157-.065-.157-.064-.159-.062-.16-.06-.16-.058-.162-.056-.162-.054-.163-.052-.165-.051-.165-.048-.165-.046-.167-.044-.168-.042-.168-.041-.169-.038-.17-.036-.171-.034-.171-.031-.172-.03-.173-.028-.174-.025-.174-.024-.174-.021-.176-.019-.176-.017-.177-.014-.177-.013-.178-.01-.178-.008-.179-.005-.18-.004-.18-.001-.18.001-.206.004-.206.007-.205.009-.205.011-.204.015-.203.016-.203.019-.202.022-.201.024-.2.027-.2.029-.199.032-.198.034-.198.036-.197.039-.195.041-.195.044-.195.046-.193.048-.192.05-.192.053-.19.055-.19.058-.188.059-.188.062-.186.064-.186.066-.184.069-.184.07-.182.073-.181.075-.181.077-.179.079-.178.081-.176.084-.176.085-.174.088-.173.089-.172.091-.171.094-.169.095-.169.097-.166.1-.166.101-.164.103-.163.105-.162.107-.16.108-.159.111-.158.112-.156.115-.154.116-.153.117-.152.12-.151.121-.148.123-.148.125-.145.127-.145.128-.142.13-.142.131-.139.133-.138.135-.137.137-.135.138-.133.139-.131.142-.13.142-.128.145-.127.145-.125.148-.123.149-.121.15-.12.152-.117.153-.116.154-.115.157-.112.157-.111.159-.108.16-.107.162-.105.163-.103.164-.101.166-.1.167-.097.168-.095.169-.094.171-.091.172-.09.173-.087.174-.085.176-.083.176-.082.178-.079.18-.077.18-.075.181-.073.182-.07.184-.069.184-.066.186-.064.186-.062.188-.059.188-.058.19-.055.19-.053.192-.05.192-.048.193-.046.195-.044.195-.041.195-.039.197-.036.198-.034.198-.032.199-.029.2-.027.2-.024.202-.022.201-.019.203-.016.203-.015.204-.011.205-.009.205-.007.206-.004.206-.001.206.001zm-.362 4-.155.003-.154.005-.154.007-.154.008-.152.011-.153.013-.151.014-.151.016-.151.019-.15.02-.149.021-.149.024-.148.026-.147.027-.147.029-.146.031-.145.032-.145.035-.143.036-.144.038-.142.039-.142.041-.141.043-.14.045-.14.046-.139.048-.138.05-.137.051-.137.053-.136.054-.134.056-.134.058-.133.059-.133.061-.131.062-.131.064-.13.066-.129.067-.127.068-.128.07-.126.072-.125.073-.124.074-.123.076-.122.077-.122.079-.12.08-.119.082-.118.083-.118.084-.116.086-.115.087-.114.089-.113.089-.111.091-.111.093-.109.094-.109.095-.107.096-.106.098-.105.098-.104.1-.102.102-.102.102-.1.104-.098.105-.098.106-.096.107-.095.109-.094.109-.093.111-.091.112-.089.112-.089.114-.087.115-.086.117-.084.117-.083.118-.082.119-.08.12-.079.122-.077.122-.076.123-.074.124-.073.125-.072.126-.07.127-.068.128-.067.129-.066.13-.064.131-.062.131-.061.133-.059.133-.058.134-.056.135-.054.135-.053.137-.051.137-.05.138-.048.139-.046.14-.045.14-.043.141-.041.142-.039.142-.038.144-.036.143-.035.145-.032.145-.031.146-.029.147-.027.148-.026.147-.024.149-.021.149-.02.15-.019.151-.016.151-.014.151-.013.153-.011.152-.008.154-.007.154-.005.154-.003.155-.001.156.001.13.002.129.004.129.006.128.007.128.009.128.011.127.012.126.013.126.015.125.017.125.018.125.02.123.021.123.023.123.024.122.026.122.027.121.029.121.03.12.031.119.033.119.035.118.035.118.037.116.039.116.04.116.041.115.043.115.044.113.045.113.047.113.048.112.049.11.051.111.052.109.053.109.055.108.056.107.057.107.058.106.06.105.06.104.063.104.063.103.064.102.066.101.067.1.068.099.069.099.07.097.072.097.072.096.074.095.075.094.076.093.077.092.078.092.079.09.08.089.082.089.082.087.084.087.084.085.085.084.087.084.087.082.089.082.089.08.09.079.092.078.092.077.093.076.094.075.095.074.096.072.097.072.097.07.099.069.099.068.101.067.101.066.101.064.103.063.104.062.104.061.105.06.106.058.106.057.108.056.108.055.109.053.109.052.111.051.11.049.112.048.113.047.113.045.113.044.115.043.115.041.115.04.117.039.117.037.117.035.118.035.119.033.119.031.12.03.121.029.121.027.122.026.122.024.122.023.124.021.124.02.124.018.125.017.125.015.126.013.126.012.127.011.128.009.128.007.128.006.129.004.129.002.136.001h3.988l.136-.001.129-.002.129-.004.128-.006.128-.007.128-.009.126-.011.127-.012.126-.013.125-.015.125-.017.124-.018.124-.02.124-.021.122-.023.123-.024.121-.026.121-.027.121-.029.12-.03.119-.031.119-.033.118-.035.117-.035.117-.037.117-.039.115-.04.115-.041.115-.043.113-.044.113-.045.113-.047.112-.048.11-.049.111-.051.109-.052.109-.053.108-.055.108-.056.106-.057.106-.058.105-.06.104-.06.104-.063.103-.063.101-.064.101-.066.101-.067.099-.068.099-.069.097-.07.097-.072.096-.072.095-.074.094-.075.093-.076.092-.077.092-.078.09-.079.089-.08.089-.082.087-.082.087-.084.085-.084.084-.085.084-.087.082-.087.082-.089.08-.089.079-.09.078-.092.077-.092.076-.093.075-.094.074-.095.072-.096.072-.097.07-.097.069-.099.068-.099.067-.101.066-.1.064-.102.063-.103.062-.103.061-.105.06-.105.058-.106.057-.106.056-.108.055-.108.053-.109.052-.109.051-.111.049-.111.048-.111.047-.113.045-.113.044-.113.043-.115.041-.115.04-.116.039-.116.037-.116.035-.118.035-.118.033-.119.031-.119.03-.12.029-.121.027-.121.026-.122.024-.122.023-.122.021-.124.02-.124.018-.124.016-.125.016-.125.013-.126.012-.126.011-.127.009-.128.007-.128.006-.128.004-.129.002-.129.001-.13-.001-.156-.003-.155-.005-.154-.007-.154-.008-.154-.011-.152-.013-.153-.014-.151-.016-.151-.019-.151-.02-.15-.021-.149-.024-.149-.026-.148-.027-.147-.029-.147-.031-.146-.032-.145-.035-.144-.036-.144-.038-.144-.039-.142-.041-.142-.043-.141-.045-.14-.046-.14-.048-.139-.05-.138-.051-.137-.053-.137-.054-.135-.056-.135-.058-.134-.059-.134-.061-.132-.062-.131-.064-.131-.066-.13-.067-.128-.068-.128-.07-.128-.072-.126-.073-.125-.074-.124-.076-.123-.077-.122-.079-.122-.08-.12-.082-.119-.083-.118-.084-.118-.086-.116-.087-.115-.088-.113-.09-.113-.092-.112-.092-.111-.094-.109-.095-.109-.096-.107-.098-.106-.098-.105-.1-.104-.102-.102-.102-.102-.104-.1-.105-.098-.106-.098-.107-.096-.109-.095-.109-.094-.111-.092-.112-.092-.112-.09-.114-.088-.115-.087-.117-.086-.117-.084-.118-.083-.119-.082-.12-.08-.122-.079-.122-.077-.123-.076-.124-.074-.125-.073-.126-.072-.128-.07-.127-.068-.129-.067-.13-.066-.131-.064-.131-.062-.132-.061-.134-.059-.134-.058-.135-.056-.135-.054-.137-.053-.137-.051-.138-.05-.139-.048-.139-.046-.141-.045-.141-.043-.142-.041-.142-.039-.144-.038-.143-.036-.145-.035-.145-.032-.146-.031-.147-.029-.147-.027-.148-.026-.149-.024-.149-.021-.15-.02-.151-.019-.151-.016-.151-.014-.153-.013-.152-.011-.154-.008-.154-.007-.154-.005-.155-.003-.156-.001z"/><path d="m30 18c0-7.732-6.268-14-14-14-7.732 0-14 6.268-14 14 0 6.627 5.373 12 12 12h4c6.627 0 12-5.373 12-12z" fill="#fbc546"/><path d="m9.785 25.077c-1.904-1.25-3.392-3.026-3.95-5.077h20.33c-.558 2.051-2.046 3.827-3.95 5.077-1.116-1.291-11.314-1.291-12.43 0z" fill="#722245"/><path d="m9.785 25.077c1.116-1.291 2.759-2.077 4.54-2.077h3.35c1.781 0 3.424.786 4.54 2.077-1.838 1.207-4.064 1.923-6.215 1.923s-4.377-.716-6.215-1.923z" fill="#ca3b8f"/><g fill-rule="nonzero"><path d="m24.708 10.794c.39.39.39 1.022 0 1.412-1.039 1.039-2.857 2.857-2.857 2.857s1.455.485 2.465.822c.252.084.46.264.578.501.119.237.139.512.055.764 0 0-.001 0-.001.001-.083.251-.264.459-.501.577-.237.119-.511.138-.762.054-1.699-.566-5.088-1.695-5.088-1.695l-.114-.484s3.322-3.323 4.811-4.811c.39-.39 1.022-.39 1.412 0 .001.001.001.001.002.002z"/><path d="m13.517 15.603-.114.484s-3.387 1.129-5.087 1.695c-.524.175-1.09-.108-1.265-.632 0-.001 0-.001 0-.001-.174-.524.108-1.09.632-1.264 1.01-.337 2.466-.822 2.466-.822s-1.817-1.817-2.856-2.856c-.391-.39-.391-1.024 0-1.414.39-.391 1.024-.391 1.414 0 1.489 1.489 4.81 4.81 4.81 4.81z"/></g></g></svg>