<svg clip-rule="evenodd" fill-rule="evenodd" stroke-linejoin="round" stroke-miterlimit="1.41421" viewBox="0 0 32 32" xmlns="http://www.w3.org/2000/svg" xmlns:xlink="http://www.w3.org/1999/xlink"><clipPath id="a"><path clip-rule="evenodd" d="m0 0h32v32h-32z"/></clipPath><path d="m0 0h32v32h-32z" fill="none"/><g clip-path="url(#a)"><path d="m16.199.001.198.004.198.006.198.009.198.011.197.013.197.016.196.018.196.021.196.023.195.025.195.028.194.031.193.032.194.035.192.037.192.04.191.042.191.044.19.047.189.048.189.052.188.053.187.056.187.058.186.06.185.062.184.065.183.067.183.069.181.071.181.074.18.076.179.078.178.08.176.082.177.085.175.086.173.089.173.091.172.093.171.095.169.097.169.1.167.101.166.104.165.105.164.108.162.11.161.112.16.114.159.116.157.118.156.119.155.123.153.124.152.125.15.128.15.13.147.132.146.134.145.136.142.138.142.139.14.142.137.143.136.144.134.146.132.148.13.149.128.15.126.152.123.153.123.155.119.156.118.157.116.159.114.16.112.161.11.162.108.164.105.165.104.166.101.167.1.169.097.169.095.171.093.172.091.173.089.174.086.174.085.176.082.178.08.177.078.179.076.18.074.18.071.182.069.183.067.183.065.184.062.185.06.186.059.187.055.187.053.188.052.188.048.19.047.19.044.191.042.191.04.192.037.193.035.192.032.194.031.194.027.195.026.195.023.195.021.197.018.196.016.197.013.197.011.198.009.198.006.198.004.198.001.192v2.014l-.001.174-.003.179-.006.18-.008.179-.01.178-.013.178-.014.177-.017.177-.019.176-.021.175-.024.176-.025.173-.028.174-.029.173-.032.172-.034.171-.036.171-.038.17-.041.169-.042.169-.044.167-.046.166-.049.166-.05.166-.052.164-.054.163-.056.162-.058.161-.06.161-.062.16-.063.159-.066.157-.067.157-.07.156-.071.154-.072.153-.075.153-.077.152-.078.15-.08.149-.081.149-.084.147-.085.146-.087.145-.089.144-.09.142-.092.142-.093.14-.095.139-.097.138-.098.136-.101.136-.101.134-.103.133-.105.131-.106.13-.107.129-.109.127-.111.127-.113.125-.113.123-.115.122-.117.121-.118.12-.119.117-.12.117-.123.115-.123.114-.125.112-.126.11-.128.11-.129.107-.13.106-.132.105-.133.103-.133.102-.136.1-.136.098-.138.097-.139.095-.14.094-.142.091-.142.09-.144.089-.145.087-.146.085-.147.084-.148.081-.15.08-.15.078-.152.077-.152.074-.154.073-.155.071-.155.07-.157.067-.157.066-.159.063-.16.062-.16.06-.162.058-.162.056-.163.054-.165.052-.165.051-.165.048-.167.046-.168.044-.168.042-.169.041-.17.038-.171.036-.171.034-.172.031-.173.03-.174.028-.174.025-.174.024-.176.021-.176.019-.177.017-.177.014-.178.013-.178.01-.179.008-.18.005-.18.004-.174.001h-4.012l-.175-.001-.179-.004-.18-.005-.179-.008-.178-.01-.178-.013-.177-.014-.177-.017-.176-.019-.176-.021-.174-.024-.175-.025-.173-.028-.173-.03-.172-.031-.171-.034-.171-.036-.17-.039-.169-.04-.168-.042-.168-.044-.167-.046-.165-.049-.165-.05-.165-.052-.163-.054-.162-.056-.162-.058-.16-.06-.16-.062-.158-.063-.158-.066-.157-.067-.155-.07-.155-.071-.154-.073-.152-.074-.152-.077-.15-.078-.15-.08-.148-.082-.147-.083-.146-.085-.145-.087-.144-.089-.142-.09-.142-.092-.14-.093-.139-.095-.138-.097-.136-.098-.136-.1-.134-.102-.132-.103-.132-.105-.13-.106-.129-.107-.128-.109-.126-.111-.125-.112-.123-.114-.122-.115-.121-.117-.12-.118-.117-.119-.117-.121-.115-.122-.113-.123-.113-.125-.111-.127-.109-.127-.107-.129-.106-.13-.105-.131-.103-.133-.102-.134-.1-.136-.098-.136-.097-.138-.095-.139-.093-.14-.092-.142-.09-.142-.089-.144-.087-.145-.085-.146-.083-.147-.082-.149-.08-.149-.078-.15-.077-.152-.074-.152-.073-.154-.071-.155-.07-.155-.067-.157-.066-.158-.063-.158-.062-.16-.06-.16-.058-.162-.056-.162-.054-.163-.052-.164-.05-.165-.049-.167-.046-.166-.044-.168-.042-.168-.04-.169-.039-.17-.036-.171-.034-.171-.031-.172-.03-.173-.028-.173-.025-.175-.024-.175-.021-.175-.019-.176-.017-.177-.014-.177-.013-.178-.01-.178-.008-.179-.005-.18-.004-.179-.001-.174v-2.013l.001-.2.004-.206.007-.205.009-.205.011-.203.015-.204.016-.203.019-.201.022-.202.024-.2.027-.2.029-.199.032-.198.034-.198.036-.197.039-.195.041-.195.044-.195.046-.193.048-.192.05-.192.053-.19.055-.19.058-.188.059-.188.062-.186.064-.186.066-.184.069-.184.07-.182.073-.181.075-.181.077-.179.079-.177.082-.177.083-.176.085-.174.088-.173.089-.172.091-.171.094-.169.095-.169.097-.167.1-.165.101-.164.103-.163.105-.162.107-.16.108-.159.111-.157.112-.157.115-.154.116-.153.118-.152.119-.151.121-.148.123-.148.125-.146.127-.144.128-.142.13-.142.131-.139.133-.138.135-.137.137-.135.138-.133.139-.131.141-.13.143-.128.145-.127.145-.125.148-.123.149-.121.15-.12.152-.117.153-.116.154-.115.157-.112.157-.111.159-.108.16-.107.162-.105.163-.103.164-.101.166-.1.167-.097.168-.095.169-.094.171-.091.172-.09.173-.087.174-.085.176-.083.177-.082.177-.079.179-.077.181-.075.181-.073.182-.07.184-.069.184-.066.186-.064.186-.062.188-.059.188-.058.19-.055.19-.053.192-.05.192-.048.193-.046.195-.044.195-.041.195-.039.197-.036.198-.034.198-.032.199-.029.2-.027.2-.024.201-.022.202-.019.203-.016.203-.015.204-.011.205-.009.205-.007.206-.004.206-.001.199.001zm-.355 4-.155.003-.154.005-.154.007-.154.008-.152.011-.153.013-.151.014-.151.016-.151.019-.15.02-.149.021-.149.024-.148.026-.147.027-.147.029-.146.031-.145.032-.145.035-.143.036-.144.038-.142.039-.142.041-.141.043-.141.045-.139.046-.139.048-.138.05-.137.051-.137.053-.135.054-.135.056-.134.058-.134.059-.132.061-.131.062-.131.064-.13.066-.129.067-.127.068-.128.07-.126.072-.125.073-.124.074-.123.076-.122.077-.122.079-.12.08-.119.082-.118.083-.118.084-.116.086-.115.087-.114.089-.113.089-.111.092-.111.092-.109.094-.109.095-.107.096-.106.098-.105.098-.104.1-.102.102-.102.102-.1.104-.098.105-.098.106-.096.107-.095.109-.094.109-.092.111-.092.112-.09.113-.088.113-.087.115-.086.117-.084.117-.083.118-.082.119-.08.12-.079.122-.077.122-.076.123-.074.124-.073.125-.072.126-.07.128-.068.127-.067.129-.066.13-.064.131-.062.131-.061.132-.059.134-.058.134-.056.135-.054.135-.053.137-.051.137-.05.138-.048.139-.046.139-.045.141-.043.141-.041.142-.039.142-.038.144-.036.144-.035.144-.032.145-.031.146-.029.147-.027.147-.026.148-.024.149-.021.149-.02.15-.019.151-.016.151-.014.151-.013.153-.011.152-.008.154-.007.154-.005.154-.003.155-.001.162v1.988l.001.136.002.129.004.129.006.128.007.128.009.128.011.127.012.126.013.126.016.125.016.125.018.124.02.124.021.124.023.122.024.122.026.122.027.121.029.121.03.12.031.119.033.119.034.118.036.117.037.117.039.117.04.115.041.115.043.115.044.113.045.114.047.112.048.111.049.111.051.111.052.109.053.109.055.108.056.108.057.106.058.106.06.105.061.105.062.103.063.103.064.101.066.101.067.101.068.099.069.099.07.097.072.097.072.096.074.095.075.094.076.093.077.092.078.092.079.09.08.089.082.089.082.087.083.087.085.085.085.085.087.083.087.082.089.082.089.08.09.079.092.078.092.077.093.076.094.075.095.074.096.072.097.072.097.07.099.069.099.068.1.067.102.066.101.064.103.063.104.063.104.06.105.06.106.058.106.057.108.056.108.055.109.053.109.052.11.05.112.05.111.048.113.047.113.045.113.044.115.043.115.041.115.04.117.039.117.037.117.035.118.035.119.033.119.031.12.03.121.029.121.027.122.026.122.024.123.023.123.021.124.02.124.018.125.017.125.015.126.013.127.012.126.011.128.009.128.007.128.006.129.004.129.002.136.001h3.988l.136-.001.129-.002.129-.004.128-.006.128-.007.128-.009.126-.011.127-.012.126-.013.125-.015.125-.017.124-.018.124-.02.123-.021.123-.023.123-.024.121-.026.121-.027.121-.029.12-.03.119-.031.119-.033.118-.035.117-.035.117-.037.117-.039.115-.04.115-.041.115-.043.113-.044.113-.045.113-.047.111-.048.112-.05.11-.05.109-.052.109-.053.108-.055.108-.056.106-.057.106-.058.105-.06.104-.06.104-.062.103-.064.102-.064.101-.066.1-.067.099-.068.098-.069.098-.07.097-.072.096-.072.095-.074.094-.075.093-.076.093-.077.091-.078.09-.079.089-.081.089-.081.087-.082.087-.083.085-.085.085-.085.083-.087.082-.087.082-.089.08-.089.079-.09.078-.092.077-.092.076-.093.075-.094.074-.095.073-.096.071-.097.07-.097.07-.099.067-.099.067-.1.066-.102.064-.101.063-.103.063-.104.06-.104.06-.105.058-.106.057-.106.056-.108.055-.108.053-.108.052-.11.051-.111.049-.11.048-.112.047-.113.045-.113.044-.113.043-.114.041-.116.04-.115.038-.117.038-.117.035-.117.035-.118.033-.119.031-.12.03-.119.029-.121.027-.121.026-.122.024-.122.023-.122.021-.123.02-.124.018-.125.017-.125.015-.125.013-.126.012-.126.011-.127.009-.128.007-.128.006-.128.004-.129.002-.129.001-.137v-1.986l-.001-.156-.003-.149-.004-.149-.007-.148-.008-.148-.01-.148-.012-.148-.014-.147-.015-.147-.018-.146-.019-.147-.021-.146-.022-.145-.025-.146-.026-.145-.028-.144-.029-.144-.032-.144-.033-.142-.035-.143-.036-.142-.039-.141-.04-.142-.042-.14-.043-.14-.045-.139-.047-.139-.049-.138-.05-.138-.052-.136-.053-.136-.056-.136-.056-.135-.059-.134-.06-.134-.062-.132-.063-.132-.065-.132-.067-.13-.068-.13-.069-.128-.072-.129-.073-.127-.074-.126-.076-.125-.078-.125-.08-.124-.08-.123-.083-.121-.083-.121-.086-.12-.087-.119-.088-.118-.09-.117-.091-.116-.094-.115-.094-.114-.096-.113-.097-.111-.099-.111-.101-.109-.102-.109-.103-.107-.104-.106-.107-.105-.107-.104-.108-.101-.11-.101-.111-.099-.111-.097-.113-.096-.114-.095-.115-.092-.116-.092-.117-.09-.118-.088-.119-.087-.119-.085-.122-.085-.122-.082-.122-.08-.124-.08-.124-.078-.126-.076-.126-.074-.127-.073-.128-.071-.129-.07-.13-.068-.131-.067-.131-.065-.131-.063-.133-.062-.134-.06-.134-.059-.135-.057-.135-.055-.137-.053-.136-.052-.138-.05-.138-.049-.139-.047-.139-.045-.14-.043-.141-.042-.141-.04-.141-.038-.142-.037-.143-.035-.143-.033-.143-.032-.144-.029-.144-.028-.145-.026-.145-.025-.146-.022-.146-.021-.146-.019-.147-.018-.147-.015-.147-.014-.148-.012-.148-.01-.148-.008-.148-.007-.149-.004-.149-.003-.149-.001-.156.001z"/><path d="m30 16c0-3.713-1.475-7.274-4.101-9.899-2.625-2.626-6.186-4.101-9.899-4.101-7.732 0-14 6.268-14 14v2c0 6.627 5.373 12 12 12h4c6.627 0 12-5.373 12-12 0-.663 0-1.331 0-2z" fill="#fbc546"/><path d="m26.207 11.293.033.035.032.036.03.038.028.04.026.041.024.042.022.043.02.044.017.045.016.045.013.047.011.047.009.048.006.047.004.049.002.048-.001.048-.003.048-.005.049-.007.047-.01.048-.012.046-.015.046-.016.046-.019.044-.021.044-.023.043-.025.041-.027.04-.029.039-.031.037-.032.036-.034.034-.036.032-.037.031-.039.029-.04.027-.041.025-.043.023-.044.021-.044.019-.046.016-.046.015-.046.012-.048.01-.047.007-.049.005-.048.003-.048.001-.048-.002-.049-.004-.047-.006-.048-.009-.047-.011-.047-.013-.045-.016-.045-.017-.044-.02-.043-.022-.042-.024-.041-.026-.04-.028-.038-.03-.036-.032-.035-.033-2.293-2.293-2.293 2.293-.035.033-.036.032-.038.03-.04.028-.041.026-.042.024-.043.022-.044.02-.045.017-.045.016-.047.013-.047.011-.048.009-.047.006-.049.004-.048.002-.048-.001-.048-.003-.049-.005-.047-.007-.048-.01-.046-.012-.046-.015-.046-.016-.044-.019-.044-.021-.043-.023-.041-.025-.04-.027-.039-.029-.037-.031-.036-.032-.034-.034-.032-.036-.031-.037-.029-.039-.027-.04-.025-.041-.023-.043-.021-.044-.019-.044-.016-.046-.015-.046-.012-.046-.01-.048-.007-.047-.005-.049-.003-.048-.001-.048.002-.048.004-.049.006-.047.009-.048.011-.047.013-.047.016-.045.017-.045.02-.044.022-.043.024-.042.026-.041.028-.04.03-.038.032-.036.033-.035 3.707-3.707z"/><path d="m24 18-8 4s.449.899 1 2c1.105 2.209 3.791 3.105 6 2 2.209-1.105 3.105-3.791 2-6-.551-1.101-1-2-1-2z" fill="#dd34a2"/><path d="m6.197 15.02.084.02.083.029.08.035.076.042.073.048.068.055.062.061.058.065.25.313.105.13.105.125.106.123.108.122.109.12.111.118.112.117.114.115.115.113.117.111.118.11.12.108.121.106.122.104.124.103.125.1.126.099.128.097.129.095.13.093.131.091.132.09.134.087.135.086.136.084.137.082.138.08.139.078.14.076.142.074.142.072.143.07.145.068.145.066.146.064.147.062.148.06.148.058.15.056.15.054.151.051.152.05.153.048.153.045.154.043.155.042.155.039.156.037.157.034.157.033.158.03.158.029.159.026.16.024.159.021.161.02.161.017.161.015.161.012.163.011.162.008.163.005.163.004.164.001.164-.001.163-.004.163-.005.162-.008.163-.011.161-.012.161-.015.161-.017.161-.02.159-.021.16-.024.159-.026.158-.029.158-.03.157-.033.157-.034.156-.037.155-.039.155-.042.154-.043.153-.045.153-.048.152-.05.151-.051.15-.054.15-.056.148-.058.148-.06.147-.062.146-.064.145-.066.145-.068.143-.07.142-.072.142-.074.14-.076.139-.078.138-.08.137-.082.136-.084.135-.086.134-.087.132-.09.131-.091.13-.093.129-.095.128-.097.126-.099.125-.1.124-.103.122-.104.121-.106.12-.108.118-.11.117-.111.115-.113.114-.115.112-.117.111-.118.109-.12.108-.122.106-.123.105-.125.105-.13.25-.313.058-.065.062-.061.068-.055.073-.048.076-.042.08-.035.083-.029.084-.02.087-.014.087-.006.087.002.087.009.085.017.084.025.081.031.079.039.074.045.071.051.065.058.061.062.055.068.048.073.042.076.035.08.029.083.02.084.014.087.006.087-.002.087-.009.087-.017.085-.025.084-.031.081-.039.079-.045.074-.051.071-.255.318-.118.146-.123.147-.125.145-.126.143-.129.141-.13.139-.132.137-.133.135-.136.133-.137.13-.139.129-.14.127-.142.124-.144.123-.145.12-.147.118-.148.116-.15.114-.151.111-.153.11-.154.107-.156.105-.157.103-.158.101-.16.098-.161.096-.162.094-.163.091-.165.09-.166.086-.167.085-.168.082-.169.08-.171.078-.171.075-.173.073-.173.07-.175.068-.175.066-.177.063-.177.061-.179.058-.179.056-.18.054-.181.051-.182.048-.182.046-.183.043-.184.041-.185.038-.185.036-.186.033-.187.031-.187.028-.188.025-.188.023-.189.02-.189.017-.19.015-.19.012-.191.01-.191.007-.191.004-.189.001h-.008l-.189-.001-.191-.004-.191-.007-.191-.01-.19-.012-.19-.015-.189-.017-.189-.02-.188-.023-.188-.025-.187-.028-.187-.031-.186-.033-.185-.036-.185-.038-.184-.041-.183-.043-.182-.046-.182-.048-.181-.051-.18-.054-.179-.056-.179-.058-.177-.061-.177-.063-.175-.066-.175-.068-.173-.07-.173-.073-.171-.075-.171-.078-.169-.08-.168-.082-.167-.085-.166-.086-.165-.09-.163-.091-.162-.094-.161-.096-.16-.098-.158-.101-.157-.103-.156-.105-.154-.107-.153-.11-.151-.111-.15-.114-.148-.116-.147-.118-.145-.12-.144-.123-.142-.124-.14-.127-.139-.129-.137-.13-.136-.133-.133-.135-.132-.137-.13-.139-.129-.141-.126-.143-.125-.145-.123-.147-.118-.146-.255-.318-.051-.071-.045-.074-.039-.079-.031-.081-.025-.084-.017-.085-.009-.087-.002-.087.006-.087.014-.087.02-.084.029-.083.035-.08.042-.076.048-.073.055-.068.061-.062.065-.058.071-.051.074-.045.079-.039.081-.031.084-.025.085-.017.087-.009.087-.002.087.006.087.014z" fill="#593604"/><path d="m13.207 11.293.033.035.032.036.03.038.028.04.026.041.024.042.022.043.02.044.017.045.016.045.013.047.011.047.009.048.006.047.004.049.002.048-.001.048-.003.048-.005.049-.007.047-.01.048-.012.046-.015.046-.016.046-.019.044-.021.044-.023.043-.025.041-.027.04-.029.039-.031.037-.032.036-.034.034-.036.032-.037.031-.039.029-.04.027-.041.025-.043.023-.044.021-.044.019-.045.016-.047.015-.046.012-.048.01-.047.007-.048.005-.049.003-.048.001-.048-.002-.049-.004-.047-.006-.048-.009-.047-.011-.046-.013-.046-.016-.045-.017-.044-.02-.043-.022-.042-.024-.041-.026-.039-.028-.039-.03-.036-.032-.035-.033-2.293-2.293-2.293 2.293-.035.033-.036.032-.038.03-.04.028-.041.026-.042.024-.043.022-.044.02-.045.017-.045.016-.047.013-.047.011-.048.009-.047.006-.049.004-.048.002-.048-.001-.048-.003-.048-.005-.048-.007-.048-.01-.046-.012-.046-.015-.046-.016-.044-.019-.044-.021-.042-.023-.042-.025-.04-.027-.039-.029-.037-.031-.036-.032-.034-.034-.032-.036-.031-.037-.029-.039-.027-.04-.025-.041-.023-.043-.021-.044-.019-.044-.016-.046-.015-.046-.012-.046-.01-.048-.007-.047-.005-.049-.003-.048-.001-.048.002-.048.004-.049.006-.047.009-.048.011-.047.013-.047.016-.045.017-.045.02-.044.022-.043.024-.042.026-.041.028-.04.03-.038.032-.036.033-.035 3.707-3.707z"/></g></svg>