<svg clip-rule="evenodd" fill-rule="evenodd" stroke-linejoin="round" stroke-miterlimit="1.41421" viewBox="0 0 32 32" xmlns="http://www.w3.org/2000/svg" xmlns:xlink="http://www.w3.org/1999/xlink"><clipPath id="a"><path clip-rule="evenodd" d="m0 0h32v32h-32z"/></clipPath><clipPath id="b"><path clip-rule="evenodd" d="m2 0h28v8h-28z"/></clipPath><clipPath id="c"><path clip-rule="evenodd" d="m29 17c0-7.18-5.82-13-13-13-7.18 0-13 5.82-13 13v2c0 2.917 1.159 5.715 3.222 7.778s4.861 3.222 7.778 3.222h4c2.917 0 5.715-1.159 7.778-3.222s3.222-4.861 3.222-7.778c0-.662 0-1.331 0-2z"/></clipPath><clipPath id="d"><path clip-rule="evenodd" d="m2 9h28v9h-28z"/></clipPath><clipPath id="e"><path clip-rule="evenodd" d="m2 7h28v9h-28z"/></clipPath><path d="m0 0h32v32h-32z" fill="none"/><g clip-path="url(#a)"><path d="m16.193 2.001.193.004.192.006.192.008.191.011.191.014.19.015.189.018.189.021.188.022.187.025.187.028.186.029.185.032.184.034.184.037.183.038.182.041.181.043.18.045.18.048.178.049.178.052.177.054.176.056.175.058.174.06.172.062.172.064.171.066.17.068.169.071.168.072.167.074.166.076.164.078.164.08.162.082.161.084.16.086.159.087.158.09.156.091.156.093.154.095.152.096.152.099.15.1.149.102.148.104.146.105.145.107.144.109.142.11.141.112.139.114.138.115.137.117.135.119.134.12.132.122.131.123.13.125.128.126.126.128.125.13.123.131.122.132.12.134.119.135.117.137.115.138.114.139.112.141.11.142.109.144.107.145.105.146.104.148.102.149.1.15.099.152.096.152.095.154.093.156.092.156.089.158.087.159.086.16.084.161.082.162.08.164.078.164.076.166.074.167.072.168.071.169.068.17.066.171.064.171.062.173.06.174.058.175.056.176.054.177.052.178.049.178.048.18.045.18.043.181.041.182.038.183.037.184.034.184.032.185.029.186.028.187.025.187.022.188.021.189.018.189.015.19.014.191.011.191.008.192.006.192.004.193.001.187v2.012l-.001.155-.003.162-.005.161-.007.161-.009.16-.011.16-.013.16-.015.16-.016.159-.019.159-.021.158-.022.159-.025.157-.026.158-.029.157-.03.156-.032.156-.034.155-.036.155-.038.155-.04.154-.041.153-.044.153-.045.152-.047.151-.049.151-.051.151-.052.149-.055.149-.056.149-.058.147-.06.147-.061.146-.063.145-.066.145-.066.144-.069.143-.07.142-.073.141-.073.141-.076.139-.077.139-.079.138-.081.136-.083.136-.084.135-.086.134-.087.133-.089.132-.091.131-.093.13-.094.129-.096.128-.097.127-.099.125-.101.125-.102.123-.104.122-.106.121-.107.12-.109.119-.11.117-.112.117-.114.114-.114.114-.117.112-.117.11-.119.109-.119.107-.121.106-.123.104-.123.102-.125.101-.125.099-.127.097-.128.096-.129.094-.13.093-.131.091-.132.089-.133.087-.134.086-.135.084-.136.083-.136.081-.138.079-.139.077-.139.076-.141.073-.141.073-.142.07-.143.069-.144.066-.145.066-.145.063-.146.061-.147.06-.147.058-.149.056-.149.055-.149.052-.151.051-.151.049-.151.047-.152.045-.153.044-.153.041-.154.04-.155.038-.155.036-.155.034-.156.032-.156.03-.157.029-.158.026-.157.025-.158.022-.159.021-.159.019-.159.016-.16.015-.16.013-.16.011-.16.009-.161.007-.161.005-.162.003-.155.001h-4.012l-.155-.001-.162-.003-.161-.005-.161-.007-.16-.009-.16-.011-.16-.013-.16-.015-.159-.016-.159-.019-.159-.021-.158-.022-.157-.025-.158-.026-.157-.029-.156-.03-.156-.032-.155-.034-.155-.036-.155-.038-.154-.04-.153-.041-.153-.044-.152-.045-.151-.047-.151-.049-.151-.051-.149-.052-.149-.055-.149-.056-.147-.058-.147-.06-.146-.061-.145-.063-.145-.066-.144-.066-.143-.069-.142-.07-.141-.073-.141-.073-.139-.076-.139-.077-.138-.079-.136-.081-.136-.083-.135-.084-.134-.086-.133-.087-.132-.089-.131-.091-.13-.093-.129-.094-.128-.096-.127-.097-.125-.099-.125-.101-.123-.102-.122-.104-.122-.106-.119-.107-.119-.109-.117-.11-.117-.112-.114-.114-.114-.114-.112-.117-.11-.117-.109-.119-.107-.119-.106-.122-.104-.122-.102-.123-.101-.125-.099-.125-.097-.127-.096-.128-.094-.129-.093-.13-.091-.131-.089-.132-.087-.133-.086-.134-.084-.135-.083-.136-.081-.136-.079-.138-.077-.139-.076-.139-.073-.141-.073-.141-.07-.142-.069-.143-.066-.144-.066-.145-.063-.145-.061-.146-.06-.147-.058-.147-.056-.149-.055-.149-.052-.149-.051-.151-.049-.15-.047-.152-.045-.152-.044-.153-.041-.153-.04-.154-.038-.155-.036-.155-.034-.155-.032-.156-.03-.156-.029-.157-.026-.158-.025-.157-.022-.158-.021-.159-.019-.159-.016-.159-.015-.16-.013-.16-.011-.16-.009-.16-.007-.161-.005-.161-.003-.161-.001-.156v-2.012l.001-.187.004-.193.006-.193.008-.191.011-.191.014-.191.015-.19.018-.189.021-.189.022-.188.025-.187.028-.187.029-.186.032-.185.034-.184.037-.184.038-.183.041-.182.043-.181.045-.18.048-.18.049-.178.052-.178.054-.177.056-.176.058-.175.06-.174.062-.173.064-.171.066-.171.068-.17.071-.169.072-.168.074-.167.076-.166.078-.164.08-.164.082-.162.084-.161.086-.16.087-.159.09-.158.091-.156.093-.156.095-.154.096-.152.099-.152.1-.15.102-.149.103-.148.106-.146.107-.145.109-.144.11-.142.112-.141.114-.139.115-.138.117-.137.119-.135.12-.134.122-.132.123-.131.125-.13.126-.128.128-.126.13-.125.131-.123.132-.122.134-.12.135-.119.137-.117.138-.115.139-.114.141-.112.142-.11.144-.109.145-.107.146-.105.148-.104.149-.102.15-.1.152-.099.152-.096.154-.095.156-.093.156-.091.158-.09.159-.087.16-.086.161-.084.162-.082.164-.08.164-.078.166-.076.167-.074.168-.072.169-.071.17-.068.171-.066.171-.064.173-.062.174-.06.175-.058.176-.056.177-.054.178-.052.178-.049.18-.048.18-.045.181-.043.182-.041.183-.038.184-.037.184-.034.185-.032.186-.029.187-.028.187-.025.188-.022.189-.021.189-.018.19-.015.191-.014.191-.011.192-.008.192-.006.193-.004.193-.001zm-.336 4-.142.003-.142.004-.141.006-.14.008-.14.01-.14.012-.139.013-.139.015-.138.017-.137.018-.137.02-.136.022-.136.023-.135.025-.134.027-.134.028-.133.03-.133.031-.132.033-.131.035-.131.036-.129.038-.13.039-.128.041-.128.043-.128.043-.126.046-.126.047-.125.048-.125.05-.123.052-.123.052-.122.055-.121.056-.121.057-.12.058-.119.06-.118.062-.117.062-.116.065-.116.065-.115.067-.113.068-.113.07-.112.071-.112.072-.11.073-.109.075-.108.076-.108.078-.106.078-.106.08-.104.081-.104.083-.102.083-.102.085-.1.086-.099.087-.099.088-.097.09-.096.09-.095.092-.094.093-.093.094-.092.095-.09.096-.09.097-.088.099-.087.099-.086.1-.085.102-.083.102-.083.104-.081.104-.08.106-.078.106-.078.108-.076.108-.075.109-.073.11-.072.112-.071.112-.07.113-.068.113-.067.115-.065.116-.064.116-.063.117-.062.119-.06.118-.058.12-.057.121-.056.121-.054.122-.053.123-.052.124-.05.124-.048.125-.047.126-.046.126-.043.128-.043.128-.041.128-.039.129-.038.131-.036.13-.035.131-.033.132-.031.133-.03.133-.028.134-.027.134-.025.135-.023.136-.022.136-.02.137-.018.137-.017.138-.015.139-.013.139-.012.14-.01.14-.008.14-.006.141-.004.142-.003.142-.001.149v1.988l.001.118.002.112.003.111.005.111.006.111.008.111.009.111.01.111.012.11.013.11.014.11.016.109.017.109.018.109.02.109.021.108.022.108.023.108.025.107.026.107.028.106.029.106.03.106.031.105.033.105.034.105.035.104.036.104.038.103.039.102.04.102.041.102.043.101.044.101.045.1.046.099.047.1.049.098.05.098.051.097.053.097.053.096.055.095.056.095.057.094.058.093.06.093.06.092.062.092.063.09.064.09.065.089.066.089.068.088.068.087.07.086.071.085.072.085.073.084.074.082.076.083.076.081.077.08.079.08.08.079.08.077.081.076.082.076.083.074.084.073.085.072.085.071.086.07.087.068.088.068.089.066.089.065.09.064.09.063.092.062.092.06.093.06.093.058.094.057.095.056.095.055.096.053.097.053.097.051.098.05.098.049.099.047.1.046.1.045.101.044.101.043.102.041.102.04.102.039.104.038.103.036.104.035.105.034.105.033.105.031.106.03.106.029.106.028.107.026.107.025.108.023.108.022.108.021.109.02.109.018.109.017.109.016.11.014.11.013.11.012.111.01.111.009.111.008.111.006.111.005.111.003.112.002.118.001h3.988l.118-.001.112-.002.111-.003.111-.005.111-.006.111-.008.111-.009.111-.01.11-.012.11-.013.11-.014.109-.016.109-.017.109-.018.109-.02.108-.021.108-.022.108-.023.107-.025.107-.026.106-.028.106-.029.106-.03.105-.031.105-.033.105-.034.104-.035.104-.036.103-.038.102-.039.102-.04.102-.041.101-.043.101-.044.1-.045.1-.046.099-.047.098-.049.098-.05.097-.051.097-.053.096-.053.095-.055.095-.056.094-.057.093-.058.093-.06.092-.06.092-.062.09-.063.09-.064.089-.065.089-.066.088-.068.087-.068.086-.07.085-.071.085-.072.084-.073.082-.074.083-.076.081-.076.08-.077.08-.079.079-.08.077-.08.076-.081.076-.083.074-.082.073-.084.072-.085.071-.085.07-.086.068-.087.068-.088.066-.089.065-.089.064-.09.063-.09.062-.092.06-.092.06-.093.058-.093.057-.094.056-.095.055-.095.053-.096.053-.097.051-.097.05-.098.048-.098.048-.099.046-.1.045-.1.044-.101.043-.101.041-.102.04-.102.039-.102.038-.103.036-.104.035-.104.034-.105.033-.105.031-.105.03-.106.029-.106.028-.106.026-.107.025-.107.023-.108.022-.108.021-.108.02-.109.018-.109.017-.109.016-.109.014-.11.013-.11.012-.11.01-.111.009-.111.008-.111.006-.111.005-.111.003-.111.002-.112.001-.118v-1.988l-.001-.149-.003-.142-.004-.142-.006-.141-.008-.14-.01-.14-.012-.14-.013-.139-.015-.139-.017-.138-.018-.137-.02-.137-.022-.136-.023-.136-.025-.135-.027-.134-.028-.134-.03-.133-.031-.133-.033-.132-.035-.131-.036-.131-.038-.129-.039-.13-.041-.128-.043-.128-.043-.128-.046-.126-.047-.126-.048-.125-.05-.124-.052-.124-.053-.123-.054-.122-.056-.121-.057-.121-.058-.12-.06-.118-.062-.119-.063-.117-.064-.116-.065-.116-.067-.115-.068-.113-.07-.113-.071-.112-.072-.112-.073-.11-.075-.109-.076-.108-.078-.108-.078-.106-.08-.106-.081-.104-.083-.104-.083-.102-.085-.102-.086-.1-.087-.099-.088-.099-.09-.097-.09-.096-.092-.095-.093-.094-.094-.093-.095-.092-.096-.09-.097-.09-.099-.088-.099-.087-.1-.086-.102-.085-.102-.083-.104-.083-.104-.081-.106-.08-.106-.078-.108-.078-.108-.076-.109-.075-.11-.073-.112-.072-.112-.071-.113-.07-.113-.068-.115-.067-.116-.065-.116-.065-.117-.062-.118-.062-.119-.06-.12-.058-.121-.057-.121-.056-.122-.055-.123-.052-.124-.052-.124-.05-.125-.048-.126-.047-.126-.046-.128-.043-.128-.043-.128-.041-.13-.039-.129-.038-.131-.036-.131-.035-.132-.033-.133-.031-.133-.03-.134-.028-.134-.027-.135-.025-.136-.023-.136-.022-.137-.02-.137-.018-.138-.017-.139-.015-.139-.013-.14-.012-.14-.01-.14-.008-.141-.006-.142-.004-.142-.003-.143-.001-.143.001z"/><path d="m16.327.001.322.004.32.006.318.009.316.011.314.013.312.016.309.018.308.02.305.023.302.025.3.027.297.029.295.032.292.034.29.036.286.038.284.04.281.043.278.045.275.046.272.049.269.051.267.054.263.055.259.058.257.06.254.062.25.065.248.066.244.07.241.071.238.074.236.077.232.08.229.082.219.083.119.047.111.044.111.046.11.046.11.048.108.048.109.05.107.05.107.051.107.053.105.054.106.054.104.057.105.057.103.059.104.061.103.062.102.063.102.066.102.067.101.069.101.071.1.074.1.075.1.079.099.08.098.084.099.086.098.09.096.093.097.096.095.1.095.104.094.108.092.112.091.116.089.121.088.127.086.13.082.137.08.141.077.146.073.152.069.157.065.162.059.167.054.172.048.176.041.18.034.183.027.186.02.189.012.19.004.191-.004.191-.012.19-.02.189-.027.186-.034.183-.041.18-.048.176-.054.172-.059.167-.065.162-.069.157-.073.152-.077.146-.08.141-.082.137-.086.13-.088.127-.089.121-.091.116-.092.112-.094.108-.095.104-.095.1-.097.096-.097.093-.097.09-.099.086-.098.084-.099.08-.1.079-.1.075-.1.074-.101.071-.101.069-.102.067-.102.066-.102.063-.103.062-.104.061-.103.059-.105.057-.104.057-.106.054-.105.054-.107.053-.107.051-.107.05-.109.05-.108.048-.11.048-.11.046-.111.046-.111.044-.119.047-.219.083-.229.082-.232.08-.236.077-.238.074-.241.071-.244.07-.248.066-.25.065-.254.062-.257.06-.259.058-.263.055-.267.054-.269.051-.272.049-.275.046-.278.045-.281.043-.284.04-.286.038-.29.036-.292.034-.295.032-.297.029-.3.027-.302.025-.305.023-.308.02-.309.018-.312.016-.314.013-.316.011-.318.009-.32.006-.322.004-.323.001-.324-.001-.322-.004-.32-.006-.318-.009-.316-.011-.314-.013-.312-.016-.309-.018-.308-.02-.304-.023-.303-.025-.3-.027-.297-.029-.295-.032-.292-.034-.289-.036-.287-.038-.284-.04-.281-.043-.278-.045-.275-.046-.272-.049-.269-.051-.266-.054-.263-.055-.26-.058-.257-.06-.254-.062-.25-.065-.248-.066-.244-.07-.241-.071-.238-.074-.235-.077-.232-.08-.23-.082-.219-.083-.119-.047-.111-.044-.111-.046-.11-.046-.109-.048-.109-.048-.108-.05-.108-.05-.107-.051-.106-.053-.106-.054-.105-.054-.105-.057-.105-.057-.103-.059-.104-.061-.103-.062-.102-.063-.102-.066-.102-.067-.101-.069-.1-.071-.101-.074-.1-.075-.099-.079-.1-.08-.098-.084-.098-.086-.098-.09-.097-.093-.096-.096-.096-.1-.095-.104-.094-.108-.092-.112-.091-.116-.089-.121-.088-.127-.085-.13-.083-.137-.08-.141-.077-.146-.073-.152-.069-.157-.065-.162-.059-.167-.054-.172-.047-.176-.042-.18-.034-.183-.027-.186-.02-.189-.012-.19-.004-.191.004-.191.012-.19.02-.189.027-.186.034-.183.042-.18.047-.176.054-.172.059-.167.065-.162.069-.157.073-.152.077-.146.08-.141.083-.137.085-.13.088-.127.089-.121.091-.116.092-.112.094-.108.095-.104.096-.1.096-.096.097-.093.098-.09.098-.086.098-.084.1-.08.099-.079.1-.075.101-.074.1-.071.101-.069.102-.067.102-.066.102-.063.103-.062.104-.061.103-.059.105-.057.105-.057.105-.054.106-.054.106-.053.107-.051.108-.05.108-.05.109-.048.109-.048.11-.046.111-.046.111-.044.119-.047.219-.083.23-.082.232-.08.235-.077.238-.074.241-.071.244-.07.248-.066.25-.065.254-.062.257-.06.26-.058.263-.055.266-.054.269-.051.272-.049.275-.046.278-.045.281-.043.284-.04.287-.038.289-.036.292-.034.295-.032.297-.029.3-.027.303-.025.304-.023.308-.02.309-.018.312-.016.314-.013.316-.011.318-.009.32-.006.322-.004.324-.001.323.001z"/><path d="m2 0h28v8h-28z" fill="none"/><g clip-path="url(#b)"><path d="m16.312 2.001.306.004.305.006.302.008.301.01.298.013.296.015.294.017.291.019.289.022.287.023.283.026.281.028.278.03.276.032.272.034.269.035.267.038.263.04.26.042.256.043.254.046.249.047.247.05.242.051.24.053.235.055.232.057.228.058.224.061.22.062.216.065.212.066.209.068.204.07.2.072.193.073.099.039.096.038.094.039.094.039.092.04.091.041.091.041.089.042.088.042.087.043.086.044.085.044.085.046.083.045.082.047.081.047.08.049.079.049.078.05.077.05.075.052.075.053.074.054.073.055.071.057.071.057.069.059.069.06.067.062.066.063.065.065.064.066.062.069.061.07.059.072.058.074.056.076.055.078.052.081.051.083.048.085.046.088.043.089.041.093.037.094.035.097.031.099.027.101.024.102.019.104.015.106.012.106.006.107.003.108-.003.108-.006.107-.012.106-.015.106-.019.104-.024.102-.027.101-.031.099-.035.097-.037.094-.041.093-.043.089-.046.088-.048.085-.051.083-.052.081-.055.078-.056.076-.058.074-.059.072-.061.07-.062.069-.064.066-.065.065-.066.063-.067.062-.068.06-.07.059-.071.057-.071.057-.073.055-.074.054-.075.053-.075.052-.077.05-.078.05-.079.049-.08.049-.081.047-.082.047-.083.045-.085.046-.085.044-.086.044-.087.043-.088.042-.089.042-.091.041-.091.041-.092.04-.094.039-.094.039-.096.038-.099.039-.193.073-.2.072-.204.07-.209.068-.212.066-.216.065-.22.062-.224.061-.228.058-.232.057-.235.055-.24.053-.242.051-.247.05-.249.047-.254.046-.256.043-.26.042-.263.04-.267.038-.269.035-.272.034-.276.032-.278.03-.281.028-.283.026-.287.023-.289.022-.291.019-.294.017-.296.015-.298.013-.301.01-.302.008-.305.006-.306.004-.308.001-.309-.001-.306-.004-.305-.006-.302-.008-.301-.01-.298-.013-.296-.015-.294-.017-.291-.019-.289-.022-.286-.023-.284-.026-.281-.028-.278-.03-.276-.032-.272-.034-.269-.035-.267-.038-.263-.04-.26-.042-.256-.043-.253-.046-.25-.047-.246-.05-.243-.051-.239-.053-.236-.055-.231-.057-.228-.058-.224-.061-.221-.062-.216-.065-.212-.066-.208-.068-.205-.07-.2-.072-.193-.073-.099-.039-.096-.038-.094-.039-.093-.039-.093-.04-.091-.041-.09-.041-.09-.042-.088-.042-.087-.043-.086-.044-.085-.044-.084-.046-.083-.045-.082-.047-.082-.047-.08-.049-.079-.049-.077-.05-.077-.05-.076-.052-.075-.053-.074-.054-.073-.055-.071-.057-.071-.057-.069-.059-.069-.06-.067-.062-.066-.063-.065-.065-.064-.066-.062-.069-.061-.07-.059-.072-.058-.074-.056-.076-.055-.078-.052-.081-.051-.083-.048-.085-.046-.088-.043-.089-.041-.093-.037-.094-.035-.097-.03-.099-.028-.101-.023-.102-.02-.104-.015-.106-.011-.106-.007-.107-.002-.108.002-.108.007-.107.011-.106.015-.106.02-.104.023-.102.028-.101.03-.099.035-.097.037-.094.041-.093.043-.089.046-.088.048-.085.051-.083.052-.081.055-.078.056-.076.058-.074.059-.072.061-.07.062-.069.064-.066.065-.065.066-.063.067-.062.069-.06.069-.059.071-.057.071-.057.073-.055.074-.054.075-.053.076-.052.077-.05.077-.05.079-.049.08-.049.082-.047.082-.047.083-.045.084-.046.085-.044.086-.044.087-.043.088-.042.09-.042.09-.041.091-.041.093-.04.093-.039.094-.039.096-.038.099-.039.193-.073.2-.072.205-.07.208-.068.212-.066.216-.065.221-.062.224-.061.228-.058.231-.057.236-.055.239-.053.243-.051.246-.05.25-.047.253-.046.256-.043.26-.042.263-.04.267-.038.269-.035.272-.034.276-.032.278-.03.281-.028.284-.026.286-.023.289-.022.291-.019.294-.017.296-.015.298-.013.301-.01.302-.008.305-.006.306-.004.309-.001zm-.594 3-.283.003-.281.006-.279.007-.278.01-.275.012-.272.014-.27.015-.268.018-.265.02-.262.021-.259.024-.257.025-.253.027-.25.029-.247.031-.243.032-.24.034-.236.036-.233.038-.229.039-.225.04-.221.042-.216.043-.212.045-.208.046-.204.048-.199.048-.194.05-.189.051-.184.053-.178.053-.174.054-.168.055-.162.055-.157.057-.153.058-.071.027-.071.029-.07.029-.069.029-.066.029-.065.028-.064.029-.062.029-.06.029-.058.029-.057.029-.055.028-.053.029-.051.028-.049.028-.048.028-.045.027-.044.028-.042.027-.04.026-.038.026-.036.025-.034.025-.032.024-.029.023-.028.023-.026.022-.024.021-.006.006.006.006.024.021.026.022.028.023.029.023.032.024.034.025.036.025.038.026.04.026.042.027.044.028.045.027.048.028.049.028.051.028.053.029.055.028.057.029.058.029.06.029.062.029.064.029.065.028.066.029.069.029.07.029.071.029.071.027.153.058.157.057.162.055.168.055.174.054.178.053.184.053.189.051.194.05.199.048.204.048.208.046.212.045.216.043.221.042.225.04.229.039.233.038.236.036.24.034.243.032.247.031.25.029.253.027.257.025.259.024.262.021.265.02.268.018.27.015.272.014.275.012.278.01.279.007.281.006.283.003.286.001.285-.001.283-.003.281-.006.28-.007.277-.01.275-.012.272-.014.27-.015.268-.018.265-.02.262-.021.259-.024.257-.025.253-.027.25-.029.247-.031.243-.032.24-.034.237-.036.232-.038.229-.039.225-.04.221-.042.216-.043.213-.045.208-.046.203-.048.199-.048.194-.05.189-.051.184-.053.179-.053.173-.054.168-.055.162-.055.157-.057.154-.058.07-.027.071-.029.07-.029.069-.029.066-.029.066-.028.063-.029.062-.029.06-.029.058-.029.057-.029.055-.028.053-.029.051-.028.05-.028.047-.028.046-.027.043-.028.042-.027.04-.026.038-.026.036-.025.034-.025.032-.024.03-.023.027-.023.026-.022.024-.021.007-.006-.007-.006-.024-.021-.026-.022-.027-.023-.03-.023-.032-.024-.034-.025-.036-.025-.038-.026-.04-.026-.042-.027-.043-.028-.046-.027-.047-.028-.05-.028-.051-.028-.053-.029-.055-.028-.057-.029-.058-.029-.06-.029-.062-.029-.063-.029-.066-.028-.066-.029-.069-.029-.07-.029-.071-.029-.07-.027-.154-.058-.157-.057-.162-.055-.168-.055-.173-.054-.179-.053-.184-.053-.189-.051-.194-.05-.199-.048-.203-.048-.208-.046-.213-.045-.216-.043-.221-.042-.225-.04-.229-.039-.232-.038-.237-.036-.24-.034-.243-.032-.247-.031-.25-.029-.253-.027-.257-.025-.259-.024-.262-.021-.265-.02-.268-.018-.27-.015-.272-.014-.275-.012-.277-.01-.28-.007-.281-.006-.283-.003-.285-.001z" fill="#1bb0e6"/></g><path d="m29 17c0-7.18-5.82-13-13-13-7.18 0-13 5.82-13 13v2c0 2.917 1.159 5.715 3.222 7.778s4.861 3.222 7.778 3.222h4c2.917 0 5.715-1.159 7.778-3.222s3.222-4.861 3.222-7.778c0-.662 0-1.331 0-2z" fill="#fbc546"/><g clip-path="url(#c)"><path d="m2 9h28v9h-28z" fill="none"/><g clip-path="url(#d)"><path d="m16.312 4.001.306.004.305.006.302.008.301.01.298.013.296.015.294.017.291.019.289.022.287.023.283.026.281.028.278.03.276.032.272.034.269.035.267.038.263.04.26.042.256.043.254.046.249.047.247.05.242.051.24.053.235.055.232.057.228.058.224.061.22.062.216.065.212.066.209.068.204.07.2.072.193.073.099.039.096.038.094.039.094.039.092.04.091.041.091.041.089.042.088.042.087.043.086.044.085.044.085.046.083.045.082.047.081.047.08.049.079.049.078.05.077.05.075.052.075.053.074.054.073.055.071.057.071.057.07.059.068.06.067.062.066.063.065.065.064.066.062.069.061.07.059.072.058.074.056.076.055.078.052.081.051.083.048.085.046.088.043.089.041.093.037.094.035.097.031.099.027.101.024.102.019.104.015.106.012.106.006.107.003.108-.003.108-.006.107-.012.106-.015.106-.019.104-.024.102-.027.101-.031.099-.035.097-.037.094-.041.093-.043.089-.046.088-.048.085-.051.083-.052.081-.055.078-.056.076-.058.074-.059.072-.061.07-.062.069-.064.066-.065.065-.066.063-.067.062-.068.06-.07.059-.071.057-.071.057-.073.055-.074.054-.075.053-.075.052-.077.05-.078.05-.079.049-.08.049-.081.047-.082.047-.083.045-.085.046-.085.044-.086.044-.087.043-.088.042-.089.042-.091.041-.091.041-.092.04-.094.039-.094.039-.096.038-.099.039-.193.073-.2.072-.204.07-.209.068-.212.066-.216.065-.22.062-.224.061-.228.058-.232.057-.235.055-.24.053-.242.051-.247.05-.249.047-.254.046-.256.043-.26.042-.263.04-.267.038-.269.035-.272.034-.276.032-.278.03-.281.028-.283.026-.287.023-.289.022-.291.019-.294.017-.296.015-.298.013-.301.01-.302.008-.305.006-.306.004-.308.001-.309-.001-.306-.004-.305-.006-.302-.008-.301-.01-.298-.013-.296-.015-.294-.017-.291-.019-.289-.022-.286-.023-.284-.026-.281-.028-.278-.03-.276-.032-.272-.034-.269-.035-.267-.038-.263-.04-.26-.042-.256-.043-.253-.046-.25-.047-.246-.05-.243-.051-.239-.053-.236-.055-.231-.057-.228-.058-.224-.061-.221-.062-.216-.065-.212-.066-.208-.068-.205-.07-.2-.072-.193-.073-.099-.039-.096-.038-.094-.039-.093-.039-.093-.04-.091-.041-.09-.041-.09-.042-.088-.042-.087-.043-.086-.044-.085-.044-.084-.046-.083-.045-.082-.047-.082-.047-.08-.049-.079-.049-.077-.05-.077-.05-.076-.052-.075-.053-.074-.054-.073-.055-.071-.057-.071-.057-.069-.059-.069-.06-.067-.062-.066-.063-.065-.065-.064-.066-.062-.069-.061-.07-.059-.072-.058-.074-.056-.076-.055-.078-.052-.081-.051-.083-.048-.085-.046-.088-.043-.089-.041-.093-.037-.094-.035-.097-.03-.099-.028-.101-.023-.102-.02-.104-.015-.106-.011-.106-.007-.107-.002-.108.002-.108.007-.107.011-.106.015-.106.02-.104.023-.102.028-.101.03-.099.035-.097.037-.094.041-.093.043-.089.046-.088.048-.085.051-.083.052-.081.055-.078.056-.076.058-.074.059-.072.061-.07.062-.069.064-.066.065-.065.066-.063.067-.062.069-.06.069-.059.071-.057.071-.057.073-.055.074-.054.075-.053.076-.052.077-.05.077-.05.079-.049.08-.049.081-.047.083-.047.083-.045.084-.046.085-.044.086-.044.087-.043.088-.042.09-.042.09-.041.091-.041.093-.04.093-.039.094-.039.096-.038.099-.039.193-.073.2-.072.205-.07.208-.068.212-.066.216-.065.221-.062.224-.061.228-.058.231-.057.236-.055.239-.053.243-.051.246-.05.25-.047.253-.046.256-.043.26-.042.263-.04.267-.038.269-.035.272-.034.276-.032.278-.03.281-.028.284-.026.286-.023.289-.022.291-.019.294-.017.296-.015.298-.013.301-.01.302-.008.305-.006.306-.004.309-.001zm-.594 3-.283.003-.281.006-.279.007-.278.01-.275.012-.272.014-.27.015-.268.018-.265.02-.262.021-.259.024-.257.025-.253.027-.25.029-.247.031-.243.032-.24.034-.236.036-.233.038-.229.039-.225.04-.221.042-.216.043-.212.045-.208.046-.204.048-.199.048-.194.05-.189.051-.184.053-.178.053-.174.054-.168.055-.162.055-.157.057-.153.058-.071.027-.071.029-.07.029-.069.029-.066.029-.065.028-.064.029-.062.029-.06.029-.058.029-.057.029-.055.028-.053.029-.051.028-.049.028-.048.028-.046.028-.043.027-.042.026-.04.027-.038.026-.036.025-.034.025-.032.024-.029.024-.028.022-.026.022-.024.021-.006.006.006.006.024.021.026.022.028.023.029.023.032.024.034.025.036.025.038.026.04.026.042.027.044.028.045.027.048.028.049.028.051.028.053.029.055.028.057.029.058.029.06.029.062.029.064.029.065.028.066.029.069.029.07.029.071.029.071.027.153.058.157.057.162.055.168.055.174.054.178.053.184.053.189.051.194.05.199.048.204.048.208.046.212.045.216.043.221.042.225.04.229.039.233.038.236.036.24.034.243.032.247.031.25.029.253.027.257.025.259.024.262.021.265.02.268.018.27.015.272.014.275.012.278.01.279.007.281.006.283.003.286.001.285-.001.283-.003.281-.006.28-.007.277-.01.275-.012.272-.014.27-.015.268-.018.265-.02.262-.021.259-.024.257-.025.253-.027.25-.029.247-.031.243-.032.24-.034.237-.036.232-.038.229-.039.225-.04.221-.042.216-.043.213-.045.208-.046.203-.048.199-.048.194-.05.189-.051.184-.053.179-.053.173-.054.168-.055.162-.055.157-.057.154-.058.07-.027.071-.029.07-.029.069-.029.066-.029.066-.028.063-.029.062-.029.06-.029.058-.029.057-.029.055-.028.053-.029.051-.028.05-.028.047-.028.046-.027.043-.028.042-.027.04-.026.038-.026.036-.025.034-.025.032-.024.03-.023.027-.023.026-.022.024-.021.007-.006-.007-.006-.024-.021-.026-.022-.027-.022-.03-.024-.032-.024-.034-.025-.036-.025-.038-.026-.04-.027-.042-.026-.043-.027-.046-.028-.047-.028-.05-.028-.051-.028-.053-.029-.055-.028-.057-.029-.058-.029-.06-.029-.062-.029-.063-.029-.066-.028-.066-.029-.069-.029-.07-.029-.071-.029-.07-.027-.154-.058-.157-.057-.162-.055-.168-.055-.173-.054-.179-.053-.184-.053-.189-.051-.194-.05-.199-.048-.203-.048-.208-.046-.213-.045-.216-.043-.221-.042-.225-.04-.229-.039-.232-.038-.237-.036-.24-.034-.243-.032-.247-.031-.25-.029-.253-.027-.257-.025-.259-.024-.262-.021-.265-.02-.268-.018-.27-.015-.272-.014-.275-.012-.277-.01-.28-.007-.281-.006-.283-.003-.285-.001z" fill="#e59a10"/></g></g><path d="m23.045 20.001.075.006.073.012.073.017.072.023.069.028.067.033.065.037.061.043.058.047.055.051.05.056.046.058.042.063.037.065.032.067.026.07.022.072.016.073.011.074.005.074-.001.075-.006.075-.012.073-.017.073-.023.072-.028.069-.033.067-.037.065-.043.061-.602.803-.078.103-.082.104-.083.102-.085.102-.086.1-.087.098-.088.098-.09.095-.091.095-.093.092-.093.092-.095.09-.096.088-.097.087-.098.086-.1.084-.1.082-.102.081-.103.079-.104.078-.104.077-.106.074-.107.073-.108.072-.109.07-.11.068-.111.067-.111.065-.113.064-.113.062-.115.06-.115.059-.116.057-.117.055-.118.054-.118.052-.119.05-.12.049-.121.046-.121.045-.122.044-.123.041-.123.04-.124.039-.125.036-.125.034-.126.033-.126.031-.127.029-.127.028-.128.025-.128.024-.129.022-.129.02-.13.018-.13.016-.131.015-.13.012-.132.011-.131.008-.132.007-.132.005-.132.003-.133.001-.133-.001-.132-.003-.132-.005-.132-.007-.131-.008-.132-.011-.13-.012-.131-.015-.13-.016-.13-.018-.129-.02-.129-.022-.128-.024-.128-.025-.127-.028-.127-.029-.126-.031-.126-.033-.125-.034-.125-.036-.124-.039-.123-.04-.123-.041-.122-.044-.121-.045-.121-.046-.12-.049-.119-.05-.118-.052-.118-.054-.117-.055-.116-.057-.115-.059-.114-.06-.114-.062-.113-.064-.111-.065-.111-.067-.11-.068-.109-.07-.108-.072-.107-.073-.106-.074-.104-.077-.104-.078-.103-.079-.102-.081-.1-.082-.1-.084-.098-.086-.097-.087-.096-.088-.095-.09-.093-.092-.093-.092-.091-.095-.09-.095-.088-.098-.087-.098-.086-.1-.085-.102-.083-.102-.082-.104-.078-.103-.602-.803-.043-.061-.037-.065-.033-.067-.028-.069-.023-.072-.017-.073-.012-.073-.006-.075-.001-.075.005-.074.011-.074.016-.073.022-.072.026-.07.032-.067.037-.066.042-.062.046-.058.05-.056.055-.051.058-.047.061-.043.065-.037.067-.033.069-.028.072-.023.073-.017.073-.012.075-.006.075-.001.074.005.074.011.073.016.072.022.07.026.067.032.066.037.062.042.058.046.056.05.051.055.047.058.598.797.065.085.063.081.065.08.066.079.066.078.068.076.069.076.07.074.071.074.071.072.073.071.074.07.075.069.075.067.077.067.077.065.078.064.079.063.08.062.081.06.081.06.083.058.083.057.084.055.085.055.085.053.086.052.087.051.088.049.088.048.089.047.089.046.091.044.091.043.091.042.092.04.093.04.093.037.094.037.094.035.095.034.096.032.096.031.096.03.097.028.097.027.098.025.098.024.099.023.099.021.1.02.099.019.1.017.101.015.101.014.101.013.101.011.102.01.102.008.102.007.103.005.103.004.103.002.103.001.103-.001.103-.002.103-.004.103-.005.102-.007.102-.008.102-.01.101-.011.101-.013.101-.014.101-.015.1-.017.099-.019.1-.02.099-.021.099-.023.098-.024.098-.025.097-.027.097-.028.096-.03.096-.031.096-.032.094-.034.095-.035.094-.037.093-.037.093-.04.092-.04.091-.042.091-.043.09-.044.09-.046.089-.047.088-.048.088-.049.087-.051.086-.052.085-.053.085-.055.084-.055.083-.057.083-.058.081-.06.081-.06.08-.062.079-.063.078-.064.077-.065.077-.067.075-.067.075-.069.074-.07.073-.071.071-.072.071-.074.07-.074.069-.076.068-.076.066-.078.066-.079.065-.08.063-.081.065-.085.598-.797.047-.058.051-.055.056-.05.058-.046.063-.042.065-.037.067-.032.07-.026.072-.022.073-.016.074-.011.074-.005z" fill="#593604"/><path d="m25.207 15.793c.391.39.391 1.024 0 1.414-.39.391-1.024.391-1.414 0-.739-.739-1.793-1.793-1.793-1.793s-1.037 1.037-1.775 1.775c-.401.401-1.05.401-1.45 0-.183-.183-.286-.431-.286-.689s.103-.506.286-.689c1.123-1.123 3.225-3.225 3.225-3.225s2.08 2.079 3.207 3.207z" fill-rule="nonzero"/><path d="m13.207 15.793c.391.39.391 1.024 0 1.414-.39.391-1.024.391-1.414 0-.739-.739-1.793-1.793-1.793-1.793s-1.037 1.037-1.775 1.775c-.401.401-1.05.401-1.45 0-.183-.183-.286-.431-.286-.689s.103-.506.286-.689c1.123-1.123 3.225-3.225 3.225-3.225s2.08 2.079 3.207 3.207z" fill-rule="nonzero"/><path d="m2 7h28v9h-28z" fill="none"/><g clip-path="url(#e)"><path d="m16.312 2.001.306.004.305.006.302.008.301.01.298.013.296.015.294.017.291.019.289.022.287.023.283.026.281.028.278.03.276.032.272.034.269.035.267.038.263.04.26.042.256.043.254.046.249.047.247.05.242.051.24.053.235.055.232.057.228.058.224.061.22.062.216.065.212.066.209.068.204.07.2.072.193.073.099.039.096.038.094.039.094.039.092.04.091.041.091.041.089.042.088.042.087.043.086.044.085.044.085.046.083.045.082.047.081.047.08.049.079.049.078.05.077.05.075.052.075.053.074.054.073.055.071.057.071.057.069.059.069.06.067.062.066.063.065.065.064.066.062.069.061.07.059.072.058.074.056.076.055.078.052.081.051.083.048.085.046.088.043.089.041.093.037.094.035.097.031.099.027.101.024.102.019.104.015.106.012.106.006.107.003.108-.003.108-.006.107-.012.106-.015.106-.019.104-.024.102-.027.101-.031.099-.035.097-.037.094-.041.093-.043.089-.046.088-.048.085-.051.083-.052.081-.055.078-.056.076-.058.074-.059.072-.061.07-.062.069-.064.066-.065.065-.066.063-.067.062-.068.06-.07.059-.071.057-.071.057-.073.055-.074.054-.075.053-.075.052-.077.05-.078.05-.079.049-.08.049-.081.047-.082.047-.083.045-.085.046-.085.044-.086.044-.087.043-.088.042-.089.042-.091.041-.091.041-.092.04-.094.039-.094.039-.096.038-.099.039-.193.073-.2.072-.204.07-.209.068-.212.066-.216.065-.22.062-.224.061-.228.058-.232.057-.235.055-.24.053-.242.051-.247.05-.249.047-.254.046-.256.043-.26.042-.263.04-.267.038-.269.035-.272.034-.276.032-.278.03-.281.028-.283.026-.287.023-.289.022-.291.019-.294.017-.296.015-.298.013-.301.01-.302.008-.305.006-.306.004-.308.001-.309-.001-.306-.004-.305-.006-.302-.008-.301-.01-.298-.013-.296-.015-.294-.017-.291-.019-.289-.022-.286-.023-.284-.026-.281-.028-.278-.03-.276-.032-.272-.034-.269-.035-.267-.038-.263-.04-.26-.042-.256-.043-.253-.046-.25-.047-.246-.05-.243-.051-.239-.053-.236-.055-.231-.057-.228-.058-.224-.061-.221-.062-.216-.065-.212-.066-.208-.068-.205-.07-.2-.072-.193-.073-.099-.039-.096-.038-.094-.039-.093-.039-.093-.04-.091-.041-.09-.041-.09-.042-.088-.042-.087-.043-.086-.044-.085-.044-.084-.046-.083-.045-.082-.047-.082-.047-.08-.049-.079-.049-.077-.05-.077-.05-.076-.052-.075-.053-.074-.054-.073-.055-.071-.057-.071-.057-.069-.059-.069-.06-.067-.062-.066-.063-.065-.065-.064-.066-.062-.069-.061-.07-.059-.072-.058-.074-.056-.076-.055-.078-.052-.081-.051-.083-.048-.085-.046-.088-.043-.089-.041-.093-.037-.094-.035-.097-.03-.099-.028-.101-.023-.102-.02-.104-.015-.106-.011-.106-.007-.107-.002-.108.002-.108.007-.107.011-.106.015-.106.02-.104.023-.102.028-.101.03-.099.035-.097.037-.094.041-.093.043-.089.046-.088.048-.085.051-.083.052-.081.055-.078.056-.076.058-.074.059-.072.061-.07.062-.069.064-.066.065-.065.066-.063.067-.062.069-.06.069-.059.071-.057.071-.057.073-.055.074-.054.075-.053.076-.052.077-.05.077-.05.079-.049.08-.049.082-.047.082-.047.083-.045.084-.046.085-.044.086-.044.087-.043.088-.042.09-.042.09-.041.091-.041.093-.04.093-.039.094-.039.096-.038.099-.039.193-.073.2-.072.205-.07.208-.068.212-.066.216-.065.221-.062.224-.061.228-.058.231-.057.236-.055.239-.053.243-.051.246-.05.25-.047.253-.046.256-.043.26-.042.263-.04.267-.038.269-.035.272-.034.276-.032.278-.03.281-.028.284-.026.286-.023.289-.022.291-.019.294-.017.296-.015.298-.013.301-.01.302-.008.305-.006.306-.004.309-.001zm-.594 3-.283.003-.281.006-.279.007-.278.01-.275.012-.272.014-.27.015-.268.018-.265.02-.262.021-.259.024-.257.025-.253.027-.25.029-.247.031-.243.032-.24.034-.236.036-.233.038-.229.039-.225.04-.221.042-.216.043-.212.045-.208.046-.204.048-.199.048-.194.05-.189.051-.184.053-.178.053-.174.054-.168.055-.162.055-.157.057-.153.058-.071.027-.071.029-.07.029-.069.029-.066.029-.065.028-.064.029-.062.029-.06.029-.058.029-.057.029-.055.028-.053.029-.051.028-.049.028-.048.028-.045.027-.044.028-.042.027-.04.026-.038.026-.036.025-.034.025-.032.024-.029.023-.028.023-.026.022-.024.021-.006.006.006.006.024.021.026.022.028.023.029.023.032.024.034.025.036.025.038.026.04.026.042.027.044.028.045.027.048.028.049.028.051.028.053.029.055.028.057.029.058.029.06.029.062.029.064.029.065.028.066.029.069.029.07.029.071.029.071.027.153.058.157.057.162.055.168.055.174.054.178.053.184.053.189.051.194.05.199.048.204.048.208.046.212.045.216.043.221.042.225.04.229.039.233.038.236.036.24.034.243.032.247.031.25.029.253.027.257.025.259.024.262.021.265.02.268.018.27.015.272.014.275.012.278.01.279.007.281.006.283.003.286.001.285-.001.283-.003.281-.006.28-.007.277-.01.275-.012.272-.014.27-.015.268-.018.265-.02.262-.021.259-.024.257-.025.253-.027.25-.029.247-.031.243-.032.24-.034.237-.036.232-.038.229-.039.225-.04.221-.042.216-.043.213-.045.208-.046.203-.048.199-.048.194-.05.189-.051.184-.053.179-.053.173-.054.168-.055.162-.055.157-.057.154-.058.07-.027.071-.029.07-.029.069-.029.066-.029.066-.028.063-.029.062-.029.06-.029.058-.029.057-.029.055-.028.053-.029.051-.028.05-.028.047-.028.046-.027.043-.028.042-.027.04-.026.038-.026.036-.025.034-.025.032-.024.03-.023.027-.023.026-.022.024-.021.007-.006-.007-.006-.024-.021-.026-.022-.027-.023-.03-.023-.032-.024-.034-.025-.036-.025-.038-.026-.04-.026-.042-.027-.043-.028-.046-.027-.047-.028-.05-.028-.051-.028-.053-.029-.055-.028-.057-.029-.058-.029-.06-.029-.062-.029-.063-.029-.066-.028-.066-.029-.069-.029-.07-.029-.071-.029-.07-.027-.154-.058-.157-.057-.162-.055-.168-.055-.173-.054-.179-.053-.184-.053-.189-.051-.194-.05-.199-.048-.203-.048-.208-.046-.213-.045-.216-.043-.221-.042-.225-.04-.229-.039-.232-.038-.237-.036-.24-.034-.243-.032-.247-.031-.25-.029-.253-.027-.257-.025-.259-.024-.262-.021-.265-.02-.268-.018-.27-.015-.272-.014-.275-.012-.277-.01-.28-.007-.281-.006-.283-.003-.285-.001z" fill="#1bb0e6"/></g></g></svg>