<svg clip-rule="evenodd" fill-rule="evenodd" stroke-linejoin="round" stroke-miterlimit="1.41421" viewBox="0 0 32 32" xmlns="http://www.w3.org/2000/svg" xmlns:xlink="http://www.w3.org/1999/xlink"><clipPath id="a"><path clip-rule="evenodd" d="m0 0h32v32h-32z"/></clipPath><clipPath id="b"><path clip-rule="evenodd" d="m3 11c0-1.657 1.343-3 3-3h6c.796 0 1.559.316 2.121.879.563.562.879 1.325.879 2.121v2.757c0 .796-.316 1.559-.879 2.122-.391.391-.851.851-1.242 1.242-.563.563-1.326.879-2.122.879-.978 0-2.398 0-3.757 0-1.061 0-2.078-.421-2.828-1.172-.751-.75-1.172-1.767-1.172-2.828 0-1.001 0-2.057 0-3z"/></clipPath><clipPath id="c"><path clip-rule="evenodd" d="m14 9v5l-3 3h-5l-2-2v-5l1-1z"/></clipPath><clipPath id="d"><path clip-rule="evenodd" d="m29 11c0-1.657-1.343-3-3-3-1.832 0-4.168 0-6 0-.796 0-1.559.316-2.121.879-.563.562-.879 1.325-.879 2.121v2.757c0 .796.316 1.559.879 2.122.391.391.851.851 1.242 1.242.563.563 1.326.879 2.122.879h3.757c1.061 0 2.078-.421 2.828-1.172.751-.75 1.172-1.767 1.172-2.828 0-1.001 0-2.057 0-3z"/></clipPath><clipPath id="e"><path clip-rule="evenodd" d="m18 9v5l3 3h5l2-2v-5l-1-1z"/></clipPath><path d="m0 0h32v32h-32z" fill="none"/><g clip-path="url(#a)"><path d="m16.199.001.198.004.198.006.198.009.198.011.197.013.197.016.196.018.196.021.196.023.195.025.195.028.194.031.193.032.194.035.192.037.192.04.191.042.191.044.19.047.189.048.189.051.188.054.187.056.187.058.186.06.185.062.184.065.183.067.183.069.181.071.181.074.18.076.179.078.178.08.177.082.176.085.174.086.174.089.173.091.172.093.171.095.169.097.169.1.167.101.166.104.165.105.164.108.162.11.161.112.16.114.159.116.157.118.156.12.155.121.153.124.152.126.15.128.149.13.148.132.146.134.144.136.143.138.141.139.126.127.124.128.122.13.121.13.119.132.118.133.116.134.114.135.113.136.104.129h3.51v7h-.284l.016.081.032.179.03.18.028.181.026.181.024.181.022.182.02.182.018.182.016.183.014.183.012.184.009.183.007.184.006.185.003.184.001.179v2.012l-.001.174-.004.18-.005.18-.008.179-.01.178-.013.178-.014.177-.017.177-.019.176-.021.176-.024.174-.025.175-.028.173-.03.173-.031.172-.034.171-.036.171-.038.17-.041.169-.042.168-.044.168-.046.167-.049.165-.05.165-.052.165-.054.163-.056.162-.058.162-.06.16-.062.16-.063.158-.066.158-.067.157-.07.155-.071.155-.073.154-.074.152-.077.152-.078.15-.08.15-.082.148-.083.147-.085.146-.087.145-.089.144-.09.142-.092.142-.093.14-.095.139-.097.138-.098.136-.1.136-.102.134-.103.132-.105.132-.106.13-.107.129-.109.128-.111.126-.112.125-.114.123-.115.122-.117.121-.117.119-.12.118-.121.117-.122.115-.123.114-.125.112-.126.11-.128.11-.129.107-.13.107-.132.104-.132.103-.134.102-.136.1-.136.098-.138.097-.139.095-.14.093-.142.092-.142.09-.144.089-.145.087-.146.085-.147.083-.148.082-.15.08-.15.078-.152.077-.152.074-.154.073-.155.071-.155.07-.157.067-.158.066-.158.063-.16.062-.16.06-.162.058-.162.056-.163.054-.165.052-.164.05-.166.049-.167.046-.168.044-.168.042-.169.041-.17.038-.171.036-.171.034-.172.031-.173.03-.173.028-.175.025-.174.024-.176.021-.176.019-.177.017-.177.014-.178.013-.178.01-.179.008-.18.005-.18.004-.174.001h-4.012l-.174-.001-.18-.004-.18-.005-.179-.008-.178-.01-.178-.013-.177-.014-.177-.017-.176-.019-.176-.021-.174-.024-.175-.025-.173-.028-.173-.03-.172-.031-.171-.034-.171-.036-.17-.038-.169-.041-.168-.042-.168-.044-.167-.046-.166-.049-.164-.05-.165-.052-.163-.054-.162-.056-.162-.058-.16-.06-.16-.062-.158-.063-.158-.066-.157-.067-.155-.07-.155-.071-.154-.073-.152-.074-.152-.077-.15-.078-.15-.08-.148-.082-.147-.083-.146-.085-.145-.087-.144-.089-.142-.09-.142-.092-.14-.093-.139-.095-.138-.097-.136-.098-.136-.1-.134-.102-.132-.103-.132-.104-.13-.107-.129-.107-.128-.11-.126-.11-.125-.112-.123-.114-.122-.115-.121-.117-.12-.118-.117-.119-.117-.121-.115-.122-.114-.123-.112-.125-.111-.126-.109-.128-.107-.129-.106-.13-.105-.132-.103-.132-.102-.134-.1-.136-.098-.136-.097-.138-.095-.139-.093-.14-.092-.142-.09-.142-.089-.144-.087-.145-.085-.146-.083-.147-.082-.148-.08-.15-.078-.15-.077-.152-.074-.152-.073-.154-.071-.155-.07-.155-.067-.157-.066-.158-.063-.158-.062-.16-.06-.16-.058-.162-.056-.162-.054-.163-.052-.165-.05-.165-.049-.165-.046-.167-.044-.168-.042-.168-.041-.169-.038-.17-.036-.171-.034-.171-.031-.172-.03-.173-.028-.173-.025-.175-.024-.174-.021-.176-.019-.176-.017-.177-.014-.177-.013-.178-.01-.178-.008-.179-.005-.18-.004-.18-.001-.174v-2.011l.001-.143.002-.148.003-.148.005-.148.006-.147.007-.147.009-.146.01-.147.011-.146.013-.145.014-.145.015-.145.016-.145.012-.095h-.124v-8h3.509l.072-.088.075-.092.075-.091.076-.09.077-.089.078-.09.078-.088.078-.088.08-.087.08-.087.081-.086.081-.086.082-.085.082-.084.083-.084.084-.083.085-.083.085-.081.085-.082.086-.08.087-.08.087-.08.088-.079.089-.078.089-.077.09-.077.09-.076.091-.076.091-.074.092-.075.093-.073.093-.073.093-.072.095-.072.094-.071.096-.07.095-.069.097-.069.097-.068.097-.067.098-.067.098-.066.099-.065.1-.065.1-.063.1-.064.101-.062.102-.062.102-.061.102-.06.103-.059.104-.059.104-.058.104-.057.105-.057.105-.055.106-.055.106-.055.107-.053.107-.053.108-.051.108-.052.109-.05.109-.049.109-.049.11-.048.11-.047.111-.046.111-.046.112-.045.112-.044.112-.043.113-.042.113-.041.114-.041.114-.04.114-.039.115-.038.115-.037.115-.037.116-.035.117-.035.116-.034.117-.033.118-.032.117-.031.118-.03.119-.03.119-.028.119-.028.119-.027.12-.026.12-.025.12-.024.121-.023.121-.023.121-.021.122-.021.122-.019.122-.019.123-.018.123-.017.123-.015.123-.015.124-.014.124-.014.124-.012.124-.011.125-.01.125-.009.125-.009.126-.007.125-.006.126-.006.126-.004.127-.004.126-.002.127-.002h.123.01l.193.001zm-.295 3.999-.095.002-.096.001-.095.003-.095.003-.095.004-.094.005-.095.006-.094.006-.094.007-.093.008-.094.008-.093.009-.093.01-.093.01-.093.012-.092.012-.092.012-.092.013-.092.014-.091.015-.091.015-.091.017-.091.016-.09.018-.09.018-.09.019-.09.019-.089.02-.089.021-.089.021-.089.022-.088.023-.088.023-.088.024-.088.025-.087.025-.087.026-.087.027-.086.027-.086.028-.086.029-.086.029-.085.03-.085.03-.085.031-.084.032-.084.032-.084.033-.084.033-.083.034-.083.035-.082.035-.083.036-.082.037-.081.037-.081.037-.081.039-.081.039-.08.039-.08.04-.08.041-.079.041-.079.041-.079.043-.078.043-.078.043-.078.044-.077.045-.077.045-.076.046-.076.046-.076.047-.075.047-.075.048-.075.048-.074.049-.074.05-.074.05-.073.05-.072.051-.073.052-.072.052-.071.053-.071.053-.071.054-.07.054-.07.055-.07.055-.069.056-.068.056-.069.056-.067.058-.068.057-.067.059-.066.058-.066.059-.066.06-.065.06-.065.061-.064.061-.064.061-.063.062-.063.063-.063.063-.062.063-.061.064-.061.064-.061.065-.06.065-.06.066-.059.066-.059.066-.058.067-.058.068-.057.067-.057.069-.056.068-.056.069-.055.07-.055.07-.054.07-.054.071-.053.071-.052.071-.053.072-.051.072-.653.929h-.718l.301.402-.664 2.27-.029.103-.028.102-.027.103-.027.104-.025.103-.025.105-.023.104-.023.105-.022.105-.02.105-.02.106-.019.106-.018.107-.017.107-.017.107-.015.107-.014.108-.014.108-.012.109-.011.108-.011.109-.009.11-.009.109-.007.11-.007.111-.005.11-.005.111-.003.111-.003.111-.001.112-.001.117v1.989l.001.136.002.129.004.129.006.128.007.128.009.128.011.126.012.127.013.126.015.125.017.125.018.124.02.124.021.124.023.122.024.122.026.122.027.121.029.121.03.12.031.119.033.119.035.118.035.117.037.117.039.117.04.115.041.115.043.115.044.113.045.114.047.112.048.111.049.112.051.11.052.109.053.109.055.108.056.108.057.106.058.106.06.105.061.104.062.104.063.103.064.101.066.101.067.101.068.099.069.099.07.097.072.097.072.096.074.095.075.094.076.093.077.092.078.092.079.09.08.089.082.089.082.087.084.087.084.085.085.084.087.084.087.082.089.082.089.08.09.079.092.078.092.077.093.076.094.075.095.074.096.072.097.072.097.07.099.069.099.068.1.067.102.066.101.064.103.063.104.062.104.061.105.06.106.058.106.057.108.056.108.055.109.053.109.052.111.051.11.049.112.048.113.047.113.045.113.044.115.043.115.041.115.04.117.039.117.037.117.035.118.035.119.033.119.031.12.03.121.029.121.027.122.026.122.024.123.023.123.021.124.02.124.018.125.017.125.015.126.013.126.012.127.011.128.009.128.007.128.006.129.004.129.002.136.001h3.988l.136-.001.129-.002.129-.004.128-.006.128-.007.128-.009.127-.011.126-.012.126-.013.125-.015.125-.017.124-.018.124-.02.123-.021.123-.023.122-.024.122-.026.121-.027.121-.029.12-.03.119-.031.119-.033.118-.035.117-.035.117-.037.117-.039.115-.04.115-.041.115-.043.113-.044.113-.045.113-.047.112-.048.11-.049.111-.051.109-.052.109-.053.108-.055.108-.056.106-.057.106-.058.105-.06.104-.061.104-.062.103-.063.101-.064.102-.066.1-.067.099-.068.099-.069.097-.07.097-.072.096-.072.095-.074.094-.075.093-.076.092-.077.092-.078.09-.079.089-.08.089-.082.087-.082.087-.084.085-.084.084-.085.084-.087.082-.087.082-.089.08-.089.079-.09.078-.092.077-.092.076-.093.075-.094.074-.095.072-.096.072-.097.07-.097.069-.099.068-.099.067-.101.066-.101.064-.101.063-.103.062-.104.061-.104.06-.105.058-.106.057-.106.056-.108.055-.108.053-.109.052-.109.051-.11.049-.112.048-.111.047-.112.045-.114.044-.113.043-.115.041-.115.04-.115.039-.117.037-.117.035-.117.035-.118.033-.119.031-.119.03-.12.029-.121.027-.121.026-.122.024-.122.023-.122.021-.124.02-.124.018-.124.017-.125.015-.125.013-.126.012-.127.011-.126.009-.128.007-.128.006-.128.004-.129.002-.129.001-.136v-1.988l-.001-.145-.002-.138-.004-.138-.006-.138-.007-.138-.009-.138-.01-.137-.012-.137-.013-.137-.015-.137-.017-.136-.018-.136-.019-.135-.022-.136-.022-.135-.024-.134-.026-.135-.027-.133-.029-.134-.03-.133-.032-.133-.033-.132-.035-.132-.036-.131-.038-.131-.039-.131-.041-.13-.042-.129-.043-.129-.045-.128-.047-.128-.692-1.842h-.112l-.68-.965-.078-.107-.078-.107-.08-.105-.081-.105-.082-.104-.083-.103-.085-.103-.086-.101-.087-.101-.088-.099-.089-.099-.091-.098-.092-.097-.093-.096-.093-.095-.107-.105-.107-.103-.108-.102-.11-.101-.111-.099-.111-.097-.113-.096-.114-.094-.115-.093-.116-.092-.117-.09-.118-.088-.119-.087-.12-.086-.121-.083-.121-.083-.123-.081-.124-.079-.124-.077-.126-.077-.126-.074-.127-.073-.128-.071-.129-.07-.13-.068-.13-.067-.132-.065-.132-.063-.132-.062-.134-.06-.134-.059-.135-.057-.135-.055-.137-.053-.136-.052-.138-.05-.138-.049-.139-.047-.139-.045-.14-.043-.141-.042-.14-.04-.142-.038-.142-.037-.143-.035-.143-.033-.143-.032-.144-.029-.144-.028-.145-.026-.145-.025-.146-.022-.146-.021-.146-.019-.147-.018-.147-.015-.147-.014-.148-.012-.148-.01-.148-.008-.148-.007-.149-.004-.149-.003-.151-.001z"/><path d="m30 16c0-3.713-1.475-7.274-4.101-9.899-2.625-2.626-6.186-4.101-9.899-4.101-7.732 0-14 6.268-14 14v2c0 6.627 5.373 12 12 12h4c6.627 0 12-5.373 12-12 0-.663 0-1.331 0-2z" fill="#fbc546"/><path d="m10.102 20.005.068.01.067.013.066.019.064.023.062.027.061.031.058.036.056.039.053.043.05.047.877.877.057.056.056.054.056.053.057.052.058.052.058.05.059.05.059.049.06.049.06.047.061.047.061.046.062.045.062.045.063.043.064.043.064.042.064.042.065.04.065.039.066.039.066.038.066.037.067.037.068.035.068.035.068.034.069.033.069.032.069.031.07.03.07.03.071.029.07.027.072.027.071.026.072.026.072.024.073.024.072.022.073.022.074.021.073.02.074.019.074.018.075.017.074.017.075.015.075.014.076.014.075.013.076.012.076.01.076.01.076.009.077.008.076.008.077.006.077.005.077.004.077.004.078.002.077.001.078.001.078-.001.077-.001.078-.002.077-.004.077-.004.077-.005.077-.006.076-.008.077-.008.076-.009.076-.01.076-.01.076-.012.075-.013.076-.014.075-.014.075-.015.074-.017.075-.017.074-.018.074-.019.073-.02.074-.021.073-.022.072-.022.073-.024.072-.024.072-.026.071-.026.072-.027.07-.027.071-.029.07-.03.07-.03.069-.031.069-.032.069-.033.068-.034.068-.035.068-.035.067-.037.066-.037.066-.038.066-.039.065-.039.065-.04.064-.042.064-.042.064-.043.063-.043.062-.045.062-.045.061-.046.061-.047.06-.047.06-.049.059-.049.059-.05.058-.05.058-.052.057-.052.056-.053.056-.054.057-.056.877-.877.05-.047.053-.043.056-.039.058-.036.061-.031.062-.027.064-.023.066-.019.067-.013.068-.01.068-.004h.068l.068.004.068.01.067.013.066.019.064.023.062.027.061.031.058.036.056.039.053.043.05.047.047.05.043.053.039.056.036.058.031.061.027.062.023.064.019.066.013.067.01.068.004.068v.068l-.004.068-.01.068-.013.067-.019.066-.023.064-.027.062-.031.061-.036.058-.039.056-.043.053-.047.05-.881.881-.071.07-.073.071-.075.07-.075.069-.076.068-.077.067-.077.066-.078.064-.079.064-.08.063-.08.062-.081.061-.082.059-.082.059-.083.058-.084.056-.084.056-.085.054-.086.054-.086.052-.087.051-.087.05-.088.049-.089.048-.089.047-.089.046-.09.044-.091.044-.091.042-.092.041-.092.041-.093.039-.093.038-.093.036-.094.036-.095.034-.095.034-.095.032-.095.031-.097.03-.096.028-.097.028-.097.026-.098.025-.098.024-.098.023-.098.022-.099.02-.099.019-.1.018-.1.017-.1.016-.1.014-.1.013-.101.012-.101.011-.101.009-.102.008-.101.007-.102.006-.102.004-.102.003-.102.002-.1.001h-.006l-.1-.001-.102-.002-.102-.003-.102-.004-.102-.006-.101-.007-.102-.008-.101-.009-.101-.011-.101-.012-.1-.013-.1-.014-.1-.016-.1-.017-.1-.018-.099-.019-.099-.02-.098-.022-.098-.023-.098-.024-.098-.025-.097-.026-.097-.028-.096-.028-.097-.03-.095-.031-.095-.032-.095-.034-.095-.034-.094-.036-.093-.036-.093-.038-.093-.039-.092-.041-.092-.041-.091-.042-.091-.044-.09-.044-.089-.046-.089-.047-.089-.048-.088-.049-.087-.05-.087-.051-.086-.052-.086-.054-.085-.054-.084-.056-.084-.056-.083-.058-.082-.059-.082-.059-.081-.061-.08-.062-.08-.063-.079-.064-.078-.064-.077-.066-.077-.067-.076-.068-.075-.069-.075-.07-.073-.071-.071-.07-.881-.881-.047-.05-.043-.053-.039-.056-.036-.058-.031-.061-.027-.062-.023-.064-.019-.066-.013-.067-.01-.068-.004-.068v-.068l.004-.068.01-.068.013-.067.019-.066.023-.064.027-.062.031-.061.036-.058.039-.056.043-.053.047-.05.05-.047.053-.043.056-.039.058-.036.061-.031.062-.027.064-.023.066-.019.067-.013.068-.01.068-.004h.068l.068.004z" fill="#593604"/><path d="m2 8h28v3h-1v3c0 2.209-1.791 4-4 4-1.359 0-2.779 0-3.757 0-.796 0-1.559-.316-2.122-.879-.391-.391-.851-.851-1.242-1.242-.563-.563-.879-1.326-.879-2.122 0-.825 0-1.757 0-1.757h-2v1.757c0 .796-.316 1.559-.879 2.122-.391.391-.851.851-1.242 1.242-.563.563-1.326.879-2.122.879-.978 0-2.398 0-3.757 0-1.061 0-2.078-.421-2.828-1.172-.751-.75-1.172-1.767-1.172-2.828 0-1.102 0-2 0-2h-1z" fill="#262626"/><path d="m3 11c0-1.657 1.343-3 3-3h6c.796 0 1.559.316 2.121.879.563.562.879 1.325.879 2.121v2.757c0 .796-.316 1.559-.879 2.122-.391.391-.851.851-1.242 1.242-.563.563-1.326.879-2.122.879-.978 0-2.398 0-3.757 0-1.061 0-2.078-.421-2.828-1.172-.751-.75-1.172-1.767-1.172-2.828 0-1.001 0-2.057 0-3z" fill="none"/><g clip-path="url(#b)"><path d="m14 9v5l-3 3h-5l-2-2v-5l1-1z" fill="none"/><g clip-path="url(#c)"><path d="m13 7h5l-13 13h-5z" fill="#b4b4b4"/></g></g><path d="m12.074 8.001.075.003.074.004.074.007.073.008.073.01.073.012.072.013.072.015.071.017.071.019.071.021.069.022.07.024.068.025.068.027.067.029.067.031.066.032.065.033.064.036.063.037.063.038.061.04.061.042.06.043.059.044.057.046.057.048.056.049.054.051.053.052.052.053.051.054.049.056.048.057.046.057.044.059.043.06.042.061.04.061.038.063.037.063.036.064.033.065.032.066.031.067.029.067.027.068.025.068.024.07.022.07.021.07.019.071.017.071.015.072.013.072.012.073.01.073.008.073.007.074.004.074.003.075.001.074v2.757l-.001.075-.003.074-.004.074-.007.074-.008.073-.01.073-.012.073-.013.072-.015.072-.017.072-.019.07-.021.071-.022.07-.024.069-.025.068-.027.068-.029.068-.031.066-.032.066-.033.065-.036.064-.037.064-.038.062-.04.062-.042.06-.043.06-.044.059-.046.058-.048.056-.049.056-.051.054-.052.054-1.242 1.242-.054.052-.054.051-.056.049-.056.048-.058.046-.059.044-.06.043-.06.042-.062.04-.062.038-.064.037-.064.036-.065.033-.066.032-.066.031-.068.029-.068.027-.068.025-.069.024-.07.022-.071.021-.07.019-.072.017-.072.015-.072.013-.073.012-.073.01-.073.008-.074.007-.074.004-.074.003-.075.001h-3.757l-.099-.001-.099-.004-.099-.006-.098-.009-.098-.011-.098-.013-.097-.016-.096-.018-.096-.02-.095-.023-.095-.025-.093-.027-.093-.029-.093-.032-.091-.034-.091-.036-.089-.039-.089-.041-.088-.042-.087-.045-.085-.047-.085-.049-.083-.052-.082-.053-.081-.055-.08-.058-.078-.059-.077-.062-.076-.063-.074-.066-.072-.067-.071-.07-.07-.071-.067-.072-.066-.074-.063-.076-.062-.077-.059-.078-.058-.08-.055-.081-.053-.082-.052-.083-.049-.085-.047-.085-.045-.087-.042-.088-.041-.089-.039-.089-.036-.091-.034-.091-.032-.093-.029-.093-.027-.093-.025-.095-.023-.095-.02-.096-.018-.096-.016-.097-.013-.098-.011-.098-.009-.098-.006-.099-.004-.099-.001-.099v-3l.001-.077.003-.077.005-.077.006-.076.009-.075.011-.075.012-.074.014-.074.016-.073.017-.072.02-.071.021-.071.023-.07.024-.069.026-.069.028-.068.029-.067.031-.066.032-.065.034-.064.035-.063.037-.063.039-.061.039-.06.041-.06.043-.058.044-.057.045-.056.047-.055.047-.054.049-.053.051-.051.051-.051.053-.049.054-.047.055-.047.056-.045.057-.044.058-.043.06-.041.06-.039.061-.039.063-.037.063-.035.064-.034.065-.032.066-.031.067-.029.068-.028.068-.026.07-.024.07-.023.071-.021.071-.02.072-.017.073-.016.074-.014.074-.012.075-.011.075-.009.076-.006.077-.005.077-.003.077-.001h6l.074.001zm-6.061 1.999-.04.001-.026.001-.026.001-.026.002-.025.003-.025.004-.024.004-.025.005-.024.005-.024.006-.023.006-.023.007-.023.007-.023.008-.023.009-.022.009-.021.009-.022.011-.022.01-.021.012-.021.011-.021.013-.021.013-.02.013-.019.013-.02.015-.019.014-.019.016-.019.015-.018.016-.018.017-.017.017-.017.017-.016.018-.017.018-.015.019-.016.019-.014.019-.015.019-.013.02-.014.02-.012.021-.013.021-.011.021-.012.021-.01.022-.01.021-.01.022-.009.023-.009.022-.008.023-.007.023-.007.023-.006.024-.006.023-.005.024-.005.025-.004.024-.004.025-.003.025-.002.026-.001.026-.002.026v.04 2.975l.001.062.002.049.003.05.004.049.005.049.007.048.008.049.009.048.01.048.011.047.013.048.014.047.014.046.016.046.017.046.018.045.02.045.02.045.021.043.023.044.023.043.025.042.025.041.027.042.028.04.029.04.029.039.031.038.032.038.032.037.034.037.035.035.036.035.036.034.037.032.038.032.038.031.039.029.04.029.04.028.042.027.041.025.042.025.043.023.044.023.043.021.045.02.045.02.045.018.046.017.046.016.046.014.047.014.048.013.047.011.048.01.048.009.049.008.048.007.049.005.049.004.05.003.049.002.062.001h3.733.037l.025-.001.025-.002.024-.002.025-.003.024-.003.024-.004.024-.005.024-.005.024-.005.024-.007.023-.006.023-.008.024-.008.022-.008.023-.009.022-.01.023-.01.022-.011.021-.011.022-.012.021-.012.02-.013.021-.013.02-.014.02-.014.02-.015.019-.015.019-.016.018-.017.019-.017.026-.026 1.225-1.225.026-.027.017-.018.017-.018.015-.019.016-.019.015-.02.014-.02.014-.02.013-.02.013-.021.012-.021.012-.022.011-.021.011-.022.01-.023.01-.022.009-.023.008-.023.008-.023.008-.023.006-.023.007-.024.005-.024.005-.024.005-.024.004-.024.003-.024.003-.025.002-.024.002-.025.001-.025v-.037-2.733-.037l-.001-.025-.002-.024-.002-.025-.003-.024-.003-.025-.004-.024-.005-.024-.005-.024-.005-.024-.007-.023-.006-.024-.008-.023-.008-.023-.008-.023-.009-.023-.01-.022-.01-.022-.011-.022-.011-.022-.012-.021-.012-.021-.013-.021-.013-.021-.014-.02-.014-.02-.015-.019-.015-.02-.016-.019-.017-.018-.017-.018-.017-.018-.018-.017-.018-.017-.019-.017-.018-.015-.02-.016-.019-.015-.02-.014-.02-.014-.021-.013-.021-.013-.021-.012-.021-.012-.022-.011-.022-.011-.022-.01-.022-.01-.023-.009-.023-.008-.023-.008-.023-.008-.024-.006-.023-.007-.024-.005-.024-.005-.024-.005-.024-.004-.025-.003-.024-.003-.025-.002-.024-.002-.025-.001h-.037z" fill="#262626"/><path d="m29 11c0-1.657-1.343-3-3-3-1.832 0-4.168 0-6 0-.796 0-1.559.316-2.121.879-.563.562-.879 1.325-.879 2.121v2.757c0 .796.316 1.559.879 2.122.391.391.851.851 1.242 1.242.563.563 1.326.879 2.122.879h3.757c1.061 0 2.078-.421 2.828-1.172.751-.75 1.172-1.767 1.172-2.828 0-1.001 0-2.057 0-3z" fill="none"/><g clip-path="url(#d)"><path d="m18 9v5l3 3h5l2-2v-5l-1-1z" fill="none"/><g clip-path="url(#e)"><path d="m26 7h5l-13 13h-5z" fill="#b4b4b4"/></g></g><path d="m26 8 .077.001.077.003.077.005.076.006.075.009.075.011.074.012.074.014.073.016.072.017.071.02.071.021.07.023.07.024.068.026.068.028.067.029.066.031.065.032.064.034.063.035.063.037.061.039.06.039.06.041.058.043.057.044.056.045.055.047.054.047.053.049.051.051.051.051.049.053.047.054.047.055.045.056.044.057.043.058.041.06.039.06.039.061.037.063.035.063.034.064.032.065.031.066.029.067.028.068.026.069.024.069.023.07.021.071.02.071.017.072.016.073.014.074.012.074.011.075.009.075.006.076.005.077.003.077.001.077v3l-.001.099-.004.099-.006.099-.009.098-.011.098-.013.098-.016.097-.018.096-.02.096-.023.095-.025.095-.027.093-.029.093-.032.093-.034.091-.036.091-.039.089-.041.089-.042.088-.045.087-.047.085-.049.085-.052.083-.053.082-.055.081-.058.08-.059.078-.062.077-.063.076-.066.074-.067.072-.07.071-.071.07-.072.067-.074.066-.076.063-.077.062-.078.059-.08.058-.081.055-.082.053-.083.052-.085.049-.085.047-.087.045-.088.042-.089.041-.089.039-.091.036-.091.034-.093.032-.093.029-.093.027-.095.025-.095.023-.096.02-.096.018-.097.016-.098.013-.098.011-.098.009-.099.006-.099.004-.099.001h-3.757l-.075-.001-.074-.003-.074-.004-.074-.007-.073-.008-.073-.01-.073-.012-.072-.013-.072-.015-.072-.017-.07-.019-.071-.021-.07-.022-.069-.024-.068-.025-.068-.027-.068-.029-.066-.031-.066-.032-.065-.033-.064-.036-.064-.037-.062-.038-.062-.04-.06-.042-.06-.043-.059-.044-.058-.046-.056-.048-.056-.049-.054-.051-.054-.052-1.242-1.242-.052-.054-.051-.054-.049-.056-.048-.056-.046-.058-.044-.059-.043-.06-.042-.06-.04-.062-.038-.062-.037-.064-.036-.064-.033-.065-.032-.066-.031-.066-.029-.068-.027-.068-.025-.068-.024-.069-.022-.07-.021-.071-.019-.07-.017-.072-.015-.072-.013-.072-.012-.073-.01-.073-.008-.073-.007-.074-.004-.074-.003-.074-.001-.075v-2.757l.001-.074.003-.075.004-.074.007-.074.008-.073.01-.073.012-.073.013-.072.015-.072.017-.071.019-.071.021-.07.022-.07.024-.07.025-.068.027-.068.029-.067.031-.067.032-.066.033-.065.036-.064.037-.063.038-.063.04-.061.042-.061.043-.06.044-.059.046-.057.048-.057.049-.056.051-.054.052-.053.053-.052.054-.051.056-.049.057-.048.057-.046.059-.044.06-.043.061-.042.061-.04.063-.038.063-.037.064-.036.065-.033.066-.032.067-.031.067-.029.068-.027.068-.025.07-.024.069-.022.071-.021.071-.019.071-.017.072-.015.072-.013.073-.012.073-.01.073-.008.074-.007.074-.004.075-.003.074-.001h6zm-5.988 2h-.037l-.025.001-.024.002-.025.002-.024.003-.025.003-.024.004-.024.005-.024.005-.024.005-.023.007-.024.006-.023.008-.023.008-.023.008-.023.009-.022.01-.022.01-.022.011-.022.011-.021.012-.021.012-.021.013-.021.013-.02.014-.02.014-.019.015-.02.016-.018.015-.019.017-.018.017-.018.017-.017.018-.017.018-.017.018-.016.019-.015.02-.015.019-.014.02-.014.02-.013.021-.013.021-.012.021-.012.021-.011.022-.011.022-.01.022-.01.022-.009.023-.008.023-.008.023-.008.023-.006.024-.007.023-.005.024-.005.024-.005.024-.004.024-.003.025-.003.024-.002.025-.002.024-.001.025v.037 2.733.037l.001.025.002.025.002.024.003.025.003.024.004.024.005.024.005.024.005.024.007.024.006.023.008.023.008.023.008.023.009.023.01.022.01.023.011.022.011.021.012.022.012.021.013.021.013.02.014.02.014.02.015.02.016.019.015.019.017.018.017.019.026.026 1.225 1.225.026.026.019.017.018.017.019.016.019.015.02.015.02.014.02.014.021.013.02.013.021.012.022.012.021.011.023.011.022.01.022.01.023.009.022.008.024.008.023.008.023.006.024.007.024.005.024.005.024.005.024.004.024.003.025.003.024.002.025.002.025.001h.037 3.733l.062-.001.049-.002.05-.003.049-.004.049-.005.048-.007.049-.008.048-.009.048-.01.047-.011.048-.013.047-.014.046-.014.046-.016.046-.017.045-.018.045-.02.045-.02.043-.021.044-.023.043-.023.042-.025.041-.025.042-.027.04-.028.04-.029.039-.029.038-.031.038-.032.037-.032.036-.034.036-.035.035-.035.034-.037.032-.037.032-.038.031-.038.029-.039.029-.04.028-.04.027-.042.025-.041.025-.042.023-.043.023-.044.021-.043.02-.045.02-.045.018-.045.017-.046.016-.046.014-.046.014-.047.013-.048.011-.047.01-.048.009-.048.008-.049.007-.048.005-.049.004-.049.003-.05.002-.049.001-.062v-2.975l-.001-.04-.001-.026-.001-.026-.002-.026-.003-.025-.004-.025-.004-.024-.005-.025-.005-.024-.006-.023-.006-.024-.007-.023-.007-.023-.008-.023-.009-.022-.009-.023-.01-.022-.01-.021-.01-.022-.012-.021-.011-.021-.013-.021-.012-.021-.014-.02-.014-.02-.014-.019-.014-.019-.016-.019-.015-.019-.017-.018-.016-.018-.017-.017-.017-.017-.018-.017-.018-.016-.019-.015-.019-.015-.019-.015-.02-.015-.019-.013-.02-.013-.021-.013-.021-.013-.021-.011-.021-.012-.022-.01-.022-.011-.021-.009-.022-.009-.023-.009-.023-.008-.023-.007-.023-.007-.023-.006-.024-.006-.024-.005-.025-.005-.024-.004-.025-.004-.025-.003-.026-.002-.026-.001-.026-.001-.04-.001z" fill="#262626"/></g></svg>