<svg clip-rule="evenodd" fill-rule="evenodd" stroke-linejoin="round" stroke-miterlimit="1.41421" viewBox="0 0 32 32" xmlns="http://www.w3.org/2000/svg" xmlns:xlink="http://www.w3.org/1999/xlink"><clipPath id="a"><path clip-rule="evenodd" d="m0 0h32v32h-32z"/></clipPath><path d="m0 0h32v32h-32z" fill="none"/><g clip-path="url(#a)"><path d="m16.199.001.198.004.198.006.198.009.198.011.197.013.197.016.196.018.196.021.196.023.195.025.195.028.194.031.193.032.194.035.192.037.192.04.191.042.191.044.19.047.189.048.189.051.188.054.187.056.187.058.186.06.185.062.184.065.183.067.183.069.181.071.181.074.18.076.179.078.178.08.177.082.176.085.174.086.174.089.173.091.172.093.171.095.169.097.169.1.167.101.166.104.165.105.164.108.162.11.161.112.16.114.159.116.157.118.156.119.155.122.153.124.152.126.15.128.149.13.148.132.146.134.144.136.143.138.142.139.139.142.138.143.136.144.134.146.132.148.13.149.128.15.126.152.124.153.122.155.119.156.118.157.116.159.114.16.112.161.11.162.108.164.105.165.104.166.101.167.1.169.097.169.095.171.093.172.091.173.089.174.086.175.085.175.082.177.08.178.078.179.076.18.074.181.071.181.069.183.067.183.065.184.062.185.06.186.058.187.056.187.054.188.051.189.048.189.047.19.044.191.042.191.04.192.037.192.035.194.032.193.031.194.028.195.025.195.023.196.021.196.018.196.016.197.013.197.011.198.009.198.006.198.004.198.001.193v2.012l-.001.174-.004.18-.005.18-.008.179-.01.178-.013.178-.014.177-.017.177-.019.176-.021.176-.024.174-.025.175-.028.173-.03.173-.031.172-.034.171-.036.171-.038.17-.041.169-.042.168-.044.168-.046.167-.048.165-.051.165-.052.165-.054.163-.056.162-.058.162-.06.16-.062.16-.063.158-.066.158-.067.157-.07.155-.071.155-.073.154-.074.152-.077.152-.078.15-.08.15-.082.148-.083.147-.085.146-.087.145-.089.144-.09.142-.092.142-.093.14-.095.139-.097.138-.098.136-.1.136-.102.134-.103.132-.104.132-.107.13-.107.129-.109.128-.111.126-.112.125-.114.123-.115.122-.117.121-.117.12-.12.117-.121.117-.122.115-.123.114-.125.112-.126.11-.128.11-.129.107-.13.106-.132.105-.132.103-.134.102-.136.1-.136.098-.138.097-.139.095-.14.093-.142.092-.142.09-.144.089-.145.087-.146.085-.147.083-.148.082-.15.08-.15.078-.152.077-.152.074-.154.073-.155.071-.155.07-.157.067-.158.066-.158.063-.16.062-.16.06-.162.058-.162.056-.163.054-.165.052-.165.05-.165.049-.167.046-.168.044-.168.042-.169.041-.17.038-.171.036-.171.034-.172.031-.173.03-.173.028-.175.025-.174.024-.176.021-.176.019-.177.017-.177.014-.178.013-.178.01-.179.008-.18.005-.18.004-.174.001h-4.012l-.174-.001-.18-.004-.18-.005-.179-.008-.178-.01-.178-.013-.177-.014-.177-.017-.176-.019-.176-.021-.174-.024-.175-.025-.173-.028-.173-.03-.172-.031-.171-.034-.171-.036-.17-.038-.169-.041-.168-.042-.168-.044-.167-.046-.165-.049-.165-.05-.165-.052-.163-.054-.162-.056-.162-.058-.16-.06-.16-.062-.158-.063-.158-.066-.157-.067-.155-.07-.155-.071-.154-.073-.152-.074-.152-.077-.15-.078-.15-.08-.148-.082-.147-.083-.146-.085-.145-.087-.144-.089-.142-.09-.142-.092-.14-.093-.139-.095-.138-.097-.136-.098-.136-.1-.134-.102-.132-.103-.132-.105-.13-.106-.129-.107-.128-.11-.126-.11-.125-.112-.123-.114-.122-.115-.121-.117-.12-.117-.117-.12-.117-.121-.115-.122-.114-.123-.112-.125-.111-.126-.109-.128-.107-.129-.107-.13-.104-.132-.103-.132-.102-.134-.1-.136-.098-.136-.097-.138-.095-.139-.093-.14-.092-.142-.09-.142-.089-.144-.087-.145-.085-.146-.083-.147-.082-.148-.08-.15-.078-.15-.077-.152-.074-.152-.073-.154-.071-.155-.07-.155-.067-.157-.066-.158-.063-.158-.062-.16-.06-.16-.058-.162-.056-.162-.054-.163-.052-.165-.05-.165-.049-.165-.046-.167-.044-.168-.042-.168-.041-.169-.038-.17-.036-.171-.034-.171-.031-.172-.03-.173-.028-.173-.025-.175-.024-.174-.021-.176-.019-.176-.017-.177-.014-.177-.013-.178-.01-.178-.008-.179-.005-.18-.004-.18-.001-.174v-2.012l.001-.2.004-.206.007-.205.009-.205.011-.204.015-.203.016-.203.019-.201.022-.202.024-.2.027-.2.029-.199.032-.198.034-.198.036-.197.039-.195.041-.195.044-.195.046-.193.048-.192.05-.192.053-.19.055-.19.058-.188.059-.188.062-.186.064-.186.066-.184.069-.184.07-.182.073-.181.075-.181.077-.179.079-.177.081-.177.084-.176.085-.174.087-.173.09-.172.091-.171.094-.169.095-.169.097-.166.1-.166.101-.164.103-.163.105-.162.107-.16.108-.159.111-.158.112-.156.115-.154.116-.153.117-.152.12-.151.121-.148.123-.148.125-.145.127-.145.128-.142.13-.142.131-.139.133-.138.135-.137.137-.135.138-.133.139-.131.142-.13.142-.128.145-.127.145-.125.148-.123.148-.121.151-.12.152-.117.153-.116.154-.115.156-.112.158-.111.159-.108.16-.107.162-.105.163-.103.164-.101.166-.1.166-.097.169-.095.169-.094.171-.091.172-.09.173-.087.174-.085.176-.084.177-.081.177-.079.179-.077.181-.075.181-.073.182-.07.184-.069.184-.066.186-.064.186-.062.188-.059.188-.058.19-.055.19-.053.192-.05.192-.048.193-.046.195-.044.195-.041.195-.039.197-.036.198-.034.198-.032.199-.029.2-.027.2-.024.201-.022.202-.019.203-.016.203-.015.204-.011.205-.009.205-.007.206-.004.2-.001h.012l.193.001zm-.355 4-.155.003-.154.005-.154.007-.154.008-.152.011-.153.013-.151.014-.151.016-.151.019-.15.02-.149.021-.149.024-.148.026-.147.027-.147.029-.146.031-.145.032-.145.035-.143.036-.144.038-.142.039-.142.041-.141.043-.141.045-.139.046-.139.048-.138.05-.137.051-.137.053-.135.054-.135.056-.134.058-.134.059-.132.061-.131.062-.131.064-.13.066-.129.067-.127.068-.128.07-.126.072-.125.073-.124.074-.123.076-.122.077-.122.079-.12.08-.119.082-.118.083-.118.084-.116.086-.115.087-.114.089-.113.089-.111.091-.111.093-.109.094-.109.095-.107.096-.106.098-.105.098-.104.1-.102.102-.102.102-.1.104-.098.105-.098.106-.096.107-.095.109-.094.109-.093.111-.091.112-.089.112-.089.114-.087.115-.086.116-.084.118-.083.118-.082.119-.08.12-.079.122-.077.122-.076.123-.074.124-.073.125-.072.126-.07.127-.068.128-.067.129-.066.13-.064.131-.062.131-.061.132-.059.134-.058.134-.056.135-.054.135-.053.137-.051.137-.05.138-.048.139-.046.139-.045.141-.043.141-.041.142-.039.142-.038.144-.036.143-.035.145-.032.145-.031.146-.029.147-.027.147-.026.148-.024.149-.021.149-.02.15-.019.151-.016.151-.014.151-.013.153-.011.152-.008.154-.007.154-.005.154-.003.155-.001.162v1.988l.001.136.002.129.004.129.006.128.007.128.009.128.011.126.012.127.013.126.015.125.017.125.018.124.02.124.021.124.023.122.024.122.026.122.027.121.029.121.03.12.031.119.033.119.035.118.035.117.037.117.039.117.04.115.041.115.043.115.044.113.045.113.047.113.048.112.049.111.051.11.052.109.053.109.055.108.056.108.057.106.058.106.06.105.061.104.062.104.063.103.064.101.066.101.067.101.068.099.069.099.07.097.072.097.072.096.074.095.075.094.076.093.077.092.078.092.079.09.08.089.082.089.082.087.084.087.084.085.085.084.087.084.087.082.089.082.089.08.09.079.092.078.092.077.093.076.094.075.095.074.096.072.097.072.097.07.099.069.099.068.1.067.102.066.101.064.103.063.104.063.104.06.105.06.106.058.106.057.108.056.108.055.109.053.109.052.111.051.11.049.112.048.113.047.113.045.113.044.115.043.115.041.115.04.117.039.117.037.117.035.118.035.119.033.119.031.12.03.121.029.121.027.122.026.122.024.123.023.123.021.124.02.124.018.125.017.125.015.126.013.127.012.126.011.128.009.128.007.128.006.129.004.129.002.136.001h3.988l.136-.001.129-.002.129-.004.128-.006.128-.007.128-.009.126-.011.127-.012.126-.013.125-.015.125-.017.124-.018.124-.02.123-.021.123-.023.122-.024.122-.026.121-.027.121-.029.12-.03.119-.031.119-.033.118-.035.117-.035.117-.037.117-.039.115-.04.115-.041.115-.043.113-.044.113-.045.113-.047.112-.048.11-.049.111-.051.109-.052.109-.053.108-.055.108-.056.106-.057.106-.058.105-.06.104-.06.104-.063.103-.063.101-.064.101-.066.101-.067.099-.068.099-.069.097-.07.097-.072.096-.072.095-.074.094-.075.093-.076.092-.077.092-.078.09-.079.089-.08.089-.082.087-.082.087-.084.085-.084.084-.085.084-.087.082-.087.082-.089.08-.089.079-.09.078-.092.077-.092.076-.093.075-.094.074-.095.072-.096.072-.097.07-.097.069-.099.068-.099.067-.101.066-.101.064-.101.063-.103.062-.104.061-.104.06-.105.058-.106.057-.106.056-.108.055-.108.053-.109.052-.109.051-.11.049-.111.048-.112.047-.113.045-.113.044-.113.043-.115.041-.115.04-.115.039-.117.037-.117.035-.117.035-.118.033-.119.031-.119.03-.12.029-.121.027-.121.026-.122.024-.122.023-.122.021-.124.02-.124.018-.124.017-.125.015-.125.013-.126.012-.127.011-.126.009-.128.007-.128.006-.128.004-.129.002-.129.001-.136v-1.988l-.001-.155-.003-.149-.004-.149-.007-.148-.008-.148-.01-.148-.012-.148-.014-.147-.015-.147-.018-.147-.019-.146-.021-.146-.022-.146-.025-.145-.026-.145-.028-.144-.029-.144-.032-.143-.033-.143-.035-.143-.037-.142-.038-.142-.04-.141-.042-.14-.043-.14-.045-.139-.047-.139-.049-.138-.05-.138-.052-.136-.053-.137-.055-.135-.057-.135-.059-.134-.06-.134-.062-.132-.063-.132-.065-.132-.067-.13-.068-.13-.07-.129-.071-.128-.073-.127-.074-.126-.076-.126-.078-.124-.079-.124-.081-.123-.083-.121-.083-.121-.086-.12-.087-.119-.088-.118-.09-.117-.092-.116-.093-.115-.094-.114-.096-.113-.097-.111-.099-.111-.101-.109-.102-.109-.103-.107-.105-.106-.106-.105-.107-.103-.108-.102-.11-.101-.111-.099-.111-.097-.113-.096-.114-.094-.115-.093-.116-.092-.117-.09-.118-.088-.119-.087-.12-.086-.121-.083-.121-.083-.123-.081-.124-.079-.124-.078-.126-.076-.126-.074-.127-.073-.128-.071-.129-.07-.13-.068-.13-.067-.132-.065-.132-.063-.132-.062-.134-.06-.134-.059-.135-.057-.135-.055-.137-.053-.136-.052-.138-.05-.138-.049-.139-.047-.139-.045-.14-.043-.141-.042-.14-.04-.142-.038-.142-.037-.143-.035-.143-.033-.143-.032-.144-.029-.144-.028-.145-.026-.145-.025-.146-.022-.146-.021-.146-.019-.147-.018-.147-.015-.147-.014-.148-.012-.148-.01-.148-.008-.148-.007-.149-.004-.149-.003-.149-.001-.156.001z"/><path d="m30 16c0-3.713-1.475-7.274-4.101-9.899-2.625-2.626-6.186-4.101-9.899-4.101-7.732 0-14 6.268-14 14v2c0 6.627 5.373 12 12 12h4c6.627 0 12-5.373 12-12 0-.663 0-1.331 0-2z" fill="#fbc546"/><path d="m11 11.5c0-.828-.672-1.5-1.5-1.5s-1.5.672-1.5 1.5v3c0 .828.672 1.5 1.5 1.5s1.5-.672 1.5-1.5c0-.916 0-2.084 0-3z"/><path d="m23.555 9.502.044.003.044.005.044.008.043.009.043.011.042.013.042.015.041.017.04.018.039.02.039.022.037.024.037.025.035.027.034.029.032.029.032.032.029.032.029.034.027.035.025.037.024.037.022.039.02.039.018.04.017.041.015.042.013.042.011.043.009.043.008.044.005.044.003.044.002.044-.001.044-.002.044-.004.044-.007.044-.008.044-.01.043-.012.042-.014.042-.016.042-.018.04-.019.04-.021.039-.023.038-.024.037-.027.035-.027.035-.029.033-.031.032-2.793 2.793h2.586l.044.001.044.003.044.005.044.007.043.008.043.011.043.013.042.014.041.016.04.018.04.02.038.022.038.023.037.025.035.026.034.028.033.03.032.031.03.032.029.034.027.035.026.036.024.037.022.038.021.039.019.04.017.041.015.041.014.042.012.043.009.043.008.044.006.044.004.044.002.044v.044l-.002.044-.004.044-.006.044-.008.044-.009.043-.012.043-.014.042-.015.041-.017.041-.019.04-.021.039-.022.038-.024.037-.026.036-.027.035-.029.034-.03.032-.032.031-.033.03-.034.028-.035.026-.037.025-.038.023-.038.022-.04.02-.04.018-.041.016-.042.014-.043.013-.043.011-.043.008-.044.007-.044.005-.044.003-.044.001h-6.209l-.353-.852 5.355-5.355.032-.031.033-.029.035-.027.035-.027.037-.024.038-.023.039-.021.04-.019.04-.018.042-.016.042-.014.042-.012.043-.01.044-.008.044-.007.044-.004.044-.002.044-.001z"/><path d="m23.045 19.001.075.006.073.012.073.017.072.023.069.028.067.033.065.037.061.043.058.047.055.051.05.056.046.058.042.063.037.065.032.067.026.07.022.072.016.073.011.074.005.074-.001.075-.006.075-.012.073-.017.073-.023.072-.028.069-.033.067-.037.065-.043.061-.602.803-.078.103-.082.104-.083.102-.085.102-.086.1-.087.098-.088.098-.09.095-.091.095-.093.092-.093.092-.095.09-.096.088-.097.087-.098.086-.1.084-.1.082-.102.081-.103.079-.104.078-.104.077-.106.074-.107.073-.108.072-.109.07-.11.068-.111.067-.111.065-.113.064-.113.062-.115.06-.115.059-.116.057-.117.055-.118.054-.118.052-.119.05-.12.049-.121.046-.121.045-.122.044-.123.041-.123.04-.124.038-.125.037-.125.034-.126.033-.126.031-.127.029-.127.028-.128.025-.128.024-.129.022-.129.02-.13.018-.13.016-.131.015-.13.012-.132.011-.131.008-.132.007-.132.005-.132.003-.133.001-.133-.001-.132-.003-.132-.005-.132-.007-.131-.008-.132-.011-.13-.012-.131-.015-.13-.016-.13-.018-.129-.02-.129-.022-.128-.024-.128-.025-.127-.028-.127-.029-.126-.031-.126-.033-.125-.034-.125-.037-.124-.038-.123-.039-.123-.042-.122-.044-.121-.045-.121-.046-.12-.049-.119-.05-.118-.052-.118-.054-.117-.055-.116-.057-.115-.059-.115-.06-.113-.062-.113-.064-.111-.065-.111-.067-.11-.068-.109-.07-.108-.072-.107-.073-.106-.074-.104-.077-.104-.078-.103-.079-.102-.081-.1-.082-.1-.084-.098-.086-.097-.087-.096-.088-.095-.09-.093-.092-.093-.092-.091-.095-.09-.095-.088-.098-.087-.098-.086-.1-.085-.102-.083-.102-.082-.104-.078-.103-.602-.803-.043-.061-.037-.065-.033-.067-.028-.069-.023-.072-.017-.073-.012-.073-.006-.075-.001-.075.005-.074.011-.074.016-.073.022-.072.026-.07.032-.067.037-.065.042-.063.046-.058.05-.056.055-.051.058-.047.061-.043.065-.037.067-.033.069-.028.072-.023.073-.017.073-.012.075-.006.075-.001.074.005.074.011.073.016.072.022.07.026.067.032.065.037.063.042.058.046.056.05.051.055.047.058.598.797.065.085.063.081.065.08.066.079.066.078.068.076.069.076.07.074.071.074.071.072.073.071.074.07.075.069.075.067.077.067.077.065.078.064.079.063.08.062.081.06.081.06.083.058.083.057.084.055.085.055.085.053.086.052.087.051.088.049.088.048.089.047.09.046.09.044.091.043.091.042.092.04.093.04.093.037.094.037.095.035.094.034.096.032.096.031.096.03.097.028.097.027.098.025.098.024.099.023.099.021.1.02.099.019.1.017.101.015.101.014.101.013.101.011.102.01.102.008.102.007.103.005.103.004.103.002.103.001.103-.001.103-.002.103-.004.103-.005.102-.007.102-.008.102-.01.101-.011.101-.013.101-.014.101-.015.1-.017.099-.019.1-.02.099-.021.099-.023.098-.024.098-.025.097-.027.097-.028.096-.03.096-.031.096-.032.095-.034.094-.035.094-.037.093-.037.093-.04.092-.04.091-.042.091-.043.09-.044.09-.046.089-.047.088-.048.088-.049.087-.051.086-.052.085-.053.085-.055.084-.055.083-.057.083-.058.081-.06.081-.06.08-.062.079-.063.078-.064.077-.065.077-.067.075-.067.075-.069.074-.07.073-.071.071-.072.071-.074.07-.074.069-.076.068-.076.066-.078.066-.079.065-.08.063-.081.065-.085.598-.797.047-.058.051-.055.056-.05.058-.046.063-.042.065-.037.067-.032.07-.026.072-.022.073-.016.074-.011.074-.005z" fill="#593604"/></g></svg>