<svg clip-rule="evenodd" fill-rule="evenodd" stroke-linecap="round" stroke-linejoin="round" stroke-miterlimit="1.5" viewBox="0 0 32 32" xmlns="http://www.w3.org/2000/svg" xmlns:xlink="http://www.w3.org/1999/xlink"><clipPath id="a"><path clip-rule="evenodd" d="m0 0h32v32h-32z"/></clipPath><path d="m0 0h32v32h-32z" fill="none"/><g clip-path="url(#a)"><path d="m16.206 1.001.206.004.205.007.205.009.204.011.203.015.203.016.201.019.202.022.2.024.2.027.199.029.198.032.198.034.197.036.195.039.195.041.195.044.193.046.192.048.192.05.19.053.19.055.188.058.188.059.186.062.186.064.184.066.184.069.182.07.181.073.181.075.179.077.177.079.177.081.176.084.174.085.173.087.172.09.171.091.169.094.169.095.166.097.166.1.164.101.163.103.162.105.16.107.159.108.158.111.156.112.154.115.153.116.152.117.151.12.148.121.148.123.145.125.145.127.142.128.142.13.139.131.138.133.137.135.135.137.133.138.131.139.13.141.128.143.127.145.125.145.123.148.121.148.12.151.117.152.116.153.115.154.112.156.111.158.108.159.107.16.105.162.103.163.101.164.1.166.097.166.095.169.094.169.091.171.09.172.087.173.085.174.084.176.081.177.079.177.077.179.075.181.073.181.07.182.069.184.066.184.064.186.062.186.059.188.058.188.055.19.053.19.05.192.048.192.046.193.044.195.041.195.039.195.036.197.034.198.032.198.029.199.027.2.024.2.022.202.019.201.016.203.015.203.011.204.009.205.007.205.004.206.001.2v1.012l-.001.161-.003.168-.005.166-.008.166-.009.166-.012.165-.013.165-.016.164-.018.163-.019.163-.022.163-.024.161-.025.161-.028.161-.03.16-.031.159-.034.158-.035.158-.037.157-.039.157-.041.155-.043.155-.045.154-.047.153-.048.153-.05.151-.053.151-.053.15-.056.149-.057.148-.06.147-.06.147-.063.145-.064.145-.066.143-.068.143-.069.142-.071.141-.073.139-.074.139-.076.138-.078.136-.079.136-.08.134-.082.134-.084.132-.086.132-.086.13-.089.129-.089.128-.092.127-.093.125-.094.125-.096.123-.097.122-.098.121-.1.12-.102.118-.102.117-.105.116-.105.115-.107.113-.108.113-.11.11-.11.11-.112.108-.114.107-.115.105-.116.105-.117.102-.118.102-.12.1-.121.098-.122.097-.123.096-.125.094-.125.093-.127.091-.128.09-.129.089-.13.086-.132.086-.132.084-.133.082-.135.08-.136.079-.136.078-.138.076-.139.074-.139.073-.141.071-.142.069-.142.068-.144.066-.145.064-.145.063-.147.06-.147.06-.148.057-.149.056-.15.053-.151.053-.151.05-.153.048-.153.047-.154.045-.155.043-.156.041-.156.039-.157.037-.158.035-.158.034-.159.031-.16.03-.161.028-.161.025-.161.024-.163.022-.163.019-.163.018-.164.016-.165.013-.165.012-.166.009-.166.008-.166.005-.168.003-.161.001h-6.012l-.161-.001-.168-.003-.166-.005-.166-.008-.166-.009-.165-.012-.165-.013-.164-.016-.163-.018-.163-.019-.163-.022-.161-.024-.161-.025-.161-.028-.16-.03-.159-.031-.158-.034-.158-.035-.157-.037-.156-.039-.156-.041-.155-.043-.154-.045-.153-.047-.153-.048-.151-.05-.151-.053-.15-.053-.149-.056-.148-.057-.147-.06-.147-.06-.145-.063-.145-.064-.144-.066-.142-.068-.142-.069-.141-.071-.139-.073-.139-.074-.138-.076-.136-.078-.136-.079-.135-.08-.133-.082-.132-.084-.132-.086-.13-.086-.129-.089-.128-.09-.127-.091-.125-.093-.125-.094-.123-.096-.122-.097-.121-.098-.12-.1-.118-.102-.117-.102-.116-.105-.115-.105-.114-.107-.112-.108-.11-.11-.11-.11-.108-.113-.107-.113-.105-.115-.105-.116-.102-.117-.102-.118-.1-.12-.098-.121-.097-.122-.096-.123-.094-.125-.093-.125-.092-.127-.089-.128-.089-.129-.086-.13-.086-.132-.084-.132-.082-.134-.08-.134-.079-.136-.078-.136-.076-.138-.074-.139-.073-.139-.071-.141-.069-.142-.068-.143-.066-.143-.064-.145-.063-.145-.06-.147-.06-.147-.057-.148-.056-.149-.053-.15-.053-.151-.05-.151-.048-.153-.047-.153-.045-.154-.043-.155-.041-.155-.039-.157-.037-.157-.035-.158-.034-.158-.031-.159-.03-.16-.028-.161-.025-.161-.024-.161-.022-.163-.019-.163-.018-.163-.016-.164-.013-.165-.012-.165-.009-.166-.008-.166-.005-.166-.003-.168-.001-.161v-1.012l.001-.2.004-.206.007-.205.009-.205.011-.204.015-.203.016-.203.019-.201.022-.202.024-.2.027-.2.029-.199.032-.198.034-.198.036-.197.039-.195.041-.195.044-.195.046-.193.048-.192.05-.192.053-.19.055-.19.058-.188.059-.188.062-.186.064-.186.066-.184.069-.184.07-.182.073-.181.075-.181.077-.179.079-.177.081-.177.084-.176.085-.174.087-.173.09-.172.091-.171.094-.169.095-.169.097-.166.1-.166.101-.164.103-.163.105-.162.107-.16.108-.159.111-.158.112-.156.115-.154.116-.153.117-.152.12-.151.121-.148.123-.148.125-.145.127-.145.128-.143.13-.141.131-.139.133-.138.135-.137.137-.135.138-.133.139-.131.142-.13.142-.128.145-.127.145-.125.148-.123.148-.121.151-.12.152-.117.153-.116.154-.115.156-.112.158-.111.159-.108.16-.107.162-.105.163-.103.164-.101.166-.1.166-.097.169-.095.169-.094.171-.091.172-.09.173-.087.174-.085.176-.084.177-.081.177-.079.179-.077.181-.075.181-.073.182-.07.184-.069.184-.066.186-.064.186-.062.188-.059.188-.058.19-.055.19-.053.192-.05.192-.048.193-.046.195-.044.195-.041.195-.039.197-.036.198-.034.198-.032.199-.029.2-.027.2-.024.202-.022.201-.019.203-.016.203-.015.204-.011.205-.009.205-.007.206-.004.206-.001zm-.362 4-.155.003-.154.005-.154.007-.154.008-.152.011-.153.013-.151.014-.151.016-.151.019-.15.02-.149.021-.149.024-.148.026-.147.027-.147.029-.146.031-.145.032-.145.035-.143.036-.144.038-.142.039-.142.041-.141.043-.141.045-.139.046-.139.048-.138.05-.137.051-.137.053-.135.054-.135.056-.134.058-.134.059-.132.061-.131.062-.131.064-.13.066-.129.067-.127.068-.128.07-.126.072-.125.073-.124.074-.123.076-.122.077-.122.079-.12.08-.119.082-.118.083-.117.084-.117.086-.115.087-.114.089-.112.089-.112.091-.111.093-.109.094-.109.095-.107.096-.106.098-.105.098-.104.1-.102.102-.102.102-.1.104-.098.105-.098.106-.096.107-.095.109-.094.109-.093.111-.091.112-.089.112-.089.114-.087.115-.086.116-.084.118-.083.118-.082.119-.08.12-.079.122-.077.122-.076.123-.074.124-.073.125-.072.126-.07.127-.068.128-.067.129-.066.13-.064.131-.062.131-.061.132-.059.134-.058.134-.056.134-.054.136-.053.137-.051.137-.05.138-.048.139-.046.14-.045.14-.043.141-.041.142-.039.142-.038.144-.036.143-.035.145-.032.145-.031.146-.029.147-.027.147-.026.148-.024.149-.021.149-.02.15-.019.151-.016.151-.014.151-.013.153-.011.152-.008.154-.007.154-.005.154-.003.155-.001.162v.988l.001.123.002.116.004.116.005.116.006.115.008.115.01.114.011.114.012.113.013.113.015.112.017.112.018.112.019.11.02.111.022.11.023.109.024.109.026.109.027.108.029.107.029.107.031.106.032.106.034.105.034.105.036.104.038.103.038.103.04.103.04.101.042.102.044.1.044.1.046.099.047.099.047.098.05.097.05.097.051.096.053.095.053.094.055.094.056.093.057.093.058.091.059.091.06.09.061.09.062.089.064.088.064.087.065.086.067.086.067.084.068.084.07.083.07.082.071.082.073.08.073.08.074.078.075.078.076.077.077.076.078.075.078.074.08.073.08.073.082.071.082.07.083.07.084.068.085.067.085.067.086.065.087.064.088.064.089.062.089.061.091.06.091.059.091.058.093.057.093.056.094.055.094.053.095.053.096.051.097.05.097.05.098.048.099.046.099.046.1.044.1.044.102.042.101.04.103.04.103.038.103.038.104.036.105.034.105.034.106.032.106.031.107.029.107.029.108.027.109.026.109.024.109.023.11.022.11.02.111.019.112.018.112.017.112.015.113.013.113.012.114.011.114.01.115.008.115.006.116.005.116.004.116.002.123.001h5.988l.123-.001.116-.002.116-.004.116-.005.115-.006.115-.008.114-.01.114-.011.113-.012.113-.013.112-.015.112-.017.112-.018.111-.019.11-.02.11-.022.109-.023.109-.024.109-.026.108-.027.107-.029.107-.029.106-.031.106-.032.105-.034.105-.034.104-.036.103-.038.103-.038.103-.04.101-.04.102-.042.1-.044.1-.044.099-.046.099-.046.098-.048.097-.05.097-.05.096-.051.095-.053.094-.053.094-.055.093-.056.093-.057.091-.058.091-.059.091-.06.089-.061.089-.062.088-.064.087-.064.086-.065.085-.067.085-.067.084-.068.083-.07.082-.07.082-.071.08-.073.08-.073.078-.074.078-.075.077-.076.076-.077.075-.078.074-.078.073-.08.073-.08.071-.082.07-.082.07-.083.068-.084.067-.084.067-.086.065-.086.064-.087.064-.088.062-.089.061-.09.06-.09.059-.091.058-.091.057-.093.056-.093.055-.094.053-.094.053-.095.051-.096.05-.097.05-.097.047-.098.047-.099.046-.099.044-.1.044-.1.042-.102.04-.101.04-.103.038-.103.038-.103.036-.104.034-.105.034-.105.032-.106.031-.106.029-.107.029-.107.027-.108.026-.109.024-.109.023-.109.022-.11.02-.111.019-.11.018-.112.017-.112.015-.112.013-.113.012-.113.011-.114.01-.114.008-.115.006-.115.005-.116.004-.116.002-.116.001-.123v-.988l-.001-.162-.003-.155-.005-.154-.007-.154-.008-.154-.011-.152-.013-.153-.014-.151-.016-.151-.019-.151-.02-.15-.021-.149-.024-.149-.026-.148-.027-.147-.029-.147-.031-.146-.032-.145-.035-.145-.036-.143-.038-.144-.039-.142-.041-.142-.043-.141-.045-.14-.046-.14-.048-.139-.05-.138-.051-.137-.053-.137-.054-.136-.056-.134-.058-.134-.059-.134-.061-.132-.062-.131-.064-.131-.066-.13-.067-.129-.068-.128-.07-.127-.072-.126-.073-.125-.074-.124-.076-.123-.077-.122-.079-.122-.08-.12-.082-.119-.083-.118-.084-.118-.086-.116-.087-.115-.089-.114-.089-.112-.091-.112-.093-.111-.094-.109-.095-.109-.096-.107-.098-.106-.098-.105-.1-.104-.102-.102-.102-.102-.104-.1-.105-.098-.106-.098-.107-.096-.109-.095-.109-.094-.111-.093-.112-.091-.112-.089-.114-.089-.115-.087-.117-.086-.117-.084-.118-.083-.119-.082-.12-.08-.122-.079-.122-.077-.123-.076-.124-.074-.125-.073-.126-.072-.128-.07-.127-.068-.129-.067-.13-.066-.131-.064-.131-.062-.132-.061-.134-.059-.134-.058-.135-.056-.135-.054-.137-.053-.137-.051-.138-.05-.139-.048-.139-.046-.141-.045-.141-.043-.142-.041-.142-.039-.144-.038-.143-.036-.145-.035-.145-.032-.146-.031-.147-.029-.147-.027-.148-.026-.149-.024-.149-.021-.15-.02-.151-.019-.151-.016-.151-.014-.153-.013-.152-.011-.154-.008-.154-.007-.154-.005-.155-.003-.156-.001-.156.001z"/><path d="m30 17c0-7.732-6.268-14-14-14-7.732 0-14 6.268-14 14v1c0 6.075 4.925 11 11 11h6c6.075 0 11-4.925 11-11 0-.332 0-.665 0-1z" fill="#fbc546"/><path d="m13 23h3.395c2.252 0 4.355-1.126 5.605-3" fill="none" stroke="#593604" stroke-width="2"/><path d="m25 12.5c0-.828-.672-1.5-1.5-1.5-.757 0-1.685 0-2.502 0-1.103 0-1.998.895-1.998 1.998v.002l3 .023v2.479c0 .397.158.778.439 1.059s.662.439 1.059.439h.004c.397 0 .778-.158 1.059-.439s.439-.662.439-1.059c0-.917 0-2.085 0-3.002z"/><path d="m12 12.5c0-.828-.672-1.5-1.5-1.5-.757 0-1.685 0-2.502 0-1.103 0-1.998.895-1.998 1.998v.002l3 .023v2.479c0 .397.158.778.439 1.059s.662.439 1.059.439h.004c.397 0 .778-.158 1.059-.439s.439-.662.439-1.059c0-.917 0-2.085 0-3.002z"/></g></svg>