<svg clip-rule="evenodd" fill-rule="evenodd" stroke-linejoin="round" stroke-miterlimit="1.41421" viewBox="0 0 32 32" xmlns="http://www.w3.org/2000/svg" xmlns:xlink="http://www.w3.org/1999/xlink"><clipPath id="a"><path clip-rule="evenodd" d="m0 0h32v32h-32z"/></clipPath><path d="m0 0h32v32h-32z" fill="none"/><g clip-path="url(#a)"><path d="m16.199.001.198.004.198.006.198.009.198.011.197.013.197.016.196.018.196.021.196.023.195.025.195.028.194.031.193.032.194.035.192.037.192.04.191.042.191.044.19.047.189.048.189.051.188.054.187.056.187.058.186.06.185.062.184.065.183.067.183.069.181.071.181.074.18.076.179.078.178.08.177.082.176.085.174.086.174.089.173.091.172.093.171.095.169.097.169.1.167.101.166.104.165.105.164.108.162.11.161.112.16.114.159.116.157.118.156.119.155.122.153.124.152.126.15.128.149.13.148.132.146.134.144.136.143.138.142.139.139.142.138.143.136.144.134.146.132.148.13.149.128.15.126.152.124.153.122.155.119.156.118.157.116.159.114.159.112.162.11.162.108.164.105.165.104.166.101.167.1.169.097.169.095.171.093.172.091.173.089.174.086.175.085.176.082.176.08.178.078.179.076.18.074.181.071.181.069.183.067.183.065.184.062.185.06.186.058.187.056.187.053.188.052.189.048.189.047.19.044.191.042.191.04.192.037.192.035.194.032.193.031.194.028.195.025.195.023.196.021.196.018.196.016.197.013.197.011.198.009.198.006.198.004.198.001.193v1.012l-.001.187-.004.193-.006.192-.008.192-.011.191-.014.191-.015.19-.018.189-.021.189-.022.188-.025.187-.028.187-.029.186-.032.185-.034.184-.037.184-.038.183-.041.182-.043.181-.045.18-.048.18-.049.178-.052.178-.054.177-.056.176-.058.175-.06.174-.062.173-.064.171-.066.171-.068.17-.071.169-.072.168-.074.167-.076.166-.078.164-.08.164-.082.162-.084.161-.086.16-.087.159-.089.158-.092.156-.093.156-.095.153-.096.153-.099.152-.1.15-.102.149-.103.148-.106.146-.107.145-.109.144-.11.142-.112.141-.114.139-.115.138-.117.137-.119.135-.12.134-.122.132-.123.131-.125.13-.126.128-.128.126-.13.125-.131.123-.132.122-.134.12-.135.119-.137.117-.138.115-.139.114-.141.112-.142.11-.144.109-.145.107-.146.105-.148.104-.149.102-.15.1-.152.099-.152.096-.154.095-.156.093-.156.091-.158.09-.159.087-.16.086-.161.084-.162.082-.164.08-.164.078-.166.076-.167.074-.168.072-.169.071-.17.068-.171.066-.171.064-.173.062-.174.06-.175.058-.176.056-.177.054-.178.052-.178.049-.18.048-.18.045-.181.043-.182.041-.183.038-.184.037-.184.034-.185.032-.186.029-.187.028-.187.025-.188.022-.189.021-.189.018-.19.015-.191.014-.191.011-.192.008-.192.006-.193.004-.187.001h-2.012l-.187-.001-.193-.004-.192-.006-.192-.008-.191-.011-.191-.014-.19-.015-.189-.018-.189-.021-.188-.022-.187-.025-.187-.028-.186-.029-.185-.032-.184-.034-.184-.037-.183-.038-.182-.041-.181-.043-.18-.045-.18-.048-.178-.049-.178-.052-.177-.054-.176-.056-.175-.058-.174-.06-.173-.062-.171-.064-.171-.066-.17-.068-.169-.071-.168-.072-.167-.074-.166-.076-.164-.078-.164-.08-.162-.082-.161-.084-.16-.086-.159-.087-.158-.09-.156-.091-.155-.093-.155-.095-.152-.096-.152-.099-.15-.1-.149-.102-.148-.103-.146-.106-.145-.107-.144-.109-.142-.11-.141-.112-.139-.114-.138-.115-.137-.117-.135-.119-.134-.12-.132-.122-.131-.123-.13-.125-.128-.126-.126-.128-.125-.13-.123-.131-.122-.132-.12-.134-.119-.135-.117-.137-.115-.138-.114-.139-.112-.141-.11-.142-.109-.144-.107-.145-.105-.146-.104-.148-.102-.149-.1-.15-.099-.152-.096-.152-.095-.154-.093-.156-.092-.156-.089-.158-.087-.159-.086-.16-.084-.161-.082-.162-.08-.164-.078-.164-.076-.166-.074-.167-.072-.168-.071-.169-.068-.17-.066-.17-.064-.172-.062-.173-.06-.174-.058-.175-.056-.176-.054-.177-.052-.178-.049-.178-.048-.18-.045-.18-.043-.181-.041-.182-.038-.183-.037-.184-.034-.184-.032-.185-.029-.186-.028-.187-.025-.187-.022-.188-.021-.189-.018-.189-.015-.19-.014-.191-.011-.191-.008-.192-.006-.192-.004-.193-.001-.187v-1.012l.001-.2.004-.206.007-.205.009-.205.011-.204.015-.203.016-.203.019-.202.022-.201.024-.2.027-.2.029-.199.032-.198.034-.198.036-.197.039-.195.041-.195.044-.194.046-.194.048-.192.05-.192.053-.19.055-.19.058-.188.059-.188.062-.186.064-.186.066-.184.069-.184.07-.182.073-.181.075-.181.077-.179.079-.177.081-.177.084-.176.085-.174.087-.173.09-.172.091-.171.094-.169.095-.169.097-.166.1-.166.101-.164.103-.163.105-.162.107-.16.108-.159.111-.158.112-.156.115-.154.116-.153.117-.152.12-.151.121-.148.123-.148.125-.145.127-.145.128-.142.13-.142.131-.139.133-.138.135-.137.137-.135.138-.133.139-.131.141-.13.143-.128.145-.127.145-.125.148-.123.148-.121.151-.12.152-.117.153-.116.154-.115.156-.112.158-.111.159-.108.16-.107.162-.105.163-.103.164-.101.166-.1.167-.097.168-.095.169-.094.171-.091.172-.09.173-.087.174-.085.176-.084.177-.081.177-.079.179-.077.181-.075.181-.073.182-.07.184-.069.184-.066.186-.064.186-.062.188-.059.188-.058.19-.055.19-.053.192-.05.192-.048.193-.046.195-.044.195-.041.195-.039.197-.036.198-.034.198-.032.199-.029.2-.027.2-.024.201-.022.202-.019.203-.016.203-.015.204-.011.205-.009.205-.007.206-.004.206-.001.199.001zm-.355 4-.155.003-.154.005-.154.007-.154.008-.152.011-.153.013-.151.014-.151.016-.151.019-.15.02-.149.021-.149.024-.148.026-.147.027-.147.029-.146.031-.145.032-.145.035-.143.036-.144.038-.142.039-.142.041-.141.043-.141.045-.139.046-.139.048-.138.05-.137.051-.137.053-.135.054-.135.056-.134.058-.134.059-.132.061-.131.062-.131.064-.13.066-.129.067-.127.068-.128.07-.126.072-.125.073-.124.074-.123.076-.122.077-.122.079-.12.08-.119.082-.118.083-.117.084-.117.086-.115.087-.114.089-.112.089-.112.091-.111.093-.109.094-.109.095-.107.096-.106.098-.105.098-.104.1-.102.102-.102.102-.1.104-.098.105-.098.106-.096.107-.095.109-.094.109-.093.111-.091.112-.089.112-.089.114-.087.115-.086.116-.084.118-.083.118-.082.119-.08.12-.079.122-.077.122-.076.123-.074.124-.073.125-.072.126-.07.127-.068.128-.067.129-.066.13-.064.131-.062.131-.061.132-.059.134-.058.134-.056.134-.054.136-.053.137-.051.137-.05.138-.048.139-.046.139-.045.141-.043.141-.041.142-.039.142-.038.144-.036.143-.035.145-.032.145-.031.146-.029.147-.027.147-.026.148-.024.149-.021.149-.02.15-.019.151-.016.151-.014.151-.013.153-.011.152-.008.154-.007.154-.005.154-.003.155-.001.162v.988l.001.149.003.142.004.142.006.141.008.14.01.14.012.14.013.139.015.139.017.137.018.138.02.137.022.136.023.135.025.136.027.134.028.134.03.133.031.133.033.132.035.131.036.131.038.13.039.129.041.128.043.128.043.128.046.126.047.126.048.125.05.125.052.123.053.123.054.122.056.121.057.121.058.12.06.118.062.119.063.117.064.116.065.116.067.115.068.113.07.113.071.112.072.112.074.11.074.109.076.108.078.108.078.106.08.106.081.104.083.104.083.102.085.102.086.1.087.099.088.099.09.097.09.096.092.095.093.094.094.093.095.092.096.09.097.09.099.088.099.087.1.086.102.085.102.083.104.083.104.081.106.08.106.078.108.078.108.076.109.075.11.073.112.072.112.071.113.07.113.068.115.067.116.065.116.065.117.062.118.062.119.06.12.058.121.057.121.056.122.055.123.052.124.052.124.05.125.048.126.047.126.046.128.043.128.043.128.041.129.039.13.038.131.036.131.035.132.033.133.031.133.03.134.028.134.027.135.025.136.023.136.022.137.02.138.018.137.017.139.015.139.013.139.012.141.01.14.008.141.006.142.004.142.003.149.001h1.988l.149-.001.142-.003.142-.004.141-.006.14-.008.141-.01.139-.012.139-.013.139-.015.137-.017.138-.018.137-.02.136-.022.135-.023.136-.025.134-.027.134-.028.133-.03.133-.031.132-.033.131-.035.131-.036.13-.038.129-.039.128-.041.128-.043.128-.043.126-.046.126-.047.125-.048.124-.05.124-.052.123-.053.122-.054.121-.056.121-.057.12-.058.119-.06.118-.062.117-.062.116-.065.116-.065.115-.067.113-.068.113-.07.112-.071.112-.072.11-.073.109-.075.108-.076.108-.078.106-.078.106-.08.104-.081.104-.083.102-.083.102-.085.1-.086.099-.087.099-.088.097-.09.096-.09.095-.092.094-.093.093-.094.092-.095.09-.096.09-.097.088-.099.087-.099.086-.1.085-.102.083-.102.083-.104.081-.104.08-.106.078-.106.078-.108.076-.108.075-.109.073-.111.072-.111.071-.112.07-.113.068-.113.067-.115.065-.116.065-.116.062-.117.062-.118.06-.119.058-.12.057-.121.056-.121.054-.122.053-.123.052-.124.05-.124.048-.125.047-.126.046-.126.043-.128.043-.128.041-.128.039-.13.038-.13.036-.13.035-.131.033-.132.031-.133.03-.133.028-.134.027-.134.025-.135.023-.136.022-.136.02-.137.018-.137.017-.138.015-.139.013-.139.012-.14.01-.14.008-.14.006-.141.004-.142.003-.142.001-.149v-.988l-.001-.155-.003-.149-.004-.149-.007-.148-.008-.148-.01-.148-.012-.148-.014-.147-.015-.147-.018-.147-.019-.146-.021-.146-.022-.146-.025-.145-.026-.145-.028-.144-.029-.144-.032-.143-.033-.143-.035-.143-.037-.142-.038-.141-.04-.141-.042-.141-.043-.14-.045-.139-.047-.139-.049-.138-.05-.138-.052-.136-.053-.137-.055-.135-.057-.135-.059-.134-.06-.134-.062-.132-.063-.132-.065-.132-.067-.13-.068-.13-.069-.129-.072-.128-.073-.127-.074-.126-.076-.126-.078-.124-.079-.124-.081-.123-.082-.121-.084-.121-.086-.12-.087-.119-.088-.118-.09-.117-.092-.116-.093-.115-.094-.114-.096-.113-.097-.111-.099-.111-.101-.109-.102-.109-.103-.107-.105-.106-.106-.105-.107-.103-.109-.102-.109-.101-.111-.099-.111-.097-.113-.096-.114-.094-.115-.093-.116-.092-.117-.09-.118-.088-.119-.087-.12-.086-.121-.083-.121-.083-.123-.081-.124-.079-.124-.077-.126-.077-.126-.074-.127-.073-.128-.071-.129-.07-.13-.068-.13-.067-.132-.065-.132-.063-.132-.062-.134-.06-.134-.059-.135-.057-.135-.055-.137-.053-.136-.052-.138-.05-.138-.049-.139-.047-.139-.045-.14-.043-.141-.042-.14-.04-.142-.038-.142-.037-.143-.035-.143-.033-.143-.032-.144-.029-.144-.028-.145-.026-.145-.025-.146-.022-.146-.021-.146-.019-.147-.018-.147-.015-.147-.014-.148-.012-.148-.01-.148-.008-.148-.007-.149-.004-.149-.003-.149-.001-.156.001z"/><path d="m30 16c0-3.713-1.475-7.274-4.101-9.899-2.625-2.626-6.186-4.101-9.899-4.101-7.732 0-14 6.268-14 14v1c0 7.18 5.82 13 13 13h2c7.18 0 13-5.82 13-13 0-.333 0-.666 0-1z" fill="#fbc546"/><path d="m9.57 22.339c-1.876-1.993-2.854-4.802-3.369-7.339h19.598c-.515 2.537-1.493 5.346-3.369 7.339-1.114-1.446-11.746-1.446-12.86 0z" fill="#722245"/><path d="m9.57 22.339c1.114-1.446 2.856-2.339 4.755-2.339h3.35c1.899 0 3.641.893 4.755 2.339-1.497 1.59-3.566 2.661-6.43 2.661s-4.933-1.071-6.43-2.661z" fill="#ca3b8f"/><path d="m11 8.5c0-.828-.672-1.5-1.5-1.5s-1.5.672-1.5 1.5v3c0 .828.672 1.5 1.5 1.5s1.5-.672 1.5-1.5c0-.916 0-2.084 0-3z"/><path d="m24 8.5c0-.828-.672-1.5-1.5-1.5s-1.5.672-1.5 1.5v3c0 .828.672 1.5 1.5 1.5s1.5-.672 1.5-1.5c0-.916 0-2.084 0-3z"/></g></svg>