<svg clip-rule="evenodd" fill-rule="evenodd" stroke-linejoin="round" stroke-miterlimit="1.41421" viewBox="0 0 32 32" xmlns="http://www.w3.org/2000/svg" xmlns:xlink="http://www.w3.org/1999/xlink"><clipPath id="a"><path clip-rule="evenodd" d="m0 0h32v32h-32z"/></clipPath><path d="m0 0h32v32h-32z" fill="none"/><g clip-path="url(#a)"><path d="m16.199.001.198.004.198.006.198.009.198.011.197.013.197.016.196.018.196.021.196.023.195.025.195.028.194.031.193.032.194.035.192.037.192.04.191.042.191.044.19.047.189.048.189.051.188.054.187.056.187.058.186.06.185.062.184.065.183.067.183.069.181.071.181.074.18.076.179.078.178.08.177.082.176.085.174.086.174.089.173.091.172.093.171.095.169.097.169.1.167.101.166.104.165.105.164.108.162.11.161.112.16.114.159.116.157.118.156.119.155.122.153.124.152.126.15.128.149.13.148.132.146.134.144.136.143.138.14.138.094.095.092.094.091.094.09.096.089.096.089.096.087.098.087.098.085.098.085.1.052.061.088.031.096.035.096.037.095.039.095.041.093.043.094.045.092.046.092.048.091.051.091.052.089.054.089.055.088.058.087.059.086.061.085.063.084.065.083.066.082.068.081.071.08.072.078.073.07.068.065.064.087.089.093.1.091.102.087.103.086.106.082.108.08.11.077.111.073.113.071.115.069.117.065.117.062.12.06.121.056.121.053.124.05.125.048.126.044.127.041.128.038.13.035.13.031.131.029.132.025.133.022.134.018.134.016.135.012.136.009.136.005.136.002.132-.001.094-.002.088-.003.089-.005.088-.006.088-.008.088-.009.087-.01.087-.012.087-.013.086-.015.087-.015.087-.018.085-.018.085-.02.085-.021.085-.023.085-.024.083-.025.083-.026.083-.028.083-.029.082-.014.037.001.007.023.117.022.118.021.117.02.118.019.118.019.118.017.119.017.118.015.119.015.119.014.119.013.119.012.12.012.119.01.12.01.12.008.12.008.12.007.12.006.121.005.12.004.12.003.121.002.121.002.121v.117 2.011l-.001.174-.004.179-.005.18-.008.179-.01.178-.013.178-.014.178-.017.176-.019.176-.021.175-.024.175-.025.175-.028.173-.03.173-.031.172-.034.171-.036.171-.039.17-.04.169-.042.168-.044.168-.046.167-.048.165-.051.166-.052.164-.054.163-.056.162-.058.162-.06.16-.062.16-.063.158-.066.158-.067.157-.07.155-.071.155-.073.154-.074.152-.077.152-.078.15-.08.15-.082.148-.083.147-.085.146-.087.145-.089.144-.09.142-.092.142-.093.14-.095.139-.097.138-.098.136-.1.136-.102.134-.103.132-.104.132-.107.13-.107.129-.11.128-.11.126-.112.125-.114.123-.115.122-.117.121-.118.12-.119.117-.121.117-.122.115-.123.114-.125.112-.126.11-.128.11-.129.107-.13.107-.132.104-.132.103-.134.102-.136.1-.136.098-.138.097-.139.095-.14.093-.142.092-.142.09-.144.089-.145.087-.146.085-.147.083-.148.082-.15.08-.15.078-.152.077-.152.074-.154.073-.155.071-.155.07-.157.067-.158.066-.158.063-.16.062-.16.06-.162.058-.162.056-.163.054-.165.052-.165.051-.165.048-.167.046-.168.044-.168.042-.169.041-.17.038-.171.036-.171.034-.172.031-.173.03-.173.028-.175.025-.174.024-.176.021-.176.019-.177.017-.177.014-.178.013-.178.01-.179.008-.18.005-.179.004-.175.001h-4.012l-.174-.001-.18-.004-.18-.005-.179-.008-.178-.01-.178-.013-.177-.014-.177-.017-.176-.019-.176-.021-.174-.024-.175-.025-.173-.028-.173-.03-.172-.031-.171-.034-.171-.036-.17-.038-.169-.041-.168-.042-.168-.044-.166-.046-.166-.049-.165-.05-.165-.052-.163-.054-.162-.056-.162-.058-.16-.06-.16-.062-.158-.063-.158-.066-.157-.067-.155-.07-.155-.071-.154-.073-.152-.074-.152-.077-.15-.078-.15-.08-.148-.082-.147-.083-.146-.085-.145-.087-.144-.089-.142-.09-.142-.092-.14-.093-.139-.095-.138-.097-.136-.098-.136-.1-.134-.102-.132-.103-.132-.105-.13-.106-.129-.107-.128-.109-.126-.111-.125-.112-.123-.114-.122-.115-.121-.117-.119-.117-.118-.12-.117-.121-.115-.122-.114-.123-.112-.125-.11-.126-.11-.128-.107-.129-.107-.13-.104-.132-.103-.132-.102-.134-.1-.136-.098-.136-.097-.138-.095-.139-.093-.14-.092-.142-.09-.142-.089-.144-.087-.145-.085-.146-.083-.147-.082-.148-.08-.15-.078-.15-.077-.152-.074-.152-.073-.154-.071-.155-.07-.155-.067-.157-.066-.158-.063-.158-.062-.16-.06-.16-.058-.162-.056-.162-.054-.163-.052-.165-.051-.165-.048-.165-.046-.167-.044-.168-.042-.168-.041-.169-.038-.17-.036-.171-.034-.171-.031-.172-.03-.173-.028-.173-.025-.175-.024-.174-.021-.176-.019-.176-.017-.177-.014-.177-.013-.178-.01-.178-.008-.179-.005-.18-.004-.18-.001-.174v-2.01-.117l.002-.121.002-.12.003-.12.004-.121.005-.12.006-.119.006-.12.008-.119.008-.119.01-.119.01-.119.011-.118.012-.118.012-.118.014-.118.014-.117.016-.117.016-.117.017-.117.018-.116.018-.116.02-.116.02-.116.021-.115.021-.109-.023-.06-.036-.105-.034-.105-.033-.106-.029-.106-.028-.106-.026-.108-.023-.106-.022-.108-.019-.108-.017-.108-.015-.109-.012-.109-.011-.108-.008-.109-.006-.109-.004-.109-.002-.109v-.109l.003-.11.004-.109.007-.109.009-.109.011-.108.013-.109.016-.108.017-.108.02-.108.022-.108.024-.107.026-.107.028-.106.031-.106.033-.106.035-.105.037-.104.039-.104.041-.104.044-.102.046-.102.048-.101.05-.1.052-.1.055-.099.056-.097.059-.097.061-.096.063-.095.065-.093.067-.093.07-.092.071-.09.074-.089.076-.088.077-.086.08-.085.074-.076.057-.056.068-.067.076-.072.078-.071.079-.069.08-.067.082-.066.082-.064.083-.063.085-.061.086-.059.087-.057.087-.056.089-.054.089-.053.091-.05.091-.049.093-.047.093-.046.093-.043.095-.042.096-.04.096-.039.097-.036.097-.035.009-.002.13-.155.148-.17.15-.169.152-.166.155-.164.157-.161.16-.16.161-.157.164-.155.166-.152.168-.151.17-.148.172-.145.174-.143.177-.141.178-.139.181-.135.182-.134.184-.131.187-.128.188-.126.19-.123.192-.121.193-.118.196-.115.197-.112.199-.11.201-.107.202-.105.205-.101.205-.099.208-.096.209-.093.211-.09.212-.087.213-.084.216-.081.216-.078.218-.075.22-.072.221-.069.222-.066.223-.063.225-.059.227-.057.223-.052.118-.026.115-.025.114-.023.115-.023.116-.022.115-.022.116-.02.116-.02.117-.018.116-.018.117-.017.118-.017.117-.015.118-.014.118-.014.118-.013.119-.012.118-.011.119-.01.119-.009.12-.009.119-.007.12-.007.12-.006.121-.005.12-.004.121-.003.121-.002.121-.002h.124l.196.001zm-.291 3.999-.091.001-.091.002-.091.002-.091.003-.09.004-.091.005-.09.005-.09.005-.089.007-.09.007-.089.007-.089.009-.089.009-.089.009-.089.01-.088.011-.088.012-.088.012-.088.013-.087.013-.088.014-.087.015-.086.015-.087.016-.086.017-.087.017-.085.018-.086.018-.082.018-.174.041-.169.042-.168.044-.168.047-.166.05-.165.051-.164.054-.164.056-.162.059-.161.061-.16.063-.159.065-.157.067-.157.07-.155.072-.154.073-.153.076-.152.079-.15.08-.15.082-.148.085-.146.086-.145.088-.144.091-.143.092-.141.095-.14.096-.138.098-.137.1-.136.102-.134.104-.132.106-.131.108-.129.109-.128.111-.126.113-.125.115-.123.116-.121.118-.12.12-.118.122-.116.123-.115.124-.113.127-.111.128-.109.129-.107.131-.106.133-.575.742-.788.152-.027.006-.028.006-.028.007-.027.007-.027.008-.027.009-.027.009-.026.009-.027.01-.026.011-.026.01-.026.012-.026.012-.025.012-.025.013-.025.014-.025.013-.025.015-.024.014-.024.016-.024.015-.023.017-.023.016-.023.017-.022.018-.023.018-.021.018-.022.019-.021.019-.021.02-.028.027-.027.028-.031.031-.022.024-.022.024-.021.024-.02.024-.02.025-.019.025-.018.025-.018.026-.017.025-.016.026-.016.027-.015.026-.015.027-.014.026-.013.027-.013.028-.013.027-.012.028-.011.028-.01.028-.01.028-.01.029-.009.028-.008.029-.008.029-.007.03-.007.029-.006.029-.005.03-.005.03-.004.03-.004.029-.003.03-.002.03-.002.03-.001.03-.001.03v.031.03l.001.03.002.03.003.03.002.03.004.03.004.029.005.031.005.029.006.029.006.03.007.029.008.029.008.029.009.029.009.029.01.028.01.028.011.028.012.028.012.027.013.028.013.027.014.027.389.714-.216.925-.038.174-.017.082-.017.086-.016.086-.016.087-.015.086-.015.087-.014.087-.013.087-.013.088-.012.087-.011.088-.011.088-.01.089-.01.088-.009.089-.008.089-.008.089-.007.089-.006.09-.006.089-.005.09-.004.09-.004.091-.003.09-.002.091-.002.091-.001.091v.095 1.99l.001.136.002.129.004.129.006.128.007.128.009.128.011.127.012.126.013.126.015.125.017.125.018.124.02.124.021.123.023.123.024.122.026.122.027.121.029.121.03.12.031.119.033.119.035.118.035.118.037.116.039.117.04.115.041.115.043.115.044.113.045.113.047.113.048.111.049.111.051.111.052.109.053.109.055.108.056.108.057.106.058.106.06.105.06.104.063.104.063.103.064.101.066.101.067.101.068.099.069.099.07.097.072.097.072.096.074.095.075.094.076.093.077.092.078.092.079.09.08.089.082.089.082.087.084.087.084.085.085.084.087.084.087.082.089.082.089.08.09.079.092.078.092.077.093.076.094.075.095.074.096.072.097.072.097.07.099.069.099.068.101.067.101.066.101.064.103.063.104.063.104.06.105.06.106.058.106.057.108.056.108.055.109.053.109.052.11.051.111.049.112.048.112.047.113.045.114.044.115.043.115.041.115.04.117.039.117.037.117.035.118.035.119.033.119.031.12.03.121.029.121.027.122.026.122.024.122.023.124.021.124.02.124.018.125.017.125.015.126.013.127.012.126.011.128.009.128.007.128.006.129.004.129.002.136.001h3.988l.136-.001.129-.002.129-.004.128-.006.128-.007.128-.009.126-.011.127-.012.126-.013.125-.015.125-.017.124-.018.124-.02.124-.021.122-.023.122-.024.122-.026.121-.027.121-.029.12-.03.119-.031.119-.033.118-.035.117-.035.117-.037.117-.039.115-.04.115-.041.115-.043.113-.044.114-.045.112-.047.111-.048.111-.049.111-.051.109-.052.109-.053.108-.055.108-.056.106-.057.106-.058.105-.06.104-.061.104-.062.103-.063.101-.064.101-.066.101-.067.099-.068.099-.069.097-.07.097-.072.096-.072.095-.074.094-.075.093-.076.092-.077.092-.078.09-.079.089-.08.089-.082.087-.082.087-.084.085-.084.084-.085.084-.087.082-.087.082-.089.08-.089.079-.09.078-.092.077-.092.076-.093.075-.094.074-.095.072-.096.072-.097.07-.097.069-.099.068-.099.067-.1.066-.101.064-.102.064-.103.061-.104.061-.104.06-.105.058-.106.057-.106.056-.108.055-.108.053-.109.052-.109.05-.11.05-.112.048-.111.047-.113.045-.112.044-.114.043-.115.041-.115.04-.115.039-.117.037-.117.035-.117.035-.118.033-.119.031-.119.03-.121.029-.12.027-.121.026-.121.024-.123.023-.123.021-.123.02-.124.018-.124.016-.125.016-.125.013-.126.012-.127.011-.126.009-.128.007-.128.006-.128.004-.129.002-.129.001-.136v-1.99-.095l-.001-.09-.002-.091-.002-.09-.004-.091-.003-.091-.005-.09-.005-.09-.006-.09-.006-.09-.007-.09-.008-.089-.009-.091-.009-.089-.009-.089-.011-.09-.011-.089-.012-.089-.012-.089-.013-.089-.014-.088-.015-.089-.015-.088-.015-.088-.017-.088-.017-.088-.017-.088-.019-.088-.019-.087-.019-.087-.021-.087-.203-.843.388-.711.011-.021.011-.021.01-.022.01-.021.01-.022.009-.022.009-.022.009-.023.008-.022.008-.022.008-.022.007-.022.007-.024.007-.023.006-.023.005-.022.006-.024.005-.024.005-.023.004-.023.004-.023.003-.025.004-.023.002-.024.003-.024.002-.024.002-.024.001-.024.001-.024v-.025l.001-.019-.001-.042-.001-.038-.003-.037-.003-.036-.004-.038-.005-.036-.006-.036-.007-.037-.008-.036-.009-.036-.009-.036-.01-.035-.012-.035-.012-.035-.013-.034-.013-.034-.015-.034-.016-.034-.016-.032-.017-.033-.018-.032-.018-.032-.019-.031-.021-.031-.021-.031-.021-.029-.023-.03-.023-.029-.024-.028-.025-.028-.025-.027-.036-.036-.032-.032-.029-.028-.022-.021-.022-.02-.022-.019-.023-.019-.023-.019-.023-.017-.023-.017-.023-.017-.024-.016-.024-.016-.024-.015-.024-.014-.024-.014-.025-.014-.025-.013-.025-.012-.025-.012-.025-.012-.026-.011-.025-.01-.026-.01-.026-.01-.026-.009-.027-.009-.026-.008-.027-.007-.027-.008-.027-.006-.027-.006-.027-.006-.793-.149-.529-.685-.061-.076-.061-.077-.062-.075-.062-.076-.063-.075-.064-.074-.064-.074-.065-.074-.066-.073-.066-.072-.067-.072-.067-.072-.068-.071-.069-.07-.068-.069-.108-.106-.107-.103-.108-.102-.11-.101-.111-.099-.111-.097-.113-.096-.114-.094-.115-.093-.116-.092-.117-.09-.118-.088-.119-.087-.12-.086-.12-.083-.122-.083-.123-.081-.124-.079-.124-.078-.126-.076-.126-.074-.127-.073-.128-.071-.129-.07-.13-.068-.13-.067-.132-.065-.132-.063-.132-.062-.134-.06-.134-.059-.135-.057-.135-.055-.137-.053-.136-.052-.138-.05-.138-.049-.139-.047-.139-.045-.14-.043-.14-.042-.141-.04-.142-.038-.142-.037-.143-.035-.143-.033-.143-.032-.144-.029-.144-.028-.145-.026-.145-.025-.146-.022-.146-.021-.146-.019-.147-.018-.147-.015-.147-.014-.148-.012-.148-.01-.148-.008-.148-.007-.149-.004-.149-.003-.151-.001h-.09z"/><path d="m30 16c0-3.713-1.475-7.274-4.101-9.899-2.625-2.626-6.186-4.101-9.899-4.101-7.732 0-14 6.268-14 14v2c0 6.627 5.373 12 12 12h4c6.627 0 12-5.373 12-12 0-.663 0-1.331 0-2z" fill="#fbc546"/><path d="m24.078 20.003.078.009.077.016.076.021.074.027.071.033.068.038.066.044.061.049.058.053.053.058.049.061.044.066.038.068.033.071.027.074.021.076.016.077.009.078.003.078-.003.078-.009.078-.016.077-.021.076-.027.074-.033.071-.038.068-.044.066-.049.061-.053.058-1.883 1.883-.067.065-.072.068-.074.065-.076.064-.077.061-.078.06-.08.057-.081.055-.082.054-.083.051-.085.049-.085.047-.087.045-.088.043-.089.041-.089.038-.091.036-.091.034-.093.032-.093.03-.093.027-.095.025-.095.022-.096.021-.096.018-.097.016-.098.013-.098.011-.098.008-.099.007-.099.003-.099.001-.099-.001-.099-.003-.099-.007-.098-.008-.098-.011-.098-.013-.097-.016-.096-.018-.096-.021-.095-.022-.095-.025-.093-.027-.093-.03-.093-.032-.091-.034-.091-.036-.089-.038-.089-.041-.088-.043-.087-.045-.085-.047-.085-.049-.083-.051-.082-.054-.081-.055-.08-.057-.078-.06-.077-.061-.076-.064-.074-.065-.072-.068-.067-.065-1.167-1.167-.009-.008-.009.008-1.167 1.167-.067.065-.072.068-.074.065-.076.064-.077.061-.078.06-.08.057-.081.055-.082.054-.083.051-.085.049-.085.047-.087.045-.088.043-.089.041-.089.038-.091.036-.091.034-.093.032-.093.03-.093.027-.095.025-.095.022-.096.021-.096.018-.097.016-.098.013-.098.011-.098.008-.099.007-.099.003-.099.001-.099-.001-.099-.003-.099-.007-.098-.008-.098-.011-.098-.013-.097-.016-.096-.018-.096-.021-.095-.022-.095-.025-.093-.027-.093-.03-.093-.032-.091-.034-.091-.036-.089-.038-.089-.041-.088-.043-.087-.045-.085-.047-.085-.049-.083-.051-.082-.054-.081-.055-.08-.057-.078-.06-.077-.061-.076-.064-.074-.065-.072-.068-.067-.065-1.883-1.883-.053-.058-.049-.061-.044-.066-.038-.068-.033-.071-.027-.074-.021-.076-.016-.077-.009-.078-.003-.078.003-.078.009-.078.016-.077.021-.076.027-.074.033-.071.038-.068.044-.066.049-.061.053-.058.058-.053.061-.049.066-.044.068-.038.071-.033.074-.027.076-.021.077-.016.078-.009.078-.003.078.003.078.009.077.016.076.021.074.027.071.033.068.038.066.044.061.049.058.053 1.874 1.874.04.039.037.034.037.033.038.031.038.031.039.03.04.029.04.027.041.027.042.026.042.024.043.024.044.022.043.022.045.02.045.019.045.018.046.017.046.016.046.015.047.013.048.013.047.011.048.011.048.009.049.007.048.007.049.005.049.005.05.003.049.002h.05.05l.049-.002.05-.003.049-.005.049-.005.048-.007.049-.007.048-.009.048-.011.047-.011.048-.013.047-.013.046-.015.046-.016.046-.017.045-.018.045-.019.045-.02.043-.022.044-.022.043-.024.042-.024.042-.026.041-.027.04-.027.04-.029.039-.03.038-.031.038-.031.037-.033.037-.034.04-.039 1.175-1.176.063-.059.075-.065.078-.061.08-.056.083-.052.085-.048.087-.044.089-.04.091-.035.093-.031.094-.026.096-.021.097-.017.097-.012.099-.008.099-.002.099.002.099.008.097.012.097.017.096.021.094.026.093.031.091.035.089.04.087.044.085.048.083.052.08.056.078.061.075.065.063.059 1.175 1.176.04.039.037.034.037.033.038.031.038.031.039.03.04.029.04.027.041.027.042.026.042.024.043.024.044.022.043.022.045.02.045.019.045.018.046.017.046.016.046.015.047.013.048.013.047.011.048.011.048.009.049.007.048.007.049.005.049.005.05.003.049.002h.05.05l.049-.002.05-.003.049-.005.049-.005.048-.007.049-.007.048-.009.048-.011.047-.011.048-.013.047-.013.046-.015.046-.016.046-.017.045-.018.045-.019.045-.02.043-.022.044-.022.043-.024.042-.024.042-.026.041-.027.04-.027.04-.029.039-.03.038-.031.038-.031.037-.033.037-.034.04-.039 1.874-1.874.058-.053.061-.049.066-.044.068-.038.071-.033.074-.027.076-.021.077-.016.078-.009.078-.003z" fill="#593604"/><g fill="#d92020"><path d="m23.464 19s-3.159-3.173-5.498-5.522c-1.363-1.37-1.36-3.584.006-4.95.014-.014.028-.028.042-.042.659-.659 1.552-1.028 2.484-1.026.931.001 1.823.374 2.48 1.034.29.293.486.49.486.49s.232-.228.567-.558c1.369-1.345 3.564-1.339 4.925.013.016.016.032.032.048.048.662.656 1.034 1.548 1.036 2.48.001.931-.368 1.825-1.027 2.484-2.36 2.36-5.549 5.549-5.549 5.549z"/><path d="m8.464 19s-3.159-3.173-5.498-5.522c-1.363-1.37-1.36-3.584.006-4.95l.042-.042c.659-.659 1.552-1.028 2.484-1.026.931.001 1.823.374 2.48 1.034.29.293.486.49.486.49s.232-.228.567-.558c1.369-1.345 3.564-1.339 4.925.013l.048.048c.662.656 1.034 1.548 1.036 2.48.001.931-.368 1.825-1.027 2.484-2.36 2.36-5.549 5.549-5.549 5.549z"/></g></g></svg>