<svg clip-rule="evenodd" fill-rule="evenodd" stroke-linejoin="round" stroke-miterlimit="1.41421" viewBox="0 0 32 32" xmlns="http://www.w3.org/2000/svg" xmlns:xlink="http://www.w3.org/1999/xlink"><clipPath id="a"><path clip-rule="evenodd" d="m0 0h32v32h-32z"/></clipPath><path d="m0 0h32v32h-32z" fill="none"/><g clip-path="url(#a)"><path d="m16.199.001.198.004.198.006.198.009.198.011.197.013.197.016.196.018.196.021.196.023.195.025.195.028.194.031.193.032.194.035.192.037.192.04.191.042.191.044.19.047.189.048.189.051.188.054.187.056.187.058.186.06.185.062.184.065.183.067.183.069.181.071.181.074.18.076.179.078.178.08.176.082.177.085.174.086.174.089.173.091.172.093.171.095.169.097.169.1.167.101.166.104.165.105.164.108.162.11.161.112.16.114.159.116.157.118.156.12.155.121.153.124.152.126.15.128.149.13.148.132.146.134.144.136.143.138.142.139.139.142.138.143.136.144.134.146.132.148.13.149.128.15.125.152.125.153.122.155.119.156.118.157.116.159.114.16.112.161.11.162.108.164.105.165.104.166.101.167.1.169.097.169.095.171.093.172.091.173.089.174.086.175.085.175.082.177.08.178.078.179.076.18.074.181.071.181.069.183.067.183.065.184.062.185.06.186.058.186.056.188.054.188.051.189.048.189.047.19.044.191.042.191.04.192.037.192.035.194.032.193.031.194.028.195.025.195.023.196.021.195.018.197.016.197.013.197.011.198.009.198.006.198.004.198.001.193v2.012l-.001.175-.004.179-.005.18-.008.179-.01.178-.013.178-.014.177-.017.177-.019.176-.021.175-.024.175-.025.175-.028.173-.03.173-.031.172-.034.171-.036.171-.039.17-.04.169-.042.168-.044.168-.046.166-.048.166-.051.165-.052.165-.054.163-.056.162-.058.162-.06.16-.062.16-.064.159-.065.157-.067.157-.07.155-.071.155-.073.154-.074.152-.077.152-.078.15-.08.149-.082.149-.083.147-.085.146-.087.145-.089.144-.09.142-.092.142-.093.14-.095.139-.097.138-.098.136-.1.136-.102.134-.103.132-.105.132-.106.13-.107.129-.109.127-.111.127-.112.125-.114.123-.115.123-.116.12-.118.119-.12.119-.121.116-.122.115-.123.114-.125.112-.126.11-.128.11-.129.107-.13.106-.132.105-.132.103-.134.102-.136.1-.136.098-.138.097-.139.095-.14.093-.142.092-.142.091-.144.088-.145.087-.146.085-.147.083-.148.082-.15.08-.15.078-.152.077-.152.074-.154.073-.155.071-.155.07-.157.067-.158.066-.158.063-.16.062-.16.06-.162.058-.162.056-.163.054-.165.052-.165.05-.165.049-.167.046-.168.044-.168.042-.169.04-.17.039-.171.036-.171.034-.172.031-.173.03-.173.028-.175.025-.174.024-.176.021-.176.019-.177.017-.177.014-.178.013-.178.01-.179.008-.18.005-.18.004-.174.001h-4.012l-.174-.001-.18-.004-.18-.005-.179-.008-.178-.01-.178-.013-.177-.014-.177-.017-.176-.019-.176-.021-.174-.024-.175-.025-.173-.028-.173-.03-.172-.031-.171-.034-.171-.036-.17-.039-.169-.04-.168-.042-.168-.044-.167-.046-.165-.049-.165-.05-.165-.052-.163-.054-.162-.056-.162-.058-.16-.06-.16-.062-.158-.063-.158-.066-.157-.067-.155-.07-.155-.071-.154-.073-.152-.074-.152-.077-.15-.078-.15-.08-.148-.082-.147-.083-.146-.085-.145-.087-.144-.088-.142-.091-.142-.092-.14-.093-.139-.095-.138-.097-.136-.098-.136-.1-.134-.102-.132-.103-.132-.105-.13-.106-.129-.107-.128-.11-.126-.11-.125-.112-.123-.114-.122-.115-.121-.116-.12-.119-.118-.119-.116-.12-.115-.123-.114-.123-.112-.125-.111-.127-.109-.127-.107-.129-.106-.13-.105-.132-.103-.132-.102-.134-.1-.136-.098-.136-.097-.138-.095-.139-.093-.14-.092-.142-.09-.142-.089-.144-.087-.145-.085-.146-.083-.147-.082-.149-.08-.149-.078-.15-.077-.152-.074-.152-.073-.154-.071-.155-.07-.155-.067-.157-.065-.157-.064-.159-.062-.16-.06-.16-.058-.162-.056-.162-.054-.163-.052-.165-.051-.165-.048-.166-.046-.166-.044-.168-.042-.168-.04-.169-.039-.17-.036-.171-.034-.171-.031-.172-.03-.173-.028-.173-.025-.175-.024-.175-.021-.175-.019-.176-.017-.177-.014-.177-.013-.178-.01-.178-.008-.179-.005-.18-.004-.179-.001-.175v-2.012l.001-.2.004-.206.007-.205.009-.205.011-.204.015-.203.016-.203.019-.202.022-.201.024-.2.027-.2.029-.199.032-.198.034-.198.036-.197.039-.195.041-.195.044-.195.046-.193.048-.192.05-.192.053-.19.055-.19.058-.188.059-.188.062-.186.064-.186.066-.184.069-.184.07-.182.073-.181.075-.181.077-.179.079-.178.081-.176.084-.176.085-.174.088-.173.089-.172.091-.171.094-.169.095-.169.097-.166.1-.166.101-.164.103-.163.105-.162.107-.16.108-.159.111-.157.112-.157.115-.154.116-.153.117-.152.12-.15.121-.149.123-.148.125-.146.127-.144.128-.142.13-.142.131-.139.134-.138.134-.137.137-.135.138-.133.139-.131.142-.13.142-.128.145-.127.145-.125.148-.123.148-.121.151-.12.152-.117.153-.116.154-.115.157-.112.157-.111.159-.108.16-.107.162-.105.163-.103.164-.101.166-.1.167-.097.168-.095.169-.094.171-.091.172-.09.173-.087.174-.085.176-.083.177-.082.177-.079.179-.077.181-.075.181-.073.182-.07.184-.069.184-.066.186-.064.186-.062.188-.059.188-.058.19-.055.19-.053.192-.05.192-.048.193-.046.195-.044.195-.041.195-.039.197-.036.198-.034.198-.032.199-.029.2-.027.2-.024.201-.022.202-.019.203-.016.203-.015.204-.011.205-.009.205-.007.206-.004.206-.001.199.001zm-.355 4-.155.003-.154.005-.154.007-.154.008-.152.011-.153.013-.151.014-.151.016-.151.019-.15.02-.149.021-.149.024-.148.026-.147.027-.147.029-.146.031-.145.032-.145.035-.143.036-.144.038-.142.039-.142.041-.141.043-.141.045-.139.046-.139.048-.138.05-.137.051-.137.053-.136.054-.134.056-.134.058-.134.059-.132.061-.131.062-.131.064-.13.066-.129.067-.127.068-.128.07-.126.072-.125.073-.124.074-.123.076-.122.077-.122.079-.12.08-.119.082-.118.083-.118.084-.116.086-.115.087-.114.089-.113.089-.111.091-.111.093-.109.094-.109.095-.107.096-.106.098-.105.098-.104.1-.102.102-.102.102-.1.104-.098.105-.098.106-.096.107-.095.109-.094.109-.093.111-.091.111-.089.113-.089.114-.087.115-.086.117-.084.117-.083.118-.082.119-.08.12-.079.122-.077.122-.076.123-.074.124-.073.125-.072.126-.07.127-.068.128-.067.129-.066.13-.064.131-.062.131-.061.133-.059.133-.058.134-.056.135-.054.135-.053.137-.051.137-.05.138-.048.139-.046.139-.045.141-.043.141-.041.142-.039.142-.038.144-.036.143-.035.145-.032.145-.031.146-.029.147-.027.148-.026.147-.024.149-.021.149-.02.15-.019.151-.016.151-.014.151-.013.153-.011.152-.008.154-.007.154-.005.154-.003.155-.001.162v1.988l.001.136.002.129.004.129.006.128.007.128.009.128.011.127.012.126.013.126.016.125.016.125.018.124.02.124.021.124.023.122.024.122.026.122.027.121.029.121.03.12.031.119.033.119.035.118.035.118.037.116.039.117.04.115.041.115.043.115.044.113.045.113.047.113.048.111.049.111.051.111.052.109.053.109.055.108.056.108.057.106.058.106.06.105.061.105.062.103.063.103.064.102.066.1.067.101.068.099.069.099.07.097.072.097.072.096.074.095.075.094.076.093.077.092.078.092.079.09.08.089.082.089.082.087.084.087.084.085.085.084.087.084.087.082.089.082.089.08.09.079.092.078.092.077.093.076.094.075.095.074.096.072.097.072.097.07.099.069.099.068.101.067.101.066.101.064.103.063.104.063.104.06.105.06.106.058.106.057.108.056.108.055.109.053.109.052.111.051.11.049.112.048.113.047.113.045.113.044.115.043.115.041.115.04.117.039.117.037.117.035.118.035.119.033.119.031.12.03.121.029.121.027.121.026.123.024.123.023.123.021.124.02.124.018.125.017.125.015.126.013.126.012.127.011.128.009.128.007.128.006.129.004.129.002.136.001h3.988l.136-.001.129-.002.129-.004.128-.006.128-.007.128-.009.127-.011.126-.012.126-.013.125-.015.125-.017.124-.018.124-.02.123-.021.123-.023.123-.024.121-.026.121-.027.121-.029.12-.03.119-.031.119-.033.118-.035.117-.035.117-.037.117-.039.115-.04.115-.041.115-.043.113-.044.113-.045.113-.047.112-.048.11-.049.111-.051.109-.052.109-.053.108-.055.108-.056.106-.057.106-.058.105-.06.104-.06.104-.063.103-.063.101-.064.101-.066.101-.067.099-.068.099-.069.097-.07.097-.072.096-.072.095-.074.094-.075.093-.076.092-.077.092-.078.09-.079.089-.08.089-.082.087-.082.087-.084.085-.084.084-.085.084-.087.082-.087.082-.089.08-.089.079-.09.078-.092.077-.092.076-.093.075-.094.074-.095.072-.096.072-.097.07-.097.069-.099.068-.099.067-.101.066-.1.064-.102.063-.103.062-.103.061-.105.06-.105.058-.106.057-.106.056-.108.055-.108.053-.109.052-.109.051-.111.049-.111.048-.111.047-.113.045-.113.044-.113.043-.115.041-.115.04-.115.039-.117.037-.116.035-.118.035-.118.033-.119.031-.119.03-.12.029-.121.027-.121.026-.122.024-.122.023-.122.021-.124.02-.124.018-.124.016-.125.016-.125.013-.126.012-.126.011-.127.009-.128.007-.128.006-.128.004-.129.002-.129.001-.136v-1.988l-.001-.155-.003-.149-.004-.149-.007-.148-.008-.148-.01-.148-.012-.148-.014-.147-.015-.147-.018-.147-.019-.146-.021-.146-.022-.146-.025-.145-.026-.144-.028-.145-.029-.144-.032-.143-.033-.143-.035-.143-.037-.142-.038-.142-.04-.14-.042-.141-.043-.14-.045-.139-.047-.139-.049-.138-.05-.137-.052-.137-.053-.137-.055-.135-.057-.135-.059-.134-.06-.134-.062-.132-.063-.132-.065-.132-.067-.13-.068-.13-.07-.129-.071-.128-.073-.127-.074-.126-.076-.126-.078-.124-.079-.124-.081-.123-.083-.121-.083-.121-.086-.12-.087-.119-.088-.118-.09-.117-.092-.116-.093-.115-.094-.114-.096-.113-.097-.111-.099-.111-.101-.11-.102-.108-.103-.107-.105-.106-.106-.105-.107-.103-.109-.102-.109-.101-.111-.099-.111-.097-.113-.096-.114-.094-.115-.093-.116-.092-.117-.09-.118-.088-.119-.087-.12-.086-.12-.083-.122-.083-.123-.081-.124-.079-.124-.078-.126-.076-.126-.074-.127-.073-.128-.071-.129-.07-.13-.068-.13-.067-.132-.065-.132-.063-.132-.062-.134-.06-.134-.059-.135-.057-.135-.055-.137-.053-.136-.052-.138-.05-.138-.049-.139-.047-.139-.045-.14-.043-.141-.042-.14-.04-.142-.038-.142-.037-.143-.035-.143-.033-.143-.032-.144-.029-.144-.028-.145-.026-.145-.025-.146-.022-.146-.021-.146-.019-.147-.018-.147-.015-.147-.014-.148-.012-.148-.01-.148-.008-.148-.007-.149-.004-.149-.003-.149-.001-.156.001z"/><path d="m30 16c0-3.713-1.475-7.274-4.101-9.899-2.625-2.626-6.186-4.101-9.899-4.101-7.732 0-14 6.268-14 14v2c0 6.627 5.373 12 12 12h4c6.627 0 12-5.373 12-12 0-.663 0-1.331 0-2z" fill="#fbc546"/><path d="m9.354 23.469c-1.583-1.409-2.715-3.314-3.153-5.469h19.598c-.438 2.155-1.57 4.06-3.153 5.469z" fill="#722245"/><path d="m9.354 23.469.755-1.133c.237-.355.542-.649.891-.87l2 2.814c0 .376-.231.741-.495 1.091-1.169-.436-2.236-1.086-3.151-1.902zm10.141 1.902c-.264-.35-.495-.715-.495-1.091l2-2.814c.349.221.654.515.891.87l.755 1.133c-.915.816-1.982 1.466-3.151 1.902z" fill="#a1256c"/><path d="m19.394 21c.578 0 1.133.166 1.606.466v1.814h-10v-1.814c.473-.3 1.028-.466 1.606-.466z" fill="#dd34a2"/><path d="m21 22h-10v2.28c0 2.607 2.113 4.72 4.72 4.72h.56c2.607 0 4.72-2.113 4.72-4.72 0-1.261 0-2.28 0-2.28z" fill="#dd34a2"/><path d="m11 11.5c0-.828-.672-1.5-1.5-1.5s-1.5.672-1.5 1.5v3c0 .828.672 1.5 1.5 1.5s1.5-.672 1.5-1.5c0-.916 0-2.084 0-3z"/><path d="m24 11.5c0-.828-.672-1.5-1.5-1.5s-1.5.672-1.5 1.5v3c0 .828.672 1.5 1.5 1.5s1.5-.672 1.5-1.5c0-.916 0-2.084 0-3z"/></g></svg>