<svg clip-rule="evenodd" fill-rule="evenodd" stroke-linejoin="round" stroke-miterlimit="1.41421" viewBox="0 0 32 32" xmlns="http://www.w3.org/2000/svg" xmlns:xlink="http://www.w3.org/1999/xlink"><clipPath id="a"><path clip-rule="evenodd" d="m0 0h32v32h-32z"/></clipPath><path d="m0 0h32v32h-32z" fill="none"/><g clip-path="url(#a)"><path d="m15.186 1.001.186.004.186.005.186.008.185.011.185.012.184.015.184.017.184.02.184.021.183.024.182.026.182.029.182.03.181.033.18.035.18.037.179.039.179.042.178.043.178.046.177.048.176.05.176.052.174.055.175.056.173.059.173.06.172.063.171.065.17.067.169.069.169.071.168.073.166.075.166.077.165.079.164.082.163.083.162.085.161.087.16.089.159.092.158.093.157.095.156.097.155.099.153.101.152.103.152.105.149.107.149.108.148.111.146.112.145.115.143.116.143.118.141.12.139.122.139.124.137.125.135.127.134.129.133.131.13.133.13.134.127.135.126.137.123.139.122.139.12.141.118.143.116.143.115.145.112.146.111.148.108.149.107.149.105.152.103.152.101.154.099.154.097.156.095.157.093.158.092.159.089.16.087.161.085.162.083.163.082.164.079.165.077.166.075.166.073.168.071.169.069.169.067.17.065.172.063.171.06.173.059.173.056.175.055.175.052.175.05.176.048.177.046.178.043.178.042.179.039.179.037.18.035.18.033.181.03.182.029.182.026.182.024.183.021.184.02.184.017.184.015.184.012.185.011.185.008.186.005.186.004.186.001.18v1.211l.07.058.095.083.093.085.081.079.15.151.076.078.082.088.08.09.077.092.074.094.072.095.069.097.067.098.064.099.061.101.058.102.056.103.053.104.05.105.048.105.044.107.042.108.04.108.036.109.034.11.032.11.028.111.026.111.023.111.02.112.018.113.014.112.013.113.009.113.007.114.004.113.001.113-.001.113-.004.113-.007.114-.009.113-.013.113-.014.112-.018.113-.02.112-.023.111-.026.111-.028.111-.032.11-.034.11-.036.109-.04.108-.042.108-.044.107-.048.105-.05.105-.053.105-.056.102-.058.102-.061.1-.064.1-.067.098-.069.097-.072.095-.074.094-.077.091-.08.091-.082.089-.076.077-6.489 6.489-1.324-1.323-.074.038-.113.057-.113.055-.114.054-.114.053-.114.053-.115.051-.116.05-.116.048-.117.048-.117.047-.117.046-.118.044-.118.044-.118.042-.119.041-.12.04-.12.039-.12.038-.12.037-.121.036-.122.034-.121.034-.122.032-.123.031-.122.03-.123.029-.124.028-.123.027-.124.025-.124.024-.125.024-.124.022-.125.02-.126.02-.125.019-.126.017-.126.016-.126.015-.126.014-.127.013-.127.011-.127.01-.127.009-.127.008-.128.007-.128.005-.128.005-.128.003-.128.001-.123.001h-3.015l-.162-.001-.167-.003-.167-.005-.167-.008-.167-.009-.166-.011-.166-.014-.166-.015-.165-.017-.165-.02-.165-.021-.164-.024-.164-.025-.163-.028-.163-.029-.163-.032-.162-.033-.161-.035-.161-.038-.16-.039-.16-.041-.159-.043-.159-.045-.158-.047-.157-.049-.157-.051-.156-.053-.155-.054-.155-.057-.154-.058-.153-.06-.152-.062-.152-.064-.151-.066-.15-.068-.149-.069-.149-.071-.148-.074-.146-.074-.146-.077-.145-.079-.144-.08-.143-.082-.142-.084-.141-.085-.14-.088-.14-.089-.138-.091-.137-.092-.136-.095-.135-.096-.133-.098-.133-.099-.132-.101-.13-.103-.13-.105-.128-.106-.127-.108-.125-.11-.125-.111-.123-.113-.122-.114-.12-.117-.12-.117-.117-.12-.117-.12-.114-.122-.113-.123-.111-.125-.11-.126-.108-.126-.106-.128-.105-.13-.103-.13-.101-.132-.099-.132-.098-.134-.096-.135-.095-.136-.092-.137-.091-.138-.089-.14-.088-.14-.085-.141-.084-.142-.082-.143-.08-.144-.079-.145-.077-.146-.074-.147-.074-.147-.071-.149-.069-.149-.068-.15-.066-.151-.064-.152-.062-.152-.06-.153-.058-.154-.057-.155-.054-.155-.053-.156-.051-.157-.049-.157-.047-.158-.045-.159-.043-.159-.041-.16-.039-.16-.037-.161-.036-.161-.033-.162-.032-.163-.029-.163-.028-.163-.025-.164-.024-.164-.021-.165-.02-.164-.017-.166-.015-.166-.014-.166-.011-.166-.009-.167-.008-.167-.005-.167-.003-.167-.001-.162v-1.514l.001-.187.004-.193.006-.192.008-.192.011-.191.014-.191.015-.19.018-.189.021-.189.022-.188.025-.187.028-.187.029-.186.032-.185.034-.184.037-.184.038-.183.041-.182.043-.181.045-.18.048-.18.049-.178.052-.178.054-.177.056-.176.058-.175.06-.173.062-.174.064-.171.066-.172.068-.169.071-.169.072-.168.074-.167.076-.166.078-.164.08-.164.082-.162.084-.161.086-.16.087-.159.09-.158.091-.156.093-.156.095-.154.096-.152.099-.152.1-.15.102-.149.104-.148.105-.146.107-.145.109-.144.11-.142.112-.141.114-.139.115-.138.117-.137.119-.135.12-.134.122-.132.123-.131.125-.13.126-.128.128-.126.13-.125.131-.123.132-.122.134-.12.135-.119.137-.117.138-.115.139-.114.141-.112.142-.11.144-.109.145-.107.146-.105.148-.104.149-.102.15-.1.152-.099.152-.096.154-.095.156-.093.156-.092.158-.089.159-.087.16-.086.161-.084.162-.082.164-.08.164-.078.166-.076.167-.074.168-.072.169-.071.17-.068.17-.066.172-.064.174-.062.173-.06.175-.058.176-.056.177-.054.178-.052.178-.049.18-.048.18-.045.181-.043.182-.041.183-.038.184-.037.184-.034.185-.032.186-.029.187-.028.187-.025.188-.022.189-.021.189-.018.19-.015.191-.014.191-.011.192-.008.192-.006.193-.004.193-.001.186.001zm12.457 20.528.023-.024.013-.014.013-.014.012-.015.011-.015.012-.014.01-.015.01-.015.01-.015.009-.016.009-.015.009-.016.008-.015.007-.016.007-.016.007-.017.007-.016.006-.016.005-.017.006-.017.004-.017.005-.017.004-.017.003-.018.004-.017.002-.018.003-.018.002-.017.001-.018.001-.018.001-.018v-.018-.018l-.001-.018-.001-.018-.001-.018-.002-.017-.003-.018-.002-.018-.004-.017-.003-.018-.004-.017-.005-.017-.004-.017-.006-.017-.005-.017-.006-.016-.007-.016-.007-.017-.007-.016-.007-.016-.008-.016-.009-.015-.009-.015-.009-.016-.01-.015-.01-.015-.01-.015-.012-.015-.011-.014-.012-.014-.013-.015-.014-.014-.022-.024-.114-.113-.024-.023-.014-.014-.015-.013-.015-.012-.015-.012-.015-.012-.016-.011-.016-.01-.017-.011-.016-.009-.017-.01-.017-.009-.018-.008-.017-.008-.018-.008-1.399-.552.102-1.549.005-.083.004-.084.003-.083.003-.084.002-.083.001-.084v-.088-1.492l-.001-.143-.002-.136-.005-.136-.006-.137-.007-.135-.009-.136-.011-.135-.013-.135-.014-.135-.016-.135-.017-.134-.02-.133-.02-.134-.023-.133-.024-.133-.025-.132-.028-.132-.028-.131-.031-.131-.032-.131-.033-.13-.035-.13-.037-.129-.039-.129-.039-.128-.042-.128-.043-.127-.044-.127-.046-.126-.048-.125-.049-.125-.05-.125-.052-.123-.054-.123-.055-.122-.057-.122-.058-.121-.059-.12-.061-.12-.063-.119-.064-.118-.065-.117-.067-.117-.068-.116-.07-.115-.072-.114-.072-.113-.074-.113-.076-.111-.076-.111-.079-.11-.08-.109-.081-.108-.082-.108-.084-.106-.085-.105-.087-.105-.088-.103-.089-.102-.091-.102-.092-.1-.093-.1-.095-.098-.096-.097-.097-.096-.098-.095-.1-.093-.1-.092-.102-.091-.102-.089-.103-.088-.105-.087-.105-.085-.106-.084-.108-.082-.108-.082-.109-.079-.11-.079-.11-.076-.112-.076-.113-.074-.113-.073-.114-.071-.115-.069-.116-.069-.117-.067-.117-.065-.118-.064-.119-.063-.12-.061-.12-.059-.121-.058-.122-.057-.122-.055-.123-.054-.123-.052-.125-.05-.125-.049-.125-.048-.126-.046-.127-.044-.127-.043-.128-.042-.128-.04-.129-.038-.129-.037-.13-.035-.13-.033-.13-.032-.132-.031-.131-.028-.132-.028-.132-.025-.133-.024-.133-.023-.134-.02-.133-.02-.135-.017-.134-.016-.135-.014-.135-.013-.135-.011-.136-.009-.135-.007-.137-.006-.136-.005-.136-.002-.137-.001-.143.001-.142.003-.142.004-.141.006-.14.008-.141.01-.139.012-.139.013-.139.015-.138.017-.137.018-.137.02-.136.022-.135.023-.136.025-.134.027-.134.028-.133.03-.133.031-.132.033-.131.035-.131.036-.129.038-.13.039-.128.041-.128.043-.128.043-.126.046-.126.047-.125.048-.124.05-.124.052-.123.053-.122.054-.121.056-.121.057-.12.058-.118.06-.119.062-.117.063-.116.064-.116.065-.115.067-.113.068-.113.07-.112.071-.112.072-.11.073-.109.075-.108.076-.108.078-.106.078-.106.08-.104.081-.104.083-.102.083-.102.085-.1.086-.099.087-.099.088-.097.09-.096.09-.095.092-.094.093-.093.094-.092.095-.09.096-.09.097-.088.099-.087.099-.086.1-.085.102-.083.102-.083.104-.081.104-.08.106-.078.106-.078.108-.076.108-.074.109-.074.11-.072.112-.071.112-.07.113-.068.113-.067.115-.065.116-.065.116-.062.117-.062.119-.06.119-.058.119-.057.121-.056.121-.054.122-.053.123-.052.124-.05.124-.048.125-.047.126-.046.126-.043.128-.043.128-.041.128-.039.129-.038.131-.036.13-.035.132-.033.131-.031.133-.03.133-.028.134-.027.134-.025.135-.023.136-.022.136-.02.137-.018.137-.017.138-.015.139-.013.139-.012.139-.01.141-.008.14-.006.141-.004.142-.003.142-.001.149v1.49l.001.124.002.118.004.118.005.117.006.117.008.117.01.117.011.117.012.116.013.116.016.116.016.116.018.115.019.115.021.114.022.115.024.114.025.113.026.113.027.113.029.113.031.112.032.111.033.111.034.111.036.11.037.11.038.109.04.109.041.109.042.107.044.108.045.106.046.107.048.105.049.105.05.105.051.104.053.103.054.103.055.101.057.102.058.101.058.1.061.099.061.099.063.097.064.097.065.097.066.096.068.095.069.094.07.093.071.093.072.091.074.091.075.091.076.089.077.088.078.088.08.086.08.086.082.085.083.084.084.083.085.082.086.08.086.08.088.078.088.077.09.076.09.075.091.074.091.072.093.071.093.07.095.069.094.068.096.066.096.065.098.064.098.063.098.061.099.061.1.059.101.057.101.057.102.055.103.054.103.053.104.051.105.05.105.049.105.048.107.046.106.045.108.044.107.042.109.041.109.04.109.038.11.037.11.036.111.034.111.033.111.032.112.031.113.029.113.027.113.026.114.025.113.024.115.022.114.021.115.019.115.018.116.016.116.016.116.013.116.012.117.011.117.01.117.008.117.006.117.005.118.004.118.002.124.001h2.993.095l.091-.002.09-.002.09-.003.09-.004.089-.004.09-.006.089-.006.09-.007.089-.009.089-.008.089-.01.089-.011.088-.011.089-.012.088-.013.088-.014.088-.015.088-.015.088-.017.087-.017.087-.018.087-.018.087-.02.086-.02.087-.021.086-.022.086-.023.085-.024.085-.024.085-.025.085-.026.085-.027.084-.027.084-.028.084-.029.083-.03.084-.031.082-.031.083-.032.082-.033.082-.034.082-.034.081-.035.081-.036.081-.037.08-.037.08-.039.08-.039.079-.039.079-.041.079-.041.078-.042.078-.042.077-.044.077-.044.077-.045.076-.045.076-.047.075-.047.075-.048.075-.048.074-.049 1.449-.981.761.761z"/><path d="m28 16c0-3.448-1.37-6.754-3.808-9.192s-5.744-3.808-9.192-3.808c-7.18 0-13 5.82-13 13v1.502c0 3.049 1.211 5.974 3.368 8.13 2.156 2.157 5.081 3.368 8.13 3.368h3.004c3.049 0 5.974-1.211 8.13-3.368 2.157-2.156 3.368-5.081 3.368-8.13 0-.499 0-1 0-1.502z" fill="#fbc546"/><path d="m24.225 11.311c.381.381.381.997 0 1.378-1.241 1.241-3.725 3.725-3.725 3.725s-2.484-2.484-3.725-3.725c-.381-.381-.381-.997 0-1.378.192-.193.453-.301.725-.301s.533.108.725.301c.888.887 2.275 2.275 2.275 2.275s1.387-1.388 2.275-2.275c.192-.193.453-.301.725-.301s.533.108.725.301z" fill-rule="nonzero"/><path d="m10 11.5c0-.828-.672-1.5-1.5-1.5s-1.5.672-1.5 1.5v3c0 .828.672 1.5 1.5 1.5s1.5-.672 1.5-1.5c0-.916 0-2.084 0-3z"/><path d="m19.427 19.494.084.409-2.097 2.097 2.097 2.097-.084.409s-4.122 1.649-6.032 2.413c-.253.101-.535.098-.785-.009s-.447-.309-.548-.562c0 0 0 0 0-.001-.096-.24-.093-.508.009-.745.102-.238.294-.425.533-.521 1.32-.528 3.617-1.446 3.617-1.446l-1.635-1.635 1.635-1.635s-2.297-.918-3.617-1.446c-.239-.096-.431-.283-.533-.521-.102-.237-.105-.505-.009-.745 0-.001 0-.001 0-.001.101-.253.298-.455.548-.562s.532-.11.785-.009c1.91.764 6.032 2.413 6.032 2.413z" fill="#593604" fill-rule="nonzero"/><path d="m24 28s-2.999-2.999-5.071-5.071c-1.066-1.066-1.068-2.794-.005-3.863.043-.043.086-.086.129-.129 1.064-1.07 2.795-1.075 3.866-.011.588.584 1.081 1.074 1.081 1.074s.486-.486 1.066-1.066c.513-.513 1.209-.801 1.934-.801s1.421.288 1.934.801l.132.132c1.068 1.068 1.068 2.8 0 3.868-2.072 2.072-5.066 5.066-5.066 5.066z" fill="#d92020"/></g></svg>