<svg clip-rule="evenodd" fill-rule="evenodd" stroke-linejoin="round" stroke-miterlimit="1.41421" viewBox="0 0 32 32" xmlns="http://www.w3.org/2000/svg" xmlns:xlink="http://www.w3.org/1999/xlink"><clipPath id="a"><path clip-rule="evenodd" d="m0 0h32v32h-32z"/></clipPath><path d="m0 0h32v32h-32z" fill="none"/><g clip-path="url(#a)"><path d="m16.206 2.001.206.004.205.007.205.009.204.011.203.015.203.016.201.019.202.022.2.024.2.027.199.029.198.032.198.034.197.036.195.039.195.041.195.044.193.046.192.048.192.05.19.053.19.055.188.058.188.059.186.062.186.064.184.066.184.069.182.07.181.073.181.075.179.077.177.079.177.081.176.084.174.085.173.087.172.09.171.091.169.094.169.095.166.097.166.1.164.101.163.103.162.105.16.107.159.108.157.111.157.112.154.115.153.116.152.117.15.12.149.121.148.123.146.125.144.127.142.128.142.13.139.131.138.133.137.135.135.137.133.138.131.139.13.142.128.142.127.144.125.146.123.148.121.149.12.15.117.152.116.153.115.154.112.156.111.158.108.159.107.16.105.162.103.163.101.164.1.165.097.168.095.168.094.169.091.171.09.172.087.173.085.174.083.176.082.177.079.177.077.179.075.181.073.181.07.182.069.184.066.184.064.186.062.186.059.188.058.188.055.19.053.19.05.192.048.192.046.193.044.195.041.195.039.195.036.197.034.198.032.198.029.199.027.2.024.2.022.201.019.202.016.203.015.203.011.204.009.205.007.205.004.206.001.2v.514l-.001.162-.003.167-.005.167-.008.167-.009.167-.011.166-.014.166-.015.166-.017.165-.02.165-.021.165-.024.164-.025.164-.028.163-.029.163-.032.163-.033.162-.035.161-.038.161-.039.16-.041.16-.043.159-.045.159-.047.158-.049.157-.051.157-.053.156-.054.155-.057.155-.058.154-.06.153-.062.152-.064.152-.066.151-.068.15-.069.149-.071.149-.074.148-.074.146-.077.146-.079.145-.08.144-.082.143-.084.142-.085.141-.088.14-.089.14-.091.138-.092.137-.095.136-.096.135-.098.134-.099.132-.101.132-.103.13-.105.13-.106.128-.108.126-.11.126-.111.125-.113.123-.114.122-.117.12-.117.12-.12.117-.12.117-.122.114-.123.113-.125.111-.126.11-.126.108-.128.106-.13.105-.13.103-.132.101-.132.099-.134.098-.135.096-.136.095-.137.092-.138.091-.14.089-.14.088-.141.085-.142.084-.143.082-.144.08-.145.079-.146.077-.147.075-.147.073-.149.071-.149.069-.15.068-.151.066-.152.064-.152.062-.153.06-.154.058-.155.057-.155.054-.156.053-.157.051-.157.049-.158.047-.159.045-.159.043-.16.041-.16.039-.161.038-.161.035-.162.033-.163.032-.163.029-.163.028-.164.025-.164.024-.165.021-.165.02-.165.017-.166.015-.166.014-.166.011-.167.009-.167.008-.167.005-.167.003-.162.001h-5.016l-.162-.001-.167-.003-.167-.005-.167-.008-.167-.009-.166-.011-.166-.014-.166-.015-.165-.017-.165-.02-.165-.021-.164-.024-.164-.025-.163-.028-.163-.029-.163-.032-.162-.033-.161-.035-.161-.038-.16-.039-.16-.041-.159-.043-.159-.045-.158-.047-.157-.049-.157-.051-.156-.053-.155-.054-.155-.057-.154-.058-.153-.06-.152-.062-.152-.064-.151-.066-.15-.068-.15-.069-.148-.071-.147-.073-.147-.075-.146-.077-.145-.079-.144-.08-.143-.082-.142-.084-.141-.085-.14-.088-.14-.089-.138-.091-.137-.092-.136-.095-.135-.096-.134-.098-.132-.099-.132-.101-.13-.103-.13-.105-.128-.106-.126-.108-.126-.11-.125-.111-.123-.113-.122-.114-.12-.117-.12-.117-.117-.12-.117-.12-.114-.122-.113-.123-.111-.125-.11-.125-.108-.127-.106-.128-.105-.13-.103-.13-.101-.132-.099-.133-.098-.133-.096-.135-.095-.136-.092-.137-.091-.138-.089-.14-.088-.14-.085-.141-.084-.142-.082-.143-.08-.144-.079-.145-.077-.146-.074-.146-.074-.148-.071-.149-.069-.149-.068-.15-.066-.151-.064-.152-.062-.152-.06-.153-.058-.154-.057-.155-.054-.155-.053-.156-.051-.157-.049-.157-.047-.158-.045-.159-.043-.159-.041-.16-.039-.16-.038-.161-.035-.161-.033-.162-.032-.163-.029-.163-.028-.163-.025-.164-.024-.164-.021-.165-.02-.165-.017-.165-.015-.166-.014-.166-.011-.166-.009-.167-.008-.167-.005-.167-.003-.167-.001-.162v-.514l.001-.2.004-.206.007-.205.009-.205.011-.204.015-.203.016-.203.019-.201.022-.202.024-.2.027-.2.029-.199.032-.198.034-.198.036-.197.039-.195.041-.195.044-.195.046-.193.048-.192.05-.191.053-.191.055-.19.058-.188.059-.188.062-.186.064-.186.066-.184.069-.184.07-.182.073-.181.075-.181.077-.179.079-.177.082-.177.083-.176.085-.174.087-.173.09-.172.091-.171.094-.169.095-.169.097-.167.1-.165.101-.164.103-.163.105-.162.107-.16.108-.159.111-.158.112-.156.115-.154.116-.153.117-.152.12-.151.121-.148.123-.148.125-.146.127-.144.128-.142.13-.142.131-.139.133-.138.135-.137.137-.135.138-.133.139-.131.142-.13.142-.128.145-.127.145-.125.148-.123.149-.121.15-.12.151-.117.154-.116.154-.115.156-.112.158-.111.159-.108.16-.107.162-.105.163-.103.164-.101.166-.1.166-.097.169-.095.169-.094.171-.091.172-.09.173-.087.174-.085.176-.084.177-.081.177-.079.179-.077.181-.075.181-.073.182-.07.184-.069.184-.066.186-.064.186-.062.188-.059.188-.058.19-.055.19-.053.192-.05.192-.048.193-.046.195-.044.195-.041.195-.039.197-.036.198-.034.198-.032.199-.029.2-.027.2-.024.202-.022.201-.019.203-.016.203-.015.204-.011.205-.009.205-.007.206-.004.2-.001h.012l.2.001zm-.362 4-.155.003-.154.005-.154.007-.154.008-.152.011-.153.013-.151.014-.151.016-.151.019-.15.02-.149.021-.149.024-.148.026-.147.027-.147.029-.146.031-.145.032-.145.035-.143.036-.144.038-.142.039-.142.041-.141.043-.14.045-.14.046-.139.048-.138.05-.137.051-.137.053-.135.054-.135.056-.134.058-.134.059-.132.061-.131.062-.131.064-.13.066-.129.067-.128.068-.127.07-.126.072-.125.073-.124.074-.123.076-.122.077-.122.079-.12.08-.119.082-.118.083-.118.084-.116.086-.115.087-.114.089-.113.089-.111.091-.111.093-.109.094-.109.095-.107.096-.106.098-.105.098-.104.1-.102.102-.101.102-.101.104-.098.105-.098.106-.096.107-.095.109-.094.109-.093.111-.091.112-.089.112-.089.114-.087.115-.086.117-.084.117-.083.118-.082.119-.08.12-.079.122-.077.122-.076.123-.074.124-.073.125-.072.126-.07.127-.068.128-.067.129-.066.13-.064.131-.062.131-.061.132-.059.134-.058.134-.056.135-.054.135-.053.137-.051.137-.05.138-.048.139-.046.14-.045.14-.043.141-.041.142-.039.142-.038.144-.036.144-.035.144-.032.145-.031.146-.029.147-.027.147-.026.148-.024.149-.021.149-.02.15-.019.151-.016.151-.014.151-.013.153-.011.152-.008.154-.007.154-.005.154-.003.155-.001.162v.49l.001.124.002.118.004.117.005.118.006.117.008.117.01.117.011.117.012.116.013.116.016.116.016.116.018.115.019.115.021.114.022.115.024.114.025.113.026.113.027.113.029.112.031.113.032.111.033.111.034.111.036.11.037.11.038.109.04.109.041.109.042.107.044.108.045.107.046.106.048.105.049.105.05.105.051.104.053.103.054.103.055.102.057.101.057.101.059.099.061.1.061.098.063.098.064.098.065.096.066.096.068.095.069.094.07.093.071.093.072.091.074.091.075.091.076.089.077.088.078.088.08.086.08.086.082.085.083.084.084.083.085.082.086.08.086.08.088.078.088.077.09.076.09.075.091.074.091.072.093.071.093.07.094.069.095.068.096.066.097.065.097.064.098.063.098.061.1.061.099.059.101.057.101.057.102.055.103.054.103.053.104.051.105.05.105.049.105.048.107.046.106.045.108.044.107.042.109.041.109.04.109.038.11.037.11.036.111.034.111.033.111.032.112.031.113.029.113.027.113.026.114.025.113.024.115.022.114.021.115.019.115.018.116.016.116.016.116.013.116.012.117.011.117.01.117.008.117.006.117.005.118.004.118.002.124.001h4.992l.124-.001.118-.002.118-.004.117-.005.117-.006.117-.008.117-.01.117-.011.116-.012.116-.013.116-.016.116-.016.115-.018.115-.019.114-.021.115-.022.113-.024.114-.025.113-.026.113-.027.113-.029.112-.031.111-.032.111-.033.111-.034.11-.036.11-.037.109-.038.109-.04.109-.041.107-.042.108-.044.106-.045.107-.046.105-.048.105-.049.105-.05.104-.051.103-.053.103-.054.102-.055.101-.057.101-.057.1-.059.099-.061.098-.061.098-.063.097-.064.097-.065.096-.066.095-.068.094-.069.093-.07.093-.071.091-.072.091-.074.091-.075.089-.076.088-.077.088-.078.086-.08.086-.08.085-.082.084-.083.083-.084.082-.085.08-.086.08-.086.078-.088.077-.088.076-.09.075-.09.074-.091.072-.091.071-.093.07-.093.069-.094.068-.095.066-.096.065-.096.064-.098.063-.098.061-.098.061-.1.059-.099.057-.101.057-.101.055-.102.054-.103.053-.103.051-.104.05-.105.049-.105.048-.105.046-.106.045-.107.044-.108.042-.107.041-.109.04-.109.038-.109.037-.11.036-.11.034-.111.033-.111.032-.111.031-.113.029-.112.027-.113.026-.113.025-.114.024-.113.022-.115.021-.114.019-.115.018-.115.016-.116.016-.116.013-.116.012-.116.011-.117.01-.117.008-.117.006-.117.005-.117.004-.118.002-.118.001-.124v-.49l-.001-.162-.003-.155-.005-.154-.007-.154-.008-.154-.011-.152-.013-.153-.014-.151-.016-.152-.019-.15-.02-.15-.021-.149-.024-.149-.026-.148-.027-.147-.029-.147-.031-.146-.032-.145-.035-.145-.036-.144-.038-.143-.039-.142-.041-.142-.043-.141-.045-.141-.046-.139-.048-.139-.05-.138-.051-.137-.053-.137-.054-.135-.056-.135-.058-.134-.059-.134-.061-.132-.062-.131-.064-.131-.066-.13-.067-.129-.068-.127-.07-.128-.072-.126-.073-.125-.074-.124-.076-.123-.077-.122-.079-.122-.08-.12-.082-.119-.083-.118-.084-.117-.086-.117-.087-.115-.089-.114-.089-.113-.091-.111-.093-.111-.094-.109-.095-.109-.096-.107-.098-.106-.098-.105-.101-.104-.101-.102-.102-.102-.104-.1-.105-.098-.106-.098-.107-.096-.109-.095-.109-.094-.111-.093-.111-.091-.113-.089-.114-.089-.115-.087-.116-.086-.118-.084-.118-.083-.119-.082-.12-.08-.122-.079-.122-.077-.123-.076-.124-.074-.125-.073-.126-.072-.127-.07-.128-.068-.129-.067-.13-.066-.131-.064-.131-.062-.132-.061-.134-.059-.134-.058-.135-.056-.135-.054-.137-.053-.137-.051-.138-.05-.139-.048-.139-.046-.141-.045-.141-.043-.142-.041-.142-.039-.144-.038-.143-.036-.145-.035-.145-.032-.146-.031-.147-.029-.147-.027-.148-.026-.149-.024-.149-.021-.15-.02-.151-.019-.151-.016-.151-.014-.153-.013-.152-.011-.154-.008-.154-.007-.154-.005-.155-.003-.156-.001z"/><path d="m30 18c0-7.732-6.268-14-14-14-7.732 0-14 6.268-14 14v.502c0 3.049 1.211 5.974 3.368 8.13 2.156 2.157 5.081 3.368 8.13 3.368h5.004c3.049 0 5.974-1.211 8.13-3.368 2.157-2.156 3.368-5.081 3.368-8.13 0-.167 0-.334 0-.502z" fill="#fbc546"/><path d="m29 18c0-1.105-.895-2-2-2-1.222 0-2.778 0-4 0-1.105 0-2 .895-2 2s.895 2 2 2h4c1.105 0 2-.895 2-2z" fill="#ed6b44"/><path d="m11 18c0-1.105-.895-2-2-2-1.222 0-2.778 0-4 0-1.105 0-2 .895-2 2s.895 2 2 2h4c1.105 0 2-.895 2-2z" fill="#ed6b44"/><g fill-rule="nonzero"><path d="m24.947 13.106c.494.247.694.847.447 1.341v.001c-.247.494-.847.694-1.34.447-1.196-.598-3.305-1.652-4.501-2.251-.494-.247-.694-.847-.447-1.341 0-.001 0-.001 0-.001.247-.494.847-.694 1.34-.447 1.196.598 3.305 1.652 4.501 2.251z"/><path d="m12.895 11.304c.247.493.047 1.093-.447 1.34-1.196.598-3.304 1.652-4.501 2.25-.494.247-1.094.047-1.341-.447-.001 0-.001 0-.001-.001-.247-.493-.047-1.093.447-1.34 1.196-.598 3.304-1.652 4.501-2.25.494-.247 1.094-.047 1.341.447.001 0 .001 0 .001.001z"/><path d="m21.427 18.494.084.409-2.097 2.097 2.097 2.097-.084.409s-4.157 1.663-6.057 2.423c-.512.205-1.093-.044-1.298-.557 0 0 0 0 0-.001-.206-.512.044-1.094.557-1.299 1.323-.53 3.592-1.437 3.592-1.437l-1.635-1.635 1.635-1.635s-2.269-.907-3.592-1.437c-.513-.205-.763-.787-.557-1.299 0-.001 0-.001 0-.001.205-.513.786-.762 1.298-.557 1.9.76 6.057 2.423 6.057 2.423z" fill="#593604"/></g></g></svg>