<svg clip-rule="evenodd" fill-rule="evenodd" stroke-linejoin="round" stroke-miterlimit="1.41421" viewBox="0 0 32 32" xmlns="http://www.w3.org/2000/svg" xmlns:xlink="http://www.w3.org/1999/xlink"><clipPath id="a"><path clip-rule="evenodd" d="m0 0h32v32h-32z"/></clipPath><path d="m0 0h32v32h-32z" fill="none"/><g clip-path="url(#a)"><path d="m16.206 3.001.206.004.205.007.205.009.204.011.203.015.203.016.201.019.202.022.2.024.2.027.199.029.198.032.198.034.197.036.195.039.195.041.195.044.193.046.192.048.192.05.19.053.19.055.188.058.188.059.186.062.186.064.184.066.184.069.182.07.181.073.181.075.179.077.177.079.177.082.176.083.174.085.173.087.172.09.171.091.169.094.169.095.166.097.166.1.164.101.163.103.162.105.16.107.159.108.158.111.156.112.154.115.153.116.152.117.151.12.148.121.148.123.145.125.145.127.143.128.141.13.139.131.138.133.137.135.135.137.133.138.131.139.13.141.128.143.127.145.125.145.123.148.121.148.119.151.118.152.116.153.115.154.112.156.111.158.108.159.107.16.105.162.103.163.101.164.1.166.097.166.095.169.094.169.091.171.089.172.088.173.085.174.083.176.082.177.079.177.077.179.075.181.072.181.071.182.069.184.066.184.064.186.062.186.059.188.058.188.055.19.053.19.05.192.048.192.046.193.044.195.041.195.039.195.036.197.034.198.032.198.029.199.027.2.024.2.022.202.019.201.016.203.015.203.011.204.009.205.007.205.004.206.001.2v.018l-.001.155-.003.162-.005.161-.007.16-.009.161-.011.16-.013.16-.015.159-.016.16-.019.158-.021.159-.022.158-.025.157-.026.158-.029.157-.03.156-.032.156-.034.155-.036.155-.038.154-.04.154-.041.153-.043.153-.046.152-.047.152-.049.151-.05.15-.053.149-.054.149-.056.148-.058.148-.06.147-.062.146-.063.145-.065.144-.067.144-.068.143-.071.142-.072.141-.074.141-.075.139-.078.139-.079.138-.08.136-.083.136-.084.135-.086.134-.087.133-.089.132-.091.131-.093.13-.094.129-.096.127-.097.127-.099.126-.101.124-.102.123-.104.123-.105.121-.107.119-.109.119-.111.117-.111.116-.114.115-.115.114-.116.111-.117.111-.119.108-.119.108-.121.105-.123.104-.123.102-.124.101-.126.099-.127.098-.127.095-.129.094-.13.093-.131.091-.132.089-.133.087-.134.086-.135.084-.136.083-.136.08-.138.079-.139.078-.139.075-.141.074-.141.072-.142.071-.143.068-.144.067-.144.065-.145.063-.146.062-.147.06-.148.058-.148.056-.149.054-.149.053-.151.05-.15.049-.152.047-.152.046-.153.043-.153.041-.154.04-.154.038-.155.036-.155.034-.156.032-.156.03-.157.029-.158.026-.157.025-.158.022-.159.021-.159.019-.159.016-.159.015-.16.013-.16.011-.161.009-.16.007-.161.005-.162.003-.155.001h-6.024l-.155-.001-.162-.003-.161-.005-.16-.007-.161-.009-.16-.011-.16-.013-.159-.015-.159-.016-.159-.019-.159-.021-.158-.022-.157-.025-.158-.026-.157-.029-.156-.03-.156-.032-.155-.034-.155-.036-.154-.038-.154-.04-.153-.041-.153-.043-.152-.046-.152-.047-.15-.049-.151-.05-.149-.053-.149-.054-.148-.056-.148-.058-.147-.06-.146-.062-.145-.063-.144-.065-.144-.067-.143-.068-.142-.071-.141-.072-.141-.074-.139-.075-.139-.078-.138-.079-.136-.08-.136-.083-.135-.084-.134-.086-.133-.087-.132-.089-.131-.091-.13-.093-.129-.094-.127-.095-.127-.098-.126-.099-.124-.101-.123-.102-.123-.104-.121-.105-.119-.108-.119-.108-.117-.111-.116-.111-.115-.114-.114-.115-.111-.116-.111-.117-.108-.119-.108-.12-.105-.12-.104-.123-.102-.123-.101-.124-.099-.126-.097-.127-.096-.127-.094-.129-.093-.13-.091-.131-.089-.132-.087-.133-.086-.134-.084-.135-.083-.136-.08-.136-.079-.138-.078-.139-.075-.139-.074-.141-.072-.141-.071-.142-.068-.143-.067-.144-.065-.144-.063-.145-.062-.146-.06-.147-.058-.148-.056-.148-.054-.149-.053-.149-.05-.15-.049-.151-.047-.152-.046-.152-.043-.153-.041-.153-.04-.154-.038-.154-.036-.155-.034-.155-.032-.156-.03-.156-.029-.157-.026-.158-.025-.157-.022-.158-.021-.159-.019-.159-.016-.159-.015-.159-.013-.16-.011-.16-.009-.161-.007-.16-.005-.161-.003-.162-.001-.155v-.02l.001-.2.004-.206.007-.205.009-.205.011-.203.015-.204.016-.202.019-.202.022-.202.024-.2.027-.2.029-.199.032-.198.034-.198.036-.196.039-.196.041-.195.044-.194.046-.193.048-.193.05-.191.053-.191.055-.189.058-.189.059-.187.062-.187.064-.185.066-.185.069-.183.07-.182.073-.182.075-.18.077-.179.079-.178.081-.176.084-.176.085-.174.087-.173.09-.172.091-.171.093-.169.096-.169.097-.166.099-.166.101-.164.104-.163.105-.162.106-.16.109-.159.111-.157.112-.156.114-.155.116-.153.118-.152.12-.15.121-.149.123-.147.125-.146.126-.144.128-.143.13-.141.132-.14.133-.138.135-.136.136-.135.138-.133.14-.132.141-.13.143-.128.144-.126.146-.125.147-.123.149-.121.15-.12.152-.118.153-.116.155-.114.156-.112.157-.111.159-.109.16-.106.162-.105.163-.104.164-.101.166-.099.166-.097.169-.096.169-.093.171-.091.172-.09.173-.087.174-.085.176-.084.176-.081.178-.079.179-.077.18-.075.182-.073.182-.07.183-.069.185-.066.185-.064.187-.062.187-.059.189-.058.189-.055.191-.053.191-.05.193-.048.193-.046.194-.044.195-.041.196-.039.196-.036.198-.034.198-.032.199-.029.2-.027.2-.024.202-.022.202-.019.202-.016.204-.015.203-.011.205-.009.205-.007.206-.004.2-.001h.014l.2.001zm-.364 4-.155.003-.154.005-.154.007-.153.008-.153.011-.152.013-.152.014-.151.016-.151.019-.149.02-.15.021-.148.024-.148.026-.147.027-.147.029-.146.031-.145.032-.145.035-.144.036-.143.037-.143.04-.142.041-.141.043-.14.045-.139.046-.139.048-.138.05-.138.051-.136.053-.136.054-.135.056-.134.058-.133.059-.132.061-.132.062-.13.064-.13.065-.129.067-.128.069-.127.07-.126.071-.125.073-.124.075-.123.076-.122.077-.122.079-.12.08-.119.081-.118.083-.117.085-.116.086-.115.087-.114.088-.113.09-.112.091-.111.092-.109.094-.109.095-.107.096-.106.098-.105.099-.103.1-.103.101-.101.103-.1.103-.099.105-.098.106-.096.107-.095.109-.094.109-.092.111-.091.112-.09.113-.088.114-.087.115-.086.116-.085.117-.082.118-.082.119-.08.12-.079.122-.077.122-.076.123-.075.124-.073.125-.071.126-.07.127-.069.128-.067.129-.065.13-.064.13-.062.132-.061.132-.059.133-.058.134-.056.135-.054.136-.053.136-.052.138-.049.138-.048.138-.046.14-.045.14-.043.142-.041.141-.04.143-.037.143-.036.144-.035.145-.032.145-.031.146-.029.146-.027.148-.026.148-.024.148-.021.15-.02.149-.019.151-.016.151-.014.152-.013.152-.011.152-.008.154-.007.154-.005.154-.003.155-.001.16.001.116.002.111.003.112.005.111.006.111.008.111.009.111.01.11.012.11.013.11.014.11.016.109.017.109.018.109.019.109.021.108.023.108.023.107.025.107.026.107.028.107.028.106.03.105.032.106.032.105.034.104.035.104.037.103.037.104.039.102.04.102.042.102.042.101.044.101.045.1.046.099.048.099.049.098.05.098.051.097.052.097.053.096.055.095.056.095.057.094.058.093.06.093.06.092.062.091.063.091.064.09.065.089.066.088.068.088.068.087.07.086.071.085.072.085.073.084.074.082.075.083.076.081.078.08.078.08.08.078.08.078.081.076.083.075.082.074.084.073.085.072.085.071.086.07.087.068.088.068.088.066.089.065.09.064.091.063.091.062.092.06.093.06.093.058.094.057.095.056.095.055.096.053.097.052.097.052.098.049.098.049.099.048.1.046.099.045.101.044.101.042.102.042.102.04.102.039.104.037.103.037.104.035.104.034.105.032.106.032.105.03.106.028.107.028.107.026.107.025.107.023.108.023.108.021.109.019.109.018.109.017.109.016.11.014.11.013.11.012.11.01.111.009.111.008.111.006.111.005.112.003.111.002.118.001h6l.118-.001.111-.002.112-.003.111-.005.111-.006.111-.008.111-.009.11-.01.11-.012.11-.013.11-.014.109-.016.109-.017.109-.018.109-.019.108-.021.108-.023.107-.023.107-.025.107-.026.107-.028.106-.028.105-.03.106-.032.105-.032.104-.034.104-.035.103-.037.104-.037.102-.039.102-.04.102-.042.101-.042.1-.044.1-.045.1-.046.099-.048.098-.049.098-.049.097-.052.097-.052.096-.053.095-.055.095-.056.094-.057.093-.058.093-.06.092-.06.091-.062.091-.063.09-.064.089-.065.088-.066.088-.068.087-.068.086-.07.085-.071.085-.072.084-.073.082-.074.083-.075.081-.076.08-.078.08-.078.078-.08.078-.08.076-.081.075-.082.074-.083.074-.084.071-.085.071-.085.07-.086.068-.087.068-.088.066-.088.065-.089.064-.09.063-.091.062-.091.06-.092.06-.093.058-.093.057-.094.056-.095.055-.095.053-.096.052-.097.051-.097.05-.098.049-.098.048-.099.046-.099.045-.1.044-.101.042-.101.042-.102.04-.102.039-.102.037-.104.037-.103.035-.104.034-.105.032-.104.032-.106.03-.105.028-.106.028-.107.026-.107.025-.107.023-.107.023-.108.021-.108.019-.109.018-.109.017-.109.016-.109.014-.11.013-.11.012-.11.01-.11.009-.111.008-.111.006-.111.005-.111.003-.112.002-.111.001-.115-.001-.159-.003-.155-.005-.154-.007-.154-.008-.154-.011-.152-.013-.153-.014-.151-.016-.151-.019-.151-.02-.15-.021-.149-.024-.149-.026-.148-.027-.147-.029-.147-.031-.146-.032-.145-.035-.144-.036-.144-.038-.144-.039-.142-.041-.142-.043-.141-.045-.141-.046-.139-.048-.139-.05-.138-.051-.137-.053-.137-.054-.135-.056-.135-.058-.134-.059-.134-.061-.132-.062-.131-.064-.131-.066-.13-.067-.129-.068-.128-.07-.126-.072-.127-.073-.125-.074-.124-.076-.123-.077-.122-.079-.122-.08-.12-.082-.119-.083-.118-.084-.118-.086-.116-.087-.115-.089-.114-.089-.112-.091-.112-.093-.111-.094-.11-.095-.108-.096-.107-.098-.106-.098-.105-.1-.104-.102-.102-.102-.102-.104-.1-.105-.098-.106-.098-.107-.096-.109-.095-.109-.094-.111-.092-.112-.092-.112-.089-.114-.089-.115-.087-.117-.086-.117-.084-.118-.083-.119-.082-.12-.08-.122-.079-.122-.077-.123-.076-.124-.074-.125-.073-.126-.072-.127-.07-.128-.068-.129-.067-.13-.066-.131-.064-.131-.062-.132-.061-.134-.059-.134-.058-.135-.056-.135-.054-.137-.053-.137-.051-.138-.05-.139-.048-.139-.046-.141-.045-.141-.043-.142-.041-.142-.039-.144-.038-.143-.036-.145-.035-.145-.032-.146-.031-.147-.029-.147-.027-.148-.026-.149-.024-.149-.021-.15-.02-.151-.019-.151-.016-.151-.014-.153-.013-.152-.011-.154-.008-.154-.007-.154-.005-.155-.003-.157-.001-.157.001z"/><path d="m30 19c0-7.732-6.268-14-14-14-.001 0-.001 0-.002 0-7.731 0-13.998 6.267-13.998 13.998v.008c0 2.916 1.158 5.712 3.22 7.774s4.858 3.22 7.774 3.22h6.012c2.916 0 5.712-1.158 7.774-3.22s3.22-4.858 3.22-7.774c0-.002 0-.004 0-.006z" fill="#fbc546"/><g fill-rule="nonzero"><path d="m24.948 15.106c.494.247.694.847.447 1.34 0 .001-.001.002-.001.002-.247.494-.847.694-1.34.447-1.196-.598-3.305-1.652-4.501-2.251-.494-.247-.694-.847-.447-1.341s.847-.694 1.341-.447c1.197.598 3.305 1.652 4.501 2.25z"/><path d="m12.894 13.303c.247.494.047 1.094-.447 1.341-1.196.599-3.305 1.653-4.501 2.251-.493.247-1.093.047-1.34-.447 0 0 0 0 0-.001-.247-.494-.047-1.094.447-1.341l4.5-2.25c.494-.247 1.094-.047 1.341.447z"/><path d="m21.427 19.494.084.409-2.097 2.097 2.097 2.097-.084.409s-4.122 1.649-6.032 2.413c-.253.101-.535.098-.785-.009s-.447-.309-.548-.562c0 0 0 0 0-.001-.096-.24-.093-.508.009-.745.102-.238.294-.425.533-.521 1.32-.528 3.617-1.446 3.617-1.446l-1.635-1.635 1.635-1.635s-2.297-.918-3.617-1.446c-.239-.096-.431-.283-.533-.521-.102-.237-.105-.505-.009-.745 0-.001 0-.001 0-.001.101-.253.298-.455.548-.562s.532-.11.785-.009c1.91.764 6.032 2.413 6.032 2.413z" fill="#593604"/></g></g></svg>