<svg clip-rule="evenodd" fill-rule="evenodd" stroke-linecap="round" stroke-linejoin="round" stroke-miterlimit="1.5" viewBox="0 0 32 32" xmlns="http://www.w3.org/2000/svg" xmlns:xlink="http://www.w3.org/1999/xlink"><clipPath id="a"><path clip-rule="evenodd" d="m0 0h32v32h-32z"/></clipPath><path d="m0 0h32v32h-32z" fill="none"/><g clip-path="url(#a)"><path d="m16.686 5.001.199.004.199.006.199.009.197.011.198.014.196.016.196.019.195.021.194.023.194.026.193.029.192.03.192.033.191.035.189.038.19.04.188.042.187.045.187.047.185.048.185.052.184.053.183.056.181.058.181.06.18.062.179.064.178.066.177.069.176.07.174.073.174.075.172.076.172.079.17.081.169.083.168.084.167.087.165.089.165.09.163.093.162.094.16.096.159.098.158.1.157.102.155.104.155.105.152.107.151.109.15.111.149.113.147.114.146.116.144.117.143.12.141.121.14.122.139.125.137.126.135.127.134.129.132.131.131.132.129.134.127.135.126.137.125.139.122.14.121.141.12.143.117.144.116.146.114.147.113.149.111.149.109.152.107.153.105.154.104.155.102.157.1.158.098.159.096.161.094.161.093.163.09.165.089.165.087.167.084.168.083.169.081.17.079.172.076.172.075.174.073.174.07.176.069.177.066.178.064.179.062.18.06.181.058.181.056.183.053.184.052.185.048.185.047.187.045.187.042.188.04.189.037.19.036.191.033.192.03.192.029.193.025.194.024.194.021.195.019.196.016.197.014.197.011.197.009.199.006.199.004.199.001.194v.014l-.001.137-.002.142-.005.142-.006.142-.008.142-.01.142-.011.141-.013.141-.015.141-.017.14-.018.14-.02.14-.021.139-.024.139-.025.139-.027.138-.028.138-.03.137-.032.137-.033.136-.035.136-.037.136-.038.135-.04.134-.042.134-.043.133-.045.133-.046.132-.048.132-.05.131-.051.13-.053.13-.054.129-.056.128-.058.128-.059.127-.061.126-.062.126-.064.125-.065.124-.067.123-.068.123-.07.121-.071.121-.073.12-.074.119-.076.119-.077.117-.079.117-.08.116-.082.114-.083.114-.085.113-.086.112-.088.111-.089.11-.09.109-.092.108-.093.107-.095.106-.096.105-.098.103-.098.103-.101.101-.101.101-.103.099-.103.097-.105.096-.106.095-.107.093-.108.092-.109.09-.11.089-.111.088-.112.086-.113.084-.114.084-.114.082-.116.08-.117.079-.117.077-.119.076-.119.074-.12.073-.121.071-.122.07-.122.068-.123.067-.124.065-.125.064-.126.062-.126.061-.127.059-.128.058-.128.056-.129.054-.13.053-.13.051-.131.05-.132.048-.132.046-.133.045-.133.043-.134.042-.134.04-.135.038-.136.037-.136.035-.136.033-.137.032-.137.03-.138.028-.138.027-.139.025-.139.023-.139.022-.14.02-.14.018-.14.017-.141.015-.141.013-.141.011-.142.01-.142.008-.142.006-.142.005-.142.002-.137.001h-9.044l-.137-.001-.142-.002-.142-.005-.142-.006-.142-.008-.142-.01-.141-.011-.141-.013-.141-.015-.14-.017-.14-.018-.14-.02-.139-.022-.139-.023-.139-.025-.138-.027-.138-.028-.137-.03-.137-.032-.136-.033-.136-.035-.136-.037-.135-.038-.134-.04-.134-.042-.133-.043-.133-.045-.132-.046-.132-.048-.131-.05-.13-.051-.13-.053-.129-.054-.128-.056-.128-.058-.127-.059-.126-.061-.126-.062-.124-.064-.125-.065-.123-.067-.122-.068-.122-.07-.121-.071-.12-.073-.119-.074-.119-.076-.117-.077-.117-.079-.116-.08-.115-.082-.113-.083-.113-.085-.112-.086-.111-.088-.11-.089-.109-.09-.108-.092-.107-.093-.106-.095-.105-.096-.103-.097-.103-.099-.102-.101-.1-.101-.098-.103-.098-.103-.096-.105-.095-.106-.093-.107-.092-.108-.09-.109-.089-.11-.088-.111-.086-.112-.085-.113-.083-.114-.082-.114-.08-.116-.079-.117-.077-.117-.076-.119-.074-.119-.073-.12-.071-.121-.07-.121-.068-.123-.067-.123-.065-.124-.064-.125-.062-.126-.061-.126-.059-.127-.058-.128-.055-.128-.055-.129-.053-.13-.051-.13-.049-.131-.049-.132-.046-.132-.045-.133-.043-.133-.042-.134-.04-.134-.038-.135-.037-.136-.035-.136-.033-.136-.032-.137-.03-.137-.028-.138-.027-.138-.025-.139-.024-.139-.021-.139-.02-.14-.018-.14-.017-.14-.015-.141-.013-.141-.011-.141-.01-.142-.008-.142-.006-.142-.005-.142-.002-.142-.001-.137v-.014l.001-.194.004-.2.006-.198.009-.199.011-.197.014-.198.016-.196.019-.196.021-.195.023-.194.026-.194.029-.193.03-.192.033-.192.036-.191.037-.19.04-.189.042-.188.045-.187.047-.187.049-.185.051-.185.053-.184.056-.183.058-.181.06-.181.062-.18.064-.179.066-.178.069-.177.07-.176.073-.174.075-.174.076-.172.079-.172.081-.17.083-.169.084-.168.087-.167.089-.165.09-.165.093-.163.094-.161.096-.161.098-.159.1-.158.102-.157.104-.155.105-.154.107-.153.109-.152.111-.149.112-.149.115-.147.116-.146.117-.144.12-.143.121-.141.122-.14.125-.139.126-.137.127-.135.129-.134.131-.132.132-.131.134-.129.135-.127.137-.126.139-.125.14-.122.141-.121.143-.12.144-.117.146-.116.147-.114.149-.113.149-.111.152-.109.153-.107.154-.105.155-.104.157-.102.158-.1.159-.098.16-.096.162-.094.163-.093.165-.09.165-.089.167-.087.168-.084.169-.083.17-.081.172-.079.172-.076.174-.075.174-.073.176-.07.177-.069.178-.066.179-.064.18-.062.181-.06.181-.058.183-.056.184-.053.185-.052.185-.048.187-.047.187-.045.188-.042.189-.04.19-.038.191-.035.192-.033.192-.03.193-.029.194-.026.194-.023.195-.021.196-.019.196-.016.198-.014.197-.011.199-.009.199-.006.199-.004.194-.001h.984zm-1.166 3.999-.155.001-.149.003-.148.005-.148.006-.147.008-.147.011-.146.012-.146.014-.145.015-.144.018-.144.019-.143.021-.143.023-.142.024-.141.026-.141.028-.14.03-.139.031-.139.033-.138.034-.137.037-.137.038-.136.039-.136.041-.134.043-.134.045-.133.046-.133.047-.132.049-.131.051-.13.052-.129.054-.129.055-.128.057-.127.059-.126.059-.125.062-.124.063-.124.064-.123.066-.122.067-.121.068-.12.07-.119.072-.118.073-.118.074-.116.075-.115.077-.115.079-.113.079-.112.081-.112.082-.11.084-.11.085-.108.086-.107.087-.106.089-.105.09-.104.091-.103.093-.102.093-.101.095-.099.096-.099.097-.097.099-.096.099-.095.101-.093.102-.093.103-.091.104-.09.105-.088.106-.088.107-.086.108-.085.11-.084.11-.082.112-.081.112-.079.113-.079.115-.077.115-.075.117-.074.117-.073.118-.072.119-.07.12-.068.121-.067.122-.066.123-.064.123-.063.125-.062.125-.059.126-.059.127-.057.128-.055.129-.054.129-.052.13-.051.131-.049.132-.047.133-.046.133-.045.134-.043.134-.041.136-.039.136-.038.137-.037.137-.034.138-.033.139-.031.139-.03.14-.028.141-.026.141-.024.142-.023.143-.021.143-.019.144-.018.144-.015.145-.014.146-.012.146-.011.147-.008.147-.006.148-.005.148-.003.149-.001.15.001.094.001.093.003.092.004.093.005.093.007.092.007.092.009.092.009.091.011.092.012.091.013.091.014.091.015.09.017.091.017.09.019.09.019.089.021.089.022.089.023.089.024.088.024.088.027.088.027.087.028.087.029.086.03.086.032.086.032.086.033.085.035.084.035.084.037.084.037.083.039.083.039.082.041.082.041.081.043.081.043.081.045.079.045.08.047.078.047.079.049.077.049.077.05.077.052.076.052.075.053.075.055.075.055.073.056.073.057.072.058.072.059.071.06.07.06.07.062.069.063.068.063.068.065.067.065.066.066.065.067.065.068.063.068.063.069.062.07.06.07.06.071.059.072.058.072.057.073.056.074.055.074.055.074.053.076.052.076.052.076.05.078.049.077.049.079.047.078.047.08.045.08.045.08.043.081.043.081.041.082.041.082.039.083.039.083.037.084.037.084.035.085.035.084.033.086.032.086.032.086.03.086.029.087.028.087.027.088.027.088.025.088.023.089.023.089.022.089.021.089.019.09.019.09.017.091.017.09.015.091.014.091.013.091.012.092.011.091.009.092.009.092.007.092.007.093.005.092.004.093.003.093.001.099.001h9.02l.099-.001.093-.001.093-.003.092-.004.093-.005.092-.007.092-.007.092-.009.091-.009.092-.011.091-.012.091-.013.091-.014.09-.015.091-.017.09-.017.09-.019.089-.019.089-.021.089-.022.089-.023.088-.023.088-.025.088-.027.087-.027.087-.028.086-.029.086-.03.086-.032.085-.032.085-.033.085-.035.084-.035.084-.037.083-.037.083-.039.082-.039.082-.041.081-.041.081-.043.081-.043.079-.045.08-.045.078-.047.079-.047.077-.049.078-.049.076-.05.076-.052.076-.052.074-.053.074-.054.074-.056.073-.056.072-.057.072-.058.071-.059.07-.06.07-.06.069-.062.068-.063.068-.063.067-.065.066-.065.065-.066.065-.067.063-.068.063-.068.062-.069.06-.07.06-.07.059-.071.058-.072.057-.072.056-.073.055-.074.055-.074.053-.075.052-.075.052-.076.05-.076.049-.078.049-.077.047-.079.047-.078.045-.08.045-.079.043-.081.043-.081.041-.081.041-.082.039-.082.039-.083.037-.083.037-.084.035-.084.035-.085.033-.085.032-.085.032-.086.03-.086.029-.086.028-.087.027-.087.027-.088.025-.088.023-.088.023-.089.022-.089.021-.089.019-.089.019-.09.017-.09.017-.09.015-.091.014-.091.013-.091.012-.091.011-.091.009-.092.009-.092.007-.092.007-.092.005-.093.004-.092.003-.093.001-.093.001-.094-.001-.15-.003-.149-.005-.148-.006-.148-.008-.147-.011-.147-.012-.146-.014-.146-.015-.145-.018-.144-.019-.144-.021-.143-.023-.143-.024-.142-.026-.141-.028-.141-.03-.14-.031-.139-.033-.139-.034-.138-.037-.138-.038-.136-.039-.136-.041-.136-.043-.134-.045-.134-.046-.133-.047-.133-.049-.132-.051-.131-.052-.13-.054-.129-.055-.129-.057-.128-.059-.126-.059-.127-.062-.125-.063-.125-.064-.123-.066-.123-.067-.122-.068-.121-.07-.12-.072-.119-.073-.118-.074-.117-.075-.117-.077-.115-.079-.115-.079-.113-.081-.112-.082-.112-.084-.11-.085-.11-.086-.108-.088-.107-.088-.106-.09-.105-.091-.104-.093-.103-.093-.102-.095-.101-.096-.099-.097-.099-.099-.097-.099-.096-.101-.095-.102-.093-.103-.093-.104-.091-.105-.09-.106-.088-.107-.088-.108-.086-.11-.085-.11-.084-.112-.082-.112-.081-.113-.079-.115-.079-.115-.077-.117-.075-.117-.074-.118-.073-.119-.072-.12-.07-.121-.068-.122-.067-.123-.066-.124-.064-.124-.063-.125-.062-.126-.059-.127-.059-.128-.057-.129-.055-.129-.054-.13-.052-.131-.051-.132-.049-.133-.047-.133-.046-.134-.045-.134-.043-.136-.041-.136-.039-.137-.038-.137-.037-.138-.034-.139-.033-.139-.031-.14-.03-.141-.028-.141-.026-.142-.024-.143-.023-.143-.021-.144-.019-.144-.018-.145-.015-.146-.014-.146-.012-.147-.011-.147-.008-.148-.006-.148-.005-.149-.003-.155-.001h-.96z"/><path d="m30 20.514c0-7.464-6.05-13.514-13.514-13.514-.324 0-.648 0-.972 0-7.464 0-13.514 6.05-13.514 13.514v.002c0 2.515.999 4.928 2.778 6.706 1.778 1.779 4.191 2.778 6.706 2.778h9.032c2.515 0 4.928-.999 6.706-2.778 1.779-1.778 2.778-4.191 2.778-6.706 0-.001 0-.001 0-.002z" fill="#fbc546"/><path d="m24.947 17.106c.494.247.694.847.447 1.341v.001c-.247.494-.847.694-1.34.447-1.204-.602-3.332-1.666-4.524-2.262-.232-.116-.407-.318-.489-.563s-.063-.513.053-.744v-.001c.122-.243.335-.428.593-.514s.539-.066.783.056c1.199.6 3.289 1.644 4.477 2.239z" fill-rule="nonzero"/><path d="m12.894 15.303c.247.494.047 1.094-.447 1.341-1.196.599-3.305 1.653-4.501 2.251-.493.247-1.093.047-1.34-.447 0 0-.001-.001-.001-.002-.247-.493-.047-1.093.447-1.34 1.196-.598 3.306-1.653 4.502-2.251.493-.247 1.093-.047 1.34.447z" fill-rule="nonzero"/><path d="m9 26s.921-.921 1.879-1.879c1.358-1.358 3.2-2.121 5.121-2.121 1.921 0 3.763.763 5.121 2.121.958.958 1.879 1.879 1.879 1.879" fill="none" stroke="#593604" stroke-width="2"/></g></svg>