<svg clip-rule="evenodd" fill-rule="evenodd" stroke-linecap="round" stroke-linejoin="round" stroke-miterlimit="1.5" viewBox="0 0 32 32" xmlns="http://www.w3.org/2000/svg" xmlns:xlink="http://www.w3.org/1999/xlink"><clipPath id="a"><path clip-rule="evenodd" d="m0 0h32v32h-32z"/></clipPath><clipPath id="b"><path clip-rule="evenodd" d="m28 18c0-7.18-5.82-13-13-13-7.18 0-13 5.82-13 13v1.006c0 6.072 4.922 10.994 10.994 10.994h4.012c6.072 0 10.994-4.922 10.994-10.994 0-.334 0-.67 0-1.006z"/></clipPath><path d="m0 0h32v32h-32z" fill="none"/><g clip-path="url(#a)"><path d="m26.647.005.147.017.145.027.143.038.139.048.136.058.131.068.126.078.119.086.113.096.105.103.098.111.089.117.08.124.071.13 2.946 5.893.043.086.044.096.042.097.041.097.038.098.037.098.034.099.032.099.03.1.029.1.026.1.024.101.022.1.02.102.018.101.016.102.014.101.013.102.01.102.008.102.006.102.004.102.002.101.001.102-.002.102-.004.102-.005.101-.008.101-.009.101-.012.101-.013.101-.016.1-.017.1-.019.1-.021.099-.023.099-.025.098-.026.098-.029.098-.031.097-.032.096-.034.096-.037.096-.038.094-.04.095-.041.093-.044.093-.046.092-.047.091-.049.09-.051.09-.053.089-.055.088-.057.086-.058.086-.06.085-.062.084-.064.083-.065.082-.068.08-.069.08-.071.078-.072.077-.066.068-.016.015-.075.074-.083.078-.085.076-.086.074-.088.072-.089.07-.09.068-.092.066-.093.064-.057.038.012.041.054.19.051.192.049.192.047.194.044.194.041.196.039.196.036.197.034.198.031.199.029.2.025.2.024.201.02.202.018.203.015.204.013.204.01.205.006.205.005.206.001.2v1.019l-.001.161-.003.167-.005.167-.008.166-.009.166-.012.165-.013.164-.016.164-.018.164-.019.162-.022.163-.024.161-.025.161-.028.161-.029.16-.032.159-.033.158-.036.158-.037.157-.039.156-.041.155-.043.155-.045.154-.046.153-.049.153-.05.151-.052.151-.054.15-.056.149-.057.148-.059.147-.061.146-.062.146-.065.144-.066.144-.067.143-.07.141-.071.141-.072.139-.074.139-.076.138-.078.136-.079.136-.08.134-.083.134-.083.132-.086.131-.086.13-.089.13-.089.127-.092.127-.092.126-.095.124-.095.123-.097.122-.099.121-.1.12-.101.118-.103.117-.104.116-.105.115-.107.113-.108.112-.11.111-.111.11-.112.108-.113.107-.115.105-.116.104-.117.103-.118.101-.12.1-.121.099-.122.097-.123.095-.124.095-.126.092-.127.092-.128.089-.129.089-.13.086-.131.086-.132.083-.134.083-.134.08-.136.079-.136.078-.138.076-.139.074-.139.072-.141.071-.141.07-.143.067-.144.066-.144.065-.146.062-.146.061-.147.059-.148.057-.149.056-.15.054-.151.052-.151.05-.153.049-.153.046-.154.045-.155.043-.155.041-.156.039-.157.037-.158.036-.158.033-.159.032-.16.029-.161.028-.161.025-.161.024-.163.022-.162.019-.164.018-.164.016-.164.013-.165.012-.166.009-.166.008-.167.005-.167.003-.161.001h-4.024l-.161-.001-.167-.003-.167-.005-.166-.008-.166-.009-.165-.012-.164-.013-.164-.016-.164-.018-.162-.019-.163-.022-.161-.024-.161-.025-.161-.028-.16-.029-.159-.032-.158-.033-.158-.036-.157-.037-.156-.039-.155-.041-.155-.043-.154-.045-.153-.046-.153-.049-.151-.05-.151-.052-.15-.054-.149-.056-.148-.057-.147-.059-.146-.061-.146-.062-.144-.065-.144-.066-.143-.067-.141-.07-.141-.071-.139-.072-.139-.074-.138-.076-.136-.078-.136-.079-.134-.08-.134-.083-.132-.083-.131-.086-.13-.086-.129-.089-.128-.089-.127-.092-.126-.092-.124-.095-.123-.095-.122-.097-.121-.099-.12-.1-.118-.101-.117-.103-.116-.104-.115-.105-.113-.107-.112-.108-.111-.11-.11-.111-.108-.112-.107-.113-.105-.115-.104-.116-.103-.117-.101-.118-.1-.12-.099-.121-.097-.122-.095-.123-.095-.124-.092-.126-.092-.127-.089-.128-.089-.129-.086-.13-.086-.131-.083-.132-.083-.134-.08-.134-.079-.136-.078-.136-.076-.138-.074-.139-.072-.139-.071-.141-.07-.141-.067-.143-.066-.144-.065-.144-.062-.146-.061-.146-.059-.147-.057-.148-.056-.149-.054-.15-.052-.151-.05-.151-.049-.153-.046-.153-.045-.154-.043-.155-.041-.155-.039-.156-.037-.157-.036-.158-.033-.158-.032-.159-.029-.16-.028-.161-.025-.161-.024-.161-.022-.163-.019-.162-.018-.164-.016-.164-.013-.164-.012-.165-.009-.166-.008-.166-.005-.167-.003-.167-.001-.161v-1.018l.001-.187.004-.193.006-.192.008-.192.011-.191.014-.191.015-.19.018-.189.021-.189.022-.188.025-.187.028-.187.029-.186.032-.185.034-.184.037-.184.038-.183.041-.182.043-.181.045-.18.048-.18.049-.178.052-.178.054-.177.056-.176.058-.175.06-.174.062-.172.064-.172.066-.171.068-.17.071-.169.072-.168.074-.167.076-.166.078-.164.08-.164.082-.162.084-.161.086-.16.087-.159.09-.158.091-.156.093-.156.095-.154.096-.152.099-.152.1-.15.102-.149.104-.148.105-.146.107-.145.109-.144.11-.142.112-.141.114-.139.115-.138.117-.137.119-.135.12-.134.122-.132.123-.131.125-.13.126-.128.128-.126.13-.125.131-.123.132-.122.134-.12.135-.119.137-.117.138-.115.139-.114.141-.112.142-.11.144-.109.145-.107.146-.105.148-.104.149-.102.15-.1.152-.099.152-.096.154-.095.156-.093.156-.091.158-.09.159-.087.16-.086.161-.084.162-.082.164-.08.164-.078.166-.076.167-.074.168-.072.169-.071.17-.068.171-.066.171-.064.173-.062.174-.06.175-.058.176-.056.177-.054.178-.052.178-.049.18-.048.18-.045.181-.043.182-.041.183-.038.184-.037.184-.034.185-.032.186-.029.187-.028.187-.025.188-.022.189-.021.189-.018.19-.015.191-.014.191-.011.191-.008.193-.006.193-.004.187-.001h.012l.168.001.173.003.173.005.173.007.172.009.171.01.171.013.171.015.17.016.17.018.169.021.168.022.168.024.167.026.167.027.166.03.166.031.164.033.165.035.163.037.163.039.162.04.162.042.161.044.16.045.159.047.159.049.158.051.157.052.156.054.156.056.154.057.154.059.153.061.153.062.151.064.151.065.149.067.149.069.148.07.147.072.146.073.145.075.145.076.143.078.142.08.142.08.14.083.055.033 2.01-4.02.071-.13.08-.124.089-.117.098-.111.105-.103.113-.096.119-.086.126-.078.131-.068.136-.058.139-.048.143-.038.145-.027.147-.017.147-.005.147.005zm-3.089 7.879-.029.059-.027.059-.026.059-.025.06-.107-.09-.108-.09-.109-.088-.11-.087-.111-.087-.112-.084-.113-.084-.113-.083-.115-.081-.116-.08-.116-.079-.117-.077-.119-.077-.119-.075-.12-.074-.121-.072-.121-.072-.123-.07-.123-.068-.124-.068-.125-.066-.126-.065-.127-.063-.127-.062-.128-.061-.129-.06-.13-.058-.13-.056-.131-.056-.132-.054-.133-.052-.133-.051-.134-.05-.135-.048-.135-.047-.136-.045-.137-.044-.137-.042-.138-.041-.138-.039-.14-.038-.14-.037-.14-.035-.141-.033-.142-.032-.142-.03-.143-.029-.143-.027-.144-.026-.144-.024-.145-.022-.146-.021-.146-.019-.146-.017-.147-.016-.148-.015-.148-.012-.148-.011-.149-.01-.149-.007-.15-.006-.15-.005-.151-.002-.151-.001-.168.001-.168.003-.167.006-.166.007-.166.009-.165.012-.165.013-.164.016-.164.018-.163.019-.162.022-.162.024-.161.025-.16.028-.16.03-.159.031-.158.034-.158.035-.157.037-.156.039-.155.041-.155.043-.154.045-.153.046-.152.049-.151.05-.151.052-.15.054-.149.055-.148.058-.147.059-.146.061-.146.062-.144.064-.143.066-.143.068-.142.069-.14.071-.14.073-.139.074-.137.076-.137.077-.135.079-.135.081-.133.082-.133.084-.131.085-.13.087-.13.089-.128.089-.126.092-.126.093-.125.094-.123.096-.122.097-.121.099-.12.1-.119.101-.117.103-.116.104-.115.106-.113.107-.112.108-.111.11-.11.111-.108.112-.107.113-.106.115-.104.116-.103.117-.101.119-.1.12-.099.121-.097.122-.096.123-.094.125-.093.126-.092.126-.089.128-.089.13-.087.13-.085.131-.084.133-.082.133-.081.135-.079.135-.077.137-.076.137-.074.139-.073.14-.071.14-.069.142-.068.143-.066.143-.064.144-.062.146-.061.146-.059.147-.058.148-.055.149-.054.15-.052.151-.05.151-.049.152-.046.153-.045.154-.043.155-.041.155-.039.156-.037.157-.035.158-.034.158-.031.159-.03.16-.028.16-.025.161-.024.162-.022.162-.019.163-.018.164-.016.164-.013.165-.012.165-.009.166-.007.166-.006.167-.003.168-.001.168v1.006l.001.142.003.142.004.141.006.141.008.14.01.14.012.139.013.139.015.138.016.138.019.138.02.136.021.136.024.136.025.135.026.135.029.134.03.133.031.133.033.132.035.131.036.131.038.13.039.129.041.129.043.128.044.127.045.127.047.126.049.125.05.125.051.123.053.123.054.122.056.122.057.12.059.12.06.119.061.118.063.117.064.117.066.115.066.115.069.114.069.113.071.112.072.111.074.11.074.109.076.108.078.108.078.106.08.105.081.105.082.103.083.102.085.102.086.1.087.099.088.098.089.097.091.096.091.095.093.094.094.093.095.091.096.091.097.089.098.088.099.087.101.086.101.085.102.083.103.082.105.081.105.08.106.078.108.078.108.076.109.074.11.074.111.072.112.071.113.069.114.069.115.066.115.066.117.064.117.063.118.061.119.06.12.059.12.057.122.056.122.054.123.053.123.051.125.05.125.049.126.047.127.045.127.044.128.043.129.041.129.039.13.038.131.036.131.035.132.033.133.031.133.03.134.029.135.026.135.025.136.024.136.021.136.02.138.019.138.016.138.015.139.013.139.012.14.01.14.008.141.006.141.004.142.003.142.001h4.012l.142-.001.142-.003.141-.004.141-.006.14-.008.14-.01.139-.012.139-.013.138-.015.138-.016.138-.019.136-.02.136-.021.136-.024.135-.025.135-.026.134-.029.133-.03.133-.031.132-.033.131-.035.131-.036.13-.038.129-.039.129-.041.128-.043.127-.044.127-.045.126-.047.125-.049.125-.05.123-.051.123-.053.122-.054.122-.056.12-.057.12-.059.119-.06.118-.061.117-.063.117-.064.115-.066.115-.066.114-.069.113-.069.112-.071.111-.072.11-.074.109-.074.108-.076.108-.078.106-.078.105-.08.105-.081.103-.082.102-.083.101-.085.101-.086.099-.087.098-.088.097-.089.096-.091.095-.091.094-.093.093-.094.091-.095.091-.096.089-.097.088-.098.087-.099.086-.1.085-.102.083-.102.082-.103.081-.105.08-.105.078-.106.078-.108.076-.108.074-.109.074-.11.072-.111.071-.112.069-.113.069-.114.066-.115.066-.115.064-.117.063-.117.061-.118.06-.119.059-.12.057-.12.056-.122.054-.122.053-.123.051-.123.05-.125.049-.125.047-.126.045-.127.044-.127.043-.128.041-.129.039-.129.038-.13.036-.131.035-.131.033-.132.031-.133.03-.133.029-.134.026-.135.025-.135.024-.136.021-.136.02-.136.019-.138.016-.138.015-.138.013-.139.012-.139.01-.14.008-.14.006-.141.004-.141.003-.142.001-.142v-1.006l-.001-.18-.004-.179-.006-.178-.008-.178-.011-.177-.013-.177-.016-.175-.018-.176-.02-.174-.022-.174-.025-.173-.027-.172-.029-.172-.032-.171-.033-.17-.036-.169-.038-.168-.04-.168-.043-.166-.044-.166-.047-.165-.049-.164-.051-.163-.053-.163-.055-.161-.057-.16-.059-.16-.061-.158-.063-.157-.065-.157-.067-.155-.069-.154.07-.008.07-.01.069-.011.069-.012.069-.014.068-.015.068-.017.068-.018.067-.02.067-.021.066-.022.065-.024.066-.025.064-.027.064-.028.063-.029.063-.031.062-.032.062-.033.061-.034.06-.036.059-.038.059-.038.057-.04.057-.041.057-.042.055-.044.055-.045.053-.046.053-.047.052-.049.05-.049.001-.001.047-.048.045-.047.044-.049.043-.05.042-.05.04-.051.04-.051.038-.052.038-.053.036-.053.035-.054.034-.055.033-.055.032-.055.03-.056.03-.057.028-.057.027-.058.026-.058.025-.058.023-.059.023-.059.021-.06.02-.06.019-.06.018-.061.017-.061.015-.061.015-.061.013-.062.012-.062.01-.062.01-.063.008-.062.007-.063.006-.063.005-.063.003-.063.003-.063.001-.063-.001-.063-.001-.064-.003-.063-.003-.063-.005-.064-.007-.063-.007-.063-.009-.063-.01-.063-.011-.063-.013-.063-.013-.063-.015-.062-.017-.062-.017-.062-.019-.062-.02-.062-.021-.061-.023-.061-.024-.061-.025-.06-.026-.061-.028-.059-.029-.06-2.942-5.884-2.942 5.884z"/><path d="m28 18c0-7.18-5.82-13-13-13-7.18 0-13 5.82-13 13v1.006c0 6.072 4.922 10.994 10.994 10.994h4.012c6.072 0 10.994-4.922 10.994-10.994 0-.334 0-.67 0-1.006z" fill="#fbc546"/><g clip-path="url(#b)"><path d="m27.236-1 3.999 7.999.043.086.044.096.042.097.041.097.038.098.037.098.034.099.032.099.03.1.029.1.026.1.024.101.022.101.02.101.018.101.016.102.014.101.013.102.01.102.008.102.006.102.004.102.002.101.001.102-.002.102-.004.102-.005.101-.008.101-.009.101-.012.101-.013.101-.016.1-.017.1-.019.1-.021.099-.023.099-.025.098-.026.098-.029.098-.031.097-.032.096-.034.096-.037.096-.038.094-.04.095-.041.093-.044.093-.046.092-.047.091-.049.09-.051.09-.053.089-.055.088-.056.086-.059.086-.06.085-.062.084-.064.083-.065.082-.068.08-.069.08-.071.078-.072.077-.067.069-.017.017-.085.083-.096.089-.098.086-.1.084-.102.082-.104.078-.105.076-.107.074-.109.07-.11.068-.112.065-.113.062-.115.06-.116.056-.117.054-.119.051-.119.048-.121.045-.122.042-.123.039-.124.036-.125.033-.126.03-.127.027-.128.024-.128.02-.129.018-.129.015-.13.011-.131.008-.131.005-.131.001-.131-.001-.131-.005-.131-.008-.13-.011-.129-.015-.129-.018-.128-.02-.128-.024-.127-.027-.126-.03-.125-.033-.124-.036-.123-.039-.122-.042-.121-.045-.119-.048-.119-.051-.117-.054-.116-.056-.115-.06-.113-.062-.112-.065-.11-.068-.109-.07-.107-.074-.105-.076-.104-.078-.102-.082-.1-.084-.098-.086-.096-.089-.085-.083-.017-.017-.067-.069-.072-.077-.071-.078-.069-.08-.068-.08-.065-.082-.064-.083-.062-.084-.06-.085-.059-.086-.056-.086-.055-.088-.053-.089-.051-.09-.049-.09-.047-.091-.046-.092-.044-.093-.041-.093-.04-.095-.038-.094-.037-.096-.034-.096-.032-.096-.031-.097-.029-.098-.026-.098-.025-.098-.023-.099-.021-.099-.019-.1-.017-.1-.016-.1-.013-.101-.012-.101-.009-.101-.008-.101-.005-.101-.004-.102-.002-.102.001-.102.002-.101.004-.102.006-.102.008-.102.01-.102.013-.102.014-.101.016-.102.018-.101.02-.101.022-.101.024-.101.026-.1.029-.1.03-.1.032-.099.034-.099.037-.098.038-.098.041-.097.042-.097.044-.096.043-.086 3.999-7.999h1.472zm-1.885 9.77-.016.032-.011.024-.01.023-.01.024-.009.024-.009.024-.008.024-.008.024-.007.024-.007.024-.006.024-.006.024-.006.025-.004.024-.005.024-.004.025-.003.025-.003.024-.002.025-.002.024-.002.025-.001.025v.025l-.001.024.001.025.001.025.001.024.002.025.002.025.003.024.003.025.004.024.004.025.005.024.005.024.006.024.006.024.006.024.007.024.008.023.007.024.009.023.009.023.009.023.009.023.011.023.01.022.011.022.012.022.011.022.013.022.013.021.013.021.013.021.014.021.015.021.015.02.015.02.016.02.017.019.017.02.017.019.018.019.017.017.025.025.023.021.024.022.025.02.024.02.026.019.025.019.026.017.027.018.027.016.027.016.028.015.028.015.028.013.029.014.028.012.03.012.029.011.03.01.03.009.03.009.031.008.03.008.031.006.031.006.032.005.031.004.031.004.032.003.032.001.032.002h.032.032l.032-.002.032-.001.032-.003.031-.004.031-.004.032-.005.031-.006.031-.006.03-.008.031-.008.03-.009.03-.009.03-.01.029-.011.03-.012.028-.012.029-.014.028-.013.028-.015.028-.015.027-.016.027-.016.027-.018.026-.017.025-.019.026-.019.024-.02.025-.02.024-.022.023-.021.025-.025.017-.017.018-.019.017-.019.017-.02.017-.019.016-.02.015-.02.015-.02.015-.021.014-.021.013-.021.013-.021.013-.021.013-.022.011-.022.012-.022.011-.022.01-.022.011-.023.009-.023.009-.023.009-.023.009-.023.007-.024.008-.023.007-.024.006-.024.006-.024.006-.024.005-.024.005-.024.004-.025.004-.024.003-.025.003-.024.002-.025.002-.025.001-.024.001-.025.001-.025-.001-.024v-.025l-.001-.025-.002-.025-.002-.024-.002-.025-.003-.025-.003-.024-.004-.025-.005-.024-.004-.024-.006-.025-.006-.024-.006-.024-.007-.024-.007-.024-.008-.024-.008-.024-.009-.024-.009-.024-.01-.024-.01-.023-.011-.024-.016-.032-1.149-2.298z" fill="#e59a10"/></g><path d="m26.5 2s-1.757 3.514-2.942 5.884c-.632 1.264-.384 2.79.615 3.789 0 0 0 0 .001.001.617.617 1.453.963 2.326.963s1.709-.346 2.326-.963c.001-.001.001-.001.001-.001.999-.999 1.247-2.525.615-3.789-1.185-2.37-2.942-5.884-2.942-5.884z" fill="#fff"/><path d="m23.555 13.002.044.003.044.005.044.008.043.009.043.011.042.013.042.015.041.017.04.018.039.02.039.022.037.024.037.025.035.027.034.029.032.029.032.032.029.032.029.034.027.035.025.037.024.037.022.039.02.039.018.04.017.041.015.042.013.042.011.043.009.043.008.044.005.044.003.044.002.044-.001.044-.002.044-.004.044-.007.044-.008.044-.01.043-.012.042-.014.042-.016.042-.018.04-.019.04-.021.039-.023.038-.024.037-.027.035-.027.035-.029.033-.031.032-3.207 3.207-3.207-3.207-.031-.032-.029-.033-.027-.035-.027-.035-.024-.037-.023-.038-.021-.039-.019-.04-.018-.04-.016-.042-.014-.042-.012-.042-.01-.043-.008-.044-.007-.044-.004-.044-.002-.044-.001-.044.002-.044.003-.044.005-.044.008-.044.009-.043.011-.043.013-.042.015-.042.017-.041.018-.04.02-.039.022-.039.024-.037.025-.037.027-.035.029-.034.029-.032.032-.032.032-.029.034-.029.035-.027.037-.025.037-.024.039-.022.039-.02.04-.018.041-.017.042-.015.042-.013.043-.011.043-.009.044-.008.044-.005.044-.003.044-.002.044.001.044.002.044.004.044.007.044.008.043.01.042.012.042.014.042.016.04.018.04.019.039.021.038.023.037.024.035.027.035.027.033.029.032.031 1.793 1.793 1.793-1.793.032-.031.033-.029.035-.027.035-.027.037-.024.038-.023.039-.021.04-.019.04-.018.042-.016.042-.014.042-.012.043-.01.044-.008.044-.007.044-.004.044-.002.044-.001z"/><path d="m11.555 13.002.044.003.044.005.044.008.043.009.043.011.042.013.042.015.041.017.04.018.039.02.039.022.037.024.037.025.035.027.034.029.032.029.032.032.029.032.029.034.027.035.025.037.024.037.022.039.02.039.018.04.017.041.015.042.013.042.011.043.009.043.008.044.005.044.003.044.002.044-.001.044-.002.044-.004.044-.007.044-.008.044-.01.043-.012.042-.014.042-.016.042-.018.04-.019.04-.021.039-.023.038-.024.037-.027.035-.027.035-.029.033-.031.032-3.207 3.207-3.207-3.207-.031-.032-.029-.033-.027-.035-.027-.035-.024-.037-.023-.038-.021-.039-.019-.04-.018-.04-.016-.042-.014-.042-.012-.042-.01-.043-.008-.044-.007-.044-.004-.044-.002-.044-.001-.044.002-.044.003-.044.005-.044.008-.044.009-.043.011-.043.013-.042.015-.042.017-.041.018-.04.02-.039.022-.039.024-.037.025-.037.027-.035.029-.034.029-.032.032-.032.032-.029.034-.029.035-.027.037-.025.037-.024.039-.022.039-.02.04-.018.041-.017.042-.015.042-.013.043-.011.043-.009.044-.008.044-.005.044-.003.044-.002.044.001.044.002.044.004.044.007.044.008.043.01.042.012.042.014.042.016.04.018.04.019.039.021.038.023.037.024.035.027.035.027.033.029.032.031 1.793 1.793 1.793-1.793.032-.031.033-.029.035-.027.035-.027.037-.024.038-.023.039-.021.04-.019.04-.018.042-.016.042-.014.042-.012.043-.01.044-.008.044-.007.044-.004.044-.002.044-.001z"/><path d="m10 23s.136-.204.336-.505c1.04-1.559 2.789-2.495 4.663-2.495h.002c1.874 0 3.623.936 4.663 2.495.2.301.336.505.336.505" fill="none" stroke="#593604" stroke-width="2"/></g></svg>