<svg clip-rule="evenodd" fill-rule="evenodd" stroke-linecap="round" stroke-linejoin="round" stroke-miterlimit="1.5" viewBox="0 0 32 32" xmlns="http://www.w3.org/2000/svg" xmlns:xlink="http://www.w3.org/1999/xlink"><clipPath id="a"><path clip-rule="evenodd" d="m0 0h32v32h-32z"/></clipPath><path d="m0 0h32v32h-32z" fill="none"/><g clip-path="url(#a)"><path d="m16.206 3.001.206.004.205.007.205.009.204.011.203.015.203.016.201.019.202.022.2.024.2.027.199.029.198.032.198.034.197.036.195.039.195.041.195.044.193.046.192.048.192.05.19.053.19.055.188.058.188.059.186.062.186.064.184.066.184.069.182.07.181.073.181.075.179.077.177.079.177.082.176.083.174.085.173.087.172.09.171.091.169.094.169.095.166.097.166.1.164.101.163.103.162.105.16.107.159.108.158.111.156.112.154.115.153.116.152.117.151.12.148.121.148.123.145.125.145.127.143.128.141.13.139.131.138.133.137.135.135.137.133.138.131.139.13.141.128.143.127.145.125.145.123.148.121.148.119.151.118.152.116.153.115.154.112.156.111.158.108.159.107.16.105.162.103.163.101.164.1.166.097.166.095.169.094.169.091.171.089.172.088.173.085.174.083.176.082.177.079.177.077.179.075.181.072.181.071.182.069.184.066.184.064.186.062.186.059.188.058.188.055.19.053.19.05.192.048.192.046.193.044.195.041.195.039.195.036.197.034.198.032.198.029.199.027.2.024.2.022.202.019.201.016.203.015.203.011.204.009.205.007.205.004.206.001.2v.514l-.001.155-.003.161-.005.16-.007.159-.009.16-.011.159-.013.158-.015.157-.017.158-.019.156-.021.156-.023.156-.025.155-.026.154-.029.154-.03.153-.032.152-.034.152-.036.151-.038.15-.039.149-.041.149-.043.148-.045.148-.047.146-.048.146-.05.145-.052.144-.053.144-.056.142-.056.142-.059.14-.06.14-.062.139-.063.138-.065.137-.067.137-.068.135-.07.134-.072.134-.073.132-.074.132-.076.13-.078.129-.079.128-.08.128-.082.126-.084.125-.084.124-.087.123-.088.122-.089.121-.091.12-.092.118-.093.118-.095.116-.096.115-.097.114-.099.112-.1.112-.102.11-.102.109-.104.108-.106.106-.106.106-.108.104-.109.102-.11.102-.112.1-.112.099-.114.097-.115.096-.116.095-.118.094-.118.091-.12.091-.121.089-.122.088-.123.086-.124.085-.125.084-.126.082-.128.08-.128.079-.129.078-.131.076-.131.074-.132.073-.134.072-.134.07-.135.068-.137.067-.137.065-.138.063-.139.062-.14.06-.14.059-.142.056-.142.056-.144.053-.144.052-.145.05-.146.048-.146.047-.148.045-.148.043-.148.041-.15.039-.15.038-.151.036-.152.034-.152.032-.153.03-.154.029-.154.026-.155.025-.156.023-.156.021-.156.019-.158.017-.157.015-.159.013-.158.011-.159.009-.16.007-.16.005-.161.003-.155.001h-7.016l-.155-.001-.161-.003-.16-.005-.16-.007-.159-.009-.158-.011-.159-.013-.157-.015-.158-.017-.156-.019-.156-.021-.156-.023-.155-.025-.154-.026-.154-.029-.153-.03-.152-.032-.152-.034-.151-.036-.15-.038-.15-.039-.148-.041-.148-.043-.148-.045-.146-.047-.146-.048-.145-.05-.144-.052-.144-.053-.142-.056-.142-.056-.14-.059-.14-.06-.139-.062-.138-.063-.137-.065-.137-.067-.135-.068-.134-.07-.134-.072-.132-.073-.131-.074-.131-.076-.129-.078-.128-.079-.128-.08-.126-.082-.125-.084-.124-.085-.123-.086-.122-.088-.121-.089-.12-.091-.118-.092-.118-.093-.116-.095-.115-.096-.114-.097-.112-.099-.112-.1-.11-.102-.109-.102-.108-.104-.106-.106-.106-.106-.104-.108-.102-.109-.102-.11-.1-.112-.099-.112-.097-.114-.096-.115-.095-.116-.094-.118-.091-.118-.091-.12-.089-.121-.088-.122-.086-.123-.085-.124-.084-.125-.082-.126-.08-.128-.079-.128-.078-.129-.076-.131-.074-.131-.073-.132-.072-.134-.07-.134-.068-.135-.067-.137-.065-.137-.063-.138-.062-.139-.06-.14-.059-.14-.056-.142-.056-.142-.053-.144-.052-.144-.05-.145-.048-.146-.047-.146-.045-.148-.043-.148-.041-.148-.039-.15-.038-.15-.036-.151-.034-.152-.032-.152-.03-.153-.029-.154-.026-.154-.025-.155-.023-.156-.021-.156-.019-.156-.017-.158-.015-.157-.013-.159-.011-.158-.009-.16-.007-.159-.005-.16-.003-.161-.001-.155v-.514l.001-.2.004-.206.007-.205.009-.205.011-.204.015-.203.016-.203.019-.201.022-.202.024-.2.027-.2.029-.199.032-.198.034-.198.036-.197.039-.195.041-.195.044-.195.046-.193.048-.192.05-.192.053-.19.055-.19.058-.188.059-.188.062-.186.064-.186.066-.184.069-.184.07-.182.073-.181.075-.181.077-.179.079-.177.081-.177.084-.176.085-.174.087-.173.09-.172.091-.171.094-.169.095-.169.097-.166.1-.166.101-.164.103-.163.105-.162.107-.16.108-.159.111-.158.112-.156.115-.154.116-.153.117-.152.12-.151.121-.148.123-.148.125-.145.127-.145.128-.143.13-.141.131-.139.133-.138.135-.137.137-.135.138-.133.139-.131.141-.13.143-.128.145-.127.145-.125.148-.123.148-.121.151-.12.152-.117.153-.116.154-.115.157-.112.157-.111.159-.108.16-.107.162-.105.163-.103.164-.101.166-.1.166-.097.169-.095.169-.094.171-.091.172-.09.173-.087.174-.085.176-.083.177-.082.177-.079.179-.077.181-.075.181-.073.182-.07.184-.069.184-.066.186-.064.186-.062.188-.059.188-.058.19-.055.19-.053.192-.05.192-.048.193-.046.195-.044.195-.041.195-.039.197-.036.198-.034.198-.032.199-.029.2-.027.2-.024.202-.022.201-.019.203-.016.203-.015.204-.011.205-.009.205-.007.206-.004.2-.001h.012l.2.001zm-.362 4-.155.003-.154.005-.154.007-.154.008-.152.011-.153.013-.151.014-.151.016-.151.019-.15.02-.149.021-.149.024-.148.026-.147.027-.147.029-.146.031-.145.032-.145.035-.143.036-.144.038-.142.039-.142.041-.141.043-.141.045-.139.046-.139.048-.138.05-.137.051-.137.053-.135.054-.135.056-.134.058-.134.059-.132.061-.131.062-.131.064-.13.066-.129.067-.128.068-.127.07-.126.072-.125.073-.124.074-.123.076-.122.077-.122.079-.12.08-.119.082-.118.083-.117.084-.117.086-.115.087-.114.089-.112.089-.112.091-.111.093-.109.094-.109.095-.107.096-.106.098-.105.098-.104.1-.102.102-.102.102-.1.104-.098.105-.098.106-.096.107-.095.109-.094.109-.093.111-.091.112-.089.112-.089.114-.087.115-.086.117-.084.117-.083.118-.082.119-.08.12-.079.122-.077.122-.076.123-.074.124-.073.125-.072.126-.07.127-.068.128-.067.129-.066.13-.064.131-.062.131-.061.132-.059.134-.058.134-.056.135-.054.135-.053.137-.051.137-.05.138-.048.139-.046.139-.045.141-.043.141-.041.142-.039.142-.038.144-.036.143-.035.145-.032.145-.031.146-.029.147-.027.147-.026.148-.024.149-.021.149-.02.15-.019.151-.016.151-.014.151-.013.153-.011.152-.008.154-.007.154-.005.154-.003.155-.001.162v.49l.001.116.002.11.003.11.005.109.006.109.008.108.009.108.01.107.012.107.012.107.015.106.015.106.017.105.018.105.019.104.021.104.022.103.023.103.024.102.025.102.027.102.028.101.029.1.031.1.031.099.033.099.034.098.035.098.036.097.038.097.038.096.04.095.041.095.042.094.043.094.044.093.045.093.047.091.047.092.049.09.049.09.051.089.051.089.053.088.054.087.055.087.055.086.057.085.058.084.059.084.06.083.06.082.062.082.063.081.063.079.065.08.065.078.067.078.067.076.068.076.069.076.07.074.071.073.072.073.073.072.073.071.074.07.076.069.076.068.076.067.078.067.078.065.08.065.079.063.081.063.082.062.082.06.083.06.084.059.084.058.085.057.086.055.087.055.087.054.088.053.088.051.09.051.09.049.09.049.092.047.091.047.093.045.093.044.094.043.094.042.095.041.095.04.096.038.097.038.097.036.098.035.098.034.099.033.099.031.1.031.1.029.101.028.102.027.102.025.102.024.103.023.103.022.104.021.104.019.105.018.105.017.106.015.106.015.107.012.107.012.107.01.108.009.108.008.109.006.109.005.11.003.11.002.116.001h6.992l.116-.001.11-.002.11-.003.109-.005.109-.006.108-.008.108-.009.107-.01.107-.012.107-.012.106-.015.106-.015.105-.017.105-.018.104-.019.104-.021.103-.022.103-.023.102-.024.102-.025.102-.027.101-.028.1-.029.1-.031.099-.031.099-.033.098-.034.098-.035.097-.036.097-.038.096-.038.095-.04.095-.041.094-.042.094-.043.093-.044.093-.045.091-.047.092-.047.09-.049.09-.049.09-.051.088-.051.088-.053.087-.054.087-.055.086-.055.085-.057.084-.058.084-.059.083-.06.082-.06.082-.062.081-.063.079-.063.08-.065.078-.065.078-.067.076-.067.076-.068.076-.069.074-.07.073-.071.073-.072.072-.073.071-.073.07-.075.069-.074.068-.076.067-.077.067-.078.065-.078.065-.08.063-.079.063-.081.062-.082.061-.082.059-.083.059-.084.058-.084.057-.085.055-.086.055-.087.054-.087.053-.088.051-.089.051-.089.049-.09.049-.09.047-.092.047-.091.045-.093.044-.093.043-.094.042-.094.041-.095.04-.095.038-.096.038-.097.036-.097.035-.098.034-.098.033-.099.031-.099.031-.1.029-.1.028-.101.027-.102.025-.102.024-.102.023-.103.022-.103.021-.104.019-.104.018-.105.017-.105.015-.106.015-.106.012-.107.012-.107.01-.107.009-.108.008-.108.006-.109.005-.109.003-.11.002-.11.001-.116v-.49l-.001-.162-.003-.155-.005-.154-.007-.154-.008-.154-.011-.152-.013-.153-.014-.151-.016-.151-.019-.151-.02-.15-.021-.149-.024-.149-.026-.148-.027-.147-.029-.147-.031-.146-.032-.145-.035-.144-.036-.144-.038-.144-.039-.142-.041-.142-.043-.141-.045-.141-.046-.139-.048-.139-.05-.138-.051-.137-.053-.137-.054-.135-.056-.135-.058-.134-.059-.134-.061-.132-.062-.131-.064-.131-.066-.13-.067-.129-.068-.128-.07-.126-.072-.127-.073-.125-.074-.124-.076-.123-.077-.122-.079-.122-.08-.12-.082-.119-.083-.118-.084-.118-.086-.116-.087-.115-.089-.114-.089-.112-.091-.112-.093-.111-.094-.11-.095-.108-.096-.107-.098-.106-.098-.105-.1-.104-.102-.102-.102-.102-.104-.1-.105-.098-.106-.098-.107-.096-.109-.095-.109-.094-.111-.092-.112-.092-.112-.089-.114-.089-.115-.087-.117-.086-.117-.084-.118-.083-.119-.082-.12-.08-.122-.079-.122-.077-.123-.076-.124-.074-.125-.073-.126-.072-.127-.07-.128-.068-.129-.067-.13-.066-.131-.064-.131-.062-.132-.061-.134-.059-.134-.058-.135-.056-.135-.054-.137-.053-.137-.051-.138-.05-.139-.048-.139-.046-.141-.045-.141-.043-.142-.041-.142-.039-.144-.038-.143-.036-.145-.035-.145-.032-.146-.031-.147-.029-.147-.027-.148-.026-.149-.024-.149-.021-.15-.02-.151-.019-.151-.016-.151-.014-.153-.013-.152-.011-.154-.008-.154-.007-.154-.005-.155-.003-.156-.001-.156.001z"/><path d="m30 19c0-7.732-6.268-14-14-14-7.732 0-14 6.268-14 14v.502c0 5.798 4.7 10.498 10.498 10.498h7.004c5.798 0 10.498-4.7 10.498-10.498 0-.167 0-.334 0-.502z" fill="#fbc546"/><path d="m11.5 12c0-.265-.105-.52-.293-.707-.187-.188-.442-.293-.707-.293l-3 3v1c0 .53.211 1.039.586 1.414s.884.586 1.414.586c1.105 0 2-.895 2-2 0-1.007 0-2.185 0-3z"/><path d="m24.5 14-3-3s0 0-.001 0c-.552 0-.999.447-.999.999v3.003c0 1.103.895 1.998 1.998 1.998h.004c1.103 0 1.998-.895 1.998-1.998 0-.552 0-1.002 0-1.002z"/><path d="m9 23s.921-.921 1.879-1.879c1.358-1.358 3.2-2.121 5.121-2.121 1.921 0 3.763.763 5.121 2.121.958.958 1.879 1.879 1.879 1.879" fill="none" stroke="#593604" stroke-width="2"/></g></svg>