<svg clip-rule="evenodd" fill-rule="evenodd" stroke-linecap="round" stroke-miterlimit="1.5" viewBox="0 0 32 32" xmlns="http://www.w3.org/2000/svg" xmlns:xlink="http://www.w3.org/1999/xlink"><clipPath id="a"><path clip-rule="evenodd" d="m0 0h32v32h-32z"/></clipPath><path d="m0 0h32v32h-32z" fill="none"/><g clip-path="url(#a)"><path d="m16.206 4.001.206.004.205.007.205.009.204.011.203.015.203.016.201.019.202.022.2.024.2.027.199.029.198.032.198.034.197.036.195.039.195.041.195.044.193.046.192.048.192.05.19.053.19.055.188.058.188.059.186.062.186.064.184.066.184.069.182.07.181.073.181.075.179.077.177.079.177.081.176.084.174.085.173.087.172.09.171.091.169.094.169.095.166.097.166.1.164.101.163.103.162.105.16.107.159.108.158.111.156.112.154.115.153.116.152.117.151.12.148.121.148.123.146.125.144.127.142.128.142.13.139.131.138.133.137.135.135.137.133.138.131.139.13.142.128.142.127.145.125.145.123.148.121.149.12.15.117.152.116.153.115.154.112.157.111.157.108.159.107.16.105.162.103.163.101.164.1.166.097.167.095.168.094.169.091.171.09.172.087.173.085.174.084.176.081.177.079.177.077.179.075.181.073.181.07.182.069.184.066.184.064.186.062.186.059.188.058.188.055.19.053.19.05.192.048.192.046.193.044.195.041.195.039.195.036.197.034.198.032.198.029.199.027.2.024.2.022.201.019.202.016.203.015.203.011.204.009.205.007.205.004.206.001.2v.02l-.001.143-.003.149-.004.148-.007.149-.008.148-.01.147-.012.148-.014.147-.015.147-.017.147-.02.146-.02.146-.023.145-.024.145-.027.145-.028.145-.029.143-.032.144-.033.143-.035.142-.036.142-.039.141-.04.141-.041.141-.044.14-.045.139-.047.138-.048.138-.05.138-.052.137-.054.136-.055.135-.057.135-.058.134-.06.133-.062.133-.063.132-.065.131-.067.13-.068.13-.069.129-.072.128-.073.127-.074.126-.076.125-.078.125-.079.124-.081.122-.082.122-.084.121-.085.12-.087.119-.089.117-.089.117-.092.116-.093.115-.094.114-.096.113-.097.111-.099.111-.101.109-.101.109-.104.107-.104.106-.106.104-.107.104-.109.101-.109.101-.111.099-.111.097-.113.096-.114.094-.115.093-.116.092-.116.089-.119.089-.118.087-.12.085-.121.084-.122.082-.122.081-.124.079-.125.078-.125.076-.126.074-.127.073-.128.072-.129.069-.13.068-.13.067-.131.065-.132.063-.133.062-.133.06-.134.058-.135.057-.135.055-.136.054-.137.052-.138.05-.138.048-.138.047-.139.045-.14.044-.141.041-.141.04-.141.039-.142.036-.142.035-.143.033-.144.032-.144.029-.144.028-.145.027-.145.024-.145.023-.146.02-.146.02-.147.017-.147.015-.147.014-.148.012-.147.01-.148.008-.149.007-.148.004-.149.003-.143.001h-8.028l-.143-.001-.149-.003-.148-.004-.149-.007-.148-.008-.147-.01-.148-.012-.147-.014-.147-.015-.147-.017-.146-.02-.146-.02-.145-.023-.145-.024-.145-.027-.144-.028-.144-.029-.144-.032-.143-.033-.142-.035-.142-.036-.141-.039-.141-.04-.141-.041-.14-.044-.139-.045-.138-.047-.138-.048-.138-.05-.137-.052-.136-.054-.135-.055-.135-.057-.134-.058-.133-.06-.133-.062-.132-.063-.131-.065-.13-.067-.13-.068-.129-.069-.128-.072-.127-.073-.126-.074-.125-.076-.125-.078-.123-.079-.123-.081-.122-.082-.121-.084-.12-.085-.119-.087-.118-.089-.116-.089-.116-.092-.115-.093-.114-.094-.113-.096-.111-.097-.111-.099-.109-.101-.108-.101-.108-.104-.106-.104-.104-.106-.104-.107-.101-.109-.101-.109-.098-.111-.098-.111-.096-.113-.094-.114-.093-.115-.092-.116-.09-.117-.088-.117-.087-.119-.085-.12-.084-.121-.082-.122-.081-.123-.079-.123-.078-.125-.076-.125-.074-.126-.073-.127-.072-.128-.069-.129-.068-.13-.067-.13-.065-.131-.063-.132-.062-.133-.06-.133-.058-.134-.057-.135-.055-.135-.054-.136-.052-.137-.05-.138-.048-.138-.047-.138-.045-.139-.044-.14-.041-.141-.04-.141-.039-.141-.036-.142-.035-.142-.033-.143-.032-.144-.029-.143-.028-.145-.027-.145-.024-.145-.023-.145-.02-.146-.02-.146-.017-.147-.015-.147-.014-.147-.012-.148-.01-.147-.008-.148-.007-.149-.004-.148-.003-.149-.001-.143v-.022l.001-.193.004-.198.006-.198.009-.198.011-.198.013-.197.016-.197.018-.196.021-.196.023-.196.025-.195.028-.194.031-.195.032-.193.035-.193.037-.193.04-.191.042-.192.044-.191.046-.19.049-.189.051-.189.054-.188.055-.187.058-.186.061-.186.062-.185.065-.184.067-.183.069-.183.071-.182.074-.18.075-.18.078-.179.081-.178.082-.177.084-.176.087-.175.089-.173.091-.173.093-.172.095-.171.097-.169.099-.169.102-.167.103-.166.106-.165.108-.164.11-.162.111-.161.114-.16.116-.159.118-.157.12-.156.122-.155.124-.153.126-.152.128-.15.13-.149.132-.148.134-.145.135-.145.138-.143.14-.141.141-.14.143-.138.144-.135.147-.134.147-.132.149-.13.15-.128.152-.126.153-.124.155-.122.156-.12.157-.118.159-.116.16-.114.161-.111.162-.11.164-.108.165-.106.166-.103.167-.102.169-.099.169-.097.171-.095.172-.093.173-.091.173-.089.175-.087.176-.084.177-.082.178-.081.179-.077.18-.076.181-.074.181-.071.183-.069.183-.067.184-.065.185-.062.186-.061.186-.057.187-.056.188-.054.189-.051.189-.049.19-.046.191-.044.191-.042.192-.04.193-.037.193-.035.194-.033.194-.03.194-.028.195-.025.196-.023.196-.021.196-.018.197-.016.197-.013.198-.011.198-.009.198-.006.198-.004.193-.001h.014l.2.001zm-.357 4-.149.003-.149.004-.148.007-.148.008-.148.01-.148.012-.147.014-.147.015-.147.018-.146.019-.146.021-.145.022-.145.025-.145.026-.145.028-.143.029-.144.032-.143.033-.142.035-.142.036-.142.039-.141.04-.14.042-.14.043-.14.045-.138.047-.138.049-.138.05-.137.052-.136.053-.135.055-.135.057-.134.059-.134.06-.133.061-.132.064-.131.065-.13.066-.13.069-.129.069-.128.072-.127.073-.126.074-.126.076-.124.078-.124.079-.123.081-.121.082-.121.084-.12.085-.119.087-.118.089-.117.09-.116.091-.115.093-.114.095-.112.095-.112.098-.111.099-.109.1-.108.102-.108.103-.106.105-.105.106-.103.107-.102.109-.1.109-.099.111-.098.112-.095.112-.095.114-.093.115-.091.116-.09.117-.089.118-.087.119-.085.12-.084.121-.082.121-.081.123-.079.124-.078.124-.076.126-.074.126-.073.127-.072.128-.069.129-.069.13-.066.13-.065.131-.064.132-.061.133-.06.134-.059.134-.057.135-.055.135-.053.136-.052.137-.05.138-.049.138-.047.138-.045.14-.043.14-.042.14-.04.141-.039.142-.036.142-.035.142-.033.143-.032.143-.029.144-.028.145-.026.145-.025.145-.022.145-.021.146-.019.146-.018.147-.015.147-.014.147-.012.148-.01.148-.008.148-.007.148-.004.149-.003.149-.001.154.001.104.001.099.004.099.004.099.005.099.007.099.008.098.009.098.01.098.012.097.013.098.014.097.015.097.016.097.017.096.019.096.02.096.021.096.022.095.023.095.024.095.026.094.027.094.027.093.029.094.03.092.032.093.032.092.033.091.035.091.036.091.036.09.038.09.039.09.04.089.041.088.043.088.043.087.044.087.046.086.046.086.048.085.048.085.05.084.05.084.052.083.053.082.054.082.055.081.056.081.056.079.058.08.059.078.06.078.061.077.062.077.063.076.064.075.065.074.066.074.066.073.068.072.069.071.07.071.071.07.071.069.072.068.073.067.074.065.074.065.075.064.076.063.077.062.077.061.078.06.078.059.079.058.08.057.081.055.081.055.082.054.082.053.083.052.084.05.084.05.085.048.085.048.086.046.086.046.087.044.087.044.088.042.088.041.089.04.09.039.09.038.09.036.091.036.091.035.091.033.092.032.093.032.093.03.093.029.093.027.094.027.094.026.095.024.095.023.095.022.096.021.096.02.096.019.096.017.097.016.097.015.097.014.097.013.098.012.098.01.098.009.098.008.099.007.099.005.098.004.1.003.099.002.105.001h8.004l.105-.001.099-.002.1-.003.098-.004.099-.005.099-.007.098-.008.098-.009.098-.01.098-.012.097-.013.097-.014.097-.015.097-.016.096-.017.096-.019.096-.02.096-.021.095-.022.095-.023.095-.024.094-.026.094-.027.093-.027.093-.029.093-.03.093-.032.092-.032.091-.033.091-.035.091-.036.09-.036.09-.038.09-.039.089-.04.088-.041.088-.043.087-.043.087-.044.086-.046.086-.046.085-.048.085-.048.084-.05.084-.051.083-.051.082-.053.082-.054.081-.055.081-.055.079-.057.08-.058.078-.059.078-.06.077-.061.077-.062.076-.063.075-.064.074-.065.074-.065.073-.067.072-.068.071-.069.071-.07.07-.071.069-.071.068-.072.067-.073.065-.074.065-.074.064-.075.063-.076.062-.077.061-.077.06-.078.059-.078.058-.079.056-.08.056-.081.055-.081.054-.082.053-.082.051-.083.051-.084.05-.084.048-.085.048-.085.046-.086.046-.086.044-.087.043-.087.043-.088.041-.089.04-.088.039-.09.038-.09.036-.09.036-.091.035-.091.033-.091.032-.092.032-.093.03-.092.029-.094.027-.093.027-.094.026-.094.024-.095.023-.095.022-.095.021-.096.02-.096.019-.096.017-.096.016-.097.015-.097.014-.097.013-.098.012-.097.01-.098.009-.098.008-.098.007-.099.005-.099.004-.099.004-.099.001-.099.001-.103-.001-.16-.003-.155-.005-.154-.007-.154-.008-.154-.011-.152-.013-.153-.014-.151-.016-.152-.019-.15-.02-.15-.021-.149-.024-.149-.026-.148-.027-.147-.029-.147-.031-.146-.032-.145-.035-.145-.036-.144-.038-.143-.039-.142-.041-.142-.043-.141-.045-.141-.046-.139-.048-.139-.05-.138-.051-.137-.053-.137-.054-.135-.056-.135-.058-.134-.059-.134-.061-.132-.062-.131-.064-.131-.066-.13-.067-.129-.068-.127-.07-.128-.072-.126-.073-.125-.074-.124-.076-.123-.077-.122-.079-.122-.08-.12-.082-.119-.083-.118-.084-.117-.086-.117-.087-.115-.089-.114-.089-.113-.091-.111-.093-.111-.094-.109-.095-.109-.096-.107-.098-.106-.098-.105-.101-.104-.101-.102-.102-.102-.104-.1-.105-.098-.106-.098-.107-.096-.109-.095-.109-.094-.111-.093-.112-.091-.112-.089-.114-.089-.115-.087-.116-.086-.118-.084-.118-.083-.119-.082-.12-.08-.122-.079-.122-.077-.123-.076-.124-.074-.125-.073-.126-.072-.127-.07-.128-.068-.129-.067-.13-.066-.131-.064-.131-.062-.132-.061-.134-.059-.134-.058-.135-.056-.135-.054-.137-.053-.137-.051-.138-.05-.139-.048-.14-.046-.14-.045-.141-.043-.142-.041-.142-.039-.144-.038-.143-.036-.145-.035-.145-.032-.146-.031-.147-.029-.147-.027-.148-.026-.149-.024-.149-.021-.15-.02-.151-.019-.151-.016-.151-.014-.153-.013-.152-.011-.154-.008-.154-.007-.154-.005-.155-.003-.157-.001-.15.001z"/><path d="m30 20c0-7.732-6.268-14-14-14-.001 0-.001 0-.002 0-3.713 0-7.273 1.475-9.898 4.1s-4.1 6.186-4.1 9.898v.01c0 2.65 1.053 5.192 2.927 7.065 1.873 1.874 4.415 2.927 7.065 2.927h8.016c2.65 0 5.192-1.053 7.065-2.927 1.874-1.873 2.927-4.415 2.927-7.065 0-.003 0-.005 0-.008z" fill="#fbc546"/><path d="m24.707 13.793c.391.39.391 1.024 0 1.414-1.039 1.039-2.856 2.856-2.856 2.856s1.455.485 2.465.822c.252.084.46.264.578.501.119.237.139.512.055.764 0 0-.001 0-.001.001-.083.251-.264.459-.501.577-.237.119-.511.138-.762.054-1.699-.566-5.088-1.695-5.088-1.695l-.114-.484s3.321-3.321 4.81-4.81c.39-.391 1.024-.391 1.414 0z" fill-rule="nonzero"/><path d="m13.517 18.603-.114.484s-3.42 1.14-5.111 1.703c-.246.082-.513.063-.744-.053-.231-.115-.407-.318-.488-.563-.001 0-.001 0-.001-.001-.179-.537.111-1.117.648-1.296 1.01-.337 2.442-.814 2.442-.814s-1.817-1.817-2.856-2.856c-.391-.39-.391-1.024 0-1.414.39-.391 1.024-.391 1.414 0 1.489 1.489 4.81 4.81 4.81 4.81z" fill-rule="nonzero"/><path d="m9 26s.019-.057.051-.154c.567-1.7 2.157-2.846 3.949-2.846l3 3 3-3c1.792 0 3.382 1.146 3.949 2.846.032.097.051.154.051.154" fill="none" stroke="#593604" stroke-width="2"/></g></svg>