<svg clip-rule="evenodd" fill-rule="evenodd" stroke-linejoin="round" stroke-miterlimit="1.41421" viewBox="0 0 32 32" xmlns="http://www.w3.org/2000/svg" xmlns:xlink="http://www.w3.org/1999/xlink"><clipPath id="a"><path clip-rule="evenodd" d="m0 0h32v32h-32z"/></clipPath><path d="m0 0h32v32h-32z" fill="none"/><g clip-path="url(#a)"><path d="m16.206 2.001.206.004.205.007.205.009.204.011.203.015.203.016.201.019.202.022.2.024.2.027.199.029.198.032.198.034.197.036.195.039.195.041.195.044.193.046.192.048.192.05.19.053.19.055.188.058.188.059.186.062.186.064.184.066.184.069.182.07.181.073.181.075.179.077.177.079.177.081.176.084.174.085.173.087.172.09.171.091.169.094.169.095.166.097.166.1.164.101.163.103.162.105.16.107.159.108.158.111.156.112.154.115.154.116.151.118.15.119.149.121.148.123.145.125.145.127.143.128.141.13.139.131.138.133.137.135.135.137.133.138.131.139.13.142.128.142.127.145.125.145.123.148.121.148.12.151.117.152.116.153.115.154.112.156.111.158.108.159.107.16.105.162.103.163.101.164.1.166.097.166.095.169.094.169.091.171.09.172.087.173.085.174.083.176.082.177.079.178.077.178.075.181.073.181.07.182.069.184.066.184.064.186.062.186.059.188.058.188.055.19.053.19.05.192.048.192.046.194.044.194.041.194.039.196.036.197.034.198.032.198.029.199.027.2.024.2.022.202.019.201.016.203.015.204.011.203.009.205.007.205.004.206.001.2v1.012l-.001.161-.003.168-.005.166-.008.166-.009.166-.012.165-.013.165-.016.164-.018.163-.019.163-.022.163-.024.161-.025.161-.028.161-.03.16-.031.159-.034.159-.035.157-.037.157-.039.156-.041.156-.043.155-.045.154-.047.153-.048.153-.05.151-.052.151-.054.15-.056.149-.057.148-.06.147-.06.147-.063.145-.064.145-.066.143-.068.143-.069.142-.071.14-.073.14-.074.139-.076.138-.078.136-.078.136-.081.134-.082.134-.084.132-.086.132-.086.13-.089.129-.089.128-.092.127-.093.125-.094.125-.096.123-.097.122-.098.121-.1.12-.102.118-.102.117-.105.116-.105.115-.107.113-.108.113-.11.11-.11.11-.113.108-.113.107-.115.105-.115.104-.118.103-.118.102-.12.1-.121.098-.122.097-.123.096-.125.094-.125.093-.127.092-.128.089-.129.089-.13.087-.132.085-.132.084-.134.082-.134.08-.136.079-.136.078-.138.076-.139.074-.139.073-.141.071-.142.069-.142.068-.144.066-.145.064-.145.063-.147.06-.147.06-.148.057-.149.056-.15.053-.151.053-.151.05-.153.048-.153.047-.154.045-.155.043-.156.041-.156.039-.157.037-.158.035-.158.034-.159.031-.16.03-.161.028-.161.025-.161.024-.163.022-.163.019-.163.018-.164.016-.165.013-.165.012-.166.009-.166.008-.166.005-.167.003-.162.001h-6.012l-.162-.001-.167-.003-.166-.005-.166-.008-.166-.009-.165-.012-.165-.013-.164-.016-.163-.018-.163-.019-.163-.022-.161-.024-.161-.025-.161-.028-.16-.03-.159-.031-.158-.034-.158-.035-.157-.037-.156-.039-.156-.041-.155-.043-.154-.045-.153-.047-.152-.048-.152-.05-.151-.053-.15-.053-.149-.056-.148-.057-.148-.06-.146-.06-.145-.063-.145-.064-.143-.066-.143-.068-.142-.069-.141-.071-.139-.073-.139-.074-.138-.076-.136-.078-.136-.079-.134-.08-.134-.083-.132-.083-.132-.085-.13-.087-.129-.089-.128-.089-.127-.092-.125-.093-.125-.094-.123-.096-.122-.097-.121-.098-.12-.1-.118-.102-.117-.102-.116-.105-.115-.105-.113-.107-.113-.108-.11-.11-.11-.111-.108-.112-.107-.113-.105-.115-.105-.116-.102-.117-.102-.118-.1-.12-.098-.121-.097-.122-.096-.123-.094-.125-.093-.125-.091-.127-.09-.128-.089-.129-.087-.13-.085-.132-.084-.132-.082-.134-.08-.134-.079-.136-.078-.136-.076-.138-.074-.139-.073-.139-.071-.141-.069-.142-.068-.143-.066-.143-.064-.145-.063-.145-.061-.147-.059-.147-.057-.148-.056-.149-.053-.15-.053-.151-.05-.152-.048-.152-.047-.153-.045-.154-.043-.155-.041-.156-.039-.156-.037-.157-.036-.158-.033-.158-.031-.159-.03-.16-.028-.161-.025-.161-.024-.161-.022-.163-.019-.163-.018-.163-.016-.164-.013-.165-.012-.165-.009-.166-.008-.166-.005-.167-.003-.166-.001-.162v-1.012l.001-.2.004-.206.007-.205.009-.205.011-.204.015-.203.016-.203.019-.202.022-.201.024-.2.027-.2.029-.199.032-.198.034-.198.036-.197.039-.195.041-.195.044-.195.046-.193.048-.192.05-.192.053-.19.055-.19.058-.188.059-.188.062-.186.064-.186.066-.184.069-.184.07-.182.073-.181.075-.181.077-.179.079-.177.081-.177.084-.176.085-.174.087-.173.09-.172.091-.171.094-.169.095-.168.097-.167.1-.166.101-.164.103-.163.105-.162.107-.16.108-.159.111-.158.112-.156.115-.154.116-.153.117-.152.12-.15.121-.149.123-.148.125-.146.127-.144.128-.142.13-.142.131-.139.133-.138.135-.137.137-.135.138-.133.139-.131.142-.13.142-.128.144-.127.146-.125.148-.123.149-.121.15-.12.152-.117.153-.116.154-.115.156-.112.158-.111.159-.108.16-.107.162-.105.163-.103.164-.101.166-.1.167-.097.168-.095.169-.094.171-.091.172-.09.173-.087.174-.085.176-.084.176-.081.178-.079.18-.077.18-.075.181-.073.182-.07.184-.069.184-.066.186-.064.186-.062.188-.059.188-.058.19-.055.19-.053.192-.05.192-.048.193-.046.195-.044.195-.041.195-.039.197-.036.198-.034.198-.032.199-.029.2-.027.2-.024.202-.022.201-.019.203-.016.203-.015.204-.011.205-.009.205-.007.206-.004.206-.001.206.001zm-.362 4-.155.003-.154.005-.154.007-.154.008-.152.011-.153.013-.151.014-.151.016-.151.019-.15.02-.149.021-.149.024-.148.026-.147.027-.147.029-.146.031-.145.032-.145.035-.143.036-.144.038-.142.039-.142.041-.141.043-.14.045-.14.046-.139.048-.138.05-.137.051-.137.053-.136.054-.134.056-.134.058-.133.059-.133.061-.131.062-.131.064-.13.066-.129.067-.127.068-.128.07-.126.072-.125.073-.124.074-.123.076-.122.077-.122.079-.12.08-.119.082-.118.083-.118.084-.116.086-.115.087-.114.089-.113.089-.111.091-.111.093-.109.094-.109.095-.107.096-.106.098-.105.098-.104.1-.102.102-.101.102-.101.104-.098.105-.098.106-.096.107-.095.109-.094.109-.093.111-.091.111-.089.113-.089.114-.087.115-.086.117-.084.117-.083.118-.082.119-.08.12-.079.122-.077.122-.076.123-.074.124-.073.125-.072.126-.07.128-.068.127-.067.129-.066.13-.064.131-.062.131-.061.132-.059.134-.058.134-.056.135-.054.135-.053.137-.051.137-.05.138-.048.139-.046.139-.045.141-.043.141-.041.142-.039.142-.038.143-.036.144-.035.145-.032.145-.031.146-.029.147-.027.147-.026.148-.024.149-.021.149-.02.15-.019.15-.016.152-.014.151-.013.153-.011.152-.008.154-.007.154-.005.154-.003.155-.001.162v.988l.001.123.002.116.004.116.005.116.006.115.008.115.01.114.011.114.012.113.013.113.015.112.017.112.018.112.019.11.02.111.022.11.023.109.024.109.026.109.027.108.029.107.029.107.031.106.032.106.034.105.034.105.036.104.038.103.038.103.04.103.04.101.042.102.044.1.044.1.046.099.047.099.047.098.049.097.051.097.051.096.053.095.053.094.055.094.056.093.057.093.058.091.059.091.06.091.061.089.062.089.064.088.064.087.065.086.067.085.067.085.068.084.07.083.07.082.071.082.073.08.073.079.074.079.075.078.076.077.077.076.078.075.079.074.079.073.081.073.081.071.082.07.083.07.084.068.085.067.085.067.086.065.087.064.088.064.089.062.089.061.091.06.091.059.091.058.093.057.093.056.094.055.094.053.095.053.096.051.097.05.097.05.098.048.099.046.099.046.1.044.1.044.102.042.101.04.103.04.103.038.103.038.104.036.105.034.105.034.106.032.106.031.107.029.107.029.108.027.109.026.109.024.109.023.11.022.11.02.111.019.112.018.112.017.112.015.113.013.113.012.114.011.114.01.115.008.115.006.116.005.116.004.116.002.123.001h5.988l.123-.001.116-.002.116-.004.116-.005.115-.006.115-.008.114-.01.114-.011.113-.012.113-.013.112-.015.112-.017.112-.018.111-.019.11-.02.11-.022.109-.023.109-.024.109-.026.108-.027.107-.029.107-.029.106-.031.106-.032.105-.034.105-.034.104-.036.103-.038.103-.038.103-.04.102-.04.101-.042.1-.044.1-.044.099-.046.099-.047.098-.047.097-.05.097-.05.095-.051.096-.053.094-.053.094-.055.093-.056.093-.057.091-.058.091-.059.091-.06.089-.061.089-.062.088-.064.087-.064.086-.065.085-.067.085-.067.084-.069.083-.069.082-.07.081-.071.081-.073.08-.073.078-.074.078-.075.077-.076.076-.077.075-.078.074-.078.073-.08.073-.08.071-.082.07-.082.07-.083.068-.084.067-.085.067-.085.065-.086.064-.088.064-.087.062-.089.061-.089.06-.091.059-.091.058-.091.057-.093.056-.093.055-.094.054-.094.052-.096.051-.095.05-.097.05-.097.047-.098.047-.099.046-.099.044-.1.043-.1.043-.102.04-.102.04-.101.038-.104.038-.103.035-.104.035-.105.034-.105.032-.106.031-.106.029-.107.029-.107.027-.108.026-.109.024-.109.023-.109.022-.11.02-.111.019-.11.018-.112.017-.112.015-.112.013-.113.012-.113.011-.114.01-.114.008-.115.006-.115.005-.116.004-.116.002-.116.001-.123v-.988l-.001-.162-.003-.155-.005-.154-.007-.154-.008-.154-.011-.152-.013-.153-.014-.151-.016-.151-.019-.151-.02-.15-.021-.149-.024-.149-.026-.148-.027-.147-.029-.146-.031-.147-.032-.145-.035-.145-.036-.143-.038-.144-.039-.142-.041-.142-.043-.141-.045-.14-.046-.14-.048-.139-.05-.138-.051-.137-.053-.137-.054-.135-.056-.135-.058-.134-.059-.134-.061-.132-.062-.131-.064-.131-.066-.13-.067-.128-.068-.128-.07-.128-.072-.126-.073-.125-.074-.124-.076-.123-.077-.122-.079-.122-.08-.12-.082-.119-.083-.118-.084-.118-.086-.116-.087-.115-.089-.114-.089-.112-.091-.112-.093-.111-.094-.109-.095-.109-.096-.107-.098-.106-.098-.105-.1-.104-.102-.102-.102-.102-.104-.1-.105-.098-.106-.098-.107-.096-.109-.095-.109-.094-.111-.092-.111-.092-.113-.09-.114-.088-.115-.087-.117-.086-.117-.084-.118-.083-.119-.082-.12-.08-.122-.079-.122-.077-.123-.076-.124-.074-.125-.073-.126-.072-.128-.07-.127-.068-.129-.067-.13-.066-.131-.064-.131-.062-.132-.061-.134-.059-.134-.058-.135-.056-.135-.054-.137-.053-.137-.051-.138-.05-.139-.048-.139-.046-.141-.045-.141-.043-.142-.041-.142-.039-.144-.038-.143-.036-.145-.035-.145-.032-.146-.031-.147-.029-.147-.027-.148-.026-.149-.024-.149-.021-.15-.02-.151-.019-.151-.016-.151-.014-.153-.013-.152-.011-.154-.008-.154-.007-.154-.005-.155-.003-.156-.001-.156.001z"/><path d="m6.5 27.875c-2.729-2.002-4.5-5.232-4.5-8.875 0-.332 0-.665 0-1 0-7.732 6.268-14 14-14 7.732 0 14 6.268 14 14v1c0 3.643-1.771 6.873-4.5 8.875l-6 2.114c-.166.007-.332.011-.5.011-1.972 0-4.028 0-6 0-.168 0-.334-.004-.5-.011z" fill="#fbc546"/><path d="m19.5 29.989v-12.989l6 1v9.875c-1.696 1.244-3.761 2.014-6 2.114zm-7 0c-2.239-.1-4.305-.87-6-2.114v-9.875l6-1z" fill="#41b4de"/><path d="m25.207 11.793c.391.39.391 1.024 0 1.414-1.039 1.039-2.856 2.856-2.856 2.856s1.455.485 2.465.822c.252.084.46.264.578.501.119.237.139.512.055.764-.175.524-.741.807-1.265.632-1.7-.566-5.087-1.695-5.087-1.695l-.114-.484s3.322-3.323 4.811-4.811c.39-.39 1.022-.39 1.412 0 .001 0 .001.001.001.001z" fill-rule="nonzero"/><path d="m13.017 16.603-.114.484s-3.389 1.129-5.088 1.695c-.251.084-.525.065-.762-.054-.237-.118-.418-.326-.501-.577 0-.001-.001-.001-.001-.001-.084-.252-.064-.527.055-.764.118-.237.326-.417.578-.501 1.01-.337 2.465-.822 2.465-.822s-1.817-1.817-2.856-2.856c-.391-.39-.391-1.024 0-1.414 0 0 0-.001.001-.001.39-.39 1.022-.39 1.412 0 1.489 1.488 4.811 4.811 4.811 4.811z" fill-rule="nonzero"/><path d="m9.967 25.875c-.445-.165-.824-.487-1.059-.917-.351-.642-.323-1.424.073-2.04.15-.233.302-.469.452-.703 1.288-2.004 3.507-3.215 5.889-3.215h1.356c2.382 0 4.601 1.211 5.889 3.215.15.234.302.47.452.703.396.616.424 1.398.073 2.04-.235.43-.614.752-1.059.917-1.109-1.171-10.957-1.171-12.066 0z" fill="#722245"/><path d="m9.967 25.875c1.109-1.171 2.672-1.875 4.358-1.875h3.35c1.686 0 3.249.704 4.358 1.875-.22.081-.455.125-.696.125-3.114 0-7.56 0-10.674 0-.241 0-.476-.044-.696-.125z" fill="#ca3b8f"/></g></svg>