<svg clip-rule="evenodd" fill-rule="evenodd" stroke-linecap="round" stroke-linejoin="round" stroke-miterlimit="2" viewBox="0 0 32 32" xmlns="http://www.w3.org/2000/svg" xmlns:xlink="http://www.w3.org/1999/xlink"><clipPath id="a"><path clip-rule="evenodd" d="m0 0h32v32h-32z"/></clipPath><clipPath id="b"><path clip-rule="evenodd" d="m30 18c0-7.732-6.268-14-14-14-7.732 0-14 6.268-14 14v1c0 6.075 4.925 11 11 11h6c6.075 0 11-4.925 11-11 0-.332 0-.665 0-1z"/></clipPath><path d="m0 0h32v32h-32z" fill="none"/><g clip-path="url(#a)"><path d="m16.206 2.001.206.004.205.007.205.009.204.011.203.015.203.016.201.019.202.022.2.024.2.027.199.029.198.032.198.034.197.036.195.039.195.041.195.044.193.046.192.048.192.05.19.053.19.055.188.058.188.059.186.062.186.064.184.066.184.069.182.07.181.073.181.075.178.077.178.079.177.081.176.084.174.085.173.087.172.09.171.091.169.094.169.095.166.097.166.1.165.101.162.103.162.105.16.107.159.108.158.111.155.112.155.115.154.116.151.117.151.12.148.121.148.123.145.125.145.127.143.128.141.13.139.131.138.133.137.135.134.137.134.138.131.139.13.141.128.143.127.145.125.145.123.147.121.15.12.15.117.151.117.154.114.154.112.156.111.158.108.159.107.16.105.162.103.163.101.164.1.165.097.168.095.168.094.169.091.171.089.172.088.173.085.174.084.176.081.177.079.178.077.178.075.18.073.182.07.182.069.184.066.184.064.186.062.186.059.188.058.189.055.189.053.19.05.192.048.192.046.193.044.195.041.195.039.195.036.197.034.198.032.198.029.198.027.201.024.2.022.202.019.202.016.202.015.203.011.204.009.205.007.205.004.206.001.2v1.011l-.001.118-.001.122-.003.123-.004.121-.005.122-.006.122-.008.121-.008.121-.01.12-.01.121-.012.12-.013.12-.014.119-.015.119-.016.119-.017.119-.018.118-.019.118-.021.118-.021.117-.022.116-.024.117-.024.116-.026.116-.026.114-.028.116-.028.115-.03.113-.031.115-.031.113-.033.112-.033.113-.035.112-.035.112-.037.111-.037.11-.039.111-.039.11-.041.109-.041.109-.042.108-.043.108-.044.108-.045.107-.046.106-.047.107-.048.105-.048.104-.05.105-.051.105-.051.103-.053.103-.022.042.008.016.046.106.044.107.042.108.04.109.037.111.034.111.031.111.029.113.027.115.023.115.021.115.019.116.015.118.013.118.01.118.007.118.005.12.001.109v.024l-.001.11-.005.124-.008.122-.01.122-.014.121-.016.121-.02.121-.022.119-.025.119-.028.118-.031.117-.034.117-.037.114-.039.115-.043.115-.045.112-.047.11-.05.11-.054.109-.055.108-.059.106-.06.104-.064.103-.066.103-.069.101-.071.098-.074.097-.076.095-.079.094-.081.092-.084.09-.086.088-.087.086-.091.084-.092.081-.094.079-.095.076-.097.074-.099.071-.1.069-.102.066-.104.064-.104.061-.106.058-.108.056-.109.052-.11.051-.111.048-.112.044-.113.043-.115.039-.115.037-.117.034-.117.031-.118.028-.119.025-.119.022-.121.02-.12.016-.122.014-.122.01-.122.008-.123.005-.111.001h-.027l-.127-.002-.14-.006-.14-.01-.139-.014-.138-.017-.137-.022-.136-.025-.135-.029-.134-.033-.132-.036-.131-.04-.129-.043-.129-.047-.126-.05-.125-.054-.124-.057-.121-.06-.119-.063-.118-.067-.116-.07-.03-.019-.087.031-.169.058-.171.056-.172.054-.172.052-.174.049-.174.046-.175.044-.177.042-.177.04-.178.037-.179.035-.18.032-.18.03-.182.027-.182.025-.183.022-.183.019-.184.017-.186.015-.185.012-.187.009-.186.007-.188.004-.181.001h-6.013l-.161-.001-.168-.003-.166-.005-.166-.008-.166-.009-.165-.012-.165-.013-.164-.016-.163-.018-.163-.019-.163-.022-.161-.024-.161-.025-.161-.028-.16-.03-.159-.031-.158-.033-.158-.036-.157-.037-.157-.039-.155-.041-.155-.043-.154-.045-.153-.047-.153-.048-.151-.051-.151-.051-.15-.054-.149-.056-.148-.057-.147-.059-.147-.061-.145-.063-.145-.064-.144-.066-.142-.068-.142-.069-.141-.071-.139-.073-.139-.074-.138-.076-.136-.078-.136-.079-.134-.08-.134-.082-.132-.084-.132-.086-.13-.086-.129-.089-.128-.09-.126-.091-.126-.093-.125-.094-.123-.096-.122-.097-.121-.098-.12-.1-.118-.102-.117-.102-.116-.105-.115-.105-.113-.107-.113-.108-.111-.11-.109-.11-.108-.112-.107-.114-.106-.115-.104-.116-.102-.117-.102-.118-.1-.12-.098-.121-.097-.122-.096-.123-.094-.125-.093-.126-.091-.126-.09-.128-.089-.129-.086-.13-.086-.132-.084-.132-.082-.133-.081-.135-.079-.136-.077-.136-.076-.138-.074-.139-.073-.14-.071-.14-.069-.142-.068-.142-.066-.144-.064-.145-.063-.145-.061-.147-.059-.147-.057-.148-.056-.149-.053-.15-.053-.151-.05-.152-.048-.152-.047-.153-.045-.154-.043-.155-.041-.156-.039-.156-.037-.157-.036-.158-.033-.158-.031-.159-.03-.16-.028-.161-.025-.161-.024-.162-.022-.162-.019-.163-.018-.163-.016-.165-.013-.164-.012-.165-.009-.166-.008-.166-.005-.166-.003-.168-.001-.161v-1.012l.001-.2.004-.206.007-.205.009-.205.011-.204.015-.203.016-.202.019-.202.022-.202.024-.2.027-.201.029-.198.032-.198.034-.198.036-.197.039-.195.041-.195.044-.195.046-.193.048-.192.05-.192.053-.19.055-.189.058-.189.059-.188.062-.186.064-.186.066-.184.069-.184.07-.182.073-.182.075-.18.077-.178.079-.178.081-.177.084-.176.085-.174.087-.173.09-.172.091-.171.094-.169.095-.168.097-.168.1-.165.101-.164.103-.163.105-.162.107-.16.108-.159.111-.158.112-.156.114-.154.117-.154.117-.151.12-.15.121-.15.123-.147.125-.145.127-.145.128-.143.13-.141.131-.139.134-.138.134-.137.137-.135.138-.133.139-.131.141-.13.143-.128.145-.127.145-.125.148-.123.148-.121.151-.12.151-.117.154-.116.155-.115.155-.112.158-.11.159-.109.16-.107.162-.105.162-.103.165-.101.166-.1.166-.097.169-.095.169-.094.171-.091.172-.09.173-.087.174-.085.176-.084.177-.081.178-.079.178-.077.181-.075.181-.073.182-.07.184-.069.184-.066.186-.064.186-.062.188-.059.188-.058.19-.055.19-.053.192-.05.192-.048.193-.046.195-.044.195-.041.195-.039.197-.036.198-.034.198-.032.199-.029.2-.027.2-.024.202-.022.201-.019.203-.016.203-.015.204-.011.205-.009.205-.007.206-.004.206-.001.206.001zm-.362 4-.155.003-.154.005-.154.007-.154.008-.152.011-.153.013-.151.014-.151.016-.151.019-.15.02-.149.021-.149.024-.148.026-.147.027-.147.029-.145.031-.146.032-.145.035-.143.036-.144.038-.142.039-.142.041-.141.043-.141.045-.139.046-.139.048-.138.05-.137.051-.137.053-.135.054-.135.056-.134.058-.134.059-.132.061-.131.062-.131.064-.13.066-.129.067-.128.068-.127.07-.126.072-.125.073-.124.074-.123.076-.122.077-.122.079-.12.08-.119.082-.118.083-.118.084-.116.086-.115.087-.114.089-.113.089-.111.091-.111.093-.109.094-.109.095-.107.096-.106.098-.105.099-.104.1-.102.101-.102.102-.1.104-.098.105-.098.106-.096.107-.095.108-.094.11-.093.111-.091.111-.089.113-.089.115-.087.114-.086.116-.084.118-.083.118-.082.119-.08.12-.079.122-.077.122-.076.123-.074.124-.073.125-.072.126-.07.128-.068.127-.067.129-.066.13-.064.131-.062.131-.061.132-.059.134-.058.134-.056.135-.054.135-.053.137-.051.137-.05.138-.048.139-.046.14-.045.14-.043.141-.041.142-.04.143-.037.142-.036.144-.035.145-.032.145-.031.146-.029.147-.027.148-.026.147-.024.149-.022.15-.019.149-.019.15-.016.151-.014.152-.013.153-.011.153-.008.153-.007.154-.005.154-.003.155-.001.162v.988l.001.123.002.116.004.116.005.116.006.115.008.115.01.114.011.114.012.113.013.113.016.112.016.113.018.111.019.11.02.111.022.11.023.109.024.109.026.109.027.108.029.107.029.106.031.107.032.106.034.106.035.104.035.104.037.103.039.103.04.103.04.102.042.1.044.101.044.1.046.099.047.099.048.098.049.097.05.097.051.095.053.096.053.095.055.093.056.093.057.093.058.091.059.091.06.091.061.089.062.088.064.089.064.087.065.086.067.086.067.084.069.084.069.083.07.082.072.082.072.08.073.079.074.079.075.078.076.077.077.076.078.075.078.074.08.073.08.073.082.071.082.07.083.07.084.068.084.067.086.067.086.065.087.064.089.064.088.062.089.061.091.06.09.059.092.058.093.057.093.056.094.055.094.053.095.053.096.051.097.051.097.049.098.047.099.047.099.046.1.044.1.044.101.041.102.041.103.04.102.038.104.038.104.036.105.034.105.034.106.032.106.031.107.029.107.029.108.027.109.026.109.024.109.023.11.022.11.02.112.019.111.018.112.017.112.015.113.013.113.012.114.011.114.01.115.008.115.006.116.005.116.004.116.002.123.001h5.987l.138-.001.131-.003.13-.004.129-.007.129-.008.129-.01.128-.012.127-.014.127-.015.126-.017.125-.019.125-.02.124-.023.124-.024.123-.025.122-.028.122-.029.121-.03.121-.032.12-.034.119-.036.118-.037.117-.038.117-.04.117-.042.115-.044.115-.044.114-.047.113-.048.112-.049.112-.051 1.517-.716 1.026 1.221.017.019.018.019.018.018.019.018.019.017.02.017.02.016.02.016.022.015.021.015.022.014.022.013.022.013.023.012.024.012.023.01.024.011.024.009.024.009.025.009.025.007.024.007.026.006.025.006.026.004.026.004.026.004.027.002.026.002.027.001.03.001h.023l.024-.001.023-.002.024-.002.023-.002.024-.004.023-.003.023-.005.023-.005.023-.005.023-.006.022-.007.023-.007.022-.007.021-.008.023-.009.021-.009.021-.01.021-.01.021-.011.021-.012.02-.011.02-.013.019-.012.02-.014.019-.014.019-.014.018-.015.019-.015.017-.015.017-.016.018-.017.017-.018.016-.017.015-.017.015-.018.015-.019.015-.019.014-.02.013-.019.012-.019.012-.02.013-.021.011-.02.011-.021.01-.021.009-.021.01-.022.009-.022.007-.021.008-.022.008-.023.006-.022.006-.023.005-.023.005-.023.005-.024.003-.022.003-.023.003-.024.002-.024.002-.023.001-.023v-.026-.024l-.001-.022-.002-.023-.002-.023-.002-.022-.003-.022-.003-.022-.005-.023-.004-.022-.005-.02-.005-.021-.007-.023-.006-.021-.007-.02-.007-.021-.008-.02-.009-.021-.009-.02-.009-.019-.01-.02-.01-.021-.011-.018-.011-.019-.011-.019-.012-.018-.013-.019-.013-.018-.014-.018-.013-.016-.014-.017-.014-.017-1.078-1.175.893-1.373.042-.066.043-.068.042-.068.04-.067.04-.069.04-.069.039-.069.039-.071.038-.07.038-.07.036-.071.036-.071.036-.072.035-.071.034-.072.034-.073.033-.073.032-.073.032-.073.031-.074.03-.075.03-.074.029-.075.029-.076.028-.075.027-.076.026-.076.026-.077.026-.076.024-.077.024-.077.023-.077.023-.079.022-.079.02-.078.021-.079.02-.078.019-.079.018-.081.018-.079.017-.081.016-.08.015-.081.015-.081.014-.081.013-.082.013-.081.012-.083.011-.082.01-.082.01-.083.009-.083.008-.083.007-.084.007-.084.006-.084.005-.084.004-.084.004-.084.002-.086.002-.085.002-.085v-.091-.989l-.001-.162-.003-.155-.005-.154-.007-.154-.008-.153-.011-.153-.013-.153-.014-.152-.016-.151-.019-.15-.019-.149-.022-.15-.024-.149-.026-.147-.027-.148-.029-.147-.031-.146-.032-.145-.035-.145-.036-.144-.037-.142-.04-.143-.041-.142-.043-.141-.045-.14-.046-.14-.048-.139-.05-.138-.051-.137-.053-.137-.054-.135-.056-.135-.058-.134-.059-.134-.061-.132-.062-.131-.064-.131-.066-.13-.067-.129-.068-.128-.07-.127-.072-.126-.073-.125-.074-.124-.076-.123-.077-.122-.079-.122-.08-.12-.082-.119-.083-.118-.084-.118-.086-.116-.087-.114-.089-.115-.089-.113-.091-.111-.093-.111-.094-.11-.095-.108-.096-.107-.098-.106-.098-.105-.1-.104-.102-.102-.102-.101-.104-.1-.105-.099-.106-.098-.107-.096-.109-.095-.109-.094-.111-.093-.111-.091-.113-.089-.114-.089-.115-.087-.116-.086-.118-.084-.118-.083-.119-.082-.12-.08-.122-.079-.122-.077-.123-.076-.124-.074-.125-.073-.126-.072-.127-.07-.128-.068-.129-.067-.13-.066-.131-.064-.131-.062-.132-.061-.134-.059-.134-.058-.135-.056-.135-.054-.137-.053-.137-.051-.138-.05-.139-.048-.139-.046-.141-.045-.141-.043-.142-.041-.142-.039-.144-.038-.144-.036-.144-.035-.145-.032-.146-.031-.147-.029-.147-.027-.148-.026-.149-.024-.149-.021-.15-.02-.151-.019-.151-.016-.151-.014-.153-.013-.152-.011-.154-.008-.154-.007-.154-.005-.155-.003-.156-.001-.156.001z"/><path d="m30 18c0-7.732-6.268-14-14-14-7.732 0-14 6.268-14 14v1c0 6.075 4.925 11 11 11h6c6.075 0 11-4.925 11-11 0-.332 0-.665 0-1z" fill="#fbc546"/><g clip-path="url(#b)"><path d="m21 22s1.397 3.725 2.284 6.091c.431 1.148 1.528 1.909 2.755 1.909h.001c.785 0 1.538-.312 2.093-.867s.867-1.308.867-2.093v-.001c0-1.227-.761-2.324-1.909-2.755-2.366-.887-6.091-2.284-6.091-2.284z" fill="none" stroke="#e59a10" stroke-width="4"/></g><path d="m21 22s1.397 3.725 2.284 6.091c.431 1.148 1.528 1.909 2.755 1.909h.001c.785 0 1.538-.312 2.093-.867s.867-1.308.867-2.093v-.001c0-1.227-.761-2.324-1.909-2.755-2.366-.887-6.091-2.284-6.091-2.284z" fill="#fff"/><path d="m11.172 25.895c-.164-.082-.305-.208-.405-.369-.182-.295-.198-.663-.043-.973.056-.112.113-.227.17-.342.678-1.355 2.063-2.211 3.578-2.211h3.056c1.515 0 2.9.856 3.578 2.211.057.115.114.23.17.342.155.31.139.678-.043.973-.1.161-.241.287-.405.369-.926-.572-8.73-.572-9.656 0z" fill="#722245"/><path d="m11.172 25.895c.926-.572 2.011-.895 3.153-.895h3.35c1.142 0 2.227.323 3.153.895-.136.068-.289.105-.446.105-2.295 0-6.469 0-8.764 0-.157 0-.31-.037-.446-.105z" fill="#ca3b8f"/><path d="m25.536 16.001.049.003.048.005.047.007.048.01.046.012.047.015.045.016.044.019.044.021.043.023.041.025.04.027.039.029.037.031.036.032.034.034.032.036.031.037.029.039.027.04.025.041.023.043.021.044.019.044.016.046.015.046.012.046.01.048.007.047.005.049.003.048.001.048-.002.048-.004.049-.006.047-.009.048-.011.047-.013.047-.016.045-.017.045-.02.044-.022.043-.024.042-.026.041-.028.04-.03.038-.032.036-.033.035-3.707 3.707-3.707-3.707-.033-.035-.032-.036-.03-.038-.028-.04-.026-.041-.024-.042-.022-.043-.02-.044-.017-.045-.016-.045-.013-.047-.011-.047-.009-.048-.006-.047-.004-.049-.002-.048.001-.048.003-.048.005-.049.007-.047.01-.048.012-.046.015-.046.016-.046.019-.044.021-.044.023-.043.025-.041.027-.04.029-.039.031-.037.032-.036.034-.034.036-.032.037-.031.039-.029.04-.027.042-.025.042-.023.044-.021.044-.019.046-.016.046-.015.046-.012.048-.01.048-.007.048-.005.048-.003.048-.001.048.002.049.004.047.006.048.009.047.011.047.013.045.016.045.017.044.02.043.022.042.024.041.026.04.028.038.03.036.032.035.033 2.293 2.293 2.293-2.293.035-.033.036-.032.039-.03.039-.028.041-.026.042-.024.043-.022.044-.02.045-.017.046-.016.046-.013.047-.011.048-.009.047-.006.049-.004.048-.002z"/><path d="m12.536 16.001.048.003.048.005.048.007.048.01.046.012.046.015.046.016.044.019.044.021.042.023.042.025.04.027.039.029.037.031.036.032.034.034.032.036.031.037.029.039.027.04.025.041.023.043.021.044.019.044.016.046.015.046.012.046.01.048.007.047.005.049.003.048.001.048-.002.048-.004.049-.006.047-.009.048-.011.047-.013.047-.016.045-.017.045-.02.044-.022.043-.024.042-.026.041-.028.04-.03.038-.032.036-.033.035-3.707 3.707-3.707-3.707-.033-.035-.032-.036-.03-.038-.028-.04-.026-.041-.024-.042-.022-.043-.02-.044-.017-.045-.016-.045-.013-.047-.011-.047-.009-.048-.006-.047-.004-.049-.002-.048.001-.048.003-.048.005-.049.007-.047.01-.048.012-.046.015-.046.016-.046.019-.044.021-.044.023-.043.025-.041.027-.04.029-.039.031-.037.032-.036.034-.034.036-.032.037-.031.039-.029.04-.027.041-.025.043-.023.044-.021.044-.019.045-.016.047-.015.046-.012.048-.01.047-.007.048-.005.049-.003.048-.001.048.002.049.004.047.006.048.009.047.011.046.013.046.016.045.017.044.02.043.022.042.024.041.026.039.028.039.03.036.032.035.033 2.293 2.293 2.293-2.293.035-.033.036-.032.038-.03.04-.028.041-.026.042-.024.043-.022.044-.02.045-.017.045-.016.047-.013.047-.011.048-.009.047-.006.049-.004.048-.002z"/></g></svg>