<svg clip-rule="evenodd" fill-rule="evenodd" stroke-linecap="round" stroke-linejoin="round" stroke-miterlimit="1.5" viewBox="0 0 32 32" xmlns="http://www.w3.org/2000/svg" xmlns:xlink="http://www.w3.org/1999/xlink"><clipPath id="a"><path clip-rule="evenodd" d="m0 0h32v32h-32z"/></clipPath><path d="m0 0h32v32h-32z" fill="none"/><g clip-path="url(#a)"><path d="m16.206 2.001.206.004.205.007.205.009.204.011.203.015.203.016.201.019.202.022.2.024.2.027.199.029.198.032.198.034.197.036.195.039.195.041.195.044.193.046.192.048.192.05.19.053.19.055.188.058.188.059.186.062.186.064.184.066.184.069.182.07.181.073.181.075.179.077.177.079.177.081.176.084.174.085.173.087.172.09.171.091.169.094.168.095.167.097.166.1.164.101.163.103.162.105.16.107.159.108.158.111.156.112.154.115.153.116.152.117.151.12.148.121.148.123.145.125.145.127.142.128.142.13.139.131.138.133.137.135.135.137.133.138.131.139.13.142.128.142.127.145.125.145.123.148.121.148.12.151.117.152.116.153.115.154.112.156.111.158.108.159.107.16.105.162.103.163.101.164.1.166.097.166.095.169.094.169.091.171.09.172.087.173.085.174.084.176.081.177.079.177.077.179.075.181.073.181.07.182.069.184.066.184.064.186.062.186.059.188.058.188.055.19.053.19.05.192.048.192.046.193.044.195.041.195.039.195.036.197.034.198.032.198.029.199.027.2.024.2.022.202.019.201.016.203.015.203.011.204.009.205.007.205.004.206.001.2v1.013l-.001.189-.005.195-.007.195-.01.193-.013.194-.016.192-.018.192-.021.191-.024.19-.027.189-.03.189-.032.188-.035.186-.024.122.01.077.01.084.009.083.007.084.006.084.004.084.003.084.002.083.001.084-.001.084-.002.084-.004.083-.004.084-.006.083-.008.083-.008.083-.011.083-.011.083-.012.082-.014.082-.015.082-.017.082-.018.081-.019.082-.02.081-.022.081-.023.08-.024.08-.025.079-.027.08-.028.079-.03.078-.03.079-.032.077-.033.078-.034.076-.036.077-.037.076-.038.075-.04.075-.04.074-.042.074-.043.073-.045.073-.045.072-.047.071-.048.07-.049.07-.051.07-.052.068-.053.068-.054.067-.055.067-.057.065-.057.065-.059.064-.06.063-.06.06-.013.013-.059.058-.071.067-.072.066-.073.064-.074.063-.075.061-.077.06-.077.059-.078.057-.079.055-.052.035-.082.109-.118.153-.119.151-.123.149-.124.148-.126.145-.129.144-.131.141-.132.14-.135.138-.137.135-.138.134-.141.132-.143.129-.144.128-.147.125-.148.123-.15.121-.152.119-.154.116-.156.115-.157.112-.159.11-.161.107-.163.105-.164.103-.166.101-.167.098-.169.095-.171.094-.172.09-.174.088-.175.086-.177.083-.178.081-.179.078-.181.075-.183.073-.183.07-.185.067-.187.064-.187.062-.189.059-.19.057-.191.053-.193.05-.193.048-.195.045-.196.042-.197.039-.197.035-.199.033-.2.03-.201.027-.201.024-.203.02-.203.018-.204.014-.205.012-.206.008-.206.004-.199.002h-6.014l-.162-.001-.167-.003-.166-.005-.166-.008-.166-.009-.165-.012-.165-.013-.164-.016-.163-.018-.163-.019-.163-.022-.161-.024-.161-.025-.161-.028-.16-.03-.159-.031-.158-.034-.158-.035-.157-.037-.156-.039-.156-.041-.155-.043-.154-.045-.153-.047-.153-.048-.151-.05-.151-.053-.15-.053-.149-.056-.148-.057-.147-.06-.147-.06-.145-.063-.145-.064-.143-.066-.143-.068-.142-.069-.141-.071-.139-.073-.139-.074-.138-.076-.136-.078-.136-.079-.135-.08-.133-.082-.132-.084-.132-.085-.13-.087-.129-.089-.128-.089-.127-.092-.125-.093-.125-.094-.123-.096-.122-.097-.121-.098-.12-.1-.118-.102-.117-.102-.116-.105-.115-.105-.114-.107-.112-.108-.11-.11-.11-.11-.108-.113-.107-.113-.105-.115-.105-.116-.102-.117-.102-.118-.1-.12-.098-.121-.097-.122-.096-.123-.094-.125-.093-.125-.092-.127-.089-.128-.089-.129-.086-.13-.086-.132-.084-.132-.082-.134-.08-.134-.079-.136-.078-.136-.076-.138-.074-.139-.073-.139-.071-.141-.069-.142-.068-.143-.066-.143-.064-.145-.063-.145-.06-.147-.06-.147-.057-.148-.056-.149-.053-.15-.053-.151-.05-.151-.048-.153-.047-.153-.045-.154-.043-.155-.041-.155-.039-.157-.037-.157-.035-.158-.034-.158-.031-.159-.03-.16-.028-.161-.025-.161-.024-.161-.022-.163-.019-.163-.018-.163-.016-.164-.013-.165-.012-.165-.009-.166-.008-.166-.005-.166-.003-.168-.001-.161v-1.012l.001-.2.004-.206.007-.205.009-.205.011-.204.015-.203.016-.203.019-.201.022-.202.024-.2.027-.2.029-.199.032-.198.034-.198.036-.197.039-.195.041-.195.044-.195.046-.193.048-.192.05-.192.053-.19.055-.19.058-.188.059-.188.062-.186.064-.186.066-.184.069-.184.07-.182.073-.181.075-.181.077-.179.079-.177.081-.177.084-.176.085-.174.087-.173.09-.172.091-.171.094-.169.095-.169.097-.166.1-.166.101-.164.103-.163.105-.162.107-.16.108-.159.111-.158.112-.156.115-.154.116-.153.117-.152.12-.151.121-.148.123-.148.125-.145.127-.145.128-.142.13-.142.131-.139.133-.138.135-.137.137-.135.138-.133.139-.131.142-.13.142-.128.145-.127.145-.125.148-.123.148-.121.151-.12.152-.117.153-.116.154-.115.156-.112.158-.111.159-.108.16-.107.162-.105.163-.103.164-.101.166-.1.167-.097.168-.095.169-.094.171-.091.172-.09.173-.087.174-.085.176-.084.177-.081.177-.079.179-.077.181-.075.181-.073.182-.07.184-.069.184-.066.186-.064.186-.062.188-.059.188-.058.19-.055.19-.053.192-.05.192-.048.193-.046.195-.044.195-.041.195-.039.197-.036.198-.034.198-.032.199-.029.2-.027.2-.024.202-.022.201-.019.203-.016.203-.015.204-.011.205-.009.205-.007.206-.004.206-.001.206.001zm-.362 4-.155.003-.154.005-.154.007-.154.008-.152.011-.153.013-.151.014-.151.016-.151.019-.15.02-.149.021-.149.024-.148.026-.147.027-.147.029-.146.031-.145.032-.145.035-.143.036-.144.038-.142.039-.142.041-.141.043-.141.045-.139.046-.139.048-.138.05-.137.051-.137.053-.135.054-.135.056-.134.058-.134.059-.132.061-.131.062-.131.064-.13.066-.129.067-.127.068-.128.07-.126.072-.125.073-.124.074-.123.076-.122.077-.122.079-.12.08-.119.082-.118.083-.117.084-.117.086-.115.087-.114.089-.112.089-.112.091-.111.093-.109.094-.109.095-.107.096-.106.098-.105.098-.104.1-.102.102-.102.102-.1.104-.098.105-.098.106-.096.107-.095.109-.094.109-.093.111-.091.112-.089.112-.089.114-.087.115-.086.116-.084.118-.083.118-.082.119-.08.12-.079.122-.077.122-.076.123-.074.124-.073.125-.072.126-.07.127-.068.128-.067.129-.066.13-.064.131-.062.131-.061.132-.059.134-.058.134-.056.134-.054.136-.053.137-.051.137-.05.138-.048.139-.046.14-.045.14-.043.141-.041.142-.039.142-.038.144-.036.143-.035.145-.032.145-.031.146-.029.147-.027.147-.026.148-.024.149-.021.149-.02.15-.019.151-.016.151-.014.151-.013.153-.011.152-.008.154-.007.154-.005.154-.003.155-.001.162v.988l.001.123.002.116.004.116.005.116.006.115.008.115.01.114.011.114.012.113.013.113.015.112.017.112.018.112.019.11.02.111.022.11.023.109.024.109.026.109.027.108.029.107.029.107.031.106.032.106.034.105.034.105.036.104.038.103.038.103.04.103.04.101.042.102.044.1.044.1.046.099.047.099.047.098.05.097.05.097.051.095.053.096.053.094.055.094.056.093.057.093.058.091.059.091.06.091.061.089.062.089.064.087.064.088.065.086.067.085.067.085.068.084.07.083.07.082.071.082.073.08.073.08.074.078.075.078.076.077.077.076.078.075.078.074.08.073.081.073.081.071.082.07.083.07.084.068.085.067.085.067.086.065.087.064.088.064.089.062.089.061.091.06.091.059.091.058.093.057.093.056.094.055.094.053.096.053.095.051.097.05.097.05.098.048.099.046.099.046.1.044.1.044.102.042.101.04.103.04.103.038.103.038.104.036.105.034.105.034.106.032.106.031.107.029.107.029.108.027.109.026.109.024.109.023.11.022.11.02.111.019.112.018.112.017.112.015.113.013.113.012.114.011.114.01.115.008.115.006.116.005.116.004.116.002.123.001h5.986l.152-.001.144-.004.143-.005.143-.008.141-.01.141-.012.141-.014.139-.017.139-.018.139-.021.137-.023.137-.025.136-.027.135-.028.134-.031.134-.033.133-.035.132-.037.131-.039.131-.041.129-.042.129-.045.127-.046.127-.048.126-.051.125-.052.124-.053.123-.056.122-.058.121-.059.12-.061.12-.062.118-.065.117-.066.115-.068.115-.069.114-.072.112-.073.112-.074.11-.076.109-.078.108-.079.107-.081.105-.082.104-.084.103-.086.102-.087.1-.088.099-.09.098-.091.096-.093.095-.094.093-.096.092-.097.091-.098.089-.099.088-.101.086-.102.085-.104.083-.105.082-.106.08-.107.078-.108.353-.503.445-.243.02-.012.02-.012.02-.013.02-.012.019-.013.02-.014.019-.014.018-.014.019-.015.018-.015.018-.015.018-.015.018-.016.017-.017.018-.018.015-.015.015-.016.014-.015.014-.016.014-.016.013-.016.014-.016.013-.017.012-.016.012-.017.012-.017.012-.017.011-.017.011-.018.011-.017.01-.017.01-.018.01-.018.01-.018.009-.019.009-.018.008-.018.009-.019.008-.019.007-.019.008-.019.007-.019.007-.018.006-.02.006-.019.006-.02.006-.02.005-.019.005-.02.005-.019.004-.02.004-.02.004-.02.003-.02.003-.021.003-.02.003-.02.002-.02.001-.02.002-.021.001-.02.001-.02v-.02l.001-.021-.001-.02v-.021l-.001-.02-.001-.02-.001-.021-.002-.02-.002-.02-.002-.02-.003-.021-.003-.02-.004-.02-.003-.02-.004-.02-.005-.02-.115-.49.139-.596.028-.128.026-.128.024-.129.022-.13.02-.13.019-.131.016-.132.015-.133.013-.133.011-.133.009-.134.007-.135.005-.136.003-.135.001-.144v-.987l-.001-.162-.003-.155-.005-.154-.007-.154-.008-.154-.011-.152-.013-.153-.014-.151-.016-.151-.019-.151-.02-.15-.021-.149-.024-.149-.026-.148-.027-.147-.029-.147-.031-.146-.032-.145-.035-.145-.036-.143-.038-.144-.039-.142-.041-.142-.043-.141-.045-.14-.046-.14-.048-.139-.05-.138-.051-.137-.053-.137-.054-.136-.056-.134-.058-.134-.059-.134-.061-.132-.062-.131-.064-.131-.066-.13-.067-.129-.068-.128-.07-.127-.072-.126-.073-.125-.074-.124-.076-.123-.077-.122-.079-.122-.08-.12-.082-.119-.083-.118-.084-.118-.086-.116-.087-.115-.089-.114-.089-.112-.091-.112-.093-.111-.094-.109-.095-.109-.096-.107-.098-.106-.098-.105-.1-.104-.102-.102-.102-.102-.104-.1-.105-.098-.106-.098-.107-.096-.109-.095-.109-.094-.111-.093-.112-.091-.112-.089-.114-.089-.115-.087-.117-.086-.117-.084-.118-.083-.119-.082-.12-.08-.122-.079-.122-.077-.123-.076-.124-.074-.125-.073-.126-.072-.128-.07-.127-.068-.129-.067-.13-.066-.131-.064-.131-.062-.132-.061-.134-.059-.134-.058-.135-.056-.135-.054-.137-.053-.137-.051-.138-.05-.139-.048-.139-.046-.141-.045-.141-.043-.142-.041-.142-.039-.144-.038-.143-.036-.145-.035-.145-.032-.146-.031-.147-.029-.147-.027-.148-.026-.149-.024-.149-.021-.15-.02-.151-.019-.151-.016-.151-.014-.153-.013-.152-.011-.154-.008-.154-.007-.154-.005-.155-.003-.156-.001-.156.001z"/><path d="m25.885 27.579c-1.885 1.515-4.279 2.421-6.885 2.421-1.972 0-4.028 0-6 0-6.075 0-11-4.925-11-11 0-.332 0-.665 0-1 0-7.732 6.268-14 14-14 7.732 0 14 6.268 14 14v1c0 1.303-.227 2.554-.643 3.714 0 0-4.116 4.743-3.472 4.865z" fill="#fbc546"/><path d="m29.357 22.714c-.691 1.928-1.906 3.607-3.472 4.865-.644-.122-1.241-.435-1.711-.905-.001-.001-.001-.001-.001-.001-.999-.999-1.247-2.525-.615-3.789 1.185-2.37 2.942-5.884 2.942-5.884z" fill="#e59a10"/><path d="m11.5 10.999c0-.552-.447-.999-.999-.999-.001 0-.001 0-.001 0l-3 3v1c0 .53.211 1.039.586 1.414s.884.586 1.414.586c1.105 0 2-.895 2-2 0-1.008 0-2.186 0-3.001z"/><path d="m24.5 13-3-3s0 0-.001 0c-.552 0-.999.447-.999.999v3.003c0 1.103.895 1.998 1.998 1.998h.004c1.103 0 1.998-.895 1.998-1.998 0-.552 0-1.002 0-1.002z"/><path d="m9 22s.921-.921 1.879-1.879c1.358-1.358 3.2-2.121 5.121-2.121 1.921 0 3.763.763 5.121 2.121.958.958 1.879 1.879 1.879 1.879" fill="none" stroke="#593604" stroke-width="2"/><path d="m26.5 15s-1.757 3.514-2.942 5.884c-.632 1.264-.384 2.79.615 3.789 0 0 0 0 .001.001.617.617 1.453.963 2.326.963s1.709-.346 2.326-.963c.001-.001.001-.001.001-.001.999-.999 1.247-2.525.615-3.789-1.185-2.37-2.942-5.884-2.942-5.884z" fill="#41b4de"/></g></svg>