<svg clip-rule="evenodd" fill-rule="evenodd" stroke-linejoin="round" stroke-miterlimit="1.41421" viewBox="0 0 32 32" xmlns="http://www.w3.org/2000/svg" xmlns:xlink="http://www.w3.org/1999/xlink"><clipPath id="a"><path clip-rule="evenodd" d="m0 0h32v32h-32z"/></clipPath><path d="m0 0h32v32h-32z" fill="none"/><g clip-path="url(#a)"><path d="m16.206 2.001.206.004.205.007.205.009.204.011.203.015.203.016.201.019.202.022.2.024.2.027.199.029.198.032.198.034.197.036.195.039.195.041.195.044.193.046.192.048.192.05.19.053.19.055.188.058.188.059.186.062.186.064.184.066.184.069.182.07.181.073.181.075.179.077.177.079.177.081.176.084.174.085.173.087.172.09.171.091.169.094.169.095.166.097.166.1.164.101.163.103.162.105.16.107.159.108.157.111.157.112.154.115.153.116.152.117.15.12.149.121.148.123.146.125.144.127.142.128.142.13.139.131.138.133.137.135.135.137.133.138.131.139.13.142.128.142.127.144.125.146.123.148.121.149.12.15.117.152.116.153.115.154.112.156.111.158.108.159.107.16.105.162.103.163.101.164.1.165.097.168.095.168.094.169.091.171.09.172.087.173.085.174.083.176.082.177.079.177.077.179.075.181.073.181.07.182.069.184.066.184.064.186.062.186.059.188.058.188.055.19.053.19.05.192.048.192.046.193.044.195.041.195.039.195.036.197.034.198.032.198.029.199.027.2.024.2.022.201.019.202.016.203.015.203.011.204.009.205.007.205.004.206.001.2v1.012l-.001.162-.003.166-.005.167-.008.166-.009.166-.012.165-.013.165-.016.164-.018.163-.019.163-.022.163-.024.161-.025.161-.028.161-.03.16-.031.159-.033.158-.036.158-.037.157-.039.156-.041.156-.043.155-.045.154-.047.153-.048.152-.05.152-.053.151-.053.15-.056.149-.057.148-.059.147-.061.147-.063.145-.064.145-.066.143-.068.143-.069.142-.071.141-.073.139-.074.139-.076.138-.078.136-.079.136-.08.134-.082.134-.084.132-.085.132-.087.13-.089.129-.09.128-.091.127-.093.125-.094.125-.096.123-.097.122-.098.121-.1.12-.102.118-.102.117-.105.116-.105.115-.107.113-.108.112-.11.111-.11.11-.113.108-.113.107-.115.105-.116.105-.117.102-.118.102-.12.1-.121.098-.122.097-.123.096-.125.094-.125.093-.127.092-.128.089-.129.089-.13.086-.132.086-.132.084-.134.082-.134.08-.136.079-.136.078-.138.076-.139.074-.139.073-.141.071-.142.069-.143.068-.143.066-.145.064-.145.063-.147.06-.147.06-.148.057-.149.056-.15.053-.151.053-.152.05-.152.048-.153.047-.154.045-.155.043-.156.041-.156.039-.157.037-.158.035-.158.034-.159.031-.16.03-.161.028-.161.025-.161.024-.163.022-.163.019-.163.018-.164.016-.165.013-.165.012-.166.009-.166.008-.166.005-.167.003-.162.001h-6.012l-.162-.001-.167-.003-.166-.005-.166-.008-.166-.009-.165-.012-.165-.013-.164-.016-.163-.018-.163-.019-.163-.022-.161-.024-.161-.025-.161-.028-.16-.03-.159-.031-.158-.034-.158-.035-.157-.037-.156-.039-.156-.041-.155-.043-.154-.045-.153-.047-.152-.048-.152-.05-.151-.053-.15-.053-.149-.056-.148-.057-.147-.06-.147-.06-.145-.063-.145-.064-.143-.066-.143-.068-.142-.069-.141-.071-.139-.073-.139-.074-.138-.076-.136-.078-.136-.079-.134-.08-.134-.082-.132-.084-.132-.086-.13-.086-.129-.089-.128-.089-.127-.092-.125-.093-.125-.094-.123-.096-.122-.097-.121-.098-.12-.1-.118-.102-.117-.102-.116-.105-.115-.105-.113-.107-.113-.108-.11-.11-.11-.11-.108-.113-.107-.113-.106-.115-.104-.116-.102-.117-.102-.118-.1-.12-.098-.121-.097-.122-.096-.123-.094-.125-.093-.125-.091-.127-.09-.128-.089-.129-.087-.13-.085-.132-.084-.132-.082-.133-.08-.135-.08-.136-.077-.136-.076-.138-.074-.139-.073-.139-.071-.141-.069-.142-.068-.143-.066-.143-.064-.145-.063-.145-.061-.147-.059-.147-.057-.148-.056-.149-.053-.15-.053-.151-.05-.151-.048-.153-.047-.153-.045-.154-.043-.155-.041-.156-.039-.156-.037-.157-.036-.158-.033-.158-.031-.159-.03-.16-.028-.161-.025-.161-.024-.161-.022-.163-.019-.163-.018-.163-.016-.164-.013-.165-.012-.165-.009-.166-.008-.166-.005-.167-.003-.167-.001-.161v-1.012l.001-.2.004-.206.007-.205.009-.205.011-.204.015-.203.016-.203.019-.201.022-.202.024-.2.027-.2.029-.199.032-.198.034-.198.036-.197.039-.195.041-.195.044-.195.046-.193.048-.192.05-.191.053-.191.055-.19.058-.188.059-.188.062-.186.064-.186.066-.184.069-.184.07-.182.073-.181.075-.181.077-.179.079-.177.082-.177.083-.176.085-.174.087-.173.09-.172.091-.171.094-.169.095-.169.097-.167.1-.165.101-.164.103-.163.105-.162.107-.16.108-.159.111-.158.112-.156.115-.154.116-.153.117-.152.12-.151.121-.148.123-.148.125-.146.127-.144.128-.142.13-.142.131-.139.133-.138.135-.137.137-.135.138-.133.139-.131.142-.13.142-.128.145-.127.145-.125.148-.123.149-.121.15-.12.151-.117.154-.116.154-.115.156-.112.158-.111.159-.108.16-.107.162-.105.163-.103.164-.101.166-.1.166-.097.169-.095.169-.094.171-.091.172-.09.173-.087.174-.085.176-.084.177-.081.177-.079.179-.077.181-.075.181-.073.182-.07.184-.069.184-.066.186-.064.186-.062.188-.059.188-.058.19-.055.19-.053.192-.05.192-.048.193-.046.195-.044.195-.041.195-.039.197-.036.198-.034.198-.032.199-.029.2-.027.2-.024.202-.022.201-.019.203-.016.203-.015.204-.011.205-.009.205-.007.206-.004.2-.001h.012l.2.001zm-.362 4-.155.003-.154.005-.154.007-.154.008-.152.011-.153.013-.151.014-.151.016-.151.019-.15.02-.149.021-.149.024-.148.026-.147.027-.147.029-.146.031-.145.032-.145.035-.143.036-.144.038-.142.039-.142.041-.141.043-.14.045-.14.046-.139.048-.138.05-.137.051-.137.053-.135.054-.135.056-.134.058-.134.059-.132.061-.131.062-.131.064-.13.066-.129.067-.128.068-.127.07-.126.072-.125.073-.124.074-.123.076-.122.077-.122.079-.12.08-.119.082-.118.083-.118.084-.116.086-.115.087-.114.089-.113.089-.111.091-.111.093-.109.094-.109.095-.107.096-.106.098-.105.098-.104.1-.102.102-.101.102-.101.104-.098.105-.098.106-.096.107-.095.109-.094.109-.093.111-.091.112-.089.112-.089.114-.087.115-.086.117-.084.117-.083.118-.082.119-.08.12-.079.122-.077.122-.076.123-.074.124-.073.125-.072.126-.07.127-.068.128-.067.129-.066.13-.064.131-.062.131-.061.132-.059.134-.058.134-.056.135-.054.135-.053.137-.051.137-.05.138-.048.139-.046.14-.045.14-.043.141-.041.142-.039.142-.038.144-.036.144-.035.144-.032.145-.031.146-.029.147-.027.147-.026.148-.024.149-.021.149-.02.15-.019.151-.016.151-.014.151-.013.153-.011.152-.008.154-.007.154-.005.154-.003.155-.001.162v.988l.001.123.002.116.004.116.005.116.006.115.008.115.01.114.011.114.012.113.013.113.015.112.017.112.018.112.019.111.02.11.022.11.023.109.024.109.026.109.027.108.029.107.029.107.031.106.032.106.034.105.034.105.036.104.038.103.038.104.04.102.04.101.042.102.044.1.044.1.046.099.047.099.047.098.05.097.05.097.051.095.053.096.053.094.055.094.056.093.057.093.058.091.059.091.06.091.061.089.062.089.064.088.064.087.065.086.067.085.067.085.068.084.07.083.07.082.071.082.073.08.073.079.074.079.075.078.076.077.077.076.078.075.079.074.079.073.08.073.082.071.082.07.083.07.084.068.085.067.085.067.086.065.087.064.088.064.089.062.089.061.091.06.091.059.091.058.093.057.093.056.094.055.094.053.095.053.096.051.097.05.097.05.098.047.099.047.099.046.1.044.1.044.101.042.102.04.103.04.102.038.104.038.104.036.105.034.105.034.106.032.106.031.107.029.107.029.108.027.109.026.109.024.109.023.11.022.11.02.111.019.112.018.112.017.112.015.113.013.113.012.114.011.114.01.115.008.115.006.116.005.116.004.116.002.123.001h5.988l.123-.001.116-.002.116-.004.116-.005.115-.006.115-.008.114-.01.114-.011.113-.012.113-.013.112-.015.112-.017.112-.018.111-.019.11-.02.11-.022.109-.023.109-.024.109-.026.108-.027.107-.029.107-.029.106-.031.106-.032.105-.034.105-.034.104-.036.104-.038.102-.038.103-.04.102-.04.101-.042.1-.044.1-.044.099-.046.099-.047.098-.047.097-.05.097-.05.096-.051.095-.053.094-.053.094-.055.093-.056.093-.057.091-.058.091-.059.091-.06.089-.061.089-.062.088-.064.087-.064.086-.065.085-.067.085-.067.084-.068.083-.07.082-.07.081-.071.081-.073.079-.073.079-.074.078-.075.077-.076.076-.077.075-.078.074-.079.073-.079.073-.08.071-.082.07-.082.07-.083.068-.084.067-.085.067-.085.065-.086.064-.087.064-.088.062-.089.061-.089.06-.091.059-.091.058-.091.057-.093.056-.093.055-.094.053-.094.053-.095.051-.096.051-.097.049-.097.047-.098.047-.099.046-.099.044-.1.044-.1.042-.102.04-.101.04-.103.038-.103.038-.103.036-.104.034-.105.034-.105.032-.106.031-.106.029-.107.029-.107.027-.108.026-.109.024-.109.023-.109.022-.11.02-.111.019-.11.018-.112.017-.112.015-.112.013-.113.012-.113.011-.114.01-.114.008-.115.006-.115.005-.116.004-.116.002-.116.001-.123v-.988l-.001-.162-.003-.155-.005-.154-.007-.154-.008-.154-.011-.152-.013-.153-.014-.151-.016-.152-.019-.15-.02-.15-.021-.149-.024-.149-.026-.148-.027-.147-.029-.147-.031-.146-.032-.145-.035-.145-.036-.144-.038-.143-.039-.142-.041-.142-.043-.141-.045-.141-.046-.139-.048-.139-.05-.138-.051-.137-.053-.137-.054-.135-.056-.135-.058-.134-.059-.134-.061-.132-.062-.131-.064-.131-.066-.13-.067-.129-.068-.127-.07-.128-.072-.126-.073-.125-.074-.124-.076-.123-.077-.122-.079-.122-.08-.12-.082-.119-.083-.118-.084-.117-.086-.117-.087-.115-.089-.114-.089-.113-.091-.111-.093-.111-.094-.109-.095-.109-.096-.107-.098-.106-.098-.105-.101-.104-.101-.102-.102-.102-.104-.1-.105-.098-.106-.098-.107-.096-.109-.095-.109-.094-.111-.093-.111-.091-.113-.089-.114-.089-.115-.087-.116-.086-.118-.084-.118-.083-.119-.082-.12-.08-.122-.079-.122-.077-.123-.076-.124-.074-.125-.073-.126-.072-.127-.07-.128-.068-.129-.067-.13-.066-.131-.064-.131-.062-.132-.061-.134-.059-.134-.058-.135-.056-.135-.054-.137-.053-.137-.051-.138-.05-.139-.048-.139-.046-.141-.045-.141-.043-.142-.041-.142-.039-.144-.038-.143-.036-.145-.035-.145-.032-.146-.031-.147-.029-.147-.027-.148-.026-.149-.024-.149-.021-.15-.02-.151-.019-.151-.016-.151-.014-.153-.013-.152-.011-.154-.008-.154-.007-.154-.005-.155-.003-.156-.001-.156.001z"/><path d="m17.084 2.001.084.004.084.006.084.008.083.01.084.013.082.016.083.017.081.02.081.022.081.025.08.026.079.029.078.031.077.034.077.035.075.038.074.039.073.042.072.044.071.046.069.047.068.05.066.051.066.054.063.055.062.057.06.059 1.6 1.599.075.078.087.093.084.095.081.097.079.099.075.101.073.102.071.103.067.105.065.107.062.108.059.108.056.11.053.111.05.112.047.113.045.114.042.114.038.115.036.116.033.117.03.117.027.116.025.119.021.118.018.119.016.118.013.119.01.12.007.119.004.119.002.12-.002.119-.004.12-.007.119-.01.12-.013.119-.016.118-.018.119-.021.118-.025.119-.027.116-.03.117-.033.117-.036.116-.038.115-.042.114-.045.114-.047.113-.05.112-.053.111-.056.109-.059.109-.062.108-.065.107-.067.105-.071.103-.073.102-.075.101-.079.099-.081.097-.084.095-.087.093-.076.078-1.599 1.599-.06.059-.062.057-.063.055-.066.053-.066.052-.068.05-.069.047-.071.046-.072.044-.073.042-.074.039-.075.038-.077.035-.077.034-.078.031-.079.029-.08.026-.081.025-.081.022-.081.02-.083.017-.082.016-.084.013-.083.01-.084.008-.084.006-.084.004-.084.001-.084-.001-.084-.004-.084-.006-.084-.008-.083-.01-.084-.013-.082-.016-.083-.017-.081-.02-.082-.022-.08-.025-.08-.026-.079-.029-.078-.031-.077-.034-.077-.035-.075-.038-.074-.039-.073-.042-.072-.044-.071-.046-.069-.047-.068-.05-.066-.052-.066-.053-.063-.055-.062-.057-.06-.059-.059-.06-.057-.062-.055-.063-.053-.066-.052-.066-.05-.068-.047-.069-.046-.071-.044-.072-.042-.073-.039-.074-.038-.075-.035-.077-.034-.077-.031-.078-.029-.079-.026-.08-.025-.081-.022-.081-.02-.081-.017-.083-.016-.082-.013-.084-.01-.083-.008-.084-.006-.084-.004-.084-.001-.084.001-.084.004-.084.006-.084.008-.084.01-.083.013-.084.016-.082.017-.083.02-.081.022-.082.025-.08.026-.08.029-.079.031-.078.034-.077.035-.077.038-.075.039-.074.042-.073.044-.072.046-.071.047-.069.05-.068.052-.066.053-.066.055-.063.057-.062.059-.06.878-.879-.878-.879-.059-.06-.057-.062-.055-.063-.053-.066-.052-.066-.05-.068-.047-.069-.046-.071-.044-.072-.042-.073-.039-.074-.038-.075-.035-.077-.034-.077-.031-.078-.029-.079-.026-.08-.025-.08-.022-.082-.02-.081-.017-.083-.016-.082-.013-.084-.01-.083-.008-.084-.006-.084-.004-.084-.001-.084.001-.084.004-.084.006-.084.008-.084.01-.083.013-.084.016-.082.017-.083.02-.081.022-.082.025-.08.026-.08.029-.079.031-.078.034-.077.035-.077.038-.075.039-.074.042-.073.044-.072.046-.071.047-.069.05-.068.052-.066.053-.066.055-.063.057-.062.059-.06.06-.059.062-.057.063-.055.066-.053.066-.052.068-.05.069-.047.071-.046.072-.044.073-.042.074-.039.075-.038.077-.035.077-.034.078-.031.079-.029.08-.026.08-.025.082-.022.081-.02.083-.017.082-.016.084-.013.083-.01.084-.008.084-.006.084-.004.084-.001.084.001z"/><path d="m29.084 2.001.084.004.084.006.084.008.083.01.084.013.082.016.083.017.081.02.082.022.08.025.08.026.079.029.078.031.077.034.077.035.075.038.074.039.073.042.072.044.071.046.069.047.068.05.066.052.066.053.063.055.062.057.06.059.059.06.057.062.055.063.053.066.052.066.05.068.047.069.046.071.044.072.042.073.039.074.038.075.035.077.034.077.031.078.029.079.026.08.025.08.022.082.02.081.017.083.016.082.013.084.01.083.008.084.006.084.004.084.001.084-.001.084-.004.084-.006.084-.008.084-.01.083-.013.084-.016.082-.017.083-.02.081-.022.082-.025.08-.026.08-.029.079-.031.078-.034.077-.035.077-.038.075-.039.074-.042.073-.044.072-.046.071-.047.069-.05.068-.052.066-.053.066-.055.063-.057.062-.059.06-.878.879.878.879.059.06.057.062.055.063.053.066.052.066.05.068.047.069.046.071.044.072.042.073.039.074.038.075.035.077.034.077.031.078.029.079.026.08.025.08.022.082.02.081.017.083.016.082.013.084.01.083.008.084.006.084.004.084.001.084-.001.084-.004.084-.006.084-.008.084-.01.083-.013.084-.016.082-.017.083-.02.081-.022.081-.025.081-.026.08-.029.079-.031.078-.034.077-.035.077-.038.075-.039.074-.042.073-.044.072-.046.071-.047.069-.05.068-.052.066-.053.066-.055.063-.057.062-.059.06-.06.059-.062.057-.063.055-.066.053-.066.052-.068.05-.069.047-.071.046-.072.044-.073.042-.074.039-.075.038-.077.035-.077.034-.078.031-.079.029-.08.026-.08.025-.082.022-.081.02-.083.017-.082.016-.084.013-.083.01-.084.008-.084.006-.084.004-.084.001-.084-.001-.084-.004-.084-.006-.084-.008-.083-.01-.084-.013-.082-.016-.083-.017-.081-.02-.081-.022-.081-.025-.08-.026-.079-.029-.078-.031-.077-.034-.077-.035-.075-.038-.074-.039-.073-.042-.072-.044-.071-.046-.069-.047-.068-.05-.066-.052-.066-.053-.063-.055-.062-.057-.06-.059-1.599-1.599-.076-.078-.087-.093-.084-.095-.081-.097-.079-.099-.075-.101-.073-.102-.071-.103-.067-.105-.065-.107-.062-.108-.059-.109-.056-.109-.053-.111-.05-.112-.047-.113-.045-.114-.042-.114-.038-.115-.036-.116-.033-.117-.03-.117-.027-.116-.025-.119-.021-.118-.018-.119-.016-.118-.013-.119-.01-.12-.007-.119-.004-.12-.002-.119.002-.12.004-.119.007-.119.01-.12.013-.119.016-.118.018-.119.021-.118.025-.119.027-.116.03-.117.033-.117.036-.116.038-.115.042-.114.045-.114.047-.113.05-.112.053-.111.056-.11.059-.108.062-.108.065-.107.067-.105.071-.103.073-.102.075-.101.079-.099.081-.097.084-.095.087-.093.075-.078 1.6-1.599.06-.059.062-.057.063-.055.066-.054.066-.051.068-.05.069-.047.071-.046.072-.044.073-.042.074-.039.075-.038.077-.035.077-.034.078-.031.079-.029.08-.026.081-.025.081-.022.081-.02.083-.017.082-.016.084-.013.083-.01.084-.008.084-.006.084-.004.084-.001.084.001z"/><path d="m23.119 7.83.12.004.12.007.119.01.119.013.118.016.119.018.118.022.118.024.118.027.117.03.116.033.116.036.115.038.114.042.114.045.113.047.112.05.111.053.11.057.109.058.107.062.107.065.105.067.103.07.102.074.101.075.099.079.097.081.095.084.094.087.077.076 1.599 1.599.059.06.057.062.055.063.053.066.052.066.05.068.047.069.046.071.044.072.042.073.039.074.038.075.035.077.034.077.031.078.029.079.026.08.025.08.022.082.02.081.017.083.016.082.013.084.01.083.008.084.006.084.004.084.001.084-.001.084-.004.084-.006.084-.008.084-.01.083-.013.084-.016.082-.017.083-.02.081-.022.082-.025.08-.026.08-.029.079-.031.078-.034.077-.035.077-.038.075-.039.074-.042.073-.044.072-.046.071-.047.069-.05.068-.052.066-.053.066-.055.063-.057.062-.059.06-.06.059-.062.057-.063.055-.066.053-.066.052-.068.05-.069.047-.071.046-.072.044-.073.042-.074.039-.075.038-.077.035-.077.034-.078.031-.079.029-.08.026-.08.025-.082.022-.081.02-.083.017-.082.016-.084.013-.083.01-.084.008-.084.006-.084.004-.084.001-.084-.001-.084-.004-.084-.006-.084-.008-.083-.01-.084-.013-.082-.016-.083-.017-.081-.02-.081-.022-.081-.025-.08-.026-.079-.029-.078-.031-.077-.034-.077-.035-.075-.038-.074-.039-.073-.042-.072-.044-.071-.046-.069-.047-.068-.05-.066-.051-.066-.054-.063-.055-.062-.057-.06-.059-.879-.878-.879.878-.06.059-.062.057-.063.055-.066.054-.066.051-.068.05-.069.047-.071.046-.072.044-.073.042-.074.039-.075.038-.077.035-.077.034-.078.031-.079.029-.08.026-.081.025-.081.022-.081.02-.083.017-.082.016-.084.013-.083.01-.084.008-.084.006-.084.004-.084.001-.084-.001-.084-.004-.084-.006-.084-.008-.083-.01-.084-.013-.082-.016-.083-.017-.081-.02-.082-.022-.08-.025-.08-.026-.079-.029-.078-.031-.077-.034-.077-.035-.075-.038-.074-.039-.073-.042-.072-.044-.071-.046-.069-.047-.068-.05-.066-.052-.066-.053-.063-.055-.062-.057-.06-.059-.059-.06-.057-.062-.055-.063-.053-.066-.052-.066-.05-.068-.047-.069-.046-.071-.044-.072-.042-.073-.039-.074-.038-.075-.035-.077-.034-.077-.031-.078-.029-.079-.026-.08-.025-.08-.022-.082-.02-.081-.017-.083-.016-.082-.013-.084-.01-.083-.008-.084-.006-.084-.004-.084-.001-.084.001-.084.004-.084.006-.084.008-.084.01-.083.013-.084.016-.082.017-.083.02-.081.022-.082.025-.08.026-.08.029-.079.031-.078.034-.077.035-.077.038-.075.039-.074.042-.073.044-.072.046-.071.047-.069.05-.068.052-.066.053-.066.055-.063.057-.062.059-.06 1.599-1.599.077-.076.094-.087.095-.084.097-.081.099-.079.101-.075.102-.074.103-.07.105-.067.107-.065.107-.062.109-.058.11-.057.111-.053.112-.05.113-.047.114-.045.114-.042.115-.038.116-.036.116-.033.117-.03.118-.027.118-.024.118-.022.119-.018.118-.016.119-.013.119-.01.12-.007.12-.004.119-.002z"/><path d="m26.084.001.084.004.084.006.084.008.083.01.084.013.082.016.083.017.081.02.082.022.08.025.08.026.079.029.078.031.077.034.077.035.075.038.074.039.073.042.072.044.071.046.069.047.068.05.066.052.066.053.063.055.062.057.06.059.059.06.057.062.055.063.053.066.052.066.05.068.047.069.046.071.044.072.042.073.039.074.038.075.035.077.034.077.031.078.029.079.026.08.025.081.022.081.02.081.017.083.016.082.013.084.01.083.008.084.006.084.004.084.001.084-.001.084-.004.084-.006.084-.008.084-.01.083-.013.084-.016.082-.017.083-.02.081-.022.082-.025.08-.026.08-.029.079-.031.078-.034.077-.035.077-.038.075-.039.074-.042.073-.044.072-.046.071-.047.069-.05.068-.052.066-.053.066-.055.063-.057.062-.059.06-1.599 1.599-.078.076-.093.087-.095.084-.097.081-.099.079-.101.075-.102.074-.104.07-.104.067-.107.065-.107.062-.109.058-.11.057-.111.053-.112.05-.113.047-.114.045-.114.042-.115.038-.116.036-.116.033-.117.03-.118.027-.118.024-.118.022-.119.018-.118.016-.119.013-.12.01-.119.007-.12.004-.119.002-.119-.002-.12-.004-.119-.007-.12-.01-.119-.013-.118-.016-.119-.018-.118-.022-.118-.024-.118-.027-.117-.03-.116-.033-.116-.036-.115-.038-.114-.042-.114-.045-.113-.047-.112-.05-.111-.053-.11-.057-.109-.058-.107-.062-.107-.065-.104-.067-.104-.07-.102-.074-.101-.075-.099-.079-.097-.081-.095-.084-.093-.087-.078-.076-1.599-1.599-.059-.06-.057-.062-.055-.063-.053-.066-.052-.066-.05-.068-.047-.069-.046-.071-.044-.072-.042-.073-.039-.074-.038-.075-.035-.077-.034-.077-.031-.078-.029-.079-.026-.08-.025-.08-.022-.082-.02-.081-.017-.083-.016-.082-.013-.084-.01-.083-.008-.084-.006-.084-.004-.084-.001-.084.001-.084.004-.084.006-.084.008-.084.01-.083.013-.084.016-.082.017-.083.02-.081.022-.081.025-.081.026-.08.029-.079.031-.078.034-.077.035-.077.038-.075.039-.074.042-.073.044-.072.046-.071.047-.069.05-.068.052-.066.053-.066.055-.063.057-.062.059-.06.06-.059.062-.057.063-.055.066-.053.066-.052.068-.05.069-.047.071-.046.072-.044.073-.042.074-.039.075-.038.077-.035.077-.034.078-.031.079-.029.08-.026.08-.025.082-.022.081-.02.083-.017.082-.016.084-.013.083-.01.084-.008.084-.006.084-.004.084-.001.084.001.084.004.084.006.084.008.083.01.084.013.082.016.083.017.081.02.081.022.081.025.08.026.079.029.078.031.077.034.077.035.075.038.074.039.073.042.072.044.071.046.069.047.068.05.066.052.066.053.063.055.062.057.06.059.879.878.879-.878.06-.059.062-.057.063-.055.066-.053.066-.052.068-.05.069-.047.071-.046.072-.044.073-.042.074-.039.075-.038.077-.035.077-.034.078-.031.079-.029.08-.026.081-.025.081-.022.081-.02.083-.017.082-.016.084-.013.083-.01.084-.008.084-.006.084-.004.084-.001.084.001z"/><path d="m30 18c0-7.732-6.268-14-14-14-7.732 0-14 6.268-14 14v1c0 6.075 4.925 11 11 11h6c6.075 0 11-4.925 11-11 0-.332 0-.665 0-1z" fill="#fbc546"/><path d="m16.132 20.501.131.005.13.006.129.01.129.012.129.015.127.018.127.02.126.023.126.026.124.028.124.03.122.033.122.036.121.038.119.04.119.043.118.045.116.048.115.05.114.052.113.054.112.057.11.059.109.061.108.063.106.065.105.068.104.07.102.071.1.074.099.076.098.077.096.08.094.082.093.083.091.086.089.087.087.089.086.091.084.093.082.094.08.097.078.098.077.1.074.101.072.103.071.105.068.106.066.108.064.109.062.111.059.113.058.114.055.115.053.117.05.118.048.12.046.12.043.122.041.124.038.125.036.125.032.122.031.125.013.062.01.062.005.063.002.062-.002.063-.007.063-.01.062-.014.061-.018.06-.022.059-.025.058-.029.055-.032.054-.036.052-.039.049-.041.047-.045.044-.047.042-.05.038-.053.035-.054.031-.056.029-.058.024-.059.021-.06.017-.062.013-.062.01-.063.005-.062.002-.063-.002-.063-.007-.062-.01-.061-.014-.06-.018-.059-.022-.058-.025-.055-.029-.054-.032-.052-.036-.049-.039-.047-.041-.044-.045-.042-.047-.038-.05-.035-.053-.031-.054-.029-.056-.024-.058-.021-.059-.017-.06-.029-.116-.024-.09-.024-.086-.026-.084-.027-.083-.029-.082-.031-.081-.032-.081-.034-.079-.036-.079-.037-.077-.038-.077-.041-.075-.041-.075-.043-.074-.045-.072-.045-.072-.048-.07-.048-.069-.05-.069-.052-.067-.052-.066-.054-.065-.056-.063-.056-.063-.058-.061-.059-.06-.06-.059-.061-.058-.063-.056-.063-.055-.065-.054-.065-.052-.067-.051-.068-.05-.069-.048-.07-.047-.07-.045-.072-.044-.072-.043-.074-.041-.074-.04-.075-.038-.076-.036-.077-.036-.078-.033-.078-.032-.079-.031-.08-.028-.081-.027-.081-.026-.081-.024-.083-.022-.083-.021-.084-.018-.084-.018-.085-.015-.085-.014-.086-.012-.086-.01-.087-.008-.087-.007-.088-.004-.088-.003-.09-.001-.09.001-.088.003-.088.004-.087.007-.087.008-.086.01-.086.012-.085.014-.085.015-.084.018-.084.018-.083.021-.083.022-.081.024-.081.026-.081.027-.08.028-.079.031-.078.032-.078.033-.077.036-.076.036-.075.038-.074.04-.074.041-.072.043-.072.044-.07.045-.07.047-.069.048-.068.05-.067.051-.065.052-.065.054-.063.055-.063.056-.061.058-.06.059-.059.06-.058.061-.056.063-.056.063-.054.065-.052.066-.052.067-.05.069-.048.069-.048.07-.045.072-.045.072-.043.074-.041.075-.041.075-.038.077-.037.077-.036.079-.034.079-.032.081-.031.081-.029.082-.027.083-.026.084-.024.086-.024.09-.029.116-.017.06-.021.059-.024.058-.029.056-.031.054-.035.053-.038.05-.042.047-.044.045-.047.041-.049.039-.052.036-.054.032-.055.029-.058.025-.059.022-.06.018-.061.014-.062.01-.063.007-.063.002-.062-.002-.063-.005-.062-.01-.062-.013-.06-.017-.059-.021-.058-.024-.056-.029-.054-.031-.053-.035-.05-.038-.047-.042-.045-.044-.041-.047-.039-.049-.036-.052-.032-.054-.029-.055-.025-.058-.022-.059-.018-.06-.014-.061-.01-.062-.007-.063-.002-.063.002-.062.005-.063.01-.062.013-.062.031-.125.032-.122.036-.125.038-.125.041-.124.043-.122.046-.12.048-.12.05-.118.053-.117.055-.115.058-.114.059-.113.062-.111.064-.109.066-.108.068-.106.071-.105.072-.103.074-.101.077-.1.078-.098.08-.097.082-.094.084-.093.086-.091.087-.089.089-.087.091-.086.093-.083.094-.082.096-.08.098-.077.099-.076.1-.074.102-.071.104-.07.105-.068.106-.065.108-.063.109-.061.11-.059.112-.057.113-.054.114-.052.115-.05.116-.048.118-.045.119-.043.119-.04.121-.038.122-.036.122-.033.124-.03.124-.028.126-.026.126-.023.127-.02.127-.018.129-.015.129-.012.129-.01.13-.006.131-.005.126-.001h.012z" fill="#593604"/><path d="m8 15c0-.265.105-.52.293-.707.187-.188.442-.293.707-.293l3 3v1c0 .53-.211 1.039-.586 1.414s-.884.586-1.414.586c-1.105 0-2-.895-2-2 0-1.007 0-2.185 0-3z"/><path d="m20 17 3-3h.001c.552 0 .999.447.999.999v3.003c0 1.103-.895 1.998-1.998 1.998-.001 0-.003 0-.004 0-1.103 0-1.998-.895-1.998-1.998 0-.552 0-1.002 0-1.002z"/><g fill="#f00"><path d="m17.06 4.002.049.004.047.006.048.009.047.011.047.013.045.016.045.017.044.02.043.022.042.024.041.026.04.028.038.03.036.032.035.033 1.59 1.59.05.051.052.056.05.057.049.059.047.059.046.06.044.061.042.063.04.062.039.064.037.065.035.065.034.065.031.067.03.067.029.068.027.068.024.068.024.069.021.07.02.07.018.07.016.07.015.071.013.071.011.071.009.072.008.071.006.072.004.071.003.072.001.072-.001.072-.003.072-.004.071-.006.072-.008.071-.009.072-.011.071-.013.071-.015.071-.016.07-.018.07-.02.07-.021.07-.024.069-.024.068-.027.069-.029.067-.03.067-.031.067-.034.065-.035.065-.037.065-.039.064-.04.063-.042.062-.044.061-.046.06-.047.059-.049.059-.05.057-.052.056-.05.051-1.59 1.59-.035.033-.036.032-.038.03-.04.028-.041.026-.042.024-.043.022-.044.02-.045.017-.045.016-.047.013-.047.011-.048.009-.047.006-.049.004-.048.002-.048-.001-.048-.003-.049-.005-.047-.007-.048-.01-.046-.012-.046-.015-.046-.016-.044-.019-.044-.021-.043-.023-.041-.025-.04-.027-.039-.029-.037-.031-.036-.032-.034-.034-.032-.036-.031-.037-.029-.039-.027-.04-.025-.041-.023-.043-.021-.044-.019-.044-.016-.046-.015-.046-.012-.046-.01-.048-.007-.047-.005-.049-.003-.048-.001-.048.002-.048.004-.049.006-.047.009-.048.011-.047.013-.047.016-.045.017-.045.02-.044.022-.043.024-.042.026-.041.028-.04.03-.038.032-.036.033-.035 1.581-1.581.023-.024.018-.019.017-.019.016-.02.016-.02.015-.02.015-.02.014-.021.013-.02.013-.021.012-.022.011-.021.012-.022.01-.022.01-.022.009-.022.009-.023.008-.022.008-.023.007-.024.007-.023.006-.023.005-.024.005-.023.004-.024.004-.024.003-.024.003-.024.002-.024.001-.024.001-.024.001-.024-.001-.024-.001-.024-.001-.024-.002-.024-.003-.024-.003-.024-.004-.024-.004-.024-.005-.023-.005-.024-.006-.023-.007-.023-.007-.024-.008-.023-.008-.022-.009-.023-.009-.022-.01-.022-.01-.022-.012-.022-.011-.021-.012-.022-.013-.021-.014-.02-.013-.021-.015-.02-.015-.02-.016-.02-.016-.02-.017-.019-.018-.019-.023-.024-1.581-1.581-.033-.035-.032-.036-.03-.038-.028-.04-.026-.041-.024-.042-.022-.043-.02-.044-.017-.045-.016-.045-.013-.047-.011-.047-.009-.048-.006-.047-.004-.049-.002-.048.001-.048.003-.048.005-.049.007-.047.01-.048.012-.046.015-.046.016-.046.019-.044.021-.044.023-.043.025-.041.027-.04.029-.039.031-.037.032-.036.034-.034.036-.032.037-.031.039-.029.04-.027.041-.025.043-.023.044-.021.044-.019.046-.016.046-.015.046-.012.048-.01.047-.007.049-.005.048-.003.048-.001.048.002z"/><path d="m29.036 4.001.048.003.049.005.047.007.048.01.046.012.046.015.046.016.044.019.044.021.043.023.041.025.04.027.039.029.037.031.036.032.034.034.032.036.031.037.029.039.027.04.025.041.023.043.021.044.019.044.016.046.015.046.012.046.01.048.007.047.005.049.003.048.001.048-.002.048-.004.049-.006.047-.009.048-.011.047-.013.047-.016.045-.017.045-.02.044-.022.043-.024.042-.026.041-.028.04-.03.038-.032.036-.033.035-1.581 1.581-.023.024-.018.019-.017.019-.016.02-.016.02-.015.02-.015.02-.013.021-.014.02-.013.021-.012.022-.011.021-.012.022-.01.022-.01.022-.009.022-.009.023-.008.022-.008.023-.007.024-.007.023-.006.023-.005.024-.005.023-.004.024-.004.024-.003.024-.003.024-.002.024-.001.024-.001.024-.001.024.001.024.001.024.001.024.002.024.003.024.003.024.004.024.004.024.005.023.005.024.006.023.007.023.007.024.008.023.008.022.009.023.009.022.01.022.01.022.012.022.011.021.012.022.013.021.013.02.014.021.015.02.015.02.016.02.016.02.017.019.018.019.023.024 1.581 1.581.033.035.032.036.03.038.028.04.026.041.024.042.022.043.02.044.017.045.016.045.013.047.011.047.009.048.006.047.004.049.002.048-.001.048-.003.048-.005.049-.007.047-.01.048-.012.046-.015.046-.016.046-.019.044-.021.044-.023.043-.025.041-.027.04-.029.039-.031.037-.032.036-.034.034-.036.032-.037.031-.039.029-.04.027-.041.025-.043.023-.044.021-.044.019-.046.016-.046.015-.046.012-.048.01-.047.007-.049.005-.048.003-.048.001-.048-.002-.049-.004-.047-.006-.048-.009-.047-.011-.047-.013-.045-.016-.045-.017-.044-.02-.043-.022-.042-.024-.041-.026-.04-.028-.038-.03-.036-.032-.035-.033-1.59-1.59-.05-.051-.052-.056-.05-.057-.049-.059-.047-.059-.046-.06-.044-.061-.042-.062-.04-.063-.039-.064-.037-.065-.035-.065-.034-.065-.031-.067-.03-.067-.029-.067-.027-.069-.024-.068-.024-.069-.021-.07-.02-.07-.018-.07-.016-.07-.015-.071-.013-.071-.011-.071-.009-.072-.008-.071-.006-.072-.004-.071-.003-.072-.001-.072.001-.072.003-.072.004-.071.006-.072.008-.071.009-.072.011-.071.013-.071.015-.071.016-.07.018-.07.02-.07.021-.07.024-.069.024-.068.027-.068.029-.068.03-.067.031-.067.034-.065.035-.065.037-.065.039-.064.04-.062.042-.063.044-.061.046-.06.047-.059.049-.059.05-.057.052-.056.05-.051 1.59-1.59.035-.033.036-.032.038-.03.04-.028.041-.026.042-.024.043-.022.044-.02.045-.017.045-.016.047-.013.047-.011.048-.009.047-.006.049-.004.048-.002.048.001z"/><path d="m23.072 9.829.072.003.071.004.072.006.071.008.072.009.071.011.071.013.071.015.07.016.071.018.069.02.07.021.069.024.068.024.069.027.067.028.067.031.067.031.065.034.065.035.065.037.064.039.062.04.063.042.061.044.06.046.059.047.059.049.057.05.056.052.051.05 1.59 1.59.033.035.032.036.03.038.028.04.026.041.024.042.022.043.02.044.017.045.016.045.013.047.011.047.009.048.006.047.004.049.002.048-.001.048-.003.048-.005.049-.007.047-.01.048-.012.046-.015.046-.016.046-.019.044-.021.044-.023.043-.025.041-.027.04-.029.039-.031.037-.032.036-.034.034-.036.032-.037.031-.039.029-.04.027-.041.025-.043.023-.044.021-.044.019-.046.016-.046.015-.046.012-.048.01-.047.007-.049.005-.048.003-.048.001-.048-.002-.049-.004-.047-.006-.048-.009-.047-.011-.047-.013-.045-.016-.045-.017-.044-.02-.043-.022-.042-.024-.041-.026-.04-.028-.038-.03-.036-.032-.035-.033-1.582-1.581-.023-.023-.019-.018-.019-.017-.02-.016-.02-.016-.02-.015-.02-.015-.021-.013-.02-.014-.021-.013-.022-.012-.021-.012-.022-.011-.022-.01-.022-.01-.022-.009-.023-.009-.022-.008-.023-.008-.023-.007-.024-.007-.023-.006-.024-.005-.023-.005-.024-.004-.024-.004-.024-.003-.024-.003-.024-.002-.024-.001-.024-.001-.024-.001-.024.001-.024.001-.024.001-.024.002-.024.003-.024.003-.024.004-.024.004-.023.005-.024.005-.023.006-.024.007-.023.007-.023.008-.022.008-.023.009-.022.009-.022.01-.022.01-.022.011-.021.012-.022.012-.021.013-.02.014-.021.013-.02.015-.02.015-.02.016-.02.016-.019.017-.019.018-.023.023-1.582 1.581-.035.033-.036.032-.038.03-.04.028-.041.026-.042.024-.043.022-.044.02-.045.017-.045.016-.047.013-.047.011-.048.009-.047.006-.049.004-.048.002-.048-.001-.048-.003-.049-.005-.047-.007-.048-.01-.046-.012-.046-.015-.046-.016-.044-.019-.044-.021-.043-.023-.041-.025-.04-.027-.039-.029-.037-.031-.036-.032-.034-.034-.032-.036-.031-.037-.029-.039-.027-.04-.025-.041-.023-.043-.021-.044-.019-.044-.016-.046-.015-.046-.012-.046-.01-.048-.007-.047-.005-.049-.003-.048-.001-.048.002-.048.004-.049.006-.047.009-.048.011-.047.013-.047.016-.045.017-.045.02-.044.022-.043.024-.042.026-.041.028-.04.03-.038.032-.036.033-.035 1.59-1.59.051-.05.056-.052.057-.05.059-.049.059-.047.06-.046.061-.044.063-.042.062-.04.064-.039.065-.037.065-.035.065-.034.067-.031.067-.031.067-.028.069-.027.068-.024.069-.024.07-.021.069-.02.071-.018.07-.016.071-.015.071-.013.071-.011.072-.009.071-.008.072-.006.071-.004.072-.003.072-.001.072.001z"/><path d="m26.036 2.001.048.003.049.005.047.007.048.01.046.012.046.015.046.016.044.019.044.021.043.023.041.025.04.027.039.029.037.031.036.032.034.034.032.036.031.037.029.039.027.04.025.041.023.043.021.044.019.044.016.046.015.046.012.046.01.048.007.047.005.049.003.048.001.048-.002.048-.004.049-.006.047-.009.048-.011.047-.013.047-.016.045-.017.045-.02.044-.022.043-.024.042-.026.041-.028.04-.03.038-.032.036-.033.035-1.59 1.59-.051.05-.056.052-.057.05-.059.049-.059.047-.06.046-.061.044-.063.042-.062.04-.064.039-.064.037-.066.035-.066.034-.066.031-.067.03-.068.029-.068.027-.068.024-.069.024-.07.021-.069.02-.071.018-.07.016-.071.015-.071.013-.071.011-.072.009-.071.008-.072.006-.071.004-.072.003-.072.001-.072-.001-.072-.003-.071-.004-.072-.006-.071-.008-.072-.009-.071-.011-.071-.013-.071-.015-.07-.016-.071-.018-.069-.02-.07-.021-.069-.024-.068-.024-.068-.027-.068-.029-.067-.03-.066-.031-.066-.034-.066-.035-.064-.037-.064-.039-.062-.04-.063-.042-.061-.044-.06-.046-.059-.047-.059-.049-.057-.05-.056-.052-.051-.05-1.59-1.59-.033-.035-.032-.036-.03-.038-.028-.04-.026-.041-.024-.042-.022-.043-.02-.044-.017-.045-.016-.045-.013-.047-.011-.047-.009-.048-.006-.047-.004-.049-.002-.048.001-.048.003-.048.005-.049.007-.047.01-.048.012-.046.015-.046.016-.046.019-.044.021-.044.023-.043.025-.041.027-.04.029-.039.031-.037.032-.036.034-.034.036-.032.037-.031.039-.029.04-.027.041-.025.043-.023.044-.021.044-.019.046-.016.046-.015.046-.012.048-.01.047-.007.049-.005.048-.003.048-.001.048.002.049.004.047.006.048.009.047.011.047.013.045.016.045.017.044.02.043.022.042.024.041.026.04.028.038.03.036.032.035.033 1.581 1.581.024.023.019.018.019.017.02.016.02.016.02.015.02.015.021.013.02.014.021.013.022.012.021.012.022.011.022.01.022.01.022.009.023.009.022.008.023.008.023.007.024.007.023.006.023.005.024.005.024.004.024.004.024.003.024.003.024.002.024.001.024.001h.024.024l.024-.001.024-.001.024-.002.024-.003.024-.003.024-.004.024-.004.024-.005.023-.005.023-.006.024-.007.023-.007.023-.008.022-.008.023-.009.022-.009.022-.01.022-.01.022-.011.021-.012.022-.012.021-.013.02-.014.021-.013.02-.015.02-.015.02-.016.02-.016.019-.017.019-.018.024-.023 1.581-1.581.035-.033.036-.032.038-.03.04-.028.041-.026.042-.024.043-.022.044-.02.045-.017.045-.016.047-.013.047-.011.048-.009.047-.006.049-.004.048-.002.048.001z"/></g></g></svg>