<svg clip-rule="evenodd" fill-rule="evenodd" stroke-linejoin="round" stroke-miterlimit="1.41421" viewBox="0 0 32 32" xmlns="http://www.w3.org/2000/svg" xmlns:xlink="http://www.w3.org/1999/xlink"><clipPath id="a"><path clip-rule="evenodd" d="m0 .008h32v32h-32z"/></clipPath><path d="m0 .008h32v32h-32z" fill="none"/><g clip-path="url(#a)"><path d="m16.199.01.198.003.198.006.198.009.198.011.197.013.197.016.196.019.196.02.196.023.195.026.195.028.194.03.193.032.194.035.192.038.192.039.191.042.191.044.19.047.189.049.189.051.188.053.188.056.186.058.186.06.185.063.184.064.183.067.183.069.181.072.181.073.18.076.179.078.178.08.176.082.176.085.176.087.173.088.173.091.172.093.171.095.169.098.169.099.167.102.166.103.165.106.164.108.162.109.161.112.16.114.159.116.157.118.156.12.155.122.153.124.152.126.15.128.149.13.148.132.146.133.144.136.143.138.142.14.139.141.138.143.136.145.134.145.132.148.13.149.128.15.126.152.124.153.122.155.119.156.118.157.116.159.114.16.112.161.11.163.108.163.105.165.104.166.101.168.1.168.097.17.095.17.093.172.091.173.089.174.086.175.085.176.082.177.08.178.078.179.076.179.074.181.071.182.069.182.067.184.065.183.062.185.06.186.058.187.056.187.054.188.051.189.048.189.047.19.044.191.042.191.04.192.037.193.035.193.033.194.03.194.028.194.025.196.023.195.021.196.018.196.016.197.013.198.011.197.009.198.006.198.004.198.001.193v3.013l-.001.161-.003.167-.005.167-.008.165-.009.166-.012.166-.013.164-.016.164-.018.164-.019.163-.022.162-.024.161-.025.162-.028.16-.03.16-.031.159-.034.159-.035.157-.037.157-.039.157-.041.155-.043.155-.045.154-.047.154-.048.152-.05.152-.053.15-.053.15-.056.149-.057.148-.06.148-.06.146-.063.146-.064.144-.066.144-.068.142-.069.142-.071.141-.073.14-.074.138-.076.138-.078.137-.079.135-.08.135-.082.133-.084.133-.085.131-.087.13-.089.129-.09.128-.091.127-.093.126-.094.124-.096.124-.097.121-.098.121-.1.12-.102.118-.102.118-.105.116-.105.114-.107.114-.108.112-.11.111-.11.109-.113.109-.113.106-.115.106-.116.104-.117.103-.118.101-.12.1-.121.099-.122.097-.123.095-.125.095-.125.093-.127.091-.128.09-.129.088-.13.087-.132.085-.132.084-.134.082-.134.081-.136.079-.136.077-.138.076-.139.074-.139.073-.141.071-.142.069-.143.068-.143.066-.145.064-.145.063-.147.061-.147.059-.148.057-.149.056-.15.054-.151.052-.151.05-.153.049-.153.046-.154.045-.155.043-.156.041-.156.039-.157.037-.158.036-.158.033-.159.032-.16.029-.161.028-.161.026-.161.023-.163.022-.163.02-.163.017-.164.016-.165.014-.165.011-.166.01-.166.007-.166.005-.168.003-.161.001h-6.012l-.161-.001-.168-.003-.166-.005-.166-.007-.166-.01-.165-.011-.165-.014-.164-.016-.163-.017-.163-.02-.163-.022-.161-.023-.161-.026-.161-.028-.16-.029-.159-.032-.158-.033-.158-.036-.157-.037-.156-.039-.156-.041-.155-.043-.154-.045-.153-.046-.153-.049-.151-.05-.151-.052-.15-.054-.149-.056-.148-.057-.147-.059-.147-.061-.145-.063-.145-.064-.143-.066-.143-.068-.142-.069-.141-.071-.139-.073-.139-.074-.138-.076-.136-.077-.136-.079-.135-.081-.133-.082-.132-.084-.132-.085-.13-.087-.129-.088-.128-.09-.127-.092-.125-.092-.125-.095-.123-.095-.122-.097-.121-.099-.12-.1-.118-.101-.117-.103-.116-.104-.115-.106-.114-.107-.111-.108-.111-.109-.11-.111-.108-.112-.107-.114-.105-.114-.105-.116-.102-.118-.102-.118-.1-.12-.098-.12-.097-.123-.096-.123-.094-.124-.093-.126-.092-.127-.089-.128-.089-.129-.086-.13-.086-.131-.084-.133-.082-.133-.08-.135-.08-.135-.077-.137-.076-.138-.074-.138-.073-.14-.071-.141-.069-.141-.068-.143-.066-.144-.064-.144-.063-.146-.061-.146-.059-.148-.057-.148-.056-.149-.053-.15-.053-.15-.05-.152-.048-.153-.047-.153-.045-.154-.043-.154-.041-.156-.039-.157-.037-.157-.036-.157-.033-.159-.031-.159-.03-.16-.028-.16-.025-.161-.024-.162-.022-.162-.019-.163-.018-.164-.016-.164-.013-.164-.012-.166-.009-.165-.008-.166-.005-.167-.003-.167-.001-.161v-3.013l.001-.2.004-.206.007-.205.009-.204.011-.204.015-.204.016-.202.019-.202.022-.201.024-.201.027-.2.029-.199.032-.198.034-.197.036-.197.039-.196.041-.195.044-.194.046-.193.048-.193.05-.191.053-.191.055-.189.058-.189.059-.187.062-.187.064-.185.066-.185.069-.183.07-.183.073-.181.075-.18.077-.179.079-.178.082-.177.083-.175.085-.175.088-.173.089-.172.091-.17.094-.17.095-.168.097-.167.1-.166.101-.164.103-.163.105-.162.107-.16.108-.159.111-.157.112-.156.115-.155.116-.153.117-.152.12-.15.121-.149.123-.147.125-.146.127-.144.128-.143.13-.141.131-.14.133-.138.135-.136.137-.135.138-.133.139-.132.142-.13.142-.128.145-.126.145-.125.148-.123.148-.122.151-.119.152-.118.153-.116.154-.114.156-.113.158-.11.159-.109.16-.107.162-.105.163-.103.164-.101.165-.099.167-.098.169-.095.169-.093.171-.092.172-.089.173-.088.174-.085.176-.083.176-.081.178-.079.179-.077.181-.075.181-.073.182-.071.184-.068.184-.066.186-.065.186-.061.188-.06.188-.057.19-.056.19-.052.192-.051.192-.048.193-.046.195-.043.195-.042.195-.038.197-.037.198-.034.198-.031.199-.03.2-.026.2-.024.201-.022.202-.019.203-.017.203-.014.204-.012.205-.009.205-.006.206-.004.206-.002.199.002zm-.355 3.999-.155.003-.154.005-.154.007-.154.009-.152.01-.153.013-.151.014-.151.017-.151.018-.15.02-.149.022-.149.023-.148.026-.147.027-.147.029-.146.031-.145.033-.145.034-.143.036-.144.038-.142.039-.142.042-.141.043-.141.044-.139.046-.139.048-.138.05-.137.051-.137.053-.136.055-.134.056-.134.057-.133.059-.133.061-.131.063-.131.064-.13.065-.129.067-.128.069-.127.07-.126.071-.125.073-.124.074-.123.076-.122.078-.122.078-.12.081-.119.081-.118.083-.117.085-.117.085-.115.087-.114.089-.113.09-.111.091-.111.092-.109.094-.109.095-.107.096-.106.098-.105.099-.104.1-.102.101-.102.103-.1.103-.098.105-.098.106-.096.107-.095.109-.094.11-.093.11-.091.112-.089.113-.089.114-.087.115-.086.116-.084.117-.083.118-.082.119-.08.121-.079.121-.077.122-.076.123-.074.125-.073.125-.072.126-.07.127-.068.128-.067.129-.066.129-.064.131-.062.132-.061.132-.059.133-.058.134-.056.135-.054.136-.053.136-.051.137-.05.138-.048.139-.046.14-.045.14-.043.141-.041.142-.039.143-.038.143-.036.144-.035.145-.032.145-.031.146-.029.146-.027.148-.026.148-.024.148-.021.15-.02.15-.019.15-.016.151-.014.152-.013.152-.011.153-.008.153-.007.154-.005.155-.003.155-.001.162v2.987l.001.123.002.117.004.116.005.115.006.115.008.115.01.114.011.114.012.113.013.113.015.113.017.111.018.112.019.111.02.11.022.111.023.109.024.109.026.108.027.108.029.107.029.107.031.107.032.106.034.105.034.104.036.104.038.104.038.103.04.102.041.102.041.101.044.1.044.101.046.099.046.098.048.098.05.097.05.097.051.096.053.095.053.095.055.093.056.094.057.092.058.092.059.091.06.09.061.089.062.089.064.088.064.087.065.086.067.086.067.084.068.084.07.083.07.083.071.081.073.08.073.08.074.079.075.077.076.077.077.076.078.075.079.075.079.073.08.072.082.071.082.071.083.069.084.068.084.068.086.066.086.065.088.065.087.063.089.062.089.061.091.061.091.059.091.058.093.057.093.055.094.055.094.054.095.052.096.052.097.05.097.049.098.048.099.047.099.045.1.045.1.043.101.042.102.041.103.039.103.039.103.037.104.036.105.035.105.033.106.032.106.031.107.03.107.028.108.027.109.026.109.024.109.023.11.022.11.021.111.019.112.018.112.016.112.015.113.014.113.012.114.011.114.009.115.008.115.007.116.005.116.003.116.003h.123 5.988.123l.116-.003.116-.003.116-.005.115-.007.115-.008.114-.009.114-.011.113-.012.113-.014.112-.015.112-.016.112-.018.111-.019.11-.021.11-.022.109-.023.109-.024.109-.026.108-.027.107-.028.107-.03.106-.031.106-.032.105-.033.105-.035.104-.036.103-.037.103-.039.103-.039.102-.041.101-.042.1-.043.1-.045.099-.045.099-.047.098-.048.097-.049.097-.05.096-.052.095-.052.094-.054.094-.055.093-.055.093-.057.091-.058.091-.059.091-.061.089-.061.089-.062.088-.063.087-.065.086-.065.085-.066.085-.068.084-.068.083-.069.082-.071.082-.071.08-.072.08-.074.078-.074.078-.075.077-.076.076-.077.075-.077.074-.079.073-.08.073-.08.071-.081.07-.083.07-.083.068-.083.067-.085.067-.086.065-.086.064-.087.064-.088.062-.089.061-.089.06-.09.059-.091.058-.092.057-.092.056-.094.055-.093.053-.095.053-.095.051-.096.051-.097.049-.097.047-.098.047-.098.046-.1.044-.1.043-.1.043-.101.04-.102.04-.102.038-.103.038-.104.036-.104.034-.104.034-.106.032-.105.031-.107.029-.106.029-.108.027-.108.026-.108.024-.109.023-.11.022-.11.02-.11.019-.111.018-.111.017-.112.015-.113.013-.113.012-.113.011-.114.01-.114.008-.115.006-.115.005-.115.004-.116.002-.117.001-.123v-2.987l-.001-.156-.003-.149-.004-.148-.007-.149-.008-.148-.01-.148-.012-.147-.014-.148-.015-.147-.018-.147-.019-.146-.021-.146-.022-.145-.025-.145-.026-.145-.028-.145-.029-.144-.032-.143-.033-.143-.035-.142-.037-.143-.038-.141-.04-.141-.042-.141-.043-.14-.045-.139-.047-.138-.049-.139-.05-.137-.052-.137-.053-.136-.055-.136-.057-.135-.059-.134-.06-.133-.062-.133-.063-.132-.065-.131-.067-.131-.068-.129-.069-.129-.072-.128-.073-.127-.074-.127-.076-.125-.078-.125-.079-.124-.081-.122-.083-.122-.083-.121-.086-.12-.087-.119-.088-.118-.09-.117-.092-.116-.093-.115-.094-.114-.096-.112-.097-.112-.099-.111-.101-.109-.102-.109-.103-.107-.105-.106-.106-.105-.107-.103-.108-.102-.11-.1-.111-.099-.111-.098-.113-.096-.114-.094-.115-.093-.116-.091-.117-.09-.118-.089-.119-.087-.12-.085-.121-.084-.121-.082-.123-.081-.124-.079-.124-.078-.126-.076-.126-.075-.127-.073-.128-.071-.129-.07-.13-.068-.13-.067-.132-.065-.132-.063-.132-.062-.134-.06-.134-.058-.135-.057-.135-.055-.137-.054-.136-.052-.138-.05-.138-.048-.139-.047-.139-.045-.14-.044-.14-.042-.141-.04-.142-.038-.142-.037-.143-.035-.143-.033-.143-.031-.144-.03-.144-.028-.145-.026-.145-.024-.146-.023-.146-.021-.146-.019-.147-.017-.147-.016-.147-.014-.148-.012-.148-.01-.148-.008-.148-.006-.149-.005-.149-.003-.149-.001-.156.001z"/><path d="m30 16.008c0-3.713-1.475-7.274-4.101-9.899-2.625-2.626-6.186-4.101-9.899-4.101-7.732 0-14 6.268-14 14v3c0 6.075 4.925 11 11 11h6c6.075 0 11-4.925 11-11 0-.986 0-1.993 0-3z" fill="#fbc546"/><path d="m26 21.008c0-.795-.316-1.558-.879-2.121-.562-.563-1.325-.879-2.121-.879-3.776 0-10.224 0-14 0-.796 0-1.559.316-2.121.879-.563.563-.879 1.326-.879 2.121v1c0 .796.316 1.559.879 2.122.562.562 1.325.878 2.121.878h14c.796 0 1.559-.316 2.121-.878.563-.563.879-1.326.879-2.122 0-.331 0-.668 0-1z" fill="#7e5108"/><path d="m23.98 19.265c.158.089.304.199.434.329.375.375.586.884.586 1.414v1c0 .531-.211 1.039-.586 1.415-.327.327-.757.529-1.214.575-.002-.564-2.627-.505-2.627-.505h-9.146s-1.628.038-2.627.505c-.457-.046-.887-.248-1.214-.575-.375-.376-.586-.884-.586-1.415v-1c0-.53.211-1.039.586-1.414.13-.13.276-.24.434-.329 1.521.86 3.104.886 3.104.886h9.752s1.923-.148 3.104-.886z" fill="#707070"/><path d="m8.8 23.998c.002-.564.228-1.106.627-1.505.402-.402.947-.628 1.515-.628h10.116c.568 0 1.113.226 1.515.628.399.399.625.941.627 1.505-.066.007-.133.01-.2.01-3.463 0-10.537 0-14 0-.067 0-.134-.003-.2-.01zm-.78-4.733c.297-.167.634-.257.98-.257h14c.346 0 .683.09.98.257-.597 1.152-1.791 1.886-3.104 1.886-2.682 0-7.07 0-9.752 0-1.313 0-2.507-.734-3.104-1.886z" fill="#fff"/><path d="m11 11.508c0-.828-.672-1.5-1.5-1.5s-1.5.672-1.5 1.5v3c0 .829.672 1.5 1.5 1.5s1.5-.671 1.5-1.5c0-.916 0-2.083 0-3z"/><path d="m24 11.508c0-.828-.672-1.5-1.5-1.5s-1.5.672-1.5 1.5v3c0 .829.672 1.5 1.5 1.5s1.5-.671 1.5-1.5c0-.916 0-2.083 0-3z"/></g></svg>