<svg clip-rule="evenodd" fill-rule="evenodd" stroke-linejoin="round" stroke-miterlimit="1.41421" viewBox="0 0 32 32" xmlns="http://www.w3.org/2000/svg" xmlns:xlink="http://www.w3.org/1999/xlink"><clipPath id="a"><path clip-rule="evenodd" d="m0 .008h32v32h-32z"/></clipPath><path d="m0 .008h32v32h-32z" fill="none"/><g clip-path="url(#a)"><path d="m16.206 2.01.206.004.205.006.205.009.204.012.203.014.203.017.201.019.202.022.2.024.2.026.199.03.198.031.198.034.197.037.195.038.195.042.195.043.193.046.192.048.192.051.19.053.19.055.188.057.188.06.186.061.186.064.184.067.184.068.182.071.181.073.181.074.179.078.177.079.177.081.176.083.174.085.173.088.172.089.171.092.169.093.169.095.166.098.166.099.164.101.163.103.162.105.16.107.159.109.157.11.157.113.154.114.153.116.152.118.151.119.148.122.148.123.145.125.145.126.142.128.142.13.139.132.138.133.137.135.135.136.133.138.131.14.13.141.128.143.127.144.125.146.123.147.121.149.12.15.117.152.116.153.115.155.112.156.111.157.108.159.107.16.105.162.103.163.101.164.1.166.097.167.095.168.094.169.091.171.09.172.087.173.085.175.084.175.081.177.079.178.077.179.075.18.073.181.07.183.069.183.066.185.064.185.062.187.059.187.058.189.055.189.053.191.05.191.048.193.046.193.044.194.041.195.039.196.036.196.034.198.032.198.029.199.027.2.024.201.022.201.019.202.016.202.015.204.011.204.009.204.007.205.004.206.001.2v1.013l-.001.161-.003.167-.005.166-.008.167-.009.165-.012.166-.013.164-.016.164-.018.164-.019.163-.022.162-.024.162-.025.161-.028.16-.03.16-.031.159-.034.159-.035.157-.037.157-.039.157-.041.155-.043.155-.045.154-.047.153-.048.153-.05.152-.053.15-.053.15-.056.149-.057.149-.06.147-.06.146-.063.146-.064.144-.066.144-.068.143-.069.141-.071.141-.073.14-.074.138-.076.138-.078.137-.079.135-.08.135-.083.133-.083.133-.085.131-.087.13-.089.129-.089.128-.092.127-.093.126-.094.124-.096.123-.097.123-.098.12-.1.12-.102.119-.102.117-.105.116-.105.114-.107.114-.108.112-.11.111-.11.109-.112.108-.114.107-.115.106-.116.104-.117.103-.118.101-.12.1-.121.099-.122.097-.123.095-.125.095-.125.093-.127.091-.128.09-.129.088-.13.087-.132.085-.132.084-.133.082-.135.081-.136.079-.136.077-.138.076-.139.074-.139.073-.141.071-.142.069-.143.068-.143.066-.145.064-.145.063-.147.061-.147.059-.148.057-.149.056-.15.054-.151.052-.151.05-.153.049-.153.046-.154.045-.155.043-.156.041-.156.039-.157.037-.158.036-.158.033-.159.032-.16.029-.161.028-.161.026-.161.023-.163.022-.163.02-.163.017-.164.016-.165.014-.165.011-.166.01-.166.007-.166.005-.168.003-.161.001h-6.012l-.161-.001-.168-.003-.166-.005-.166-.007-.166-.01-.165-.011-.165-.014-.164-.016-.163-.017-.163-.02-.163-.022-.161-.023-.161-.026-.161-.028-.16-.029-.159-.032-.158-.033-.158-.036-.157-.037-.156-.039-.156-.041-.155-.043-.154-.045-.153-.046-.152-.049-.152-.05-.151-.052-.15-.054-.149-.056-.148-.057-.147-.059-.147-.061-.145-.063-.145-.064-.144-.066-.142-.068-.142-.069-.141-.071-.139-.073-.139-.074-.138-.076-.136-.077-.136-.079-.134-.081-.134-.082-.132-.084-.132-.085-.13-.087-.129-.088-.128-.09-.127-.091-.125-.093-.125-.095-.123-.095-.122-.097-.121-.099-.12-.1-.118-.101-.117-.103-.116-.104-.115-.106-.114-.107-.112-.108-.11-.109-.11-.111-.108-.112-.107-.114-.105-.114-.105-.116-.102-.117-.102-.119-.1-.12-.098-.12-.097-.123-.096-.123-.094-.124-.093-.126-.092-.127-.089-.128-.089-.129-.086-.13-.086-.131-.084-.133-.082-.133-.08-.135-.08-.135-.077-.137-.076-.138-.074-.138-.073-.14-.071-.141-.069-.142-.068-.142-.066-.144-.064-.144-.063-.146-.06-.146-.06-.148-.057-.148-.056-.149-.053-.15-.053-.151-.05-.151-.048-.153-.047-.153-.045-.154-.043-.155-.041-.155-.039-.157-.037-.157-.036-.157-.033-.159-.032-.159-.029-.16-.028-.16-.025-.161-.024-.162-.022-.163-.019-.162-.018-.164-.016-.164-.013-.164-.012-.166-.009-.165-.008-.167-.005-.166-.003-.167-.001-.161v-1.013l.001-.2.004-.206.007-.205.009-.204.011-.204.015-.204.016-.202.019-.202.022-.201.024-.201.027-.2.029-.199.032-.198.034-.197.036-.197.039-.196.041-.195.044-.194.046-.194.048-.192.05-.191.053-.191.055-.189.058-.189.059-.187.062-.187.064-.185.066-.185.069-.183.07-.183.073-.181.075-.18.077-.179.079-.178.082-.177.083-.175.085-.175.088-.173.089-.172.091-.171.094-.169.095-.168.097-.167.1-.166.101-.164.103-.163.105-.162.107-.16.108-.159.111-.157.112-.156.115-.155.116-.153.117-.152.12-.15.121-.149.123-.147.125-.146.127-.144.128-.143.13-.141.131-.14.133-.138.135-.136.137-.135.138-.133.139-.132.141-.13.143-.128.145-.126.145-.125.148-.123.148-.122.151-.119.152-.118.153-.116.154-.114.156-.113.158-.11.159-.109.16-.107.162-.105.163-.103.164-.101.165-.099.167-.098.169-.095.169-.093.171-.092.172-.089.173-.088.174-.085.176-.083.177-.081.177-.08.179-.076.181-.075.181-.073.182-.071.184-.068.184-.067.186-.064.186-.061.188-.06.188-.057.19-.056.19-.052.192-.051.192-.048.193-.046.195-.043.195-.042.195-.038.197-.037.198-.034.198-.031.199-.03.2-.026.2-.024.202-.022.201-.019.203-.017.203-.014.204-.012.205-.009.205-.006.206-.004.206-.002.206.002zm-.362 3.999-.155.003-.154.005-.154.007-.154.009-.152.01-.153.013-.151.014-.151.017-.151.018-.15.02-.149.022-.149.023-.148.026-.147.027-.147.029-.146.031-.145.033-.144.034-.144.036-.144.038-.142.039-.142.042-.141.043-.141.044-.139.046-.139.048-.138.05-.137.051-.137.053-.135.055-.135.056-.134.057-.134.059-.132.061-.131.063-.131.064-.13.065-.129.067-.128.069-.127.07-.126.071-.125.073-.124.074-.123.076-.122.078-.122.078-.12.081-.119.081-.118.083-.117.085-.117.085-.115.087-.114.089-.112.09-.112.091-.111.092-.109.094-.109.095-.107.096-.106.098-.105.099-.104.1-.102.101-.102.103-.1.103-.098.105-.098.106-.096.107-.095.109-.094.109-.093.111-.091.112-.089.113-.089.114-.087.115-.086.116-.084.117-.083.118-.082.119-.08.121-.079.121-.077.122-.076.123-.074.125-.073.125-.072.126-.07.127-.068.128-.067.129-.066.129-.064.131-.062.131-.061.133-.059.133-.058.134-.056.135-.054.136-.053.136-.051.137-.05.138-.048.139-.046.14-.045.14-.043.141-.041.142-.039.143-.038.143-.036.144-.035.145-.032.145-.031.146-.029.146-.027.148-.026.148-.024.148-.021.15-.02.149-.019.151-.016.151-.014.152-.013.152-.011.153-.008.153-.007.154-.005.155-.003.155-.001.162v.987l.001.123.002.117.004.116.005.115.006.115.008.115.01.114.011.114.012.113.013.113.015.113.017.111.018.112.019.111.02.11.022.11.023.11.024.109.026.108.027.108.029.107.029.107.031.107.032.105.034.106.034.104.036.104.038.104.038.103.04.102.04.102.042.101.044.101.044.099.046.099.047.099.047.098.05.097.05.097.051.096.053.095.053.095.055.094.056.093.057.092.058.092.059.091.06.09.061.089.062.089.064.088.064.087.065.086.067.086.067.084.068.084.07.083.07.083.071.081.073.08.073.08.074.079.075.077.076.077.077.076.078.075.078.074.08.074.081.072.081.071.082.071.083.069.084.068.085.068.085.066.086.065.087.065.088.063.089.062.089.061.091.061.091.059.091.058.093.057.093.055.094.055.094.054.096.052.095.052.097.05.097.049.098.048.099.047.099.045.1.045.1.043.102.042.101.041.103.039.102.039.104.037.104.036.105.035.105.033.106.032.106.031.107.03.107.028.108.027.109.026.109.024.109.023.11.022.11.021.111.019.112.018.112.016.112.015.113.014.113.012.114.011.114.009.115.008.115.007.116.005.116.003.116.003h.123 5.988.123l.116-.003.116-.003.116-.005.115-.007.115-.008.114-.009.114-.011.113-.012.113-.014.112-.015.112-.016.112-.018.111-.019.11-.021.11-.022.109-.023.109-.024.109-.026.108-.027.107-.028.107-.03.106-.031.106-.032.105-.033.105-.035.104-.036.103-.037.103-.039.103-.039.102-.041.101-.042.1-.043.1-.045.099-.045.099-.047.098-.048.097-.049.097-.05.095-.052.096-.052.094-.054.094-.055.093-.055.093-.057.091-.058.091-.059.091-.061.089-.061.089-.062.088-.063.087-.065.086-.065.085-.066.085-.068.084-.068.083-.069.082-.071.081-.071.081-.072.08-.074.078-.074.078-.075.077-.076.076-.077.075-.077.074-.079.073-.08.073-.08.071-.081.07-.083.07-.083.068-.084.067-.084.067-.086.065-.086.064-.087.064-.088.062-.089.061-.089.06-.09.059-.091.058-.092.057-.092.056-.093.055-.094.053-.095.053-.095.051-.096.05-.097.05-.097.048-.098.046-.098.046-.1.044-.1.044-.1.042-.101.04-.102.04-.102.038-.103.038-.104.036-.104.034-.104.034-.106.032-.105.031-.107.029-.107.029-.107.027-.108.026-.108.024-.109.023-.11.022-.11.02-.11.019-.111.018-.111.017-.112.015-.113.013-.113.012-.113.011-.114.01-.114.008-.115.006-.115.005-.115.004-.116.002-.117.001-.123v-.987l-.001-.162-.003-.155-.005-.155-.007-.154-.008-.153-.011-.153-.013-.152-.014-.152-.016-.151-.019-.151-.02-.149-.021-.15-.024-.148-.026-.148-.027-.147-.029-.147-.031-.146-.032-.146-.035-.144-.036-.144-.038-.143-.039-.143-.041-.142-.043-.141-.045-.14-.046-.14-.048-.139-.05-.138-.051-.137-.053-.136-.054-.136-.056-.135-.058-.134-.059-.133-.061-.133-.062-.131-.064-.131-.066-.129-.067-.129-.068-.128-.07-.127-.072-.126-.073-.125-.074-.125-.076-.123-.077-.122-.079-.121-.08-.121-.082-.119-.083-.118-.084-.117-.086-.116-.087-.115-.089-.114-.089-.113-.091-.112-.093-.111-.094-.109-.095-.108-.096-.108-.098-.106-.098-.105-.1-.103-.102-.103-.102-.101-.104-.1-.105-.099-.106-.098-.107-.096-.109-.095-.109-.094-.111-.092-.111-.091-.113-.09-.114-.089-.115-.087-.117-.085-.117-.085-.118-.083-.119-.081-.12-.081-.122-.078-.122-.078-.123-.076-.124-.074-.125-.073-.127-.071-.127-.07-.127-.069-.129-.067-.13-.065-.131-.064-.131-.063-.132-.061-.134-.059-.134-.057-.135-.056-.135-.055-.137-.053-.137-.051-.138-.05-.139-.048-.139-.046-.141-.044-.141-.043-.142-.042-.142-.039-.144-.038-.143-.036-.145-.034-.145-.033-.146-.031-.147-.029-.147-.027-.148-.026-.149-.023-.149-.022-.15-.02-.151-.018-.151-.017-.151-.014-.153-.013-.152-.01-.154-.009-.154-.007-.154-.005-.155-.003-.156-.001-.156.001z"/><path d="m30 18.008c0-7.732-6.268-14-14-14-7.732 0-14 6.268-14 14v1c0 6.075 4.925 11 11 11h6c6.075 0 11-4.925 11-11 0-.332 0-.665 0-1z" fill="#fbc546"/><path d="m12.586 24.094c-.372-.607-.586-1.321-.586-2.086 0-2.209 1.791-4 4-4 2.209 0 4 1.791 4 4 0 .765-.214 1.479-.586 2.086-.977-.691-5.851-.691-6.828 0z" fill="#722245"/><path d="m12.586 24.094c.977-.691 2.163-1.086 3.414-1.086 1.251 0 2.437.395 3.414 1.086-.703 1.148-1.969 1.914-3.414 1.914-1.445 0-2.711-.766-3.414-1.914z" fill="#ca3b8f"/><path d="m11 12.508c0-.828-.672-1.5-1.5-1.5s-1.5.672-1.5 1.5v3c0 .829.672 1.5 1.5 1.5s1.5-.671 1.5-1.5c0-.916 0-2.083 0-3z"/><path d="m24 12.506c0-.397-.158-.778-.439-1.059s-.662-.439-1.059-.439c-.001 0-.003 0-.004 0-.397 0-.778.158-1.059.439s-.439.662-.439 1.059v3.002c0 .829.672 1.5 1.5 1.5s1.5-.671 1.5-1.5c0-.917 0-2.085 0-3.002z"/></g></svg>