<svg clip-rule="evenodd" fill-rule="evenodd" stroke-linecap="round" stroke-miterlimit="2" viewBox="0 0 32 32" xmlns="http://www.w3.org/2000/svg" xmlns:xlink="http://www.w3.org/1999/xlink"><clipPath id="a"><path clip-rule="evenodd" d="m0 .017h32v32h-32z"/></clipPath><clipPath id="b"><path clip-rule="evenodd" d="m28 18.017c0-7.18-5.82-13-13-13-7.18 0-13 5.82-13 13v1.006c0 6.072 4.922 10.994 10.994 10.994h4.012c6.072 0 10.994-4.922 10.994-10.994 0-.335 0-.67 0-1.006z"/></clipPath><path d="m0 .017h32v32h-32z" fill="none"/><g clip-path="url(#a)"><path d="m26.647.022.147.016.145.028.143.037.139.048.136.059.131.068.126.077.119.087.113.095.105.103.098.111.089.118.08.124.071.129 2.946 5.893.042.087.045.095.042.097.041.098.038.097.036.099.035.098.032.1.03.099.029.101.026.1.024.1.022.101.02.101.018.102.016.101.015.102.012.102.01.101.008.102.006.103.004.101.002.102.001.102-.002.101-.004.102-.005.102-.008.101-.009.101-.012.101-.013.101-.016.1-.017.099-.019.1-.021.1-.023.099-.025.098-.026.098-.029.098-.031.096-.032.097-.034.096-.037.096-.038.094-.039.094-.042.094-.044.092-.046.093-.047.091-.049.09-.051.09-.053.088-.055.088-.056.087-.059.086-.06.085-.062.084-.064.083-.066.082-.067.08-.069.08-.07.078-.073.077-.061.062-.016.016-.08.079-.083.077-.085.076-.086.075-.088.072-.089.07-.09.068-.092.066-.093.064-.057.038.012.04.054.191.051.191.049.193.047.193.044.195.041.195.039.197.036.197.034.198.031.199.029.199.026.201.023.201.02.202.018.203.015.203.013.205.01.204.006.206.005.206.001.2v1.019l-.001.161-.003.167-.005.167-.008.166-.009.165-.012.165-.013.165-.016.164-.018.163-.019.163-.022.163-.024.161-.025.161-.028.161-.029.159-.032.159-.033.159-.036.157-.037.157-.039.157-.041.155-.043.155-.045.154-.046.153-.049.152-.05.152-.052.15-.054.151-.056.149-.057.147-.059.148-.061.146-.062.145-.065.145-.066.144-.067.142-.07.142-.071.141-.072.139-.074.139-.076.137-.078.137-.079.136-.08.134-.083.134-.083.132-.086.131-.086.13-.089.129-.089.128-.092.127-.092.125-.095.125-.095.123-.097.122-.099.121-.1.12-.101.118-.103.117-.104.116-.105.115-.107.113-.108.112-.11.111-.11.109-.113.108-.113.107-.115.106-.116.104-.117.103-.118.101-.12.1-.121.098-.122.097-.123.096-.124.094-.126.093-.127.091-.127.09-.13.088-.13.087-.131.085-.132.084-.134.082-.134.081-.136.079-.136.077-.138.076-.139.075-.139.072-.141.071-.141.069-.143.068-.144.066-.144.064-.146.063-.146.061-.147.059-.148.057-.149.056-.15.054-.151.052-.151.05-.153.048-.153.047-.154.045-.155.043-.155.041-.156.039-.157.037-.158.035-.158.034-.159.031-.16.03-.161.027-.161.026-.161.024-.163.021-.162.02-.164.018-.164.015-.164.014-.165.011-.166.01-.166.007-.167.006-.167.003-.161.001h-4.024l-.161-.001-.167-.003-.167-.006-.166-.007-.166-.01-.165-.011-.164-.014-.164-.015-.164-.018-.162-.02-.163-.021-.161-.024-.161-.026-.161-.027-.16-.03-.159-.031-.158-.034-.158-.035-.157-.037-.156-.039-.155-.041-.155-.043-.154-.045-.153-.047-.153-.048-.151-.05-.151-.052-.15-.054-.149-.056-.148-.057-.147-.059-.146-.061-.146-.063-.144-.064-.144-.066-.143-.068-.141-.069-.141-.071-.139-.072-.139-.075-.138-.076-.136-.077-.136-.079-.134-.081-.134-.082-.132-.084-.131-.085-.13-.087-.13-.088-.127-.09-.127-.091-.126-.093-.124-.094-.123-.096-.122-.097-.121-.098-.12-.1-.118-.101-.117-.103-.116-.104-.115-.106-.113-.107-.113-.108-.11-.109-.11-.111-.108-.112-.107-.113-.105-.115-.104-.116-.103-.117-.101-.118-.1-.12-.099-.121-.097-.122-.095-.123-.095-.125-.092-.125-.092-.127-.089-.128-.089-.129-.086-.13-.086-.131-.083-.132-.083-.134-.08-.134-.079-.136-.078-.137-.076-.137-.074-.139-.072-.139-.071-.141-.07-.142-.067-.142-.066-.144-.065-.145-.062-.145-.061-.146-.059-.148-.057-.147-.056-.149-.054-.151-.052-.15-.05-.152-.049-.152-.046-.153-.045-.154-.043-.155-.041-.155-.039-.157-.037-.157-.036-.157-.033-.159-.032-.159-.029-.159-.028-.161-.025-.161-.024-.161-.022-.163-.019-.163-.018-.163-.016-.164-.013-.165-.012-.165-.009-.165-.008-.166-.005-.167-.003-.167-.001-.161v-1.019l.001-.187.004-.193.006-.192.008-.192.011-.191.014-.19.015-.19.018-.19.021-.188.022-.188.025-.188.028-.186.029-.186.032-.185.034-.185.037-.183.038-.183.041-.182.043-.181.045-.181.048-.179.049-.179.052-.177.054-.177.056-.176.058-.175.06-.174.062-.173.064-.172.066-.171.068-.17.071-.169.072-.168.074-.166.076-.166.078-.165.08-.163.082-.162.084-.162.086-.16.087-.158.089-.158.092-.157.093-.155.095-.154.096-.152.099-.152.1-.15.102-.149.104-.148.105-.146.107-.145.109-.144.11-.142.112-.141.114-.139.115-.139.117-.136.119-.136.12-.133.122-.133.123-.131.125-.129.126-.128.128-.126.13-.125.131-.123.132-.122.134-.12.135-.119.137-.117.138-.115.139-.114.141-.112.142-.111.144-.108.145-.107.146-.106.148-.103.149-.102.15-.101.152-.098.153-.097.153-.094.156-.094.156-.091.158-.089.159-.088.16-.085.161-.084.162-.082.164-.08.164-.078.166-.076.167-.075.168-.072.169-.07.17-.068.17-.066.172-.065.174-.062.173-.06.175-.058.176-.056.177-.053.178-.052.178-.05.18-.047.18-.045.181-.043.182-.041.183-.039.184-.036.184-.034.185-.032.186-.03.187-.027.187-.025.188-.023.189-.02.189-.018.19-.016.191-.013.191-.011.192-.008.192-.006.193-.004.192-.001.175.001.173.003.173.005.173.006.172.009.171.011.171.013.171.014.17.017.17.018.169.02.168.023.168.024.167.025.167.028.166.03.166.031.164.033.165.035.163.037.163.038.162.041.162.042.161.043.16.046.159.047.159.049.158.051.157.052.156.054.156.056.154.057.154.059.153.061.153.062.151.064.151.065.149.067.149.069.148.07.147.072.146.073.145.075.145.076.143.078.142.079.142.081.14.082.055.033 2.01-4.02.071-.129.08-.124.089-.118.098-.111.105-.103.113-.095.119-.087.126-.077.131-.068.136-.059.139-.048.143-.037.145-.028.147-.016.147-.005.147.005zm-3.089 7.879-.029.059-.027.059-.026.059-.025.06-.107-.091-.108-.089-.109-.089-.11-.087-.111-.086-.112-.085-.113-.083-.113-.083-.115-.081-.116-.08-.116-.079-.117-.078-.119-.076-.119-.075-.12-.074-.121-.073-.121-.071-.123-.07-.123-.069-.124-.067-.125-.066-.126-.065-.127-.064-.127-.062-.128-.061-.129-.059-.13-.058-.13-.057-.131-.055-.132-.054-.133-.052-.133-.051-.134-.05-.135-.048-.135-.047-.136-.045-.137-.044-.137-.043-.138-.04-.138-.04-.14-.038-.14-.036-.14-.035-.141-.033-.142-.032-.142-.03-.143-.029-.143-.027-.144-.026-.144-.024-.145-.022-.146-.021-.146-.019-.146-.018-.147-.016-.148-.014-.148-.013-.148-.011-.149-.009-.149-.008-.15-.006-.15-.004-.151-.002-.151-.001-.168.001-.168.003-.167.005-.166.008-.166.009-.165.012-.165.013-.164.016-.164.017-.163.02-.162.022-.162.023-.161.026-.16.028-.16.029-.159.032-.158.033-.158.036-.157.037-.156.039-.155.041-.155.043-.154.045-.153.046-.152.049-.151.05-.151.052-.15.054-.149.055-.148.057-.147.059-.146.061-.146.063-.144.064-.143.066-.143.068-.142.069-.14.071-.14.072-.139.075-.137.076-.137.077-.135.079-.135.081-.133.082-.133.084-.131.085-.13.087-.13.088-.128.09-.126.091-.126.093-.125.095-.123.095-.122.098-.121.098-.12.1-.119.102-.117.103-.116.104-.115.105-.113.107-.112.109-.111.109-.11.111-.108.112-.107.114-.106.115-.104.116-.103.117-.101.119-.1.119-.099.121-.097.123-.096.123-.094.125-.093.125-.092.127-.089.128-.089.129-.087.131-.085.131-.084.132-.082.134-.081.134-.079.136-.077.136-.076.138-.074.139-.073.139-.071.141-.069.142-.068.142-.066.144-.064.144-.062.146-.061.146-.059.147-.058.148-.055.149-.054.15-.052.15-.05.152-.049.152-.046.153-.045.154-.043.154-.041.156-.039.156-.037.157-.035.157-.034.159-.031.159-.03.159-.028.161-.025.161-.024.162-.022.162-.019.163-.018.164-.016.164-.013.164-.012.166-.009.166-.007.166-.006.167-.003.168-.001.168v1.006l.001.142.003.141.004.142.006.14.008.141.01.14.012.139.013.139.015.138.016.138.019.137.02.137.021.136.024.136.025.135.026.134.029.134.03.134.031.132.033.132.035.132.036.13.038.131.039.129.041.129.043.128.044.127.045.127.047.126.049.125.05.124.051.124.053.123.054.122.056.121.057.121.059.12.06.119.061.118.063.117.064.116.066.116.066.115.069.113.069.113.071.112.072.111.074.111.074.109.076.108.078.107.078.107.08.105.081.104.082.104.083.102.085.101.086.1.087.1.088.098.089.097.091.096.091.095.093.094.094.092.095.092.096.09.097.09.098.088.099.087.101.086.101.084.102.084.103.082.105.081.105.08.106.078.108.077.108.076.109.075.11.074.111.072.112.071.113.069.114.068.115.067.115.066.117.064.117.063.118.061.119.06.12.059.12.057.122.056.122.054.123.053.123.051.125.05.125.049.126.047.127.045.127.044.128.043.129.04.129.04.13.038.131.036.131.035.132.033.133.031.133.03.134.028.135.027.135.025.136.023.136.022.136.02.138.018.138.017.138.015.139.013.139.012.14.009.14.008.141.007.141.004.142.003.142.001h4.012l.142-.001.142-.003.141-.004.141-.007.14-.008.14-.009.139-.012.139-.013.138-.015.138-.017.138-.018.136-.02.136-.022.136-.023.135-.025.135-.027.134-.028.133-.03.133-.031.132-.033.131-.035.131-.036.13-.038.129-.04.129-.04.128-.043.127-.044.127-.045.126-.047.125-.049.125-.05.123-.051.123-.053.122-.054.122-.056.12-.057.12-.059.119-.06.118-.061.117-.063.117-.064.115-.066.115-.067.114-.068.113-.069.112-.071.111-.072.11-.074.109-.075.108-.076.108-.077.106-.078.105-.08.105-.081.103-.082.102-.084.101-.084.101-.086.099-.087.098-.088.097-.09.096-.09.095-.092.094-.092.093-.094.091-.095.091-.096.089-.097.088-.098.087-.1.086-.1.085-.101.083-.102.082-.104.081-.104.08-.105.078-.107.078-.107.076-.108.074-.109.074-.111.072-.111.071-.112.069-.113.069-.113.066-.115.066-.116.064-.116.063-.117.061-.118.06-.119.059-.12.057-.121.056-.121.054-.122.053-.123.051-.124.05-.124.049-.125.047-.126.045-.127.044-.127.043-.128.041-.129.039-.129.038-.131.036-.13.035-.132.033-.132.031-.132.03-.134.029-.134.026-.134.025-.135.024-.136.021-.136.02-.137.019-.137.016-.138.015-.138.013-.139.012-.139.01-.14.008-.141.006-.14.004-.142.003-.141.001-.142v-1.006l-.001-.18-.004-.179-.006-.178-.008-.178-.011-.177-.013-.177-.016-.176-.018-.175-.02-.174-.022-.174-.025-.173-.027-.173-.029-.171-.032-.171-.033-.17-.036-.169-.038-.169-.04-.167-.043-.167-.044-.166-.047-.165-.049-.164-.051-.163-.053-.162-.055-.161-.057-.161-.059-.159-.061-.158-.063-.158-.065-.156-.067-.155-.069-.154.07-.008.07-.01.069-.011.069-.012.069-.014.068-.015.068-.017.068-.018.067-.02.067-.021.066-.022.065-.024.066-.025.064-.027.064-.028.063-.029.063-.031.062-.032.062-.033.061-.035.06-.036.059-.037.059-.038.057-.04.057-.041.057-.043.055-.043.055-.045.053-.046.053-.047.052-.049.05-.05.001-.001.047-.047.045-.048.044-.048.043-.05.042-.05.04-.051.04-.051.038-.052.038-.053.036-.053.035-.054.034-.055.033-.055.032-.056.03-.056.03-.056.028-.057.027-.058.026-.058.025-.058.023-.059.023-.06.021-.059.02-.06.019-.06.018-.061.017-.061.015-.061.015-.062.013-.061.012-.062.01-.063.01-.062.008-.063.007-.062.006-.063.005-.063.003-.063.003-.063.001-.064-.001-.063-.001-.063-.003-.063-.003-.064-.005-.063-.007-.063-.007-.063-.009-.064-.01-.063-.011-.062-.013-.063-.013-.063-.015-.062-.017-.063-.017-.062-.019-.062-.02-.061-.021-.061-.023-.062-.024-.06-.025-.061-.026-.06-.028-.06-.029-.059-2.942-5.884-2.942 5.884z"/><path d="m28 18.017c0-7.18-5.82-13-13-13-7.18 0-13 5.82-13 13v1.006c0 6.072 4.922 10.994 10.994 10.994h4.012c6.072 0 10.994-4.922 10.994-10.994 0-.335 0-.67 0-1.006z" fill="#fbc546"/><g clip-path="url(#b)"><path d="m31.235 7.015.043.087.044.096.042.096.041.097.038.099.036.098.035.098.032.099.03.1.029.101.026.1.024.1.022.102.02.1.018.101.016.102.014.102.013.102.01.102.008.101.006.102.004.102.002.102.001.102-.002.102-.004.101-.005.101-.008.102-.009.101-.012.101-.013.1-.016.101-.017.1-.019.099-.021.099-.023.099-.025.099-.026.098-.029.097-.031.098-.032.096-.034.096-.037.096-.038.094-.039.094-.042.093-.044.093-.046.093-.047.091-.049.09-.051.09-.053.088-.055.088-.056.087-.059.086-.06.085-.062.084-.064.083-.065.082-.068.081-.069.079-.071.078-.072.077-.064.065-.017.017-.088.086-.096.089-.098.087-.1.084-.102.081-.104.079-.105.076-.107.073-.109.071-.11.067-.112.066-.113.062-.115.059-.116.057-.117.054-.119.05-.119.048-.121.045-.122.042-.123.039-.124.036-.125.034-.126.03-.127.026-.128.024-.128.021-.129.018-.129.014-.13.012-.131.008-.131.004-.131.002-.131-.002-.131-.004-.131-.008-.13-.012-.129-.014-.129-.018-.128-.021-.128-.024-.127-.026-.125-.03-.126-.034-.123-.036-.124-.039-.122-.042-.121-.045-.119-.048-.119-.05-.117-.054-.116-.057-.115-.059-.113-.062-.112-.066-.11-.067-.109-.071-.107-.073-.105-.076-.104-.079-.102-.081-.1-.084-.098-.087-.096-.089-.088-.086-.017-.017-.064-.065-.073-.077-.071-.079-.068-.078-.068-.081-.065-.082-.064-.083-.062-.084-.06-.085-.059-.086-.056-.087-.055-.088-.053-.088-.051-.09-.049-.09-.048-.092-.045-.092-.044-.093-.041-.092-.04-.095-.039-.095-.036-.095-.034-.096-.032-.096-.031-.097-.029-.098-.026-.099-.025-.098-.023-.098-.021-.099-.019-.1-.018-.1-.015-.101-.013-.1-.012-.102-.009-.101-.008-.1-.005-.102-.004-.102-.002-.101.001-.102.002-.102.004-.101.006-.102.008-.103.01-.102.013-.101.014-.102.016-.101.018-.102.02-.101.022-.1.024-.101.027-.101.028-.1.03-.1.032-.098.034-.099.037-.099.038-.097.041-.098.042-.097.044-.095.043-.087 3.999-7.998h1.472l3.999 7.998zm-5.884 1.772-.016.032-.011.024-.01.023-.01.023-.009.025-.009.023-.008.024-.008.025-.007.024-.007.024-.006.024-.006.024-.006.025-.004.024-.005.024-.004.024-.003.025-.003.025-.003.025-.001.024-.002.024-.001.026-.001.024v.025l.001.025.001.024.001.024.002.026.002.025.003.024.003.025.004.024.004.024.005.024.005.024.006.025.006.024.006.024.007.023.007.024.008.023.009.024.009.024.009.022.009.022.011.024.01.022.011.022.012.022.011.021.013.022.013.022.013.021.013.021.015.021.014.02.015.02.016.021.015.019.016.02.018.02.017.019.017.018.018.018.025.024.024.022.023.021.025.021.024.02.026.019.025.018.026.018.027.017.027.017.027.016.028.015.028.014.028.014.028.013.029.013.03.011.029.011.03.011.03.009.03.009.031.008.03.007.031.007.031.006.031.005.032.004.031.003.032.003.032.002.032.001.032.001.032-.001.032-.001.032-.002.032-.003.031-.003.031-.004.032-.005.031-.006.031-.007.03-.007.031-.008.03-.009.03-.009.03-.011.029-.011.03-.012.029-.012.028-.013.028-.014.028-.014.028-.015.027-.016.027-.017.027-.017.026-.018.025-.018.026-.019.024-.02.025-.021.023-.021.024-.022.025-.024.017-.017.018-.019.018-.02.017-.019.016-.02.015-.019.016-.021.015-.02.014-.02.015-.021.013-.021.013-.021.013-.022.012-.021.012-.022.012-.022.011-.022.01-.022.01-.023.01-.023.009-.023.009-.023.009-.024.008-.023.007-.023.007-.024.006-.024.006-.024.006-.024.005-.024.005-.025.004-.024.004-.024.003-.025.003-.025.002-.025.002-.024.001-.025.001-.025.001-.024v-.025l-.001-.024-.001-.025-.002-.024-.002-.026-.002-.025-.003-.024-.003-.025-.004-.023-.005-.025-.005-.025-.005-.023-.006-.025-.006-.025-.007-.023-.007-.024-.008-.025-.008-.024-.009-.024-.009-.023-.01-.024-.011-.024-.01-.023-.016-.032-1.149-2.298z" fill="#e59a10"/></g><path d="m8.852 24.017h-1.234c-.347 0-.668-.18-.851-.475-.182-.294-.198-.663-.043-.973.378-.757.862-1.725 1.341-2.683 1.186-2.371 3.61-3.869 6.261-3.869h1.348c2.651 0 5.075 1.498 6.261 3.869.479.958.963 1.926 1.341 2.683.155.31.139.679-.043.973-.183.295-.504.475-.851.475h-1.234c-1.115-1.246-11.181-1.246-12.296 0z" fill="#722245"/><path d="m8.852 24.017c1.115-1.246 2.727-2 4.473-2h3.35c1.746 0 3.358.754 4.473 2z" fill="#ca3b8f"/><path d="m26.5 2.017s-1.757 3.514-2.942 5.884c-.632 1.263-.384 2.789.615 3.788 0 .001 0 .001.001.001.617.617 1.453.964 2.326.964s1.709-.347 2.326-.964c.001 0 .001 0 .001-.001.999-.999 1.247-2.525.615-3.788-1.185-2.37-2.942-5.884-2.942-5.884z" fill="#fff"/><g fill="none" stroke="#000" stroke-width="2"><path d="m7 15.017 4-4"/><path d="m23 15.017-4-4"/></g></g></svg>