<svg clip-rule="evenodd" fill-rule="evenodd" stroke-linejoin="round" stroke-miterlimit="1.41421" viewBox="0 0 32 32" xmlns="http://www.w3.org/2000/svg" xmlns:xlink="http://www.w3.org/1999/xlink"><clipPath id="a"><path clip-rule="evenodd" d="m0 0h32v32h-32z"/></clipPath><clipPath id="b"><path clip-rule="evenodd" d="m28 17c0-3.448-1.37-6.754-3.808-9.192s-5.744-3.808-9.192-3.808c-.001 0-.001 0-.002 0-7.179 0-12.998 5.819-12.998 12.998v1.504c0 3.049 1.211 5.974 3.368 8.13 2.156 2.157 5.081 3.368 8.13 3.368h3.004c3.049 0 5.974-1.211 8.13-3.368 2.157-2.156 3.368-5.081 3.368-8.13 0-.499 0-1 0-1.502z"/></clipPath><path d="m0 0h32v32h-32z" fill="none"/><g clip-path="url(#a)"><path d="m29.153.003.151.012.15.019.148.026.146.034.143.041.141.047.137.054.133.06.129.067.126.072.122.078.118.084.113.088.108.094.104.099.099.104.094.109.089.113.083.117.078.122.072.126.067.129.06.134.054.137.047.139.041.144.034.145.026.149.019.15.012.151.003.128v7.05l-.003.128-.012.151-.019.15-.026.149-.034.145-.041.144-.047.139-.054.137-.06.134-.067.129-.072.126-.078.122-.083.117-.089.113-.094.109-.099.104-.104.099-.078.067.02.022.064.072.062.073.06.075.058.075.057.078.055.079.052.081.051.081.05.083.047.085.045.086.043.086.042.089.039.09.037.09.035.091.032.093.031.094.028.095.026.096.024.097.021.097.019.098.016.099.014.1.012.1.009.101.006.102.004.102.001.102-.001.102-.004.102-.006.102-.009.101-.012.1-.014.1-.016.099-.019.098-.021.097-.024.097-.026.096-.028.095-.031.094-.032.093-.035.091-.037.091-.039.089-.042.088-.043.087-.045.086-.047.085-.05.083-.051.081-.052.081-.055.079-.057.078-.058.075-.06.075-.062.073-.064.072-.065.07-.067.068-.068.067-.07.065-.072.064-.073.062-.075.06-.076.058-.077.057-.079.054-.08.053-.082.051-.076.045v.044l-.001.162-.003.167-.005.167-.008.167-.009.167-.011.166-.014.166-.015.166-.017.165-.02.165-.021.165-.024.164-.025.164-.028.163-.029.163-.032.163-.033.162-.036.161-.037.161-.039.16-.041.16-.043.159-.045.159-.047.158-.049.157-.051.157-.053.156-.054.155-.057.155-.058.154-.06.153-.062.152-.064.152-.066.151-.068.15-.069.149-.071.149-.073.147-.075.147-.077.146-.079.145-.08.144-.082.143-.084.142-.085.141-.088.14-.089.14-.091.138-.092.137-.095.136-.096.135-.098.134-.099.132-.101.132-.103.13-.105.13-.106.128-.108.127-.11.125-.111.125-.113.123-.114.122-.117.12-.117.12-.12.117-.12.117-.122.114-.123.113-.125.111-.125.11-.127.108-.128.106-.13.105-.13.103-.132.101-.132.099-.134.098-.135.096-.136.095-.137.092-.138.091-.14.089-.14.088-.141.085-.142.084-.143.082-.144.08-.145.079-.146.077-.147.075-.147.073-.149.071-.149.069-.15.068-.151.066-.152.064-.152.062-.153.06-.154.058-.155.057-.155.054-.156.053-.157.051-.157.049-.158.047-.159.045-.159.043-.16.041-.16.039-.161.037-.161.036-.162.033-.163.032-.163.029-.163.028-.164.025-.164.024-.165.021-.165.02-.165.017-.166.015-.166.014-.166.011-.167.009-.167.008-.167.005-.167.003-.162.001h-3.016l-.162-.001-.167-.003-.167-.005-.167-.008-.167-.009-.166-.011-.166-.014-.166-.015-.165-.017-.165-.02-.165-.021-.164-.024-.164-.025-.163-.028-.163-.029-.163-.032-.162-.033-.161-.036-.161-.037-.16-.039-.16-.041-.159-.043-.159-.045-.158-.047-.157-.049-.157-.051-.156-.053-.155-.054-.155-.057-.154-.058-.153-.06-.152-.062-.152-.064-.151-.066-.15-.068-.149-.069-.149-.071-.147-.073-.147-.075-.146-.077-.145-.079-.144-.08-.143-.082-.142-.084-.141-.085-.14-.088-.14-.089-.138-.091-.137-.092-.136-.095-.135-.096-.134-.098-.132-.099-.132-.101-.13-.103-.13-.105-.128-.106-.127-.108-.125-.11-.125-.111-.123-.113-.122-.114-.12-.117-.12-.117-.117-.12-.117-.12-.114-.122-.113-.123-.111-.125-.11-.125-.108-.127-.106-.128-.105-.13-.103-.13-.101-.132-.099-.132-.098-.134-.096-.135-.095-.136-.092-.137-.091-.138-.089-.14-.088-.14-.085-.141-.084-.142-.082-.143-.08-.144-.079-.145-.077-.146-.075-.147-.073-.147-.071-.149-.069-.149-.068-.15-.066-.151-.064-.152-.062-.152-.06-.153-.058-.154-.057-.155-.054-.155-.053-.156-.051-.157-.049-.157-.047-.158-.045-.159-.043-.159-.041-.16-.039-.16-.037-.161-.036-.161-.033-.162-.032-.163-.029-.163-.028-.163-.025-.164-.024-.164-.021-.165-.02-.165-.017-.165-.015-.166-.014-.166-.011-.166-.009-.167-.008-.167-.005-.167-.003-.167-.001-.162v-1.516l.001-.187.004-.193.006-.192.008-.192.011-.191.014-.191.015-.19.018-.189.021-.189.022-.188.025-.187.028-.187.029-.185.032-.186.034-.184.037-.183.038-.183.041-.182.043-.181.045-.181.048-.179.049-.179.052-.177.054-.177.055-.176.058-.175.061-.174.062-.173.064-.172.066-.171.068-.17.07-.168.073-.168.074-.167.076-.166.078-.164.08-.164.082-.162.084-.161.085-.16.088-.159.089-.158.092-.156.092-.155.095-.154.097-.153.098-.152.101-.15.102-.149.103-.147.105-.147.108-.145.108-.143.111-.143.112-.14.113-.14.116-.138.117-.137.118-.135.121-.134.121-.132.124-.131.124-.129.127-.128.128-.127.129-.124.131-.124.132-.121.134-.121.135-.118.137-.117.138-.115.139-.114.141-.112.143-.111.143-.108.145-.108.147-.105.147-.104.149-.101.15-.101.152-.098.152-.097.154-.094.156-.094.156-.091.158-.089.159-.088.16-.085.161-.084.162-.082.164-.08.164-.078.166-.076.167-.074.167-.073.169-.07.17-.068.171-.066.172-.064.173-.063.174-.06.175-.058.176-.055.177-.054.177-.052.179-.049.179-.048.181-.045.181-.043.182-.041.182-.038.184-.037.184-.034.186-.032.185-.029.187-.028.187-.025.188-.022.189-.021.189-.018.19-.015.191-.014.191-.011.192-.008.192-.006.193-.004.187-.001h.014l.18.001.186.004.186.005.186.008.185.011.185.012.184.015.185.017.183.02.184.021.183.024.182.026.182.029.182.03.181.033.18.035.18.037.179.039.179.042.178.043.178.046.177.048.176.05.176.052.174.055.175.056.173.059.173.06.172.063.171.065.17.067.169.069.169.071.168.073.166.075.166.077.165.079.164.082.163.083.162.085.161.087.16.089.159.092.158.093.157.095.156.097.155.099.153.101.152.103.152.105.149.107.149.108.076.057v-2.026l.003-.127.012-.151.019-.15.026-.148.034-.146.041-.144.047-.139.054-.137.06-.134.067-.129.072-.126.078-.122.084-.118.088-.112.094-.109.099-.104.104-.099.109-.094.113-.088.117-.084.122-.078.125-.072.13-.067.133-.06.137-.054.141-.047.143-.041.146-.034.148-.026.15-.019.151-.012.128-.003h2.05l.128.003zm-14.298 5.998-.142.003-.141.004-.142.006-.14.008-.14.01-.14.012-.139.013-.138.015-.138.017-.138.018-.136.02-.137.022-.135.023-.135.025-.135.027-.133.028-.134.03-.132.031-.132.033-.131.035-.131.036-.13.038-.129.039-.129.041-.128.042-.127.044-.126.046-.126.047-.125.048-.125.05-.123.052-.123.052-.122.055-.122.055-.12.058-.12.058-.119.06-.118.061-.117.063-.116.064-.116.066-.115.067-.113.068-.113.07-.112.07-.111.073-.111.073-.109.075-.108.076-.108.077-.106.079-.106.08-.104.081-.103.082-.103.084-.101.084-.101.086-.099.087-.098.089-.098.089-.096.091-.095.091-.094.093-.093.094-.091.095-.091.096-.089.098-.089.098-.087.099-.086.101-.084.101-.084.103-.082.103-.081.104-.08.106-.079.106-.077.108-.076.108-.075.109-.073.111-.073.111-.07.112-.07.113-.068.113-.067.115-.066.116-.064.116-.062.117-.062.118-.06.119-.059.12-.057.121-.055.121-.055.122-.052.123-.052.123-.05.125-.048.125-.047.125-.046.127-.044.127-.042.128-.041.129-.039.129-.038.13-.036.131-.035.131-.033.132-.031.132-.03.134-.028.133-.027.135-.025.135-.023.135-.022.137-.02.136-.019.138-.016.138-.015.138-.013.139-.012.14-.01.14-.008.14-.006.141-.004.142-.003.142-.001.149v1.492l.001.124.002.118.004.118.005.117.006.117.008.117.01.117.011.117.012.116.013.116.016.116.016.116.018.115.019.115.021.114.022.114.024.114.025.114.026.113.027.113.029.113.031.112.032.111.033.111.034.111.036.11.037.11.038.109.04.109.041.109.042.107.044.108.045.106.046.107.048.105.049.105.05.105.051.104.053.103.054.102.055.103.057.101.057.1.059.1.061.1.061.099.063.097.064.097.065.097.066.096.068.095.069.094.07.093.071.093.072.091.074.091.075.09.076.09.077.088.078.088.08.086.08.086.082.085.083.084.084.083.085.082.086.08.086.08.088.078.088.077.089.076.091.075.091.074.091.072.093.071.093.07.094.069.095.068.096.066.096.065.098.064.098.063.098.061.099.061.1.059.101.057.102.057.102.055.102.054.103.053.104.051.105.05.105.049.105.048.107.046.106.045.108.044.107.042.109.041.109.04.109.038.11.037.11.036.111.034.111.033.111.032.113.031.112.029.113.027.113.026.113.025.114.024.115.022.114.021.115.019.115.018.116.016.116.016.116.013.116.012.117.011.117.01.117.008.117.006.117.005.118.004.118.002.124.001h2.992l.124-.001.118-.002.118-.004.117-.005.117-.006.117-.008.117-.01.117-.011.116-.012.116-.013.116-.016.116-.016.115-.018.115-.019.114-.021.115-.022.114-.024.113-.025.113-.026.113-.027.112-.029.112-.031.112-.032.111-.033.111-.034.11-.036.11-.037.109-.038.109-.04.109-.041.107-.042.108-.044.106-.045.107-.046.105-.048.105-.049.105-.05.104-.051.103-.053.102-.054.102-.055.102-.057.101-.057.1-.059.099-.061.098-.061.098-.063.098-.064.096-.065.096-.066.095-.068.094-.069.093-.07.093-.071.091-.072.091-.074.091-.075.089-.076.088-.077.088-.078.086-.08.086-.08.085-.082.084-.083.083-.084.082-.085.08-.086.08-.086.078-.088.077-.088.076-.09.075-.09.074-.091.072-.091.071-.093.07-.093.069-.094.068-.095.066-.096.065-.097.064-.097.063-.097.061-.099.061-.1.059-.1.057-.1.057-.101.055-.103.054-.102.053-.103.051-.104.05-.105.049-.105.048-.105.046-.107.045-.106.044-.108.042-.107.041-.109.04-.109.038-.109.037-.11.036-.11.034-.111.033-.111.032-.111.031-.112.029-.113.027-.113.026-.113.025-.114.024-.114.022-.114.021-.114.019-.115.018-.115.016-.116.016-.116.013-.116.012-.116.011-.117.01-.117.008-.117.006-.117.005-.117.004-.118.002-.118.001-.124v-3.221l-.549-1.705-.041-.124-.043-.123-.044-.122-.045-.122-.048-.121-.048-.12-.05-.121-.051-.119-.053-.119-.054-.118-.056-.118-.057-.117-.058-.116-.06-.115-.236-.446-.279-.436-.084-.128-.086-.127-.088-.125-.09-.124-.091-.124-.093-.122-.095-.12-.097-.12-.098-.118-.101-.117-.101-.116-.104-.115-.106-.113-.107-.112-.109-.111-.097-.095-.098-.095-.1-.093-.1-.092-.102-.091-.102-.089-.103-.088-.105-.087-.105-.085-.106-.084-.108-.082-.108-.082-.109-.079-.11-.079-.11-.076-.112-.076-.113-.074-.113-.072-.114-.072-.115-.069-.116-.069-.117-.067-.117-.065-.118-.064-.119-.063-.12-.061-.12-.059-.121-.058-.121-.057-.123-.055-.123-.054-.123-.052-.125-.05-.125-.049-.125-.048-.126-.046-.127-.044-.127-.043-.128-.042-.128-.039-.129-.039-.129-.036-.13-.036-.13-.033-.13-.032-.132-.031-.131-.028-.132-.028-.132-.025-.133-.024-.133-.023-.134-.02-.133-.02-.135-.017-.134-.016-.135-.014-.135-.013-.135-.011-.136-.009-.135-.007-.136-.006-.137-.005-.136-.002-.138-.001z"/><path d="m28 17c0-3.448-1.37-6.754-3.808-9.192s-5.744-3.808-9.192-3.808c-.001 0-.001 0-.002 0-7.179 0-12.998 5.819-12.998 12.998v1.504c0 3.049 1.211 5.974 3.368 8.13 2.156 2.157 5.081 3.368 8.13 3.368h3.004c3.049 0 5.974-1.211 8.13-3.368 2.157-2.156 3.368-5.081 3.368-8.13 0-.499 0-1 0-1.502z" fill="#fbc546"/><g clip-path="url(#b)"><path d="m29.153.003.151.012.15.019.149.026.145.034.143.041.141.047.136.054.134.06.13.067.125.072.122.078.117.083.113.089.109.094.104.099.099.104.094.109.088.113.084.117.078.122.072.126.067.129.06.133.054.137.047.141.041.143.034.145.026.149.019.15.012.152.003.127v7.05l-.003.127-.012.152-.019.15-.026.149-.034.145-.041.143-.047.141-.054.137-.06.133-.067.129-.072.126-.078.122-.084.117-.088.113-.094.109-.099.104-.104.099-.109.094-.113.089-.117.083-.122.078-.125.072-.13.067-.134.06-.136.054-.141.047-.143.041-.145.034-.149.026-.15.019-.151.012-.128.003h-2.05l-.128-.003-.151-.012-.15-.019-.149-.026-.145-.034-.143-.041-.141-.047-.137-.054-.133-.06-.13-.067-.125-.072-.122-.078-.117-.084-.114-.088-.108-.094-.104-.099-.099-.104-.094-.109-.088-.113-.084-.117-.078-.122-.072-.125-.067-.13-.06-.134-.054-.137-.047-.139-.041-.143-.034-.147-.026-.148-.019-.149-.012-.152-.003-.128v-7.05l.003-.128.012-.152.019-.149.026-.148.034-.147.041-.143.047-.139.054-.137.06-.134.067-.129.072-.126.078-.122.084-.117.088-.113.094-.109.099-.104.104-.099.108-.094.114-.088.117-.084.122-.078.125-.072.13-.067.133-.06.137-.054.141-.047.143-.041.145-.034.149-.026.15-.019.151-.012.128-.003h2.05l.128.003z" fill="#e59a10"/><circle cx="28" cy="15" fill="#d92020" r="2"/><path d="m28.102 11.001.102.004.102.006.101.009.1.012.1.014.099.016.098.019.098.021.096.024.096.026.095.028.094.031.093.032.091.035.091.037.089.039.088.042.087.043.086.045.085.047.083.05.081.051.081.053.079.054.078.057.076.058.074.06.073.062.072.064.07.065.068.067.067.068.065.07.064.072.062.073.06.074.058.077.057.077.054.079.053.08.051.082.05.083.047.085.045.085.043.088.042.088.039.089.037.091.034.091.033.093.031.094.028.095.026.096.024.097.021.097.019.098.016.099.014.1.012.1.009.101.006.102.004.102.001.102-.001.102-.004.102-.006.102-.009.101-.012.1-.014.1-.016.099-.019.098-.021.097-.024.097-.026.096-.028.095-.031.094-.033.093-.034.091-.037.091-.039.089-.042.088-.043.088-.045.085-.047.085-.05.083-.051.082-.053.08-.054.079-.057.077-.058.077-.06.074-.062.073-.064.072-.065.07-.067.068-.068.067-.07.065-.072.064-.073.062-.074.06-.076.058-.078.057-.079.054-.081.053-.081.051-.083.05-.085.047-.086.045-.087.043-.088.042-.089.039-.091.037-.091.035-.093.032-.094.031-.095.028-.096.026-.096.024-.098.021-.098.019-.099.016-.1.014-.1.012-.101.009-.102.006-.102.004-.102.001-.102-.001-.102-.004-.102-.006-.101-.009-.1-.012-.1-.014-.099-.016-.098-.019-.098-.021-.096-.024-.096-.026-.095-.028-.094-.031-.093-.032-.091-.035-.091-.037-.089-.039-.088-.042-.087-.043-.086-.045-.085-.047-.083-.05-.081-.051-.081-.053-.079-.054-.078-.057-.076-.058-.074-.06-.073-.062-.072-.064-.07-.065-.068-.067-.067-.068-.065-.07-.064-.072-.062-.073-.06-.074-.058-.077-.057-.077-.054-.079-.053-.08-.051-.082-.05-.083-.047-.085-.045-.085-.043-.088-.042-.088-.039-.089-.037-.091-.034-.091-.033-.093-.031-.094-.028-.095-.026-.096-.024-.097-.021-.097-.019-.098-.016-.099-.014-.1-.012-.1-.009-.101-.006-.102-.004-.102-.001-.102.001-.102.004-.102.006-.102.009-.101.012-.1.014-.1.016-.099.019-.098.021-.097.024-.097.026-.096.028-.095.031-.094.033-.093.034-.091.037-.091.039-.089.042-.088.043-.088.045-.085.047-.085.05-.083.051-.082.053-.08.054-.079.057-.077.058-.077.06-.074.062-.073.064-.072.065-.07.067-.068.068-.067.07-.065.072-.064.073-.062.074-.06.076-.058.078-.057.079-.054.081-.053.081-.051.083-.05.085-.047.086-.045.087-.043.088-.042.089-.039.091-.037.091-.035.093-.032.094-.031.095-.028.096-.026.096-.024.098-.021.098-.019.099-.016.1-.014.1-.012.101-.009.102-.006.102-.004.102-.001z" fill="#e59a10"/></g><path d="m12.449 23.579c-.285-.459-.449-1-.449-1.579 0-.654 0-1.346 0-2 0-1.657 1.343-3 3-3s3 1.343 3 3v2c0 .579-.164 1.12-.449 1.579-.78-.374-4.322-.374-5.102 0z" fill="#722245"/><path d="m12.449 23.579c.78-.374 1.649-.579 2.551-.579.902 0 1.771.205 2.551.579-.529.853-1.474 1.421-2.551 1.421s-2.022-.568-2.551-1.421z" fill="#ca3b8f"/><path d="m11 10.5c0-.398-.158-.779-.439-1.061-.282-.281-.663-.439-1.061-.439s-.779.158-1.061.439c-.281.282-.439.663-.439 1.061v4c0 .398.158.779.439 1.061.282.281.663.439 1.061.439s.779-.158 1.061-.439c.281-.282.439-.663.439-1.061 0-1.181 0-2.819 0-4z"/><path d="m22 10.498c0-.397-.158-.778-.439-1.059s-.662-.439-1.059-.439c-.001 0-.003 0-.004 0-.397 0-.778.158-1.059.439s-.439.662-.439 1.059v4.004c0 .397.158.778.439 1.059s.662.439 1.059.439h.004c.397 0 .778-.158 1.059-.439s.439-.662.439-1.059c0-1.182 0-2.822 0-4.004z"/><g fill="#fff"><path d="m30 3c0-.552-.448-1-1-1-.611 0-1.389 0-2 0-.552 0-1 .448-1 1v7c0 .552.448 1 1 1h2c.552 0 1-.448 1-1 0-1.732 0-5.268 0-7z"/><circle cx="28" cy="15" r="2"/></g></g></svg>