<svg clip-rule="evenodd" fill-rule="evenodd" stroke-linejoin="round" stroke-miterlimit="1.41421" viewBox="0 0 32 32" xmlns="http://www.w3.org/2000/svg" xmlns:xlink="http://www.w3.org/1999/xlink"><clipPath id="a"><path clip-rule="evenodd" d="m0 0h32v32h-32z"/></clipPath><clipPath id="b"><path clip-rule="evenodd" d="m28 17c0-7.18-5.82-13-13-13-7.18 0-13 5.82-13 13v2c0 2.917 1.159 5.715 3.222 7.778s4.861 3.222 7.778 3.222h4c2.917 0 5.715-1.159 7.778-3.222s3.222-4.861 3.222-7.778c0-.662 0-1.331 0-2z"/></clipPath><path d="m0 0h32v32h-32z" fill="none"/><g clip-path="url(#a)"><path d="m15.249 2.002.125.003.124.003.124.005.124.005.123.007.123.007.123.009.123.009.123.011.122.012.122.012.121.013.122.015.121.015.121.017.12.017.12.018.12.019.12.021.119.021.119.022.119.023.118.024.118.025.118.025.117.027.117.028.117.028.116.03.116.03.116.031.115.032.115.033.114.034.114.035.114.036.113.036.113.038.112.038.112.039.112.04.112.041.11.042.111.042.11.044.109.044.109.045.109.046.108.046.108.048.108.048.107.049.106.05.106.051.105.052.106.052.104.053.104.054.104.055.103.056.103.056.102.057.101.058.101.058.101.06.1.06.1.061.099.061.099.063.098.063.097.064.097.064.097.066.096.065.095.067.095.068.094.068.094.069.078.058v-2.025l.003-.127.012-.151.019-.15.026-.149.034-.146.041-.142.047-.14.054-.137.06-.134.067-.129.072-.126.078-.122.083-.117.089-.113.095-.109.098-.103.104-.1.109-.094.112-.088.118-.084.122-.078.125-.072.13-.067.134-.06.136-.054.141-.047.143-.041.145-.034.149-.026.15-.019.151-.012.128-.003h2.05l.128.003.151.012.151.019.148.026.145.034.143.041.141.047.137.054.133.06.129.067.127.072.121.078.117.083.113.089.109.094.104.099.099.104.094.109.088.112.084.118.078.122.072.126.067.129.06.134.054.136.048.141.04.143.034.146.026.147.019.15.012.152.003.127v7.052l-.003.127-.012.152-.019.15-.026.147-.034.146-.04.143-.048.141-.054.136-.06.134-.067.129-.072.126-.078.122-.084.118-.088.112-.094.109-.099.104-.104.099-.078.067.02.022.064.072.062.073.06.074.058.076.057.078.055.08.053.08.05.081.049.083.048.085.045.086.043.086.042.089.039.089.037.091.035.092.032.092.031.094.028.095.026.096.024.096.021.098.019.098.016.099.014.1.012.1.009.101.006.101.004.102.001.103-.001.103-.004.102-.006.101-.009.101-.012.1-.014.1-.016.099-.019.098-.021.098-.024.096-.026.096-.028.095-.031.094-.032.092-.035.092-.037.091-.039.089-.042.089-.043.086-.045.086-.047.084-.049.083-.052.083-.053.08-.054.079-.057.078-.058.076-.06.074-.062.073-.064.072-.065.07-.067.068-.068.067-.07.065-.072.064-.073.061-.074.061-.077.058-.077.057-.079.054-.081.053-.081.051-.076.045v.542l-.001.155-.003.162-.005.161-.007.16-.009.161-.011.16-.013.16-.015.16-.016.159-.019.159-.021.158-.022.159-.025.157-.026.158-.029.157-.03.156-.032.156-.034.155-.036.155-.038.155-.04.154-.041.153-.044.153-.045.152-.047.151-.049.152-.051.15-.052.149-.055.149-.056.148-.058.148-.06.147-.061.146-.063.145-.066.145-.066.144-.069.143-.07.142-.073.141-.073.141-.076.139-.077.139-.079.138-.081.136-.083.136-.084.135-.086.134-.087.133-.089.132-.091.131-.093.13-.094.129-.096.128-.097.127-.099.125-.101.125-.103.123-.103.122-.106.121-.107.12-.109.119-.11.117-.112.116-.114.115-.115.114-.116.112-.117.11-.119.109-.119.107-.121.106-.123.104-.123.102-.125.101-.125.099-.127.097-.128.096-.129.094-.13.093-.131.091-.132.089-.133.087-.134.086-.135.084-.136.083-.136.081-.138.079-.139.077-.14.076-.14.073-.141.073-.142.07-.143.069-.144.066-.145.066-.145.063-.146.061-.147.06-.147.058-.149.056-.149.055-.149.052-.151.051-.151.049-.151.047-.152.045-.153.044-.153.041-.154.04-.155.038-.155.036-.155.034-.156.032-.156.03-.157.029-.158.026-.157.025-.159.022-.158.021-.159.019-.159.016-.16.015-.16.013-.16.011-.16.009-.161.007-.161.005-.162.003-.155.001h-4.012l-.155-.001-.162-.003-.161-.005-.161-.007-.16-.009-.16-.011-.16-.013-.16-.015-.159-.016-.159-.019-.159-.021-.158-.022-.158-.025-.157-.026-.157-.029-.156-.03-.156-.032-.155-.034-.155-.036-.155-.038-.154-.04-.153-.041-.153-.044-.152-.045-.151-.047-.151-.049-.151-.051-.149-.052-.149-.055-.149-.056-.147-.058-.147-.06-.146-.061-.145-.063-.145-.066-.144-.066-.143-.069-.142-.07-.141-.073-.141-.073-.139-.076-.139-.077-.138-.079-.136-.081-.136-.083-.135-.084-.134-.086-.133-.087-.132-.089-.131-.091-.13-.093-.129-.094-.128-.096-.127-.097-.125-.099-.125-.101-.123-.102-.122-.104-.122-.106-.119-.107-.119-.109-.117-.11-.116-.112-.115-.114-.114-.115-.112-.116-.11-.117-.109-.119-.107-.119-.106-.122-.104-.122-.102-.123-.101-.125-.099-.125-.097-.127-.096-.128-.094-.129-.093-.13-.091-.13-.089-.133-.088-.133-.085-.134-.084-.134-.083-.137-.081-.136-.079-.138-.077-.139-.076-.139-.074-.141-.071-.141-.071-.142-.069-.143-.066-.144-.066-.145-.063-.145-.061-.146-.06-.147-.058-.148-.056-.148-.055-.149-.052-.149-.051-.15-.049-.152-.047-.151-.045-.152-.044-.153-.041-.153-.04-.154-.038-.155-.036-.154-.034-.156-.032-.156-.03-.156-.029-.157-.026-.158-.025-.157-.022-.158-.021-.159-.019-.159-.016-.159-.015-.16-.013-.16-.011-.16-.009-.161-.007-.16-.005-.161-.003-.162-.001-.155v-2.012l.001-.187.004-.193.006-.192.008-.192.011-.191.014-.191.015-.19.018-.189.021-.189.022-.188.025-.187.028-.187.029-.186.032-.185.034-.184.037-.184.038-.183.041-.182.043-.181.045-.18.048-.18.049-.178.052-.178.054-.177.056-.176.058-.175.06-.173.062-.173.064-.172.066-.172.068-.169.071-.169.072-.168.074-.167.076-.166.078-.164.08-.164.082-.162.084-.161.086-.16.087-.159.09-.158.091-.156.093-.155.095-.155.096-.152.099-.152.1-.15.102-.149.103-.148.106-.146.107-.145.109-.144.11-.142.112-.141.114-.139.115-.138.117-.137.119-.135.12-.134.122-.132.123-.131.125-.13.126-.128.128-.126.13-.125.131-.123.132-.122.134-.12.135-.119.137-.117.138-.115.139-.114.141-.112.142-.11.144-.109.145-.107.146-.106.148-.103.149-.102.15-.1.152-.099.153-.096.153-.095.156-.093.156-.091.158-.09.159-.087.16-.086.161-.084.162-.082.164-.08.164-.078.166-.076.167-.074.168-.072.169-.071.17-.068.171-.066.172-.064.172-.062.174-.06.175-.058.176-.056.177-.054.178-.052.178-.049.18-.048.18-.045.181-.043.182-.041.183-.038.184-.037.184-.034.185-.032.186-.029.187-.028.187-.025.188-.022.189-.021.189-.018.19-.015.191-.014.191-.011.192-.008.192-.006.193-.004.191-.001h.127l.124.002zm-.392 3.999-.142.003-.142.004-.141.006-.14.008-.14.01-.14.012-.139.013-.139.015-.138.017-.137.018-.137.02-.136.022-.136.023-.135.025-.134.027-.134.028-.133.03-.133.031-.132.033-.131.035-.131.036-.13.038-.129.039-.128.041-.128.043-.128.043-.126.046-.126.047-.125.048-.124.05-.124.052-.123.053-.122.054-.121.056-.121.057-.12.058-.119.06-.118.062-.117.062-.116.065-.116.065-.115.067-.113.068-.113.07-.113.071-.111.072-.11.073-.109.075-.109.076-.107.078-.106.078-.106.08-.104.081-.104.083-.102.083-.102.085-.1.086-.099.087-.099.088-.097.09-.096.09-.095.092-.094.093-.093.094-.092.095-.09.096-.09.097-.088.099-.087.099-.086.1-.085.102-.083.102-.083.104-.081.104-.08.106-.078.106-.078.107-.076.109-.075.109-.073.11-.072.112-.071.112-.07.113-.068.114-.067.114-.065.116-.065.116-.062.117-.062.118-.06.119-.058.12-.057.121-.056.121-.055.122-.052.123-.052.124-.05.124-.048.125-.047.126-.045.126-.044.128-.043.128-.041.128-.039.129-.038.13-.036.131-.035.131-.033.132-.031.133-.03.133-.029.134-.026.134-.025.136-.023.135-.022.136-.02.137-.018.137-.017.138-.015.139-.013.139-.012.14-.01.14-.008.14-.006.141-.004.142-.003.142-.001.149v1.988l.001.118.002.111.003.112.005.111.006.112.008.11.009.111.01.111.012.11.013.11.014.109.016.11.017.109.018.109.02.109.021.108.022.108.023.107.025.108.026.107.028.106.029.106.03.106.031.106.033.105.033.104.036.104.036.104.038.102.039.103.04.103.041.101.043.101.044.101.045.1.046.1.047.098.049.099.05.098.051.097.053.097.053.096.055.095.056.095.057.094.058.093.06.093.06.092.062.091.063.091.064.09.065.089.066.089.068.088.068.087.07.086.071.085.072.085.073.083.074.083.076.083.076.081.078.08.078.08.08.078.08.078.081.076.083.076.083.074.083.073.085.072.085.071.086.069.087.069.088.068.089.066.089.065.09.064.09.063.092.062.092.06.093.06.093.058.094.057.095.056.095.055.096.053.097.053.097.051.098.05.099.049.098.047.1.046.1.045.101.044.101.043.102.041.102.04.102.039.103.038.104.036.104.036.105.033.104.033.106.031.106.03.106.029.106.028.107.026.108.025.107.023.108.022.108.021.109.02.109.018.109.017.109.016.11.014.11.013.11.012.111.01.111.009.11.008.112.006.111.005.112.003.111.002.118.001h3.988l.118-.001.112-.002.111-.003.111-.005.112-.006.11-.008.111-.009.111-.01.11-.012.11-.013.11-.014.109-.016.109-.017.109-.018.109-.02.108-.021.108-.022.107-.023.108-.025.107-.026.106-.028.106-.029.106-.03.106-.031.104-.033.105-.033.104-.036.104-.036.103-.038.102-.039.102-.04.102-.041.101-.043.101-.044.1-.045.1-.046.098-.047.099-.049.098-.05.097-.051.097-.053.096-.053.095-.055.095-.056.094-.057.093-.058.093-.06.092-.06.092-.062.09-.063.09-.064.089-.065.089-.066.088-.068.087-.069.086-.069.085-.071.085-.072.083-.073.084-.074.082-.076.081-.076.08-.078.08-.078.078-.08.078-.08.076-.081.076-.083.074-.082.073-.084.072-.085.071-.085.07-.086.068-.087.068-.088.066-.088.065-.09.064-.09.063-.09.062-.092.06-.092.06-.093.058-.093.057-.094.056-.095.055-.095.053-.096.053-.097.051-.097.05-.098.049-.099.047-.098.046-.1.045-.1.044-.101.043-.101.041-.102.04-.102.039-.102.038-.103.036-.104.036-.104.033-.104.033-.105.031-.106.03-.106.029-.106.028-.106.026-.107.025-.107.023-.108.022-.108.021-.108.02-.109.018-.109.017-.109.016-.109.014-.11.013-.11.012-.11.01-.111.009-.111.008-.11.006-.112.005-.111.003-.112.002-.111.001-.118v-3.731l-.546-1.695-.041-.125-.043-.123-.044-.122-.046-.122-.047-.121-.049-.121-.049-.119-.052-.119-.052-.118-.054-.118-.055-.117-.057-.116-.058-.115-.059-.115-.231-.434-.252-.395-.046-.072-.047-.072-.048-.071-.048-.07-.049-.07-.049-.07-.049-.07-.051-.069-.05-.068-.052-.069-.052-.068-.052-.067-.053-.067-.053-.067-.054-.066-.054-.066-.055-.065-.055-.065-.056-.064-.056-.064-.057-.064-.058-.063-.057-.063-.058-.062-.059-.062-.06-.061-.059-.061-.06-.061-.061-.059-.061-.06-.061-.059-.063-.059-.062-.058-.063-.057-.063-.057-.064-.057-.064-.056-.065-.056-.065-.055-.065-.055-.066-.054-.066-.054-.067-.053-.067-.052-.068-.052-.068-.052-.068-.051-.069-.051-.069-.05-.07-.049-.07-.049-.07-.049-.071-.048-.071-.047-.072-.047-.072-.046-.072-.046-.073-.045-.073-.045-.073-.044-.074-.043-.074-.043-.075-.043-.075-.042-.075-.041-.075-.041-.076-.04-.077-.039-.076-.039-.077-.038-.077-.038-.078-.037-.078-.037-.078-.036-.079-.035-.079-.035-.079-.034-.08-.034-.08-.033-.08-.032-.08-.032-.081-.031-.081-.031-.081-.03-.082-.029-.082-.028-.082-.028-.083-.028-.083-.027-.083-.026-.083-.025-.084-.025-.084-.024-.084-.024-.085-.022-.085-.023-.085-.021-.085-.021-.086-.02-.086-.02-.086-.019-.086-.018-.087-.017-.087-.017-.087-.016-.087-.016-.088-.015-.088-.014-.088-.013-.088-.013-.089-.012-.089-.011-.089-.011-.089-.009-.089-.01-.09-.008-.09-.008-.09-.007-.091-.006-.09-.006-.091-.005-.091-.004-.092-.003-.091-.003-.092-.001-.092-.002h-.09l-.145.001zm13.143-2.001v5z"/><path d="m28 17c0-7.18-5.82-13-13-13-7.18 0-13 5.82-13 13v2c0 2.917 1.159 5.715 3.222 7.778s4.861 3.222 7.778 3.222h4c2.917 0 5.715-1.159 7.778-3.222s3.222-4.861 3.222-7.778c0-.662 0-1.331 0-2z" fill="#fbc546"/><g clip-path="url(#b)"><path d="m29.153.003.151.012.15.019.149.026.145.034.143.041.141.047.137.054.133.06.13.067.125.072.122.078.117.084.114.088.108.094.104.099.099.104.094.109.088.113.084.117.078.122.072.125.067.13.06.134.054.137.047.14.041.143.034.145.026.149.019.149.012.152.003.128v7.05l-.003.128-.012.152-.019.149-.026.149-.034.145-.041.143-.047.14-.054.137-.06.134-.067.13-.072.125-.078.122-.084.117-.088.113-.094.109-.099.104-.104.099-.108.094-.114.088-.117.084-.122.078-.125.072-.13.067-.133.06-.137.054-.141.047-.143.041-.145.034-.149.026-.15.019-.151.012-.128.003h-2.05l-.128-.003-.151-.012-.15-.019-.149-.026-.145-.034-.143-.041-.141-.047-.136-.054-.134-.06-.13-.067-.125-.072-.122-.078-.117-.084-.114-.088-.108-.094-.104-.099-.099-.104-.094-.109-.088-.113-.084-.117-.078-.122-.072-.126-.067-.129-.06-.133-.054-.137-.047-.141-.041-.143-.034-.145-.026-.149-.019-.15-.012-.152-.003-.127v-7.05l.003-.127.012-.152.019-.15.026-.149.034-.145.041-.143.047-.141.054-.137.06-.133.067-.129.072-.126.078-.122.084-.117.088-.113.094-.109.099-.104.104-.099.108-.094.114-.088.117-.084.122-.078.125-.072.13-.067.134-.06.136-.054.141-.047.143-.041.145-.034.149-.026.15-.019.151-.012.128-.003h2.05l.128.003z" fill="#e59a10"/><circle cx="28" cy="15" fill="#d92020" r="2"/><path d="m28.102 11.001.102.004.102.006.101.009.1.012.1.014.099.016.098.019.098.021.096.024.096.026.095.028.094.031.093.032.091.035.091.037.089.039.088.042.087.043.086.045.085.047.083.05.081.051.081.053.079.054.078.057.076.058.074.06.073.062.072.064.07.065.068.067.067.068.065.07.064.072.062.073.06.074.058.077.057.077.054.079.053.08.051.082.05.083.047.085.045.085.043.088.042.088.039.089.037.091.034.091.033.093.031.094.028.095.026.096.024.097.021.097.019.098.016.099.014.1.012.1.009.101.006.102.004.102.001.102-.001.102-.004.102-.006.102-.009.101-.012.1-.014.1-.016.099-.019.098-.021.097-.024.097-.026.096-.028.095-.031.094-.033.093-.034.091-.037.091-.039.089-.042.088-.043.088-.045.085-.047.085-.05.083-.051.082-.053.08-.054.079-.057.077-.058.077-.06.074-.062.073-.064.072-.065.07-.067.068-.068.067-.07.065-.072.064-.073.062-.074.06-.076.058-.078.057-.079.054-.081.053-.081.051-.083.05-.085.047-.086.045-.087.043-.088.042-.089.039-.091.037-.091.035-.093.032-.094.031-.095.028-.096.026-.096.024-.098.021-.098.019-.099.016-.1.014-.1.012-.101.009-.102.006-.102.004-.102.001-.102-.001-.102-.004-.102-.006-.101-.009-.1-.012-.1-.014-.099-.016-.098-.019-.098-.021-.096-.024-.096-.026-.095-.028-.094-.031-.093-.032-.091-.035-.091-.037-.089-.039-.088-.042-.087-.043-.086-.045-.085-.047-.083-.05-.081-.051-.081-.053-.079-.054-.078-.057-.076-.058-.074-.06-.073-.062-.072-.064-.07-.065-.068-.067-.067-.068-.065-.07-.064-.072-.062-.073-.06-.074-.058-.077-.057-.077-.054-.079-.053-.08-.051-.082-.05-.083-.047-.085-.045-.085-.043-.088-.042-.088-.039-.089-.037-.091-.034-.091-.033-.093-.031-.094-.028-.095-.026-.096-.024-.097-.021-.097-.019-.098-.016-.099-.014-.1-.012-.1-.009-.101-.006-.102-.004-.102-.001-.102.001-.102.004-.102.006-.102.009-.101.012-.1.014-.1.016-.099.019-.098.021-.097.024-.097.026-.096.028-.095.031-.094.033-.093.034-.091.037-.091.039-.089.042-.088.043-.088.045-.085.047-.085.05-.083.051-.082.053-.08.054-.079.057-.077.058-.077.06-.074.062-.073.064-.072.065-.07.067-.068.068-.067.07-.065.072-.064.073-.062.074-.06.076-.058.078-.057.079-.054.081-.053.081-.051.083-.05.085-.047.086-.045.087-.043.088-.042.089-.039.091-.037.091-.035.093-.032.094-.031.095-.028.096-.026.096-.024.098-.021.098-.019.099-.016.1-.014.1-.012.101-.009.102-.006.102-.004.102-.001z" fill="#e59a10"/></g><path d="m8.794 24.381c-.308.038-.621-.07-.842-.299-.267-.277-.351-.684-.216-1.045.173-.461.364-.972.561-1.495 1.024-2.732 3.636-4.542 6.554-4.542h.298c2.918 0 5.53 1.81 6.554 4.542.197.523.388 1.034.561 1.495.135.361.051.768-.216 1.045-.221.229-.534.337-.842.299-1.96-2.445-10.505-2.468-12.412 0z" fill="#722245"/><path d="m8.794 24.381c1.342-2.081 3.666-3.381 6.205-3.381h.002c2.539 0 4.863 1.3 6.205 3.381-.065-.008-.131-.023-.195-.044-.978-.326-2.119-.706-2.933-.978-.714-.238-1.462-.359-2.214-.359-.541 0-1.187 0-1.728 0-.752 0-1.5.121-2.214.359-.814.272-1.955.652-2.933.978-.064.021-.13.036-.195.044z" fill="#ca3b8f"/><path d="m11 10.5c0-.398-.158-.779-.439-1.061-.282-.281-.663-.439-1.061-.439s-.779.158-1.061.439c-.281.282-.439.663-.439 1.061v4c0 .398.158.779.439 1.061.282.281.663.439 1.061.439s.779-.158 1.061-.439c.281-.282.439-.663.439-1.061 0-1.181 0-2.819 0-4z"/><path d="m22 10.498c0-.397-.158-.778-.439-1.059s-.662-.439-1.059-.439c-.001 0-.003 0-.004 0-.397 0-.778.158-1.059.439s-.439.662-.439 1.059v4.004c0 .397.158.778.439 1.059s.662.439 1.059.439h.004c.397 0 .778-.158 1.059-.439s.439-.662.439-1.059c0-1.182 0-2.822 0-4.004z"/><g fill="#fff"><path d="m30 3c0-.552-.448-1-1-1-.611 0-1.389 0-2 0-.552 0-1 .448-1 1v7c0 .552.448 1 1 1h2c.552 0 1-.448 1-1 0-1.732 0-5.268 0-7z"/><circle cx="28" cy="15" r="2"/></g></g></svg>