<svg clip-rule="evenodd" fill-rule="evenodd" stroke-linejoin="round" stroke-miterlimit="1.41421" viewBox="0 0 32 32" xmlns="http://www.w3.org/2000/svg" xmlns:xlink="http://www.w3.org/1999/xlink"><clipPath id="a"><path clip-rule="evenodd" d="m0 0h32v32h-32z"/></clipPath><path d="m0 0h32v32h-32z" fill="none"/><g clip-path="url(#a)"><path d="m16.186.001.186.004.186.005.186.008.185.011.185.012.184.015.185.017.183.02.184.021.183.024.182.026.182.029.182.03.181.033.18.035.18.037.179.039.179.042.178.043.178.046.177.048.176.05.176.052.174.055.175.056.173.059.173.06.171.063.172.065.17.067.169.069.169.071.168.073.166.075.166.077.165.079.164.082.163.083.162.085.161.087.16.089.159.092.158.093.157.095.156.097.155.099.153.101.152.103.151.105.15.107.149.108.148.111.146.112.145.115.143.116.143.118.141.12.139.122.139.123.136.126.136.127.134.13.133.13.131.133.129.134.127.135.125.137.124.138.122.14.12.141.118.143.116.143.115.145.112.146.111.148.108.149.107.15.105.151.103.152.101.153.099.155.097.156.095.157.093.158.092.159.089.16.087.161.085.162.083.163.082.164.079.165.077.166.075.166.073.168.071.169.069.169.067.17.065.172.063.171.06.173.059.173.056.174.055.175.052.176.05.176.048.177.046.178.043.178.042.179.039.179.037.18.035.18.033.181.03.182.029.182.026.182.024.183.021.184.02.183.017.185.015.184.012.185.011.185.008.186.005.186.004.186.001.18v1.015l-.001.128-.002.133-.003.134-.004.132-.006.133-.007.133-.008.132-.009.132-.011.132-.012.132-.013.131-.014.132-.016.131-.017.131-.018.131-.019.13-.021.13-.021.13-.023.129-.024.13-.026.129-.026.129-.028.128-.029.128-.03.128-.031.127-.033.127-.033.127-.035.126-.036.126-.037.126-.039.125-.039.125-.041.124-.041.124-.044.124-.044.123-.045.123-.046.123-.048.121-.048.122-.05.121-.051.12-.052.12-.053.12-.055.119-.055.119-.056.118-.058.117-.059.117-.06.116-.061.117-.062.115-.063.115-.064.114-.065.114-.067.113-.049.083.001.025.004.082.002.083.001.073v2.009.038l.001.031.001.03.002.031.002.031.002.03.004.031.003.03.004.03.004.03.005.031.006.03.006.03.006.03.007.03.009.037 1.423 5.692-.24.308h-10.245v-2.324l-.183.038-.184.037-.184.034-.186.032-.186.029-.186.026-.187.024-.187.022-.188.019-.188.017-.189.014-.189.011-.189.009-.19.007-.19.004-.183.001h-2.022l-.183-.001-.19-.004-.19-.007-.189-.009-.189-.011-.189-.014-.188-.017-.188-.019-.187-.022-.187-.024-.186-.026-.186-.029-.185-.032-.185-.034-.184-.037-.183-.038v2.324h-10.245l-.24-.308 1.424-5.692.008-.037.007-.03.007-.03.005-.031.006-.029.005-.031.004-.029.004-.03.003-.031.004-.031.002-.031.002-.03.002-.03.001-.031.001-.031v-.038-2.009l.001-.073.002-.083.004-.082.001-.025-.049-.083-.067-.113-.065-.114-.064-.114-.063-.115-.062-.115-.061-.116-.06-.117-.059-.117-.057-.117-.057-.118-.055-.119-.055-.119-.053-.12-.052-.119-.051-.121-.05-.121-.048-.121-.048-.122-.046-.123-.045-.122-.045-.124-.043-.124-.041-.124-.041-.124-.039-.125-.039-.125-.037-.126-.036-.126-.035-.126-.033-.127-.033-.127-.031-.127-.03-.128-.029-.128-.028-.129-.026-.128-.026-.129-.024-.129-.023-.13-.021-.13-.021-.13-.019-.131-.018-.13-.017-.131-.016-.131-.014-.132-.013-.131-.012-.132-.011-.132-.009-.132-.008-.132-.007-.133-.006-.133-.004-.133-.003-.133-.002-.133-.001-.128v-1.015l.001-.187.004-.193.006-.192.008-.192.011-.191.014-.191.015-.19.018-.189.021-.189.022-.188.025-.187.028-.187.029-.186.032-.185.034-.184.037-.184.038-.183.041-.182.043-.181.045-.18.048-.18.049-.178.052-.178.054-.177.056-.176.058-.175.06-.174.062-.172.064-.173.066-.171.068-.169.071-.169.072-.168.074-.167.076-.166.078-.164.08-.164.082-.162.084-.161.085-.16.088-.159.09-.158.091-.156.093-.155.095-.155.096-.152.099-.152.1-.15.102-.149.103-.148.106-.146.107-.145.109-.143.11-.143.112-.141.114-.139.115-.138.117-.137.119-.135.12-.134.122-.132.123-.131.125-.13.127-.128.127-.126.13-.125.131-.123.132-.122.134-.12.135-.119.137-.117.138-.115.139-.114.141-.112.142-.11.144-.109.145-.107.146-.105.148-.104.149-.102.15-.1.152-.099.152-.096.155-.095.155-.093.156-.091.158-.09.159-.087.16-.086.161-.084.162-.082.164-.08.164-.078.166-.076.167-.074.168-.072.169-.071.17-.068.17-.066.173-.064.172-.062.174-.06.175-.058.176-.056.177-.054.178-.052.178-.049.18-.048.18-.045.181-.043.182-.041.183-.038.184-.037.184-.034.185-.032.186-.029.187-.028.187-.025.188-.022.189-.021.189-.018.19-.015.191-.014.191-.011.192-.008.192-.006.193-.004.193-.001.186.001zm-5.109 25.199.123.051.124.05.124.048.125.047.126.045.126.043.127.041.128.04.128.038.128.037.13.034.129.033.13.032.131.029.131.028.131.026.132.024.132.023.133.021.133.019.134.017.133.015.135.014.134.012.135.01.135.008.135.007.135.004.136.003.143.001h1.994l.143-.001.136-.003.135-.004.135-.007.135-.008.135-.01.134-.012.135-.014.133-.015.134-.017.133-.019.133-.021.132-.023.132-.024.131-.026.131-.028.131-.029.13-.032.13-.033.129-.034.128-.037.128-.038.128-.04.127-.041.126-.043.126-.045.125-.047.124-.048.124-.05.123-.051.122-.053 2.213-.996.742.48v3.369h1.438l-.261-1.045-.019-.081-.021-.09-.019-.091-.017-.09-.016-.09-.015-.09-.013-.091-.012-.091-.011-.092-.009-.091-.007-.091-.007-.092-.005-.091-.003-.092-.002-.092-.001-.085v-2.006-.019-.01l-.001-.009v-.009l-.001-.01-.001-.01-.001-.008-.001-.009-.002-.01-.001-.008-.002-.008-.002-.009-.002-.008-.002-.009-.002-.008-.265-.926.584-.859.051-.078.052-.079.05-.079.05-.08.049-.08.048-.08.048-.081.046-.081.046-.081.045-.083.044-.082.044-.082.043-.084.042-.084.041-.083.04-.085.04-.084.038-.085.038-.086.038-.086.036-.086.036-.086.034-.087.034-.087.033-.087.033-.088.031-.088.031-.088.03-.089.029-.089.028-.089.027-.09.027-.089.026-.09.024-.09.024-.091.024-.091.022-.091.021-.091.021-.091.02-.092.019-.092.018-.092.017-.092.016-.093.016-.093.015-.093.013-.093.013-.093.012-.093.011-.094.011-.094.009-.094.009-.094.007-.094.007-.095.006-.094.005-.095.004-.095.003-.095.002-.095.002-.095v-.1-.993l-.001-.143-.002-.136-.005-.136-.006-.137-.007-.136-.009-.135-.011-.135-.013-.135-.014-.135-.016-.135-.017-.134-.02-.133-.02-.134-.023-.133-.024-.132-.025-.133-.028-.132-.028-.131-.031-.131-.032-.131-.033-.131-.036-.129-.036-.129-.038-.129-.04-.128-.042-.128-.043-.127-.044-.127-.046-.126-.048-.125-.049-.125-.05-.125-.052-.123-.054-.123-.055-.122-.057-.122-.058-.121-.059-.121-.061-.119-.063-.119-.064-.118-.065-.117-.067-.117-.069-.116-.069-.115-.072-.114-.072-.113-.074-.113-.076-.111-.077-.111-.078-.11-.079-.109-.082-.108-.082-.108-.084-.106-.085-.105-.087-.105-.088-.103-.089-.102-.091-.102-.092-.1-.093-.1-.095-.098-.096-.097-.097-.096-.098-.095-.1-.093-.1-.092-.102-.091-.102-.089-.103-.088-.105-.087-.105-.085-.106-.084-.108-.082-.108-.082-.109-.079-.11-.078-.111-.077-.111-.076-.113-.074-.113-.072-.114-.072-.115-.069-.116-.069-.117-.067-.117-.065-.118-.064-.119-.063-.12-.061-.12-.059-.121-.058-.122-.057-.122-.055-.123-.054-.123-.052-.125-.05-.125-.049-.125-.048-.126-.046-.127-.044-.127-.043-.128-.042-.128-.039-.129-.039-.129-.037-.13-.035-.13-.033-.13-.032-.132-.031-.131-.028-.132-.028-.132-.025-.133-.024-.133-.023-.134-.02-.133-.02-.135-.017-.134-.016-.135-.014-.135-.013-.135-.011-.136-.009-.135-.007-.137-.006-.136-.005-.136-.002-.137-.001-.143.001-.142.003-.142.004-.141.006-.14.008-.141.01-.139.012-.139.013-.139.015-.138.017-.137.018-.137.02-.136.022-.136.023-.135.025-.134.027-.134.028-.133.03-.133.031-.132.033-.131.035-.13.036-.131.038-.129.039-.128.041-.128.043-.128.043-.126.046-.126.047-.125.048-.125.05-.123.052-.123.052-.122.055-.121.056-.121.057-.12.058-.118.06-.119.062-.117.062-.116.065-.116.065-.115.067-.113.068-.113.07-.112.071-.112.072-.11.073-.109.075-.108.076-.108.078-.106.078-.106.08-.104.081-.104.083-.102.083-.102.085-.1.086-.099.087-.099.088-.097.09-.096.09-.095.092-.094.093-.093.094-.092.095-.09.096-.09.097-.088.099-.087.099-.086.1-.085.102-.083.102-.083.104-.081.104-.08.106-.078.106-.078.107-.076.109-.075.109-.073.11-.072.112-.071.112-.07.113-.068.113-.067.115-.065.116-.064.116-.063.117-.062.119-.06.118-.058.12-.057.121-.056.121-.054.122-.053.123-.052.124-.05.124-.048.125-.047.126-.046.126-.043.128-.043.127-.041.129-.039.13-.038.129-.036.131-.035.131-.033.132-.031.133-.03.133-.028.134-.027.134-.025.136-.023.135-.022.136-.02.137-.018.137-.017.138-.015.139-.013.139-.012.14-.01.14-.008.14-.006.141-.004.142-.003.142-.001.149v.993.1l.002.095.002.096.003.094.004.095.005.095.006.094.007.095.007.094.009.094.009.094.011.094.011.093.012.094.013.093.013.093.015.093.016.093.016.092.017.093.018.092.019.092.02.092.021.091.021.091.022.091.024.091.024.09.025.091.025.09.027.09.027.089.028.089.029.089.03.089.031.088.031.088.033.088.033.087.034.087.035.087.035.086.036.086.038.086.038.086.038.085.04.084.04.085.042.084.041.083.043.083.044.083.044.082.045.082.046.082.047.081.047.081.048.08.049.08.05.08.05.079.052.079.051.078.584.859-.265.925-.002.009-.002.009-.002.008-.002.009-.002.008-.001.009-.002.009-.001.009-.001.009-.001.009-.001.009v.01l-.001.009v.01.019 2.006l-.001.085-.002.091-.003.092-.005.092-.007.092-.007.091-.009.091-.011.091-.012.091-.013.092-.015.09-.016.091-.017.09-.019.089-.02.091-.02.082-.261 1.044h1.438v-3.369l.742-.48 2.213.996z"/><path d="m27 8.072c1.296 2.058 2 4.457 2 6.928v1.004c0 1.636-.334 3.237-.964 4.712-.11-.139-8.036 6.904-8.036 6.904-.971.25-1.977.38-2.996.38-.668 0-1.34 0-2.008 0-1.019 0-2.025-.13-2.996-.38 0 0-7.926-7.043-8.036-6.904-.63-1.475-.964-3.076-.964-4.712 0-.334 0-.669 0-1.004 0-7.18 5.82-13 13-13h.086c-.057.159 2.911.399 2.906.349.418.099.83.218 1.235.357-.147.237 2.773 1.34 2.773 1.34.394.251.775.524 1.141.819-.092.197 2.859 3.207 2.859 3.207z" fill="#fbc546"/><path d="m24.141 4.865c.366.293.717.608 1.051.943.691.69 1.296 1.45 1.808 2.264v1.428c0 .398-.158.779-.439 1.061-.282.281-.663.439-1.061.439s-.779-.158-1.061-.439c-.281-.282-.439-.663-.439-1.061 0-1.181 0-2.819 0-4 0-.222.049-.438.141-.635zm-3.914-2.159c.973.335 1.904.784 2.773 1.34v4.454c0 .398-.158.779-.439 1.061-.282.281-.663.439-1.061.439s-.779-.158-1.061-.439c-.281-.282-.439-.663-.439-1.061 0-1.43 0-3.57 0-5 0-.283.08-.557.227-.794zm-4.141-.706c.986.007 1.961.125 2.906.349.005.05.008.1.008.151v5c0 .398-.158.779-.439 1.061-.282.281-.663.439-1.061.439s-.779-.158-1.061-.439c-.281-.282-.439-.663-.439-1.061 0-1.43 0-3.57 0-5 0-.172.029-.341.086-.5z" fill="#579aff"/><path d="m3.964 20.716c.11-.139.228-.272.354-.398.844-.844 1.989-1.318 3.182-1.318 1.193 0 2.338.474 3.182 1.318s1.318 1.989 1.318 3.182v4.12c-2.059-.531-3.958-1.605-5.486-3.134-1.094-1.093-1.954-2.375-2.55-3.77zm16.036 6.904v-4.12c0-1.193.474-2.338 1.318-3.182s1.989-1.318 3.182-1.318c1.193 0 2.338.474 3.182 1.318.126.126.244.259.354.398-.596 1.395-1.456 2.677-2.55 3.77-1.528 1.529-3.427 2.603-5.486 3.134z" fill="#7e5108"/><path d="m27 23.5c0-1.381-1.119-2.5-2.5-2.5-.663 0-1.299.263-1.768.732s-.732 1.105-.732 1.768v6.5h6s-.615-2.461-.881-3.522c-.079-.318-.119-.643-.119-.97 0-.479 0-1.243 0-2.008z" fill="#fbc546"/><path d="m5 23.5c0-1.381 1.119-2.5 2.5-2.5.663 0 1.299.263 1.768.732s.732 1.105.732 1.768v6.5h-6s.615-2.461.881-3.522c.079-.318.119-.643.119-.97 0-.479 0-1.243 0-2.008z" fill="#fbc546"/><path d="m13.415 23.523c-.269-.457-.415-.983-.415-1.523 0-1.265 0-2.735 0-4 0-.796.316-1.559.879-2.121.562-.563 1.325-.879 2.121-.879s1.559.316 2.121.879c.563.562.879 1.325.879 2.121v4c0 .54-.146 1.066-.415 1.523-.516-.931-4.654-.931-5.17 0z" fill="#722245"/><path d="m13.415 23.523c.516-.931 1.501-1.523 2.585-1.523 1.084 0 2.069.592 2.585 1.523-.128.217-.283.418-.464.598-.562.563-1.325.879-2.121.879s-1.559-.316-2.121-.879c-.181-.18-.336-.381-.464-.598z" fill="#ca3b8f"/><path d="m26 11c0-2.209-1.791-4-4-4-2.209 0-4 1.791-4 4 0 2.209 1.791 4 4 4 2.209 0 4-1.791 4-4z" fill="#fff"/><path d="m25 10.998c0-.795-.316-1.558-.878-2.12s-1.325-.878-2.12-.878c-.001 0-.003 0-.004 0-.795 0-1.558.316-2.12.878s-.878 1.325-.878 2.12v.004c0 .795.316 1.558.878 2.12s1.325.878 2.12.878h.004c.795 0 1.558-.316 2.12-.878s.878-1.325.878-2.12c0-.001 0-.003 0-.004z"/><path d="m6 11c0-2.209 1.791-4 4-4 2.209 0 4 1.791 4 4 0 2.209-1.791 4-4 4-2.209 0-4-1.791-4-4z" fill="#fff"/><path d="m13 10.998c0-.795-.316-1.558-.878-2.12s-1.325-.878-2.12-.878c-.001 0-.003 0-.004 0-.795 0-1.558.316-2.12.878s-.878 1.325-.878 2.12v.004c0 .795.316 1.558.878 2.12s1.325.878 2.12.878h.004c.795 0 1.558-.316 2.12-.878s.878-1.325.878-2.12c0-.001 0-.003 0-.004z"/></g></svg>