<svg clip-rule="evenodd" fill-rule="evenodd" stroke-linecap="round" stroke-linejoin="round" stroke-miterlimit="1.5" viewBox="0 0 32 32" xmlns="http://www.w3.org/2000/svg" xmlns:xlink="http://www.w3.org/1999/xlink"><clipPath id="a"><path clip-rule="evenodd" d="m0 0h32v32h-32z"/></clipPath><clipPath id="b"><path clip-rule="evenodd" d="m27 14s.698-2.442 1.269-4.441c.485-1.698.731-3.455.731-5.22 0-.626 0-1.239 0-1.68 0-.364-.295-.659-.659-.659 0 0 0 0-.001 0-1.842 0-3.635.603-5.102 1.718-2.666 2.024-6.738 5.115-6.738 5.115z"/></clipPath><clipPath id="c"><path clip-rule="evenodd" d="m5 14s-.698-2.442-1.269-4.441c-.485-1.698-.731-3.455-.731-5.22 0-.626 0-1.239 0-1.68 0-.364.295-.659.659-.659h.001c1.842 0 3.635.603 5.102 1.718 2.666 2.024 6.738 5.115 6.738 5.115z"/></clipPath><path d="m0 0h32v32h-32z" fill="none"/><g clip-path="url(#a)"><path d="m4.024 20.788c-.714-2.621-.535-5.463.617-8.044l-.91-3.185c-.485-1.698-.731-3.455-.731-5.22 0-.626 0-1.239 0-1.68 0-.364.295-.659.659-.659h.001c1.842 0 3.635.603 5.102 1.718l3.196 2.426c.524-.095 1.06-.144 1.604-.144h4.876c.544 0 1.08.049 1.604.144l3.196-2.426c1.467-1.115 3.26-1.718 5.102-1.718h.001c.364 0 .659.295.659.659v1.68c0 1.765-.246 3.522-.731 5.22l-.91 3.185c1.152 2.581 1.331 5.423.617 8.044l.987 1.256c.891 1.134.849 2.743-.101 3.829-.01.011-.02.022-.03.033-1.033 1.181-2.802 1.366-4.058.425l-.06-.045-1.078 1.078c-1.688 1.688-3.977 2.636-6.364 2.636-.831 0-1.713 0-2.544 0-2.387 0-4.676-.948-6.364-2.636l-1.078-1.078-.06.045c-1.256.941-3.025.756-4.058-.425-.01-.011-.02-.022-.03-.033-.95-1.086-.992-2.695-.101-3.829z" fill="none" stroke="#000" stroke-width="4"/><path d="m27 14s.698-2.442 1.269-4.441c.485-1.698.731-3.455.731-5.22 0-.626 0-1.239 0-1.68 0-.364-.295-.659-.659-.659 0 0 0 0-.001 0-1.842 0-3.635.603-5.102 1.718-2.666 2.024-6.738 5.115-6.738 5.115z" fill="#353535"/><g clip-path="url(#b)"><path d="m21 8s1.18-1.18 2.258-2.258c1.149-1.149 2.52-2.053 4.029-2.657 1.317-.527 2.713-1.085 2.713-1.085v12h-9z" fill="#4b4b4b"/></g><path d="m5 14s-.698-2.442-1.269-4.441c-.485-1.698-.731-3.455-.731-5.22 0-.626 0-1.239 0-1.68 0-.364.295-.659.659-.659h.001c1.842 0 3.635.603 5.102 1.718 2.666 2.024 6.738 5.115 6.738 5.115z" fill="#353535"/><g clip-path="url(#c)"><path d="m11 8s-1.18-1.18-2.258-2.258c-1.149-1.149-2.52-2.053-4.029-2.657-1.317-.527-2.713-1.085-2.713-1.085v12h9z" fill="#4b4b4b"/></g><path d="m13.562 6c-3.409 0-6.525 1.926-8.05 4.975-.21.421-.426.853-.644 1.289-2.31 4.62-1.404 10.2 2.248 13.852.432.432.853.853 1.248 1.248 1.688 1.688 3.977 2.636 6.364 2.636h2.544c2.387 0 4.676-.948 6.364-2.636l1.248-1.248c3.652-3.652 4.558-9.232 2.248-13.852-.218-.436-.434-.868-.644-1.289-1.525-3.049-4.641-4.975-8.05-4.975-1.579 0-3.297 0-4.876 0z" fill="#353535"/><path d="m11.967 26.736c-.808-.561-1.502-1.294-2.025-2.166-.196-.327-.377-.629-.528-.879-.084-.141-.086-.317-.005-.46s.232-.231.396-.231h1.681c.987 0 1.952-.292 2.774-.84.821-.547 1.74-1.16 1.74-1.16s.919.613 1.74 1.16c.822.548 1.787.84 2.774.84h1.681c.164 0 .315.088.396.231s.079.319-.005.46c-.151.25-.332.552-.528.879-.523.872-1.217 1.605-2.025 2.166-1.026-1.084-7.04-1.084-8.066 0z" fill="#808080"/><path d="m11.967 26.736c1.026-1.084 2.472-1.736 4.032-1.736h.002c1.56 0 3.006.652 4.032 1.736-1.166.81-2.567 1.264-4.033 1.264-1.466 0-2.867-.454-4.033-1.264z" fill="#b3b3b3"/><path d="m23.526 11.25.034.002.034.004.033.005.034.006.033.009.033.009.032.011.032.013.031.014.031.015.029.017.029.018.028.019.028.021.026.022.025.023.024.024.023.025.022.026.021.028.019.028.018.029.017.029.015.031.014.031.013.032.011.032.009.033.009.033.006.034.005.033.004.034.002.034v.035l-.001.034-.003.034-.004.034-.006.033-.007.034-.009.033-.01.032-.012.032-.014.032-.014.03-.016.031-.018.029-.018.029-.02.027-.022.027-.022.026-.024.024-2.142 2.142 1.849.616.032.012.032.013.031.014.03.016.03.017.028.019.028.02.027.021.026.022.025.023.024.025.022.025.022.027.02.027.019.029.018.029.016.03.015.031.013.031.012.032.011.032.009.033.008.034.006.033.004.034.003.034.002.034v.034l-.002.034-.003.034-.005.034-.006.034-.008.033-.009.033-.011.032-.012.032-.014.031-.015.031-.017.03-.017.029-.02.028-.02.028-.022.026-.022.026-.024.024-.025.023-.026.022-.027.021-.028.02-.029.018-.03.017-.03.016-.031.014-.032.013-.032.011-.033.01-.033.008-.033.007-.034.005-.034.004-.034.002-.034.001-.034-.001-.034-.002-.034-.004-.034-.006-.033-.007-.034-.008-.032-.01-3.815-1.272-.086-.363 3.608-3.607.024-.024.026-.022.027-.022.027-.02.029-.018.029-.018.031-.016.03-.014.032-.014.032-.012.032-.01.033-.009.034-.007.033-.006.034-.004.034-.003.034-.001z" fill="#fbe844"/><path d="m8.543 11.251.034.003.034.004.033.006.034.007.033.009.032.01.032.012.032.014.03.014.031.016.029.018.029.018.027.02.027.022.026.022.024.024 3.608 3.607-.086.363-3.815 1.272-.032.01-.034.008-.033.007-.034.006-.034.004-.034.002-.034.001-.034-.001-.034-.002-.034-.004-.034-.005-.033-.007-.033-.008-.033-.01-.032-.011-.032-.013-.031-.014-.03-.016-.03-.017-.029-.018-.028-.02-.027-.021-.026-.022-.025-.023-.024-.024-.022-.026-.022-.026-.02-.028-.02-.028-.017-.029-.017-.03-.015-.031-.014-.031-.012-.032-.011-.032-.009-.033-.008-.033-.006-.034-.005-.034-.003-.034-.002-.034v-.034l.002-.034.003-.034.004-.034.006-.033.008-.034.009-.033.011-.032.012-.032.013-.031.015-.031.016-.03.018-.029.019-.029.02-.027.022-.027.022-.025.024-.025.025-.023.026-.022.027-.021.028-.02.028-.019.03-.017.03-.016.031-.014.032-.013.032-.012 1.849-.616-2.142-2.142-.024-.024-.022-.026-.022-.027-.02-.027-.018-.029-.018-.029-.016-.031-.014-.03-.014-.032-.012-.032-.01-.032-.009-.033-.007-.034-.006-.033-.004-.034-.003-.034-.001-.034v-.035l.002-.034.004-.034.005-.033.006-.034.009-.033.009-.033.011-.032.013-.032.014-.031.015-.031.017-.029.018-.029.019-.028.021-.028.022-.026.023-.025.024-.024.025-.023.026-.022.028-.021.028-.019.029-.018.029-.017.031-.015.031-.014.032-.013.032-.011.033-.009.033-.009.034-.006.033-.005.034-.004.034-.002h.035z" fill="#fbe844"/><path d="m25 17s2.336 2.973 3.963 5.044c.891 1.134.849 2.743-.101 3.829-.01.011-.02.022-.03.033-1.033 1.181-2.802 1.366-4.058.425-.06-.046-.121-.091-.18-.136-.966-.724-1.404-1.956-1.111-3.127.592-2.368 1.517-6.068 1.517-6.068z" fill="#00bafe"/><path d="m7 17s-2.336 2.973-3.963 5.044c-.891 1.134-.849 2.743.101 3.829l.03.033c1.033 1.181 2.802 1.366 4.058.425.06-.046.121-.091.18-.136.966-.724 1.404-1.956 1.111-3.127-.592-2.368-1.517-6.068-1.517-6.068z" fill="#00bafe"/><path d="m13 17.829c0-.22.087-.431.243-.586.155-.156.366-.243.586-.243h4.342c.22 0 .431.087.586.243.156.155.243.366.243.586 0 .107-.053.207-.142.266-.595.397-2.858 1.905-2.858 1.905s-2.263-1.508-2.858-1.905c-.089-.059-.142-.159-.142-.266z" fill="#666"/></g></svg>