<svg clip-rule="evenodd" fill-rule="evenodd" stroke-linecap="round" stroke-miterlimit="1.5" viewBox="0 0 32 32" xmlns="http://www.w3.org/2000/svg" xmlns:xlink="http://www.w3.org/1999/xlink"><clipPath id="a"><path clip-rule="evenodd" d="m0-.017h32v32h-32z"/></clipPath><path d="m0-.017h32v32h-32z" fill="none"/><g clip-path="url(#a)"><path d="m16.199-.016.198.004.198.006.198.009.198.011.197.013.197.016.196.019.196.02.196.023.195.026.195.028.194.03.193.032.194.035.192.038.192.039.191.042.191.044.19.047.189.049.189.051.188.053.187.056.187.058.186.06.185.062.184.065.183.067.183.069.181.072.181.073.18.076.179.078.178.08.177.082.175.085.175.086.174.089.173.091.172.093.171.095.169.098.169.099.167.102.166.103.165.106.164.107.162.11.161.112.16.114.159.116.157.118.156.12.155.122.153.124.152.126.15.128.149.13.148.132.146.133.144.136.143.138.142.14.139.141.138.143.136.144.134.146.132.148.13.149.128.15.126.152.124.153.122.155.119.156.118.157.116.159.114.16.112.161.11.162.108.164.105.165.104.166.101.168.1.168.097.17.095.17.093.172.091.173.089.174.086.175.085.176.082.177.08.178.078.179.076.179.074.181.071.182.069.182.067.184.065.184.062.185.06.185.058.187.056.187.054.188.051.189.048.189.047.19.044.191.042.191.04.192.037.193.035.193.032.193.031.195.028.194.025.195.023.196.021.196.018.196.016.197.013.197.011.198.009.198.006.198.004.199.001.192v2.013l-.001.174-.004.18-.005.179-.008.179-.01.178-.013.178-.014.178-.017.176-.019.176-.021.176-.024.175-.025.174-.028.173-.03.173-.031.172-.034.172-.036.17-.038.17-.041.169-.042.169-.044.167-.046.167-.048.166-.051.165-.052.164-.054.163-.056.162-.058.162-.06.16-.062.16-.063.159-.066.157-.067.157-.07.156-.071.154-.073.154-.074.153-.077.151-.078.151-.08.149-.082.148-.083.147-.085.146-.087.145-.089.144-.09.143-.092.141-.093.14-.095.139-.097.138-.098.137-.1.135-.102.134-.103.133-.104.131-.107.13-.107.129-.109.128-.111.126-.112.125-.114.124-.115.122-.117.12-.117.12-.12.118-.121.116-.122.115-.123.114-.125.112-.126.111-.128.109-.129.108-.13.106-.132.104-.132.103-.134.102-.136.1-.136.098-.138.097-.139.095-.14.094-.142.092-.142.09-.144.088-.145.087-.146.085-.147.084-.148.081-.15.08-.15.079-.152.076-.152.075-.154.073-.155.071-.155.069-.157.067-.158.066-.158.064-.16.061-.16.06-.162.058-.162.056-.163.054-.165.053-.165.05-.165.048-.167.046-.168.044-.168.043-.169.04-.17.038-.171.036-.171.034-.172.032-.173.029-.173.028-.175.026-.174.023-.176.021-.176.019-.177.017-.177.015-.178.012-.178.01-.179.008-.18.006-.18.003-.174.001h-4.012l-.174-.001-.18-.003-.18-.006-.179-.008-.178-.01-.178-.012-.177-.015-.177-.017-.176-.019-.176-.021-.174-.023-.175-.026-.173-.028-.173-.029-.172-.032-.171-.034-.171-.036-.17-.038-.169-.04-.168-.043-.168-.044-.167-.046-.165-.048-.165-.05-.165-.053-.163-.054-.162-.056-.162-.058-.16-.06-.16-.061-.158-.064-.158-.066-.157-.067-.155-.069-.155-.071-.154-.073-.152-.075-.152-.076-.15-.079-.15-.08-.148-.081-.147-.084-.146-.085-.145-.087-.144-.088-.142-.09-.142-.092-.14-.094-.139-.095-.138-.097-.136-.098-.136-.1-.134-.102-.132-.103-.132-.104-.13-.106-.129-.108-.128-.109-.126-.111-.125-.112-.123-.114-.122-.115-.121-.116-.12-.118-.117-.12-.117-.12-.115-.122-.114-.124-.112-.125-.111-.126-.109-.128-.107-.129-.107-.13-.104-.131-.103-.133-.102-.134-.1-.135-.098-.137-.097-.138-.095-.139-.093-.14-.092-.141-.09-.143-.089-.144-.087-.145-.085-.146-.083-.147-.082-.148-.08-.149-.078-.151-.077-.151-.074-.153-.073-.154-.071-.154-.07-.156-.067-.157-.066-.157-.063-.159-.062-.16-.06-.16-.058-.161-.056-.163-.054-.163-.052-.164-.051-.165-.048-.166-.046-.167-.044-.167-.042-.169-.041-.169-.038-.17-.036-.17-.034-.172-.031-.172-.03-.173-.028-.173-.025-.174-.024-.175-.021-.176-.019-.176-.017-.176-.014-.178-.013-.178-.01-.178-.008-.179-.005-.179-.004-.18-.001-.174v-2.013l.001-.2.004-.206.007-.205.009-.204.011-.204.015-.204.016-.202.019-.202.022-.201.024-.201.027-.2.029-.199.032-.198.034-.198.036-.196.039-.196.041-.195.044-.194.046-.194.048-.192.05-.191.053-.191.055-.189.058-.189.059-.187.062-.187.064-.186.066-.184.069-.183.07-.183.073-.181.075-.18.077-.179.079-.178.081-.177.084-.175.085-.175.087-.173.09-.172.091-.171.094-.169.095-.168.097-.167.1-.166.101-.164.103-.163.105-.162.107-.16.108-.159.111-.157.112-.156.115-.155.116-.153.117-.152.12-.15.121-.149.123-.147.125-.146.127-.144.128-.143.13-.141.131-.14.133-.138.135-.136.137-.135.138-.133.139-.132.142-.13.142-.128.145-.126.145-.125.148-.123.148-.122.151-.119.152-.118.153-.116.154-.114.156-.113.158-.11.159-.109.16-.107.162-.105.163-.103.164-.101.166-.099.166-.098.169-.095.169-.093.171-.092.172-.089.173-.088.174-.085.176-.083.177-.081.177-.08.179-.077.181-.074.181-.073.182-.071.184-.068.184-.067.186-.064.186-.061.188-.06.188-.057.19-.056.19-.052.192-.051.192-.048.193-.046.195-.044.195-.041.195-.039.197-.036.198-.034.198-.031.199-.03.2-.026.2-.024.202-.022.201-.019.203-.017.203-.014.204-.012.205-.009.205-.007.206-.003.2-.002h.012l.193.001zm-.355 4-.155.003-.154.005-.154.007-.154.009-.152.01-.153.013-.151.014-.151.017-.151.018-.15.02-.149.022-.149.023-.148.026-.147.027-.147.029-.146.031-.145.033-.145.034-.143.036-.144.038-.142.039-.142.042-.141.043-.141.044-.139.046-.139.048-.138.05-.137.051-.137.053-.135.054-.135.057-.134.057-.134.059-.132.061-.131.063-.131.064-.13.065-.129.067-.128.069-.127.069-.126.072-.125.073-.124.074-.123.076-.122.078-.122.078-.12.081-.119.081-.118.083-.117.085-.117.085-.115.087-.114.089-.112.09-.112.091-.111.092-.109.094-.109.095-.107.096-.106.098-.105.099-.104.1-.102.101-.102.103-.1.103-.098.105-.098.106-.096.107-.095.109-.094.109-.093.111-.091.112-.089.113-.089.114-.087.115-.086.116-.084.117-.083.118-.082.119-.08.121-.079.121-.077.122-.076.123-.074.125-.073.125-.072.126-.07.127-.068.128-.067.129-.066.129-.064.131-.062.131-.061.133-.059.133-.058.134-.056.135-.054.136-.053.136-.051.137-.05.138-.048.139-.046.14-.045.14-.043.141-.041.142-.039.143-.038.143-.036.144-.035.144-.032.146-.031.146-.029.146-.027.148-.026.148-.024.148-.021.15-.02.149-.019.151-.016.151-.014.152-.013.152-.011.153-.008.153-.007.154-.005.155-.003.155-.001.162v1.987l.001.136.002.129.004.129.006.129.007.127.009.128.011.127.012.126.013.126.015.125.017.125.018.125.02.124.021.123.023.123.024.122.026.121.027.122.029.12.03.12.031.119.033.119.035.118.035.118.037.117.039.116.04.116.041.115.043.114.044.114.045.113.047.112.048.112.049.111.051.11.052.11.053.108.055.109.056.107.057.107.058.105.06.105.061.105.062.103.063.103.064.102.066.101.067.1.068.099.069.099.07.098.072.096.072.096.074.095.075.094.076.093.077.093.078.091.079.09.08.09.082.088.082.087.084.087.084.085.085.085.087.083.087.083.089.081.089.08.09.079.092.078.092.078.093.075.094.075.095.074.096.073.097.071.097.07.099.07.099.068.1.066.102.066.101.065.103.063.104.062.104.061.105.059.106.058.106.058.108.055.108.055.109.053.109.052.111.051.11.049.112.048.113.047.113.045.113.044.115.043.115.041.115.04.117.039.117.037.117.036.118.034.119.033.119.032.12.03.121.028.121.027.122.026.122.024.122.023.124.021.124.02.124.018.125.017.125.015.126.014.127.012.126.01.128.009.128.007.128.006.129.004.129.002.136.001h3.988l.136-.001.129-.002.129-.004.128-.006.128-.007.128-.009.126-.01.127-.012.126-.014.125-.015.125-.017.124-.018.124-.02.124-.021.122-.023.122-.024.122-.026.121-.027.121-.028.12-.03.119-.032.119-.033.118-.034.117-.036.117-.037.117-.039.115-.04.115-.041.115-.043.113-.044.113-.045.113-.047.112-.048.11-.049.111-.051.109-.052.109-.053.108-.055.108-.055.106-.058.106-.058.105-.059.104-.061.104-.062.103-.063.101-.065.101-.066.101-.066.099-.068.099-.07.097-.07.097-.071.096-.073.095-.074.094-.075.093-.075.092-.078.092-.078.09-.079.089-.08.089-.081.087-.083.087-.083.085-.085.084-.085.084-.087.082-.087.082-.088.08-.09.079-.09.078-.091.077-.093.076-.093.075-.094.074-.095.072-.096.072-.096.07-.098.069-.099.068-.099.067-.1.066-.101.064-.102.063-.103.062-.103.061-.105.06-.105.058-.106.057-.106.056-.107.055-.109.053-.108.052-.11.051-.11.049-.111.048-.112.047-.112.045-.113.044-.114.043-.114.041-.115.04-.116.039-.116.037-.117.035-.118.035-.118.033-.119.031-.119.03-.12.029-.12.027-.122.026-.121.024-.122.023-.123.021-.123.02-.124.018-.125.017-.125.015-.125.013-.126.012-.126.011-.127.009-.128.007-.127.006-.129.004-.129.002-.129.001-.136v-1.988l-.001-.155-.003-.149-.004-.148-.007-.149-.008-.148-.01-.148-.012-.148-.014-.147-.015-.147-.018-.146-.019-.147-.021-.146-.022-.145-.025-.146-.026-.144-.028-.145-.029-.144-.032-.143-.033-.143-.035-.143-.037-.142-.038-.141-.04-.141-.042-.141-.043-.14-.045-.139-.047-.139-.049-.138-.05-.137-.052-.137-.053-.136-.055-.136-.057-.135-.059-.134-.06-.133-.062-.133-.063-.132-.065-.131-.067-.131-.068-.129-.07-.129-.071-.128-.073-.127-.074-.127-.077-.125-.077-.125-.079-.124-.081-.122-.083-.122-.083-.121-.086-.12-.087-.119-.088-.118-.09-.117-.092-.116-.093-.115-.094-.114-.096-.112-.097-.112-.099-.111-.101-.109-.102-.109-.103-.107-.105-.106-.106-.105-.107-.103-.108-.102-.11-.1-.111-.099-.111-.098-.113-.096-.114-.094-.115-.093-.116-.092-.117-.09-.118-.088-.119-.087-.12-.085-.121-.084-.121-.083-.123-.08-.124-.08-.124-.077-.126-.076-.126-.075-.127-.073-.128-.071-.129-.07-.13-.068-.13-.067-.132-.065-.132-.063-.132-.062-.134-.06-.134-.058-.135-.057-.135-.055-.137-.054-.136-.052-.138-.05-.138-.049-.139-.046-.139-.046-.14-.043-.141-.042-.14-.04-.142-.038-.142-.037-.143-.035-.143-.033-.143-.031-.144-.03-.144-.028-.145-.026-.145-.025-.146-.022-.146-.021-.146-.019-.147-.017-.147-.016-.147-.014-.148-.012-.148-.01-.148-.008-.148-.006-.149-.005-.149-.003-.149-.001-.156.001z"/><path d="m30 15.983c0-3.713-1.475-7.274-4.101-9.899-2.625-2.626-6.186-4.101-9.899-4.101-7.732 0-14 6.268-14 14v2c0 6.628 5.373 12 12 12h4c6.627 0 12-5.372 12-12 0-.662 0-1.331 0-2z" fill="#fbc546"/><path d="m19.774 20.369.099.003.099.006.099.008.098.011.097.014.097.016.097.019.095.021.095.024.094.026.093.029.093.031.091.034.09.036.089.038.088.041.087.043.086.045.085.048.083.05.082.052.081.054.079.056.077.059.077.06.074.063.073.065.072.066.069.069.068.071.066.073.065.075.062.076.057.073 1.169 1.559.043.062.037.064.033.067.028.07.023.071.017.073.012.074.006.074.001.075-.005.075-.011.074-.016.073-.022.071-.026.07-.032.068-.037.065-.042.062-.046.059-.05.055-.055.051-.058.047-.061.043-.065.038-.067.033-.069.028-.072.022-.073.017-.073.012-.075.006-.075.001-.074-.005-.074-.011-.073-.016-.072-.021-.07-.027-.067-.032-.065-.037-.063-.042-.058-.046-.056-.05-.051-.055-.047-.058-1.161-1.548-.032-.041-.028-.035-.029-.033-.03-.033-.031-.032-.031-.031-.033-.031-.033-.029-.033-.028-.035-.028-.035-.026-.036-.026-.036-.024-.037-.024-.038-.022-.038-.022-.039-.02-.039-.02-.04-.018-.041-.017-.04-.017-.042-.015-.041-.014-.043-.013-.042-.012-.043-.011-.043-.009-.044-.009-.044-.007-.044-.006-.044-.005-.045-.004-.045-.003-.044-.001h-.045l-.044.001-.045.002-.044.004-.044.004-.044.006-.043.007-.043.008-.043.009-.043.011-.042.011-.043.013-.041.013-.042.015-.04.016-.041.017-.04.018-.04.019-.039.02-.038.022-.038.022-.038.023-.036.024-.037.026-.035.026-.035.027-.034.029-.034.029-.033.03-.037.037-.002.002-.059.057-.065.061-.067.059-.068.057-.069.055-.071.053-.071.052-.073.05-.074.048-.075.046-.076.044-.077.042-.078.041-.078.038-.08.037-.081.034-.081.033-.082.03-.083.029-.084.027-.084.024-.085.023-.086.02-.086.018-.087.017-.087.014-.088.012-.088.009-.088.008-.089.006-.089.003-.089.001-.089-.001-.089-.003-.089-.006-.088-.008-.088-.009-.088-.012-.087-.014-.087-.017-.086-.018-.086-.02-.085-.023-.084-.024-.084-.027-.083-.029-.082-.03-.081-.033-.081-.034-.08-.037-.078-.038-.078-.041-.077-.042-.076-.044-.075-.046-.074-.048-.073-.05-.071-.052-.071-.053-.069-.055-.068-.057-.067-.059-.065-.061-.059-.057-.002-.002-.037-.037-.033-.03-.034-.029-.034-.029-.035-.027-.035-.026-.037-.026-.036-.024-.038-.023-.038-.022-.038-.022-.039-.02-.04-.019-.04-.018-.041-.017-.04-.016-.042-.015-.041-.013-.043-.013-.042-.011-.043-.011-.043-.009-.043-.008-.043-.007-.044-.006-.044-.004-.044-.004-.045-.002-.044-.001h-.045l-.044.001-.045.003-.045.004-.044.005-.044.006-.044.007-.044.009-.043.009-.043.011-.042.012-.043.013-.041.014-.042.015-.04.017-.041.017-.04.018-.039.02-.039.02-.038.022-.038.022-.037.024-.036.024-.036.026-.035.026-.035.028-.033.028-.033.029-.033.031-.031.031-.031.032-.03.033-.029.033-.028.035-.032.041-1.161 1.548-.047.058-.051.055-.056.05-.058.046-.063.042-.065.037-.067.032-.07.027-.072.021-.073.016-.074.011-.074.005-.075-.001-.075-.006-.073-.012-.073-.017-.072-.022-.069-.028-.067-.033-.065-.038-.061-.043-.058-.047-.055-.051-.05-.055-.046-.059-.042-.062-.037-.065-.032-.068-.026-.07-.022-.071-.016-.073-.011-.074-.005-.075.001-.075.006-.074.012-.074.017-.073.023-.071.028-.07.033-.067.037-.064.043-.062 1.169-1.559.057-.073.062-.076.065-.075.066-.073.068-.071.069-.069.072-.066.073-.065.074-.063.077-.06.077-.059.079-.056.081-.054.082-.052.083-.05.085-.048.086-.045.087-.043.088-.041.089-.038.09-.036.091-.034.093-.031.093-.029.094-.026.095-.024.095-.021.097-.019.097-.016.097-.014.098-.011.099-.008.099-.006.099-.003h.098l.099.002.098.005.097.008.097.01.097.013.097.015.095.018.095.02.095.023.094.025.092.028.093.03.091.033.09.035.09.038.088.04.088.042.086.045.085.046.084.05.083.051.082.054.08.056.078.058.078.061.075.062.075.065.072.067.066.064.036.035.029.027.029.026.031.026.03.024.032.024.031.023.033.022.032.021.034.021.033.019.034.019.035.018.035.017.035.016.036.015.036.015.037.013.037.013.037.012.037.011.038.01.038.009.038.008.039.007.038.006.039.006.039.004.039.004.04.002.039.001.04.001.04-.001.039-.001.04-.002.039-.004.039-.004.039-.006.038-.006.039-.007.038-.008.038-.009.038-.01.037-.011.037-.012.037-.013.037-.013.036-.015.036-.015.035-.016.035-.017.035-.018.034-.019.033-.019.034-.021.032-.021.033-.022.031-.023.032-.024.03-.024.031-.026.029-.026.029-.027.033-.032.003-.003.066-.064.072-.067.075-.065.075-.062.078-.061.078-.058.08-.056.082-.054.083-.051.084-.05.085-.046.086-.045.088-.042.088-.04.09-.038.09-.035.091-.033.093-.03.092-.028.094-.025.095-.023.095-.02.095-.018.097-.015.097-.013.097-.01.097-.008.098-.005.099-.002z" fill="#593604"/><g fill="none" stroke="#982eee" stroke-width="2"><path d="m11.7 6.983s-.959 0-2.2 0c-1.459 0-2.858.58-3.889 1.611-1.032 1.032-1.611 2.431-1.611 3.889 0 1.459.579 2.858 1.611 3.889 1.031 1.032 2.43 1.611 3.889 1.611h.15c1.154 0 2.26-.458 3.076-1.274s1.274-1.922 1.274-3.076c0 0 0-.001 0-.002 0-.888-.353-1.739-.981-2.367-.627-.628-1.479-.981-2.367-.981-.304 0-.608 0-.902 0-1.353 0-2.45 1.097-2.45 2.45v.002c0 1.076.872 1.948 1.948 1.948h.452c.552 0 1-.447 1-1 0-.062 0-.1 0-.1"/><path d="m25.7 6.983s-.959 0-2.2 0c-1.459 0-2.858.58-3.889 1.611-1.032 1.032-1.611 2.431-1.611 3.889 0 1.459.579 2.858 1.611 3.889 1.031 1.032 2.43 1.611 3.889 1.611h.15c1.154 0 2.26-.458 3.076-1.274s1.274-1.922 1.274-3.076c0 0 0-.001 0-.002 0-.888-.353-1.739-.981-2.367-.627-.628-1.479-.981-2.367-.981-.304 0-.608 0-.902 0-1.353 0-2.45 1.097-2.45 2.45v.002c0 1.076.872 1.948 1.948 1.948h.452c.552 0 1-.447 1-1 0-.062 0-.1 0-.1"/></g></g></svg>