<svg clip-rule="evenodd" fill-rule="evenodd" stroke-linecap="round" stroke-linejoin="round" stroke-miterlimit="1.5" viewBox="0 0 32 32" xmlns="http://www.w3.org/2000/svg" xmlns:xlink="http://www.w3.org/1999/xlink"><clipPath id="a"><path clip-rule="evenodd" d="m0 0h32v32h-32z"/></clipPath><clipPath id="b"><path clip-rule="evenodd" d="m27 14s.698-2.442 1.269-4.441c.485-1.698.731-3.455.731-5.22 0-.626 0-1.239 0-1.68 0-.364-.295-.659-.659-.659 0 0 0 0-.001 0-1.842 0-3.635.603-5.102 1.718-2.666 2.024-6.738 5.115-6.738 5.115z"/></clipPath><clipPath id="c"><path clip-rule="evenodd" d="m5 14s-.698-2.442-1.269-4.441c-.485-1.698-.731-3.455-.731-5.22 0-.626 0-1.239 0-1.68 0-.364.295-.659.659-.659h.001c1.842 0 3.635.603 5.102 1.718 2.666 2.024 6.738 5.115 6.738 5.115z"/></clipPath><path d="m0 0h32v32h-32z" fill="none"/><g clip-path="url(#a)"><path d="m20.042 6.144 3.196-2.426c1.467-1.115 3.26-1.718 5.102-1.718h.001c.364 0 .659.295.659.659v1.68c0 1.765-.246 3.522-.731 5.22l-.91 3.185c2.017 4.521 1.052 9.845-2.475 13.372-.432.432-.853.853-1.248 1.248-1.688 1.688-3.977 2.636-6.364 2.636-.831 0-1.713 0-2.544 0-2.387 0-4.676-.948-6.364-2.636-.395-.395-.816-.816-1.248-1.248-3.527-3.527-4.492-8.851-2.475-13.372l-.91-3.185c-.485-1.698-.731-3.455-.731-5.22 0-.626 0-1.239 0-1.68 0-.364.295-.659.659-.659h.001c1.842 0 3.635.603 5.102 1.718l3.196 2.426c.524-.095 1.06-.144 1.604-.144h4.876c.544 0 1.08.049 1.604.144z" fill="none" stroke="#000" stroke-width="4"/><path d="m27 14s.698-2.442 1.269-4.441c.485-1.698.731-3.455.731-5.22 0-.626 0-1.239 0-1.68 0-.364-.295-.659-.659-.659 0 0 0 0-.001 0-1.842 0-3.635.603-5.102 1.718-2.666 2.024-6.738 5.115-6.738 5.115z" fill="#353535"/><g clip-path="url(#b)"><path d="m21 8s1.18-1.18 2.258-2.258c1.149-1.149 2.52-2.053 4.029-2.657 1.317-.527 2.713-1.085 2.713-1.085v12h-9z" fill="#4b4b4b"/></g><path d="m5 14s-.698-2.442-1.269-4.441c-.485-1.698-.731-3.455-.731-5.22 0-.626 0-1.239 0-1.68 0-.364.295-.659.659-.659h.001c1.842 0 3.635.603 5.102 1.718 2.666 2.024 6.738 5.115 6.738 5.115z" fill="#353535"/><g clip-path="url(#c)"><path d="m11 8s-1.18-1.18-2.258-2.258c-1.149-1.149-2.52-2.053-4.029-2.657-1.317-.527-2.713-1.085-2.713-1.085v12h9z" fill="#4b4b4b"/></g><path d="m13.562 6c-3.409 0-6.525 1.926-8.05 4.975-.21.421-.426.853-.644 1.289-2.31 4.62-1.404 10.2 2.248 13.852.432.432.853.853 1.248 1.248 1.688 1.688 3.977 2.636 6.364 2.636h2.544c2.387 0 4.676-.948 6.364-2.636l1.248-1.248c3.652-3.652 4.558-9.232 2.248-13.852-.218-.436-.434-.868-.644-1.289-1.525-3.049-4.641-4.975-8.05-4.975-1.579 0-3.297 0-4.876 0z" fill="#353535"/><path d="m7.5 16.5 2.5-2.5 2.5 2.5" fill="none" stroke="#fbe844" stroke-linejoin="miter" stroke-width="1.5"/><path d="m19.5 16.5 2.5-2.5 2.5 2.5" fill="none" stroke="#fbe844" stroke-linejoin="miter" stroke-width="1.5"/><path d="m13 19.829c0-.22.087-.431.243-.586.155-.156.366-.243.586-.243h4.342c.22 0 .431.087.586.243.156.155.243.366.243.586 0 .107-.053.207-.142.266-.595.397-2.858 1.905-2.858 1.905s-2.263-1.508-2.858-1.905c-.089-.059-.142-.159-.142-.266z" fill="#666"/><path d="m10 24s.385.385.879.879c.562.562 1.325.878 2.121.878s1.559-.316 2.121-.878c.494-.494.879-.879.879-.879s.385.385.879.879c.562.562 1.325.878 2.121.878s1.559-.316 2.121-.878c.494-.494.879-.879.879-.879" fill="none" stroke="#808080" stroke-linejoin="miter" stroke-width="1.5"/></g></svg>