<svg clip-rule="evenodd" fill-rule="evenodd" stroke-linejoin="round" stroke-miterlimit="1.41421" viewBox="0 0 32 32" xmlns="http://www.w3.org/2000/svg" xmlns:xlink="http://www.w3.org/1999/xlink"><clipPath id="a"><path clip-rule="evenodd" d="m0 0h32v32h-32z"/></clipPath><path d="m0 0h32v32h-32z" fill="none"/><g clip-path="url(#a)"><path d="m16.206 2.001.206.004.205.007.205.009.204.011.203.015.203.016.201.019.202.022.2.024.2.027.199.029.198.032.198.034.197.036.195.039.195.041.195.044.193.046.192.048.192.05.19.053.19.055.188.058.188.059.186.062.186.064.184.066.184.069.182.07.181.073.181.075.178.077.178.079.177.082.176.083.174.085.173.087.172.09.171.091.169.094.168.095.167.097.166.1.165.101.162.103.162.105.16.107.159.108.157.111.157.113.154.114.153.116.152.117.151.12.148.121.148.123.145.125.145.127.143.128.141.13.139.131.138.133.137.135.134.137.134.138.131.139.13.141.129.143.126.145.124.145.124.147.121.15.12.15.117.152.116.153.114.154.113.156.111.158.108.159.107.16.105.162.103.163.101.164.1.165.097.168.095.168.094.169.091.171.09.172.087.173.085.174.083.176.082.176.079.179.077.178.075.18.073.182.07.182.069.184.066.184.064.186.062.186.059.188.058.189.055.189.053.19.05.192.048.192.046.193.044.195.041.195.039.195.036.197.034.198.032.198.029.199.027.2.024.2.022.201.019.203.016.202.015.203.011.204.009.205.007.205.004.206.001.2v1.012l-.001.161-.003.168-.005.166-.008.166-.009.166-.012.165-.013.164-.016.165-.018.163-.019.163-.022.163-.024.161-.025.161-.028.161-.029.159-.032.159-.033.159-.036.158-.037.157-.04.157-.04.155-.043.155-.045.154-.047.153-.048.152-.05.152-.052.151-.054.15-.056.149-.057.148-.059.147-.061.147-.063.145-.064.145-.066.144-.068.142-.069.142-.071.14-.073.14-.074.139-.076.138-.077.136-.079.136-.081.135-.082.133-.084.132-.086.132-.087.13-.088.129-.089.128-.092.126-.093.126-.094.125-.096.123-.097.122-.098.121-.1.12-.101.118-.103.117-.104.116-.106.115-.107.114-.108.112-.11.11-.11.11-.112.108-.114.107-.115.105-.116.105-.117.102-.118.102-.12.1-.121.098-.122.097-.123.096-.125.094-.126.093-.126.092-.128.089-.129.089-.131.087-.131.085-.132.083-.134.083-.134.08-.136.079-.136.078-.138.076-.139.074-.14.073-.14.071-.142.069-.142.068-.144.066-.145.064-.145.063-.147.06-.147.06-.148.057-.149.056-.15.054-.151.051-.151.051-.153.048-.153.047-.154.045-.155.043-.155.041-.157.039-.157.037-.158.036-.158.033-.159.031-.16.03-.161.028-.161.025-.161.024-.163.022-.163.019-.163.018-.164.016-.165.013-.165.012-.166.009-.166.008-.166.005-.167.003-.162.001h-6.012l-.161-.001-.168-.003-.166-.005-.166-.008-.166-.009-.165-.012-.165-.013-.164-.016-.163-.018-.163-.019-.163-.022-.161-.024-.161-.025-.161-.028-.16-.03-.159-.031-.158-.033-.158-.036-.157-.037-.156-.039-.156-.041-.155-.043-.154-.045-.153-.047-.153-.048-.151-.05-.151-.052-.15-.054-.149-.056-.148-.057-.147-.059-.147-.061-.145-.063-.145-.064-.144-.066-.142-.068-.142-.069-.141-.071-.139-.073-.139-.074-.138-.076-.136-.078-.136-.079-.134-.08-.134-.082-.132-.084-.132-.086-.13-.086-.129-.089-.128-.09-.126-.091-.126-.093-.125-.094-.123-.096-.122-.097-.121-.098-.12-.1-.118-.102-.118-.103-.115-.103-.115-.106-.114-.107-.112-.108-.111-.11-.109-.11-.108-.112-.107-.114-.105-.115-.105-.116-.102-.117-.102-.118-.1-.12-.098-.121-.097-.122-.096-.123-.094-.125-.093-.125-.091-.127-.091-.128-.088-.129-.086-.13-.086-.132-.084-.132-.082-.133-.08-.135-.079-.136-.078-.137-.076-.137-.074-.139-.073-.14-.071-.14-.069-.142-.068-.142-.066-.144-.064-.145-.063-.145-.061-.147-.059-.147-.057-.148-.056-.149-.053-.15-.053-.151-.05-.152-.048-.152-.047-.153-.045-.154-.043-.155-.041-.156-.039-.156-.037-.157-.036-.158-.033-.158-.031-.159-.03-.16-.028-.161-.025-.161-.024-.162-.022-.162-.019-.163-.018-.163-.016-.164-.013-.165-.012-.165-.009-.166-.008-.166-.005-.166-.003-.168-.001-.161v-1.012l.001-.2.004-.206.007-.205.009-.205.011-.203.015-.204.016-.203.019-.201.022-.202.024-.2.027-.2.029-.199.032-.199.034-.197.036-.197.039-.195.041-.195.044-.194.046-.194.048-.192.05-.192.053-.19.055-.189.058-.189.059-.188.062-.186.064-.186.066-.184.069-.184.071-.182.072-.181.075-.181.077-.179.079-.177.081-.177.084-.176.085-.174.088-.173.089-.172.091-.171.094-.169.095-.168.097-.168.1-.165.101-.164.103-.163.105-.162.107-.16.109-.159.11-.158.112-.156.114-.154.117-.154.117-.151.12-.15.121-.15.123-.147.125-.145.127-.145.128-.143.13-.141.131-.139.134-.138.134-.137.137-.134.138-.134.139-.131.141-.13.143-.128.145-.127.145-.125.148-.123.148-.121.151-.119.151-.118.154-.117.155-.114.155-.112.158-.11.159-.109.16-.107.162-.105.163-.103.164-.101.166-.1.166-.097.168-.095.17-.094.171-.091.172-.089.173-.088.174-.085.176-.084.177-.081.178-.079.178-.077.181-.075.181-.073.182-.07.184-.069.184-.066.186-.064.186-.062.188-.059.188-.058.19-.055.19-.053.192-.05.192-.048.193-.046.195-.044.194-.041.196-.039.197-.036.198-.034.198-.032.199-.029.2-.027.2-.024.202-.022.201-.019.203-.016.203-.015.204-.011.205-.009.205-.007.206-.004.206-.001.206.001zm-.362 4-.155.003-.154.005-.154.007-.154.008-.152.011-.153.013-.151.014-.151.016-.151.019-.15.02-.149.021-.149.024-.148.026-.147.027-.146.029-.146.031-.146.032-.145.035-.143.036-.144.038-.142.039-.142.041-.141.043-.141.045-.139.046-.139.048-.138.05-.137.051-.137.053-.135.054-.135.056-.134.058-.134.059-.132.061-.132.062-.13.064-.13.066-.129.067-.128.068-.126.07-.127.072-.125.073-.124.074-.123.076-.122.077-.122.079-.12.08-.119.082-.118.083-.118.084-.116.086-.115.087-.114.088-.113.09-.111.091-.111.093-.109.094-.109.095-.107.096-.106.098-.105.099-.104.099-.102.102-.102.102-.1.104-.098.105-.098.106-.096.107-.095.108-.094.11-.093.111-.091.111-.089.113-.089.115-.087.114-.086.116-.084.118-.083.118-.082.119-.08.12-.079.122-.077.122-.076.123-.074.124-.073.125-.072.126-.07.128-.068.127-.067.129-.066.13-.064.131-.062.131-.061.132-.059.134-.058.134-.056.134-.054.136-.053.137-.051.137-.05.138-.048.139-.046.14-.045.14-.043.141-.041.142-.04.143-.037.143-.036.143-.035.145-.032.145-.031.146-.029.147-.027.148-.026.148-.024.148-.021.149-.02.15-.019.15-.016.151-.014.153-.013.152-.011.152-.008.154-.007.154-.005.154-.003.155-.001.162v.988l.001.123.002.116.004.117.005.115.006.115.008.115.01.113.011.115.012.113.014.113.014.112.017.112.018.112.019.11.02.111.022.11.023.109.024.109.026.109.027.108.029.107.029.107.031.106.032.106.034.106.035.104.035.104.038.104.038.102.04.103.041.102.041.1.044.101.044.1.046.099.047.099.048.098.049.097.05.097.051.096.053.095.053.094.055.094.056.093.057.093.058.091.059.091.06.091.061.089.062.088.063.088.065.088.065.086.067.086.067.084.069.084.069.083.07.082.072.082.072.08.073.08.074.078.075.078.076.077.077.076.078.075.078.074.08.073.081.073.081.071.082.07.083.07.084.068.084.067.086.067.086.065.087.064.089.064.088.062.089.061.091.06.09.059.092.058.093.057.093.056.094.055.094.053.095.053.096.051.097.051.097.048.098.048.099.047.099.046.1.044.1.044.101.041.102.041.103.04.102.038.104.038.104.036.105.034.105.034.106.032.106.031.107.029.107.029.108.027.109.026.109.024.109.023.11.022.11.02.111.019.112.018.112.017.112.015.113.013.113.012.114.011.114.01.115.008.115.006.116.005.116.004.116.002.123.001h5.988l.123-.001.116-.002.116-.004.116-.005.115-.006.115-.008.114-.01.114-.011.113-.012.113-.013.112-.015.112-.017.112-.018.111-.019.11-.02.11-.022.109-.023.109-.024.109-.026.108-.027.107-.029.107-.029.106-.031.106-.032.105-.034.105-.034.104-.036.104-.038.102-.038.103-.04.101-.04.102-.042.1-.044.1-.044.099-.046.099-.047.098-.047.097-.05.097-.05.096-.051.095-.053.094-.053.094-.055.093-.056.093-.057.091-.058.092-.059.09-.06.089-.061.089-.062.088-.064.087-.064.086-.065.086-.067.084-.067.084-.068.083-.07.082-.07.082-.071.08-.073.08-.073.078-.074.078-.075.077-.076.076-.077.075-.078.074-.079.073-.079.072-.08.072-.082.07-.082.07-.083.068-.084.067-.084.067-.086.065-.086.064-.087.063-.088.063-.089.061-.09.06-.09.059-.091.058-.091.057-.093.056-.093.055-.093.053-.095.053-.096.051-.095.05-.097.049-.097.048-.098.047-.099.046-.099.044-.1.044-.101.042-.1.04-.102.04-.103.039-.103.037-.103.036-.104.034-.104.034-.106.032-.106.031-.106.029-.107.029-.108.027-.107.026-.109.024-.109.023-.108.022-.111.02-.111.019-.11.018-.112.017-.112.015-.112.013-.113.012-.113.011-.114.01-.114.008-.115.006-.115.005-.116.004-.116.002-.116.001-.123v-.988l-.001-.162-.003-.155-.005-.154-.007-.154-.008-.153-.011-.153-.013-.153-.014-.151-.016-.151-.019-.151-.02-.15-.021-.149-.024-.149-.026-.147-.027-.148-.029-.147-.031-.146-.032-.145-.035-.145-.036-.144-.037-.142-.04-.143-.041-.142-.043-.141-.045-.14-.046-.14-.048-.139-.05-.138-.051-.137-.053-.137-.054-.135-.056-.135-.058-.134-.059-.133-.061-.133-.062-.131-.064-.131-.066-.13-.067-.129-.068-.128-.07-.127-.072-.126-.073-.125-.074-.124-.076-.123-.077-.122-.079-.122-.08-.12-.082-.119-.083-.118-.084-.117-.086-.117-.087-.115-.089-.114-.089-.113-.091-.111-.093-.111-.094-.11-.095-.108-.096-.107-.098-.106-.098-.105-.1-.104-.102-.102-.102-.101-.104-.1-.105-.099-.106-.098-.107-.096-.109-.095-.109-.094-.111-.093-.111-.091-.113-.089-.114-.089-.115-.087-.117-.086-.117-.084-.118-.083-.119-.082-.12-.08-.122-.079-.122-.077-.123-.076-.124-.074-.125-.073-.126-.072-.128-.07-.127-.068-.129-.067-.13-.066-.131-.064-.131-.062-.132-.061-.134-.059-.134-.058-.135-.056-.135-.054-.137-.053-.137-.051-.138-.05-.139-.048-.14-.046-.14-.045-.141-.043-.142-.041-.142-.039-.144-.038-.144-.036-.144-.035-.145-.032-.146-.031-.147-.029-.147-.027-.148-.026-.149-.024-.149-.021-.15-.02-.151-.019-.151-.016-.151-.014-.153-.013-.152-.011-.154-.008-.154-.007-.154-.005-.155-.003-.156-.001-.156.001z"/><path d="m22 0h10v10h-10z"/><path d="m15 3h10v10h-10z"/><path d="m30 18c0-7.732-6.268-14-14-14-7.732 0-14 6.268-14 14v1c0 6.075 4.925 11 11 11h6c6.075 0 11-4.925 11-11 0-.332 0-.665 0-1z" fill="#fbc546"/><path d="m11.172 25.895c-.164-.082-.305-.208-.405-.369-.182-.295-.198-.663-.043-.973.056-.112.113-.227.17-.342.678-1.355 2.063-2.211 3.578-2.211h3.056c1.515 0 2.9.856 3.578 2.211.057.115.114.23.17.342.155.31.139.678-.043.973-.1.161-.241.287-.405.369-.926-.572-8.73-.572-9.656 0z" fill="#722245"/><path d="m11.172 25.895c.926-.572 2.011-.895 3.153-.895h3.35c1.142 0 2.227.323 3.153.895-.136.068-.289.105-.446.105-2.295 0-6.469 0-8.764 0-.157 0-.31-.037-.446-.105z" fill="#ca3b8f"/><path d="m25.536 16.001.048.003.049.005.047.007.048.01.046.012.046.015.046.016.044.019.044.021.043.023.041.025.04.027.039.029.037.031.036.032.034.034.032.036.031.037.029.039.027.04.025.041.023.043.021.044.019.044.016.046.015.046.012.046.01.048.007.047.005.049.003.048.001.048-.002.048-.004.049-.006.047-.009.048-.011.047-.013.047-.016.045-.017.045-.02.044-.022.043-.024.042-.026.041-.028.04-.03.038-.032.036-.033.035-3.707 3.707-3.707-3.707-.033-.035-.032-.036-.03-.038-.028-.04-.026-.041-.024-.042-.022-.043-.02-.044-.017-.045-.016-.045-.013-.047-.011-.047-.009-.048-.006-.047-.004-.049-.002-.048.001-.048.003-.048.005-.049.007-.047.01-.048.012-.046.015-.046.016-.046.019-.044.021-.044.023-.043.025-.041.027-.04.029-.039.031-.037.032-.036.034-.034.036-.032.037-.031.039-.029.04-.027.041-.025.043-.023.044-.021.044-.019.046-.016.046-.015.046-.012.048-.01.047-.007.049-.005.048-.003.048-.001.048.002.049.004.047.006.048.009.047.011.047.013.045.016.045.017.044.02.043.022.042.024.041.026.04.028.038.03.036.032.035.033 2.293 2.293 2.293-2.293.035-.033.036-.032.038-.03.04-.028.041-.026.042-.024.043-.022.044-.02.045-.017.045-.016.047-.013.047-.011.048-.009.047-.006.049-.004.048-.002z"/><path d="m12.536 16.001.049.003.048.005.047.007.048.01.046.012.047.015.045.016.044.019.044.021.043.023.041.025.04.027.039.029.037.031.036.032.034.034.032.036.031.037.029.039.027.04.025.041.023.043.021.044.019.044.016.046.015.046.012.046.01.048.007.047.005.049.003.048.001.048-.002.048-.004.049-.006.047-.009.048-.011.047-.013.047-.016.045-.017.045-.02.044-.022.043-.024.042-.026.041-.028.04-.03.038-.032.036-.033.035-3.707 3.707-3.707-3.707-.033-.035-.032-.036-.03-.038-.028-.04-.026-.041-.024-.042-.022-.043-.02-.044-.017-.045-.016-.045-.013-.047-.011-.047-.009-.048-.006-.047-.004-.049-.002-.048.001-.048.003-.048.005-.049.007-.047.01-.048.012-.046.015-.046.016-.046.019-.044.021-.044.023-.043.025-.041.027-.04.029-.039.031-.037.032-.036.034-.034.036-.032.037-.031.039-.029.04-.027.042-.025.042-.023.044-.021.044-.019.046-.016.046-.015.046-.012.048-.01.048-.007.048-.005.048-.003.048-.001.048.002.049.004.047.006.048.009.047.011.047.013.045.016.045.017.044.02.043.022.042.024.041.026.04.028.038.03.036.032.035.033 2.293 2.293 2.293-2.293.035-.033.036-.032.039-.03.039-.028.041-.026.042-.024.043-.022.044-.02.045-.017.046-.016.046-.013.047-.011.048-.009.047-.006.049-.004.048-.002z"/><g fill="#1d5dff"><path d="m24 4v-2h6v1.414l-2.586 2.586h2.586v2h-6v-1.414l2.586-2.586z"/><path d="m17 7v-2h6v1.414l-2.586 2.586h2.586v2h-6v-1.414l2.586-2.586z"/></g></g></svg>