<svg clip-rule="evenodd" fill-rule="evenodd" stroke-linecap="round" stroke-linejoin="round" stroke-miterlimit="1.5" viewBox="0 0 32 32" xmlns="http://www.w3.org/2000/svg" xmlns:xlink="http://www.w3.org/1999/xlink"><clipPath id="a"><path clip-rule="evenodd" d="m0 0h32v32h-32z"/></clipPath><clipPath id="b"><path clip-rule="evenodd" d="m27 14s.698-2.442 1.269-4.441c.485-1.698.731-3.455.731-5.22 0-.626 0-1.239 0-1.68 0-.364-.295-.659-.659-.659 0 0 0 0-.001 0-1.842 0-3.635.603-5.102 1.718-2.666 2.024-6.738 5.115-6.738 5.115z"/></clipPath><clipPath id="c"><path clip-rule="evenodd" d="m5 14s-.698-2.442-1.269-4.441c-.485-1.698-.731-3.455-.731-5.22 0-.626 0-1.239 0-1.68 0-.364.295-.659.659-.659h.001c1.842 0 3.635.603 5.102 1.718 2.666 2.024 6.738 5.115 6.738 5.115z"/></clipPath><path d="m0 0h32v32h-32z" fill="none"/><g clip-path="url(#a)"><path d="m20.042 6.144 3.196-2.426c1.467-1.115 3.26-1.718 5.102-1.718h.001c.364 0 .659.295.659.659v1.68c0 1.765-.246 3.522-.731 5.22l-.91 3.185c2.017 4.521 1.052 9.845-2.475 13.372-.432.432-.853.853-1.248 1.248-1.688 1.688-3.977 2.636-6.364 2.636-.831 0-1.713 0-2.544 0-2.387 0-4.676-.948-6.364-2.636-.395-.395-.816-.816-1.248-1.248-3.527-3.527-4.492-8.851-2.475-13.372l-.91-3.185c-.485-1.698-.731-3.455-.731-5.22 0-.626 0-1.239 0-1.68 0-.364.295-.659.659-.659h.001c1.842 0 3.635.603 5.102 1.718l3.196 2.426c.524-.095 1.06-.144 1.604-.144h4.876c.544 0 1.08.049 1.604.144z" fill="none" stroke="#000" stroke-width="4"/><path d="m27 14s.698-2.442 1.269-4.441c.485-1.698.731-3.455.731-5.22 0-.626 0-1.239 0-1.68 0-.364-.295-.659-.659-.659 0 0 0 0-.001 0-1.842 0-3.635.603-5.102 1.718-2.666 2.024-6.738 5.115-6.738 5.115z" fill="#353535"/><g clip-path="url(#b)"><path d="m21 8s1.18-1.18 2.258-2.258c1.149-1.149 2.52-2.053 4.029-2.657 1.317-.527 2.713-1.085 2.713-1.085v12h-9z" fill="#4b4b4b"/></g><path d="m5 14s-.698-2.442-1.269-4.441c-.485-1.698-.731-3.455-.731-5.22 0-.626 0-1.239 0-1.68 0-.364.295-.659.659-.659h.001c1.842 0 3.635.603 5.102 1.718 2.666 2.024 6.738 5.115 6.738 5.115z" fill="#353535"/><g clip-path="url(#c)"><path d="m11 8s-1.18-1.18-2.258-2.258c-1.149-1.149-2.52-2.053-4.029-2.657-1.317-.527-2.713-1.085-2.713-1.085v12h9z" fill="#4b4b4b"/></g><path d="m13.562 6c-3.409 0-6.525 1.926-8.05 4.975-.21.421-.426.853-.644 1.289-2.31 4.62-1.404 10.2 2.248 13.852.432.432.853.853 1.248 1.248 1.688 1.688 3.977 2.636 6.364 2.636h2.544c2.387 0 4.676-.948 6.364-2.636l1.248-1.248c3.652-3.652 4.558-9.232 2.248-13.852-.218-.436-.434-.868-.644-1.289-1.525-3.049-4.641-4.975-8.05-4.975-1.579 0-3.297 0-4.876 0z" fill="#353535"/><path d="m11.534 27.409c-.624-.509-1.165-1.127-1.592-1.839-.524-.873-.942-1.57-.942-1.57s.905.226 1.854.464c1.367.341 2.814.091 3.986-.691.621-.414 1.16-.773 1.16-.773s.539.359 1.16.773c1.172.782 2.619 1.032 3.986.691.949-.238 1.854-.464 1.854-.464s-.418.697-.942 1.57c-.427.712-.968 1.33-1.592 1.839-1.066-.897-7.866-.897-8.932 0z" fill="#808080"/><path d="m11.534 27.409c1.066-.897 2.429-1.409 3.863-1.409h1.206c1.434 0 2.797.512 3.863 1.409-1.242 1.014-2.814 1.591-4.466 1.591-1.652 0-3.224-.577-4.466-1.591z" fill="#b3b3b3"/><path d="m13 19.819c0-.217.086-.426.24-.579.153-.154.362-.24.579-.24h4.352c.22 0 .431.087.586.243.156.155.243.366.243.586 0 .107-.053.207-.142.266-.595.397-2.858 1.905-2.858 1.905s-2.243-1.495-2.85-1.9c-.094-.062-.15-.168-.15-.28 0-.001 0-.001 0-.001z" fill="#666"/><g fill="#fbe844"><path d="m12 14.498c0-.827-.671-1.498-1.498-1.498-.001 0-.001 0-.002 0-.398 0-.779.158-1.061.439-.281.282-.439.663-.439 1.061v2c0 .398.158.779.439 1.061.282.281.663.439 1.061.439h.002c.827 0 1.498-.671 1.498-1.498 0-.634 0-1.37 0-2.004z"/><path d="m23 14.5c0-.398-.158-.779-.439-1.061-.282-.281-.663-.439-1.061-.439s-.779.158-1.061.439c-.281.282-.439.663-.439 1.061v2c0 .398.158.779.439 1.061.282.281.663.439 1.061.439s.779-.158 1.061-.439c.281-.282.439-.663.439-1.061 0-.633 0-1.367 0-2z"/></g></g></svg>