<svg clip-rule="evenodd" fill-rule="evenodd" stroke-linejoin="round" stroke-miterlimit="1.41421" viewBox="0 0 32 32" xmlns="http://www.w3.org/2000/svg" xmlns:xlink="http://www.w3.org/1999/xlink"><clipPath id="a"><path clip-rule="evenodd" d="m0 0h32v32h-32z"/></clipPath><path d="m0 0h32v32h-32z" fill="none"/><g clip-path="url(#a)"><path d="m19.167.001.168.003.166.005.166.008.166.009.165.012.165.013.164.016.163.018.163.019.163.022.161.024.161.025.161.028.16.03.159.031.158.034.158.035.157.037.156.039.156.041.155.043.154.045.153.047.152.048.152.05.151.053.15.053.149.056.148.057.147.06.147.06.145.063.145.064.143.066.143.068.142.069.141.071.139.073.139.074.138.076.136.078.136.079.134.08.134.082.132.084.132.086.13.086.129.089.128.09.127.091.125.093.125.094.123.096.122.097.121.098.12.1.118.102.117.102.116.105.115.105.113.107.113.108.11.11.11.11.108.113.107.113.105.115.105.116.102.117.102.118.1.12.098.121.097.122.096.123.094.125.093.125.092.127.089.128.089.129.086.13.086.132.084.132.082.134.08.134.079.136.078.136.076.138.074.139.073.139.071.141.069.142.068.142.066.144.064.145.063.145.06.147.06.147.057.148.056.149.053.15.053.151.05.151.048.153.047.153.045.154.043.155.041.156.039.156.037.157.035.158.034.158.031.159.03.16.028.161.025.161.024.162.022.162.019.163.018.163.016.164.013.165.012.165.009.166.008.166.005.166.003.167.001.162v3.012l-.001.193-.004.198-.006.198-.009.198-.011.198-.013.197-.016.197-.018.196-.021.196-.023.196-.025.195-.028.195-.031.194-.032.193-.035.194-.037.192-.04.192-.042.191-.044.191-.047.19-.048.189-.051.189-.054.188-.056.187-.058.187-.06.186-.062.185-.065.184-.067.183-.069.183-.071.181-.074.181-.076.18-.078.179-.08.178-.082.177-.085.175-.086.175-.089.174-.091.173-.093.172-.095.171-.097.169-.1.169-.101.167-.104.166-.105.165-.108.164-.11.162-.112.161-.114.16-.116.159-.118.157-.119.156-.122.155-.124.153-.126.152-.128.15-.13.149-.132.148-.134.146-.136.144-.138.143-.139.142-.142.139-.143.138-.144.136-.146.134-.148.132-.149.13-.15.128-.152.126-.153.124-.155.122-.156.119-.157.118-.159.116-.16.114-.161.112-.162.11-.164.108-.165.105-.166.104-.167.101-.169.1-.169.097-.171.095-.172.093-.173.091-.174.089-.175.086-.175.085-.177.082-.178.08-.179.078-.18.076-.181.074-.181.071-.183.069-.183.067-.184.065-.185.062-.186.06-.187.058-.187.056-.188.054-.189.051-.189.048-.19.047-.191.044-.191.042-.192.04-.192.037-.194.035-.193.032-.194.031-.195.028-.195.025-.196.023-.196.021-.196.018-.197.016-.197.013-.198.011-.198.009-.198.006-.198.004-.193.001h-.012l-.2-.001-.206-.004-.205-.007-.205-.009-.204-.011-.203-.015-.203-.016-.201-.019-.202-.022-.2-.024-.2-.027-.199-.029-.198-.032-.198-.034-.197-.036-.195-.039-.195-.041-.195-.044-.193-.046-.192-.048-.192-.05-.19-.053-.19-.055-.188-.058-.188-.059-.186-.062-.186-.064-.184-.066-.184-.069-.182-.07-.181-.073-.181-.075-.179-.077-.177-.079-.177-.081-.176-.084-.174-.085-.173-.087-.172-.09-.171-.091-.169-.094-.169-.095-.166-.097-.166-.1-.164-.101-.163-.103-.162-.105-.16-.107-.159-.108-.158-.111-.156-.112-.154-.115-.153-.116-.152-.117-.15-.12-.149-.121-.148-.123-.145-.125-.145-.127-.142-.128-.142-.13-.139-.131-.138-.133-.137-.135-.135-.137-.133-.138-.131-.139-.13-.142-.128-.142-.127-.145-.125-.145-.123-.148-.121-.148-.12-.151-.117-.152-.116-.153-.115-.154-.112-.156-.111-.158-.108-.159-.107-.16-.105-.162-.103-.163-.101-.164-.1-.166-.097-.166-.095-.169-.094-.169-.091-.171-.09-.172-.087-.173-.085-.174-.084-.176-.081-.177-.079-.177-.077-.179-.075-.181-.073-.181-.07-.182-.069-.184-.066-.184-.064-.186-.062-.186-.059-.188-.058-.188-.055-.19-.053-.19-.05-.192-.048-.192-.046-.193-.044-.195-.041-.195-.039-.195-.036-.197-.034-.198-.032-.198-.029-.199-.027-.2-.024-.2-.022-.201-.019-.202-.016-.203-.015-.203-.011-.204-.009-.205-.007-.205-.004-.206-.001-.2v-3.012l.001-.162.003-.167.005-.166.008-.166.009-.166.012-.165.013-.165.016-.164.018-.163.019-.163.022-.163.024-.161.025-.161.028-.161.03-.16.031-.159.034-.158.035-.158.037-.157.039-.156.041-.156.043-.155.045-.154.047-.153.048-.153.05-.151.053-.151.053-.15.056-.149.057-.148.06-.147.06-.147.063-.145.064-.145.066-.144.068-.142.069-.142.071-.141.073-.139.074-.139.076-.138.078-.136.079-.136.08-.134.082-.134.084-.132.086-.132.086-.13.089-.129.09-.128.091-.127.093-.125.094-.125.096-.123.097-.122.098-.121.1-.12.102-.118.102-.117.105-.116.105-.115.107-.113.108-.113.11-.11.11-.11.113-.108.113-.107.115-.105.116-.105.117-.102.118-.102.12-.1.121-.098.122-.097.123-.096.125-.094.125-.093.127-.091.128-.09.129-.089.13-.086.132-.086.132-.084.134-.082.134-.08.136-.079.136-.078.138-.076.139-.074.139-.073.141-.071.142-.069.143-.068.143-.066.145-.064.145-.063.147-.06.147-.06.148-.057.149-.056.15-.053.151-.053.152-.05.152-.048.153-.047.154-.045.155-.043.156-.041.156-.039.157-.037.158-.035.158-.034.159-.031.16-.03.161-.028.161-.025.161-.024.163-.022.163-.019.163-.018.164-.016.165-.013.165-.012.166-.009.166-.008.166-.005.168-.003.161-.001h6.012l.161.001zm-6.161 3.999-.123.001-.116.002-.116.004-.116.005-.115.006-.115.008-.114.01-.114.011-.113.012-.113.013-.112.015-.112.017-.112.018-.111.019-.11.02-.11.022-.109.023-.109.024-.109.026-.108.027-.107.029-.107.029-.106.031-.106.032-.105.034-.105.034-.104.036-.103.038-.103.038-.103.04-.102.04-.101.043-.1.043-.1.044-.099.046-.099.047-.098.047-.097.05-.097.05-.096.051-.095.053-.094.053-.094.055-.093.056-.093.057-.091.058-.091.059-.091.06-.089.061-.089.062-.088.064-.087.064-.086.065-.085.067-.085.067-.084.068-.083.07-.082.07-.082.071-.08.073-.08.073-.078.074-.078.075-.077.076-.076.077-.075.078-.074.078-.073.08-.073.08-.071.082-.07.082-.07.083-.068.084-.067.085-.067.085-.065.086-.064.087-.064.088-.062.089-.061.089-.06.091-.059.091-.058.091-.057.093-.056.093-.055.094-.053.094-.053.095-.051.096-.05.097-.05.097-.048.098-.046.099-.046.099-.044.1-.044.1-.042.102-.04.101-.04.103-.038.102-.038.104-.036.104-.034.105-.034.105-.032.106-.031.106-.029.107-.029.107-.027.108-.026.109-.024.109-.023.109-.022.11-.02.111-.019.11-.018.112-.017.112-.015.112-.013.113-.012.113-.011.114-.01.114-.008.115-.006.115-.005.116-.004.116-.002.116-.001.123v2.988l.001.162.003.155.005.154.007.154.008.154.011.152.013.153.014.151.016.151.019.151.02.15.021.149.024.149.026.148.027.147.029.147.031.146.032.145.035.145.036.143.038.144.039.142.041.142.043.141.045.141.046.139.048.139.05.138.051.137.053.137.054.135.056.135.058.134.059.134.061.132.062.131.064.131.066.13.067.129.068.128.07.127.072.126.073.125.074.124.076.123.077.122.079.122.08.12.082.119.083.118.084.118.086.116.087.115.089.114.089.112.091.112.093.111.094.109.095.109.096.107.098.106.098.105.1.104.102.102.102.102.104.1.105.098.106.098.107.096.109.095.109.094.111.093.111.091.113.089.114.089.115.087.116.086.118.084.118.083.119.082.12.08.122.079.122.077.123.076.124.074.125.073.126.072.128.07.127.068.129.067.13.066.131.064.131.062.132.061.134.059.134.058.135.056.135.054.137.053.137.051.138.05.139.048.139.046.141.045.141.043.142.041.142.039.144.038.143.036.145.035.145.032.146.031.147.029.147.027.148.026.149.024.149.021.15.02.151.019.151.016.151.014.153.013.152.011.154.008.154.007.154.005.155.003.156.001.149-.001.149-.003.149-.004.148-.007.148-.008.148-.01.148-.012.147-.014.147-.015.147-.018.146-.019.146-.021.146-.022.145-.025.145-.026.144-.028.144-.029.143-.032.143-.033.143-.035.142-.037.142-.038.14-.04.141-.042.14-.043.139-.045.139-.047.138-.049.137-.05.137-.052.137-.053.135-.055.135-.057.134-.059.134-.06.132-.062.132-.063.132-.065.13-.067.13-.068.129-.07.128-.071.127-.073.126-.074.126-.076.124-.078.124-.079.123-.081.121-.082.121-.084.12-.086.119-.087.118-.088.117-.09.116-.092.115-.093.114-.094.113-.096.111-.097.111-.099.11-.101.108-.102.107-.103.106-.105.105-.106.103-.107.102-.108.101-.11.099-.111.097-.111.096-.113.094-.114.093-.115.092-.116.09-.117.088-.118.087-.119.086-.12.083-.121.083-.121.081-.123.079-.124.078-.124.076-.126.074-.126.073-.127.071-.128.07-.129.068-.13.067-.13.065-.132.063-.132.062-.132.06-.134.059-.134.057-.135.055-.135.053-.137.052-.136.05-.138.049-.138.047-.139.045-.139.043-.14.042-.14.04-.141.038-.142.037-.142.035-.143.033-.143.032-.143.029-.144.028-.144.026-.145.025-.145.022-.146.021-.146.019-.146.018-.147.015-.147.014-.147.012-.148.01-.148.008-.148.007-.148.004-.149.003-.149.001-.155v-2.988l-.001-.123-.002-.116-.004-.116-.005-.116-.006-.115-.008-.115-.01-.114-.011-.114-.012-.113-.013-.113-.015-.112-.017-.112-.018-.111-.019-.111-.02-.111-.022-.11-.023-.109-.024-.109-.026-.109-.027-.108-.029-.107-.029-.107-.031-.106-.032-.106-.034-.105-.034-.105-.036-.104-.038-.104-.038-.102-.04-.103-.04-.101-.042-.102-.044-.1-.044-.1-.046-.099-.046-.099-.048-.098-.05-.097-.05-.097-.051-.096-.053-.095-.053-.094-.055-.094-.056-.093-.057-.093-.058-.091-.059-.091-.06-.091-.061-.089-.062-.089-.064-.088-.064-.087-.065-.086-.067-.085-.067-.085-.068-.084-.07-.083-.07-.082-.071-.081-.073-.081-.073-.08-.074-.078-.075-.078-.076-.077-.077-.076-.078-.075-.078-.074-.08-.073-.081-.073-.081-.071-.082-.07-.083-.07-.084-.068-.085-.067-.085-.067-.086-.065-.087-.064-.088-.064-.089-.062-.089-.061-.091-.06-.091-.059-.091-.058-.093-.057-.093-.056-.094-.055-.094-.053-.095-.053-.096-.051-.097-.05-.097-.05-.098-.047-.099-.047-.099-.046-.1-.044-.1-.043-.101-.043-.102-.04-.103-.04-.103-.038-.103-.038-.104-.036-.105-.034-.105-.034-.106-.032-.106-.031-.107-.029-.107-.029-.108-.027-.109-.026-.109-.024-.109-.023-.11-.022-.11-.02-.111-.019-.112-.018-.112-.017-.112-.015-.113-.013-.113-.012-.114-.011-.114-.01-.115-.008-.115-.006-.116-.005-.116-.004-.116-.002-.123-.001h-5.988z"/><path d="m30 16c0 3.713-1.475 7.274-4.101 9.899-2.625 2.626-6.186 4.101-9.899 4.101-7.732 0-14-6.268-14-14 0-1.007 0-2.014 0-3 0-6.075 4.925-11 11-11h6c6.075 0 11 4.925 11 11z" fill="#fbc546"/><path d="m11 20.5c0 .828-.672 1.5-1.5 1.5s-1.5-.672-1.5-1.5c0-.916 0-2.084 0-3 0-.828.672-1.5 1.5-1.5s1.5.672 1.5 1.5z"/><path d="m24 20.5c0 .828-.672 1.5-1.5 1.5s-1.5-.672-1.5-1.5c0-.917 0-2.085 0-3.002 0-.397.158-.778.439-1.059s.662-.439 1.059-.439h.004c.397 0 .778.158 1.059.439s.439.662.439 1.059z"/><path d="m16.133 7.001.132.002.132.004.132.006.131.007.132.009.131.011.131.012.13.014.13.015.13.017.13.019.129.02.129.022.129.023.128.025.128.026.127.028.127.029.127.031.126.033.126.034.125.036.125.037.124.038.123.04.124.042.122.043.122.045.122.046.121.047.12.049.12.051.119.052.119.053.117.055.118.056.116.058.116.059.115.06.115.062.113.064.113.064.112.067.112.067.11.069.11.071.109.071.109.073.107.075.106.076.106.077.105.079.104.079.103.082.102.082.101.084.1.085.099.087.098.088.098.089.096.09.095.092.092.091 1.174 1.174.053.058.049.061.044.066.038.068.033.071.027.074.021.076.016.077.009.078.003.078-.003.078-.009.078-.016.077-.021.076-.027.074-.033.071-.038.068-.044.066-.049.061-.053.058-.058.053-.061.049-.066.044-.068.038-.071.033-.074.027-.076.021-.077.016-.078.009-.078.003-.078-.003-.078-.009-.077-.016-.076-.021-.074-.027-.071-.033-.068-.038-.066-.044-.061-.049-.058-.053-1.17-1.17-.078-.077-.078-.075-.078-.073-.079-.073-.08-.071-.08-.07-.082-.07-.082-.068-.083-.067-.083-.066-.085-.065-.085-.063-.086-.063-.086-.062-.087-.06-.088-.06-.089-.058-.089-.057-.09-.056-.09-.055-.092-.054-.091-.052-.093-.052-.093-.05-.093-.049-.094-.048-.095-.047-.095-.046-.096-.045-.096-.043-.097-.042-.097-.041-.098-.04-.098-.039-.099-.037-.099-.036-.1-.035-.1-.034-.1-.032-.101-.032-.102-.03-.101-.029-.102-.028-.103-.026-.103-.025-.103-.024-.103-.023-.104-.021-.104-.02-.105-.019-.104-.018-.105-.016-.106-.015-.105-.014-.106-.012-.106-.012-.106-.01-.107-.008-.106-.007-.107-.006-.107-.005-.108-.003-.107-.002-.108-.001-.108.001-.107.002-.108.003-.107.005-.107.006-.106.007-.107.008-.106.01-.106.012-.106.012-.105.014-.106.015-.105.016-.104.018-.105.019-.104.02-.104.021-.103.023-.103.024-.103.025-.103.026-.102.028-.101.029-.102.03-.101.032-.1.032-.1.034-.1.035-.099.036-.099.037-.098.039-.098.04-.097.041-.097.042-.096.043-.096.045-.095.046-.095.047-.094.048-.093.049-.093.05-.093.052-.091.052-.092.054-.09.055-.09.056-.089.057-.089.058-.088.06-.087.06-.086.062-.086.063-.085.063-.085.065-.083.066-.083.067-.082.068-.082.07-.08.07-.08.071-.079.073-.078.073-.078.075-.078.077-1.17 1.17-.058.053-.061.049-.066.044-.068.038-.071.033-.074.027-.076.021-.077.016-.078.009-.078.003-.078-.003-.078-.009-.077-.016-.076-.021-.074-.027-.071-.033-.068-.038-.066-.044-.061-.049-.058-.053-.053-.058-.049-.061-.044-.066-.038-.068-.033-.071-.027-.074-.021-.076-.016-.077-.009-.078-.003-.078.003-.078.009-.078.016-.077.021-.076.027-.074.033-.071.038-.068.044-.066.049-.061.053-.058 1.174-1.174.092-.091.095-.092.096-.09.098-.089.098-.088.099-.087.1-.085.101-.084.102-.082.103-.082.104-.079.105-.079.106-.077.106-.076.107-.075.109-.073.109-.071.11-.071.11-.069.112-.067.112-.067.113-.064.113-.064.115-.062.115-.06.116-.059.116-.058.118-.056.117-.055.119-.053.119-.052.12-.051.12-.049.121-.047.122-.046.122-.045.122-.043.124-.042.123-.04.124-.038.125-.037.125-.036.126-.034.126-.033.127-.031.127-.029.127-.028.128-.026.128-.025.129-.023.129-.022.129-.02.13-.019.13-.017.13-.015.13-.014.131-.012.131-.011.132-.009.131-.007.132-.006.132-.004.132-.002.13-.001h.006z" fill="#593604"/></g></svg>