<svg clip-rule="evenodd" fill-rule="evenodd" stroke-linejoin="round" stroke-miterlimit="1.41421" viewBox="0 0 32 32" xmlns="http://www.w3.org/2000/svg" xmlns:xlink="http://www.w3.org/1999/xlink"><clipPath id="a"><path clip-rule="evenodd" d="m0 0h32v32h-32z"/></clipPath><clipPath id="b"><path clip-rule="evenodd" d="m8 23 4.5 4.5s1.547-1.547 2.207-2.207c.188-.188.293-.442.293-.707 0-2.425 0-14.775 0-17.878 0-.466-.108-.925-.317-1.341-.564-1.128-1.683-3.367-1.683-3.367s-3.584 7.168-4.683 9.367c-.209.416-.317.875-.317 1.341z"/></clipPath><clipPath id="c"><path clip-rule="evenodd" d="m24 23-4.5 4.5s-1.547-1.547-2.207-2.207c-.188-.188-.293-.442-.293-.707 0-2.425 0-14.775 0-17.878 0-.466.108-.925.317-1.341.564-1.128 1.683-3.367 1.683-3.367s3.584 7.168 4.683 9.367c.209.416.317.875.317 1.341z"/></clipPath><path d="m0 0h32v32h-32z" fill="none"/><g clip-path="url(#a)"><path d="m25.479 10.486.057.118.059.132.055.134.051.135.047.137.044.139.039.138.035.14.032.141.027.143.023.143.019.143.014.144.011.144.006.146.002.131v9.478l6 6v3.828h-10.828l-5.312-5.311-.084-.089-.097-.112-.091-.117-.084-.12-.079-.124-.073-.129-.065-.131-.059-.132-.053-.137-.046-.14-.039-.141-.032-.142-.026-.146-.018-.147-.011-.147-.003-.125v-17.917l.002-.13.006-.145.011-.145.014-.144.019-.144.023-.143.027-.141.031-.141.036-.141.039-.139.043-.138.048-.137.051-.135.055-.134.06-.133.056-.118 3.243-6.485h.472l6.243 12.486zm-6.459-3.974-.005.024-.004.028-.004.028-.003.029-.002.029-.001.029-.001.044v17.449l3.828 3.828h3.344l-4.172-4.172v-11.106l-.001-.043-.001-.028-.002-.03-.003-.029-.004-.029-.004-.028-.006-.028-.006-.028-.007-.029-.008-.028-.008-.027-.01-.027-.01-.027-.011-.027-.013-.028-.018-.039z"/><path d="m13.236-2 3.243 6.485.056.118.06.133.055.134.051.135.047.137.044.138.039.139.035.14.032.142.027.142.023.142.019.144.014.144.011.145.006.145.002.13v17.917l-.003.125-.011.147-.018.147-.026.146-.032.142-.039.141-.046.14-.053.137-.059.132-.065.131-.073.129-.078.123-.085.121-.091.117-.097.112-.085.09-5.311 5.31h-10.828v-3.828l6-6v-9.478l.002-.131.006-.146.011-.144.014-.144.019-.144.023-.142.027-.142.032-.142.035-.14.039-.138.044-.139.047-.137.051-.135.055-.134.06-.133.056-.118 6.243-12.485h.472zm-3.124 14.248-.019.039-.012.027-.011.027-.01.027-.01.027-.008.027-.008.028-.007.029-.006.027-.006.029-.004.029-.004.028-.003.029-.002.03-.001.028-.001.043v11.106l-4.172 4.172h3.344l3.828-3.828v-17.449l-.001-.044-.001-.029-.002-.029-.003-.029-.004-.028-.004-.029-.005-.023z"/><path d="m8 23h1l3.5 3.5v1l-2.5 2.5h-8v-1z" fill="#5d1668"/><path d="m24 23h-1l-3.5 3.5v1l2.5 2.5h8v-1z" fill="#5d1668"/><path d="m8 23 4.5 4.5s1.547-1.547 2.207-2.207c.188-.188.293-.442.293-.707 0-2.425 0-14.775 0-17.878 0-.466-.108-.925-.317-1.341-.564-1.128-1.683-3.367-1.683-3.367s-3.584 7.168-4.683 9.367c-.209.416-.317.875-.317 1.341z" fill="#7d2982"/><g clip-path="url(#b)"><path d="m13.128 8.004.096.009.095.013.095.017.093.022.093.027.091.031.089.035.088.04.085.044.084.048.081.052.078.055.076.06.073.062.069.067 1.725 1.724.085.09.097.112.091.117.084.12.079.124.072.128.066.132.059.133.053.136.046.14.039.14.032.144.026.146.018.145.011.149.003.124v9.61l-.002.095-.007.095-.011.095-.016.093-.02.094-.025.091-.029.091-.033.089-.038.088-.041.085-.046.084-.05.081-.053.079-.057.076-.061.074-.064.07-.067.067-.07.064-.074.061-.076.057-.079.054-.081.049-.084.046-.085.041-.088.038-.089.033-.091.029-.092.025-.093.02-.093.016-.095.011-.095.007-.095.002h-2l-.095-.002-.095-.007-.095-.011-.093-.016-.093-.02-.092-.025-.091-.029-.089-.033-.088-.038-.085-.041-.084-.046-.081-.049-.079-.054-.076-.057-.074-.061-.07-.064-.067-.067-.064-.07-.061-.074-.057-.076-.053-.079-.05-.081-.046-.084-.041-.085-.038-.088-.033-.089-.029-.091-.025-.091-.02-.094-.016-.093-.011-.095-.007-.095-.002-.095v-12l.002-.096.007-.096.012-.096.016-.094.021-.094.025-.093.029-.092.034-.09.038-.088.043-.086.046-.084.051-.082.054-.079.058-.077.062-.074.065-.07.069-.068.072-.064.074-.06.078-.057.08-.053.083-.05.084-.045.087-.041.089-.037.091-.032.092-.028.093-.024.094-.019.095-.015.096-.01.096-.005.096-.001zm-.128 13.996h2v-9.586l-.001-.049-.004-.05-.006-.048-.008-.049-.011-.048-.013-.047-.016-.046-.017-.045-.02-.045-.022-.044-.024-.042-.026-.042-.028-.04-.03-.039-.033-.037-.034-.036-1.707-1.707z" fill="#2e0a39"/><path d="m9 23v-2h7v4l-6-1z" fill="#7d2982"/></g><path d="m24 23-4.5 4.5s-1.547-1.547-2.207-2.207c-.188-.188-.293-.442-.293-.707 0-2.425 0-14.775 0-17.878 0-.466.108-.925.317-1.341.564-1.128 1.683-3.367 1.683-3.367s3.584 7.168 4.683 9.367c.209.416.317.875.317 1.341z" fill="#7d2982"/><g clip-path="url(#c)"><path d="m19.064 8.001.096.005.096.01.095.015.094.019.093.024.092.028.091.032.089.037.087.041.084.045.083.05.08.053.078.057.074.06.072.064.069.068.065.07.062.074.058.077.054.079.051.082.046.084.043.086.038.088.034.09.029.092.025.093.021.094.016.094.012.096.007.096.002.096v12l-.002.095-.007.095-.011.095-.016.093-.02.094-.025.091-.029.091-.033.089-.038.088-.041.085-.046.084-.049.081-.054.079-.057.076-.06.074-.065.07-.067.067-.07.064-.074.061-.076.057-.079.054-.081.049-.084.046-.085.041-.088.038-.089.033-.091.029-.091.025-.093.02-.094.016-.095.011-.095.007-.095.002h-2l-.095-.002-.095-.007-.095-.011-.094-.016-.093-.02-.091-.025-.091-.029-.089-.033-.088-.038-.085-.041-.084-.046-.081-.049-.079-.054-.076-.057-.074-.061-.07-.064-.067-.067-.064-.07-.061-.074-.057-.076-.054-.079-.049-.081-.046-.084-.041-.085-.038-.088-.033-.089-.029-.091-.025-.091-.02-.094-.016-.093-.011-.095-.007-.095-.002-.095v-9.61l.003-.124.011-.149.018-.147.026-.144.032-.142.039-.143.046-.139.052-.135.06-.135.066-.131.072-.127.079-.125.084-.12.091-.117.097-.112.085-.09 1.725-1.724.069-.067.073-.062.076-.06.078-.055.081-.052.084-.048.085-.044.088-.04.089-.035.091-.031.093-.027.093-.022.095-.017.095-.013.096-.009.096-.004zm-1.771 3.706-.034.036-.033.037-.03.039-.028.04-.026.042-.024.042-.022.044-.02.045-.017.045-.016.046-.013.047-.011.048-.008.049-.006.048-.004.05-.001.049v9.586h2v-12z" fill="#2e0a39"/><path d="m23 23v-2h-7v4l6-1z" fill="#7d2982"/></g></g></svg>