<svg clip-rule="evenodd" fill-rule="evenodd" stroke-linejoin="round" stroke-miterlimit="1.41421" viewBox="0 0 32 32" xmlns="http://www.w3.org/2000/svg" xmlns:xlink="http://www.w3.org/1999/xlink"><clipPath id="a"><path clip-rule="evenodd" d="m0 0h32v32h-32z"/></clipPath><clipPath id="b"><path clip-rule="evenodd" d="m8 23 4.5 4.5s1.547-1.547 2.207-2.207c.188-.188.293-.442.293-.707 0-2.491 0-15.535 0-20.586 0-1.105-.895-2-2-2s-3.584 7.168-4.683 9.367c-.209.416-.317.875-.317 1.341z"/></clipPath><clipPath id="c"><path clip-rule="evenodd" d="m24 23-4.5 4.5s-1.547-1.547-2.207-2.207c-.188-.188-.293-.442-.293-.707 0-2.491 0-15.535 0-20.586 0-1.105.895-2 2-2s3.584 7.168 4.683 9.367c.209.416.317.875.317 1.341z"/></clipPath><path d="m0 0h32v32h-32z" fill="none"/><g clip-path="url(#a)"><path d="m25.479 10.486.057.118.059.132.055.134.051.135.047.137.044.138.039.139.035.14.032.141.027.143.023.143.019.143.014.144.011.144.006.146.002.131v9.478l6 6v3.828h-10.828l-5.311-5.311-.085-.089-.097-.112-.091-.117-.084-.12-.079-.124-.072-.129-.066-.131-.059-.132-.053-.137-.046-.14-.039-.141-.032-.142-.026-.146-.018-.147-.011-.147-.003-.125v-20.624l.001-.089.004-.101.006-.101.009-.102.012-.099.014-.1.016-.1.019-.098.022-.099.023-.095.026-.096.028-.095.03-.093.033-.094.035-.091.036-.09.04-.09.042-.089.043-.086.044-.085.048-.085.05-.084.051-.082.052-.08.055-.078.056-.078.059-.077.06-.074.061-.073.065-.072.065-.07.066-.068.069-.068.07-.065.071-.063.073-.061.075-.061.077-.059.078-.057.078-.054.08-.052.083-.052.082-.049.085-.047.086-.046.087-.043.088-.041.089-.039.091-.037.092-.035.092-.032.094-.031.095-.028.096-.026.096-.024.098-.021.098-.019.099-.016.1-.014.1-.012.102-.009.101-.006.102-.004 1.33-.017 5.251 10.502zm-6.479-4.014v17.7l3.828 3.828h3.344l-4.172-4.172v-11.106l-.001-.043-.001-.028-.002-.03-.003-.029-.004-.029-.004-.028-.006-.028-.006-.028-.007-.029-.008-.028-.008-.026-.01-.028-.01-.027-.011-.027-.012-.027-.019-.04z"/><path d="m13.102.001.102.004.102.006.101.009.1.012.1.014.099.016.098.019.098.021.096.024.096.026.095.028.094.031.092.032.092.035.09.037.09.039.088.041.087.043.086.046.084.047.083.049.082.051.081.053.079.055.077.056.077.059.075.061.072.06.072.064.071.066.067.066.067.069.066.071.063.07.062.074.06.075.059.076.056.078.055.078.052.08.051.082.05.084.048.085.044.085.043.086.042.089.039.089.037.091.035.092.033.093.03.093.028.095.026.096.023.095.022.099.019.098.016.1.014.1.012.099.009.102.006.099.004.103.001.091v20.622l-.003.125-.011.147-.018.147-.026.146-.032.142-.039.141-.046.14-.053.137-.059.132-.066.131-.072.129-.079.124-.084.12-.09.115-.098.114-.085.09-5.311 5.31h-10.828v-3.828l6-6v-9.478l.002-.131.006-.146.011-.144.014-.144.019-.144.023-.142.027-.142.032-.142.035-.14.039-.139.044-.138.047-.137.051-.135.055-.134.06-.133.056-.118 5.251-10.501 1.33.017zm-2.99 12.247-.019.039-.012.027-.011.027-.01.027-.01.028-.008.026-.008.028-.007.029-.006.027-.006.029-.004.029-.004.028-.003.029-.002.03-.001.028-.001.043v11.106l-4.172 4.172h3.344l3.828-3.828v-17.7z"/><path d="m8 23h2l2.5 2.5v2l-2.5 2.5h-8v-1z" fill="#857bd2"/><path d="m24 23h-2l-2.5 2.5v2l2.5 2.5h8v-1z" fill="#857bd2"/><path d="m8 23 4.5 4.5s1.547-1.547 2.207-2.207c.188-.188.293-.442.293-.707 0-2.491 0-15.535 0-20.586 0-1.105-.895-2-2-2s-3.584 7.168-4.683 9.367c-.209.416-.317.875-.317 1.341z" fill="#9ca1e7"/><g clip-path="url(#b)"><path d="m14.149 8.003.147.011.147.018.145.026.143.032.142.039.139.046.137.053.132.059.132.066.128.072.123.078.121.085.117.091.112.097.108.102.102.108.097.112.091.117.084.12.079.124.072.128.066.132.059.132.053.137.046.14.039.14.032.144.026.145.018.146.011.149.003.124v11.024l-.002.095-.007.095-.011.095-.016.094-.02.093-.025.091-.029.091-.033.089-.038.088-.041.085-.046.084-.05.081-.053.079-.057.076-.061.074-.064.07-.067.067-.07.064-.074.061-.076.057-.079.054-.081.049-.084.046-.085.041-.088.038-.089.033-.091.029-.092.025-.093.02-.093.016-.095.011-.095.007-.095.002h-2l-.095-.002-.095-.007-.095-.011-.093-.016-.093-.02-.092-.025-.091-.029-.089-.033-.088-.038-.085-.041-.084-.046-.081-.049-.079-.054-.076-.057-.074-.061-.07-.064-.067-.067-.064-.07-.061-.074-.057-.076-.053-.079-.05-.081-.046-.084-.041-.085-.038-.088-.033-.089-.029-.091-.025-.091-.02-.093-.016-.094-.011-.095-.007-.095-.002-.095v-11.024l.003-.124.011-.149.018-.146.026-.145.032-.144.039-.14.046-.14.053-.137.059-.132.066-.132.072-.128.079-.124.084-.12.091-.117.097-.112.102-.108.108-.102.112-.097.117-.091.121-.085.123-.078.128-.072.132-.066.132-.059.137-.053.139-.046.142-.039.143-.032.145-.026.147-.018.147-.011.149-.004zm-.149 1.997-.05.001-.049.004-.049.006-.048.008-.048.011-.047.013-.046.016-.046.017-.044.02-.044.022-.042.024-.042.026-.04.028-.039.03-.037.033-.036.034-.034.036-.033.037-.03.039-.028.04-.026.042-.024.042-.022.044-.02.044-.017.046-.016.046-.013.047-.011.048-.008.048-.006.049-.004.049-.001.05v11h2v-11l-.001-.05-.004-.049-.006-.049-.008-.048-.011-.048-.013-.047-.016-.046-.017-.046-.02-.044-.022-.044-.024-.042-.026-.042-.028-.04-.03-.039-.033-.037-.034-.036-.036-.034-.037-.033-.039-.03-.04-.028-.042-.026-.042-.024-.044-.022-.044-.02-.046-.017-.046-.016-.047-.013-.048-.011-.048-.008-.049-.006-.049-.004-.05-.001z" fill="#3e328a"/><path d="m10 24v-3h7v4h-6z" fill="#9ca1e7"/></g><path d="m24 23-4.5 4.5s-1.547-1.547-2.207-2.207c-.188-.188-.293-.442-.293-.707 0-2.491 0-15.535 0-20.586 0-1.105.895-2 2-2s3.584 7.168 4.683 9.367c.209.416.317.875.317 1.341z" fill="#9ca1e7"/><g clip-path="url(#c)"><path d="m18.149 8.003.147.011.147.018.145.026.143.032.142.039.139.046.137.053.133.059.131.066.128.072.124.078.121.086.116.09.112.097.108.102.102.108.097.112.09.116.085.121.079.125.072.127.066.131.059.133.053.138.046.138.039.141.032.144.026.145.018.148.011.145.003.124v11.026l-.002.095-.007.095-.011.095-.016.094-.02.093-.025.091-.029.091-.033.089-.038.088-.041.085-.046.084-.049.081-.054.079-.057.076-.06.074-.065.07-.067.067-.07.064-.074.061-.076.057-.079.054-.081.049-.084.046-.085.041-.088.038-.089.033-.091.029-.091.025-.093.02-.094.016-.095.011-.095.007-.095.002h-2l-.095-.002-.095-.007-.095-.011-.094-.016-.093-.02-.091-.025-.091-.029-.089-.033-.088-.038-.085-.041-.084-.046-.081-.049-.079-.054-.076-.057-.074-.061-.07-.064-.067-.067-.064-.07-.061-.074-.057-.076-.054-.079-.049-.081-.046-.084-.041-.085-.038-.088-.033-.089-.029-.091-.025-.091-.02-.093-.016-.094-.011-.095-.007-.095-.002-.095v-11.024l.003-.124.011-.149.018-.147.026-.144.032-.142.039-.143.046-.139.052-.135.06-.135.066-.131.072-.127.079-.125.084-.12.091-.117.097-.112.102-.108.108-.102.113-.097.116-.091.12-.085.124-.078.128-.072.131-.066.134-.059.136-.053.139-.046.141-.039.144-.032.145-.026.147-.018.147-.011.149-.004zm-.199 1.998-.049.004-.049.006-.048.008-.048.011-.047.013-.046.016-.046.017-.044.02-.044.022-.042.024-.042.026-.04.028-.039.03-.037.033-.036.034-.034.036-.033.037-.03.039-.028.04-.026.042-.024.042-.022.044-.02.044-.017.046-.016.046-.013.047-.011.048-.008.048-.006.049-.004.049-.001.05v11h2v-11l-.001-.05-.004-.049-.006-.049-.008-.048-.011-.048-.013-.047-.016-.046-.017-.046-.02-.044-.022-.044-.024-.042-.026-.042-.028-.04-.03-.039-.033-.037-.034-.036-.036-.034-.037-.033-.039-.03-.04-.028-.042-.026-.042-.024-.044-.022-.044-.02-.046-.017-.046-.016-.047-.013-.048-.011-.048-.008-.049-.006-.049-.004-.05-.001s-.05.001-.05.001z" fill="#3e328a"/><path d="m21 25 1-1v-3h-7v4z" fill="#9ca1e7"/></g></g></svg>