<?xml version="1.0" encoding="UTF-8" standalone="no"?>
<!DOCTYPE svg PUBLIC "-//W3C//DTD SVG 1.1//EN" "http://www.w3.org/Graphics/SVG/1.1/DTD/svg11.dtd">
<svg width="100%" height="100%" viewBox="0 0 32 32" version="1.1" xmlns="http://www.w3.org/2000/svg" xmlns:xlink="http://www.w3.org/1999/xlink" xml:space="preserve" xmlns:serif="http://www.serif.com/" style="fill-rule:evenodd;clip-rule:evenodd;stroke-linejoin:round;stroke-miterlimit:1.41421;">
<metadata>
<rdf:RDF xmlns:cc="http://web.resource.org/cc/"
         xmlns:rdf="http://www.w3.org/1999/02/22-rdf-syntax-ns#"
         xmlns:dc = "http://purl.org/dc/elements/1.1/"
         >

     <rdf:Description rdf:about="">
       <dc:title>Mutant Standard emoji v0.2.4</dc:title>
     </rdf:Description>

    <cc:work rdf:about="">
        <cc:license rdf:resource="http://creativecommons.org/licenses/by-nc-sa/4.0/"/>
        <cc:attributionName>Dzuk</cc:attributionName>
        <cc:attributionURL>http://mutant.tech/</cc:attributionURL>
    </cc:work>

</rdf:RDF>
</metadata>

    <rect id="raising_hand" x="0" y="0" width="32" height="32" style="fill:none;"/>
    <g id="outline">
        <path d="M28,32l-18,0l0,-3.367c-2.049,-2.916 -4.125,-5.811 -6.146,-8.746c-0.053,-0.08 -0.104,-0.161 -0.154,-0.244c-0.144,-0.248 -0.271,-0.505 -0.373,-0.774c-0.205,-0.539 -0.31,-1.106 -0.326,-1.681c-0.044,-4.404 -0.001,-8.809 -0.001,-13.213c0.003,-0.124 0.002,-0.15 0.015,-0.279c0.025,-0.248 0.081,-0.493 0.167,-0.728c0.301,-0.822 0.964,-1.485 1.786,-1.786c0.235,-0.086 0.48,-0.142 0.728,-0.167c0.129,-0.013 0.155,-0.012 0.279,-0.015c0.392,0 0.785,-0.007 1.178,0.003c0.134,0.01 0.168,0.01 0.301,0.031c0.246,0.037 0.486,0.105 0.715,0.202c0.806,0.341 1.436,1.036 1.696,1.873c0.06,0.191 0.1,0.388 0.12,0.587c0.013,0.129 0.012,0.155 0.015,0.279l0,4.05c-0.003,0.14 -0.011,0.279 -0.032,0.418c-0.065,0.435 -0.227,0.855 -0.471,1.222c-0.107,0.16 -0.23,0.304 -0.362,0.443l0.775,7.01l3.914,3.882l0.277,0c-0.538,-0.527 -0.991,-1.141 -1.334,-1.812c-0.328,-0.639 -0.555,-1.329 -0.673,-2.038c-0.053,-0.321 -0.081,-0.645 -0.092,-0.97c-0.014,-0.757 -0.006,-1.513 -0.001,-2.27c0.016,-0.848 0.171,-1.694 0.487,-2.483c0.21,-0.523 0.478,-1.021 0.804,-1.481c0.717,-1.007 1.7,-1.818 2.826,-2.327c0.578,-0.261 1.192,-0.443 1.818,-0.538c0.293,-0.045 0.588,-0.069 0.884,-0.079c0.09,-0.001 0.18,-0.002 0.27,-0.001c0.848,0.016 1.694,0.171 2.483,0.487c0.523,0.21 1.021,0.478 1.481,0.804c1.007,0.717 1.818,1.7 2.327,2.826c0.261,0.578 0.443,1.192 0.539,1.819c0.044,0.292 0.068,0.587 0.078,0.883c0.014,0.757 0.006,1.513 0.001,2.27c-0.005,0.297 -0.026,0.592 -0.067,0.886c-0.092,0.657 -0.278,1.301 -0.551,1.906c-0.347,0.768 -0.835,1.472 -1.431,2.068c-0.04,0.04 -0.081,0.08 -0.122,0.119c0.292,0.049 0.579,0.124 0.858,0.224c0.654,0.234 1.257,0.606 1.761,1.085c0.563,0.536 0.998,1.204 1.26,1.936c0.138,0.384 0.228,0.786 0.269,1.192c0.016,0.16 0.022,0.321 0.024,0.482l0,6.012Z"/>
    </g>
    <g id="emoji">
        <path d="M7.996,18l0.004,0.04l5,4.96c0,0 6.161,0 10,0c0.796,0 1.559,0.316 2.121,0.879c0.563,0.562 0.879,1.325 0.879,2.121l0,4l-14,0l0,-2c0,0 -4.808,-6.841 -6.454,-9.184c-0.177,-0.251 -0.313,-0.527 -0.405,-0.816l1.14,-2.255l1.715,2.255Z" style="fill:#999999;"/>
        <clipPath id="_clip1">
            <path d="M7.996,18l0.004,0.04l5,4.96c0,0 6.161,0 10,0c0.796,0 1.559,0.316 2.121,0.879c0.563,0.562 0.879,1.325 0.879,2.121l0,4l-14,0l0,-2c0,0 -4.808,-6.841 -6.454,-9.184c-0.177,-0.251 -0.313,-0.527 -0.405,-0.816l1.14,-2.255l1.715,2.255Z"/>
        </clipPath>
        <g clip-path="url(#_clip1)">
            <circle cx="19" cy="21" r="4" style="fill:#B68862;"/>
        </g>
        <path d="M5.141,18c-0.093,-0.292 -0.141,-0.599 -0.141,-0.909c0,-2.32 0,-8.091 0,-8.091c0,0 0,-3.293 0,-5c0,-0.552 0.448,-1 1,-1c0.322,0 0.678,0 1,0c0.552,0 1,0.448 1,1c0,1.11 0,2.89 0,4c0,0.265 -0.105,0.52 -0.293,0.707c-0.187,0.188 -0.442,0.293 -0.707,0.293c0,0 0,0 0,0l0.996,9l-2.855,0Z" style="fill:#B68862;"/>
        <path d="M24,14c0,-2.761 -2.239,-5 -5,-5c0,0 0,0 0,0c-2.761,0 -5,2.239 -5,5c0,0.661 0,1.339 0,2c0,2.761 2.239,5 5,5c0,0 0,0 0,0c2.761,0 5,-2.239 5,-5c0,-0.661 0,-1.339 0,-2Z" style="fill:#B68862;"/>
        <clipPath id="_clip2">
            <path d="M24,14c0,-2.761 -2.239,-5 -5,-5c0,0 0,0 0,0c-2.761,0 -5,2.239 -5,5c0,0.661 0,1.339 0,2c0,2.761 2.239,5 5,5c0,0 0,0 0,0c2.761,0 5,-2.239 5,-5c0,-0.661 0,-1.339 0,-2Z"/>
        </clipPath>
        <g clip-path="url(#_clip2)">
            <path d="M22.02,13c0.113,0.004 0.224,0.024 0.33,0.063c0.276,0.103 0.496,0.328 0.593,0.605c0.036,0.101 0.054,0.206 0.057,0.312c0.003,0.366 0.022,0.734 -0.003,1.099c-0.013,0.14 -0.051,0.275 -0.118,0.398c-0.06,0.111 -0.141,0.21 -0.238,0.29c-0.092,0.077 -0.197,0.137 -0.309,0.176c-0.107,0.038 -0.219,0.057 -0.332,0.057c-0.391,0 -0.755,-0.237 -0.914,-0.594c-0.054,-0.122 -0.082,-0.253 -0.086,-0.386c-0.003,-0.366 -0.022,-0.734 0.003,-1.099c0.009,-0.1 0.031,-0.197 0.068,-0.29c0.095,-0.242 0.286,-0.44 0.523,-0.545c0.098,-0.043 0.201,-0.069 0.307,-0.081c0.039,-0.004 0.079,-0.005 0.119,-0.005Zm-6,0c0.113,0.004 0.224,0.024 0.33,0.063c0.276,0.103 0.496,0.328 0.593,0.605c0.036,0.101 0.054,0.206 0.057,0.312c0.003,0.366 0.022,0.734 -0.003,1.099c-0.013,0.14 -0.051,0.275 -0.118,0.398c-0.06,0.111 -0.141,0.21 -0.238,0.29c-0.092,0.077 -0.197,0.137 -0.309,0.176c-0.107,0.038 -0.219,0.057 -0.332,0.057c-0.391,0 -0.755,-0.237 -0.914,-0.594c-0.054,-0.122 -0.082,-0.253 -0.086,-0.386c-0.003,-0.366 -0.022,-0.734 0.003,-1.099c0.009,-0.1 0.031,-0.197 0.068,-0.29c0.095,-0.242 0.286,-0.44 0.523,-0.545c0.098,-0.043 0.201,-0.069 0.307,-0.081c0.039,-0.004 0.079,-0.005 0.119,-0.005Z"/>
        </g>
    </g>
</svg>
