<svg clip-rule="evenodd" fill-rule="evenodd" stroke-linecap="round" stroke-linejoin="round" stroke-miterlimit="1.5" viewBox="0 0 32 32" xmlns="http://www.w3.org/2000/svg" xmlns:xlink="http://www.w3.org/1999/xlink"><clipPath id="a"><path clip-rule="evenodd" d="m0 0h32v32h-32z"/></clipPath><path d="m0 0h32v32h-32z" fill="none"/><g clip-path="url(#a)"><path d="m16.199.001.198.004.198.006.198.009.198.011.197.013.197.016.196.018.196.021.196.023.195.025.195.028.194.031.193.032.194.035.192.037.192.04.191.042.191.044.19.047.189.048.189.051.188.054.187.056.187.058.186.06.185.062.184.065.183.067.183.069.181.071.181.074.18.076.179.078.178.08.177.082.176.085.174.086.174.089.173.091.172.093.171.095.169.097.169.1.167.101.166.104.165.105.164.108.162.11.161.112.16.114.159.116.157.118.156.119.155.122.153.124.152.126.15.128.149.13.148.132.146.134.144.136.143.138.142.139.139.142.138.143.136.144.134.146.132.148.13.149.128.15.126.152.124.153.122.155.119.156.118.157.116.159.114.16.112.161.11.162.108.164.105.165.104.166.101.167.1.169.097.169.095.171.093.172.091.173.089.174.086.175.085.175.082.177.08.178.078.179.076.18.074.181.071.181.069.183.067.183.065.184.062.185.06.186.058.187.056.187.054.188.051.189.048.189.047.19.044.191.042.191.04.192.037.192.035.194.032.193.031.194.028.195.025.195.023.196.021.196.018.196.016.197.013.197.011.198.009.198.006.198.004.198.001.193v3.012l-.001.162-.003.167-.005.166-.008.166-.009.166-.012.165-.013.165-.016.164-.018.163-.019.163-.022.162-.024.162-.025.161-.028.161-.03.16-.031.159-.034.158-.035.158-.037.157-.039.156-.041.156-.043.155-.045.154-.047.153-.048.153-.05.151-.053.151-.053.15-.056.149-.057.148-.06.147-.06.147-.063.145-.064.145-.066.143-.068.143-.069.142-.071.141-.073.139-.074.139-.076.138-.078.136-.079.136-.08.134-.082.134-.084.132-.086.132-.086.13-.089.129-.089.128-.092.127-.093.125-.094.125-.096.123-.097.122-.098.121-.1.12-.102.118-.102.117-.105.116-.105.115-.107.113-.108.113-.11.11-.11.11-.113.108-.113.107-.115.105-.116.105-.117.102-.118.102-.12.1-.121.098-.122.097-.123.096-.125.094-.125.093-.127.091-.128.09-.129.089-.13.086-.132.086-.132.084-.134.082-.134.08-.136.079-.136.078-.138.076-.139.074-.139.073-.141.071-.142.069-.143.068-.143.066-.145.064-.145.063-.147.06-.147.06-.148.057-.149.056-.15.053-.151.053-.152.05-.152.048-.153.047-.154.045-.155.043-.156.041-.156.039-.157.037-.158.035-.158.034-.159.031-.16.03-.161.028-.161.025-.161.024-.163.022-.163.019-.163.018-.164.016-.165.013-.165.012-.166.009-.166.008-.166.005-.167.003-.162.001h-6.012l-.162-.001-.167-.003-.166-.005-.166-.008-.166-.009-.165-.012-.165-.013-.164-.016-.163-.018-.163-.019-.163-.022-.161-.024-.161-.025-.161-.028-.16-.03-.159-.031-.158-.034-.158-.035-.157-.037-.156-.039-.156-.041-.155-.043-.154-.045-.153-.047-.152-.048-.152-.05-.151-.053-.15-.053-.149-.056-.148-.057-.147-.06-.147-.06-.145-.063-.145-.064-.143-.066-.143-.068-.142-.069-.141-.071-.139-.073-.139-.074-.138-.076-.136-.078-.136-.079-.134-.08-.134-.082-.132-.084-.132-.086-.13-.086-.129-.089-.128-.09-.127-.091-.125-.093-.125-.094-.123-.096-.122-.097-.121-.098-.12-.1-.118-.102-.117-.102-.116-.105-.115-.105-.113-.107-.113-.108-.11-.11-.11-.11-.108-.113-.107-.113-.105-.115-.105-.116-.102-.117-.102-.118-.1-.12-.098-.121-.097-.122-.096-.123-.094-.125-.093-.125-.091-.127-.09-.128-.089-.129-.086-.13-.086-.132-.084-.132-.082-.134-.08-.134-.079-.136-.078-.136-.076-.138-.074-.139-.073-.139-.071-.141-.069-.142-.068-.143-.066-.143-.064-.145-.063-.145-.06-.147-.06-.147-.057-.148-.056-.149-.053-.15-.053-.151-.05-.151-.048-.153-.047-.153-.045-.154-.043-.155-.041-.156-.039-.156-.037-.157-.035-.158-.034-.158-.031-.159-.03-.16-.028-.161-.025-.161-.024-.161-.022-.163-.019-.163-.018-.163-.016-.164-.013-.165-.012-.165-.009-.166-.008-.166-.005-.166-.003-.167-.001-.162v-3.012l.001-.2.004-.206.007-.205.009-.205.011-.204.015-.203.016-.203.019-.202.022-.201.024-.2.027-.2.029-.199.032-.198.034-.198.036-.197.039-.195.041-.195.044-.195.046-.193.048-.192.05-.192.053-.19.055-.19.058-.188.059-.188.062-.186.064-.186.066-.184.069-.184.07-.182.073-.181.075-.181.077-.179.079-.177.081-.177.084-.176.085-.174.087-.173.09-.172.091-.171.094-.169.095-.169.097-.166.1-.166.101-.164.103-.163.105-.162.107-.16.108-.159.111-.158.112-.156.115-.154.116-.153.117-.152.12-.151.121-.148.123-.148.125-.145.127-.145.128-.142.13-.142.131-.139.133-.138.135-.137.137-.135.138-.133.139-.131.141-.13.143-.128.145-.127.145-.125.148-.123.149-.121.15-.12.152-.117.153-.116.154-.115.156-.112.158-.111.159-.108.16-.107.162-.105.163-.103.164-.101.166-.1.166-.097.169-.095.169-.094.171-.091.172-.09.173-.087.174-.085.176-.084.177-.081.177-.079.179-.077.181-.075.181-.073.182-.07.184-.069.184-.066.186-.064.186-.062.188-.059.188-.058.19-.055.19-.053.192-.05.192-.048.193-.046.195-.044.195-.041.195-.039.197-.036.198-.034.198-.032.199-.029.2-.027.2-.024.201-.022.202-.019.203-.016.203-.015.204-.011.205-.009.205-.007.206-.004.2-.001h.012l.193.001zm-.355 4-.155.003-.154.005-.154.007-.154.008-.152.011-.153.013-.151.014-.151.016-.151.019-.15.02-.149.021-.149.024-.148.026-.147.027-.147.029-.146.031-.145.032-.145.035-.143.036-.144.038-.142.039-.142.041-.141.043-.141.045-.139.046-.139.048-.138.05-.137.051-.137.053-.135.054-.135.056-.134.058-.134.059-.132.061-.131.062-.131.064-.13.066-.129.067-.127.068-.128.07-.126.072-.125.073-.124.074-.123.076-.122.077-.122.079-.12.08-.119.082-.118.083-.118.084-.116.086-.115.087-.114.089-.113.089-.111.091-.111.093-.109.094-.109.095-.107.096-.106.098-.105.098-.104.1-.102.102-.102.102-.1.104-.098.105-.098.106-.096.107-.095.109-.094.109-.093.111-.091.112-.089.112-.089.114-.087.115-.086.116-.084.118-.083.118-.082.119-.08.12-.079.122-.077.122-.076.123-.074.124-.073.125-.072.126-.07.127-.068.128-.067.129-.066.13-.064.131-.062.131-.061.132-.059.134-.058.134-.056.135-.054.135-.053.137-.051.137-.05.138-.048.139-.046.139-.045.141-.043.141-.041.142-.039.142-.038.144-.036.143-.035.145-.032.145-.031.146-.029.147-.027.147-.026.148-.024.149-.021.149-.02.15-.019.151-.016.151-.014.151-.013.153-.011.152-.008.154-.007.154-.005.154-.003.155-.001.162v2.988l.001.123.002.116.004.116.005.116.006.115.008.115.01.114.011.114.012.113.013.113.015.112.017.112.018.112.019.11.02.111.022.11.023.109.024.109.026.109.027.108.029.107.029.107.031.106.032.106.034.105.034.105.036.104.038.104.038.102.04.103.04.101.042.102.044.1.044.1.046.099.046.099.048.098.05.097.05.097.051.096.053.095.053.094.055.094.056.093.057.093.058.091.059.091.06.091.061.089.062.089.064.088.064.087.065.086.067.085.067.085.068.084.07.083.07.082.071.081.073.081.073.08.074.078.075.078.076.077.077.076.078.075.078.074.08.073.08.073.082.071.082.07.083.07.084.068.085.067.085.067.086.065.087.064.088.064.089.062.089.061.091.06.091.059.091.058.093.057.093.056.094.055.094.053.095.053.096.051.097.05.097.05.098.048.099.046.099.046.1.044.1.044.102.042.101.04.103.04.103.038.103.038.104.036.105.034.105.034.106.032.106.031.107.029.107.029.108.027.109.026.109.024.109.023.11.022.11.02.111.019.112.018.112.017.112.015.113.013.113.012.114.011.114.01.115.008.115.006.116.005.116.004.116.002.123.001h5.988l.123-.001.116-.002.116-.004.116-.005.115-.006.115-.008.114-.01.114-.011.113-.012.113-.013.112-.015.112-.017.112-.018.111-.019.11-.02.11-.022.109-.023.109-.024.109-.026.108-.027.107-.029.107-.029.106-.031.106-.032.105-.034.105-.034.104-.036.103-.038.103-.038.103-.04.101-.04.102-.042.1-.044.1-.044.099-.046.099-.046.098-.048.097-.05.097-.05.096-.051.095-.053.094-.053.094-.055.093-.056.093-.057.091-.058.091-.059.091-.06.089-.061.089-.062.088-.064.087-.064.086-.065.085-.067.085-.067.084-.068.083-.07.082-.07.081-.071.081-.073.08-.073.078-.074.078-.075.077-.076.076-.077.075-.078.074-.078.073-.08.073-.081.071-.081.07-.082.07-.083.068-.084.067-.085.067-.085.065-.086.064-.087.064-.088.062-.089.061-.089.06-.091.059-.091.058-.091.057-.093.056-.093.055-.094.053-.094.053-.095.051-.096.05-.097.05-.097.048-.098.046-.099.046-.099.044-.1.044-.1.042-.102.04-.101.04-.103.038-.102.038-.104.036-.104.034-.105.034-.105.032-.106.031-.106.029-.107.029-.107.027-.108.026-.109.024-.109.023-.109.022-.11.02-.111.019-.111.018-.111.017-.112.015-.112.013-.113.012-.113.011-.114.01-.114.008-.115.006-.115.005-.116.004-.116.002-.116.001-.123v-2.988l-.001-.155-.003-.149-.004-.149-.007-.148-.008-.148-.01-.148-.012-.148-.014-.147-.015-.147-.018-.147-.019-.146-.021-.146-.022-.146-.025-.145-.026-.145-.028-.144-.029-.144-.032-.143-.033-.143-.035-.143-.037-.142-.038-.142-.04-.141-.042-.14-.043-.14-.045-.139-.047-.139-.049-.138-.05-.138-.052-.136-.053-.137-.055-.135-.057-.135-.059-.134-.06-.134-.062-.132-.063-.132-.065-.132-.067-.13-.068-.13-.07-.129-.071-.128-.073-.127-.074-.126-.076-.126-.078-.124-.079-.124-.081-.123-.083-.121-.083-.121-.086-.12-.087-.119-.088-.118-.09-.117-.092-.116-.093-.115-.094-.114-.096-.113-.097-.111-.099-.111-.101-.11-.102-.108-.103-.107-.105-.106-.106-.105-.107-.103-.108-.102-.11-.101-.111-.099-.111-.097-.113-.096-.114-.094-.115-.093-.116-.092-.117-.09-.118-.088-.119-.087-.12-.086-.121-.083-.121-.083-.123-.081-.124-.079-.124-.078-.126-.076-.126-.074-.127-.073-.128-.071-.129-.07-.13-.068-.13-.067-.132-.065-.132-.063-.132-.062-.134-.06-.134-.059-.135-.057-.135-.055-.137-.053-.136-.052-.138-.05-.138-.049-.139-.047-.139-.045-.14-.043-.141-.042-.14-.04-.142-.038-.142-.037-.143-.035-.143-.033-.143-.032-.144-.029-.144-.028-.145-.026-.145-.025-.146-.022-.146-.021-.146-.019-.147-.018-.147-.015-.147-.014-.148-.012-.148-.01-.148-.008-.148-.007-.149-.004-.149-.003-.149-.001-.156.001z"/><path d="m30 16c0-3.713-1.475-7.274-4.101-9.899-2.625-2.626-6.186-4.101-9.899-4.101-7.732 0-14 6.268-14 14v3c0 6.075 4.925 11 11 11h6c6.075 0 11-4.925 11-11 0-.986 0-1.993 0-3z" fill="#fbc546"/><path d="m11 23s.136-.204.336-.505c1.04-1.559 2.789-2.495 4.663-2.495h.002c1.874 0 3.623.936 4.663 2.495.2.301.336.505.336.505" fill="none" stroke="#593604" stroke-width="2"/><path d="m11 11.5c0-.828-.672-1.5-1.5-1.5s-1.5.672-1.5 1.5v3c0 .828.672 1.5 1.5 1.5s1.5-.672 1.5-1.5c0-.916 0-2.084 0-3z"/><path d="m24 11.498c0-.397-.158-.778-.439-1.059s-.662-.439-1.059-.439c-.001 0-.003 0-.004 0-.397 0-.778.158-1.059.439s-.439.662-.439 1.059v3.004c0 .397.158.778.439 1.059s.662.439 1.059.439h.004c.397 0 .778-.158 1.059-.439s.439-.662.439-1.059c0-.917 0-2.087 0-3.004z"/></g></svg>