<svg clip-rule="evenodd" fill-rule="evenodd" stroke-linejoin="round" stroke-miterlimit="1.41421" viewBox="0 0 32 32" xmlns="http://www.w3.org/2000/svg" xmlns:xlink="http://www.w3.org/1999/xlink"><clipPath id="a"><path clip-rule="evenodd" d="m0 0h32v32h-32z"/></clipPath><clipPath id="b"><path clip-rule="evenodd" d="m8 22-.5.5 5 5s1.137-1.137 2.207-2.207c.188-.188.293-.442.293-.707 0-2.478 0-15.383 0-19.968 0-.347-.179-.668-.474-.851-.295-.182-.663-.198-.973-.043-.009.004-.017.008-.025.012-3.388 1.694-5.528 5.157-5.528 8.944z"/></clipPath><clipPath id="c"><path clip-rule="evenodd" d="m24 22 .5.5-5 5s-1.137-1.137-2.207-2.207c-.188-.188-.293-.442-.293-.707 0-2.478 0-15.383 0-19.968 0-.347.179-.668.474-.851.295-.182.663-.198.973-.043.009.004.017.008.025.012 3.388 1.694 5.528 5.157 5.528 8.944z"/></clipPath><path d="m0 0h32v32h-32z" fill="none"/><g clip-path="url(#a)"><path d="m18.053 1.618.095.003.095.007.093.009.094.012.095.015.093.018.092.021.093.024.092.027.091.03.09.033.089.036.089.039.073.035.043.022.092.046.094.049.094.05.093.05.093.051.092.052.092.052.091.054.09.054.09.054.089.056.089.056.088.057.088.058.087.058.087.059.086.06.084.061.085.061.084.062.084.062.083.064.082.063.081.065.082.065.083.069.155.131.157.136.153.139.151.141.149.144.146.146.143.148.14.151.138.153.135.155.132.157.13.16.126.162.124.163.121.166.118.167.115.17.113.172.109.173.106.176.103.177.101.179.097.181.094.182.091.184.088.185.085.187.082.189.078.19.075.192.072.193.069.194.065.196.062.197.059.199.056.199.052.201.047.197.024.106.022.102.021.101.021.103.019.101.019.103.018.103.017.103.016.104.015.102.014.105.013.104.013.104.011.105.011.104.009.104.009.105.008.106.007.104.006.106.005.106.005.105.003.106.002.107.002.106v.102 8.496l6 6v4.828h-10.828l-5.311-5.31-.085-.09-.097-.112-.091-.117-.085-.121-.078-.124-.072-.127-.066-.131-.059-.134-.053-.136-.046-.14-.039-.141-.032-.143-.026-.145-.018-.147-.011-.148-.003-.123v-20.008l.001-.081.005-.099.008-.097.011-.094.014-.095.016-.092.02-.094.023-.094.025-.091.029-.091.031-.089.034-.089.037-.088.039-.084.041-.084.046-.084.047-.083.049-.077.052-.08.056-.078.057-.075.059-.073.062-.072.065-.07.067-.068.069-.066.071-.064.075-.062.075-.059.077-.057.08-.055.082-.052.083-.05.085-.047.086-.044.086-.04.089-.039.089-.035.089-.032.092-.03.091-.026.091-.023.093-.021.093-.018.093-.014.094-.012.094-.008.094-.006.095-.003h.093zm.947 4.817v17.737l3.828 3.828h4.344l-5.172-5.172v-10.143-.076l-.001-.071-.002-.07-.002-.071-.003-.071-.003-.07-.004-.07-.005-.071-.005-.07-.006-.07-.007-.07-.007-.07-.007-.069-.009-.07-.008-.069-.01-.068-.01-.07-.011-.069-.011-.068-.012-.069-.012-.068-.013-.069-.014-.067-.014-.069-.015-.067-.014-.063-.033-.139-.035-.133-.037-.133-.039-.133-.041-.131-.044-.13-.046-.13-.048-.129-.05-.127-.052-.127-.054-.125-.057-.125-.059-.124-.061-.123-.062-.122-.065-.12-.067-.119-.069-.118-.071-.117-.073-.116-.075-.115-.076-.113-.079-.112-.081-.111-.082-.109-.085-.107-.086-.107-.088-.104-.09-.104-.092-.102-.094-.101-.095-.098-.097-.098-.099-.095-.101-.094-.103-.093-.103-.091-.11-.092-.05-.041-.046-.037z"/><path d="m14.135 1.621.094.006.094.008.094.012.093.014.093.018.092.021.092.023.092.026.091.03.089.032.09.035.087.038.087.041.086.044.084.047.084.05.083.053.079.054.077.057.077.06.073.061.071.064.069.066.067.068.065.07.06.071.061.074.058.076.054.077.052.078.05.079.048.085.045.082.04.082.04.086.038.09.033.087.031.089.029.091.025.091.023.092.02.094.017.094.014.097.01.095.008.094.005.099.001.081v20.008l-.003.123-.011.148-.018.147-.026.145-.032.143-.039.141-.046.14-.053.136-.059.134-.066.131-.072.127-.078.124-.085.121-.091.117-.096.111-.086.09-5.311 5.311h-10.828v-4.828l6-6v-8.495-.103l.002-.106.002-.106.003-.107.005-.106.005-.105.006-.105.007-.105.008-.106.008-.105.01-.104.011-.105.011-.104.013-.104.013-.104.014-.104.015-.104.016-.103.017-.103.018-.103.019-.102.019-.102.021-.103.021-.102.022-.101.024-.106.047-.197.052-.201.056-.199.059-.199.062-.197.065-.195.069-.195.072-.193.075-.192.078-.19.082-.188.085-.187.088-.186.091-.184.094-.182.097-.181.1-.179.104-.177.106-.176.109-.173.113-.172.115-.169.118-.168.121-.166.124-.163.126-.162.13-.16.132-.157.135-.155.138-.153.14-.151.143-.148.146-.146.149-.144.151-.141.154-.139.156-.136.155-.131.084-.069.081-.065.081-.065.082-.063.083-.063.084-.064.084-.061.084-.061.086-.061.086-.06.086-.059.087-.058.087-.058.089-.057.089-.056.089-.055.09-.055.09-.054.091-.054.092-.052.092-.052.093-.051.093-.051.094-.049.094-.049.091-.046.044-.022.073-.035.088-.038.09-.037.09-.033.091-.03.092-.027.093-.024.093-.021.093-.018.093-.015.095-.012.094-.009.094-.007.095-.003h.093l.095.003zm-1.181 4.851-.051.042-.108.091-.105.091-.102.092-.101.095-.099.095-.097.097-.095.1-.094.1-.092.102-.09.104-.088.104-.086.107-.085.107-.082.109-.081.111-.079.112-.076.113-.075.115-.073.116-.071.116-.069.119-.067.119-.065.12-.063.122-.06.123-.059.123-.056.125-.055.126-.052.127-.05.128-.048.128-.046.13-.044.13-.041.131-.039.133-.037.133-.035.133-.033.139-.014.063-.015.068-.014.068-.014.067-.013.068-.012.069-.012.069-.011.068-.011.07-.01.068-.01.069-.008.069-.009.07-.007.07-.007.069-.007.07-.006.07-.005.07-.005.07-.004.071-.003.071-.003.07-.002.07-.002.071-.001.071v.075 10.144l-5.172 5.172h4.344l3.828-3.828v-17.737z"/><path d="m7.5 22.5h2l3 3v2l-2.5 2.5h-8v-2z" fill="#ce8d15"/><path d="m24.5 22.5h-2l-3 3v2l2.5 2.5h8v-2z" fill="#ce8d15"/><path d="m8 22-.5.5 5 5s1.137-1.137 2.207-2.207c.188-.188.293-.442.293-.707 0-2.478 0-15.383 0-19.968 0-.347-.179-.668-.474-.851-.295-.182-.663-.198-.973-.043-.009.004-.017.008-.025.012-3.388 1.694-5.528 5.157-5.528 8.944z" fill="#ffc20b"/><g clip-path="url(#b)"><path d="m14.153 9.003.151.012.15.019.148.026.146.034.144.041.14.047.137.054.133.06.129.067.126.072.122.078.117.083.114.09.108.093.104.099.099.105.094.108.088.112.084.118.078.122.073.126.065.129.061.133.054.138.047.139.041.144.034.146.026.147.019.15.012.152.003.128v12.025h-7v-11.012l.001-.088.004-.099.006-.098.008-.097.011-.099.014-.098.016-.098.018-.096.02-.095.023-.095.025-.094.027-.094.029-.093.032-.092.034-.092.036-.091.039-.09.041-.089.042-.086.045-.088.047-.085.049-.084.052-.084.053-.082.055-.081.058-.08.059-.078.062-.077.063-.076.066-.074.067-.073.069-.07.071-.07.073-.067.075-.066.075-.063.077-.062.078-.059.08-.058.081-.055.081-.053.084-.052.085-.049.085-.047.087-.045.088-.043.089-.04.089-.039.091-.036.091-.034.093-.032.093-.029.094-.028.094-.025.095-.022.096-.021.097-.018.096-.015.098-.014.098-.011.098-.008.099-.006.099-.004.112-.001zm-.153 1.997-.05.001-.049.001-.05.004-.049.004-.049.005-.048.007-.049.008-.048.009-.048.01-.047.011-.048.013-.047.013-.046.015-.046.016-.046.017-.045.018-.045.019-.045.021-.043.021-.044.023-.043.023-.042.025-.042.025-.041.027-.04.028-.04.028-.039.03-.039.031-.037.032-.037.032-.037.034-.035.035-.035.035-.034.037-.032.037-.032.037-.031.039-.03.039-.028.04-.028.04-.027.041-.025.042-.025.042-.023.043-.023.044-.021.043-.021.045-.019.045-.018.045-.017.046-.016.046-.015.046-.013.047-.013.048-.011.047-.01.048-.009.048-.008.049-.007.048-.005.049-.004.049-.004.05-.001.049-.001.05v9h3v-10l-.001-.051-.004-.051-.007-.05-.008-.05-.011-.048-.014-.047-.016-.047-.018-.045-.02-.045-.022-.043-.024-.042-.026-.04-.028-.039-.029-.038-.032-.036-.033-.035-.035-.033-.036-.032-.038-.029-.039-.028-.04-.026-.042-.024-.043-.022-.045-.02-.045-.018-.047-.016-.047-.014-.048-.011-.05-.008-.05-.007-.051-.004z" fill="#765018"/><path d="m9 23v-2h7v5l-6-2z" fill="#ffc20b"/></g><path d="m24 22 .5.5-5 5s-1.137-1.137-2.207-2.207c-.188-.188-.293-.442-.293-.707 0-2.478 0-15.383 0-19.968 0-.347.179-.668.474-.851.295-.182.663-.198.973-.043.009.004.017.008.025.012 3.388 1.694 5.528 5.157 5.528 8.944z" fill="#ffc20b"/><g clip-path="url(#c)"><path d="m18.099 9.001.099.004.099.006.098.008.098.011.098.014.097.015.096.018.096.021.095.023.094.024.094.028.094.029.092.032.091.034.091.036.09.039.088.04.088.043.086.045.086.047.085.05.083.05.082.054.081.055.08.058.078.059.077.062.076.064.074.065.072.067.071.069.07.072.068.072.065.074.063.076.061.077.06.078.058.08.056.082.053.082.05.082.05.085.047.085.045.087.043.088.04.088.039.09.036.091.034.091.032.093.029.093.028.094.024.094.023.095.021.097.018.096.015.096.014.097.011.098.008.1.006.098.004.098.001.088v11.012h-7v-12.025l.003-.128.012-.15.019-.151.026-.149.034-.146.04-.142.048-.14.054-.138.06-.132.067-.131.072-.126.078-.12.083-.118.089-.113.094-.109.099-.104.104-.099.108-.093.114-.09.118-.083.121-.078.125-.072.13-.067.134-.06.137-.054.139-.047.144-.041.146-.034.148-.026.15-.019.151-.012.14-.003zm-.15 2-.051.004-.05.007-.05.008-.048.011-.047.014-.047.016-.045.018-.045.02-.043.022-.042.024-.04.026-.039.028-.038.029-.036.032-.035.033-.033.035-.032.036-.029.038-.028.039-.026.04-.024.042-.022.043-.02.045-.018.045-.016.047-.014.047-.011.048-.008.05-.007.05-.004.051-.001.051v10h3v-9l-.001-.05-.001-.049-.004-.05-.004-.049-.005-.049-.007-.048-.008-.049-.009-.048-.01-.048-.011-.047-.013-.048-.013-.047-.015-.046-.016-.046-.017-.046-.018-.045-.019-.045-.021-.045-.021-.043-.023-.044-.023-.043-.025-.042-.025-.042-.027-.041-.028-.04-.028-.04-.03-.039-.031-.039-.032-.037-.032-.037-.034-.037-.035-.035-.035-.035-.037-.034-.037-.032-.037-.032-.039-.031-.039-.03-.04-.028-.04-.028-.041-.027-.042-.025-.042-.025-.043-.023-.044-.023-.043-.021-.045-.021-.045-.019-.045-.018-.046-.017-.046-.016-.046-.015-.047-.013-.048-.013-.047-.011-.048-.01-.048-.009-.049-.008-.048-.007-.049-.005-.049-.004-.05-.004-.049-.001-.05-.001s-.051.001-.051.001z" fill="#765018"/><path d="m22 24 1-1v-2h-7v5z" fill="#ffc20b"/></g></g></svg>