<svg clip-rule="evenodd" fill-rule="evenodd" stroke-linecap="round" stroke-linejoin="round" stroke-miterlimit="1.5" viewBox="0 0 32 32" xmlns="http://www.w3.org/2000/svg" xmlns:xlink="http://www.w3.org/1999/xlink"><clipPath id="a"><path clip-rule="evenodd" d="m0 0h32v32h-32z"/></clipPath><path d="m0 0h32v32h-32z" fill="none"/><g clip-path="url(#a)"><path d="m20.045 6.142 3.193-2.424c1.467-1.115 3.26-1.718 5.102-1.718h.001c.364 0 .659.295.659.659v1.68c0 1.765-.246 3.522-.731 5.22l-.987 3.455c1.364 4.746-.328 9.953-4.432 12.963-.723.53-1.439 1.055-2.119 1.554-2.816 2.065-6.646 2.065-9.462 0-.68-.499-1.396-1.024-2.119-1.554-4.104-3.01-5.796-8.217-4.432-12.963l-.987-3.455c-.485-1.698-.731-3.455-.731-5.22 0-.626 0-1.239 0-1.68 0-.364.295-.659.659-.659h.001c1.842 0 3.635.603 5.102 1.718l3.193 2.424c.519-.094 1.05-.142 1.589-.142h4.912c.539 0 1.07.048 1.589.142z" fill="none" stroke="#000" stroke-width="4"/><path d="m28.955 2.418c-.097-.245-.335-.418-.614-.418 0 0 0 0-.001 0-1.842 0-3.635.603-5.102 1.718-2.666 2.024-6.738 5.115-6.738 5.115l4.5 2.215z" fill="#353535"/><path d="m28.955 2.418-1.668.667c-1.509.604-2.88 1.508-4.029 2.657-1.078 1.078-2.258 2.258-2.258 2.258v3.048l6 2.952s.698-2.442 1.269-4.441c.485-1.698.731-3.455.731-5.22 0-.626 0-1.239 0-1.68 0-.085-.016-.166-.045-.241z" fill="#4b4b4b"/><path d="m3.045 2.418c.097-.245.335-.418.614-.418h.001c1.842 0 3.635.603 5.102 1.718 2.666 2.024 6.738 5.115 6.738 5.115l-4.5 2.215z" fill="#353535"/><path d="m3.045 2.418 1.668.667c1.509.604 2.88 1.508 4.029 2.657 1.078 1.078 2.258 2.258 2.258 2.258v3.048l-6 2.952s-.698-2.442-1.269-4.441c-.485-1.698-.731-3.455-.731-5.22 0-.626 0-1.239 0-1.68 0-.085.016-.166.045-.241z" fill="#4b4b4b"/><path d="m13.544 6c-3.398 0-6.504 1.92-8.023 4.958-.001.001-.001.002-.001.003-2.611 5.221-1.078 11.563 3.63 15.016.723.53 1.439 1.055 2.119 1.554 2.816 2.065 6.646 2.065 9.462 0 .68-.499 1.396-1.024 2.119-1.554 4.708-3.453 6.241-9.795 3.63-15.016 0-.001 0-.002-.001-.003-1.519-3.038-4.625-4.958-8.023-4.958-1.589 0-3.323 0-4.912 0z" fill="#353535"/><path d="m14.176 25.819c-.115-.255-.176-.534-.176-.819 0-.794 0-1.706 0-2.5 0-1.105.895-2 2-2 .53 0 1.039.211 1.414.586s.586.884.586 1.414v2.5c0 .292-.063.57-.175.82-.451-.508-3.199-.508-3.649-.001z" fill="#808080"/><path d="m14.176 25.819c.45-.507 1.106-.819 1.823-.819h.002c.718 0 1.373.312 1.824.82-.313.696-1.013 1.18-1.825 1.18-.53 0-1.039-.211-1.414-.586-.174-.173-.312-.375-.41-.595z" fill="#bbb"/><path d="m9 17c-.265 0-.52-.105-.707-.293-.188-.187-.293-.442-.293-.707 0-.292 0-.632 0-1 0-2.761 2.239-5 5-5 .265 0 .52.105.707.293.188.187.293.442.293.707v1c0 2.761-2.239 5-5 5z" fill="#fbe844"/><path d="m18 11c0-.265.105-.52.293-.707.187-.188.442-.293.707-.293 2.761 0 5 2.239 5 5v1c0 .265-.105.52-.293.707-.187.188-.442.293-.707.293-2.761 0-5-2.239-5-5 0-.368 0-.708 0-1z" fill="#fbe844"/><path d="m13 16.829c0-.22.087-.431.243-.586.155-.156.366-.243.586-.243h4.342c.22 0 .431.087.586.243.156.155.243.366.243.586 0 .107-.053.207-.142.266-.595.397-2.858 1.905-2.858 1.905s-2.263-1.508-2.858-1.905c-.089-.059-.142-.159-.142-.266z" fill="#666"/><g fill="#353535"><path d="m27 23.5c0-1.381-1.119-2.5-2.5-2.5-.663 0-1.299.263-1.768.732s-.732 1.105-.732 1.768v6.5h6s-.615-2.461-.881-3.522c-.079-.318-.119-.643-.119-.97 0-.479 0-1.243 0-2.008z" stroke="#000" stroke-linejoin="miter" stroke-miterlimit="2" stroke-width="4"/><path d="m5 23.5c0-1.381 1.119-2.5 2.5-2.5.663 0 1.299.263 1.768.732s.732 1.105.732 1.768v6.5h-6s.615-2.461.881-3.522c.079-.318.119-.643.119-.97 0-.479 0-1.243 0-2.008z" stroke="#000" stroke-linejoin="miter" stroke-miterlimit="2" stroke-width="4"/><path d="m27 23.5c0-1.381-1.119-2.5-2.5-2.5-.663 0-1.299.263-1.768.732s-.732 1.105-.732 1.768v6.5h6s-.615-2.461-.881-3.522c-.079-.318-.119-.643-.119-.97 0-.479 0-1.243 0-2.008z"/><path d="m5 23.5c0-1.381 1.119-2.5 2.5-2.5.663 0 1.299.263 1.768.732s.732 1.105.732 1.768v6.5h-6s.615-2.461.881-3.522c.079-.318.119-.643.119-.97 0-.479 0-1.243 0-2.008z"/></g></g></svg>