<?xml version="1.0" encoding="UTF-8" standalone="no"?><!DOCTYPE svg PUBLIC "-//W3C//DTD SVG 1.1//EN" "http://www.w3.org/Graphics/SVG/1.1/DTD/svg11.dtd"><svg width="100%" height="100%" viewBox="0 0 32 32" version="1.1" xmlns="http://www.w3.org/2000/svg" xmlns:xlink="http://www.w3.org/1999/xlink" xml:space="preserve" style="fill-rule:evenodd;clip-rule:evenodd;stroke-linejoin:round;stroke-miterlimit:1.41421;">
<metadata>
<rdf:RDF xmlns:cc="http://web.resource.org/cc/"
         xmlns:rdf="http://www.w3.org/1999/02/22-rdf-syntax-ns#"
         xmlns:dc = "http://purl.org/dc/elements/1.1/"
         >

     <rdf:Description rdf:about="">
       <dc:title>Mutant Standard emoji v0.2.5</dc:title>
     </rdf:Description>

    <cc:work rdf:about="">
        <cc:license rdf:resource="http://creativecommons.org/licenses/by-nc-sa/4.0/"/>
        <cc:attributionName>Dzuk</cc:attributionName>
        <cc:attributionURL>http://mutant.tech/</cc:attributionURL>
    </cc:work>

</rdf:RDF>
</metadata>
<rect id="wc" x="0" y="0" width="32" height="32" style="fill:none;"/><clipPath id="_clip1"><rect x="0" y="0" width="32" height="32"/></clipPath><g clip-path="url(#_clip1)"><g id="outline"><path d="M32,8c0,-4.418 -3.582,-8 -8,-8c-4.887,0 -11.113,0 -16,0c-4.418,0 -8,3.582 -8,8c0,4.887 0,11.113 0,16c0,4.418 3.582,8 8,8c4.887,0 11.113,0 16,0c4.418,0 8,-3.582 8,-8c0,-4.887 0,-11.113 0,-16Z"/></g><g id="emoji"><path d="M30,8c0,-1.591 -0.632,-3.117 -1.757,-4.243c-1.126,-1.125 -2.652,-1.757 -4.243,-1.757c-4.724,0 -11.276,0 -16,0c-1.591,0 -3.117,0.632 -4.243,1.757c-1.125,1.126 -1.757,2.652 -1.757,4.243c0,4.724 0,11.276 0,16c0,1.591 0.632,3.117 1.757,4.243c1.126,1.125 2.652,1.757 4.243,1.757c4.724,0 11.276,0 16,0c1.591,0 3.117,-0.632 4.243,-1.757c1.125,-1.126 1.757,-2.652 1.757,-4.243c0,-4.724 0,-11.276 0,-16Z" style="fill:#5462cb;"/><g><path d="M6.537,11.161l2.129,7.341l2.07,-6.701l1.191,0l2.189,6.73l2.264,-7.37l1.98,0l-3.32,9.664l-1.847,0l-1.817,-5.45l-1.801,5.45l-1.847,0l-3.157,-9.664l1.966,0Z" style="fill:#fff;fill-rule:nonzero;"/><path d="M23.512,10.967c0.596,0 1.112,0.072 1.549,0.216c0.437,0.144 0.814,0.345 1.132,0.603c0.625,0.506 1.032,1.216 1.221,2.129l-1.877,0.343c-0.158,-0.506 -0.404,-0.916 -0.737,-1.229c-0.332,-0.312 -0.747,-0.469 -1.243,-0.469c-0.675,0 -1.221,0.283 -1.638,0.849c-0.447,0.616 -0.67,1.467 -0.67,2.554c0,1.087 0.198,1.936 0.596,2.546c0.397,0.611 0.938,0.916 1.623,0.916c0.685,0 1.201,-0.166 1.548,-0.499c0.348,-0.333 0.521,-0.762 0.521,-1.288l1.892,0c0,1.082 -0.345,1.918 -1.035,2.509c-0.69,0.591 -1.636,0.886 -2.837,0.886c-1.281,0 -2.298,-0.447 -3.053,-1.34c-0.764,-0.913 -1.146,-2.154 -1.146,-3.723c0,-1.588 0.392,-2.829 1.176,-3.722c0.755,-0.854 1.747,-1.281 2.978,-1.281Z" style="fill:#fff;fill-rule:nonzero;"/></g></g></g></svg>