<svg clip-rule="evenodd" fill-rule="evenodd" stroke-linejoin="round" stroke-miterlimit="1.41421" viewBox="0 0 32 32" xmlns="http://www.w3.org/2000/svg" xmlns:xlink="http://www.w3.org/1999/xlink"><clipPath id="a"><path clip-rule="evenodd" d="m0 0h32v32h-32z"/></clipPath><clipPath id="b"><path clip-rule="evenodd" d="m4 15s3.263 6.526 5.484 10.969c1.236 2.47 3.761 4.031 6.523 4.031h.968c4.984 0 9.025-4.041 9.025-9.025 0-2.709 0-4.975 0-4.975h-5v-1h-3v-1h-7v5s-.449-.899-1-2c-1.105-2.209-3.791-3.105-6-2z"/></clipPath><path d="m0 0h32v32h-32z" fill="none"/><g clip-path="url(#a)"><path d="m24 0v5.172l3.061-3.062c.313.13.626.259.939.389v12.001c0 2.158.013 4.315 0 6.473v.027l-.001.117c-.003.142-.007.283-.013.424-.021.372-.057.742-.113 1.111-.124.809-.338 1.604-.638 2.366-.602 1.526-1.549 2.91-2.749 4.028-1.073.999-2.344 1.78-3.72 2.284-.946.347-1.94.562-2.945.638-.262.02-.525.029-.787.032h-1.032-.004c-.16-.001-.159-.001-.32-.006-.271-.012-.542-.031-.813-.064-.533-.066-1.06-.178-1.574-.335-1.731-.53-3.29-1.569-4.444-2.964-.449-.542-.827-1.134-1.148-1.76l-6.359-12.719 1.753-.935.162-.078c.15-.069.301-.135.455-.193.353-.134.718-.237 1.089-.307.977-.185 1.994-.139 2.951.13.425.119.834.283 1.227.484-.005-2.175-.003-4.349.024-6.524.004-.099.004-.098.01-.198.023-.261.064-.519.135-.772.13-.471.348-.917.639-1.31.115-.156.242-.302.378-.44l4.009-4.009h1.828v1.172l1.172-1.172h2.828v2.172l2.172-2.172h1.828z"/><g fill="#6c7829"><path d="m15 5.828c0-.53.211-1.039.586-1.414.873-.873 2.414-2.414 2.414-2.414v18h-3s0-11.026 0-14.172z"/><path d="m11 6.828c0-.53.211-1.039.586-1.414.873-.873 2.414-2.414 2.414-2.414v16h-3s0-9.308 0-12.172z"/><path d="m19 6.828c0-.53.211-1.039.586-1.414.873-.873 2.414-2.414 2.414-2.414v16h-3s0-9.308 0-12.172z"/><path d="m23 9.828c0-.53.211-1.039.586-1.414.873-.873 2.414-2.414 2.414-2.414v13h-3s0-6.774 0-9.172z"/><path d="m4 15s3.263 6.526 5.484 10.969c1.236 2.47 3.761 4.031 6.523 4.031h.968c4.984 0 9.025-4.041 9.025-9.025 0-2.709 0-4.975 0-4.975h-5v-1h-3v-1h-7v5s-.449-.899-1-2c-1.105-2.209-3.791-3.105-6-2z"/></g><g clip-path="url(#b)"><path d="m11 19-2-6v7c0 .552.448 1 1 1s1-.448 1-1c0-.5 0-1 0-1z" fill="#465718"/></g></g></svg>