<svg clip-rule="evenodd" fill-rule="evenodd" stroke-linecap="round" stroke-linejoin="round" stroke-miterlimit="1.5" viewBox="0 0 32 32" xmlns="http://www.w3.org/2000/svg"><path d="m0 0h32v32h-32z" fill="none"/><path d="m24.002 15c1.103 0 1.998.895 1.998 1.998v.004c0 1.103-.895 1.998-1.998 1.998-3.171 0-9.002 0-9.002 0v-4z" fill="#b0b0b0"/><path d="m24.104 13.001.102.004.101.006.101.009.101.012.099.014.099.016.099.019.097.021.097.024.096.026.094.028.094.03.093.033.092.035.09.037.089.039.089.041.086.043.086.046.085.047.082.049.083.051.08.053.079.055.077.056.076.058.075.061.073.061.071.064.071.065.068.067.067.068.065.07.063.072.062.073.061.075.058.076.056.077.055.079.053.08.051.083.049.083.047.084.046.085.043.088.041.088.039.089.037.091.035.091.033.094.03.093.028.094.026.097.024.096.021.097.019.099.016.099.014.099.012.101.009.101.006.101.004.102.001.089v.03l-.001.089-.004.102-.006.101-.009.101-.012.101-.014.099-.016.099-.019.099-.021.097-.024.096-.026.097-.028.094-.03.093-.033.094-.035.091-.037.091-.039.089-.041.088-.043.088-.046.085-.047.084-.049.084-.051.082-.053.08-.055.079-.056.077-.058.076-.061.075-.061.073-.064.072-.065.07-.067.068-.068.067-.071.065-.071.064-.073.061-.075.061-.076.058-.077.056-.079.055-.08.053-.082.051-.083.049-.085.047-.086.046-.087.043-.088.041-.089.039-.091.037-.091.035-.093.033-.094.03-.095.028-.095.026-.097.024-.097.021-.098.019-.1.016-.099.014-.101.012-.101.009-.101.006-.102.004-.089.001h-11.015v-8h11.015z"/><path d="m24 11c.53 0 1.039.211 1.414.586s.586.884.586 1.414-.211 1.039-.586 1.414-.884.586-1.414.586c-3.172 0-9 0-9 0v-4z" fill="#b0b0b0"/><path d="m24.099 9.001.099.004.099.006.098.008.098.011.098.014.097.015.096.018.096.021.095.023.094.024.094.028.093.029.093.032.091.034.091.036.089.039.089.04.088.043.087.045.086.047.084.049.083.051.082.054.081.055.08.058.078.059.077.062.076.063.074.066.073.067.071.07.069.07.067.073.066.074.063.076.062.077.059.078.058.08.055.081.053.082.052.083.049.085.047.085.045.087.043.088.04.088.039.09.036.091.034.091.032.093.029.093.028.094.024.094.023.095.021.096.018.096.015.097.014.098.011.098.008.098.006.098.004.099.001.1-.001.1-.004.099-.006.098-.008.098-.011.098-.014.098-.015.097-.018.096-.021.096-.023.095-.024.094-.028.094-.029.093-.032.093-.034.091-.036.091-.039.09-.04.088-.043.088-.045.087-.047.085-.049.085-.052.083-.053.082-.055.081-.058.08-.059.078-.062.077-.063.076-.066.074-.067.073-.069.07-.071.07-.073.067-.074.066-.076.063-.077.062-.078.059-.08.058-.081.055-.082.054-.083.051-.084.049-.086.047-.087.045-.088.043-.089.04-.089.039-.091.036-.091.034-.093.032-.093.029-.094.028-.094.024-.095.023-.096.021-.096.018-.097.015-.098.014-.098.011-.098.008-.099.006-.099.004-.087.001h-11.012v-8h11.012zm-7.099 3.999h6.988z"/><path d="m24 19c.53 0 1.039.211 1.414.586s.586.884.586 1.414-.211 1.039-.586 1.414-.884.586-1.414.586c-3.172 0-9 0-9 0v-4z" fill="#b0b0b0"/><path d="m24.099 17.001.099.004.099.006.098.008.098.011.098.014.097.015.096.018.096.021.095.023.095.025.093.027.093.029.093.032.091.034.091.036.09.039.088.04.088.043.087.045.085.047.084.049.084.051.082.054.081.055.08.058.078.059.077.062.076.063.074.066.073.067.071.069.069.071.067.073.066.074.063.076.062.077.059.078.058.08.055.081.053.082.052.083.049.085.047.085.045.087.043.088.04.088.039.09.036.091.034.091.032.093.029.093.028.094.024.094.023.095.021.096.018.096.015.097.014.098.011.098.008.098.006.098.004.099.001.1-.001.1-.004.099-.006.098-.008.098-.011.098-.014.098-.015.097-.018.096-.021.096-.023.095-.024.094-.028.094-.029.093-.032.093-.034.091-.036.091-.039.09-.04.088-.043.088-.045.087-.047.085-.049.085-.052.083-.053.083-.055.08-.057.079-.06.079-.062.077-.063.076-.066.074-.067.073-.069.071-.071.069-.073.067-.074.066-.076.063-.077.062-.078.059-.08.058-.081.055-.082.054-.084.051-.084.049-.085.047-.087.045-.088.043-.088.04-.09.039-.091.036-.091.034-.093.032-.093.029-.094.028-.094.024-.095.023-.096.021-.096.018-.097.015-.098.014-.098.011-.098.008-.099.006-.099.004-.087.001h-11.012v-8h11.012z"/><path d="m15 29h-9.013l-.089-.001-.102-.004-.102-.006-.1-.009-.101-.012-.1-.014-.099-.016-.098-.019-.097-.021-.097-.024-.096-.026-.095-.028-.094-.031-.092-.032-.092-.035-.091-.037-.089-.039-.088-.041-.088-.044-.085-.045-.084-.047-.083-.049-.083-.051-.08-.053-.079-.055-.077-.056-.077-.059-.074-.06-.074-.062-.071-.064-.07-.064-.069-.067-.066-.069-.065-.07-.064-.071-.062-.074-.06-.074-.059-.077-.056-.077-.054-.079-.054-.081-.051-.082-.049-.082-.047-.085-.045-.085-.044-.088-.041-.088-.039-.089-.037-.091-.035-.092-.033-.093-.03-.094-.028-.094-.026-.096-.024-.096-.021-.098-.019-.098-.016-.1-.014-.099-.012-.1-.009-.102-.006-.1-.004-.102-.001-.09v-10.026l.001-.09.004-.102.006-.1.009-.102.012-.1.014-.099.016-.1.019-.098.021-.098.024-.097.026-.095.028-.094.03-.094.033-.093.035-.092.037-.091.039-.089.041-.089.044-.086.045-.086.047-.085.049-.083.051-.081.054-.081.054-.079.056-.077.059-.077.06-.074.062-.073.064-.072.065-.07.066-.069.069-.067.07-.064.071-.064.074-.062.074-.06.076-.058.078-.057.079-.055.08-.053.082-.051.084-.049.084-.047.086-.045.087-.044.088-.041.089-.039.091-.037.092-.035.093-.033.093-.03.095-.028.096-.026.097-.024.097-.021.098-.019.099-.016.1-.014.101-.012.1-.009.102-.006.102-.004.089-.001h9.013v18zm-8.987-14h-.013v.013 9.974.013h.013 4.987v-10z"/><path d="m14.156 1.002.153.006.152.009.152.014.15.017.15.021.148.024.148.029.146.031.144.036.144.039.142.042.141.045.138.049.137.053.136.055.134.059.132.061.131.065.128.068.127.071.125.073.123.077.12.079.118.083.117.084.114.088.112.09.11.093.107.095.105.098.103.101.101.103.098.105.095.107.093.11.09.112.087.114.086.117.082.118.079.121.077.122.073.125.071.127.068.128.065.131.061.132.059.134.055.135.053.137.049.14.045.14.042.142.039.144.036.144.031.146.029.147.024.149.021.15.017.15.014.152.009.152.006.153.002.142v1.556l-.001.102-.006.116-.008.116-.012.115-.001.009h3.028v20h-17v-9.977-.106l.002-.111.003-.111.003-.111.005-.11.005-.111.007-.11.008-.111.008-.11.01-.11.011-.109.011-.11.013-.11.014-.109.014-.11.016-.109.017-.108.017-.109.019-.108.02-.109.02-.108.022-.108.023-.107.023-.108.025-.107.025-.107.027-.106.027-.107.029-.106.029-.106.031-.105.031-.106.032-.104.033-.105.035-.105.035-.104.036-.104.037-.103.038-.103.039-.103.04-.102.041-.102.042-.102.043-.102.043-.101.045-.1.045-.1.047-.1.047-.1.049-.099.049-.098.05-.098.051-.098.053-.097.053-.097.054-.097.054-.096.056-.095.057-.095.057-.095.059-.094.059-.094.06-.093.059-.089 3.987-5.981v-5.394h2.015l.141.002zm-2.81 13.584-.043.066-.04.062-.04.063-.039.062-.038.063-.038.064-.037.063-.037.064-.036.065-.035.064-.035.065-.034.065-.033.066-.033.066-.032.066-.032.066-.031.066-.03.067-.03.067-.029.068-.029.067-.028.068-.027.068-.027.069-.025.068-.026.069-.025.069-.024.069-.023.069-.023.07-.022.069-.022.071-.021.07-.02.07-.02.071-.018.07-.019.071-.017.072-.018.071-.016.071-.016.072-.015.071-.014.072-.014.072-.013.072-.012.073-.012.072-.011.073-.011.073-.009.072-.01.073-.008.073-.008.073-.007.074-.006.073-.006.074-.005.073-.005.074-.003.073-.004.074-.002.074-.002.074-.001.074v.078 5.968h9v-12h-.398l-.081-.001-.097-.005-.095-.008-.096-.011-.095-.013-.095-.017-.093-.02-.093-.023-.091-.025-.091-.029-.09-.031-.088-.034-.086-.036-.086-.04-.085-.042-.083-.044-.081-.048-.081-.05-.079-.052-.077-.055-.075-.057-.073-.059-.072-.063-.07-.064-.068-.067-.066-.069-.064-.071-.061-.074-.06-.075-.057-.079-.055-.079-.052-.082-.05-.083-.046-.084-.044-.086-.042-.088-.038-.088-.035-.088-.032-.091-.03-.09-.026-.091-.024-.093-.02-.092-.017-.093-.015-.094-.012-.093-.009-.094-.005-.095-.003-.093v-.095l.003-.094.007-.095.009-.094.012-.094.015-.092.018-.095.021-.092.024-.093.027-.092.03-.091.034-.091.036-.089.038-.088.036-.073.065-.132.007-.013v-.014-.908l-4.654 6.98z"/><path d="m18 23.5 8 4" fill="none" stroke="#000" stroke-width="8"/><path d="m16.5 13s-6.969 0-10.5 0c-.53 0-1.039.211-1.414.586s-.586.884-.586 1.414v10c0 .53.211 1.039.586 1.414s.884.586 1.414.586h10.5z" fill="#6e1322"/><g fill="#8c262d"><path d="m14 7s-2.672 4.008-4.45 6.675c-1.011 1.516-1.55 3.297-1.55 5.119v.911c0 1.934.769 3.79 2.137 5.158s3.224 2.137 5.158 2.137h5.705l-.017-4h2.017v-12s-2.605 0-4.382 0c-.347 0-.668-.179-.851-.474-.182-.295-.198-.663-.043-.973.022-.045.044-.089.065-.131.139-.277.211-.584.211-.894 0-.368 0-.918 0-1.53 0-2.208-1.79-3.998-3.998-3.998-.001 0-.002 0-.002 0z"/><path d="m24 19c.53 0 1.039.211 1.414.586s.586.884.586 1.414-.211 1.039-.586 1.414-.884.586-1.414.586c-1.488 0-3.512 0-5 0-.53 0-1.039-.211-1.414-.586s-.586-.884-.586-1.414.211-1.039.586-1.414.884-.586 1.414-.586z"/><path d="m24.002 15c1.103 0 1.998.895 1.998 1.998v.004c0 1.103-.895 1.998-1.998 1.998-1.489 0-3.515 0-5.004 0-1.103 0-1.998-.895-1.998-1.998 0-.001 0-.003 0-.004 0-1.103.895-1.998 1.998-1.998z"/><path d="m24 11c.53 0 1.039.211 1.414.586s.586.884.586 1.414-.211 1.039-.586 1.414-.884.586-1.414.586c-1.488 0-3.512 0-5 0-.53 0-1.039-.211-1.414-.586s-.586-.884-.586-1.414.211-1.039.586-1.414.884-.586 1.414-.586z"/></g><path d="m18 23.5 8 4" fill="none" stroke="#8c262d" stroke-width="4"/></svg>