<svg clip-rule="evenodd" fill-rule="evenodd" stroke-miterlimit="2" viewBox="0 0 32 32" xmlns="http://www.w3.org/2000/svg" xmlns:xlink="http://www.w3.org/1999/xlink"><clipPath id="a"><path clip-rule="evenodd" d="m4.233 19.233c-.154-.154-.333-.282-.528-.379-.556-.275-1.705-.843-1.705-.843v-9.5l5 2.489h10.886c.378 0 .724.213.894.551.917 1.825 3.864 7.685 4.997 9.94.12.237.14.512.056.764s-.264.461-.502.579c-1.811.906-5.943 2.972-8.397 4.199-1.155.577-2.55.351-3.463-.562-2.234-2.234-6.236-6.236-7.238-7.238z"/></clipPath><clipPath id="b"><path clip-rule="evenodd" d="m8 25 10-5 5 5-10 5z"/></clipPath><clipPath id="c"><path clip-rule="evenodd" d="m30 18v-10l-10 5h-6.537l-3.938 4h3.097c.562 0 1.101-.223 1.499-.621.204-.204.379-.379.379-.379h2.5s3.535 3.535 5.581 5.581c.376.376.886.586 1.417.585.532-.001 1.042-.213 1.416-.591.109-.109.21-.211.296-.297.186-.188.29-.441.29-.705 0-.27 0-.573 0-.573z"/></clipPath><path d="m0 0h32v32h-32z" fill="none"/><path d="m7.47 9h10.434l.088.002.105.005.105.009.104.013.103.016.102.02.101.024.1.027.098.029.098.034.097.037.093.039.093.043.093.047.09.049.087.052.086.055.084.058.082.061.08.064.078.066.077.07.074.072.07.075.069.076.066.08.065.083.061.086.057.085.055.089.053.093.041.078 5.016 9.977.053.112.057.139.05.138.042.141.036.144.028.144.022.145.014.145.007.147v.146l-.008.147-.014.146-.022.145-.029.147-.036.143-.043.142-.051.142-.057.137-.063.132-.07.13-.076.126-.082.122-.088.118-.094.113-.098.108-.104.104-.108.098-.114.093-.119.088-.123.082-.128.076-.109.058-8.429 4.214-.081.04-.09.042-.092.04-.092.039-.093.036-.093.034-.093.033-.094.03-.095.029-.094.026-.095.025-.096.023-.095.021-.096.019-.096.017-.096.016-.096.013-.096.011-.097.01-.096.008-.097.005-.096.004-.097.003h-.096l-.096-.002-.096-.003-.096-.006-.097-.007-.095-.009-.095-.011-.096-.012-.095-.015-.094-.016-.094-.018-.094-.02-.094-.022-.093-.023-.093-.026-.093-.027-.091-.029-.091-.03-.091-.033-.091-.034-.089-.036-.089-.038-.089-.04-.088-.041-.086-.043-.087-.045-.086-.046-.085-.049-.084-.05-.083-.052-.082-.053-.081-.055-.08-.057-.081-.059-.078-.061-.077-.061-.076-.064-.075-.066-.075-.067-.073-.068-.064-.064-7.127-7.127-.022-.021-.014-.013-.015-.014-.015-.013-.015-.013-.017-.013-.015-.012-.016-.011-.017-.012-.017-.012-.016-.01-.017-.011-.018-.01-.017-.01-.018-.01-.027-.013-2.661-1.331v-13.955l7.47 3.719zm-3.47 7.764.468.234.081.041.088.048.088.049.086.052.086.053.084.054.083.056.082.058.081.06.08.061.078.063.078.064.076.066.074.067.074.07.065.063 7.126 7.127.022.021.015.014.014.013.015.013.016.013.016.013.015.012.016.011.016.012.016.011.017.011.016.01.017.01.016.009.018.01.016.008.018.009.018.008.017.008.018.008.018.007.018.007.018.006.018.006.019.006.018.006.019.005.019.004.018.005.019.004.019.003.019.004.019.003.019.002.02.002.019.002.019.002.019.001h.02l.019.001h.019l.02-.001.019-.001.019-.001.019-.001.02-.002.019-.002.019-.003.019-.003.019-.004.019-.003.019-.005.019-.004.019-.005.019-.005.018-.006.019-.006.018-.006.019-.007.019-.008.018-.007.018-.008.019-.009.028-.013 7.491-3.746-4.27-8.494h-10.74l-2.53-1.259v5.023z"/><path d="m15.189 18.124-.077.065-.08.063-.081.062-.083.059-.082.057-.084.054-.087.054-.087.05-.088.049-.09.046-.09.044-.091.042-.092.039-.093.038-.095.035-.095.033-.095.03-.097.028-.098.026-.098.023-.098.021-.1.019-.1.016-.1.014-.101.011-.101.009-.102.006-.102.004-.102.001-.102-.001-.102-.004-.102-.006-.101-.009-.101-.011-.1-.014-.1-.016-.1-.019-.098-.021-.098-.023-.098-.026-.096-.028-.096-.03-.095-.033-.094-.035-.093-.038-.093-.039-.092-.042-.09-.044-.088-.046-.089-.049-.087-.05-.086-.053-.085-.055-.083-.057-.082-.059-.081-.062-.079-.063-.078-.065-.077-.068-.074-.069-.065-.063-1.915-1.915 4.947-5.009h6.901l12.472-6.236v14.472l-4.084 2.042-.005.021-.039.143-.046.139-.052.136-.059.133-.064.128-.072.129-.079.125-.084.12-.089.115-.095.112-.085.09-.322.324-.062.061-.072.068-.074.065-.077.065-.076.062-.079.06-.08.058-.08.055-.082.054-.084.052-.084.049-.085.047-.089.046-.087.043-.088.041-.09.039-.091.036-.092.035-.092.032-.093.03-.094.027-.095.026-.095.022-.096.021-.096.018-.098.016-.098.014-.098.011-.098.009-.099.006-.1.004-.099.001-.099-.001-.099-.003-.1-.006-.098-.008-.098-.011-.098-.014-.097-.015-.097-.018-.097-.02-.095-.023-.094-.025-.094-.027-.094-.03-.092-.031-.092-.034-.091-.037-.089-.038-.089-.041-.088-.042-.087-.045-.086-.047-.086-.05-.083-.052-.082-.052-.08-.056-.081-.057-.079-.061-.077-.061-.075-.063-.074-.066-.074-.068-.062-.061-5.003-5.003h-.846l-.061.057zm5.283-3.124h-1.644l5.159 5.158.008.008.005-.005v-1.397l4-2v-5.528z"/><path d="m4.233 19.233c-.154-.154-.333-.282-.528-.379-.556-.275-1.705-.843-1.705-.843v-9.5l5 2.489h10.886c.378 0 .724.213.894.551.917 1.825 3.864 7.685 4.997 9.94.12.237.14.512.056.764s-.264.461-.502.579c-1.811.906-5.943 2.972-8.397 4.199-1.155.577-2.55.351-3.463-.562-2.234-2.234-6.236-6.236-7.238-7.238z" fill="#df95e3"/><g clip-path="url(#a)"><path d="m8 25 10-5 5 5-10 5z" fill="none"/><g clip-path="url(#b)" fill="none" stroke="#791f8d" stroke-width="2"><path d="m20 27-7-7"/><path d="m17 29-4.641-4.641-2.359-2.359"/></g><path d="m32 19.236-4.084 2.042-.005.022-.039.143-.045.136-.052.136-.06.136-.065.13-.071.126-.077.123-.085.121-.091.117-.095.112-.084.088-.322.325-.062.061-.072.068-.075.066-.076.064-.077.062-.077.059-.08.058-.082.057-.081.053-.083.051-.086.051-.085.047-.086.045-.089.043-.088.041-.091.039-.09.036-.091.035-.093.032-.093.029-.094.028-.095.026-.095.022-.096.021-.097.018-.097.016-.098.014-.098.011-.098.009-.099.006-.099.004-.1.001-.099-.001-.099-.003-.099-.006-.099-.008-.098-.011-.097-.013-.098-.016-.097-.018-.096-.02-.096-.023-.094-.025-.094-.027-.094-.03-.092-.031-.091-.034-.091-.036-.09-.039-.09-.041-.088-.043-.087-.045-.085-.046-.085-.05-.083-.051-.083-.054-.081-.055-.08-.058-.079-.06-.076-.061-.076-.063-.075-.066-.073-.068-.062-.061-5.003-5.003h-.859l-.002.002-.077.064-.08.064-.082.062-.082.059-.082.056-.084.055-.087.054-.087.05-.088.049-.089.046-.09.044-.092.042-.093.04-.093.037-.094.035-.095.033-.096.03-.096.028-.098.026-.098.023-.099.021-.099.019-.1.016-.1.014-.101.011-.101.009-.102.006-.102.004-.09.001h-6.634l-.384-.922 6.554-6.613 7.362.033 12.468-6.234v13.972zm-12-5.736-7-.031-3.5 3.531h3.122l.053-.001.052-.002.052-.003.052-.004.052-.006.052-.007.051-.009.051-.009.051-.011.051-.012.05-.013.049-.015.05-.015.049-.017.048-.018.048-.019.048-.021.047-.021.046-.023.046-.024.046-.025.044-.026.045-.027.043-.028.043-.03.042-.03.042-.032.04-.032.04-.034.04-.034.038-.036.038-.037.379-.379h2.5l5.581 5.581.035.034.037.034.037.033.038.032.038.031.039.029.04.029.041.028.041.027.042.025.042.025.043.023.044.023.044.021.044.021.045.019.046.018.045.017.047.016.046.015.047.013.048.013.047.011.048.01.049.009.048.008.049.006.049.006.05.004.049.003.05.002h.049.05l.05-.002.049-.003.05-.005.049-.005.048-.007.049-.008.048-.009.048-.011.048-.011.047-.013.047-.014.047-.015.046-.016.046-.017.045-.018.045-.019.045-.021.043-.021.044-.023.043-.024.042-.025.042-.025.041-.027.04-.028.04-.029.039-.03.039-.031.037-.032.037-.033.037-.034.035-.035.296-.297.034-.036.032-.038.03-.038.028-.04.025-.042.024-.042.022-.043.02-.045.017-.045.015-.046.013-.047.011-.048.008-.048.006-.048.004-.05.001-.049v-.573l4-2v-9.5z"/></g><path d="m30 18v-10l-10 5h-6.537l-3.938 4h3.097c.562 0 1.101-.223 1.499-.621.204-.204.379-.379.379-.379h2.5s3.535 3.535 5.581 5.581c.376.376.886.586 1.417.585.532-.001 1.042-.213 1.416-.591.109-.109.21-.211.296-.297.186-.188.29-.441.29-.705 0-.27 0-.573 0-.573z" fill="#df95e3"/><g clip-path="url(#c)"><path d="m24.707 16.707-1.626 1.626-.066.065-.073.067-.074.066-.075.063-.078.062-.078.059-.079.058-.081.055-.083.053-.083.052-.084.049-.086.047-.087.045-.087.042-.089.041-.09.039-.091.036-.091.034-.092.032-.093.029-.094.027-.094.025-.096.023-.096.021-.096.018-.097.015-.097.014-.098.011-.099.008-.098.006-.099.004-.093.001h-2.264v-2h2.251l.056-.001.05-.002.049-.003.049-.004.049-.005.049-.007.048-.008.048-.009.048-.01.048-.011.047-.013.047-.014.046-.014.047-.016.046-.017.045-.018.045-.02.044-.02.044-.021.043-.023.043-.023.042-.025.042-.026.041-.026.04-.028.04-.028.039-.03.039-.031.037-.032.038-.033.036-.033.04-.039 1.617-1.617z" fill="#be6ad8"/><path d="m14.5 17.5s0-1 0-2c0-.53-.211-1.039-.586-1.414s-.884-.586-1.414-.586c-1 0-2 0-2 0" fill="none" stroke="#be6ad8" stroke-linecap="round" stroke-linejoin="round" stroke-miterlimit="1.5"/></g></svg>