<svg clip-rule="evenodd" fill-rule="evenodd" stroke-linejoin="round" stroke-miterlimit="1.41421" viewBox="0 0 32 32" xmlns="http://www.w3.org/2000/svg" xmlns:xlink="http://www.w3.org/1999/xlink"><clipPath id="a"><path clip-rule="evenodd" d="m0 0h32v32h-32z"/></clipPath><clipPath id="b"><path clip-rule="evenodd" d="m5 20s-.449 0-1 0c-.53 0-1.039-.211-1.414-.586s-.586-.884-.586-1.414c0-1.743 0-4.257 0-6 0-.53.211-1.039.586-1.414s.884-.586 1.414-.586h26v6h-6s-5.043 4.483-7.579 6.737c-.915.814-2.097 1.263-3.322 1.263-1.745 0-4.323 0-6.099 0-.53 0-1.039-.211-1.414-.586s-.586-.884-.586-1.414c0-1 0-2 0-2z"/></clipPath><path d="m0 0h32v32h-32z" fill="none"/><g clip-path="url(#a)"><path d="m32 18h-7.24l-6.731 5.983-.065.057-.069.06-.07.058-.071.059-.072.057-.071.056-.072.055-.074.055-.073.053-.075.053-.074.052-.076.051-.076.051-.076.048-.076.048-.078.048-.078.047-.078.045-.079.045-.079.044-.08.043-.081.042-.08.041-.081.04-.081.039-.082.038-.083.037-.083.037-.082.035-.084.035-.084.033-.084.033-.085.031-.085.031-.085.03-.085.028-.087.028-.086.027-.087.026-.087.025-.087.024-.087.023-.088.022-.088.021-.089.02-.088.018-.089.018-.089.017-.089.016-.09.015-.09.014-.09.013-.09.012-.09.011-.091.01-.09.009-.091.007-.091.007-.091.006-.092.005-.091.003-.092.003-.091.002h-.086-5.737l-.087-.001-.099-.004-.099-.006-.098-.008-.098-.011-.098-.014-.097-.015-.096-.018-.096-.021-.095-.023-.095-.025-.094-.027-.092-.029-.093-.032-.091-.034-.091-.036-.089-.039-.089-.04-.088-.043-.087-.045-.085-.047-.085-.049-.083-.052-.082-.053-.081-.055-.08-.058-.078-.059-.077-.062-.076-.063-.074-.066-.072-.067-.071-.069-.07-.072-.067-.072-.066-.074-.063-.076-.062-.077-.059-.078-.058-.08-.055-.081-.054-.082-.051-.083-.049-.084-.047-.087-.045-.086-.043-.088-.04-.088-.039-.09-.036-.091-.034-.091-.032-.093-.029-.093-.027-.093-.025-.095-.023-.095-.021-.096-.018-.097-.015-.096-.014-.097-.011-.099-.008-.099-.006-.098-.004-.099-.001-.087v-.139l-.07-.018-.094-.028-.093-.029-.092-.032-.091-.034-.091-.036-.09-.039-.088-.04-.088-.043-.087-.045-.085-.047-.085-.049-.083-.051-.082-.054-.081-.055-.08-.058-.079-.06-.076-.061-.076-.063-.074-.066-.073-.068-.071-.069-.068-.07-.068-.073-.066-.075-.063-.075-.061-.076-.06-.079-.058-.08-.055-.081-.053-.082-.052-.083-.049-.085-.047-.086-.045-.086-.043-.088-.04-.089-.039-.089-.036-.091-.034-.091-.032-.092-.029-.093-.028-.095-.024-.094-.023-.095-.021-.096-.018-.096-.015-.098-.014-.097-.011-.097-.008-.099-.006-.099-.004-.099-.001-.087v-6.024l.001-.087.004-.099.006-.099.008-.099.011-.097.014-.097.015-.098.018-.096.021-.096.023-.095.024-.094.028-.095.029-.093.032-.092.034-.091.036-.091.039-.089.04-.089.043-.088.045-.086.047-.086.049-.085.052-.083.053-.082.055-.081.058-.08.06-.079.061-.076.063-.075.066-.075.068-.073.068-.071.071-.069.073-.067.074-.066.076-.063.076-.061.079-.06.08-.058.081-.055.082-.054.083-.051.085-.049.085-.047.088-.045.087-.043.088-.04.09-.039.091-.036.091-.034.092-.032.094-.029.094-.028.094-.024.095-.023.096-.021.096-.018.097-.015.098-.014.098-.011.098-.008.098-.006.099-.004.088-.001h28.012zm-27.988-6h-.012v.012 5.976.012h.012 2.988v3.988.012h.012 5.701.052l.046-.001.046-.001.045-.002.046-.003.045-.002.046-.004.045-.004.046-.004.045-.005.045-.006.045-.006.045-.006.045-.007.045-.007.044-.008.045-.009.044-.009.045-.009.044-.01.043-.011.044-.011.045-.011.043-.012.044-.013.043-.013.043-.013.043-.014.042-.014.044-.015.042-.015.042-.016.043-.017.041-.016.042-.017.042-.018.041-.018.041-.019.041-.019.041-.02.041-.02.04-.02.04-.021.04-.022.04-.022.039-.022.039-.023.039-.023.038-.023.039-.025.039-.025.037-.024.038-.026.037-.026.037-.026.037-.027.036-.027.036-.028.037-.029.036-.028.035-.029.035-.029.035-.03.039-.034 7.859-6.986h4.76v-2h-23.988z"/><path d="m5 20s-.449 0-1 0c-.53 0-1.039-.211-1.414-.586s-.586-.884-.586-1.414c0-1.743 0-4.257 0-6 0-.53.211-1.039.586-1.414s.884-.586 1.414-.586h21l1 1v4l-1 1h-1s-5.043 4.483-7.579 6.737c-.915.814-2.097 1.263-3.322 1.263-1.746 0-4.325 0-6.101 0-.53 0-1.038-.211-1.413-.585-.374-.375-.585-.883-.585-1.413 0-.001 0-.002 0-.002l1-1z" fill="#925adb"/><path d="m25 10h5v6h-5z" fill="#7b24cc"/><path d="m5 20s-.449 0-1 0c-.53 0-1.039-.211-1.414-.586s-.586-.884-.586-1.414c0-1.743 0-4.257 0-6 0-.53.211-1.039.586-1.414s.884-.586 1.414-.586h26v6h-6s-5.043 4.483-7.579 6.737c-.915.814-2.097 1.263-3.322 1.263-1.745 0-4.323 0-6.099 0-.53 0-1.039-.211-1.414-.586s-.586-.884-.586-1.414c0-1 0-2 0-2z" fill="none"/><g clip-path="url(#b)"><path d="m17.945 13.469-7.657 7.657-.048.047-.055.051-.055.049-.057.048-.058.046-.059.044-.059.044-.061.041-.061.04-.063.039-.064.036-.064.036-.065.033-.065.032-.067.031-.068.029-.067.027-.069.025-.069.024-.07.022-.07.021-.071.019-.072.017-.072.015-.072.013-.072.012-.074.01-.073.008-.074.007-.074.004-.074.003-.068.001h-7.178v-2h7.165.031l.025-.001.025-.002.024-.002.025-.003.024-.003.024-.004.025-.004.024-.006.023-.005.024-.006.023-.007.023-.008.024-.008.023-.008.022-.009.023-.01.022-.01.022-.011.021-.011.022-.012.021-.012.021-.013.02-.013.021-.014.02-.014.019-.015.019-.016.019-.015.019-.017.018-.017.022-.021 4.703-4.703h-1.788l-.076.001-.068.003-.068.005-.067.007-.068.009-.067.011-.067.012-.066.015-.066.017-.065.018-.065.02-.064.023-.064.024-.063.026-.062.027-.069.033-3.286 1.643-.894-1.788 3.299-1.65.107-.052.116-.051.116-.048.118-.045.119-.041.12-.038.121-.034.122-.031.123-.027.124-.023.124-.02.125-.017.125-.013.126-.009.126-.005.12-.002h5.967z" fill="#400b71"/></g></g></svg>