<svg clip-rule="evenodd" fill-rule="evenodd" stroke-linejoin="round" stroke-miterlimit="1.41421" viewBox="0 0 32 32" xmlns="http://www.w3.org/2000/svg" xmlns:xlink="http://www.w3.org/1999/xlink"><clipPath id="a"><path clip-rule="evenodd" d="m0 0h32v32h-32z"/></clipPath><clipPath id="b"><path clip-rule="evenodd" d="m25 21c2.761 0 5-2.239 5-5 0-.984 0-2.016 0-3 0-2.761-2.239-5-5-5-8.052 0-23 0-23 0v10h7s3.133 3.581 5.207 5.951c1.139 1.302 2.785 2.049 4.516 2.049h3.277c.796 0 1.559-.316 2.121-.879.563-.562.879-1.325.879-2.121 0-1.063 0-2 0-2z"/></clipPath><path d="m0 0h32v32h-32z" fill="none"/><g clip-path="url(#a)"><path d="m25.09 6.001.089.001.09.003.09.004.089.005.088.006.089.008.088.008.088.009.088.011.087.012.087.013.088.013.086.015.086.016.085.017.086.018.085.019.085.02.084.021.084.023.083.023.083.024.083.025.082.026.082.027.081.028.081.029.08.03.086.033.152.063.157.068.154.072.152.076.15.079.148.083.145.085.143.09.141.093.139.096.135.099.134.102.13.105.129.108.125.112.123.114.12.117.117.12.114.123.112.125.108.128.105.131.103.134.099.135.095.139.093.14.089.144.087.145.082.148.079.15.076.152.072.154.068.157.063.152.033.086.03.08.029.081.028.081.027.082.026.082.025.083.024.082.023.084.023.084.021.084.02.085.019.085.018.085.017.086.016.086.015.087.013.086.013.087.012.088.01.088.01.087.008.089.008.089.006.088.005.089.004.09.003.089.001.09.001.084v3.012l-.001.084-.001.09-.003.089-.004.09-.005.089-.006.088-.008.089-.008.089-.01.087-.01.088-.012.088-.013.087-.013.086-.015.087-.016.086-.017.086-.018.085-.019.085-.02.085-.021.084-.023.084-.023.083-.024.083-.025.083-.026.082-.027.082-.028.081-.029.081-.03.08-.033.086-.063.152-.068.157-.072.154-.076.152-.079.15-.083.148-.086.145-.089.144-.093.14-.095.139-.1.135-.102.134-.105.131-.108.128-.112.125-.114.123-.117.12-.12.117-.123.114-.125.112-.129.108-.13.105-.134.102-.135.1-.139.095-.141.093-.143.089-.145.086-.148.083-.15.079-.152.076-.154.072-.157.068-.152.063-.086.033-.08.03-.081.029-.081.028-.082.027-.082.026-.081.025v.303l-.001.111-.005.124-.008.123-.01.123-.014.122-.017.122-.019.122-.023.12-.025.12-.029.119-.031.118-.034.117-.037.116-.04.116-.042.114-.045.114-.049.112-.05.11-.054.11-.056.108-.059.108-.061.105-.064.104-.067.103-.069.101-.072.1-.074.098-.077.096-.08.094-.081.093-.085.091-.086.089-.089.086-.091.085-.093.081-.094.08-.096.077-.098.074-.1.072-.101.069-.103.067-.104.064-.105.061-.108.059-.108.056-.11.054-.11.05-.112.049-.114.045-.114.042-.115.04-.117.037-.117.034-.118.031-.119.029-.12.025-.121.023-.121.019-.121.017-.123.014-.123.01-.123.008-.124.005-.112.001h-3.296l-.101-.001-.108-.002-.108-.003-.107-.006-.108-.006-.107-.008-.106-.009-.107-.011-.106-.012-.106-.014-.106-.015-.106-.016-.105-.018-.104-.019-.105-.021-.104-.022-.103-.023-.104-.025-.103-.026-.102-.027-.102-.029-.102-.03-.101-.031-.101-.033-.1-.034-.1-.035-.099-.037-.099-.037-.098-.04-.097-.04-.098-.042-.096-.043-.096-.044-.096-.046-.094-.047-.094-.048-.094-.049-.093-.051-.092-.052-.092-.052-.091-.055-.09-.055-.089-.057-.089-.058-.088-.059-.087-.06-.087-.062-.086-.063-.085-.064-.084-.065-.083-.066-.083-.067-.082-.069-.081-.069-.08-.071-.079-.072-.078-.073-.078-.074-.076-.076-.076-.076-.074-.078-.074-.078-.072-.08-.068-.076-4.614-5.273h-8.092v-14h25.006zm-21.09 3.999v6h5.908l5.8 6.629.04.045.037.04.036.04.038.039.038.038.038.037.038.037.04.037.039.036.04.035.041.035.04.034.042.034.041.033.042.033.043.032.043.031.043.031.044.03.044.029.044.03.045.028.045.027.045.028.046.026.046.026.047.025.047.025.047.024.047.024.048.022.048.023.048.021.049.021.048.02.05.02.049.019.05.018.049.018.051.017.05.016.05.016.051.015.052.014.051.014.051.013.052.012.051.012.052.011.053.01.052.009.053.009.052.008.053.008.053.007.053.006.053.005.054.005.053.004.054.003.054.003.054.001.054.002h.06 3.259.037l.025-.001.024-.002.025-.002.024-.003.025-.003.024-.004.024-.005.024-.005.024-.005.023-.007.024-.006.023-.008.023-.008.023-.008.023-.009.022-.01.022-.01.022-.011.022-.011.021-.012.021-.012.021-.013.021-.013.02-.014.02-.014.019-.015.02-.016.019-.015.018-.017.018-.017.018-.017.017-.018.017-.018.017-.018.015-.019.016-.02.015-.019.014-.02.014-.02.013-.021.013-.02.012-.022.012-.021.011-.022.011-.022.01-.022.01-.022.009-.023.008-.023.008-.023.008-.023.006-.024.007-.023.005-.024.006-.024.004-.024.004-.024.003-.024.003-.025.002-.025.002-.024.001-.025v-.038-3.974l2.039-.013.039-.001.039-.001.039-.002.039-.002.038-.003.038-.003.038-.004.038-.004.038-.004.037-.005.037-.006.037-.006.037-.006.037-.007.037-.007.036-.008.036-.008.036-.008.036-.009.036-.01.036-.01.034-.01.036-.011.035-.011.035-.011.034-.012.034-.012.035-.013.028-.011.073-.03.067-.029.066-.031.064-.032.065-.034.063-.035.062-.037.062-.039.06-.039.059-.042.059-.042.057-.044.056-.045.056-.047.054-.048.053-.049.051-.051.051-.051.049-.053.048-.054.047-.056.045-.056.044-.057.042-.059.042-.059.04-.061.038-.061.037-.062.035-.063.034-.064.032-.066.031-.065.029-.067.03-.073.011-.028.013-.035.012-.034.012-.034.011-.035.011-.035.011-.035.01-.036.01-.035.01-.036.009-.036.008-.035.008-.037.008-.036.007-.037.007-.036.006-.037.006-.038.006-.037.005-.037.004-.038.004-.038.004-.038.003-.038.003-.039.002-.038.002-.038.001-.04.001-.039v-.045-2.988-.045l-.001-.039-.001-.04-.002-.038-.002-.038-.003-.039-.003-.038-.004-.038-.004-.038-.004-.038-.005-.037-.006-.037-.006-.038-.006-.036-.007-.037-.007-.037-.008-.036-.008-.037-.008-.035-.009-.036-.01-.036-.01-.035-.01-.036-.011-.035-.011-.035-.011-.035-.012-.034-.012-.034-.013-.035-.011-.028-.03-.073-.029-.067-.031-.065-.032-.065-.034-.065-.035-.063-.037-.062-.038-.061-.04-.061-.042-.059-.042-.059-.044-.057-.045-.056-.047-.056-.048-.054-.049-.053-.051-.051-.051-.051-.053-.049-.055-.048-.055-.047-.056-.045-.057-.044-.059-.043-.059-.041-.06-.039-.062-.039-.062-.037-.064-.035-.064-.034-.064-.032-.066-.031-.067-.029-.073-.03-.028-.011-.034-.012-.035-.013-.034-.012-.035-.011-.035-.011-.035-.011-.036-.01-.035-.01-.036-.01-.036-.009-.036-.008-.036-.008-.036-.008-.037-.007-.037-.007-.037-.006-.037-.006-.037-.006-.037-.005-.038-.004-.038-.004-.038-.004-.038-.003-.038-.003-.039-.002-.038-.002-.039-.001-.04-.001h-.045-20.994z"/><path d="m25 21c2.761 0 5-2.239 5-5 0-.984 0-2.016 0-3 0-2.761-2.239-5-5-5-8.052 0-23 0-23 0v10h7s3.133 3.581 5.207 5.951c1.139 1.302 2.785 2.049 4.516 2.049h3.277c.796 0 1.559-.316 2.121-.879.563-.562.879-1.325.879-2.121 0-1.063 0-2 0-2z" fill="#633a92"/><g clip-path="url(#b)"><path d="m1 6.5h6v12.5h-6z" fill="#4f246c"/><path d="m19.743 13.327.086.002.087.002.087.005.086.005.087.007.087.008.087.01.087.01.087.012.086.014.087.015.086.016.086.017.085.018.085.02.084.021.084.022.084.024.083.024.083.026.082.027.082.028.081.03.081.03.08.032.08.033.078.034.079.035.078.036.077.038.077.038.076.04.075.04.075.042.074.043.074.044.072.045.072.046.072.047.07.048.07.049.07.05.068.052.068.052.067.053.066.054.065.055.065.056.064.057.063.058.062.059.062.06.06.061.059.061.059.063.058.063.057.065.056.065.055.066.054.067.053.068.053.069.051.069.05.071.05.071.048.072.047.073.046.073.046.075.044.075.043.076.042.077.041.077.04.078.004.009-1.796.88.003.006-.026-.051-.027-.052-.028-.05-.028-.05-.029-.049-.03-.049-.03-.049-.031-.047-.032-.048-.033-.047-.033-.046-.033-.045-.035-.046-.035-.044-.035-.044-.036-.044-.037-.043-.038-.042-.038-.042-.038-.041-.039-.04-.04-.04-.04-.039-.041-.039-.042-.038-.042-.038-.042-.037-.043-.036-.044-.036-.043-.034-.045-.035-.045-.033-.046-.033-.045-.032-.047-.032-.047-.031-.047-.03-.048-.03-.049-.029-.048-.028-.049-.027-.05-.027-.05-.026-.05-.025-.051-.025-.051-.024-.052-.023-.052-.022-.052-.022-.052-.021-.054-.02-.053-.019-.054-.019-.054-.017-.054-.017-.054-.016-.055-.016-.056-.014-.055-.014-.056-.013-.056-.012-.057-.012-.056-.01-.057-.01-.057-.009-.057-.008-.057-.007-.058-.006-.057-.005-.057-.005-.057-.003-.057-.003-.057-.002-.057-.001h-.056-.057l-.057.002-.056.002-.057.003-.056.004-.057.005-.056.005-.056.007-.056.007-.056.008-.055.009-.056.01-.055.01-.055.012-.055.012-.055.013-.054.013-.055.015-.054.015-.053.016-.054.017-.053.018-.054.018-.052.019-.053.02-.052.021-.052.022-.052.022-.051.023-.051.024-.051.024-.05.026-.05.026-.05.027-.049.027-.049.028-.048.029-.048.03-.048.031-.047.031-.047.032-.046.033-.047.033-.045.034-.045.035-.006.005 2.932 4.398.022.032.019.026.019.024.02.024.02.023.021.022.022.022.023.021.023.02.023.019.024.019.025.018.025.017.026.016.026.016.027.015.027.014.027.013.028.012.028.011.029.011.029.01.029.009.03.007.029.007.03.007.031.005.03.004.031.004.031.002.031.001.039.001h9.922v2h-9.937l-.086-.001-.094-.005-.093-.007-.092-.01-.092-.013-.091-.016-.09-.018-.09-.021-.088-.024-.088-.027-.087-.029-.086-.032-.084-.034-.084-.037-.082-.039-.081-.042-.08-.044-.078-.047-.078-.049-.075-.051-.074-.054-.072-.056-.071-.059-.069-.06-.067-.063-.066-.065-.063-.067-.062-.069-.06-.071-.057-.073-.056-.076-.048-.07-3.866-5.798.84-.84.06-.059.063-.061.065-.059.064-.059.066-.057.067-.056.067-.056.068-.054.068-.053.07-.052.069-.051.071-.049.071-.049.072-.048.073-.046.073-.046.074-.044.074-.043.075-.042.076-.041.076-.039.076-.039.078-.037.077-.036.078-.036.079-.034.079-.032.079-.032.08-.03.08-.029.081-.028.081-.027.082-.026.082-.024.082-.024.083-.022.083-.021.083-.019.084-.019.083-.017.084-.016.085-.015.085-.013.084-.012.086-.011.085-.01.085-.009.086-.007.086-.006.086-.005.086-.003.087-.003h.086z" fill="#2b123f"/></g></g></svg>