<svg clip-rule="evenodd" fill-rule="evenodd" stroke-linejoin="round" stroke-miterlimit="1.41421" viewBox="0 0 32 32" xmlns="http://www.w3.org/2000/svg" xmlns:xlink="http://www.w3.org/1999/xlink"><clipPath id="a"><path clip-rule="evenodd" d="m0 0h32v32h-32z"/></clipPath><clipPath id="b"><path clip-rule="evenodd" d="m3.101 13.371c.8-6.411 6.269-11.371 12.897-11.371h.002c6.628 0 12.097 4.96 12.899 11.37-.472.21-.511.611.081.911.013.238.02.478.02.719v1.006c0 6.072-4.922 10.994-10.994 10.994-1.328 0-2.684 0-4.012 0-6.072 0-10.994-4.922-10.994-10.994 0-.335 0-.671 0-1.008 0-.241.007-.48.019-.718.532-.215.305-.627.082-.909z"/></clipPath><path d="m0 0h32v32h-32z" fill="none"/><g clip-path="url(#a)"><path d="m5.139 22.523c-1.344-1.823-2.139-4.077-2.139-6.517 0-.335 0-.671 0-1.008 0-7.179 5.819-12.998 12.998-12.998h.002c7.18 0 13 5.82 13 13v1.006c0 2.44-.795 4.694-2.139 6.517.203.097.391.229.553.391l1.172 1.172c.375.375.586.884.586 1.414s-.211 1.039-.586 1.414c-.555.555-1.211 1.211-1.851 1.851-1.51 1.51-3.96 1.51-5.47 0 0 0-.001-.001-.001-.001-.547-.547-.903-1.244-1.034-1.989-.718.147-1.462.225-2.224.225-1.328 0-2.684 0-4.012 0-.762 0-1.506-.078-2.224-.225-.131.745-.487 1.442-1.034 1.989 0 0-.001.001-.001.001-1.51 1.51-3.96 1.51-5.47 0-.64-.64-1.296-1.296-1.851-1.851-.375-.375-.586-.884-.586-1.414s.211-1.039.586-1.414l1.172-1.172c.162-.162.35-.294.553-.391z" fill="#fbc546"/><path d="m16.193.001.193.004.192.006.192.008.191.011.191.014.19.015.189.018.189.021.188.022.187.025.187.028.186.029.185.032.184.034.184.037.183.038.182.041.181.043.18.045.18.048.178.049.178.052.177.054.176.056.175.058.173.06.173.062.172.064.171.066.17.068.169.071.168.072.167.074.166.076.164.078.164.08.162.082.161.084.16.086.159.087.158.09.156.091.156.093.154.095.152.096.152.099.15.1.149.102.148.104.146.105.145.107.144.109.142.11.141.112.139.114.138.115.137.117.135.119.134.12.132.122.131.123.13.125.128.126.126.128.125.13.123.131.122.132.12.134.119.135.117.137.115.138.114.139.112.141.11.142.109.144.107.145.106.146.103.148.102.149.1.15.099.152.096.152.095.154.093.156.091.156.09.158.087.159.086.16.084.161.082.162.08.164.078.164.076.166.074.167.072.168.071.169.068.17.066.171.064.172.062.173.06.173.058.175.056.176.054.177.052.178.049.178.048.18.045.18.043.181.041.182.038.183.037.184.034.184.032.185.029.186.028.187.025.187.022.188.021.189.018.189.015.19.014.191.011.191.008.192.006.192.004.193.001.187v1.017l-.001.13-.002.134-.003.134-.005.134-.006.133-.007.133-.009.133-.01.132-.012.132-.013.132-.014.131-.015.131-.017.131-.018.13-.019.13-.02.129-.022.129-.023.129-.025.128-.025.128-.027.127-.028.127-.029.126-.031.126-.032.126-.033.125-.034.124-.035.124-.037.124-.038.123-.039.122-.04.122-.041.121-.042.121-.044.12-.045.12-.045.119-.047.119-.049.118-.049.117-.05.117-.052.116-.052.116-.054.115-.054.114-.056.114-.057.113-.058.113-.059.112-.012.022.544.543.06.062.068.073.065.074.064.076.061.077.06.078.057.08.056.081.053.082.051.083.049.085.048.085.044.087.043.088.041.089.038.089.036.091.034.091.032.092.03.094.027.093.025.095.023.095.02.096.018.096.016.097.013.098.011.098.009.098.006.099.004.099.001.099-.001.099-.004.099-.006.099-.009.098-.011.098-.013.098-.016.097-.018.096-.02.096-.023.095-.025.095-.027.094-.03.092-.031.093-.035.091-.036.091-.038.089-.041.089-.043.088-.044.087-.048.085-.049.085-.051.083-.053.082-.056.081-.057.08-.06.078-.061.077-.064.076-.065.074-.067.072-.061.063-1.869 1.868-.098.096-.11.102-.112.099-.114.095-.117.093-.118.089-.119.085-.122.083-.123.079-.124.075-.126.073-.128.069-.128.065-.13.063-.132.059-.132.055-.133.052-.134.049-.135.045-.136.042-.137.039-.137.035-.138.032-.138.029-.139.025-.139.022-.14.018-.14.015-.14.012-.14.008-.141.005-.14.002-.14-.002-.141-.005-.14-.008-.14-.012-.14-.015-.14-.018-.139-.022-.139-.025-.138-.029-.138-.032-.137-.035-.137-.039-.136-.042-.135-.045-.134-.049-.133-.052-.132-.055-.132-.059-.13-.063-.128-.065-.128-.069-.126-.073-.124-.075-.123-.079-.122-.083-.119-.085-.118-.089-.117-.093-.114-.095-.112-.099-.11-.102-.104-.102-.017-.016-.065-.067-.076-.081-.075-.082-.072-.083-.071-.085-.07-.086-.067-.087-.066-.088-.064-.089-.062-.091-.06-.091-.059-.093-.056-.093-.048-.082-.084.006-.166.009-.167.007-.167.006-.168.003-.162.001h-4.024l-.162-.001-.168-.003-.167-.006-.167-.007-.166-.009-.084-.006-.048.082-.056.093-.059.093-.06.091-.062.091-.064.089-.066.088-.067.087-.07.086-.071.085-.072.083-.075.082-.076.081-.071.073-.017.016-.098.096-.11.102-.112.099-.115.095-.115.093-.118.089-.12.085-.122.083-.123.079-.124.075-.126.073-.128.069-.128.065-.13.063-.132.059-.132.055-.133.052-.134.049-.135.045-.136.042-.137.039-.137.035-.138.032-.138.029-.139.025-.139.022-.14.018-.14.015-.14.012-.14.008-.141.005-.14.002-.14-.002-.141-.005-.14-.008-.14-.012-.14-.015-.14-.018-.139-.022-.139-.025-.138-.029-.138-.032-.137-.035-.137-.039-.136-.042-.135-.045-.134-.049-.133-.052-.132-.055-.132-.059-.13-.063-.128-.065-.128-.069-.126-.073-.124-.075-.123-.079-.122-.083-.119-.085-.118-.089-.117-.093-.114-.095-.112-.099-.11-.102-.098-.096-1.869-1.868-.06-.063-.068-.072-.065-.074-.064-.076-.061-.077-.06-.078-.057-.08-.056-.081-.053-.082-.051-.083-.049-.085-.048-.085-.044-.087-.043-.088-.041-.088-.038-.09-.036-.091-.035-.091-.031-.093-.03-.092-.027-.094-.025-.095-.023-.095-.02-.096-.018-.097-.016-.096-.013-.098-.011-.098-.009-.098-.006-.099-.004-.099-.001-.099.001-.099.004-.099.006-.099.009-.098.011-.098.013-.098.016-.097.018-.096.02-.096.023-.095.025-.095.027-.093.03-.094.032-.092.034-.091.036-.091.038-.09.041-.088.043-.088.044-.087.048-.085.049-.085.051-.083.053-.082.056-.081.057-.08.06-.078.061-.077.064-.076.065-.074.068-.072.06-.063.544-.543-.012-.022-.059-.112-.058-.113-.057-.113-.056-.114-.054-.114-.054-.115-.052-.116-.052-.116-.05-.117-.049-.117-.049-.118-.047-.119-.045-.119-.045-.12-.044-.12-.042-.121-.041-.121-.04-.122-.039-.122-.038-.123-.037-.124-.035-.124-.034-.124-.033-.125-.032-.126-.031-.125-.029-.127-.028-.127-.027-.127-.025-.128-.025-.128-.023-.129-.022-.129-.02-.129-.019-.13-.018-.13-.017-.131-.015-.131-.014-.131-.013-.132-.012-.132-.01-.132-.009-.133-.007-.133-.006-.133-.005-.134-.003-.134-.002-.134-.001-.13v-1.019l.001-.187.004-.193.006-.192.008-.192.011-.191.014-.191.015-.19.018-.189.021-.189.022-.188.025-.187.028-.187.029-.185.032-.185.034-.185.037-.184.038-.182.041-.182.043-.181.045-.181.048-.179.049-.179.052-.177.054-.177.055-.176.058-.175.06-.174.063-.173.064-.172.066-.171.068-.17.07-.168.073-.168.074-.167.076-.166.078-.164.08-.164.082-.162.084-.161.085-.16.088-.159.089-.158.091-.156.094-.155.094-.155.097-.152.098-.152.101-.15.101-.149.104-.147.106-.147.107-.145.108-.143.111-.143.112-.14.114-.14.115-.138.117-.137.118-.135.121-.134.121-.132.124-.131.124-.129.127-.128.128-.127.129-.124.131-.124.132-.121.134-.121.135-.118.137-.117.138-.115.14-.114.14-.112.143-.111.143-.108.145-.107.147-.106.147-.104.149-.101.15-.101.152-.098.153-.097.153-.094.156-.094.156-.091.158-.089.159-.088.16-.085.161-.084.162-.082.164-.08.164-.078.166-.076.167-.074.167-.073.169-.07.17-.068.171-.066.172-.064.173-.063.174-.06.175-.058.176-.055.177-.054.177-.052.179-.049.179-.048.181-.045.181-.043.182-.041.182-.038.184-.037.184-.034.186-.032.185-.029.187-.028.187-.025.188-.022.189-.021.189-.018.19-.015.191-.014.191-.011.192-.008.192-.006.193-.004.187-.001h.014l.187.001zm-.195 1.999-.168.001-.167.003-.167.006-.167.007-.166.009-.165.012-.165.013-.164.016-.164.018-.162.019-.163.022-.161.024-.161.025-.161.028-.16.03-.159.031-.158.033-.157.036-.157.037-.156.039-.156.041-.154.043-.154.045-.153.046-.152.049-.152.05-.15.052-.15.054-.149.055-.148.058-.147.059-.146.06-.146.063-.144.064-.144.066-.142.068-.142.069-.14.071-.14.073-.139.074-.137.076-.137.077-.135.079-.135.081-.133.082-.133.084-.131.085-.13.087-.129.088-.128.09-.127.091-.126.093-.124.095-.124.095-.122.097-.121.099-.12.1-.118.102-.118.102-.116.105-.114.105-.114.107-.112.108-.111.11-.11.111-.108.112-.107.114-.105.114-.105.116-.102.118-.102.118-.1.12-.099.121-.097.122-.095.124-.095.124-.093.126-.091.127-.09.128-.088.129-.087.13-.085.131-.084.133-.082.133-.081.135-.079.135-.077.137-.076.137-.074.139-.073.14-.071.14-.069.142-.068.142-.066.144-.064.144-.063.146-.06.146-.059.147-.058.148-.055.149-.054.15-.052.15-.05.152-.049.152-.046.153-.045.154-.043.154-.041.156-.039.156-.037.157-.036.157-.033.158-.031.159-.03.16-.028.161-.025.161-.024.161-.022.163-.019.162-.018.164-.016.164-.013.165-.012.165-.009.166-.007.167-.006.167-.003.167-.001.168v1.008l.001.114.001.114.003.114.004.113.005.113.007.113.007.113.009.112.009.112.011.111.012.111.013.111.014.111.016.11.016.11.017.109.019.109.019.109.021.108.021.108.023.108.024.107.025.107.025.106.027.106.028.106.029.105.03.105.031.104.032.104.032.104.034.103.035.102.036.102.037.102.038.101.038.101.04.1.041.1.041.099.043.099.043.098.045.098.045.097.046.097.048.096.048.095.049.096.05.094.05.094.052.094.052.093.054.092.054.092.055.091.056.091.057.09.058.089.058.089.06.088.06.088.061.087.061.086.063.086-.038.019-.037.019-.038.02-.036.021-.037.022-.036.023-.035.023-.035.024-.034.025-.034.026-.034.026-.033.027-.032.028-.032.029-.031.029-.031.03-1.172 1.172-.034.035-.034.037-.033.037-.032.037-.03.039-.03.039-.029.04-.028.04-.026.041-.026.042-.024.042-.024.043-.022.044-.022.043-.02.045-.019.045-.018.045-.017.046-.016.046-.015.046-.014.047-.012.047-.012.048-.01.048-.009.048-.008.049-.006.048-.006.049-.004.049-.003.05-.002.049-.001.05.001.05.002.049.003.05.004.049.006.049.006.048.008.049.009.048.01.048.012.047.012.048.014.047.015.046.016.046.017.046.018.045.019.045.02.045.022.043.022.044.024.043.024.042.026.042.026.041.028.04.029.04.03.039.03.039.032.037.033.037.034.037.034.035 1.851 1.851.071.07.073.067.074.065.076.063.076.061.078.059.079.056.08.055.081.052.082.049.082.048.084.045.085.043.085.041.087.039.086.037.088.034.088.032.089.03.09.028.09.025.09.023.091.021.091.019.092.017.092.014.092.012.092.01.093.008.092.005.093.004.093.001.093-.001.093-.004.092-.005.093-.008.092-.01.092-.012.092-.014.092-.017.091-.019.091-.021.09-.023.09-.025.09-.028.089-.03.088-.032.088-.034.086-.037.087-.039.085-.041.085-.043.084-.045.082-.048.082-.049.081-.052.08-.055.079-.056.078-.059.076-.061.076-.063.074-.065.073-.067.071-.07.001-.001.05-.051.05-.053.049-.053.047-.055.046-.055.045-.056.044-.056.043-.058.041-.058.041-.058.039-.06.038-.06.037-.061.035-.061.035-.062.033-.063.032-.063.031-.064.029-.064.028-.065.027-.066.026-.066.025-.066.023-.067.022-.067.021-.068.019-.068.018-.068.017-.069.016-.069.014-.069.013-.07.135.027.135.025.136.023.137.022.137.02.138.019.139.017.138.015.14.013.14.012.14.01.141.008.141.006.142.004.142.003.143.001h4.012l.143-.001.142-.003.142-.004.141-.006.141-.008.14-.01.14-.012.14-.013.138-.015.139-.017.138-.019.137-.02.137-.022.136-.023.135-.025.135-.027.013.07.014.069.016.069.017.069.018.068.019.068.021.068.022.067.023.067.025.066.026.066.027.066.028.065.029.064.031.064.032.063.033.063.035.062.035.061.037.061.038.06.039.06.041.058.041.058.043.058.044.056.045.056.046.055.047.055.049.053.05.053.051.052.071.07.073.067.074.065.076.063.076.061.078.059.079.056.08.055.081.052.082.049.082.048.084.045.085.043.085.041.087.039.086.037.088.034.088.032.089.03.09.028.09.025.09.023.091.021.091.019.092.017.092.014.092.012.092.01.093.008.092.005.093.004.093.001.093-.001.093-.004.092-.005.093-.008.092-.01.092-.012.092-.014.092-.017.091-.019.091-.021.09-.023.09-.025.09-.028.089-.03.088-.032.088-.034.086-.037.087-.039.085-.041.085-.043.084-.045.082-.048.082-.049.081-.052.08-.055.079-.056.078-.059.076-.061.076-.063.074-.065.073-.067.071-.07 1.851-1.851.034-.035.034-.037.033-.037.032-.037.03-.039.03-.039.029-.04.028-.04.026-.041.026-.042.024-.042.024-.043.022-.044.022-.043.02-.045.019-.045.018-.045.017-.046.016-.046.015-.046.014-.047.012-.048.012-.047.01-.048.009-.048.008-.049.006-.048.006-.049.004-.049.003-.05.002-.049.001-.05-.001-.05-.002-.049-.003-.05-.004-.049-.006-.049-.006-.048-.008-.049-.009-.048-.01-.048-.012-.048-.012-.047-.014-.047-.015-.046-.016-.046-.017-.046-.018-.045-.019-.045-.02-.045-.022-.043-.022-.044-.024-.043-.024-.042-.026-.042-.026-.041-.028-.04-.029-.04-.03-.039-.03-.039-.032-.037-.033-.037-.034-.037-.034-.035-1.172-1.172-.031-.03-.031-.029-.032-.029-.032-.028-.033-.027-.034-.026-.034-.026-.034-.025-.035-.024-.035-.023-.036-.023-.037-.022-.036-.021-.038-.02-.037-.019-.038-.019.063-.086.061-.086.061-.087.06-.088.06-.088.058-.089.058-.089.057-.09.056-.091.055-.091.054-.092.054-.092.052-.093.052-.094.05-.094.05-.094.049-.096.048-.095.048-.096.046-.097.045-.097.045-.098.043-.098.043-.099.041-.099.041-.1.04-.1.038-.101.038-.101.037-.102.036-.102.035-.102.034-.103.032-.104.032-.104.031-.104.03-.105.029-.105.028-.106.027-.106.025-.106.025-.107.024-.107.023-.108.021-.108.021-.108.019-.109.019-.109.017-.109.016-.11.016-.11.014-.111.013-.111.012-.111.011-.111.009-.112.009-.112.007-.113.007-.113.005-.113.004-.113.003-.114.001-.114.001-.114v-1.006l-.001-.168-.003-.168-.006-.167-.007-.166-.009-.166-.012-.165-.013-.165-.016-.164-.018-.164-.019-.163-.022-.162-.024-.162-.025-.161-.028-.16-.03-.16-.031-.159-.034-.158-.035-.158-.037-.157-.039-.156-.041-.155-.043-.155-.045-.154-.046-.153-.049-.152-.05-.151-.052-.151-.054-.15-.055-.149-.058-.148-.059-.147-.061-.146-.062-.146-.064-.144-.066-.143-.068-.143-.069-.142-.071-.14-.073-.14-.074-.139-.076-.137-.077-.137-.079-.135-.081-.135-.082-.133-.084-.133-.085-.131-.087-.13-.089-.13-.089-.128-.092-.126-.093-.126-.094-.125-.096-.123-.097-.122-.099-.121-.1-.12-.101-.119-.103-.117-.104-.116-.106-.115-.107-.113-.108-.112-.11-.111-.111-.11-.112-.108-.113-.107-.115-.106-.116-.104-.117-.103-.119-.101-.12-.1-.121-.099-.122-.097-.123-.096-.125-.094-.126-.093-.126-.092-.128-.089-.13-.089-.13-.087-.131-.085-.133-.084-.133-.082-.135-.081-.135-.079-.137-.077-.137-.076-.139-.074-.14-.073-.14-.071-.142-.069-.143-.068-.143-.066-.144-.064-.146-.062-.146-.061-.147-.059-.148-.058-.149-.055-.15-.054-.151-.052-.151-.05-.152-.049-.153-.046-.154-.045-.155-.043-.155-.041-.156-.039-.157-.037-.158-.035-.158-.034-.159-.031-.16-.03-.16-.028-.161-.025-.162-.024-.162-.022-.163-.019-.164-.018-.164-.016-.165-.013-.165-.012-.166-.009-.166-.007-.167-.006-.168-.003-.168-.001h-.002z"/><path d="m3.101 13.371c.8-6.411 6.269-11.371 12.897-11.371h.002c6.628 0 12.097 4.96 12.899 11.37-.472.21-.511.611.081.911.013.238.02.478.02.719v1.006c0 6.072-4.922 10.994-10.994 10.994-1.328 0-2.684 0-4.012 0-6.072 0-10.994-4.922-10.994-10.994 0-.335 0-.671 0-1.008 0-.241.007-.48.019-.718.532-.215.305-.627.082-.909z" fill="#fbc546"/><g clip-path="url(#b)"><path d="m14 25h4s1.648-1.648 2.828-2.828c.751-.751 1.768-1.172 2.829-1.172h8.343v8h-32v-8h8.343c1.061 0 2.078.421 2.829 1.172 1.18 1.18 2.828 2.828 2.828 2.828z" fill="#e59a10"/><path d="m20.197 25.723c-.124 1.123.268 2.242 1.067 3.041 0 0 .001.001.001.001 1.51 1.51 3.96 1.51 5.47 0l1.851-1.851c.375-.375.586-.884.586-1.414s-.211-1.039-.586-1.414c-.38-.38-.792-.792-1.172-1.172-.375-.375-.884-.586-1.414-.586s-1.039.211-1.414.586c-.971.971-2.086 2.086-2.086 2.086l-2-2s-.163 1.465-.303 2.723z" fill="#fbc546"/><path d="m26.099 20.33.099.003.099.006.098.009.098.011.098.013.097.016.096.018.096.02.095.023.095.025.093.027.093.03.093.032.091.034.091.036.09.038.088.041.088.043.087.045.085.047.085.049.083.051.082.053.081.056.08.057.078.06.077.061.076.064.074.065.073.068.062.06 1.189 1.189.06.062.068.073.065.074.064.076.061.077.06.078.057.08.056.081.053.082.051.083.049.085.048.085.044.087.043.088.041.089.038.089.036.091.034.091.032.093.03.093.027.093.025.095.023.095.02.096.018.096.016.097.013.098.011.098.009.098.006.099.003.099.002.099-.002.099-.003.099-.006.099-.009.098-.011.098-.013.098-.016.097-.018.096-.02.096-.023.095-.025.095-.027.094-.03.093-.032.092-.033.091-.037.091-.038.09-.041.088-.043.088-.045.087-.047.085-.049.085-.051.083-.053.082-.056.081-.057.08-.06.078-.061.077-.064.076-.065.074-.068.073-.06.062-1.869 1.868-.098.096-.11.102-.112.099-.115.095-.116.093-.117.089-.12.085-.122.083-.123.079-.124.075-.126.073-.128.069-.129.065-.129.063-.132.059-.132.055-.133.052-.134.049-.135.045-.136.042-.137.039-.137.035-.138.032-.138.029-.139.025-.139.022-.14.018-.14.015-.14.012-.14.008-.14.005-.141.002-.141-.002-.14-.005-.14-.008-.14-.012-.14-.015-.14-.018-.139-.022-.139-.025-.138-.029-.138-.032-.137-.035-.137-.039-.136-.042-.135-.045-.134-.049-.133-.052-.132-.055-.131-.059-.131-.063-.128-.065-.128-.069-.126-.073-.124-.075-.123-.079-.122-.083-.119-.085-.118-.089-.117-.093-.114-.095-.112-.099-.11-.102-.098-.096-.015-.015-.052-.052-.061-.064-.105-.114-.106-.122-.102-.125-.099-.128-.094-.129-.091-.132-.087-.135-.083-.136-.079-.139-.075-.14-.071-.143-.067-.144-.063-.146-.058-.148-.055-.149-.051-.15-.046-.152-.042-.154-.038-.154-.033-.156-.03-.156-.024-.158-.021-.158-.016-.16-.012-.159-.007-.161-.003-.161.002-.161.007-.161.01-.155.008-.088.008-.074.303-2.73.011-.084.015-.083.018-.083.022-.082.025-.081.029-.08.032-.078.035-.077.038-.076.042-.074.044-.072.048-.07.051-.068.053-.065.056-.064.059-.061.062-.058.063-.056.066-.053.069-.05.07-.047.072-.045.074-.041.076-.038.077-.034.079-.032.08-.028.081-.024.082-.022.083-.017.084-.015.084-.01.084-.007.085-.004.085.001.084.003.085.008.084.01.083.015.083.018.082.021.081.025.08.028.078.032.078.035.075.038.074.042.072.044.07.048.069.05.065.053.064.056.061.059.586.586.68-.681.063-.06.072-.068.074-.065.076-.064.077-.061.078-.06.08-.057.081-.056.082-.053.083-.051.085-.05.085-.046.087-.045.088-.043.089-.041.089-.038.091-.036.091-.034.092-.032.094-.03.093-.027.095-.025.095-.023.096-.02.096-.018.097-.016.098-.013.098-.011.098-.009.099-.006.099-.003.099-.002.099.002zm-.149 1.999-.049.002-.05.003-.049.004-.049.006-.048.006-.049.008-.048.009-.048.01-.047.012-.048.012-.047.014-.046.015-.046.016-.046.017-.045.018-.045.019-.045.02-.043.022-.044.022-.043.024-.042.024-.042.026-.041.026-.04.028-.04.029-.039.03-.039.03-.037.032-.037.033-.037.034-.035.034-2.086 2.086-2-2-.303 2.723-.005.053-.005.052-.007.105-.004.106-.001.104.001.105.005.104.008.104.01.104.013.103.017.102.019.102.021.101.025.101.027.099.031.099.032.098.036.097.038.096.041.095.044.094.046.093.049.091.051.09.054.089.056.087.059.086.062.084.064.083.066.081.069.08.072.077.036.039.038.038.071.07.073.067.074.065.076.063.076.061.078.059.079.056.08.055.081.052.082.049.082.048.084.045.085.043.085.041.087.039.086.037.088.034.088.032.089.03.09.028.09.025.09.023.091.021.091.019.092.017.092.014.092.012.092.01.093.008.092.005.093.004.093.001.093-.001.093-.004.092-.005.093-.008.092-.01.092-.012.092-.014.092-.017.091-.019.091-.021.09-.023.09-.025.09-.028.089-.03.088-.032.088-.034.086-.037.087-.039.085-.041.085-.043.084-.045.082-.048.082-.049.081-.052.08-.055.079-.056.078-.059.076-.061.076-.063.074-.065.073-.067.071-.07 1.851-1.851.034-.035.034-.037.033-.037.032-.037.03-.039.03-.039.029-.04.028-.04.026-.041.026-.042.024-.042.024-.043.022-.044.022-.043.02-.045.019-.045.018-.045.017-.046.016-.046.015-.046.014-.047.012-.048.012-.047.01-.048.009-.048.008-.049.006-.048.006-.049.004-.049.003-.05.002-.049.001-.05-.001-.05-.002-.049-.003-.05-.004-.049-.006-.049-.006-.048-.008-.049-.009-.048-.01-.048-.012-.048-.012-.047-.014-.047-.015-.046-.016-.046-.017-.046-.018-.045-.019-.045-.02-.045-.022-.043-.022-.044-.024-.043-.024-.042-.026-.042-.026-.041-.028-.04-.029-.04-.03-.039-.03-.039-.032-.037-.033-.037-.034-.037-.034-.035-1.172-1.172-.035-.034-.037-.034-.037-.033-.037-.032-.039-.03-.039-.03-.04-.029-.04-.028-.041-.026-.042-.026-.042-.024-.043-.024-.044-.022-.043-.022-.045-.02-.045-.019-.045-.018-.046-.017-.046-.016-.046-.015-.047-.014-.047-.012-.048-.012-.048-.01-.048-.009-.049-.008-.048-.006-.049-.006-.049-.004-.05-.003-.049-.002-.05-.001z" fill="#7e5108"/><path d="m11.803 25.723c.124 1.123-.268 2.242-1.067 3.041 0 0-.001.001-.001.001-1.51 1.51-3.96 1.51-5.47 0-.64-.64-1.296-1.296-1.851-1.851-.375-.375-.586-.884-.586-1.414s.211-1.039.586-1.414c.38-.38.792-.792 1.172-1.172.375-.375.884-.586 1.414-.586s1.039.211 1.414.586c.971.971 2.086 2.086 2.086 2.086l2-2s.163 1.465.303 2.723z" fill="#fbc546"/><path d="m6.099 20.33.099.003.099.006.098.009.098.011.098.013.097.016.096.018.096.02.095.023.095.025.093.027.094.03.092.032.091.034.091.036.09.038.088.041.088.043.087.045.085.046.085.05.083.051.082.053.081.056.08.057.078.06.077.061.076.064.074.065.072.068.063.06.68.681.586-.586.061-.059.064-.056.065-.053.069-.05.07-.048.072-.044.074-.042.075-.038.078-.035.078-.032.08-.028.081-.025.082-.021.083-.018.083-.015.084-.01.085-.008.084-.003.085-.001.085.004.084.007.084.01.084.015.083.017.082.022.081.024.08.028.079.032.077.034.076.038.074.041.072.045.07.047.069.05.066.053.063.056.062.058.059.061.056.064.053.065.051.068.048.07.044.072.042.074.038.076.035.077.032.078.029.08.025.081.022.082.018.083.015.083.011.084.303 2.73.008.074.008.088.01.154.007.162.002.161-.003.161-.007.161-.012.159-.016.16-.021.158-.024.158-.03.156-.033.156-.038.154-.042.154-.046.152-.051.15-.055.149-.058.148-.063.146-.067.144-.071.143-.075.14-.079.139-.083.136-.087.135-.091.132-.094.129-.099.128-.102.125-.106.122-.105.114-.061.064-.052.052-.015.015-.098.096-.11.102-.112.099-.114.095-.116.093-.119.089-.119.085-.122.083-.123.079-.124.075-.126.073-.128.069-.128.065-.131.063-.131.059-.132.055-.133.052-.134.049-.135.045-.136.042-.137.039-.137.035-.138.032-.138.029-.139.025-.139.022-.14.018-.14.015-.14.012-.14.008-.14.005-.141.002-.141-.002-.14-.005-.14-.008-.14-.012-.14-.015-.14-.018-.139-.022-.139-.025-.138-.029-.138-.032-.137-.035-.137-.039-.136-.042-.135-.045-.134-.049-.133-.052-.132-.055-.132-.059-.129-.063-.129-.065-.128-.069-.126-.073-.124-.075-.123-.079-.122-.083-.12-.085-.117-.089-.117-.093-.114-.095-.112-.099-.11-.102-.098-.096-1.869-1.868-.06-.062-.068-.073-.065-.074-.064-.076-.061-.077-.06-.078-.057-.08-.056-.081-.053-.082-.051-.083-.049-.085-.047-.085-.045-.087-.043-.088-.041-.088-.038-.09-.037-.091-.033-.091-.032-.092-.03-.093-.027-.094-.025-.095-.023-.095-.02-.096-.018-.096-.016-.097-.013-.098-.011-.098-.009-.098-.006-.099-.003-.099-.002-.099.002-.099.003-.099.006-.099.009-.098.011-.098.013-.098.016-.097.018-.096.02-.096.023-.095.025-.095.027-.093.03-.093.032-.093.034-.091.036-.091.038-.089.041-.089.043-.088.044-.087.048-.085.049-.085.051-.083.053-.082.056-.081.057-.08.06-.078.061-.077.064-.076.065-.074.068-.073.06-.062 1.189-1.189.062-.06.073-.068.074-.065.076-.064.077-.061.078-.06.08-.057.081-.056.082-.053.083-.051.085-.049.085-.047.087-.045.088-.043.088-.041.09-.038.091-.036.091-.034.093-.032.093-.03.093-.027.095-.025.095-.023.096-.02.096-.018.097-.016.098-.013.098-.011.098-.009.099-.006.099-.003.099-.002.099.002zm-.149 1.999-.049.002-.05.003-.049.004-.049.006-.048.006-.049.008-.048.009-.048.01-.048.012-.047.012-.047.014-.046.015-.046.016-.046.017-.045.018-.045.019-.045.02-.043.022-.044.022-.043.024-.042.024-.042.026-.041.026-.04.028-.04.029-.039.03-.039.03-.037.032-.037.033-.037.034-.035.034-1.172 1.172-.034.035-.034.037-.033.037-.032.037-.03.039-.03.039-.029.04-.028.04-.026.041-.026.042-.024.042-.024.043-.022.044-.022.043-.02.045-.019.045-.018.045-.017.046-.016.046-.015.046-.014.047-.012.047-.012.048-.01.048-.009.048-.008.049-.006.048-.006.049-.004.049-.003.05-.002.049-.001.05.001.05.002.049.003.05.004.049.006.049.006.048.008.049.009.048.01.048.012.047.012.048.014.047.015.046.016.046.017.046.018.045.019.045.02.045.022.043.022.044.024.043.024.042.026.042.026.041.028.04.029.04.03.039.03.039.032.037.033.037.034.037.034.035 1.851 1.851.071.07.073.067.074.065.076.063.076.061.078.059.079.056.08.055.081.052.082.049.082.048.084.045.085.043.085.041.087.039.086.037.088.034.088.032.089.03.09.028.09.025.09.023.091.021.091.019.092.017.092.014.092.012.092.01.093.008.092.005.093.004.093.001.093-.001.093-.004.092-.005.093-.008.092-.01.092-.012.092-.014.092-.017.091-.019.091-.021.09-.023.09-.025.09-.028.089-.03.088-.032.088-.034.086-.037.087-.039.085-.041.085-.043.084-.045.082-.048.082-.049.081-.052.08-.055.079-.056.078-.059.076-.061.076-.063.074-.065.073-.067.071-.07.001-.001.037-.037.036-.039.072-.077.069-.08.066-.081.064-.083.062-.084.059-.086.056-.087.054-.089.051-.09.049-.091.046-.093.044-.094.041-.095.038-.096.036-.097.032-.098.031-.099.027-.099.025-.101.021-.101.019-.102.017-.102.013-.103.01-.104.008-.104.005-.104.001-.105-.001-.104-.004-.106-.007-.105-.005-.052-.005-.053-.303-2.723-2 2-2.086-2.086-.035-.034-.037-.034-.037-.033-.037-.032-.039-.03-.039-.03-.04-.029-.04-.028-.041-.026-.042-.026-.042-.024-.043-.024-.044-.022-.043-.022-.045-.02-.045-.019-.045-.018-.046-.017-.046-.016-.046-.015-.047-.014-.048-.012-.047-.012-.048-.01-.048-.009-.049-.008-.048-.006-.049-.006-.049-.004-.05-.003-.049-.002-.05-.001z" fill="#7e5108"/></g><path d="m20.197 25.723c-.124 1.123.268 2.242 1.067 3.041 0 0 .001.001.001.001 1.51 1.51 3.96 1.51 5.47 0l1.851-1.851c.375-.375.586-.884.586-1.414s-.211-1.039-.586-1.414c-.38-.38-.792-.792-1.172-1.172-.375-.375-.884-.586-1.414-.586s-1.039.211-1.414.586c-.971.971-2.086 2.086-2.086 2.086l-2-2s-.163 1.465-.303 2.723z" fill="#fbc546"/><path d="m11.803 25.723c.124 1.123-.268 2.242-1.067 3.041 0 0-.001.001-.001.001-1.51 1.51-3.96 1.51-5.47 0-.64-.64-1.296-1.296-1.851-1.851-.375-.375-.586-.884-.586-1.414s.211-1.039.586-1.414c.38-.38.792-.792 1.172-1.172.375-.375.884-.586 1.414-.586s1.039.211 1.414.586c.971.971 2.086 2.086 2.086 2.086l2-2s.163 1.465.303 2.723z" fill="#fbc546"/><path d="m28.98 14.281c-.136.971-.971 1.719-1.98 1.719-1.222 0-2.778 0-4 0-1.105 0-2-.895-2-2s.895-2 2-2h4c.885 0 1.635.574 1.899 1.37.037.301.065.604.081.911zm-25.879-.91c.263-.796 1.014-1.371 1.899-1.371h4c1.105 0 2 .895 2 2 0 1.105-.895 2-2 2-1.222 0-2.778 0-4 0-1.009 0-1.844-.748-1.981-1.72.017-.306.044-.609.082-.909z" fill="#ed6b44"/><path d="m24.707 9.793.031.032.029.033.027.035.027.035.024.037.023.038.021.039.019.04.018.04.016.042.014.042.012.042.01.043.008.044.007.044.004.044.002.044.001.044-.002.044-.003.044-.005.044-.008.044-.009.043-.011.043-.013.042-.015.042-.017.041-.018.04-.02.039-.022.039-.024.037-.025.037-.027.035-.029.034-.029.032-.032.032-.032.029-.034.029-.035.027-.037.025-.037.024-.039.022-.039.02-.04.018-.041.017-.042.015-.042.013-.043.011-.043.009-.044.008-.044.005-.044.003-.044.002-.044-.001-.044-.002-.044-.004-.044-.007-.044-.008-.043-.01-.042-.012-.042-.014-.042-.016-.04-.018-.04-.019-.039-.021-.038-.023-.037-.024-.035-.027-.035-.027-.033-.029-.032-.031-1.793-1.793-1.793 1.793-.032.031-.033.029-.035.027-.035.027-.037.024-.038.023-.039.021-.04.019-.04.018-.042.016-.042.014-.042.012-.043.01-.044.008-.044.007-.044.004-.044.002-.044.001-.044-.002-.044-.003-.044-.005-.044-.008-.043-.009-.043-.011-.042-.013-.042-.015-.041-.017-.04-.018-.039-.02-.039-.022-.037-.024-.037-.025-.035-.027-.034-.029-.032-.029-.032-.032-.029-.032-.029-.034-.027-.035-.025-.037-.024-.037-.022-.039-.02-.039-.018-.04-.017-.041-.015-.042-.013-.042-.011-.043-.009-.043-.008-.044-.005-.044-.003-.044-.002-.044.001-.044.002-.044.004-.044.007-.044.008-.044.01-.043.012-.042.014-.042.016-.042.018-.04.019-.04.021-.039.023-.038.024-.037.027-.035.027-.035.029-.033.031-.032 3.207-3.207z"/><path d="m13.707 9.793.031.032.029.033.027.035.027.035.024.037.023.038.021.039.019.04.018.04.016.042.014.042.012.042.01.043.008.044.007.044.004.044.002.044.001.044-.002.044-.003.044-.005.044-.008.044-.009.043-.011.043-.013.042-.015.042-.017.041-.018.04-.02.039-.022.039-.024.037-.025.037-.027.035-.029.034-.029.032-.032.032-.032.029-.034.029-.035.027-.037.025-.037.024-.039.022-.039.02-.04.018-.041.017-.042.015-.042.013-.043.011-.043.009-.044.008-.044.005-.044.003-.044.002-.044-.001-.044-.002-.044-.004-.044-.007-.044-.008-.043-.01-.042-.012-.042-.014-.042-.016-.04-.018-.04-.019-.039-.021-.038-.023-.037-.024-.035-.027-.035-.027-.033-.029-.032-.031-1.793-1.793-1.793 1.793-.032.031-.033.029-.035.027-.035.027-.037.024-.038.023-.039.021-.04.019-.04.018-.042.016-.042.014-.042.012-.043.01-.044.008-.044.007-.044.004-.044.002-.044.001-.044-.002-.044-.003-.044-.005-.044-.008-.043-.009-.043-.011-.042-.013-.042-.015-.041-.017-.04-.018-.039-.02-.039-.022-.037-.024-.037-.025-.035-.027-.034-.029-.032-.029-.032-.032-.029-.032-.029-.034-.027-.035-.025-.037-.024-.037-.022-.039-.02-.039-.018-.04-.017-.041-.015-.042-.013-.042-.011-.043-.009-.043-.008-.044-.005-.044-.003-.044-.002-.044.001-.044.002-.044.004-.044.007-.044.008-.044.01-.043.012-.042.014-.042.016-.042.018-.04.019-.04.021-.039.023-.038.024-.037.027-.035.027-.035.029-.033.031-.032 3.207-3.207z"/><path d="m10.102 14.005.068.01.067.013.066.019.064.023.062.027.061.031.058.036.056.039.053.043.05.047.877.877.057.056.056.054.056.053.057.052.058.052.058.05.059.05.059.049.06.049.06.047.061.047.061.046.062.045.062.045.063.043.064.043.064.042.064.041.065.041.065.039.066.039.066.038.066.037.067.037.068.035.068.035.068.034.069.032.069.033.069.031.07.03.07.03.071.029.07.027.072.027.071.026.072.026.072.024.073.024.072.022.073.022.074.021.073.02.074.019.074.018.075.017.074.016.075.016.075.014.076.014.075.013.076.012.076.01.076.01.076.009.077.008.076.008.077.006.077.005.077.004.077.004.078.002.077.001.078.001.078-.001.077-.001.078-.002.077-.004.077-.004.077-.005.077-.006.076-.008.077-.008.076-.009.076-.01.076-.01.076-.012.075-.013.076-.014.075-.014.075-.016.074-.016.075-.017.074-.018.074-.019.073-.02.074-.021.073-.022.072-.022.073-.024.072-.024.072-.026.071-.026.072-.027.07-.027.071-.029.07-.03.07-.03.069-.031.069-.033.069-.032.068-.034.068-.035.068-.035.067-.037.066-.037.066-.038.066-.039.065-.039.065-.041.064-.041.064-.042.064-.043.063-.043.062-.045.062-.045.061-.046.061-.047.06-.047.06-.049.059-.049.059-.05.058-.05.058-.052.057-.052.056-.053.056-.054.057-.056.877-.877.05-.047.053-.043.056-.039.058-.036.061-.031.062-.027.064-.023.066-.019.067-.013.068-.01.068-.004h.068l.068.004.068.01.067.013.066.019.064.023.062.027.061.031.058.036.056.039.053.043.05.047.047.05.043.053.039.056.036.058.031.061.027.062.023.064.019.066.013.067.01.068.004.068v.068l-.004.068-.01.068-.013.067-.019.066-.023.064-.027.062-.031.061-.036.058-.039.056-.043.053-.047.05-.881.881-.071.07-.073.071-.075.07-.075.069-.076.068-.077.067-.077.066-.078.064-.079.064-.08.063-.08.062-.081.061-.082.059-.082.059-.083.058-.084.056-.084.056-.085.054-.086.054-.086.052-.087.051-.087.05-.088.049-.089.048-.089.047-.089.046-.09.044-.091.044-.091.042-.092.041-.092.041-.093.039-.093.038-.093.036-.094.036-.095.034-.095.034-.095.032-.096.031-.096.03-.096.028-.097.028-.097.026-.098.025-.098.024-.098.023-.098.022-.099.02-.099.019-.1.018-.1.017-.1.016-.1.014-.1.013-.101.012-.101.011-.101.009-.102.008-.101.007-.102.006-.102.004-.102.003-.102.002-.1.001h-.006l-.1-.001-.102-.002-.102-.003-.102-.004-.102-.006-.101-.007-.102-.008-.101-.009-.101-.011-.101-.012-.1-.013-.1-.014-.1-.016-.1-.017-.1-.018-.099-.019-.099-.02-.098-.022-.098-.023-.098-.024-.098-.025-.097-.026-.097-.028-.096-.028-.096-.03-.096-.031-.095-.032-.095-.034-.095-.034-.094-.036-.093-.036-.093-.038-.093-.039-.092-.041-.092-.041-.091-.042-.091-.044-.09-.044-.089-.046-.089-.047-.089-.048-.088-.049-.087-.05-.087-.051-.086-.052-.086-.054-.085-.054-.084-.056-.084-.056-.083-.058-.082-.059-.082-.059-.081-.061-.08-.062-.08-.063-.079-.064-.078-.064-.077-.066-.077-.067-.076-.068-.075-.069-.075-.07-.073-.071-.071-.07-.881-.881-.047-.05-.043-.053-.039-.056-.036-.058-.031-.061-.027-.062-.023-.064-.019-.066-.013-.067-.01-.068-.004-.068v-.068l.004-.068.01-.068.013-.067.019-.066.023-.064.027-.062.031-.061.036-.058.039-.056.043-.053.047-.05.05-.047.053-.043.056-.039.058-.036.061-.031.062-.027.064-.023.066-.019.067-.013.068-.01.068-.004h.068l.068.004z" fill="#593604"/></g></svg>