<svg clip-rule="evenodd" fill-rule="evenodd" stroke-linejoin="round" stroke-miterlimit="1.41421" viewBox="0 0 32 32" xmlns="http://www.w3.org/2000/svg" xmlns:xlink="http://www.w3.org/1999/xlink"><clipPath id="a"><path clip-rule="evenodd" d="m0 0h32v32h-32z"/></clipPath><clipPath id="b"><path clip-rule="evenodd" d="m27 20h1c.53 0 1.039-.211 1.414-.586s.586-.884.586-1.414c0-1.743 0-4.257 0-6 0-.53-.211-1.039-.586-1.414s-.884-.586-1.414-.586c-6.406 0-26 0-26 0v6h6s5.043 4.483 7.579 6.737c.915.814 2.097 1.263 3.322 1.263h6.099c.53 0 1.039-.211 1.414-.586s.586-.884.586-1.414c0-1 0-2 0-2z"/></clipPath><path d="m0 0h32v32h-32z" fill="none"/><g clip-path="url(#a)"><path d="m28.1 8.001.099.004.098.006.098.008.098.011.098.014.097.015.096.018.096.021.095.023.094.024.094.028.094.029.092.032.091.034.091.036.089.039.089.04.088.043.087.045.085.047.085.049.084.052.081.053.081.055.08.058.078.06.077.061.076.063.074.066.072.067.071.069.07.072.067.072.065.074.064.076.062.077.059.077.058.081.055.081.053.082.052.083.049.085.047.086.045.086.042.087.041.089.038.09.037.091.034.091.032.093.03.094.026.092.025.094.023.096.021.097.018.095.015.097.014.097.011.099.008.099.006.098.004.099.001.087v6.024l-.001.087-.004.099-.006.098-.008.099-.011.099-.014.097-.015.097-.018.095-.021.097-.023.096-.025.094-.027.092-.029.094-.032.093-.034.09-.037.092-.038.09-.041.089-.042.087-.045.086-.047.086-.049.085-.052.083-.053.082-.055.081-.059.081-.058.077-.062.077-.064.076-.065.074-.067.072-.07.072-.071.069-.072.067-.074.066-.076.064-.077.06-.077.06-.081.058-.081.055-.081.053-.084.052-.085.049-.086.047-.085.044-.089.044-.089.04-.089.039-.091.036-.091.034-.092.032-.093.029-.094.027-.07.019v.139l-.001.087-.004.099-.006.099-.009.099-.01.098-.014.095-.015.099-.019.097-.02.095-.022.094-.025.095-.028.095-.03.093-.031.092-.034.09-.036.092-.039.09-.04.087-.043.089-.045.087-.047.086-.049.084-.052.083-.053.082-.055.08-.058.081-.06.079-.061.076-.063.075-.066.076-.067.072-.069.07-.071.07-.074.068-.074.065-.075.063-.076.061-.079.06-.08.057-.081.056-.082.054-.083.051-.085.049-.086.047-.086.045-.088.043-.088.04-.09.039-.091.036-.091.034-.093.032-.092.029-.094.027-.095.025-.095.023-.096.021-.096.018-.097.015-.098.014-.098.011-.098.008-.099.006-.099.004-.087.001h-5.737-.086l-.091-.002-.092-.003-.091-.003-.092-.005-.091-.006-.091-.007-.091-.007-.09-.009-.091-.01-.09-.011-.09-.012-.09-.013-.09-.014-.09-.015-.089-.016-.089-.017-.089-.018-.088-.018-.089-.02-.088-.021-.088-.022-.087-.023-.087-.024-.087-.025-.087-.026-.086-.027-.087-.028-.085-.028-.085-.03-.085-.031-.085-.031-.084-.033-.084-.033-.084-.035-.082-.035-.083-.037-.083-.037-.082-.038-.081-.039-.081-.04-.08-.041-.081-.042-.08-.043-.079-.044-.079-.045-.078-.045-.078-.047-.078-.048-.076-.048-.076-.048-.076-.051-.076-.051-.074-.052-.075-.053-.073-.053-.074-.055-.072-.055-.071-.056-.072-.057-.071-.059-.07-.058-.069-.06-.065-.057-6.731-5.983h-7.24v-10h28.012l.088.001zm-24.1 3.999v2h4.76l7.859 6.986.039.034.035.03.035.029.035.029.036.028.037.029.036.028.036.027.037.027.037.026.037.026.038.026.037.024.039.025.039.025.038.023.039.023.039.023.039.022.04.022.04.022.04.021.04.02.041.02.041.02.041.019.041.019.041.018.042.018.042.017.041.016.043.017.042.016.042.015.044.015.042.014.043.014.043.013.043.013.044.013.043.012.045.011.044.011.043.011.044.01.045.009.044.009.045.009.044.008.045.007.045.007.045.006.045.006.045.006.045.005.046.004.045.004.045.004.046.002.046.003.045.002.046.001.046.001h.052 5.701.012v-.012-3.988h2.988.012v-.012-5.976-.012h-.012-23.988z"/><path d="m27 20h1c.53 0 1.039-.211 1.414-.586s.586-.884.586-1.414c0-1.743 0-4.257 0-6 0-.53-.211-1.039-.586-1.414s-.884-.586-1.414-.586c-5.595 0-21 0-21 0l-1 1v4l1 1h1s5.043 4.483 7.579 6.737c.915.814 2.097 1.263 3.322 1.263h6.101c.53 0 1.038-.211 1.413-.585.374-.375.585-.883.585-1.413 0-.001 0-.002 0-.002l-1-1z" fill="#09b7e7"/><path d="m2 10h5v6h-5z" fill="#0087cf"/><path d="m27 20h1c.53 0 1.039-.211 1.414-.586s.586-.884.586-1.414c0-1.743 0-4.257 0-6 0-.53-.211-1.039-.586-1.414s-.884-.586-1.414-.586c-6.406 0-26 0-26 0v6h6s5.043 4.483 7.579 6.737c.915.814 2.097 1.263 3.322 1.263h6.099c.53 0 1.039-.211 1.414-.586s.586-.884.586-1.414c0-1 0-2 0-2z" fill="none"/><g clip-path="url(#b)"><path d="m20.336 13.002.126.005.126.009.125.013.125.017.124.02.124.023.123.027.122.031.121.034.12.038.119.041.118.045.116.048.116.051.107.052 3.299 1.65-.894 1.788-3.286-1.643-.069-.033-.062-.027-.063-.026-.064-.024-.064-.023-.065-.02-.065-.018-.066-.017-.066-.015-.067-.012-.067-.011-.068-.009-.067-.007-.068-.005-.068-.003-.076-.001h-1.788l4.703 4.703.022.021.018.017.019.017.019.015.019.016.019.015.02.014.021.014.02.013.021.013.021.012.022.012.021.011.022.011.022.01.023.01.022.009.023.008.024.008.023.008.023.007.024.006.023.005.024.006.025.004.024.004.024.003.025.003.024.002.025.002.025.001h.031 7.165v2h-7.178l-.068-.001-.074-.003-.074-.004-.074-.007-.073-.008-.074-.01-.072-.012-.072-.013-.072-.015-.072-.017-.071-.019-.07-.021-.07-.022-.069-.024-.069-.025-.067-.027-.068-.029-.067-.031-.065-.032-.065-.033-.064-.036-.064-.036-.063-.039-.061-.04-.061-.041-.059-.044-.059-.044-.058-.046-.057-.048-.055-.049-.055-.051-.048-.047-7.657-7.657.194-.469h5.967l.12.002z" fill="#00456d"/></g></g></svg>