<svg clip-rule="evenodd" fill-rule="evenodd" stroke-miterlimit="2" viewBox="0 0 32 32" xmlns="http://www.w3.org/2000/svg" xmlns:xlink="http://www.w3.org/1999/xlink"><clipPath id="a"><path clip-rule="evenodd" d="m0 0h32v32h-32z"/></clipPath><clipPath id="b"><path clip-rule="evenodd" d="m4.75 19.5-2.75.011v-11l4.5 1.492s8.061-.002 10.382-.003c.379 0 .725.214.894.553 1.071 2.142 4.952 9.902 6.277 12.553.247.494.047 1.094-.447 1.341-1.236.618-3.581 1.791-5.951 2.975-3.951 1.976-8.757.374-10.733-3.577-1.168-2.338-2.172-4.345-2.172-4.345z"/></clipPath><clipPath id="c"><path clip-rule="evenodd" d="m10 27 10-5 3 3-10 5z"/></clipPath><clipPath id="d"><path clip-rule="evenodd" d="m30 19v-11.5l-9 4.5h-8l-2 2s1.111 1.111 1.981 1.981c.608.608 1.538.759 2.308.374.387-.193.711-.355.711-.355h1s4.056 5.215 5.993 7.706c.586.752 1.621.987 2.474.561.414-.207.874-.438 1.322-.661 1.355-.678 2.211-2.063 2.211-3.578 0-.314 0-.528 0-.528z"/></clipPath><path d="m0 0h32v32h-32z" fill="none"/><g clip-path="url(#a)"><path d="m6.823 8.003 10.076-.003.088.002.106.005.105.009.103.013.104.017.103.02.101.023.1.027.099.03.097.034.096.036.095.04.094.044.092.046.089.049.088.053.086.055.084.058.084.062.079.064.078.066.078.071.072.071.071.075.069.078.066.079.064.083.062.086.057.087.055.09.053.092.04.077 6.296 12.591.054.116.058.141.049.142.043.145.035.146.028.146.02.146.013.146.006.147-.002.147-.008.144-.015.142-.022.143-.03.143-.035.138-.042.137-.048.134-.056.133-.061.131-.067.126-.075.125-.08.121-.086.117-.093.114-.097.109-.105.105-.11.101-.115.095-.121.09-.126.084-.13.078-.112.06-5.979 2.989-.11.054-.116.055-.116.054-.117.052-.117.051-.117.048-.118.048-.119.045-.118.044-.119.043-.119.041-.12.039-.119.038-.12.036-.12.035-.121.033-.12.031-.121.03-.121.029-.121.026-.121.026-.121.023-.122.023-.122.02-.121.019-.122.018-.121.016-.122.015-.122.013-.122.011-.121.01-.122.009-.122.007-.121.005-.122.004-.121.003-.122.001-.121-.001-.121-.002-.121-.003-.121-.005-.121-.006-.12-.008-.12-.009-.121-.011-.119-.012-.12-.013-.12-.015-.119-.017-.119-.018-.118-.019-.119-.02-.118-.022-.117-.024-.118-.025-.117-.026-.117-.027-.116-.029-.116-.031-.115-.032-.116-.033-.114-.034-.115-.036-.114-.037-.113-.039-.113-.04-.112-.041-.112-.043-.112-.044-.111-.045-.111-.046-.11-.048-.109-.05-.109-.05-.108-.052-.107-.053-.108-.055-.106-.056-.106-.057-.105-.058-.104-.06-.104-.061-.104-.062-.102-.064-.102-.065-.101-.066-.1-.067-.1-.069-.099-.07-.098-.071-.097-.072-.096-.074-.096-.075-.095-.076-.094-.077-.093-.079-.092-.08-.091-.08-.091-.083-.09-.083-.088-.085-.088-.086-.087-.087-.086-.088-.084-.089-.084-.091-.083-.092-.082-.093-.081-.094-.079-.095-.079-.097-.077-.097-.077-.099-.076-.1-.074-.101-.073-.101-.071-.103-.071-.105-.07-.106-.068-.106-.067-.107-.067-.109-.064-.109-.064-.111-.062-.112-.061-.112-.059-.114-.056-.109-1.622-3.245h-3.514v-15.759l6.823 2.262zm1.924 15.017.036.069.036.068.038.067.038.067.039.066.04.065.04.065.042.064.041.063.042.062.044.063.044.061.044.061.045.059.046.059.046.058.047.058.048.057.048.056.049.056.05.055.05.054.05.053.052.053.051.052.053.051.053.051.054.05.053.049.055.048.055.048.056.047.056.046.057.046.057.045.058.044.058.043.059.043.059.042.06.041.06.04.061.04.061.039.061.038.062.037.062.037.063.036.063.035.064.034.064.034.064.032.065.032.065.032.066.03.066.03.065.028.067.028.067.028.067.026.067.026.068.025.068.024.068.023.069.022.069.022.069.021.069.02.07.019.07.018.069.017.071.017.07.016.071.015.071.014.071.013.071.012.071.012.071.011.072.01.072.009.072.008.072.007.072.006.072.006.072.004.072.004.073.003.072.002.073.001.073.001.072-.001.073-.002.072-.002.073-.003.073-.004.073-.005.073-.006.072-.007.073-.008.073-.009.073-.009.072-.011.073-.011.073-.013.072-.013.073-.014.072-.015.072-.016.073-.017.072-.018.072-.019.072-.02.072-.02.072-.022.072-.023.071-.023.072-.025.071-.025.071-.027.071-.027.071-.029.071-.029.071-.031.07-.031.071-.033.07-.033.076-.037 5.05-2.525-5.553-11.106-10.087.003-2.177-.722v6.219h1.986l2.722 5.445z"/><path d="m32 20.236-1.044.522-.001.008-.014.104-.015.102-.018.103-.019.103-.021.103-.022.1-.025.101-.026.1-.027.1-.03.099-.031.099-.033.099-.034.096-.036.097-.037.095-.04.095-.04.095-.043.094-.044.093-.045.091-.047.091-.049.091-.051.09-.05.087-.054.088-.055.087-.056.086-.058.085-.058.083-.061.083-.062.082-.063.081-.065.08-.067.079-.066.076-.069.077-.071.076-.071.074-.073.073-.075.072-.075.07-.077.07-.078.068-.079.067-.081.066-.082.064-.083.063-.084.061-.086.06-.087.059-.087.057-.09.057-.09.054-.091.053-.093.051-.093.05-.087.045-1.34.67-.07.034-.081.037-.079.034-.082.034-.083.031-.082.029-.083.028-.083.025-.084.024-.084.022-.083.02-.086.019-.084.016-.084.014-.085.013-.085.011-.085.009-.086.007-.085.005-.084.003-.084.002h-.085l-.086-.002-.084-.004-.084-.005-.084-.008-.084-.009-.084-.01-.083-.013-.083-.014-.082-.016-.084-.018-.08-.02-.082-.021-.082-.023-.08-.024-.079-.027-.08-.028-.08-.029-.078-.032-.077-.033-.077-.034-.077-.037-.076-.038-.075-.04-.075-.041-.074-.044-.072-.044-.072-.046-.071-.048-.07-.05-.069-.051-.069-.053-.068-.055-.065-.055-.066-.058-.063-.059-.062-.06-.064-.063-.06-.064-.058-.063-.058-.068-.057-.068-.048-.06-5.274-6.781-.037.018-.072.033-.072.032-.075.031-.075.029-.074.028-.074.025-.075.025-.075.022-.076.022-.077.02-.076.018-.076.017-.077.015-.076.014-.077.012-.077.011-.077.009-.078.008-.087.007-.144.007-.154.002-.155-.004-.153-.01-.153-.016-.152-.022-.151-.027-.15-.034-.149-.039-.147-.044-.146-.051-.135-.053-.081-.034-.07-.032-.07-.032-.071-.035-.069-.036-.066-.037-.069-.039-.068-.04-.065-.041-.068-.044-.064-.044-.064-.045-.064-.048-.062-.047-.062-.05-.061-.051-.06-.052-.06-.054-.059-.055-.05-.049-3.402-3.402 4.001-4h8.356l11.472-5.736zm-7.428 2.242.01-.005 1.305-.652.039-.021.032-.016.03-.017.031-.018.031-.019.028-.018.03-.019.029-.02.028-.019.028-.021.028-.021.027-.021.027-.022.026-.022.027-.023.025-.023.025-.024.025-.024.024-.024.024-.025.023-.024.022-.025.024-.028.022-.026.021-.026.021-.027.021-.027.02-.028.02-.028.02-.029.018-.028.018-.028.018-.029.018-.031.016-.03.016-.029.016-.031.015-.031.015-.031.014-.031.013-.031.013-.032.013-.032.012-.032.012-.033.011-.032.01-.033.009-.032.01-.034.008-.033.008-.034.008-.034.007-.034.006-.033.006-.034.005-.036.005-.035.004-.033.003-.036.003-.034.002-.034.002-.037.001-.035v-.044-1.756l1-.5v-7.028l-6.528 3.264h-7.644l.56.56.007.006.009-.004 1.124-.562h2.45l6.587 8.469.007.009z"/><path d="m4.75 19.5-2.75.011v-11l4.5 1.492s8.061-.002 10.382-.003c.379 0 .725.214.894.553 1.071 2.142 4.952 9.902 6.277 12.553.247.494.047 1.094-.447 1.341-1.236.618-3.581 1.791-5.951 2.975-3.951 1.976-8.757.374-10.733-3.577-1.168-2.338-2.172-4.345-2.172-4.345z" fill="#00e2d7"/><g clip-path="url(#b)"><path d="m10 27 10-5 3 3-10 5z" fill="none"/><g clip-path="url(#c)" fill="none" stroke="#006266" stroke-width="2"><path d="m20 27-7-7"/><path d="m16 29-7-7"/></g><path d="m32 21.236-1.136.568-.013.055-.022.083-.023.082-.024.083-.026.082-.028.083-.028.08-.03.081-.032.08-.032.078-.034.078-.035.078-.037.079-.038.076-.039.076-.041.075-.042.075-.043.075-.044.072-.045.071-.047.073-.048.07-.049.069-.051.071-.051.067-.053.067-.054.067-.055.066-.057.065-.056.062-.059.064-.061.062-.059.06-.062.06-.063.059-.064.058-.065.057-.067.056-.068.055-.067.052-.068.052-.072.052-.072.051-.072.049-.073.048-.074.046-.074.045-.077.044-.078.043-.077.042-.071.036-1.893.947-.07.034-.081.037-.079.034-.082.034-.083.031-.082.029-.083.028-.083.025-.084.024-.084.022-.083.02-.086.019-.084.016-.084.014-.085.013-.085.011-.085.009-.086.007-.085.005-.084.003-.084.002h-.085l-.086-.002-.084-.004-.084-.005-.084-.008-.084-.009-.084-.01-.083-.013-.083-.014-.082-.016-.084-.018-.08-.02-.082-.021-.082-.023-.08-.024-.079-.027-.08-.028-.08-.029-.078-.032-.077-.033-.077-.034-.077-.037-.076-.038-.075-.04-.075-.041-.074-.044-.072-.044-.072-.046-.071-.048-.07-.05-.069-.051-.069-.053-.068-.055-.065-.055-.066-.058-.063-.059-.062-.06-.064-.063-.06-.064-.058-.063-.058-.068-.057-.068-.048-.06-5.274-6.781-.037.018-.072.033-.072.032-.075.031-.075.029-.074.028-.074.025-.075.025-.075.022-.076.022-.077.02-.076.018-.076.017-.077.015-.076.014-.077.012-.077.011-.077.009-.078.008-.087.007-.144.007-.154.002-.155-.004-.153-.01-.153-.016-.152-.022-.151-.027-.15-.034-.149-.039-.147-.044-.146-.051-.135-.053-.081-.034-.07-.032-.07-.032-.071-.035-.069-.036-.066-.037-.069-.039-.068-.04-.065-.041-.068-.044-.064-.044-.064-.045-.064-.048-.062-.047-.062-.05-.061-.051-.06-.052-.06-.054-.059-.055-.05-.049-3.402-3.402 3.501-3.5h7.856l12.472-6.236v16.972zm-11.528-6.736h-2.105l6.198 7.969.007.009.01-.005 1.857-.929.024-.012.016-.008.015-.009.015-.008.016-.01.015-.009.015-.01.014-.01.014-.009.013-.01.014-.011.015-.012.013-.01.013-.011.012-.011.013-.011.013-.012.012-.012.013-.013.011-.012.011-.011.013-.015.011-.012.011-.013.01-.013.011-.013.011-.015.009-.013.01-.014.01-.015.009-.013.01-.015.009-.016.008-.014.009-.015.008-.015.007-.015.008-.016.007-.014.007-.016.007-.016.007-.017.006-.016.006-.015.006-.018.005-.014.005-.016.005-.017.005-.017.004-.018.004-.015.004-.018.003-.016.004-.017.002-.017.003-.017.003-.019.001-.016.002-.018.002-.018.001-.017v-.016l.001-.017v-.029-1.373l1-.5v-8.028l-7.528 3.764zm-6.144 0 .06.06.007.006.009-.004.124-.062z"/></g><path d="m30 19v-11.5l-9 4.5h-8l-2 2s1.111 1.111 1.981 1.981c.608.608 1.538.759 2.308.374.387-.193.711-.355.711-.355h1s4.056 5.215 5.993 7.706c.586.752 1.621.987 2.474.561.414-.207.874-.438 1.322-.661 1.355-.678 2.211-2.063 2.211-3.578 0-.314 0-.528 0-.528z" fill="#00e2d7"/><g clip-path="url(#d)"><path d="m16 17 1-1h4.221c1.703 0 3.26.962 4.022 2.486.026.052.052.105.079.157.972 1.944.414 4.305-1.324 5.609-.573.429-.998.748-.998.748z" fill="#008b92"/></g></g></svg>