<svg clip-rule="evenodd" fill-rule="evenodd" stroke-linecap="round" stroke-miterlimit="1.5" viewBox="0 0 32 32" xmlns="http://www.w3.org/2000/svg" xmlns:xlink="http://www.w3.org/1999/xlink"><clipPath id="a"><path clip-rule="evenodd" d="m7 11 4 2 2-1 3-1 2-1h3v10h-14z"/></clipPath><path d="m0 0h32v32h-32z" fill="none"/><path d="m18 7.528v-3.04c.006-.477.078-.948.228-1.402.196-.593.517-1.143.936-1.606.446-.493 1-.883 1.614-1.138.339-.14.695-.239 1.057-.293.147-.022.294-.034.442-.044.112-.004.223-.005.335-.004.148.006.295.015.443.033.364.045.723.135 1.065.268.619.239 1.183.615 1.64 1.096.457.48.804 1.06 1.012 1.688.15.454.222.925.228 1.402v10.836c.049.019.098.038.147.058 1.131.47 2.065 1.357 2.593 2.461.201.42.342.868.42 1.326.069.415.087.837.051 1.256-.016.188-.045.374-.08.56-.133.615-.279 1.228-.423 1.84-.094.378-.201.751-.329 1.118-.278.8-.64 1.57-1.08 2.293-.755 1.24-1.736 2.34-2.881 3.232-1.146.892-2.454 1.574-3.842 2.002-.77.237-1.564.396-2.365.474-.345.033-.69.05-1.036.055l-.125.001h-.878l-.003-.003c-.271.001-.543.001-.814-.001-.372-.005-.743-.025-1.112-.064-.806-.085-1.603-.255-2.374-.506-1.359-.443-2.634-1.138-3.743-2.04-1.048-.853-1.946-1.889-2.64-3.048-.376-.627-.692-1.289-.943-1.975-.128-.348-.236-.703-.332-1.062-.965-3.772-1.89-7.554-2.835-11.331-.036-.159-.069-.318-.089-.481-.04-.324-.04-.652 0-.976.126-1.032.663-1.991 1.475-2.64.298-.237.629-.432.982-.576.302-.123.619-.21.943-.256.162-.024.324-.033.487-.04.163 0 .163 0 .326.006.145.012.181.013.325.034.215.03.428.079.636.144.938.297 1.748.942 2.246 1.791.137.234.251.483.338.74.032.092.045.139.062.201l.012-.005c.362-.167.747-.285 1.141-.351.158-.026.317-.042.476-.053.12-.006.24-.008.36-.007.12.004.239.01.358.022.318.032.633.098.936.197.065.021.129.044.192.067.195-.344.435-.664.713-.946.456-.462 1.011-.823 1.619-1.052.323-.122.661-.206 1.004-.251.172-.023.344-.033.517-.038.13 0 .129 0 .259.004.103.006.204.013.306.024z"/><path d="m7 11 4 2 2-1 3-1 2-1h3v10h-14z" fill="#0f360f"/><path d="m20 12.005v-7.505c0-.663.263-1.299.732-1.768s1.105-.732 1.768-.732 1.299.263 1.768.732.732 1.105.732 1.768v10.5l-1 1 1 1h.229c.914 0 1.778.417 2.348 1.132.569.716.781 1.652.575 2.543-.116.502-.238 1.032-.363 1.574-1.047 4.537-5.088 7.751-9.744 7.751h-.045l.002-.004h-.002c-.575 0-1.155.007-1.733-.002-.912-.024-1.816-.168-2.687-.442-1.098-.345-2.132-.889-3.039-1.598-.855-.667-1.596-1.479-2.182-2.392-.529-.824-.923-1.725-1.186-2.668-1.011-3.788-1.904-7.606-2.855-11.409-.022-.101-.03-.126-.043-.228-.02-.154-.022-.31-.006-.465.069-.663.477-1.261 1.07-1.568.172-.089.357-.153.548-.189.101-.019.128-.02.23-.03.117-.005.117-.005.233-.003.195.015.384.045.569.11.479.168.882.518 1.115.968.072.14.122.284.165.435.54 2.159 1.06 4.324 1.595 6.485h.37c-.195-.798-.39-1.597-.589-2.394-.068-.291-.093-.587-.059-.885.026-.237.087-.47.179-.689.243-.579.705-1.053 1.278-1.311.301-.136.621-.204.95-.22.09-.001.089-.001.179.001.208.012.413.043.614.103.573.171 1.073.549 1.394 1.054.128.202.222.42.292.648.201.745.394 1.492.583 2.24.007-1.182.015-2.365.015-3.547.006-.293.05-.579.151-.855.256-.705.83-1.268 1.54-1.51.246-.085.5-.124.76-.135.097 0 .097 0 .194.004.292.023.575.084.845.2.628.271 1.125.799 1.359 1.441.089.245.134.498.149.758z" fill="#43782e"/><path d="m17 18h2v-.806c.3.172.579.385.828.634 1.943 1.943 4.172 4.172 4.172 4.172v2.158c0 .923-.426 1.796-1.154 2.364-.728.569-1.677.77-2.574.546-.917-.229-1.782-.445-2.294-.574-.318-.079-.643-.119-.97-.119-.005 0-.011 0-.016 0-.327 0-.652.04-.97.119-.512.129-1.377.345-2.294.574-.897.224-1.846.023-2.574-.546-.728-.568-1.154-1.441-1.154-2.364 0-.172 0-.34 0-.501 0-1.061.421-2.078 1.172-2.829.819-.819 1.951-1.951 3-3 .299-.299.642-.547 1.014-.735z" fill="#1c4b11"/><path d="m7 11 4 2 2-1 3-1 2-1h3v10h-14z" fill="none"/><g clip-path="url(#a)" fill="none" stroke="#0f360f"><path d="m9.015 11v.754c0 .163.02.326.06.485.179.717.726 2.905 1.147 4.587.292 1.168 1.473 1.881 2.643 1.594h.001c.959-.235 1.634-1.095 1.634-2.082 0-2.347 0-6.318 0-6.318"/><path d="m19.5 7v8.378c0 1.206-.911 2.217-2.111 2.341-.096.011-.194.021-.291.031-.664.069-1.325-.147-1.82-.593-.495-.447-.778-1.082-.778-1.749 0-2.334 0-5.388 0-5.388"/></g><path d="m6.072 10.393c.849-.212 1.795.641 2.109 1.903.315 1.262-.119 2.459-.969 2.671s-1.795-.641-2.109-1.903c-.315-1.262.119-2.459.969-2.671z" fill="#1c4b11"/><path d="m25 16h-7v1c0 2.761 2.239 5 5 5h1" fill="#43782e" stroke="#0f360f" stroke-linecap="butt" stroke-width="2"/><ellipse cx="22.5" cy="6.5" fill="#1c4b11" rx="2" ry="3"/></svg>