<svg clip-rule="evenodd" fill-rule="evenodd" stroke-linejoin="round" stroke-miterlimit="1.41421" viewBox="0 0 32 32" xmlns="http://www.w3.org/2000/svg" xmlns:xlink="http://www.w3.org/1999/xlink"><clipPath id="a"><path clip-rule="evenodd" d="m0 0h32v32h-32z"/></clipPath><path d="m0 0h32v32h-32z" fill="none"/><g clip-path="url(#a)"><path d="m16.199.001.198.004.198.006.198.009.198.011.197.013.197.016.196.018.196.021.196.023.195.025.195.028.194.031.193.032.193.035.193.037.192.04.191.042.191.044.19.047.189.048.189.051.188.054.187.056.187.058.186.06.185.062.184.065.183.067.183.069.181.071.181.074.18.076.179.078.178.08.176.082.177.085.175.086.173.089.173.091.172.093.171.095.169.097.169.1.167.101.166.104.165.105.164.108.162.11.161.112.16.114.159.116.157.117.156.12.155.123.153.124.152.125.15.128.149.13.148.132.146.134.145.136.142.138.142.139.14.142.137.143.136.144.134.146.132.148.13.149.128.15.126.152.123.153.123.155.119.156.118.157.116.159.114.16.112.161.11.162.108.164.105.165.104.166.101.167.1.169.097.169.095.171.093.172.091.173.089.174.086.175.085.175.082.178.08.177.078.179.076.18.074.18.071.182.069.183.067.183.065.185.062.185.06.185.058.186.056.188.054.188.051.189.048.189.047.19.044.191.042.191.04.192.037.192.035.193.033.194.03.194.028.195.025.195.023.195.021.196.018.197.016.197.013.197.011.198.009.198.006.198.004.198.001.192v3.014l-.001.16-.003.167-.005.167-.008.166-.009.166-.012.165-.013.164-.016.165-.018.163-.019.163-.022.163-.024.161-.025.161-.028.161-.029.159-.032.16-.034.158-.035.158-.037.157-.039.156-.041.156-.043.155-.045.154-.047.153-.048.153-.05.151-.052.151-.055.15-.055.149-.057.148-.06.148-.06.145-.063.146-.064.145-.066.143-.068.143-.069.142-.071.14-.073.14-.074.139-.076.138-.078.136-.079.136-.08.134-.082.134-.084.133-.086.131-.086.13-.089.129-.089.128-.092.127-.093.125-.094.125-.095.123-.098.122-.098.121-.1.12-.102.118-.103.118-.104.115-.105.115-.107.113-.108.113-.11.11-.11.11-.112.108-.114.107-.115.105-.116.105-.117.102-.118.102-.12.1-.121.098-.122.097-.123.096-.125.094-.125.093-.127.092-.128.089-.129.089-.131.087-.131.085-.132.083-.134.083-.134.08-.136.08-.137.077-.137.076-.139.074-.14.073-.14.071-.142.069-.143.068-.143.066-.145.064-.145.063-.146.06-.148.06-.148.057-.149.056-.15.053-.151.053-.152.05-.152.048-.153.047-.154.045-.155.043-.155.041-.157.039-.157.037-.158.036-.158.033-.159.031-.16.03-.161.028-.161.025-.161.024-.163.022-.163.019-.163.018-.164.016-.165.013-.165.012-.166.009-.166.008-.166.005-.168.003-.161.001h-6.012l-.161-.001-.168-.003-.166-.005-.166-.008-.166-.009-.165-.012-.165-.013-.164-.016-.163-.018-.163-.019-.163-.022-.161-.024-.161-.025-.161-.028-.16-.03-.159-.031-.158-.033-.158-.036-.157-.037-.156-.039-.156-.041-.155-.043-.154-.045-.153-.047-.153-.048-.151-.05-.151-.053-.15-.053-.149-.056-.148-.057-.147-.059-.147-.061-.145-.063-.145-.064-.144-.066-.142-.068-.142-.069-.141-.071-.139-.073-.139-.074-.138-.076-.136-.078-.136-.079-.134-.08-.134-.082-.132-.084-.132-.086-.13-.086-.129-.089-.128-.09-.126-.091-.126-.093-.125-.094-.123-.096-.122-.097-.121-.098-.12-.1-.118-.102-.118-.103-.115-.103-.115-.106-.113-.107-.113-.108-.111-.11-.109-.11-.108-.112-.107-.114-.105-.115-.104-.115-.103-.118-.102-.119-.1-.119-.098-.121-.097-.122-.096-.123-.094-.125-.093-.125-.091-.127-.091-.128-.088-.129-.086-.13-.086-.132-.084-.132-.082-.133-.08-.135-.079-.136-.078-.137-.076-.137-.074-.139-.073-.14-.071-.14-.069-.142-.068-.142-.066-.144-.064-.145-.063-.145-.061-.147-.058-.147-.058-.148-.056-.149-.053-.15-.053-.151-.05-.152-.048-.151-.047-.154-.045-.154-.043-.155-.041-.156-.039-.156-.037-.157-.036-.158-.033-.158-.031-.159-.03-.16-.028-.161-.025-.161-.024-.162-.022-.162-.019-.163-.018-.163-.016-.164-.013-.165-.012-.165-.009-.166-.008-.166-.005-.166-.003-.168-.001-.161v-3.012l.001-.2.004-.206.007-.205.009-.205.011-.203.015-.204.016-.203.02-.202.021-.201.024-.2.027-.2.029-.199.032-.199.034-.197.036-.196.039-.196.041-.196.044-.193.046-.194.048-.192.05-.191.053-.191.055-.19.058-.188.059-.188.062-.186.064-.186.066-.184.069-.184.071-.182.072-.181.075-.181.077-.179.079-.177.081-.177.084-.176.085-.174.088-.173.089-.172.091-.171.094-.169.095-.169.097-.166.099-.166.102-.164.103-.163.105-.162.107-.16.109-.159.11-.157.112-.157.115-.154.116-.153.117-.152.12-.151.121-.148.123-.148.125-.146.127-.144.128-.142.13-.142.131-.139.133-.138.135-.137.137-.134.138-.134.139-.131.142-.13.142-.128.145-.127.145-.125.148-.123.149-.121.15-.119.151-.118.154-.116.154-.115.157-.112.157-.11.159-.109.16-.107.162-.105.163-.103.164-.101.166-.1.166-.097.168-.095.17-.094.171-.091.172-.089.173-.088.174-.085.176-.084.176-.081.178-.079.18-.077.18-.075.181-.073.182-.07.184-.069.184-.066.186-.064.186-.062.188-.059.188-.058.19-.055.19-.053.192-.05.192-.048.193-.046.195-.044.194-.041.196-.039.197-.036.198-.034.198-.032.199-.029.2-.027.2-.024.202-.022.201-.019.203-.016.203-.015.204-.011.205-.009.205-.007.206-.004.206-.001.199.001zm-.355 4-.155.003-.154.005-.154.007-.154.008-.152.011-.153.013-.151.014-.151.016-.151.019-.15.02-.149.021-.149.024-.148.026-.147.027-.146.029-.146.031-.146.032-.145.035-.143.036-.144.038-.142.039-.142.041-.141.043-.141.045-.139.046-.139.048-.138.05-.137.051-.137.053-.136.054-.135.056-.133.058-.133.059-.133.061-.132.062-.13.064-.13.066-.129.067-.128.068-.126.07-.127.072-.125.073-.124.074-.123.076-.122.077-.122.079-.12.08-.119.082-.118.083-.118.084-.116.086-.115.087-.114.088-.113.09-.111.091-.111.093-.109.094-.109.095-.107.096-.106.098-.105.098-.104.1-.102.102-.102.102-.1.104-.098.105-.098.106-.096.107-.095.109-.094.109-.092.111-.092.112-.089.112-.089.114-.087.116-.086.115-.084.117-.083.119-.082.119-.08.12-.079.122-.077.122-.076.123-.074.124-.073.126-.072.125-.07.127-.068.128-.067.129-.066.13-.064.131-.062.131-.061.132-.059.134-.058.134-.056.134-.054.136-.053.137-.051.137-.05.138-.048.138-.046.14-.045.141-.043.141-.041.142-.039.142-.038.144-.036.143-.035.145-.032.146-.031.145-.029.147-.027.148-.026.148-.024.148-.021.149-.02.15-.019.15-.016.152-.014.152-.013.152-.011.152-.008.154-.007.154-.005.154-.003.155-.001.162v2.988l.001.123.002.116.004.117.005.115.006.115.008.115.01.114.011.114.012.113.014.113.014.113.017.111.018.112.019.11.02.111.022.11.023.109.024.109.026.109.027.108.029.107.029.107.031.106.032.106.034.106.035.104.035.104.038.104.038.102.04.103.041.102.041.1.044.101.044.1.046.099.047.099.048.098.049.097.05.097.051.096.053.095.053.094.055.094.056.093.057.093.058.092.059.09.06.091.061.089.062.089.063.087.065.088.065.086.067.086.067.084.069.084.069.083.07.082.071.081.073.081.073.08.074.078.075.078.076.077.077.076.078.075.078.074.08.073.081.073.081.071.082.07.083.07.084.068.084.067.086.067.086.065.087.064.089.064.088.062.089.061.091.06.09.059.092.058.093.057.093.056.094.055.094.053.095.053.096.051.097.051.097.049.098.047.099.047.099.046.1.044.1.044.101.041.102.041.103.04.103.038.103.038.104.035.105.035.105.034.106.032.106.031.107.029.107.029.108.027.109.026.109.024.109.023.11.022.11.02.111.019.112.018.112.017.112.015.113.013.113.012.114.011.114.01.115.008.115.006.116.005.116.004.116.002.123.001h5.988l.123-.001.116-.002.116-.004.116-.005.115-.006.115-.008.114-.01.114-.011.113-.012.113-.013.112-.015.112-.017.112-.018.111-.019.11-.02.11-.022.11-.023.109-.024.108-.026.108-.027.107-.029.107-.029.106-.031.106-.032.105-.034.105-.035.104-.035.103-.038.104-.038.102-.04.101-.04.102-.042.1-.044.1-.044.099-.046.099-.047.098-.047.097-.05.097-.05.095-.051.096-.053.095-.053.093-.055.093-.056.093-.057.091-.058.092-.059.09-.06.089-.061.089-.062.087-.064.088-.064.086-.065.085-.067.085-.067.084-.069.083-.069.082-.07.082-.071.08-.073.08-.073.078-.074.078-.075.077-.076.076-.077.075-.078.074-.078.073-.08.073-.081.071-.081.07-.082.07-.083.068-.084.067-.084.067-.086.065-.086.064-.087.063-.088.063-.089.061-.089.06-.091.06-.091.057-.091.057-.092.056-.094.055-.094.053-.094.053-.096.051-.095.05-.097.05-.097.047-.098.047-.099.046-.099.044-.1.043-.1.043-.102.04-.101.04-.102.039-.104.037-.103.035-.104.035-.105.034-.105.032-.106.031-.106.029-.107.029-.107.027-.108.026-.109.024-.109.023-.109.022-.11.02-.111.019-.11.018-.112.017-.112.015-.112.013-.113.012-.113.011-.114.01-.114.008-.115.006-.115.005-.116.004-.115.002-.117.001-.124v-2.986l-.001-.156-.003-.149-.004-.149-.007-.148-.008-.148-.01-.148-.012-.148-.014-.147-.015-.147-.018-.147-.019-.146-.021-.146-.022-.146-.025-.145-.026-.144-.028-.145-.029-.144-.032-.144-.033-.142-.035-.143-.037-.142-.038-.142-.04-.14-.042-.141-.043-.14-.045-.139-.047-.139-.049-.138-.05-.137-.052-.137-.053-.136-.056-.136-.056-.135-.059-.134-.06-.134-.062-.132-.063-.132-.065-.132-.067-.13-.068-.13-.07-.129-.071-.128-.073-.127-.074-.126-.076-.125-.078-.125-.08-.124-.08-.123-.083-.121-.083-.121-.086-.12-.087-.119-.088-.118-.09-.117-.091-.116-.094-.115-.094-.114-.096-.113-.097-.111-.099-.111-.101-.109-.102-.109-.103-.107-.105-.106-.106-.105-.107-.104-.108-.101-.11-.101-.11-.098-.112-.098-.113-.096-.114-.095-.115-.092-.116-.092-.117-.09-.118-.088-.119-.087-.12-.086-.121-.084-.122-.082-.122-.081-.124-.079-.124-.077-.126-.077-.126-.074-.127-.073-.128-.071-.129-.07-.13-.068-.131-.067-.131-.065-.131-.063-.133-.062-.134-.06-.134-.059-.135-.057-.135-.055-.137-.053-.136-.052-.138-.05-.138-.049-.139-.047-.139-.045-.14-.043-.141-.042-.14-.04-.142-.038-.142-.037-.143-.035-.143-.033-.143-.032-.144-.029-.144-.028-.145-.026-.145-.025-.146-.022-.146-.021-.146-.019-.147-.018-.147-.015-.147-.014-.148-.012-.148-.01-.148-.008-.148-.007-.149-.004-.149-.003-.149-.001z"/><path d="m30 16c0-3.713-1.475-7.274-4.101-9.899-2.625-2.626-6.186-4.101-9.899-4.101-7.732 0-14 6.268-14 14v3c0 6.075 4.925 11 11 11h6c6.075 0 11-4.925 11-11 0-.986 0-1.993 0-3z" fill="#fbc546"/><path d="m14 17.586 2 2 2-2 2 2 2-2 2.414 2.414h2.586l.09.004.089.012.087.02.085.028.083.035.079.043.075.049.07.056.065.062.059.068.053.072.046.077.039.081.031.084.024.086.016.089.008.089v.09l-.008.089-.016.089-.024.086-.031.084-.039.081-.046.077-.053.072-.059.068-.065.062-.07.056-.075.049-.079.043-.083.035-.085.028-.087.02-.089.012-.09.004h-3.414l-1.586-1.586-2 2-2-2-2 2-2-2-2 2-2-2-1.586 1.586h-2.414l-.09-.004-.089-.012-.087-.02-.085-.028-.083-.035-.079-.043-.075-.049-.07-.056-.065-.062-.059-.068-.053-.072-.046-.077-.039-.081-.031-.084-.024-.086-.016-.089-.008-.089v-.09l.008-.089.016-.089.024-.086.031-.084.039-.081.046-.077.053-.072.059-.068.065-.062.07-.056.075-.049.079-.043.083-.035.085-.028.087-.02.089-.012.09-.004h1.586l2.414-2.414 2 2z" fill="#593604"/><path d="m24 20h3s1.366 1.366 2.501 2.501c.828.828.828 2.17 0 2.998-.001.001-.001.001-.002.002-.828.828-2.17.828-2.998 0-1.135-1.135-2.501-2.501-2.501-2.501z" fill="#a29e90"/><path d="m30.924 21.096.065.066.071.077.07.079.066.079.065.082.063.083.06.085.058.084.055.087.054.088.05.088.049.089.046.091.043.091.042.092.039.094.037.094.034.094.031.093.03.096.028.098.024.095.023.097.02.098.017.096.015.097.014.098.01.1.008.098.006.097.004.099.001.099-.001.099-.004.099-.006.097-.008.098-.01.1-.014.098-.014.095-.018.098-.02.099-.023.096-.024.095-.028.098-.029.095-.032.094-.034.095-.037.093-.039.094-.042.092-.043.091-.046.09-.049.09-.05.088-.054.088-.056.087-.057.084-.06.085-.063.083-.064.081-.067.08-.07.079-.071.077-.058.06-.019.019-.074.072-.078.072-.077.068-.081.067-.081.065-.083.063-.084.06-.085.058-.087.056-.087.052-.089.051-.09.049-.09.046-.092.044-.092.041-.093.039-.093.037-.094.034-.095.032-.096.029-.096.028-.096.024-.097.023-.097.02-.097.017-.098.016-.098.013-.098.01-.099.008-.098.006-.098.004-.099.001-.099-.001-.098-.004-.098-.006-.099-.008-.098-.01-.098-.013-.098-.016-.097-.017-.097-.02-.097-.023-.096-.024-.096-.028-.096-.029-.095-.032-.094-.034-.093-.037-.094-.039-.092-.041-.091-.044-.091-.046-.089-.049-.088-.05-.088-.054-.087-.055-.085-.058-.084-.06-.083-.063-.081-.065-.08-.066-.079-.07-.077-.072-.066-.064-3.096-3.096v-5.828h5.828zm-6.924-1.096v3l2.501 2.501.039.038.04.037.041.036.041.034.042.034.042.032.044.031.043.03.045.028.045.027.045.026.046.025.046.024.047.022.048.022.047.02.048.018.049.018.048.016.049.016.05.013.049.013.05.012.05.01.05.009.051.008.05.007.051.005.051.004.05.003.051.002.051.001.051-.001.051-.002.05-.003.051-.004.051-.005.05-.007.051-.008.05-.009.05-.01.05-.012.049-.013.05-.013.049-.016.048-.016.049-.018.048-.018.047-.02.048-.022.047-.022.046-.024.046-.025.045-.026.045-.027.044-.028.044-.03.043-.031.043-.032.042-.034.041-.034.041-.036.04-.037.039-.038.002-.002.038-.039.037-.04.036-.041.034-.041.034-.042.032-.043.031-.043.03-.044.028-.044.027-.045.026-.045.025-.046.024-.046.022-.047.022-.048.02-.047.018-.048.018-.049.016-.048.016-.049.013-.05.013-.049.012-.05.01-.05.009-.05.008-.051.007-.05.005-.051.004-.051.003-.05.002-.051.001-.051-.001-.051-.002-.051-.003-.05-.004-.051-.005-.051-.007-.05-.008-.051-.009-.05-.01-.05-.012-.05-.013-.049-.013-.05-.016-.049-.016-.048-.018-.049-.018-.048-.02-.047-.022-.048-.022-.047-.024-.046-.025-.046-.026-.045-.027-.045-.028-.045-.03-.043-.031-.044-.032-.042-.034-.042-.034-.041-.036-.041-.037-.04-.038-.039-2.501-2.501z"/><path d="m11 11.5c0-.828-.672-1.5-1.5-1.5s-1.5.672-1.5 1.5v3c0 .828.672 1.5 1.5 1.5s1.5-.672 1.5-1.5c0-.916 0-2.084 0-3z"/><path d="m24 11.5c0-.828-.672-1.5-1.5-1.5s-1.5.672-1.5 1.5v3c0 .828.672 1.5 1.5 1.5s1.5-.672 1.5-1.5c0-.916 0-2.084 0-3z"/></g></svg>