<svg clip-rule="evenodd" fill-rule="evenodd" stroke-linejoin="round" stroke-miterlimit="1.41421" viewBox="0 0 32 32" xmlns="http://www.w3.org/2000/svg" xmlns:xlink="http://www.w3.org/1999/xlink"><clipPath id="a"><path clip-rule="evenodd" d="m0 0h32v32h-32z"/></clipPath><clipPath id="b"><path clip-rule="evenodd" d="m29 15c0-7.18-5.82-13-13-13-7.18 0-13 5.82-13 13v2c0 2.917 1.159 5.715 3.222 7.778s4.861 3.222 7.778 3.222h4c2.917 0 5.715-1.159 7.778-3.222s3.222-4.861 3.222-7.778c0-.662 0-1.331 0-2z"/></clipPath><path d="m0 0h32v32h-32z" fill="none"/><g clip-path="url(#a)"><path d="m16.193.001.193.004.192.006.192.008.191.011.191.014.19.015.189.018.189.021.188.022.187.025.187.028.186.029.185.032.184.034.184.037.183.038.182.041.181.043.18.045.18.048.178.049.178.052.177.054.176.056.175.058.174.06.173.062.171.064.171.066.17.068.169.071.168.072.167.074.166.076.164.078.164.08.162.082.161.084.16.086.159.087.158.09.156.091.155.093.155.095.152.096.152.099.15.1.149.102.148.104.146.105.145.107.144.109.142.11.141.112.139.114.138.115.137.117.135.119.134.12.132.122.131.123.13.125.128.126.126.128.125.13.123.131.122.132.12.134.119.135.117.137.115.138.114.139.112.141.11.142.109.144.107.145.105.146.104.148.102.149.1.15.099.152.096.153.095.153.093.156.092.156.089.158.087.159.086.16.084.161.082.162.08.164.078.164.076.166.074.167.072.168.071.169.068.17.066.171.064.171.062.174.06.173.058.175.056.176.054.177.052.178.049.178.048.18.045.18.043.181.041.182.038.183.037.184.034.184.032.185.029.186.028.187.025.187.022.188.021.189.018.189.015.19.014.191.011.191.008.191.006.193.004.193.001.186v2.013l-.001.156-.003.161-.005.161-.007.161-.009.16-.011.16-.013.16-.015.16-.016.159-.019.159-.021.159-.022.158-.025.157-.026.158-.029.157-.03.156-.032.156-.034.156-.036.154-.038.155-.04.154-.041.153-.044.153-.045.152-.047.152-.049.151-.051.15-.052.149-.055.149-.056.148-.058.148-.06.147-.061.146-.063.145-.066.145-.066.144-.069.143-.071.142-.071.141-.074.14-.076.14-.077.139-.079.137-.081.137-.083.137-.084.134-.085.134-.088.133-.089.133-.091.13-.093.13-.094.129-.096.128-.097.127-.099.125-.101.125-.102.123-.104.122-.106.122-.107.119-.109.119-.11.117-.112.117-.114.114-.114.114-.116.112-.118.11-.119.109-.119.107-.121.106-.123.104-.123.102-.125.101-.125.099-.127.097-.128.096-.129.094-.13.093-.131.091-.132.089-.133.087-.134.086-.135.084-.136.083-.136.081-.138.079-.139.077-.139.076-.141.073-.141.073-.142.07-.143.069-.144.066-.145.066-.145.063-.146.061-.147.06-.147.058-.149.056-.149.055-.149.052-.151.051-.151.049-.151.047-.152.045-.153.044-.153.041-.154.04-.155.038-.155.036-.155.034-.156.032-.156.03-.157.029-.158.026-.157.025-.158.022-.159.021-.159.019-.159.016-.16.015-.16.013-.16.011-.16.009-.161.007-.161.005-.162.003-.155.001h-4.012l-.144-.001-.149-.002-.149-.005-.082-.003-.037.065-.051.083-.054.082-.056.081-.057.08-.059.078-.062.077-.064.076-.065.074-.067.072-.069.071-.072.07-.072.067-.074.066-.076.063-.077.062-.078.059-.08.058-.081.055-.082.053-.083.052-.085.049-.085.047-.087.045-.088.043-.088.04-.09.039-.091.036-.091.034-.093.032-.092.029-.094.027-.095.026-.095.022-.096.021-.096.018-.097.015-.098.014-.098.011-.098.008-.099.006-.099.004-.087.001h-3.025l-.089-.001-.102-.004-.102-.006-.101-.009-.1-.012-.1-.014-.099-.016-.098-.019-.097-.021-.097-.024-.096-.026-.095-.028-.094-.03-.092-.033-.092-.035-.091-.037-.089-.039-.088-.041-.087-.044-.086-.045-.084-.047-.084-.049-.081-.051-.081-.053-.079-.055-.078-.057-.076-.058-.074-.06-.073-.062-.072-.064-.07-.065-.069-.066-.066-.069-.065-.07-.064-.071-.062-.074-.06-.074-.058-.076-.057-.078-.055-.079-.053-.081-.051-.082-.049-.082-.047-.085-.045-.086-.044-.087-.041-.088-.039-.089-.037-.091-.035-.092-.033-.093-.03-.093-.028-.095-.026-.096-.024-.096-.021-.098-.019-.098-.016-.1-.014-.099-.012-.1-.009-.101-.006-.102-.004-.102-.001-.089v-4.085l-.048-.076-.065-.106-.064-.106-.063-.107-.061-.108-.061-.108-.06-.109-.059-.109-.057-.11-.057-.11-.055-.111-.055-.111-.053-.112-.052-.112-.052-.113-.05-.113-.049-.114-.048-.114-.047-.115-.045-.115-.045-.115-.044-.116-.042-.117-.042-.116-.04-.118-.039-.117-.038-.118-.037-.118-.036-.119-.035-.119-.033-.12-.033-.119-.031-.12-.03-.121-.029-.121-.028-.121-.027-.121-.025-.122-.025-.122-.023-.122-.022-.123-.021-.122-.02-.124-.018-.123-.018-.124-.016-.124-.015-.123-.014-.125-.012-.124-.012-.125-.01-.125-.009-.125-.008-.125-.007-.125-.005-.126-.005-.126-.003-.126-.001-.126-.001-.121v-2.011l.001-.187.004-.193.006-.192.008-.192.011-.191.014-.191.015-.19.018-.189.021-.189.022-.188.025-.187.028-.187.029-.186.032-.185.034-.184.037-.184.038-.183.041-.182.043-.181.045-.18.048-.18.049-.178.052-.178.054-.177.056-.176.058-.175.06-.174.062-.172.064-.172.066-.171.068-.17.071-.169.072-.168.074-.167.076-.166.078-.164.08-.164.082-.162.084-.161.086-.16.087-.159.089-.158.092-.156.093-.156.095-.154.096-.152.099-.152.1-.15.102-.149.104-.148.105-.146.107-.145.109-.144.11-.142.112-.141.114-.139.115-.138.117-.137.119-.135.12-.134.122-.132.123-.131.125-.13.126-.128.128-.126.13-.125.131-.123.132-.122.134-.12.135-.119.137-.117.138-.115.139-.114.141-.112.142-.11.144-.109.145-.107.146-.105.148-.104.149-.102.15-.1.152-.099.152-.096.154-.095.156-.093.156-.091.158-.09.159-.087.16-.086.161-.084.162-.082.164-.08.164-.078.166-.076.167-.074.168-.072.169-.071.169-.068.171-.066.172-.064.174-.062.173-.06.175-.058.176-.056.177-.054.178-.052.178-.049.18-.048.18-.045.181-.043.182-.041.183-.038.184-.037.184-.034.185-.032.186-.029.187-.028.187-.025.188-.022.189-.021.189-.018.19-.015.191-.014.191-.011.191-.008.193-.006.193-.004.193-.001.193.001zm-3.628 25.884.101.016.102.014.101.014.102.012.102.011.102.01.103.009.103.008.102.006.103.005.104.005.103.003.103.001.11.001h3.988l.118-.001.112-.002.111-.003.111-.005.111-.006.111-.008.111-.009.111-.01.11-.012.11-.013.11-.014.109-.016.109-.017.109-.018.109-.02.108-.021.108-.022.108-.023.107-.025.107-.026.106-.028.106-.029.106-.03.105-.031.105-.033.105-.034.104-.035.103-.036.104-.038.102-.039.102-.04.102-.041.101-.043.101-.044.1-.045.1-.046.099-.048.098-.048.098-.05.097-.051.097-.053.096-.053.095-.055.095-.056.094-.057.093-.058.093-.06.092-.06.092-.062.09-.063.09-.064.09-.065.088-.066.088-.068.086-.068.087-.07.085-.071.085-.072.083-.073.083-.074.083-.076.081-.076.08-.077.08-.079.079-.08.077-.08.076-.081.076-.082.074-.084.073-.083.072-.085.071-.085.07-.086.068-.087.068-.088.066-.089.065-.089.064-.09.063-.091.062-.091.06-.092.06-.093.058-.093.057-.094.056-.095.055-.096.053-.095.053-.097.051-.097.05-.098.049-.099.047-.098.046-.1.045-.1.044-.101.043-.101.041-.101.04-.103.039-.103.038-.102.036-.104.036-.104.033-.105.033-.105.031-.105.03-.105.029-.107.028-.106.026-.107.025-.108.023-.107.022-.108.021-.108.02-.109.018-.109.017-.109.016-.11.014-.109.013-.11.012-.111.01-.11.009-.11.008-.112.006-.111.005-.111.003-.111.002-.112.001-.118v-1.987l-.001-.15-.003-.142-.004-.141-.006-.142-.008-.14-.01-.14-.012-.14-.013-.139-.015-.139-.017-.138-.018-.137-.02-.137-.022-.136-.023-.135-.025-.136-.027-.134-.028-.134-.03-.133-.031-.133-.033-.132-.035-.131-.036-.131-.038-.13-.039-.129-.041-.128-.043-.128-.043-.128-.046-.126-.047-.126-.048-.125-.05-.124-.052-.124-.052-.123-.055-.122-.056-.121-.057-.121-.058-.12-.06-.119-.062-.117-.062-.118-.065-.116-.065-.116-.067-.114-.068-.114-.07-.114-.071-.112-.072-.111-.073-.11-.075-.109-.076-.108-.078-.108-.078-.106-.08-.106-.081-.104-.083-.104-.083-.102-.085-.102-.086-.1-.087-.099-.088-.099-.09-.097-.09-.096-.092-.095-.093-.094-.094-.093-.095-.092-.096-.09-.097-.09-.099-.088-.099-.087-.1-.086-.102-.085-.102-.083-.104-.083-.104-.081-.106-.08-.106-.078-.108-.078-.108-.076-.109-.074-.11-.074-.112-.072-.112-.071-.112-.07-.114-.068-.115-.067-.116-.065-.116-.064-.117-.063-.119-.062-.118-.06-.12-.058-.121-.057-.121-.056-.122-.055-.123-.052-.123-.052-.125-.05-.125-.048-.126-.047-.126-.045-.128-.044-.128-.043-.128-.041-.13-.039-.129-.038-.131-.036-.131-.035-.132-.033-.133-.031-.133-.03-.134-.028-.134-.027-.135-.025-.136-.023-.136-.022-.137-.02-.137-.018-.138-.017-.139-.015-.139-.013-.14-.012-.14-.01-.14-.008-.141-.006-.142-.004-.142-.003-.143-.001-.143.001-.142.003-.142.004-.141.006-.14.008-.14.01-.14.012-.139.013-.139.015-.138.017-.137.018-.137.02-.136.022-.136.023-.135.025-.134.027-.134.028-.133.03-.133.031-.132.033-.131.035-.131.036-.13.038-.129.039-.128.041-.128.043-.128.044-.126.045-.126.047-.125.048-.124.05-.124.052-.123.053-.122.054-.121.056-.121.057-.12.058-.119.06-.118.062-.117.062-.116.065-.116.065-.115.067-.113.068-.113.07-.113.071-.111.072-.11.074-.109.074-.108.076-.108.078-.106.078-.106.08-.104.081-.104.083-.102.083-.102.085-.1.086-.099.087-.099.088-.097.09-.096.09-.095.092-.094.093-.093.094-.092.095-.09.096-.09.097-.088.099-.087.099-.086.1-.085.102-.083.102-.083.104-.081.104-.08.106-.078.106-.078.108-.076.108-.075.109-.073.11-.072.112-.071.112-.07.113-.068.113-.067.115-.065.116-.065.116-.062.117-.062.119-.06.118-.058.12-.057.121-.056.121-.055.122-.052.123-.052.124-.05.124-.048.125-.047.126-.046.126-.043.128-.043.128-.041.128-.039.129-.038.131-.036.13-.035.131-.033.132-.031.133-.03.133-.028.134-.027.134-.025.135-.023.136-.022.136-.02.137-.018.137-.017.138-.015.139-.013.139-.012.14-.01.14-.008.14-.006.141-.004.142-.003.142-.001.149v1.989.092l.002.088.002.087.003.087.004.087.004.087.006.087.006.086.007.086.008.087.009.086.009.086.011.086.011.086.012.085.013.086.014.085.014.085.015.085.016.084.017.085.018.084.019.084.019.084.02.083.021.084.021.083.023.083.023.083.024.082.025.082.026.082.026.082.027.081.028.081.028.081.03.081.03.08.031.08.032.08.032.079.033.079.034.079.035.078.036.078.036.078.037.077.037.077.039.077.039.077.04.076.041.075.041.075.042.075.043.075.043.074.045.073.045.074.045.073.047.072.047.072.048.072.048.071.413.594v5.289.013h.013 2.975.012v-.012-2.41l.149-.125 2.315.415.101.017z"/><path d="m29 15c0-7.18-5.82-13-13-13-7.18 0-13 5.82-13 13v2c0 2.917 1.159 5.715 3.222 7.778s4.861 3.222 7.778 3.222h4c2.917 0 5.715-1.159 7.778-3.222s3.222-4.861 3.222-7.778c0-.662 0-1.331 0-2z" fill="#fbc546"/><g clip-path="url(#b)"><path d="m16 22s-1.983-1.416-3.838-2.741c-.609-.436-1.411-.494-2.077-.151s-1.085 1.029-1.085 1.778v8.114c0 .552.448 1 1 1h3c.265 0 .52-.105.707-.293.188-.187.293-.442.293-.707 0-.5 0-1 0-1h8s-3.011-3.614-4.36-5.232c-.406-.487-1.006-.768-1.64-.768z" fill="#e59a10"/><path d="m8.5 20s-1.458.833-2.492 1.424c-.623.356-1.008 1.019-1.008 1.737v4.839c0 1.105.895 2 2 2h3c.53 0 1.039-.211 1.414-.586s.586-.884.586-1.414c0-1.392 0-3 0-3h3c.552 0 1-.448 1-1 0-.265-.105-.52-.293-.707-.187-.188-.442-.293-.707-.293-2.042 0-6.5 0-6.5 0z" fill="#fbc546"/><path d="m10.5 21h4.525l.124.003.147.011.147.018.145.026.144.032.141.039.139.046.136.053.134.059.131.066.127.072.125.079.121.085.116.09.112.097.108.102.102.108.097.112.091.117.084.12.079.124.072.128.066.131.059.134.053.136.046.139.039.141.032.144.026.146.018.146.011.147.004.149-.004.152-.012.152-.019.15-.026.149-.034.145-.04.143-.048.14-.054.138-.06.133-.067.13-.072.125-.078.122-.084.118-.088.112-.094.109-.099.104-.104.098-.108.094-.114.09-.117.083-.122.078-.126.072-.129.067-.133.06-.137.054-.141.047-.143.041-.145.034-.149.026-.15.019-.151.012-.128.003h-1.025v1.012l-.001.087-.004.099-.006.099-.008.099-.011.097-.014.098-.015.097-.018.096-.021.096-.023.095-.025.095-.027.093-.029.093-.032.093-.034.091-.036.091-.039.089-.04.089-.043.088-.045.086-.047.086-.049.085-.052.083-.053.082-.055.081-.058.08-.06.078-.061.077-.063.076-.066.074-.067.073-.069.071-.071.069-.073.067-.074.066-.076.063-.077.062-.078.059-.08.058-.081.055-.082.054-.083.051-.085.049-.085.047-.087.045-.088.043-.089.04-.089.039-.091.036-.091.034-.092.032-.094.029-.093.028-.095.024-.095.023-.096.021-.096.018-.097.015-.098.014-.098.011-.098.008-.099.006-.099.004-.087.001h-3.025l-.089-.001-.102-.004-.102-.006-.1-.009-.101-.012-.1-.014-.099-.016-.098-.019-.098-.021-.096-.024-.096-.026-.095-.028-.094-.03-.092-.033-.092-.035-.091-.037-.089-.039-.088-.041-.088-.044-.085-.045-.084-.047-.084-.049-.082-.051-.08-.053-.079-.055-.077-.057-.077-.058-.074-.06-.073-.062-.072-.064-.07-.065-.069-.066-.066-.069-.066-.07-.063-.072-.062-.072-.06-.075-.058-.077-.057-.077-.055-.079-.053-.081-.051-.081-.049-.083-.047-.085-.045-.086-.044-.086-.041-.089-.039-.09-.037-.09-.035-.091-.033-.094-.03-.093-.028-.095-.026-.096-.024-.096-.021-.098-.019-.098-.016-.099-.014-.1-.012-.1-.009-.102-.006-.101-.004-.102-.001-.089v-4.869l.002-.117.007-.134.011-.132.015-.132.02-.131.024-.13.028-.128.032-.128.037-.126.04-.124.045-.122.048-.122.052-.119.056-.117.06-.116.063-.113.067-.112.071-.109.074-.106.077-.105.082-.102.085-.099.087-.097.091-.094.095-.091.098-.089.1-.085.104-.082.107-.079.11-.075.112-.072.101-.06 5.499-3.142zm-4.492.424-.058.034-.056.036-.055.038-.054.04-.051.041-.051.042-.048.044-.048.046-.045.047-.044.048-.042.05-.041.051-.039.052-.037.054-.035.054-.034.056-.032.057-.029.057-.028.059-.026.06-.025.06-.022.062-.02.062-.018.063-.016.063-.014.064-.012.065-.01.066-.008.065-.006.067-.003.067-.001.067v4.839l.001.052.002.051.003.051.004.05.006.051.007.05.008.049.01.049.01.049.012.048.013.048.014.047.015.046.016.047.018.045.018.045.02.045.02.044.022.044.022.042.024.043.025.041.025.041.027.04.027.04.028.039.03.038.03.037.031.037.032.036.032.035.034.034.034.034.035.032.036.032.037.031.037.03.038.03.039.028.04.027.04.027.041.025.041.025.043.024.042.022.044.022.044.02.045.02.045.018.045.018.047.016.046.015.047.014.048.013.048.012.049.01.049.01.049.008.05.007.051.006.05.004.051.003.051.002.052.001h3l.05-.001.049-.001.05-.004.049-.004.049-.005.048-.007.049-.008.048-.009.048-.01.048-.011.047-.013.047-.013.046-.015.046-.016.046-.017.045-.018.045-.019.045-.021.043-.021.044-.023.043-.023.042-.025.042-.025.041-.027.04-.028.04-.028.039-.03.039-.031.037-.032.037-.032.037-.034.035-.035.035-.035.034-.037.032-.037.032-.037.031-.039.03-.039.028-.04.028-.04.027-.041.025-.042.025-.042.023-.043.023-.044.021-.043.021-.045.019-.045.018-.045.017-.046.016-.046.015-.046.013-.047.013-.048.011-.047.01-.048.009-.048.008-.049.007-.048.005-.049.004-.049.004-.05.001-.049.001-.05v-3h3l.051-.001.051-.004.05-.007.05-.008.048-.011.047-.014.047-.016.045-.018.045-.02.043-.022.042-.024.04-.026.039-.028.038-.029.036-.032.035-.033.033-.035.032-.036.029-.038.028-.039.026-.04.024-.042.022-.043.02-.045.018-.045.016-.047.014-.047.011-.048.008-.05.007-.05.004-.051.001-.051s-.001-.05-.001-.05l-.004-.049-.006-.049-.008-.048-.011-.048-.013-.047-.016-.046-.017-.046-.02-.044-.022-.044-.024-.042-.026-.042-.028-.04-.03-.039-.033-.037-.034-.036-.036-.034-.037-.033-.039-.03-.04-.028-.042-.026-.042-.024-.044-.022-.044-.02-.046-.017-.046-.016-.047-.013-.048-.011-.048-.008-.049-.006-.049-.004-.05-.001h-6.5v-3z" fill="#7e5108"/></g><path d="m8.5 20s-1.458.833-2.492 1.424c-.623.356-1.008 1.019-1.008 1.737v4.839c0 1.105.895 2 2 2h3c.53 0 1.039-.211 1.414-.586s.586-.884.586-1.414c0-1.392 0-3 0-3h3c.552 0 1-.448 1-1 0-.265-.105-.52-.293-.707-.187-.188-.442-.293-.707-.293-2.042 0-6.5 0-6.5 0z" fill="#fbc546"/><path d="m11 7.5c0-.398-.158-.779-.439-1.061-.282-.281-.663-.439-1.061-.439s-.779.158-1.061.439c-.281.282-.439.663-.439 1.061v4c0 .398.158.779.439 1.061.282.281.663.439 1.061.439s.779-.158 1.061-.439c.281-.282.439-.663.439-1.061 0-1.181 0-2.819 0-4z"/><path d="m23 8s-2.541 0-4 0c-.265 0-.52.105-.707.293-.188.187-.293.442-.293.707 0 .552.448 1 1 1h1v1.502c0 .397.158.778.439 1.059s.662.439 1.059.439h.004c.827 0 1.498-.671 1.498-1.498 0-1.473 0-3.502 0-3.502z"/><path d="m15.219 14.501.099.001.098.003.098.005.099.005.098.007.098.008.097.009.098.01.097.012.097.012.097.014.096.015.096.016.096.018.096.018.095.02.095.021.095.022.095.023.094.024.094.026.093.026.093.028.093.029.092.029.092.032.092.032.091.033.09.034.091.036.089.036.09.038.089.039.088.04.088.04.088.042.087.044.086.044.086.045.085.046.085.047.084.049.084.049.083.051.083.051.082.053.081.053.081.055.08.055.08.057.078.057.079.059.077.06.077.06.076.062.076.063.074.063.074.065.074.065.072.067.072.067.071.069.068.067.966.966.043.046.04.048.037.051.034.053.03.055.027.057.023.058.019.06.016.061.012.062.008.062.004.063v.062l-.004.063-.008.062-.012.062-.016.061-.019.06-.023.058-.027.057-.03.055-.034.053-.037.051-.04.048-.043.046-.046.043-.048.04-.051.037-.053.034-.055.03-.057.027-.058.023-.06.019-.061.016-.062.012-.062.008-.063.004h-.062l-.063-.004-.062-.008-.062-.012-.061-.016-.06-.019-.058-.023-.057-.027-.055-.03-.053-.034-.051-.037-.048-.04-.046-.043-.962-.961-.054-.054-.054-.052-.053-.05-.055-.05-.055-.049-.055-.049-.056-.047-.056-.047-.057-.046-.058-.045-.058-.045-.058-.044-.06-.043-.059-.042-.06-.042-.06-.041-.061-.04-.062-.039-.061-.039-.063-.038-.062-.037-.063-.036-.064-.035-.064-.035-.064-.034-.065-.033-.065-.032-.065-.031-.066-.031-.066-.03-.067-.029-.067-.028-.067-.027-.068-.027-.068-.026-.068-.024-.068-.025-.069-.023-.069-.022-.07-.022-.069-.02-.07-.02-.07-.019-.071-.018-.071-.018-.071-.016-.071-.016-.071-.015-.072-.013-.072-.013-.072-.013-.072-.011-.072-.01-.073-.01-.073-.008-.072-.008-.074-.007-.073-.006-.073-.005-.074-.004-.073-.003-.074-.002-.074-.002h-.077-4.117l-.063-.002-.062-.006-.062-.01-.062-.013-.06-.018-.059-.021-.058-.025-.056-.029-.054-.032-.052-.035-.049-.038-.048-.042-.044-.044-.042-.048-.038-.049-.035-.052-.032-.054-.029-.056-.025-.058-.021-.059-.018-.06-.013-.062-.01-.062-.006-.062-.002-.063.002-.063.006-.062.01-.062.013-.062.018-.06.021-.059.025-.058.029-.056.032-.054.035-.052.038-.049.042-.048.044-.044.048-.042.049-.038.052-.035.054-.032.056-.029.058-.025.059-.021.06-.018.062-.013.062-.01.062-.006.063-.002h4.123l.096.001z" fill="#593604"/></g></svg>