<svg clip-rule="evenodd" fill-rule="evenodd" stroke-linecap="round" stroke-miterlimit="2" viewBox="0 0 32 32" xmlns="http://www.w3.org/2000/svg" xmlns:xlink="http://www.w3.org/1999/xlink"><clipPath id="a"><path clip-rule="evenodd" d="m23.894 18.447c.678.339 1.106 1.032 1.106 1.789v2.471c0 1.934-.768 3.789-2.136 5.157s-3.223 2.136-5.157 2.136c-.226 0-.454 0-.682 0-4.984 0-9.025-4.041-9.025-9.025 0-4.281 0-8.475 0-8.475h1.5v-1.5h11.5v5h2l-1 1 1 1s.432.216.894.447z"/></clipPath><path d="m0 0h32v32h-32z" fill="none"/><path d="m23.526 0 1.795 1.152-1.962 7.851 1.544 6.177.034.158c.021.117.039.233.05.351.01.114.009.157.013.28v.803c.077.044.076.045.156.095l.117.077c.188.135.368.278.533.441.489.482.85 1.088 1.039 1.748.091.315.136.635.153.962.016.909.007 1.818.001 2.728-.005.306-.022.612-.056.917-.076.678-.227 1.348-.45 1.994-.271.787-.648 1.536-1.118 2.223-.411.6-.892 1.151-1.431 1.639-1.324 1.199-2.989 1.999-4.752 2.285-.377.061-.757.098-1.139.113-.085.003-.17.005-.256.006h-.777-.001c-1.108-.001-2.214-.167-3.272-.496-1.066-.332-2.08-.827-2.997-1.463-1.86-1.29-3.302-3.149-4.08-5.275-.299-.815-.5-1.665-.598-2.527-.043-.373-.064-.747-.071-1.122-.006-.865-.005-1.73-.004-2.595-.006-2.037-.021-4.073.004-6.109.015-.402.088-.797.234-1.173.363-.942 1.134-1.695 2.085-2.035.353-.127.72-.19 1.093-.204.087-.001.087-.001.174 0 .402.015.797.088 1.173.234.019.007.038.014.056.022.397-.473.916-.842 1.504-1.052.352-.126.72-.19 1.093-.204.087-.001.087-.001.174 0 .402.015.797.088 1.173.234.482.185.92.478 1.276.852.018.019.036.039.053.058l.038-.15c-.15-.611-.298-1.221-.443-1.833-.02-.093-.02-.093-.037-.187-.041-.249-.064-.499-.06-.751.007-.471.098-.939.267-1.378.067-.173.147-.341.236-.504l2.43-4.342h2.588l.358 1.431 1.788-1.431h.272zm-6.526 21h-7l.001.066c.014.765.141 1.522.396 2.244.348.988.92 1.892 1.661 2.632.72.721 1.595 1.282 2.551 1.632.746.273 1.531.41 2.325.425.301.002.603.005.905-.001.585-.018 1.164-.126 1.713-.33.855-.318 1.621-.858 2.208-1.556.403-.48.719-1.031.93-1.62.191-.532.291-1.089.308-1.653.002-.113.004-.226.005-.339h-5.003v-2.893l-1-.25zm-7.001-1h-.002c0 .321.001.641.003.961 0-.32 0-.64-.001-.961z"/><path d="m23.894 18.447c.678.339 1.106 1.032 1.106 1.789v2.471c0 1.934-.768 3.789-2.136 5.157s-3.223 2.136-5.157 2.136c-.226 0-.454 0-.682 0-4.984 0-9.025-4.041-9.025-9.025 0-4.281 0-8.475 0-8.475h1.5v-1.5h11.5v5h2l-1 1 1 1s.432.216.894.447z" fill="#b8d419"/><g clip-path="url(#a)"><path d="m18 18-3.5 7" fill="none" stroke="#88a00f" stroke-width="2"/><g fill="#48621b"><path d="m15 11h6v7h-6z"/><path d="m12 11.5c0-.398.158-.779.439-1.061.282-.281.663-.439 1.061-.439s.779.158 1.061.439c.281.282.439.663.439 1.061v9.5s-1.541-1.541-2.414-2.414c-.375-.375-.586-.884-.586-1.414 0-1.339 0-3.995 0-5.672z"/><path d="m13.562 9.001.062.002.062.004.061.005.061.007.061.008.061.01.06.011.06.013.06.014.058.016.059.017.058.018.058.02.057.022.057.022.056.024.055.026.055.026.054.028.054.03.053.031.052.032.051.033.051.035.049.036.049.037.048.038.048.04.046.041.045.042.045.043.043.045.042.045.041.046.04.048.038.048.037.049.036.049.035.051.033.051.032.052.031.053.03.054.028.054.026.055.026.055.024.056.022.057.022.057.02.058.018.058.017.059.016.059.014.059.013.06.011.06.01.061.008.061.007.061.005.061.004.062.002.062.001.056v11.257l-.469.194-3.657-3.657-.047-.048-.051-.055-.049-.055-.048-.057-.046-.058-.044-.058-.043-.06-.042-.061-.04-.062-.038-.062-.037-.064-.036-.064-.033-.065-.032-.066-.031-.066-.029-.067-.027-.068-.025-.069-.024-.069-.022-.07-.021-.07-.019-.071-.017-.072-.015-.071-.013-.073-.012-.072-.01-.074-.008-.073-.007-.074-.004-.074-.003-.074-.001-.068v-5.684l.001-.056.002-.062.004-.062.005-.061.007-.061.008-.061.01-.061.011-.06.013-.06.014-.059.016-.059.017-.059.018-.058.02-.058.022-.057.022-.057.024-.056.026-.055.026-.055.028-.054.03-.054.031-.053.032-.052.033-.051.035-.051.036-.049.037-.049.038-.048.04-.048.041-.046.042-.045.043-.045.045-.043.045-.042.046-.041.047-.04.049-.038.049-.038.049-.035.051-.035.051-.033.052-.032.053-.031.054-.03.054-.028.055-.026.055-.026.056-.024.057-.022.057-.022.058-.02.058-.018.059-.017.058-.016.06-.014.06-.013.06-.011.061-.01.061-.008.061-.007.061-.005.062-.004.062-.002.062-.001.062.001zm-.099.999-.037.002-.037.002-.037.003-.037.004-.037.005-.036.006-.036.007-.036.008-.036.008-.035.01-.035.01-.035.011-.035.012-.034.013-.034.013-.034.015-.033.015-.033.016-.032.017-.032.017-.032.019-.031.019-.031.02-.031.021-.029.021-.03.023-.029.023-.028.024-.028.024-.027.025-.027.026-.026.027-.025.027-.025.028-.023.028-.023.029-.023.03-.021.029-.021.031-.02.031-.019.031-.019.032-.017.032-.017.032-.016.033-.015.033-.015.034-.013.034-.013.034-.012.035-.011.035-.01.035-.01.035-.008.036-.008.036-.007.036-.006.037-.005.036-.004.037-.003.037-.002.037-.002.037v.037 5.672l.001.049.001.05.004.049.004.049.005.049.007.049.008.048.009.049.01.047.011.048.013.047.013.047.015.047.016.046.017.046.018.045.019.045.021.044.021.044.023.043.023.043.025.042.025.042.027.041.028.041.028.039.03.04.031.038.032.038.032.037.034.036.035.036 2.414 2.414v-9.5-.037l-.002-.037-.002-.037-.003-.037-.004-.037-.005-.036-.006-.037-.007-.036-.008-.036-.008-.036-.01-.035-.01-.035-.011-.035-.012-.035-.013-.034-.013-.034-.015-.034-.015-.033-.016-.033-.017-.032-.017-.032-.019-.032-.019-.031-.02-.031-.021-.031-.021-.029-.023-.03-.023-.029-.023-.028-.025-.028-.025-.027-.026-.027-.027-.026-.027-.025-.028-.024-.028-.024-.029-.023-.03-.023-.029-.021-.031-.021-.031-.02-.031-.019-.032-.019-.032-.017-.032-.017-.033-.016-.033-.015-.034-.015-.034-.013-.034-.013-.035-.012-.035-.011-.035-.01-.035-.01-.036-.008-.036-.008-.036-.007-.036-.006-.037-.005-.037-.004-.037-.003-.037-.002-.037-.002h-.037-.037z"/><path d="m8 12.468c0-.389.155-.763.43-1.038s.649-.43 1.038-.43h.002c.845 0 1.53.685 1.53 1.53v7.47s-1.236-1.236-2.121-2.121c-.563-.563-.879-1.326-.879-2.122 0-.956 0-2.28 0-3.289z"/><path d="m9.535 10.001.064.002.065.004.063.006.064.007.063.009.063.01.062.012.062.014.061.015.06.016.06.018.059.019.059.021.058.022.057.023.057.025.056.026.055.027.054.029.053.03.053.031.051.032.051.034.05.034.049.036.049.037.047.038.046.039.045.04.045.042.043.042.042.043.042.045.04.045.039.046.038.048.037.048.036.049.034.05.034.051.032.051.031.053.03.053.029.055.027.055.026.055.025.057.023.057.022.058.021.059.019.059.018.06.016.06.015.062.014.061.012.062.01.063.009.063.007.064.006.063.004.065.002.064.001.059v9.227l-.469.194-3.364-3.364-.065-.066-.067-.073-.066-.074-.063-.076-.062-.077-.059-.078-.058-.08-.055-.08-.053-.083-.052-.083-.049-.084-.047-.086-.045-.087-.043-.088-.04-.088-.039-.09-.036-.091-.034-.091-.032-.092-.029-.093-.027-.094-.025-.095-.023-.095-.02-.096-.019-.096-.015-.097-.014-.098-.01-.097-.009-.099-.006-.098-.004-.099-.001-.094v-3.301l.001-.055.002-.061.004-.061.005-.061.007-.06.008-.06.01-.06.011-.06.012-.059.014-.059.016-.058.017-.058.018-.057.019-.057.021-.057.023-.056.024-.055.025-.055.026-.054.028-.053.029-.053.03-.052.032-.052.033-.05.034-.05.035-.049.037-.049.038-.047.039-.047.04-.046.042-.044.043-.044.044-.043.044-.042.046-.04.047-.039.047-.038.049-.037.049-.035.05-.034.05-.033.052-.032.052-.03.053-.029.053-.028.054-.026.055-.025.056-.024.055-.023.057-.021.057-.019.057-.018.058-.017.058-.016.059-.014.059-.012.06-.011.059-.01.061-.008.06-.007.061-.005.061-.004.061-.002.055-.001h.014zm-.067.999h-.036l-.037.002-.036.002-.036.003-.036.004-.036.005-.035.006-.036.006-.035.008-.035.008-.035.009-.034.01-.034.011-.034.012-.034.012-.033.014-.033.014-.032.015-.032.015-.032.017-.032.017-.031.018-.03.019-.03.02-.03.02-.029.021-.029.022-.028.022-.028.024-.027.024-.027.025-.026.025-.025.026-.025.027-.024.027-.024.028-.022.028-.022.029-.021.029-.02.03-.02.03-.019.03-.018.031-.017.032-.017.032-.015.032-.015.032-.014.033-.014.033-.012.034-.012.034-.011.034-.01.034-.009.035-.008.035-.008.035-.006.036-.006.035-.005.036-.004.036-.003.036-.002.036-.002.037v.036 3.289l.001.075.003.074.004.074.007.074.008.073.01.073.012.073.013.072.015.072.017.072.019.07.021.071.022.07.024.069.025.068.027.068.029.068.031.066.032.066.033.065.036.064.037.064.038.062.04.062.042.06.043.06.044.059.046.058.048.056.049.056.051.054.052.054 2.121 2.121v-7.47-.039l-.002-.04-.002-.039-.004-.038-.004-.039-.006-.038-.006-.038-.007-.037-.008-.038-.009-.036-.01-.037-.011-.036-.011-.036-.013-.035-.013-.035-.014-.035-.015-.034-.016-.033-.016-.034-.018-.032-.018-.033-.019-.031-.019-.032-.02-.03-.021-.031-.022-.029-.022-.03-.023-.028-.024-.028-.024-.028-.025-.027-.026-.026-.026-.026-.027-.025-.028-.024-.028-.024-.028-.023-.03-.022-.029-.022-.031-.021-.03-.02-.032-.019-.031-.019-.033-.018-.032-.018-.034-.016-.033-.016-.034-.015-.035-.014-.035-.013-.035-.013-.036-.011-.036-.011-.037-.01-.036-.009-.038-.008-.037-.007-.038-.006-.038-.006-.039-.004-.038-.004-.039-.002-.039-.001-.04-.001z"/></g></g><path d="m17.681 11.096 2.319-1.096-1 6.307v1.488l-2.817-.704zm4.131-4.155-2.812 1.059 2.14-3.748 1.681-1.344z" fill="#b8d419"/><path d="m21.14 4.252.672 2.689-2.719 10.877-.093-.023v-1.488c-.435-1.738-.88-3.474-1.319-5.211l1.111-4.441c.106-.425.349-.803.691-1.077z" fill="#48621b"/><path d="m22.194 12.592.761 3.044c.018.079.024.099.034.18s.008.102.011.183v4.501h-3v-4.316l-.716-2.865 1.716-1.319zm-.242-.97-1.952 1.378-.959-.651-.757-3.03 1.716-1.319 1.194.592zm-1-4-1.952 1.378-.959-.651-.395-1.579c-.123-.495-.053-1.018.195-1.462.616-1.101 1.75-3.128 1.75-3.128z" fill="#b8d419"/><path d="m22.194 12.592-2.91.727-.243-.97 2.911-.727zm-1-4-2.91.727-.243-.97 2.911-.727z" fill="#88a00f"/><g fill="#b8d419"><path d="m12 11.5c0-.398.158-.779.439-1.061.282-.281.663-.439 1.061-.439s.779.158 1.061.439c.281.282.439.663.439 1.061v9.5s-1.541-1.541-2.414-2.414c-.375-.375-.586-.884-.586-1.414 0-1.339 0-3.995 0-5.672z"/><path d="m8 12.468c0-.389.155-.763.43-1.038s.649-.43 1.038-.43h.002c.845 0 1.53.685 1.53 1.53v7.47s-1.236-1.236-2.121-2.121c-.563-.563-.879-1.326-.879-2.122 0-.956 0-2.28 0-3.289z"/><path d="m23 17h-9s.273.682.617 1.543c.835 2.088 2.858 3.457 5.107 3.457h.276l2 2" stroke="#48621b" stroke-linecap="butt" stroke-width="2"/></g></svg>