<svg clip-rule="evenodd" fill-rule="evenodd" stroke-linecap="round" stroke-miterlimit="1.5" viewBox="0 0 32 32" xmlns="http://www.w3.org/2000/svg" xmlns:xlink="http://www.w3.org/1999/xlink"><clipPath id="a"><path clip-rule="evenodd" d="m0 0h32v32h-32z"/></clipPath><path d="m0 0h32v32h-32z" fill="none"/><g clip-path="url(#a)"><path d="m23.082 2.006.169.013.17.018.168.025.168.032.166.037.164.044.163.05.161.057.158.062.156.068.154.074.15.08.147.086.144.091.141.096.136.102.133.107.129.111.124.117.12.121.115.125.11.13.105.134.1.138.095.141.09.145.084.149.078.151.072.154.067.157.06.159.055.161.048.164.042.165.036.166.03.168.023.169.016.169.011.17.004.17-.003.171-.009.17-.015.169-.022.169-.028.168-3.094 16.5-.035.167-.04.165-.048.164-.053.162-.059.16-.065.157-.072.155-.077.151-.082.149-.089.146-.093.142-.099.139-.105.134-.109.131-.114.127-.119.122-.123.117-.128.113-.132.108-.136.102-.139.098-.143.092-.147.087-.15.081-.153.075-.155.069-.158.064-.16.058-.163.051-.164.045-.166.039-.167.033-.168.026-.169.02-.17.014-.17.007h-.171l-.17-.005-.17-.013-.169-.018-.168-.025-.168-.032-.166-.037-.164-.044-.163-.05-.161-.057-.159-.062-.156-.068-.153-.074-.15-.08-.148-.086-.144-.091-.14-.096-.137-.102-.132-.107-.129-.111-.124-.117-.12-.121-.115-.125-.11-.13-.106-.134-.1-.138-.095-.141-.089-.145-.084-.149-.078-.151-.072-.154-.067-.157-.061-.159-.054-.161-.048-.164-.042-.165-.036-.166-.03-.168-.023-.169-.017-.169-.01-.17-.004-.17.003-.171.009-.17.015-.169.022-.169.028-.168 3.094-16.5.034-.167.041-.165.047-.164.053-.162.06-.16.065-.157.071-.155.077-.151.083-.149.088-.146.094-.142.099-.139.104-.134.11-.131.114-.127.119-.122.123-.117.128-.113.131-.108.136-.102.14-.098.143-.092.147-.087.15-.081.152-.075.156-.069.158-.064.16-.058.163-.051.164-.045.166-.039.167-.033.168-.026.169-.02.17-.014.17-.007h.17l.171.005z"/><path d="m9.771 2.002.166.009.166.014.165.021.164.027.163.033.162.038.16.045.158.051.157.056.154.062.152.068.149.074.146.079.144.084.14.089.137.095.133.1.129.104.126.109.121.114.117.118.113.122.108.127.103.13.099.134.093.138.088.141.083.144.078.147.072.15.066.152.061.155.055.157.049.159.044.161 3.874 15.496.037.162.031.163.026.164.019.166.013.165.007.167.001.166-.006.166-.011.166-.018.165-.024.165-.029.164-.036.162-.042.161-.048.159-.053.158-.06.155-.065.153-.07.151-.076.148-.082.145-.087.141-.092.139-.097.135-.102.131-.107.128-.111.123-.116.119-.121.115-.124.111-.128.105-.133.101-.136.096-.139.091-.143.085-.145.081-.149.074-.151.07-.154.063-.155.058-.158.053-.16.046-.161.04-.163.034-.164.029-.165.022-.165.016-.166.01-.167.004-.166-.002-.166-.009-.166-.014-.165-.021-.164-.027-.163-.033-.162-.038-.16-.045-.158-.051-.157-.056-.154-.062-.152-.068-.149-.074-.146-.079-.144-.084-.14-.089-.137-.095-.133-.099-.129-.105-.126-.109-.121-.114-.117-.118-.113-.122-.108-.127-.103-.13-.099-.134-.093-.138-.088-.141-.083-.144-.078-.147-.072-.15-.066-.152-.061-.155-.055-.157-.049-.159-.044-.161-3.874-15.496-.037-.162-.031-.163-.026-.164-.019-.166-.013-.165-.007-.167-.001-.166.006-.166.011-.166.018-.165.024-.165.029-.164.036-.162.042-.161.048-.159.053-.158.06-.155.065-.153.07-.151.076-.148.082-.144.087-.142.092-.139.097-.135.102-.131.107-.128.111-.123.116-.119.121-.115.124-.11.128-.106.133-.101.136-.096.139-.091.143-.085.145-.081.149-.074.151-.07.154-.063.155-.058.158-.052.16-.047.161-.04.163-.034.164-.029.165-.022.165-.016.166-.01.167-.004z"/><path d="m16.762.004.174.013.173.02.172.027.172.034.17.04.168.047.166.053.164.06.161.066.159.072.156.079.153.084.149.09.146.096.142.101.138.107.134.113.129.117.125.122.119.127.115.132.11.135.104.14.099.144.093.148.087.151.081.154.076.158.069.16.063.163.056.165.05.167.044.169.037.171.03.172.024.173.017.173.01.175.003.174v17l-.003.175-.01.174-.017.173-.024.173-.03.172-.037.171-.044.169-.05.167-.056.165-.063.163-.069.16-.076.158-.081.154-.087.151-.093.148-.099.144-.104.14-.11.136-.115.131-.119.127-.125.122-.129.118-.134.112-.138.107-.142.101-.146.096-.149.09-.153.084-.156.079-.159.072-.161.066-.164.06-.166.053-.168.047-.17.04-.172.034-.172.027-.173.02-.174.013-.175.007h-.174l-.175-.007-.174-.013-.173-.02-.172-.027-.172-.034-.169-.04-.169-.047-.166-.053-.164-.06-.161-.066-.159-.072-.156-.079-.153-.084-.149-.09-.146-.096-.142-.101-.138-.107-.134-.112-.129-.118-.125-.122-.119-.127-.115-.131-.11-.136-.104-.14-.099-.144-.093-.148-.087-.151-.081-.154-.076-.158-.069-.16-.063-.163-.056-.165-.05-.167-.044-.169-.037-.171-.03-.172-.024-.173-.016-.173-.011-.174-.003-.175v-17l.003-.174.011-.175.016-.173.024-.173.03-.172.037-.171.044-.169.05-.167.056-.165.063-.163.069-.16.076-.158.081-.154.087-.151.093-.148.099-.144.104-.14.11-.135.115-.132.119-.127.125-.122.129-.117.134-.113.138-.107.142-.101.146-.096.149-.09.153-.084.156-.079.159-.072.161-.066.164-.06.166-.053.169-.047.169-.04.172-.034.172-.027.173-.02.174-.013.175-.007h.174l.175.007z"/><path d="m5.222 14.001.148.009.148.013.147.017.146.022.146.027.145.03.144.035.143.039.142.043.14.048.139.051.138.056.135.06.134.063.132.068.13.072.127.075.126.079.122.083.121.086.118.09.115.094.112.096.109.1.107.104 5.968 5.968.028.028.017.016.018.017.017.016.018.015.018.016.017.015.019.015.018.015.018.015.019.014.019.014.019.014.019.013.019.014.019.013.02.013.02.012.019.013.02.012.02.012.021.011.02.012.021.011.02.011.021.01.021.011.021.01.021.01.021.009.022.009.021.009.022.009.022.009.022.008.021.008.022.008.022.007.023.008.022.006.022.007.023.006.023.007.022.005.023.006.022.005.023.005.023.005.023.004.023.005.023.003.023.004.023.003.024.003.023.003.023.003.024.002.024.002.023.001.024.002.024.001h.023l.024.001h.039.118l.148.002.148.007.148.011.147.015.147.02.146.024.146.028.144.033.144.037.142.041.141.045.14.05.138.054.137.057.134.062.133.066.131.069.129.074.126.077.124.081.122.085.119.088.116.091.114.095.111.099.108.101.105.105.101.108.099.111.095.114.091.116.088.119.085.122.081.124.077.126.074.129.069.131.066.133.062.134.057.137.054.138.05.14.045.141.041.142.037.144.033.144.028.146.024.146.02.147.015.147.011.148.007.148.002.148-.002.148-.007.148-.011.148-.015.147-.02.147-.024.146-.028.146-.033.144-.037.144-.041.142-.045.141-.05.14-.054.138-.057.137-.062.134-.066.133-.069.131-.074.129-.077.126-.081.124-.085.122-.088.119-.091.116-.095.114-.099.111-.101.108-.105.105-.108.101-.111.099-.114.095-.116.091-.119.088-.122.085-.124.081-.126.077-.129.074-.131.069-.133.066-.134.062-.137.057-.138.054-.14.05-.141.045-.142.041-.144.037-.144.033-.146.028-.146.024-.147.02-.147.015-.148.011-.148.007-.148.002h-.149l-.132-.001-.148-.003-.148-.004-.147-.007-.147-.008-.147-.01-.146-.012-.146-.013-.147-.016-.145-.017-.145-.019-.145-.02-.145-.023-.144-.024-.144-.026-.143-.028-.143-.029-.142-.032-.142-.033-.142-.034-.141-.037-.14-.038-.14-.039-.14-.042-.139-.043-.138-.045-.137-.046-.138-.048-.136-.05-.136-.052-.135-.053-.134-.055-.134-.056-.133-.058-.133-.06-.132-.061-.131-.063-.13-.064-.129-.066-.129-.068-.128-.069-.127-.071-.126-.072-.126-.075-.124-.075-.124-.077-.123-.079-.122-.08-.12-.082-.121-.083-.119-.085-.118-.086-.117-.088-.116-.089-.115-.091-.115-.093-.112-.093-.112-.096-.111-.096-.11-.098-.109-.1-.107-.101-.107-.103-.094-.093-5.99-5.99-.104-.107-.1-.109-.096-.112-.094-.115-.09-.118-.086-.121-.083-.122-.079-.126-.075-.127-.072-.13-.068-.132-.063-.134-.06-.135-.056-.138-.051-.139-.048-.14-.043-.142-.039-.143-.035-.144-.03-.145-.027-.146-.022-.146-.017-.147-.013-.148-.009-.148-.004-.148v-.148l.004-.148.009-.148.013-.148.017-.147.022-.146.027-.146.03-.145.035-.144.039-.143.043-.142.048-.14.051-.139.056-.138.06-.135.063-.134.068-.132.072-.13.075-.127.079-.125.083-.123.086-.121.09-.117.094-.116.096-.112.1-.109.104-.106.106-.104.109-.1.112-.096.115-.094.118-.09.121-.086.123-.083.125-.079.127-.075.13-.072.132-.068.134-.063.135-.06.138-.056.139-.051.14-.048.142-.043.143-.039.144-.035.145-.03.146-.027.146-.022.147-.017.148-.013.148-.009.148-.004h.148z"/><path d="m27.295 6.503.17.01.169.016.169.022.168.029.167.035.165.041.163.048.162.053.16.06.157.066.154.072.152.077.148.083.146.089.142.094.138.1.134.104.131.11.126.114.121.12.118.123.112.128.107.133.103.136.097.14.091.143.086.147.081.15.075.153.069.156.063.158.057.161.051.162.045.164.038.166.032.168.026.168.02.169.013.17.006.17v.17l-.006.171-.013.17-.019.169-.025.168-.032.167-.039.166-2.683 10.722-.029.114-.033.125-.035.126-.036.124-.037.123-.039.123-.04.123-.041.122-.042.121-.044.121-.044.12-.046.119-.047.119-.049.119-.049.117-.051.117-.052.116-.053.115-.054.115-.055.114-.057.114-.057.113-.059.111-.059.111-.061.111-.062.11-.063.109-.064.108-.065.107-.066.107-.068.106-.068.105-.069.104-.07.104-.072.102-.072.102-.073.101-.075.101-.075.099-.076.098-.077.098-.078.096-.079.096-.08.096-.081.094-.082.093-.082.092-.084.092-.085.091-.085.09-.086.088-.087.088-.088.087-.089.086-.09.085-.09.084-.092.084-.092.082-.093.081-.094.081-.094.079-.095.078-.097.078-.097.077-.097.075-.099.074-.099.074-.101.073-.1.071-.101.07-.103.07-.103.068-.103.068-.105.066-.105.066-.106.064-.106.063-.107.062-.108.061-.108.06-.109.059-.11.058-.111.056-.11.056-.112.054-.112.054-.113.052-.114.051-.114.05-.114.049-.115.048-.116.046-.117.046-.116.044-.118.043-.118.042-.118.04-.119.04-.12.038-.12.037-.121.036-.121.035-.121.033-.122.032-.123.031-.122.03-.123.028-.124.028-.124.026-.125.024-.125.024-.124.022-.127.021-.126.019-.125.018-.128.017-.127.016-.127.014-.127.013-.129.011-.128.011-.128.008-.129.008-.13.006-.128.005-.13.003-.13.002-.118.001h-1.047l-.17-.003-.17-.01-.17-.016-.169-.022-.168-.029-.166-.035-.165-.042-.164-.048-.161-.054-.16-.059-.157-.066-.154-.072-.152-.078-.149-.083-.145-.089-.142-.094-.138-.1-.134-.105-.13-.109-.126-.115-.122-.119-.117-.124-.112-.128-.107-.132-.103-.137-.097-.14-.091-.143-.086-.147-.081-.15-.074-.153-.069-.156-.063-.158-.057-.161-.051-.163-.044-.164-.039-.166-.032-.167-.026-.169-.019-.169-.013-.17-.006-.17v-.17l.006-.17.013-.17.019-.169.026-.169.032-.167.039-.166.044-.164.051-.163.057-.16.063-.159.069-.155.074-.153.081-.151.086-.147.091-.143.097-.14.103-.136.107-.133.112-.128.117-.124.122-.119.126-.115.13-.109.134-.105.138-.1.142-.094.145-.089.149-.083.152-.078.154-.072.157-.065.16-.06.161-.054.164-.048.165-.041.166-.036.168-.028.169-.023.17-.016.17-.01.17-.003h1.023.047l.034-.001.034-.001.034-.001.033-.002.033-.001.034-.003.034-.002.033-.003.033-.004.033-.003.033-.005.032-.004.033-.005.033-.005.031-.005.033-.006.033-.006.031-.006.032-.007.031-.006.032-.008.032-.008.032-.007.03-.009.032-.008.031-.009.031-.009.031-.01.03-.01.031-.01.031-.01.03-.011.03-.011.03-.012.03-.011.03-.012.03-.013.029-.012.03-.013.029-.013.029-.014.029-.013.029-.015.029-.014.029-.015.028-.015.028-.015.028-.016.028-.015.028-.016.028-.017.027-.017.027-.016.027-.018.027-.017.027-.018.027-.018.026-.018.027-.019.025-.019.026-.019.026-.019.025-.02.026-.02.024-.02.025-.02.025-.021.024-.021.025-.021.023-.022.024-.021.024-.022.023-.022.023-.023.023-.022.023-.023.022-.023.022-.023.022-.024.021-.023.022-.025.021-.024.021-.024.021-.024.02-.025.02-.025.02-.026.02-.025.02-.026.018-.025.019-.026.019-.027.018-.026.019-.027.017-.027.018-.027.017-.027.017-.027.017-.028.016-.028.016-.028.016-.028.016-.028.015-.029.015-.029.015-.029.015-.028.014-.03.014-.029.013-.03.014-.03.013-.03.013-.031.012-.03.012-.03.012-.032.012-.03.011-.032.011-.031.01-.032.011-.032.01-.032.01-.032.009-.033.009-.032.009-.033.011-.045 2.678-10.698.044-.165.051-.162.057-.161.062-.158.069-.156.075-.153.08-.15.086-.147.092-.144.096-.14.102-.137.108-.132.112-.128.117-.124.121-.119.126-.115.13-.11.134-.105.138-.1.142-.094.145-.089.149-.083.151-.078.155-.072.157-.066.159-.06.162-.054.163-.048.165-.042.167-.035.168-.029.169-.023.169-.016.17-.01.17-.003.171.003z"/><g fill="#ef8e10"><path d="m22.927 4.001.127.008.125.014.125.02.124.026.123.033.12.039.119.045.116.051.113.056.11.063.107.068.104.073.099.078.095.083.092.088.086.093.082.097.077.1.071.105.066.108.061.111.055.114.049.117.043.119.037.122.03.122.025.125.018.125.012.126.005.127-.001.126-.007.127-.014.126-.02.125-3.094 16.5-.026.124-.033.122-.039.12-.045.119-.051.116-.056.113-.063.11-.068.107-.073.104-.078.099-.083.096-.088.091-.093.086-.097.082-.1.077-.105.071-.108.067-.111.06-.114.055-.117.049-.119.043-.122.037-.122.031-.125.024-.125.018-.126.012-.127.006-.126-.001-.127-.008-.126-.014-.125-.02-.124-.026-.122-.033-.12-.039-.119-.045-.116-.051-.113-.056-.11-.063-.107-.068-.104-.073-.099-.078-.096-.083-.091-.088-.086-.093-.082-.097-.077-.1-.071-.105-.067-.108-.06-.111-.055-.114-.049-.117-.043-.119-.037-.122-.031-.122-.024-.125-.018-.125-.012-.126-.006-.127.001-.126.008-.127.014-.126.02-.125 3.094-16.5.026-.124.033-.122.039-.12.045-.119.05-.116.057-.113.063-.11.067-.107.074-.104.078-.099.083-.096.088-.091.093-.086.096-.082.101-.077.105-.071.108-.067.111-.06.114-.055.117-.049.119-.043.121-.037.123-.031.124-.024.126-.018.126-.012.126-.006.127.001z"/><path d="m9.75 4.003.122.009.122.015.121.021.12.027.118.033.116.039.115.044.112.05.109.055.107.06.104.066.1.071.097.075.093.08.089.085.084.089.08.093.076.097.07.1.066.104.06.107.055.109.05.112.044.115.039.116.032.119 3.874 15.496.027.119.021.121.015.122.009.123.003.122-.003.123-.009.122-.015.122-.021.121-.027.12-.033.118-.039.116-.044.115-.05.112-.055.11-.06.106-.066.104-.071.1-.075.097-.08.093-.085.089-.089.084-.093.08-.097.076-.1.07-.104.066-.107.06-.109.056-.112.049-.115.044-.116.039-.119.032-.119.027-.121.021-.122.015-.122.009-.123.003-.123-.003-.122-.009-.122-.015-.121-.021-.12-.027-.118-.033-.116-.038-.115-.045-.112-.049-.109-.056-.107-.06-.104-.066-.1-.071-.097-.075-.093-.08-.089-.085-.084-.089-.08-.093-.076-.097-.07-.1-.066-.104-.06-.106-.055-.11-.05-.112-.044-.115-.039-.116-.032-.119-3.874-15.496-.027-.119-.021-.121-.015-.122-.009-.122-.003-.123.003-.123.009-.122.015-.122.021-.121.027-.12.033-.118.039-.116.044-.115.05-.112.055-.11.06-.106.066-.104.071-.1.075-.097.08-.093.085-.089.089-.084.093-.08.097-.076.1-.07.104-.066.107-.06.109-.055.112-.05.115-.044.116-.039.119-.032.119-.027.121-.021.122-.015.122-.009.123-.003z"/><path d="m16.693 2.004.128.013.127.02.126.026.125.033.122.039.121.045.118.052.115.057.112.064.109.069.105.074.101.08.096.085.092.09.088.095.082.099.078.102.071.107.067.111.06.113.055.117.048.119.043.122.036.123.029.126.023.126.017.128.01.128.003.129v17l-.003.129-.01.128-.017.128-.023.126-.029.126-.036.123-.043.122-.048.119-.055.117-.06.113-.067.111-.071.107-.078.103-.082.098-.088.095-.092.09-.096.085-.101.08-.105.074-.109.069-.112.064-.115.057-.118.052-.121.045-.122.039-.125.033-.126.027-.127.019-.128.014-.129.006h-.128l-.129-.006-.128-.014-.127-.019-.126-.027-.125-.033-.122-.039-.121-.045-.118-.052-.115-.057-.112-.064-.109-.069-.104-.074-.101-.08-.097-.085-.092-.09-.088-.095-.082-.098-.078-.103-.071-.107-.067-.111-.06-.113-.055-.117-.048-.119-.043-.122-.036-.123-.029-.126-.023-.126-.017-.128-.01-.128-.003-.129v-17l.003-.129.01-.128.017-.128.023-.126.029-.126.036-.123.043-.122.048-.119.055-.117.06-.113.067-.111.071-.107.078-.102.082-.099.088-.095.092-.09.097-.085.101-.08.104-.074.109-.069.112-.064.115-.057.118-.052.121-.045.122-.039.125-.033.126-.026.127-.02.128-.013.129-.007h.128l.129.007z"/><path d="m5.085 15.997.114.006.113.009.112.014.113.018.111.023.11.026.109.031.109.035.106.039.105.043.104.047.101.051.1.054.097.059.095.062.093.065.09.069.088.072.085.076.081.079 5.973 5.973.042.041.035.033.035.034.036.032.036.032.036.032.037.031.037.031.038.031.037.029.038.03.039.029.039.028.039.028.039.027.04.027.04.026.04.026.041.025.041.025.041.024.041.024.042.023.042.023.042.022.043.022.042.021.044.021.043.02.043.02.044.019.044.018.044.018.045.018.044.017.045.016.045.016.045.015.046.015.045.014.046.013.046.014.046.012.046.012.047.011.046.011.047.01.047.01.047.009.047.009.048.008.047.007.048.007.047.006.048.006.048.005.048.004.048.004.048.003.049.003.048.002.049.002.048.001h.058.124l.114.002.113.007.113.01.112.015.112.02.111.023.111.028.109.031.107.036.107.04.104.044.103.048.101.052.099.055.097.06.095.063.092.066.089.07.087.073.084.076.081.08.078.082.075.086.072.088.068.091.064.093.061.096.058.098.053.1.05.102.046.104.042.105.038.107.034.109.03.109.025.111.022.111.017.113.013.113.008.113.004.113v.114l-.004.113-.008.113-.013.113-.017.113-.022.111-.025.111-.03.109-.034.109-.038.107-.042.105-.046.104-.05.102-.053.1-.058.098-.061.096-.064.093-.068.091-.072.088-.075.086-.078.082-.081.08-.084.076-.087.073-.089.07-.092.066-.095.063-.097.06-.099.055-.101.052-.103.048-.104.044-.107.04-.107.036-.109.031-.111.028-.111.023-.112.02-.112.015-.113.01-.113.007-.114.002h-.143l-.114-.001-.123-.002-.122-.004-.123-.005-.122-.007-.122-.008-.122-.01-.122-.011-.121-.013-.122-.015-.12-.015-.121-.018-.12-.018-.12-.02-.12-.022-.119-.023-.119-.025-.118-.026-.119-.027-.117-.029-.118-.03-.116-.032-.117-.033-.116-.034-.116-.036-.114-.038-.115-.038-.114-.04-.114-.042-.113-.043-.112-.044-.112-.045-.111-.047-.111-.049-.111-.049-.109-.051-.109-.053-.108-.053-.108-.055-.107-.057-.107-.057-.105-.059-.105-.06-.105-.062-.104-.063-.103-.064-.102-.065-.101-.067-.101-.068-.1-.069-.099-.071-.098-.072-.097-.073-.097-.074-.096-.076-.095-.077-.094-.078-.093-.079-.092-.08-.092-.082-.09-.083-.089-.084-.089-.085-.081-.08-5.986-5.987-.079-.081-.076-.085-.072-.088-.069-.09-.065-.093-.062-.095-.059-.097-.054-.1-.051-.101-.047-.104-.043-.105-.039-.106-.035-.108-.031-.11-.026-.11-.023-.111-.018-.113-.014-.112-.009-.113-.006-.114-.001-.113.003-.114.008-.113.012-.113.016-.112.02-.112.025-.111.028-.11.033-.109.037-.107.041-.106.045-.104.049-.103.052-.1.057-.099.06-.096.064-.094.067-.091.071-.089.074-.086.077-.084.08-.08.084-.077.086-.074.089-.071.091-.067.094-.064.096-.06.099-.057.1-.052.103-.049.104-.045.106-.041.107-.037.109-.033.11-.028.111-.025.112-.02.112-.016.113-.012.113-.008.114-.003.113.001z"/><path d="m27.245 8.502.126.009.126.015.125.021.123.028.122.034.121.04.118.046.115.052.113.058.109.063.107.069.102.074.099.08.095.084.09.089.086.093.08.098.076.101.071.105.065.109.059.112.054.115.048.117.042.119.036.122.029.123.023.125.017.125.011.126.004.127-.002.127-.009.126-.015.126-.021.125-.028.123-2.688 10.72-.026.099-.028.105-.029.104-.03.104-.031.103-.033.103-.033.103-.034.101-.036.101-.036.101-.037.101-.039.099-.039.099-.041.099-.041.098-.042.098-.044.097-.044.096-.045.096-.046.095-.047.095-.048.094-.049.093-.05.093-.051.092-.052.091-.052.092-.054.09-.054.089-.055.089-.057.089-.057.087-.057.087-.059.087-.06.085-.06.085-.061.085-.062.083-.063.083-.064.082-.064.082-.065.081-.066.08-.067.079-.067.078-.069.079-.069.077-.07.076-.07.076-.072.075-.072.074-.072.073-.074.073-.074.072-.075.071-.076.07-.076.07-.077.068-.078.068-.078.067-.079.067-.08.065-.08.065-.081.063-.082.064-.082.062-.083.061-.084.061-.084.06-.085.058-.085.058-.086.057-.087.057-.087.055-.088.055-.088.053-.089.053-.089.052-.09.051-.091.05-.091.049-.092.048-.092.048-.092.046-.094.045-.093.045-.094.043-.095.043-.096.042-.095.041-.096.04-.097.038-.097.038-.098.037-.098.036-.098.035-.099.034-.099.033-.1.032-.1.031-.101.03-.101.029-.101.027-.102.027-.102.026-.102.025-.104.024-.103.022-.103.022-.104.02-.105.02-.104.018-.105.018-.105.016-.105.015-.106.014-.107.013-.106.012-.106.011-.107.009-.107.009-.108.007-.107.007-.108.005-.108.004-.108.003-.109.002h-.102-1.045l-.127-.003-.126-.01-.126-.016-.124-.022-.124-.029-.121-.035-.12-.041-.118-.047-.115-.052-.112-.059-.109-.064-.106-.07-.102-.075-.098-.08-.094-.085-.09-.09-.085-.094-.08-.098-.075-.102-.07-.106-.064-.109-.059-.112-.052-.115-.047-.118-.041-.12-.035-.121-.029-.124-.022-.124-.016-.126-.01-.126-.003-.127.003-.127.01-.126.016-.126.022-.124.029-.124.035-.121.041-.12.047-.118.052-.115.059-.112.064-.109.07-.106.075-.102.08-.098.085-.094.09-.09.094-.085.098-.08.102-.075.106-.07.109-.064.112-.058.115-.053.118-.047.12-.041.121-.035.124-.029.124-.022.126-.016.126-.01.127-.003h1.032.062l.055-.001.056-.002.055-.002.054-.002.055-.003.055-.004.054-.005.054-.005.054-.005.055-.006.053-.007.054-.007.053-.007.053-.009.053-.008.053-.01.053-.01.053-.01.052-.011.052-.011.052-.012.052-.013.052-.013.051-.013.051-.015.051-.014.051-.015.051-.016.05-.016.05-.017.05-.017.05-.018.05-.018.049-.018.049-.019.049-.02.049-.02.048-.021.049-.021.047-.022.048-.022.048-.023.047-.022.047-.024.047-.024.046-.024.046-.025.046-.026.046-.026.046-.026.044-.027.045-.027.045-.028.044-.028.044-.029.044-.028.043-.03.043-.03.043-.03.043-.031.042-.031.042-.032.041-.032.041-.032.041-.033.04-.033.041-.034.039-.034.04-.035.039-.034.039-.036.038-.035.038-.037.038-.036.037-.037.037-.037.037-.038.036-.038.036-.038.035-.039.035-.039.035-.039.034-.04.034-.041.034-.04.033-.041.032-.041.032-.042.032-.042.032-.042.031-.043.03-.043.03-.043.03-.044.029-.044.029-.045.028-.044.028-.045.028-.045.027-.046.026-.046.027-.046.025-.047.025-.047.025-.047.024-.047.024-.048.024-.048.022-.049.023-.049.022-.049.021-.049.021-.049.021-.05.02-.051.019-.05.019-.051.018-.051.018-.052.018-.051.017-.052.016-.053.016-.052.015-.053.015-.053.014-.054.016-.06 2.685-10.707.034-.122.04-.12.046-.118.052-.116.058-.113.064-.109.069-.106.074-.103.079-.099.084-.095.089-.09.093-.085.098-.081.101-.076.106-.07.108-.066.112-.059.115-.054.117-.048.12-.042.121-.035.123-.03.125-.023.125-.017.127-.011.126-.004.127.002z"/><path d="m10 13v9l-4.068-2.28 9.159 8.98 9.909-3.7v-12z"/></g><path d="m26 5-1.75 10.5" fill="none" stroke="#000"/><path d="m19.5 4v10" fill="none" stroke="#000"/><path d="m13.5 4v9.5" fill="none" stroke="#000"/></g></svg>