<svg clip-rule="evenodd" fill-rule="evenodd" stroke-linejoin="round" stroke-miterlimit="1.41421" viewBox="0 0 32 32" xmlns="http://www.w3.org/2000/svg" xmlns:xlink="http://www.w3.org/1999/xlink"><clipPath id="a"><path clip-rule="evenodd" d="m0 0h32v32h-32z"/></clipPath><path d="m0 0h32v32h-32z" fill="none"/><g clip-path="url(#a)"><path d="m22.204 11.005.101.006.101.009.101.012.1.014.099.016.098.019.097.021.097.024.096.026.095.028.093.03.093.033.092.035.091.037.089.039.088.041.087.043.086.046.084.047.084.049.082.051.08.053.079.055.078.057.076.058.074.06.074.062.071.063.07.066.069.067.066.068.065.07.064.071.062.074.06.075.058.076.057.077.055.079.053.081.051.082.049.083.047.084.045.086.044.087.041.088.039.089.037.091.035.092.033.093.03.093.028.095.026.096.024.096.021.098.019.098.016.099.014.1.012.101.009.101.006.1.004.103.001.102-.001.102-.004.103-.006.1-.009.101-.012.101-.014.1-.016.099-.019.098-.021.098-.024.096-.026.096-.028.095-.03.093-.033.093-.035.092-.037.091-.039.089-.041.088-.043.087-.045.085-.048.085-.004.008.004.008.047.084.045.086.044.087.041.088.039.09.037.09.035.092.033.093.03.093.028.095.026.096.024.096.021.098.019.098.016.099.014.1.012.101.009.101.006.1.004.103.001.102-.001.102-.004.103-.006.1-.009.101-.012.101-.014.1-.016.099-.019.098-.021.098-.024.096-.026.096-.028.095-.03.093-.033.094-.035.091-.037.09-.039.09-.041.088-.043.087-.045.086-.048.084-.004.008.004.008.047.084.045.086.044.087.041.088.039.089.037.091.035.092.033.093.03.093.028.095.026.096.024.096.021.098.019.098.016.099.014.1.012.101.009.101.006.1.004.103.001.102-.001.102-.004.103-.006.1-.009.101-.012.101-.014.1-.016.099-.019.098-.021.098-.024.096-.026.096-.028.095-.03.093-.033.093-.035.092-.037.091-.039.089-.041.088-.043.087-.045.085-.048.085 4.467 1.587.034.224-4.806 3.644-.09.066-.104.071-.106.068-.107.064-.11.061-.11.057-.113.054-.114.05-.115.046-.116.043-.117.039-.118.035-.12.031-.12.028-.12.024-.121.021-.122.016-.123.013-.123.01-.123.005-.123.002-.124-.003-.123-.006-.124-.01-.123-.013-.123-.018-.123-.022-.123-.025-.122-.029-.121-.034-.121-.037-.104-.035-5.598-2.019h-9.833l-.089-.001-.102-.004-.102-.006-.101-.009-.1-.012-.1-.014-.099-.016-.098-.019-.098-.021-.096-.024-.096-.026-.095-.028-.093-.03-.094-.033-.091-.035-.09-.037-.09-.039-.088-.041-.088-.044-.085-.045-.084-.047-.083-.049-.082-.051-.081-.053-.079-.055-.078-.057-.076-.058-.074-.06-.073-.062-.072-.063-.07-.066-.068-.066-.067-.069-.066-.07-.063-.072-.062-.073-.06-.074-.058-.076-.057-.078-.055-.079-.052-.08-.052-.082-.049-.084-.047-.084-.045-.086-.044-.087-.041-.088-.039-.089-.037-.091-.035-.092-.032-.092-.031-.095-.028-.094-.026-.096-.024-.097-.021-.096-.019-.099-.016-.1-.014-.099-.012-.1-.009-.101-.006-.102-.004-.102-.001-.089v-8.026l.001-.089.004-.102.006-.102.009-.101.012-.1.014-.099.016-.099.019-.099.021-.098.024-.097.026-.095.028-.094.031-.095.032-.092.035-.092.037-.09.039-.09.041-.088.044-.087.045-.086.047-.084.049-.083.051-.082.053-.081.055-.079.057-.077.058-.076.06-.075.062-.074.064-.071.064-.07.067-.068.069-.068.07-.065.071-.063.074-.062.074-.06.077-.058.077-.057.079-.055.08-.053.082-.051.084-.049.084-.047.085-.045.087-.044.089-.041.089-.039.091-.037.092-.035.092-.032.094-.031.095-.028.096-.026.097-.024.097-.021.098-.019.1-.016.099-.014.1-.012.102-.009.101-.006.101-.004.09-.001h1.277l2.736-5.472v-8.029l.939-.389 5.357 5.357.093.096.098.106.096.108.093.111.09.112.087.115.084.116.081.118.078.121.075.121.071.124.069.125.066.127.062.128.06.13.056.131.053.133.05.133.046.135.043.136.04.137.037.138.033.14.03.14.026.141.023.142.02.142.016.143.012.144.009.144.005.145.002.132v.028l-.001.094-.005.107-.008.108-.011.107-.014.107-.017.106-.02.106-.023.105-.027.104-.029.103-.032.103-.035.102-.038.101-.041.099-.044.099-.041.084-.378.756h4.776l.09.001zm-8.208-2.525-3.435 6.87-.026.053-.023.048-.023.049-.023.049-.021.049-.021.049-.021.049-.531 1.304h-3.859-.013v.013 7.974.013h.013 9.444l.344-2h6.186.001l-3.988-.051v-3.898l3.987-.051-3.987-.051v-3.898l3.987-.051h-6.385l-.081-.001-.097-.005-.096-.008-.095-.011-.095-.013-.095-.017-.093-.02-.092-.023-.093-.025-.09-.029-.089-.031-.088-.034-.088-.037-.086-.039-.084-.042-.083-.044-.081-.048-.081-.049-.078-.053-.077-.055-.076-.057-.074-.06-.07-.061-.071-.065-.068-.067-.066-.069-.064-.072-.061-.073-.06-.075-.057-.078-.055-.08-.052-.082-.049-.082-.048-.086-.044-.087-.041-.086-.038-.087-.035-.09-.032-.09-.029-.09-.027-.091-.023-.093-.021-.092-.018-.093-.014-.092-.012-.095-.008-.094-.006-.094-.003-.095v-.093l.003-.094.007-.097.009-.093.012-.094.015-.094.018-.093.021-.092.024-.092.027-.093.03-.091.034-.09.036-.09.039-.089.035-.072 1.071-2.142-.001-.029-.002-.022z"/><path d="m12 15s-3.63 0-6 0c-1.105 0-2 .895-2 2v8c0 1.105.895 2 2 2h5l1-1z" fill="#2bac85"/><path d="m14.427 10.754v1.326c0 .552.639.92 1.191.92h6.382c1.105 0 2 .895 2 2 0 1.105-.895 2-2 2 1.105 0 2 .895 2 2 0 1.105-.895 2-2 2 1.105 0 2 .895 2 2 0 1.105-.895 2-2 2h-2.484l6.484 2.304s-1.178.893-2.032 1.54c-.54.409-1.25.517-1.887.288l-5.912-2.132h-5.144c-.803 0-1.572-.319-2.139-.886s-.886-1.336-.886-2.139c0-2.012 0-4.583 0-6.253 0-1.133.264-2.249.77-3.262l1.73-3.46.5-.246zm.573-.583h-3.784l-.216-.171 1-2 .283-.278h3.217l.454.278c.03.195.046.394.046.594 0 .267-.062.53-.181.769l-.319.637zm.5-2.864h-3.217l-.283-.307v-4s1.69 1.69 2.873 2.873c.329.329.592.711.781 1.127z" fill="#21e2a8"/><path d="m15.5 10-.776 1.553c-.155.31-.139.678.043.973.183.295.504.474.851.474h-1.618c-.552 0-1-.448-1-1 0-.265.105-.52.293-.707.187-.188.442-.293.707-.293h-3.5l.5-1zm.154-3c.145.317.246.653.3 1h-3.954v-1z" fill="#2bac85"/></g></svg>