<svg clip-rule="evenodd" fill-rule="evenodd" stroke-linecap="round" stroke-miterlimit="2" viewBox="0 0 32 32" xmlns="http://www.w3.org/2000/svg" xmlns:xlink="http://www.w3.org/1999/xlink"><clipPath id="a"><path clip-rule="evenodd" d="m0 0h32v32h-32z"/></clipPath><clipPath id="b"><path clip-rule="evenodd" d="m23.894 18.447c.678.339 1.106 1.032 1.106 1.789v2.471c0 1.934-.768 3.789-2.136 5.157s-3.223 2.136-5.157 2.136c-.226 0-.454 0-.682 0-4.984 0-9.025-4.041-9.025-9.025 0-4.903 0-9.975 0-9.975h15v5l-1 1 1 1s.432.216.894.447z"/></clipPath><path d="m0 0h32v32h-32z" fill="none"/><g clip-path="url(#a)"><path d="m25 0v16.772c.077.044.076.045.156.095l.117.077c.188.135.368.278.533.441.489.482.85 1.088 1.039 1.748.091.315.136.635.153.962.016.909.007 1.818.001 2.728-.005.306-.022.612-.056.916-.076.679-.227 1.349-.45 1.995-.271.787-.648 1.536-1.118 2.223-.411.6-.892 1.151-1.431 1.639-1.324 1.199-2.989 1.999-4.752 2.285-.377.061-.757.098-1.139.113-.085.003-.17.005-.255.006h-.78c-1.108-.001-2.213-.167-3.271-.496-1.15-.358-2.24-.907-3.213-1.617-1.757-1.281-3.117-3.079-3.864-5.121-.299-.815-.5-1.665-.598-2.527-.043-.373-.064-.747-.071-1.122-.007-1.018-.005-2.036-.003-3.054l-1.901-5.702-.045-.143c-.045-.157-.088-.313-.123-.473-.057-.263-.096-.529-.117-.798-.067-.853.051-1.719.343-2.523.129-.353.293-.689.481-1.014l2.221-3.717c.598.065 1.197.13 1.795.195l1.906 5.719c.399-.618.99-1.105 1.682-1.372.376-.146.771-.219 1.173-.234.087-.001.087-.001.174 0 .402.015.797.088 1.173.234.262.101.511.233.741.394.252-.176.527-.32.819-.424.352-.126.719-.19 1.093-.204.087-.001.087-.001.174 0 .139.005.276.017.413.037v-1.394l.002-.136c.014-.395.058-.785.145-1.171.172-.762.494-1.49.944-2.129.197-.281.418-.539.657-.784l2.424-2.424h2.828z"/><path d="m23.894 18.447c.678.339 1.106 1.032 1.106 1.789v2.471c0 1.934-.768 3.789-2.136 5.157s-3.223 2.136-5.157 2.136c-.226 0-.454 0-.682 0-4.984 0-9.025-4.041-9.025-9.025 0-4.903 0-9.975 0-9.975h15v5l-1 1 1 1s.432.216.894.447z" fill="#ccc"/><g clip-path="url(#b)"><path d="m16.5 21-2 4" fill="none" stroke="#9c9c9c" stroke-width="2"/><g fill="#595959"><path d="m24 8.999-17 .001 4.5 9 12.5-.001z"/><path d="m13.562 9.001c.287.01.569.063.838.167.692.267 1.24.842 1.474 1.547.083.252.123.514.126.779v11.257l-.469.194c-1.235-1.235-2.485-2.455-3.704-3.705-.101-.109-.196-.222-.281-.343-.225-.32-.387-.684-.473-1.066-.043-.192-.065-.388-.072-.585-.024-1.936-.024-3.872 0-5.808.01-.287.063-.569.167-.838.244-.634.748-1.15 1.375-1.41.247-.102.506-.16.771-.183.083-.005.165-.007.248-.006z" fill-rule="nonzero"/></g></g><path d="m23 2.001s-.987.987-1.829 1.829c-.75.749-1.171 1.766-1.171 2.827v1.343l.5.5-.5.5v4l.5.5-.5.5v2.001h3v-2.001l-.5-.5.5-.5v-4l-.5-.5.5-.5v-5.999z" fill="#ccc"/><path d="m20 8h3v1h-3z" fill="#9c9c9c"/><path d="m20 13h3v1h-3z" fill="#9c9c9c"/><g fill="#ccc"><path d="m16 11.499c0-.397.158-.779.439-1.06.282-.282.663-.44 1.061-.44s.779.158 1.061.44c.281.281.439.663.439 1.06v4.501h-3s0-2.723 0-4.501z"/><path d="m12 11.5c0-.398.158-.779.439-1.061.282-.281.663-.439 1.061-.439s.779.158 1.061.439c.281.282.439.663.439 1.061v9.5s-1.541-1.541-2.414-2.414c-.375-.375-.586-.884-.586-1.414 0-1.339 0-3.995 0-5.672z"/><path d="m10.381 15.4.533 1.6-1.363 5.397-2.016-6.048 1.465-.849zm-.316-.949-1.065 1.049-1.781-.1-.784-2.351 1.065-1.049 1.781.1zm-1.1-3.3-1.465.849-1.381.1-.12-.359c-.369-1.105-.237-2.316.361-3.316.531-.889 1.088-1.822 1.088-1.822z"/></g><path d="m10.381 15.4-2.846.949-.316-.949 2.846-.949zm-1.1-3.3-2.846.949-.316-.949 2.846-.949z" fill="#9c9c9c"/><path d="m23 17h-9s.273.682.617 1.543c.835 2.088 2.858 3.457 5.107 3.457h.276l2 2" fill="#ccc" stroke="#595959" stroke-linecap="butt" stroke-width="2"/></g></svg>