<svg clip-rule="evenodd" fill-rule="evenodd" stroke-miterlimit="1.5" viewBox="0 0 32 32" xmlns="http://www.w3.org/2000/svg" xmlns:xlink="http://www.w3.org/1999/xlink"><clipPath id="a"><path clip-rule="evenodd" d="m0 0h32v32h-32z"/></clipPath><path d="m0 0h32v32h-32z" fill="none"/><g clip-path="url(#a)"><path d="m16.199.001.198.004.198.006.198.009.198.011.197.013.197.016.196.018.196.021.196.023.195.025.195.028.194.031.193.032.194.035.192.037.192.04.191.042.191.044.19.047.19.048.188.051.188.054.187.056.187.058.186.06.185.062.184.065.183.067.183.069.181.071.181.074.18.076.179.078.178.08.177.082.176.085.174.086.174.089.173.091.172.093.171.095.169.097.169.1.167.101.166.104.165.105.164.108.162.11.162.112.159.114.159.115.158.119.155.12.155.121.153.124.152.126.151.128.148.13.148.132.146.134.144.136.143.137.142.14.139.142.138.143.136.144.134.146.132.148.13.149.128.15.125.152.124.153.123.155.119.156.118.157.117.159.113.16.112.16.11.163.108.164.105.165.104.166.101.167.1.169.097.169.095.171.093.172.091.173.089.174.087.175.084.176.082.176.08.178.078.179.076.18.074.18.071.182.069.183.067.183.065.184.062.185.061.186.057.187.056.187.053.188.052.188.049.19.046.19.044.19.042.192.04.192.037.193.035.192.032.194.031.194.027.195.026.195.023.196.021.196.018.196.016.197.013.197.011.198.009.198.006.198.004.198.001.193v2.012l-.001.174-.003.18-.006.18-.008.179-.01.178-.013.178-.014.178-.017.176-.019.176-.021.175-.024.176-.025.173-.028.174-.03.173-.031.172-.034.172-.036.17-.038.169-.041.17-.042.169-.044.167-.046.166-.048.166-.051.166-.052.164-.054.163-.056.162-.058.162-.06.16-.062.159-.063.16-.066.157-.067.157-.069.155-.072.155-.072.153-.075.153-.077.152-.078.15-.08.149-.081.149-.084.147-.085.146-.087.145-.089.144-.09.142-.092.142-.093.14-.096.139-.096.138-.098.136-.1.135-.102.135-.103.133-.104.131-.107.13-.107.129-.109.127-.111.127-.113.125-.113.123-.115.122-.117.121-.118.12-.119.117-.121.117-.122.115-.123.114-.125.112-.126.11-.128.11-.129.107-.13.106-.132.105-.133.103-.133.102-.136.1-.136.098-.138.097-.139.095-.14.093-.142.092-.142.09-.144.089-.145.087-.146.085-.147.083-.148.082-.15.08-.15.078-.152.077-.152.074-.154.073-.155.071-.155.07-.157.067-.158.066-.158.063-.16.062-.16.06-.162.058-.162.056-.163.054-.165.052-.165.051-.165.048-.167.046-.168.044-.168.042-.169.041-.17.038-.171.036-.171.034-.172.031-.173.03-.174.028-.174.025-.174.024-.176.021-.176.019-.177.017-.177.014-.178.013-.178.01-.179.008-.18.005-.18.004-.174.001h-4.012l-.174-.001-.18-.004-.18-.005-.179-.008-.178-.01-.178-.013-.177-.014-.177-.017-.176-.019-.176-.021-.174-.024-.174-.025-.174-.028-.173-.03-.172-.031-.171-.034-.171-.036-.17-.038-.169-.041-.168-.042-.168-.044-.167-.046-.165-.048-.165-.051-.165-.052-.163-.054-.162-.056-.162-.058-.16-.06-.16-.062-.159-.063-.157-.066-.157-.067-.155-.07-.155-.071-.154-.073-.152-.074-.152-.077-.15-.078-.15-.08-.148-.081-.147-.084-.146-.085-.145-.087-.144-.089-.142-.09-.142-.091-.14-.094-.139-.095-.138-.097-.136-.098-.136-.1-.133-.102-.133-.103-.132-.105-.13-.106-.129-.107-.128-.11-.126-.11-.125-.112-.123-.114-.123-.115-.12-.117-.119-.117-.118-.12-.117-.121-.115-.122-.113-.123-.113-.125-.111-.127-.109-.127-.107-.129-.106-.13-.105-.131-.103-.133-.101-.134-.101-.136-.098-.136-.097-.138-.095-.139-.093-.14-.092-.142-.09-.142-.089-.144-.087-.145-.085-.146-.084-.147-.081-.149-.08-.149-.078-.15-.077-.152-.075-.153-.072-.153-.071-.154-.07-.156-.067-.157-.066-.157-.063-.159-.062-.16-.06-.161-.058-.161-.056-.162-.054-.163-.052-.164-.05-.166-.049-.166-.046-.166-.044-.167-.042-.169-.041-.169-.038-.17-.036-.171-.034-.171-.032-.172-.029-.173-.028-.174-.025-.173-.024-.176-.021-.175-.019-.176-.017-.177-.014-.177-.013-.178-.01-.178-.008-.179-.006-.18-.003-.179-.001-.174v-2.014l.001-.2.004-.205.007-.205.009-.205.011-.203.015-.204.016-.202.019-.203.022-.201.024-.2.027-.2.029-.199.032-.198.034-.198.036-.197.039-.196.041-.195.044-.193.046-.194.048-.192.05-.191.053-.191.055-.19.058-.188.059-.188.062-.186.064-.186.066-.184.069-.184.071-.182.072-.181.075-.181.077-.178.079-.178.082-.177.083-.176.085-.174.087-.173.09-.173.091-.17.094-.169.095-.169.097-.166.099-.166.102-.164.103-.163.105-.162.107-.16.108-.159.111-.158.112-.156.115-.154.116-.153.117-.152.12-.151.121-.148.123-.148.125-.146.127-.144.128-.142.129-.141.132-.14.133-.138.135-.137.137-.135.138-.133.139-.131.141-.13.143-.128.145-.127.145-.125.148-.123.148-.121.151-.12.152-.117.153-.116.154-.115.157-.112.157-.111.159-.108.16-.107.162-.105.163-.103.164-.101.165-.1.168-.097.168-.095.169-.094.171-.091.172-.09.173-.087.174-.085.176-.084.177-.081.177-.079.179-.077.181-.075.181-.073.182-.07.184-.069.184-.066.186-.064.186-.062.188-.059.188-.058.19-.055.19-.053.192-.05.192-.048.193-.046.195-.044.195-.041.195-.039.197-.036.198-.034.198-.032.199-.029.2-.027.2-.024.201-.022.202-.019.203-.016.203-.015.204-.011.205-.009.205-.007.206-.004.206-.001.199.001zm-.355 4-.155.003-.154.005-.154.007-.154.008-.152.011-.153.013-.151.014-.151.016-.151.019-.15.02-.149.021-.149.024-.148.026-.147.027-.147.029-.146.031-.145.032-.144.035-.145.036-.143.038-.142.039-.142.041-.141.043-.141.045-.139.046-.139.048-.138.05-.137.051-.137.053-.135.054-.135.056-.134.058-.134.059-.132.061-.131.062-.131.064-.13.066-.129.067-.127.068-.128.07-.126.072-.125.073-.124.074-.123.076-.122.077-.122.079-.12.08-.119.082-.118.083-.117.084-.117.086-.115.087-.114.089-.112.089-.112.092-.111.092-.109.094-.109.095-.107.096-.106.098-.105.098-.104.101-.102.101-.102.102-.1.104-.098.105-.098.106-.096.107-.095.109-.094.109-.092.111-.092.112-.089.112-.089.114-.087.116-.086.115-.084.118-.083.118-.082.119-.08.12-.079.122-.077.122-.076.123-.074.124-.073.126-.072.125-.07.127-.068.129-.067.128-.066.13-.064.131-.062.131-.061.132-.059.134-.058.134-.056.134-.054.136-.053.137-.051.137-.05.138-.048.139-.046.139-.045.141-.043.141-.041.142-.039.142-.038.143-.036.144-.035.145-.032.146-.031.146-.029.146-.027.147-.026.148-.024.149-.021.149-.02.15-.019.151-.016.151-.014.151-.013.153-.011.152-.008.154-.007.154-.005.154-.003.156-.001.162v1.986l.001.137.002.129.004.129.006.128.007.128.009.128.011.127.012.126.013.126.015.125.017.125.018.125.02.124.021.123.023.122.024.122.026.122.027.121.029.121.03.119.031.12.033.119.035.118.035.117.038.117.038.117.04.115.041.116.043.114.044.113.045.113.047.113.048.112.049.11.051.111.052.11.053.108.055.108.056.108.057.106.058.106.06.105.06.104.063.104.063.103.064.101.066.102.067.1.067.099.07.099.07.097.071.097.073.096.074.095.075.094.076.093.077.092.078.092.079.09.08.089.082.089.082.087.083.087.085.085.085.085.087.083.087.082.089.081.089.081.09.079.091.078.093.077.093.076.094.075.095.074.096.072.097.072.098.07.098.069.099.068.1.067.101.066.102.064.103.064.104.062.104.06.105.06.106.058.106.057.108.056.108.055.109.053.109.052.11.05.112.05.111.048.113.047.113.045.113.044.115.043.115.041.115.04.117.039.117.037.117.035.118.035.119.033.119.031.12.03.121.029.121.027.121.026.123.024.123.023.123.021.124.02.124.018.125.017.125.015.126.013.127.012.126.011.128.009.128.007.128.006.129.004.129.002.136.001h3.988l.136-.001.129-.002.129-.004.128-.006.128-.007.128-.009.126-.011.127-.012.126-.013.125-.015.125-.017.124-.018.124-.02.123-.021.123-.023.123-.024.121-.026.121-.027.121-.029.12-.03.119-.031.119-.033.118-.035.117-.035.117-.037.117-.039.115-.04.115-.041.115-.043.113-.044.114-.045.112-.047.111-.048.112-.05.11-.05.109-.052.109-.053.108-.055.108-.056.106-.057.106-.058.105-.06.104-.061.104-.061.103-.064.102-.064.1-.066.101-.067.099-.068.098-.069.098-.07.097-.072.096-.072.095-.074.094-.075.093-.076.092-.077.092-.078.09-.079.089-.08.089-.082.087-.082.087-.083.085-.085.085-.085.083-.087.082-.087.082-.089.08-.089.079-.09.078-.092.077-.092.076-.093.075-.094.074-.095.072-.096.072-.097.07-.097.069-.099.069-.1.066-.099.066-.101.064-.102.064-.104.062-.103.06-.104.06-.105.058-.106.057-.106.056-.108.055-.108.053-.108.052-.11.05-.11.05-.111.048-.113.047-.112.045-.112.044-.114.043-.115.041-.115.04-.115.039-.117.037-.117.035-.117.035-.118.033-.119.031-.12.03-.119.029-.12.027-.122.026-.122.024-.122.023-.122.021-.124.02-.123.018-.125.017-.125.015-.125.013-.126.012-.127.011-.126.009-.128.007-.128.006-.128.004-.129.002-.129.001-.136v-1.988l-.001-.155-.003-.149-.004-.149-.007-.148-.008-.148-.01-.148-.012-.148-.014-.147-.015-.147-.018-.146-.019-.147-.021-.146-.022-.145-.025-.146-.026-.145-.028-.144-.029-.144-.032-.143-.033-.143-.035-.143-.036-.142-.039-.141-.04-.141-.042-.141-.043-.14-.045-.139-.047-.139-.049-.138-.05-.138-.052-.136-.053-.136-.055-.136-.057-.135-.059-.134-.06-.133-.062-.134-.063-.131-.065-.132-.066-.13-.069-.13-.07-.129-.071-.127-.073-.128-.074-.126-.076-.125-.078-.125-.08-.124-.08-.123-.082-.121-.084-.121-.086-.121-.087-.118-.088-.118-.09-.117-.091-.116-.093-.115-.095-.114-.096-.113-.097-.111-.099-.111-.101-.109-.102-.109-.103-.107-.105-.106-.106-.105-.107-.103-.109-.102-.109-.101-.111-.099-.111-.097-.113-.096-.114-.094-.115-.093-.116-.092-.117-.09-.118-.088-.119-.087-.12-.086-.121-.084-.121-.082-.123-.08-.124-.08-.124-.078-.126-.076-.126-.074-.127-.073-.128-.071-.129-.07-.13-.068-.13-.067-.132-.065-.132-.063-.132-.062-.134-.06-.134-.059-.135-.057-.135-.055-.137-.053-.136-.052-.138-.05-.138-.049-.139-.047-.139-.045-.14-.043-.141-.042-.141-.04-.141-.038-.142-.037-.143-.035-.143-.033-.143-.032-.144-.029-.144-.028-.145-.026-.145-.025-.146-.022-.146-.021-.146-.019-.147-.018-.147-.015-.147-.014-.148-.012-.148-.01-.148-.008-.148-.007-.149-.004-.149-.003-.149-.001z"/><path d="m30 16c0-3.713-1.475-7.274-4.101-9.899-2.625-2.626-6.186-4.101-9.899-4.101-7.732 0-14 6.268-14 14v2c0 6.627 5.373 12 12 12h4c6.627 0 12-5.373 12-12 0-.663 0-1.331 0-2z" fill="#fbc546"/><path d="m9.354 23.469c-1.583-1.409-2.715-3.314-3.153-5.469h19.598c-.438 2.155-1.57 4.06-3.153 5.469z" fill="#165011"/><path d="m9.354 23.469.755-1.133c.237-.355.542-.649.891-.87l2 2.814c0 .376-.231.741-.495 1.091-1.169-.436-2.236-1.086-3.151-1.902zm10.141 1.902c-.264-.35-.495-.715-.495-1.091l2-2.814c.349.221.654.515.891.87l.755 1.133c-.915.816-1.982 1.466-3.151 1.902z" fill="#1d8016"/><path d="m19.394 21c.578 0 1.133.166 1.606.466v1.814h-10v-1.814c.473-.3 1.028-.466 1.606-.466z" fill="#2abd20"/><path d="m21 22h-10v2.28c0 2.607 2.113 4.72 4.72 4.72h.56c2.607 0 4.72-2.113 4.72-4.72 0-1.261 0-2.28 0-2.28z" fill="#2abd20"/><g fill="none" stroke="#000" stroke-width="1.5"><path d="m13 8s-3.443 0-5.5 0c-.398 0-.779.158-1.061.439-.281.282-.439.663-.439 1.061s.158.779.439 1.061c.282.281.663.439 1.061.439h4c.398 0 .779.158 1.061.439.281.282.439.663.439 1.061s-.158.779-.439 1.061c-.282.281-.663.439-1.061.439-2.057 0-5.5 0-5.5 0"/><path d="m9.5 16v-10"/><path d="m22.5 16v-10"/><path d="m26 8s-3.443 0-5.5 0c-.398 0-.779.158-1.061.439-.281.282-.439.663-.439 1.061s.158.779.439 1.061c.282.281.663.439 1.061.439h4c.398 0 .779.158 1.061.439.281.282.439.663.439 1.061s-.158.779-.439 1.061c-.282.281-.663.439-1.061.439-2.057 0-5.5 0-5.5 0"/></g></g></svg>