<svg clip-rule="evenodd" fill-rule="evenodd" stroke-linejoin="round" stroke-miterlimit="1.41421" viewBox="0 0 32 32" xmlns="http://www.w3.org/2000/svg" xmlns:xlink="http://www.w3.org/1999/xlink"><clipPath id="a"><path clip-rule="evenodd" d="m0 0h32v32h-32z"/></clipPath><clipPath id="b"><path clip-rule="evenodd" d="m27 20h1c.53 0 1.039-.211 1.414-.586s.586-.884.586-1.414c0-1.743 0-4.257 0-6 0-.53-.211-1.039-.586-1.414s-.884-.586-1.414-.586c-6.406 0-26 0-26 0v6h6s4.986 4.986 7.536 7.536c.937.937 2.209 1.464 3.535 1.464h5.929c.53 0 1.039-.211 1.414-.586s.586-.884.586-1.414c0-1.392 0-3 0-3z"/></clipPath><path d="m0 0h32v32h-32z" fill="none"/><g clip-path="url(#a)"><path d="m28.099 8.001c.46.017.911.101 1.341.267.551.213 1.051.547 1.458.975.383.402.681.885.868 1.408.144.403.217.823.233 1.25.025 2.066.025 4.132 0 6.198-.016.427-.089.847-.233 1.25-.31.866-.922 1.611-1.712 2.084-.329.196-.684.342-1.054.44 0 .409.004.817-.001 1.226-.016.427-.089.847-.233 1.25-.199.554-.521 1.063-.937 1.48-.394.393-.87.703-1.389.903-.43.166-.881.25-1.34.267-1.905.023-3.81.012-5.714 0-.559-.01-1.115-.072-1.66-.195-1.018-.229-1.988-.659-2.841-1.259-.376-.264-.725-.561-1.052-.884l-6.661-6.661h-7.172v-10c9.366 0 18.734-.114 28.099.001z" fill-rule="nonzero"/><path d="m27 20h1c.53 0 1.039-.211 1.414-.586s.586-.884.586-1.414c0-1.743 0-4.257 0-6 0-.53-.211-1.039-.586-1.414s-.884-.586-1.414-.586c-6.406 0-26 0-26 0v6h6s4.986 4.986 7.536 7.536c.937.937 2.209 1.464 3.535 1.464h5.929c.53 0 1.039-.211 1.414-.586s.586-.884.586-1.414c0-1.392 0-3 0-3z" fill="#8ad9ed"/><g clip-path="url(#b)"><path d="m1 9h6v8h-6z" fill="#4caddd"/><path d="m22.118 13.146c.393.015.78.073 1.157.189.817.25 1.553.744 2.095 1.406.203.248.373.518.52.803l.504 1.009-1.788.894c-.176-.352-.349-.706-.529-1.055-.121-.221-.269-.422-.451-.596-.504-.482-1.212-.718-1.905-.635-.271.033-.53.115-.776.234l-.044.022c.8 1.372 1.579 2.757 2.401 4.115.025.037.05.073.078.107.141.165.327.285.54.335.078.018.157.025.237.026h6.843v2h-6.86c-.261-.004-.518-.035-.771-.103-.531-.143-1.02-.434-1.398-.834-.158-.166-.291-.349-.41-.544l-3.462-5.936 1.963-.982c.095-.046.094-.046.19-.089.263-.112.532-.204.812-.265.277-.061.558-.092.841-.102.107-.001.106-.001.213.001z" fill="#125a87" fill-rule="nonzero"/></g></g></svg>