<svg clip-rule="evenodd" fill-rule="evenodd" stroke-linejoin="round" stroke-miterlimit="1.41421" viewBox="0 0 32 32" xmlns="http://www.w3.org/2000/svg" xmlns:xlink="http://www.w3.org/1999/xlink"><clipPath id="a"><path clip-rule="evenodd" d="m4.233 19.233c-.154-.154-.333-.282-.528-.379-.556-.275-1.705-.843-1.705-.843v-9.5l5 2.489h10.886c.378 0 .724.213.894.551.917 1.825 3.864 7.685 4.997 9.94.12.237.14.512.056.764s-.264.461-.502.579c-1.811.906-5.943 2.972-8.397 4.199-1.155.577-2.55.351-3.463-.562-2.234-2.234-6.236-6.236-7.238-7.238z"/></clipPath><clipPath id="b"><path clip-rule="evenodd" d="m30 18v-10l-10 5h-6.537l-2.963 3s.213.213.501.501c.398.398.937.621 1.499.621s1.101-.223 1.499-.621c.288-.288.501-.501.501-.501h2.5s3.535 3.535 5.581 5.581c.376.376.886.586 1.417.585.532-.001 1.042-.213 1.416-.591.109-.109.21-.211.296-.297.186-.188.29-.441.29-.705 0-.27 0-.573 0-.573z"/></clipPath><path d="m0 0h32v32h-32z" fill="none"/><path d="m20.494 10.517 11.506-5.753v14.472l-4.084 2.042-.005.021c-.035.128-.04.158-.085.282-.065.183-.148.359-.247.526-.101.169-.22.322-.347.472-.19.201-.192.198-.407.414-.303.298-.644.55-1.024.742-.243.123-.499.221-.761.292-.166.172-.353.323-.555.451-.108.068-.13.077-.237.134-2.837 1.418-5.659 2.865-8.51 4.254-.419.194-.857.337-1.313.414-1.115.188-2.28-.012-3.267-.563-.375-.209-.717-.467-1.03-.761-2.437-2.39-4.71-4.95-7.242-7.239-.061-.053-.127-.098-.198-.137l-.027-.013-2.661-1.331v-13.955l7.47 3.719h10.434l.088.002c.209.011.416.036.62.087.566.141 1.085.449 1.48.877.156.169.286.354.402.551z"/><path d="m4.233 19.233c-.154-.154-.333-.282-.528-.379-.556-.275-1.705-.843-1.705-.843v-9.5l5 2.489h10.886c.378 0 .724.213.894.551.917 1.825 3.864 7.685 4.997 9.94.12.237.14.512.056.764s-.264.461-.502.579c-1.811.906-5.943 2.972-8.397 4.199-1.155.577-2.55.351-3.463-.562-2.234-2.234-6.236-6.236-7.238-7.238z" fill="#ffc20b"/><g clip-path="url(#a)"><path d="m17.276 27.862-1.885.943-5-5 1.885-.943zm3.333-1.667-1.885.943-5-5 1.885-.943z" fill="#765018"/></g><path d="m19.532 11.498 8.384 9.78-.005.021c-.035.128-.04.158-.085.282-.065.183-.148.359-.247.526-.101.169-.22.322-.347.472-.19.201-.192.198-.407.414-.303.298-.644.55-1.024.742-.615.312-1.309.46-1.997.427-.524-.025-1.041-.154-1.515-.378-.415-.195-.787-.461-1.114-.781l-5.003-5.003h-.846c-.068.063-.068.062-.137.124-.362.304-.764.551-1.205.722-.536.206-1.114.299-1.688.271-.572-.028-1.136-.177-1.647-.434-.39-.197-.742-.455-1.054-.759l-1.915-1.915 4.488-4.544z" fill-rule="nonzero"/><path d="m30 18v-10l-10 5h-6.537l-2.963 3s.213.213.501.501c.398.398.937.621 1.499.621s1.101-.223 1.499-.621c.288-.288.501-.501.501-.501h2.5s3.535 3.535 5.581 5.581c.376.376.886.586 1.417.585.532-.001 1.042-.213 1.416-.591.109-.109.21-.211.296-.297.186-.188.29-.441.29-.705 0-.27 0-.573 0-.573z" fill="#ffc20b"/><g clip-path="url(#b)"><path d="m24.707 16.707c-.564.564-1.122 1.134-1.692 1.691-.073.067-.073.067-.147.133-.201.169-.413.321-.641.451-.426.24-.895.402-1.379.474-.194.029-.389.042-.584.044h-2.264v-2c.769 0 1.538.009 2.307-.001.378-.014.744-.125 1.06-.335.112-.075.213-.161.309-.254l1.617-1.617z" fill="#ce8d15" fill-rule="nonzero"/></g></svg>