<svg clip-rule="evenodd" fill-rule="evenodd" stroke-linejoin="round" stroke-miterlimit="1.41421" viewBox="0 0 32 32" xmlns="http://www.w3.org/2000/svg" xmlns:xlink="http://www.w3.org/1999/xlink"><clipPath id="a"><path clip-rule="evenodd" d="m0 0h32v32h-32z"/></clipPath><clipPath id="b"><path clip-rule="evenodd" d="m7 21c-2.761 0-5-2.239-5-5 0-.984 0-2.016 0-3 0-2.761 2.239-5 5-5h23v10h-7s-3.133 3.581-5.207 5.951c-1.139 1.302-2.785 2.049-4.516 2.049-1.034 0-2.218 0-3.277 0-.796 0-1.559-.316-2.121-.879-.563-.562-.879-1.325-.879-2.121 0-1.063 0-2 0-2z"/></clipPath><path d="m0 0h32v32h-32z" fill="none"/><g clip-path="url(#a)"><path d="m32 20h-8.092l-4.614 5.273-.068.076-.072.08-.074.078-.074.078-.076.076-.076.076-.078.074-.078.073-.079.072-.08.071-.081.069-.082.069-.083.067-.083.066-.084.065-.085.064-.086.063-.087.062-.087.06-.088.059-.089.058-.089.057-.09.055-.091.055-.092.053-.092.051-.093.051-.094.049-.094.048-.095.047-.095.046-.096.044-.096.043-.098.042-.097.04-.098.04-.099.037-.099.037-.1.035-.1.034-.101.033-.101.031-.102.03-.102.029-.102.027-.103.026-.104.025-.103.023-.104.022-.105.021-.104.019-.105.018-.106.016-.106.015-.106.014-.106.012-.107.011-.106.009-.107.008-.108.006-.107.006-.108.003-.108.002-.101.001h-3.296l-.112-.001-.124-.005-.123-.008-.123-.01-.123-.014-.121-.017-.121-.019-.121-.023-.12-.025-.119-.029-.118-.031-.117-.034-.117-.037-.115-.04-.114-.042-.113-.045-.112-.048-.111-.051-.11-.054-.108-.056-.108-.059-.105-.061-.104-.064-.103-.067-.101-.069-.1-.072-.098-.074-.096-.077-.094-.079-.093-.082-.091-.085-.089-.086-.086-.089-.085-.091-.081-.092-.08-.095-.077-.096-.074-.098-.072-.1-.069-.101-.067-.102-.064-.105-.061-.105-.059-.107-.056-.109-.054-.11-.05-.11-.049-.112-.045-.114-.042-.114-.04-.115-.037-.117-.034-.117-.031-.118-.029-.119-.025-.12-.023-.12-.019-.122-.017-.121-.014-.123-.01-.123-.008-.123-.005-.124-.001-.112v-.302l-.081-.025-.082-.026-.082-.027-.081-.028-.081-.029-.08-.03-.086-.033-.152-.063-.157-.068-.154-.072-.152-.076-.15-.079-.148-.083-.145-.085-.143-.09-.141-.093-.138-.095-.136-.1-.134-.102-.131-.105-.128-.108-.125-.112-.123-.114-.12-.117-.117-.12-.114-.123-.112-.125-.108-.129-.105-.13-.102-.134-.099-.135-.096-.139-.093-.141-.09-.143-.085-.145-.083-.148-.079-.15-.076-.152-.072-.154-.068-.157-.063-.152-.033-.086-.03-.08-.029-.081-.028-.081-.027-.082-.026-.082-.025-.083-.024-.083-.023-.083-.023-.084-.021-.084-.02-.085-.019-.085-.018-.086-.017-.085-.016-.086-.015-.086-.013-.087-.013-.088-.012-.087-.011-.088-.009-.088-.008-.088-.008-.088-.006-.089-.005-.089-.004-.09-.003-.089-.001-.09-.001-.084v-3.012l.001-.084.001-.09.003-.089.004-.09.005-.089.006-.089.008-.088.008-.088.009-.088.011-.088.012-.087.013-.088.013-.087.015-.086.016-.086.017-.085.018-.086.019-.085.02-.085.021-.084.023-.084.023-.083.024-.083.025-.083.026-.082.027-.082.028-.081.029-.081.03-.08.033-.086.063-.152.068-.157.072-.154.076-.152.079-.15.083-.148.085-.145.09-.143.093-.141.096-.139.099-.135.102-.134.105-.131.108-.128.112-.125.114-.123.117-.12.12-.117.123-.114.125-.112.129-.108.13-.105.134-.102.135-.1.139-.095.141-.093.143-.089.145-.086.148-.083.15-.079.152-.076.154-.072.157-.068.152-.063.086-.033.08-.03.081-.029.081-.028.082-.027.082-.026.083-.025.083-.024.083-.023.084-.023.084-.021.085-.02.085-.019.086-.018.085-.017.086-.016.086-.015.087-.013.088-.013.087-.012.088-.011.088-.009.088-.008.089-.008.088-.006.089-.005.09-.004.09-.003.089-.001.084-.001h25.006zm-24.994-10h-.045l-.04.001-.039.001-.038.002-.039.002-.038.003-.038.003-.038.004-.038.004-.038.004-.037.005-.037.006-.037.006-.037.006-.037.007-.037.007-.036.008-.036.008-.036.008-.036.009-.036.01-.036.01-.035.01-.035.011-.035.011-.034.011-.035.012-.035.013-.034.012-.028.011-.073.03-.067.029-.066.031-.064.032-.065.034-.063.035-.062.037-.061.039-.061.039-.059.041-.059.043-.057.044-.056.045-.056.047-.054.048-.052.049-.052.051-.051.051-.049.053-.048.054-.047.056-.045.056-.044.057-.043.059-.041.059-.039.06-.039.062-.037.062-.035.064-.034.064-.032.064-.031.066-.029.067-.03.073-.011.028-.012.034-.013.035-.012.034-.011.035-.011.035-.011.035-.01.036-.01.035-.01.036-.009.036-.008.036-.008.036-.008.036-.007.037-.007.037-.006.037-.006.037-.006.037-.005.037-.004.038-.004.038-.004.038-.003.038-.003.038-.002.039-.002.039-.001.039-.001.038v.046 2.988.046l.001.038.001.039.002.039.002.039.003.038.003.038.004.038.004.038.004.038.005.037.006.037.006.037.006.037.007.037.007.037.008.036.008.036.008.036.009.036.01.036.01.036.01.035.011.035.011.035.011.035.012.034.013.035.012.034.011.028.03.073.029.067.031.066.032.064.034.064.035.064.037.062.039.062.039.06.041.059.043.059.044.057.045.056.047.056.048.054.049.052.051.052.051.051.053.049.054.048.056.047.056.045.057.044.059.042.059.042.061.039.061.039.062.037.064.035.064.034.064.032.066.031.067.029.073.03.028.011.035.013.034.012.034.012.035.011.035.011.036.011.035.01.035.01.036.01.036.009.036.008.036.008.036.008.037.007.037.007.037.006.037.006.037.006.037.005.038.004.038.004.038.004.038.003.038.003.039.002.039.002.039.001.039.001 2.039.013v3.975.037l.001.025.002.025.002.024.003.024.003.025.004.024.005.024.005.024.005.024.007.023.006.024.008.023.008.023.008.023.009.023.01.022.01.022.011.022.011.022.012.021.012.022.013.02.013.021.014.02.014.02.015.019.015.02.016.018.017.019.017.018.017.018.018.017.018.017.018.016.019.016.02.016.019.015.02.014.02.014.021.013.021.013.021.012.021.012.022.011.022.011.022.01.022.01.023.009.023.008.023.008.023.008.024.006.023.007.024.005.024.005.024.005.024.004.025.003.024.003.024.002.025.002.025.001h.037 3.259.06l.055-.002.053-.001.054-.003.054-.003.053-.004.054-.005.053-.005.053-.006.053-.007.053-.008.052-.008.053-.009.052-.009.053-.01.052-.011.051-.012.052-.012.051-.013.051-.014.052-.014.051-.015.05-.016.05-.016.051-.017.049-.018.05-.018.049-.019.05-.02.048-.02.049-.021.048-.021.048-.023.048-.023.047-.023.047-.024.047-.025.047-.025.046-.026.046-.026.045-.027.045-.028.045-.029.044-.029.044-.029.044-.03.043-.031.043-.031.043-.032.042-.033.041-.033.042-.034.04-.034.041-.035.04-.035.039-.036.04-.037.038-.037.038-.037.038-.038.038-.039.037-.04.036-.039.04-.046 5.8-6.629h5.908v-6h-20.994z"/><path d="m7 21c-2.761 0-5-2.239-5-5 0-.984 0-2.016 0-3 0-2.761 2.239-5 5-5h23v10h-7s-3.133 3.581-5.207 5.951c-1.139 1.302-2.785 2.049-4.516 2.049-1.034 0-2.218 0-3.277 0-.796 0-1.559-.316-2.121-.879-.563-.562-.879-1.325-.879-2.121 0-1.063 0-2 0-2z" fill="#6dd349"/><g clip-path="url(#b)"><path d="m25 6.5h6v12.5h-6z" fill="#2ea82c"/><path d="m12.43 13.327.087.003.086.003.086.005.086.006.086.007.085.009.085.01.086.011.084.012.085.013.085.015.084.016.083.017.084.019.083.019.083.021.083.022.082.024.082.024.082.026.081.027.08.028.081.029.08.03.079.032.079.032.079.035.078.035.077.036.078.037.076.039.076.039.076.041.075.042.074.043.074.044.073.046.073.046.072.048.071.049.071.049.069.051.07.052.068.053.068.054.068.056.066.056.066.057.065.059.064.059.063.061.06.059.84.84-3.866 5.798-.048.07-.056.076-.057.073-.06.071-.062.069-.063.067-.066.065-.067.063-.069.061-.071.058-.072.056-.074.054-.076.051-.077.049-.078.047-.08.044-.081.042-.082.039-.084.037-.084.034-.086.032-.087.029-.088.027-.088.024-.09.021-.09.018-.091.016-.092.013-.092.01-.093.007-.094.005-.086.001h-9.937v-2h9.922l.039-.001.031-.001.031-.002.031-.004.03-.004.031-.005.03-.007.029-.007.03-.007.029-.009.029-.01.029-.011.028-.011.028-.012.027-.014.027-.013.027-.015.026-.016.026-.016.025-.017.025-.018.024-.019.023-.019.023-.021.023-.02.021-.022.022-.022.02-.023.02-.024.019-.024.019-.026.022-.032 2.932-4.398-.006-.005-.045-.035-.045-.034-.047-.033-.046-.033-.047-.032-.047-.031-.048-.031-.048-.03-.048-.029-.049-.028-.049-.027-.05-.027-.05-.026-.05-.026-.051-.024-.051-.024-.051-.023-.052-.022-.052-.022-.052-.021-.053-.02-.052-.019-.053-.018-.054-.018-.054-.017-.053-.016-.054-.015-.055-.015-.054-.013-.055-.013-.055-.012-.055-.012-.055-.01-.056-.01-.055-.009-.056-.008-.056-.007-.056-.007-.056-.005-.057-.005-.056-.004-.057-.003-.056-.002-.057-.002h-.057-.056l-.057.001-.057.002-.057.003-.057.003-.057.005-.057.005-.058.006-.057.007-.057.008-.057.009-.057.01-.056.01-.057.012-.056.012-.056.013-.055.014-.056.014-.055.016-.054.016-.054.017-.054.017-.054.019-.053.019-.053.02-.053.021-.052.022-.052.022-.052.023-.051.024-.051.025-.05.025-.05.026-.05.027-.049.027-.048.028-.049.029-.048.03-.047.03-.047.031-.046.032-.046.032-.046.033-.045.033-.044.035-.044.035-.044.035-.043.036-.042.037-.042.038-.042.038-.041.038-.04.04-.04.04-.039.04-.038.041-.038.042-.038.042-.037.043-.036.044-.035.044-.035.044-.035.046-.033.045-.033.046-.033.047-.032.048-.031.047-.03.049-.03.049-.029.049-.028.05-.028.05-.027.052-.03.059-1.782-.908.001-.001.036-.072.041-.077.042-.077.043-.076.044-.075.045-.075.047-.073.047-.073.048-.072.05-.071.05-.071.051-.069.053-.069.053-.068.054-.067.055-.066.056-.065.057-.065.058-.063.059-.063.059-.062.061-.06.061-.06.062-.059.063-.058.064-.057.065-.056.065-.055.066-.054.067-.053.068-.052.068-.052.07-.05.07-.049.07-.048.072-.047.072-.046.072-.045.074-.044.074-.043.075-.042.075-.04.076-.04.077-.038.077-.038.078-.036.079-.035.078-.034.08-.033.08-.032.081-.03.081-.03.082-.028.082-.027.083-.026.083-.024.084-.024.083-.022.085-.021.085-.02.085-.018.086-.017.086-.016.087-.015.087-.014.086-.012.087-.01.087-.01.087-.008.087-.007.086-.005.087-.005.087-.002.086-.002h.087z" fill="#20631a"/></g></g></svg>