<svg clip-rule="evenodd" fill-rule="evenodd" stroke-linejoin="round" stroke-miterlimit="1.41421" viewBox="0 0 32 32" xmlns="http://www.w3.org/2000/svg" xmlns:xlink="http://www.w3.org/1999/xlink"><clipPath id="a"><path clip-rule="evenodd" d="m0 0h32v32h-32z"/></clipPath><clipPath id="b"><path clip-rule="nonzero" d="m20.15 2.004c.109.009.217.021.324.041.214.042.423.111.619.207.229.111.441.258.626.433.424.401.698.949.765 1.529.025.217.021.437-.011.653-.016.108-.041.213-.069.319-1.257 4.063-2.687 8.07-4.032 12.105-.037.103-.076.204-.124.302-.127.262-.3.501-.509.703-.183.177-.393.326-.621.44-.195.098-.403.17-.617.213-.718.147-1.481-.035-2.055-.491-.228-.181-.424-.401-.576-.649-.172-.279-.287-.592-.339-.915-.04-.252-.041-.509-.004-.761.016-.108.041-.213.069-.319 1.257-4.063 2.687-8.07 4.032-12.105.074-.206.164-.403.286-.586.301-.457.752-.807 1.269-.986.243-.084.493-.123.749-.136.109-.001.109-.001.218.003z"/></clipPath><clipPath id="c"><path clip-rule="nonzero" d="m17.194 2.008c.99.103 1.836.759 2.178 1.701l6 18.001c.734 2.414-3.52 4.949-4.744 1.581l-6-18c-.158-.522-.15-.713-.114-1.051.136-1.301.852-2.326 2.68-2.232z"/></clipPath><clipPath id="d"><path clip-rule="nonzero" d="m15 20h-4l2.032 9.314-4.85 1.214-3.636-14.528.301-.385 1.153-.615 4-3.002 5 .002z"/></clipPath><path d="m0 0h32v32h-32z" fill="none"/><g clip-path="url(#a)"><path d="m11.096 9.501.119.004.12.007.119.011.119.014.119.017.118.02.118.023.116.026.117.029.115.033.114.035.114.039.112.041.111.045.11.047.109.051.107.053.106.056.105.059.102.061.101.065.1.067.097.069.096.073.093.074.092.078.09.079.087.082.085.084.083.087.081.089.078.09.076.093.073.095.07.097.069.098.065.101.063.102.06.103.057.106.054.106.052.109.048.109.046.111.043.112.04.113.036.114.034.115.031.116 2 8 .027.116.025.117.021.118.018.119.015.119.012.119.008.119.006.12.002.12-.001.12-.004.119-.007.12-.011.119-.014.119-.017.119-.02.118-.023.118-.026.116-.029.117-.033.115-.035.114-.039.114-.041.112-.045.111-.047.11-.051.109-.053.107-.056.106-.059.105-.061.102-.065.101-.067.1-.069.097-.073.096-.074.093-.078.092-.079.09-.082.087-.084.085-.087.083-.089.081-.09.078-.093.076-.095.073-.097.07-.098.069-.101.065-.102.063-.103.06-.106.057-.106.054-.109.052-.109.048-.111.046-.112.043-.113.04-.114.036-.115.034-.116.031-.116.027-.117.025-.118.021-.119.018-.119.015-.119.012-.119.008-.12.006-.12.002-.12-.001-.119-.004-.12-.007-.119-.011-.119-.014-.119-.017-.118-.02-.118-.023-.116-.026-.117-.029-.115-.033-.114-.035-.114-.039-.112-.041-.111-.045-.11-.047-.109-.051-.107-.053-.106-.056-.105-.059-.102-.061-.101-.065-.1-.067-.097-.069-.096-.073-.093-.074-.092-.078-.09-.079-.087-.082-.085-.084-.083-.087-.081-.089-.078-.09-.076-.093-.073-.095-.07-.097-.069-.098-.065-.101-.063-.102-.06-.103-.057-.106-.054-.106-.052-.109-.048-.109-.046-.111-.043-.112-.04-.113-.036-.114-.034-.115-.031-.116-2-8-.027-.116-.025-.117-.021-.118-.018-.119-.015-.119-.012-.119-.008-.119-.006-.12-.002-.12.001-.12.004-.119.007-.12.011-.119.014-.119.017-.119.02-.118.023-.118.026-.116.029-.117.033-.115.035-.114.039-.114.041-.112.045-.111.047-.11.051-.109.053-.107.056-.106.059-.105.061-.102.065-.101.067-.1.069-.097.073-.096.074-.093.078-.092.079-.09.082-.087.084-.085.087-.083.089-.081.09-.078.093-.076.095-.073.097-.07.098-.069.101-.065.102-.063.103-.06.106-.057.106-.054.109-.052.109-.048.111-.046.112-.043.113-.04.114-.036.115-.034.116-.031.116-.027.117-.025.118-.021.119-.018.119-.015.119-.012.119-.008.12-.006.12-.002.12.001z"/><path d="m7.576 12.505.137.008.137.012.136.017.136.02.135.025.134.029.133.033.133.037.131.041.129.046.128.049.127.052.125.057.123.061.121.064.12.068.117.071.115.075.112.079.111.082.107.085.105.088.102.092.1.095.096.097.093.101.091.103.087.107.083.108.081.111.077.114.073.116.07.118.067.12.062.122.059.124.055.126.051.127.048.129.043.13.039.132.036.133 1.174 4.697.011.044.009.033.009.034.01.032.009.032.011.032.01.032.011.032.011.031.011.032.011.031.012.03.012.031.013.031.013.03.013.03.013.03.014.03.014.03.014.029.014.029.015.029.015.029.015.028.016.028.016.029.016.028.017.027.017.029.017.027.016.027.018.027.018.027.018.027.019.026.018.026.019.026.019.026.02.026.019.025.02.025.021.026.02.024.02.025.022.024.021.024.021.024.022.024.022.024.022.023.022.023.023.023.023.022.023.023.023.022.024.022.023.021.024.022.025.021.024.021.025.02.025.021.025.02.025.02.025.019.026.02.026.019.026.019.026.018.026.019.027.018.027.018.027.017.027.018.027.016.027.017.028.017.028.016.028.015.028.016.028.015.029.015.028.015.029.014.029.014.029.014.029.014.029.013.03.013.03.013.029.012.03.012.03.011.03.012.03.011.031.011.03.01.031.01.031.01.031.009.031.01.031.009.031.008.032.009.031.007.031.008.032.007.032.007.032.007.032.006.032.006.032.006.033.005.032.005.032.005.033.004.033.004.033.004.033.003.033.003.034.003.034.002.033.002.034.002.033.001.035.001h.033l.047.001 1.018-.001.138.002.137.006.137.011.136.014.136.019.135.023.135.027.134.031.132.035.132.039.13.043.129.047.128.051.125.055.124.059.123.062.12.066.118.07.116.073.114.077.111.081.109.083.106.087.104.09.101.093.097.097.095.099.092.102.089.105.085.107.082.11.079.113.075.114.072.117.068.12.064.121.061.123.057.125.053.126.049.128.045.13.042.131.037.132.033.133.029.134.025.135.021.136.017.136.013.137.008.137.004.137.001.137-.005.137-.008.137-.012.137-.017.136-.021.136-.025.135-.029.134-.033.133-.037.132-.041.131-.045.13-.049.128-.053.127-.057.125-.06.123-.065.121-.068.119-.071.118-.075.114-.079.113-.082.11-.085.108-.089.104-.091.103-.095.099-.098.096-.1.094-.104.09-.106.087-.109.084-.111.08-.114.077-.116.073-.118.07-.12.067-.122.062-.124.059-.126.055-.127.051-.129.047-.13.044-.132.039-.132.035-.134.031-.135.027-.135.023-.136.019-.136.015-.137.011-.137.006-.137.002-1.043.001-.118-.001-.13-.002-.129-.003-.13-.005-.129-.006-.129-.008-.128-.008-.128-.011-.129-.011-.127-.013-.128-.014-.127-.016-.127-.016-.126-.019-.127-.019-.125-.021-.125-.022-.126-.023-.124-.025-.124-.026-.124-.027-.123-.028-.123-.03-.123-.031-.122-.032-.121-.033-.122-.035-.12-.036-.12-.037-.12-.038-.119-.04-.119-.04-.117-.042-.118-.043-.117-.044-.116-.046-.116-.046-.116-.048-.114-.049-.114-.05-.114-.051-.113-.052-.112-.054-.112-.054-.111-.056-.111-.056-.109-.058-.109-.059-.109-.06-.108-.061-.107-.062-.106-.063-.106-.065-.106-.065-.104-.066-.103-.068-.104-.068-.102-.07-.101-.07-.101-.071-.1-.073-.1-.074-.098-.074-.098-.076-.097-.076-.096-.078-.096-.078-.094-.08-.094-.08-.093-.081-.092-.083-.092-.083-.09-.084-.09-.085-.089-.086-.088-.088-.087-.087-.087-.089-.085-.09-.085-.091-.083-.091-.083-.093-.082-.093-.081-.094-.08-.095-.079-.097-.078-.096-.077-.098-.077-.099-.075-.099-.074-.1-.074-.101-.072-.102-.071-.103-.07-.103-.069-.104-.069-.106-.067-.106-.067-.107-.064-.107-.065-.108-.063-.11-.062-.109-.06-.11-.06-.112-.059-.112-.057-.112-.057-.114-.055-.114-.054-.115-.053-.116-.052-.116-.051-.117-.049-.118-.049-.118-.047-.118-.046-.12-.044-.12-.044-.121-.042-.122-.041-.122-.04-.122-.039-.123-.037-.124-.036-.125-.035-.124-.033-.126-.03-.114-1.18-4.721-.031-.133-.027-.135-.023-.135-.019-.136-.015-.136-.01-.137-.007-.137-.002-.138.002-.137.006-.137.01-.137.015-.136.019-.136.022-.136.027-.134.031-.134.035-.133.039-.131.043-.13.048-.129.05-.128.055-.126.059-.124.062-.122.066-.12.07-.119.073-.116.077-.113.08-.112.084-.109.087-.106.09-.103.093-.101.096-.098.099-.095.102-.092.105-.088.108-.086.11-.082.112-.079.115-.075.117-.072.119-.068.121-.064.123-.061.125-.057.127-.053.128-.049.129-.046.131-.041.132-.037.133-.034.134-.029.135-.025.136-.021.136-.017.137-.013.137-.008.137-.004.137-.001.137.005z"/><path d="m17 30h.045c4.656 0 8.697-3.214 9.744-7.751.125-.542.247-1.072.363-1.574.206-.891-.006-1.827-.575-2.543-.57-.715-1.434-1.132-2.348-1.132-.145 0-.229 0-.229 0l-9 11z"/><path d="m24.371 15.002.142.006.142.01.14.014.14.018.139.022.139.026.137.029.136.033.135.037.133.041.133.045.13.048.13.051.128.055.126.059.125.063.122.065.122.069.119.073.117.076.115.079.113.082.111.086.108.089.106.092.104.095.101.099.099.101.095.104.094.108.09.11.087.113.084.115.08.117.076.119.073.12.07.122.066.125.062.126.059.127.055.128.051.13.048.131.044.133.04.133.036.135.033.135.028.136.026.137.021.138.017.139.014.138.009.14.006.14.002.14-.002.14-.006.14-.01.141-.014.14-.018.14-.022.14-.026.14-.027.125-.368 1.594-.028.121-.032.127-.032.126-.034.125-.036.125-.036.124-.038.124-.039.123-.04.122-.042.122-.043.121-.044.121-.045.12-.047.119-.047.118-.049.118-.05.117-.051.117-.053.116-.053.115-.055.114-.056.114-.057.113-.058.112-.06.112-.06.11-.061.11-.063.11-.064.108-.064.108-.066.107-.067.106-.068.105-.069.105-.07.103-.071.103-.072.103-.073.101-.074.1-.075.1-.076.099-.077.098-.078.097-.079.096-.08.095-.081.094-.082.094-.082.093-.084.092-.085.09-.085.09-.086.089-.088.088-.088.088-.089.086-.09.085-.09.084-.092.084-.092.082-.093.082-.094.08-.095.08-.096.078-.096.078-.098.076-.098.076-.099.075-.099.073-.101.073-.101.071-.101.071-.103.069-.104.068-.104.068-.104.066-.106.065-.106.064-.107.063-.107.062-.109.061-.108.06-.11.058-.11.058-.111.057-.111.055-.112.054-.113.053-.114.052-.113.051-.115.049-.115.049-.116.047-.116.046-.117.045-.117.043-.118.043-.119.041-.119.04-.119.039-.12.038-.121.036-.121.035-.121.034-.122.033-.123.032-.122.03-.124.029-.124.027-.124.027-.124.024-.125.024-.126.023-.126.021-.126.02-.127.018-.127.017-.127.016-.128.015-.128.013-.128.011-.129.011-.128.009-.13.008-.129.006-.13.005-.13.003-.13.002-.126.001h-.878l-3.866-3.866 10.746-13.134h1.191zm-6.677 12.864.1.099.03-.003.085-.008.085-.01.085-.011.085-.011.084-.012.084-.014.084-.014.084-.015.083-.015.083-.017.082-.018.083-.018.082-.019.082-.02.081-.021.081-.022.081-.022.081-.024.08-.024.08-.025.079-.026.08-.027.078-.027.079-.028.078-.03.078-.029.077-.031.077-.032.077-.032.076-.033.076-.034.076-.034.075-.036.074-.036.075-.037.074-.037.073-.039.073-.039.073-.04.072-.04.072-.041.071-.042.071-.043.07-.044.07-.044.07-.045.069-.046.068-.046.068-.047.068-.048.067-.048.066-.049.066-.05.065-.05.065-.051.065-.052.064-.053.063-.053.063-.053.062-.055.062-.055.061-.055.06-.057.06-.057.06-.057.058-.059.058-.058.058-.06.057-.06.057-.06.055-.061.055-.062.055-.063.054-.063.053-.063.053-.064.052-.065.051-.065.051-.066.05-.066.049-.067.049-.068.048-.068.047-.068.047-.069.046-.07.045-.07.044-.071.044-.071.043-.072.043-.072.041-.072.041-.074.04-.073.04-.075.039-.074.038-.076.037-.075.036-.076.036-.077.035-.077.034-.078.033-.078.033-.078.031-.079.031-.079.031-.08.029-.081.028-.08.028-.081.027-.082.026-.082.025-.083.025-.083.023-.083.023-.084.022-.084.021-.085.021-.091.359-1.554.009-.042.005-.028.005-.028.003-.028.003-.028.002-.028.001-.028.001-.028-.001-.028-.001-.028-.002-.028-.002-.028-.004-.028-.004-.027-.005-.027-.006-.028-.007-.027-.007-.027-.008-.027-.009-.026-.009-.026-.01-.026-.011-.026-.012-.025-.013-.025-.013-.025-.014-.025-.014-.024-.015-.023-.017-.024-.016-.023-.018-.022-.018-.023-.019-.021-.019-.021-.02-.02-.02-.02-.02-.019-.021-.018-.022-.018-.022-.017-.023-.016-.006-.005-7.107 8.686z"/><path d="m20.209.005.145.009.146.014.144.018.144.024.143.027.142.033.141.037.14.041.138.047.137.05.135.055.133.059.131.064.129.068.127.072.124.076.122.079.119.084.116.088.114.091.11.096.108.098.104.102.101.105.097.109.094.112.09.114.086.118.082.12.079.123.074.125.071.127.066.13.062.132.058.134.053.136.049.137.044.139.04.14.036.141.03.143.027.143.021.144.017.145.012.145.007.146.003.145-.002.146-.007.146-.011.145-.016.145-.021.144-.026.144-.03.142-.035.142-.039.14-.044.139-4 12-.048.138-.053.135-.057.134-.062.133-.065.13-.07.128-.074.125-.078.123-.082.121-.086.118-.089.115-.094.112-.096.109-.101.105-.103.103-.107.099-.11.095-.113.092-.116.088-.119.085-.122.08-.124.077-.126.072-.129.068-.131.065-.133.059-.135.056-.136.051-.138.047-.14.042-.14.038-.142.033-.143.028-.144.024-.144.019-.146.014-.145.01-.146.005-.145.001-.146-.005-.145-.009-.146-.014-.144-.018-.144-.024-.143-.027-.142-.033-.141-.037-.14-.041-.138-.047-.137-.05-.135-.055-.133-.059-.131-.064-.129-.068-.127-.072-.124-.076-.122-.079-.119-.084-.116-.088-.114-.091-.11-.096-.108-.098-.104-.102-.101-.105-.097-.109-.094-.112-.09-.114-.086-.118-.082-.12-.079-.123-.074-.125-.071-.127-.066-.13-.062-.132-.058-.134-.053-.136-.049-.137-.044-.139-.04-.14-.036-.141-.03-.143-.027-.143-.021-.144-.017-.145-.012-.145-.007-.146-.003-.145.002-.146.007-.146.011-.145.016-.145.021-.144.026-.144.03-.142.035-.142.039-.14.044-.139 4-12 .048-.138.053-.135.057-.134.062-.133.065-.13.07-.128.074-.125.078-.123.082-.121.086-.118.089-.115.094-.112.096-.109.101-.105.103-.103.107-.099.11-.095.113-.092.116-.088.119-.085.122-.08.124-.077.126-.072.129-.068.131-.065.133-.059.135-.056.136-.051.138-.047.14-.042.14-.038.142-.033.143-.028.144-.024.144-.019.145-.014.146-.01.146-.005.145-.001.146.005z"/><path d="m17.082.001.146.005.145.01.146.014.144.019.144.024.143.028.142.033.14.038.14.042.138.047.136.051.135.056.133.059.131.065.129.068.126.072.124.077.122.08.119.085.116.088.113.092.11.095.107.099.103.103.101.105.096.109.094.112.089.115.086.118.082.121.078.123.074.125.07.128.065.13.062.133.057.134.053.135.048.138 4 12 .044.139.039.14.035.142.03.142.026.144.021.144.016.145.011.145.007.146.002.146-.003.145-.007.146-.012.145-.017.145-.021.144-.027.143-.03.143-.036.141-.04.14-.044.139-.049.137-.053.136-.058.134-.062.132-.066.13-.071.127-.074.125-.079.123-.082.12-.086.118-.09.114-.094.112-.097.109-.101.105-.104.102-.108.098-.11.096-.113.091-.117.088-.119.084-.122.079-.124.076-.127.072-.129.068-.131.064-.133.059-.135.055-.137.05-.138.047-.14.041-.141.037-.142.033-.143.027-.144.024-.144.018-.146.014-.145.009-.146.005-.145-.001-.146-.005-.145-.01-.146-.014-.144-.019-.144-.024-.143-.028-.142-.033-.14-.038-.14-.042-.138-.047-.136-.051-.135-.056-.133-.059-.131-.065-.129-.068-.126-.072-.124-.077-.122-.08-.119-.085-.116-.088-.113-.092-.11-.095-.107-.099-.103-.103-.101-.105-.096-.109-.094-.112-.089-.115-.086-.118-.082-.121-.078-.123-.074-.125-.07-.128-.065-.13-.062-.133-.057-.134-.053-.135-.048-.138-4-12-.044-.139-.039-.14-.035-.142-.03-.142-.026-.144-.021-.144-.016-.145-.011-.145-.007-.146-.002-.146.003-.145.007-.146.012-.145.017-.145.021-.144.027-.143.03-.143.036-.141.04-.14.044-.139.049-.137.053-.136.058-.134.062-.132.066-.13.071-.127.074-.125.079-.123.082-.12.086-.118.09-.114.094-.112.097-.109.101-.105.104-.102.108-.098.11-.096.113-.091.117-.088.119-.084.122-.079.124-.076.127-.072.129-.068.131-.064.133-.059.135-.055.137-.05.138-.047.14-.041.141-.037.142-.033.143-.027.144-.024.144-.018.146-.014.145-.009.146-.005.145.001z"/><path d="m15 20h-7l-2-5 4-3.002 5 .002z" fill="#2b1b11" fill-rule="nonzero"/><g fill="#6a4e35"><path d="m11.102 11.502.089.005.088.009.089.011.088.015.087.018.087.021.086.024.085.027.084.03.083.033.082.036.08.039.079.042.077.044.076.048.074.049.072.053.07.055.068.058.067.06.063.062.062.064.059.067.057.069.055.071.052.072.049.075.046.076.044.078.041.079.038.081.035.082.033.083.029.084.026.085.023.087 2 8 .02.087.017.087.014.088.011.089.007.089.005.089.001.089-.002.09-.005.089-.009.088-.011.089-.015.088-.018.087-.021.087-.024.086-.027.085-.03.084-.033.083-.036.082-.039.08-.042.079-.044.077-.048.076-.049.074-.053.072-.055.07-.058.068-.06.067-.062.063-.064.062-.067.059-.069.057-.071.055-.072.052-.075.049-.076.046-.078.044-.079.041-.081.038-.082.035-.083.033-.084.029-.085.026-.087.023-.087.02-.087.017-.088.014-.089.011-.089.007-.089.005-.089.001-.09-.002-.089-.005-.088-.009-.089-.011-.088-.015-.087-.018-.087-.021-.086-.024-.085-.027-.084-.03-.083-.033-.082-.036-.08-.039-.079-.042-.077-.044-.076-.048-.074-.049-.072-.053-.07-.055-.068-.058-.067-.06-.063-.062-.062-.064-.059-.067-.057-.069-.055-.071-.052-.072-.049-.075-.046-.076-.044-.078-.041-.079-.038-.081-.035-.082-.033-.083-.029-.084-.026-.085-.023-.087-2-8-.02-.087-.017-.087-.014-.088-.011-.089-.007-.089-.005-.089-.001-.089.002-.09.005-.089.009-.088.011-.089.015-.088.018-.087.021-.087.024-.086.027-.085.03-.084.033-.083.036-.082.039-.08.042-.079.044-.077.048-.076.049-.074.053-.072.055-.07.058-.068.06-.067.062-.063.064-.062.067-.059.069-.057.071-.055.072-.052.075-.049.076-.046.078-.044.079-.041.081-.038.082-.035.083-.033.084-.029.085-.026.087-.023.087-.02.087-.017.088-.014.089-.011.089-.007.089-.005.089-.001.09.002z"/><path d="m17 30h.045c4.656 0 8.697-3.214 9.744-7.751.125-.542.247-1.072.363-1.574.206-.891-.006-1.827-.575-2.543-.57-.715-1.434-1.132-2.348-1.132-.707 0-1.229 0-1.229 0v-1h-6z"/><path d="m7.526 14.509.102.008.101.012.101.017.1.02.099.025.098.029.096.032.095.037.094.04.092.045.09.048.088.051.086.055.083.059.081.062.079.065.075.068.073.072.07.074.067.077.064.08.06.082.057.084.053.087.05.089.046.091.043.093.038.094.035.096.031.098.027.098 1.176 4.7.015.06.014.053.015.053.016.053.015.053.017.052.017.052.017.052.018.051.018.052.019.05.02.051.02.05.02.05.021.05.022.049.021.049.023.049.023.049.023.048.024.048.024.047.025.047.025.047.026.047.026.046.026.046.027.046.028.045.028.045.028.045.029.044.029.044.03.044.03.043.031.044.031.042.031.042.032.042.032.042.033.041.033.041.033.041.034.04.034.04.035.04.035.039.035.039.036.038.036.038.037.038.037.037.037.037.038.036.038.036.038.036.039.036.039.035.04.034.039.034.041.034.04.033.041.033.041.033.042.032.041.031.043.031.042.031.043.031.043.029.043.03.044.029.044.029.044.028.045.027.045.028.045.026.045.027.046.026.046.025.046.025.047.025.046.024.047.023.047.023.048.023.048.022.048.022.048.021.048.02.049.02.049.02.049.019.05.019.049.018.05.018.05.017.05.017.051.016.051.016.05.015.051.014.052.014.051.014.052.013.052.013.052.012.052.011.052.011.053.01.053.01.052.01.053.008.054.009.053.007.054.007.054.007.054.006.054.005.054.005.054.005.055.004.055.003.054.002.056.002.055.002.055.001h.062 1.029l.102.002.102.006.101.011.101.014.1.019.1.023.098.026.098.031.096.035.094.038.093.043.091.046.089.05.087.053.084.057.083.06.079.064.077.066.075.07.071.073.068.076.066.078.062.081.058.084.055.086.052.088.048.09.044.092.041.093.036.095.033.097.029.098.024.099.021.1.017.1.012.101.008.102.004.102v.102l-.004.102-.008.102-.012.101-.017.1-.021.1-.024.099-.029.098-.033.097-.036.095-.041.094-.044.091-.048.09-.052.088-.055.086-.058.084-.062.081-.066.078-.068.076-.071.073-.075.07-.077.066-.079.064-.083.06-.084.057-.087.054-.089.049-.091.046-.093.043-.094.038-.096.035-.098.031-.098.027-.1.022-.1.019-.101.014-.101.011-.102.006-.102.002h-1.042-.102l-.109-.002-.108-.003-.108-.004-.108-.005-.107-.007-.108-.007-.107-.009-.107-.009-.107-.011-.106-.012-.106-.013-.106-.014-.105-.015-.105-.016-.106-.018-.104-.018-.104-.02-.104-.02-.104-.022-.103-.023-.103-.023-.103-.025-.102-.026-.102-.027-.101-.028-.101-.029-.101-.03-.1-.031-.1-.032-.099-.032-.099-.034-.099-.035-.097-.036-.098-.037-.097-.038-.097-.039-.096-.04-.096-.041-.095-.041-.095-.043-.094-.044-.094-.044-.093-.046-.093-.046-.092-.048-.092-.048-.091-.049-.09-.05-.09-.051-.09-.052-.089-.053-.088-.054-.088-.054-.087-.056-.087-.056-.086-.057-.085-.058-.085-.059-.084-.06-.084-.06-.082-.062-.083-.062-.081-.063-.081-.064-.081-.065-.08-.065-.079-.067-.078-.067-.078-.068-.077-.069-.076-.069-.076-.07-.075-.072-.074-.071-.073-.073-.073-.073-.072-.075-.072-.075-.07-.075-.07-.077-.069-.077-.068-.078-.068-.079-.067-.079-.066-.08-.065-.081-.064-.081-.064-.083-.063-.083-.062-.083-.061-.085-.06-.085-.06-.085-.059-.087-.057-.087-.057-.088-.056-.088-.056-.089-.054-.09-.053-.09-.053-.091-.052-.092-.051-.092-.049-.093-.049-.093-.048-.094-.047-.095-.047-.095-.045-.096-.044-.096-.043-.097-.043-.098-.041-.098-.04-.099-.04-.099-.038-.1-.037-.1-.037-.101-.035-.101-.034-.102-.034-.103-.032-.103-.031-.103-.03-.104-.029-.104-.028-.105-.026-.099-1.179-4.712-.023-.1-.018-.1-.015-.101-.01-.101-.006-.102-.003-.102.002-.102.007-.102.01-.101.014-.101.019-.101.023-.099.026-.098.031-.098.035-.096.038-.094.043-.093.046-.091.049-.089.054-.087.057-.084.06-.083.063-.08.067-.077.07-.074.073-.071.075-.069.079-.065.081-.062.083-.059.086-.055.088-.051.09-.048.092-.045.094-.04.095-.037.096-.033.098-.028.099-.025.1-.021.101-.016.101-.013.101-.008.102-.005h.102l.102.005z"/><path d="m11 17 9 2-2.091 9.7-10.909-9.7z"/><path d="m20.15 2.004c.109.009.217.021.324.041.214.042.423.111.619.207.229.111.441.258.626.433.424.401.698.949.765 1.529.025.217.021.437-.011.653-.016.108-.041.213-.069.319-1.257 4.063-2.687 8.07-4.032 12.105-.037.103-.076.204-.124.302-.127.262-.3.501-.509.703-.183.177-.393.326-.621.44-.195.098-.403.17-.617.213-.718.147-1.481-.035-2.055-.491-.228-.181-.424-.401-.576-.649-.172-.279-.287-.592-.339-.915-.04-.252-.041-.509-.004-.761.016-.108.041-.213.069-.319 1.257-4.063 2.687-8.07 4.032-12.105.074-.206.164-.403.286-.586.301-.457.752-.807 1.269-.986.243-.084.493-.123.749-.136.109-.001.109-.001.218.003z" fill-rule="nonzero"/></g><g clip-path="url(#b)"><path d="m17.068 2.001c.22.011.434.04.645.103.524.156.99.486 1.311.929.129.178.228.371.311.574 1.432 4.004 2.692 8.068 4.037 12.102.032.105.062.209.083.317.055.285.06.581.014.868-.04.251-.119.496-.233.724-.098.195-.221.377-.366.541-.486.548-1.205.86-1.938.84-.291-.008-.58-.067-.851-.174-.304-.12-.584-.301-.82-.529-.183-.177-.338-.382-.459-.606-.053-.096-.096-.195-.137-.297-1.432-4.004-2.692-8.068-4.037-12.102-.032-.105-.062-.209-.083-.317-.041-.214-.054-.434-.039-.651.047-.657.359-1.28.856-1.712.165-.143.348-.264.545-.359.196-.096.405-.165.619-.207.107-.02.215-.032.324-.041.109-.004.109-.004.218-.003z" fill="none" stroke="#2b1b11" stroke-width="2"/></g><path d="m17.194 2.008c.99.103 1.836.759 2.178 1.701l6 18.001c.734 2.414-3.52 4.949-4.744 1.581l-6-18c-.158-.522-.15-.713-.114-1.051.136-1.301.852-2.326 2.68-2.232z" fill="#6a4e35" fill-rule="nonzero"/><g clip-path="url(#c)"><path d="m21 15h5v2h-5z" fill="#2b1b11"/></g><path d="m9 23.657c0-1.061.421-2.078 1.172-2.829l3-3c.75-.75 1.767-1.171 2.828-1.171s2.078.421 2.828 1.171c1.943 1.943 4.172 4.172 4.172 4.172v2.158c0 .923-.426 1.796-1.154 2.364-.728.569-1.677.77-2.574.546-.917-.229-1.782-.445-2.294-.574-.318-.079-.643-.119-.97-.119-.005 0-.011 0-.016 0-.327 0-.652.04-.97.119-.512.129-1.377.345-2.294.574-.897.224-1.846.023-2.574-.546-.728-.568-1.154-1.441-1.154-2.364 0-.172 0-.34 0-.501z" fill="#432c1b"/><path d="m23 17-1.5-1h-4.5v1c0 2.761 2.239 5 5 5h1" fill="#6a4e35"/><path d="m23 16h-6v1c0 2.761 2.239 5 5 5h1" fill="none" stroke="#2b1b11" stroke-linejoin="miter" stroke-miterlimit="1.5" stroke-width="2"/><path d="m16.993 3.582c-1.047.258-1.601 1.672-1.235 3.156.365 1.484 1.513 2.479 2.56 2.221 1.048-.258 1.602-1.672 1.236-3.156s-1.513-2.479-2.561-2.221z" fill="#432c1b"/><path d="m15 20h-4l2.032 9.314-4.85 1.214-3.636-14.528.301-.385 1.153-.615 4-3.002 5 .002z" fill="none"/><g style="clip-path:url(#d);fill:none;stroke:#2b1b11;stroke-linecap:round;stroke-linejoin:miter;stroke-miterlimit:1.5"><path d="m7.75 12s.678 2.714 1.19 4.762c.31 1.238 1.562 1.993 2.801 1.689.001 0 .001 0 .002-.001 1.031-.252 1.757-1.177 1.757-2.239 0-2.08 0-5.211 0-5.211"/><path d="m7.75 11.998s.682 2.729 1.195 4.779c.307 1.227-.439 2.47-1.665 2.777-.776.195-1.592-.095-2.072-.735-.36-.48-.708-.944-.708-.944"/></g></g></svg>