<svg clip-rule="evenodd" fill-rule="evenodd" stroke-linejoin="round" stroke-miterlimit="1.41421" viewBox="0 0 32 32" xmlns="http://www.w3.org/2000/svg" xmlns:xlink="http://www.w3.org/1999/xlink"><clipPath id="a"><path clip-rule="evenodd" d="m29 16c0-7.18-5.82-13-13-13-7.18 0-13 5.82-13 13v2c0 2.652 1.054 5.196 2.929 7.071s4.419 2.929 7.071 2.929h6c2.652 0 5.196-1.054 7.071-2.929s2.929-4.419 2.929-7.071c0-.66 0-1.329 0-2z"/></clipPath><path d="m0 0h32v32h-32z" fill="none"/><path d="m16.193 1.001.193.004.192.006.192.008.191.011.191.014.19.015.189.018.189.021.188.022.187.025.187.028.186.029.185.032.184.034.184.037.183.038.182.041.181.043.18.045.18.048.178.049.178.052.177.054.176.056.175.058.174.06.172.062.172.064.171.066.17.068.169.071.168.072.167.074.166.076.164.078.164.08.162.082.161.084.16.086.159.087.158.09.156.091.156.093.154.095.152.096.152.099.15.1.149.102.148.104.146.105.145.107.144.109.142.11.141.112.139.114.138.115.137.117.135.119.134.12.133.122.13.123.13.125.128.127.126.127.125.13.123.131.122.132.12.134.119.135.117.137.115.138.114.139.112.141.11.142.109.144.107.145.106.146.103.148.102.149.1.15.099.152.096.153.095.154.093.155.091.156.09.158.087.159.086.16.084.161.082.162.08.164.078.164.076.166.074.167.072.168.071.169.068.17.066.17.064.172.062.174.06.173.058.175.056.176.054.177.052.177.049.179.048.18.045.18.043.181.041.182.038.183.037.184.034.184.032.185.029.186.028.187.025.187.022.188.021.189.018.189.015.19.014.191.011.191.008.191.006.193.004.193.001.187v2.012l-.001.143-.003.149-.004.149-.007.148-.008.148-.01.148-.012.148-.014.147-.015.147-.018.147-.019.146-.02.146-.023.146-.025.145-.026.144-.028.145-.029.144-.032.143-.033.144-.035.142-.036.142-.039.142-.04.141-.042.14-.043.14-.045.14-.047.138-.049.138-.05.138-.052.137-.053.136-.055.135-.057.135-.059.134-.06.134-.062.133-.063.131-.065.132-.066.13-.069.13-.069.128-.072.129-.073.127-.074.126-.076.125-.078.125-.079.124-.081.123-.083.122-.083.12-.086.12-.087.119-.088.118-.09.117-.092.116-.093.115-.094.114-.096.113-.097.111-.1.111-.1.11-.102.108-.103.107-.105.106-.106.105-.107.103-.108.102-.11.101-.11.098-.112.098-.113.096-.114.094-.115.093-.116.092-.117.09-.118.088-.119.087-.12.086-.12.084-.122.082-.123.081-.124.079-.124.078-.126.076-.126.074-.128.073-.128.072-.128.069-.13.069-.13.066-.132.065-.132.063-.132.062-.134.06-.134.059-.135.057-.135.055-.137.053-.136.052-.138.05-.138.049-.139.047-.139.045-.14.043-.14.042-.141.04-.142.038-.142.037-.143.035-.143.033-.143.032-.144.029-.144.028-.145.026-.145.025-.146.023-.146.02-.146.02-.147.017-.147.015-.147.014-.148.012-.148.01-.148.008-.148.007-.149.004-.149.003-.143.001h-1.746l-.01.01-.097.097-.109.104-.111.1-.113.097-.115.094-.117.091-.12.089-.121.084-.124.082-.125.079-.127.076-.129.072-.13.069-.132.066-.133.063-.136.059-.136.056-.137.053-.139.049-.141.046-.141.042-.143.039-.143.035-.145.032-.146.029-.146.024-.147.021-.148.018-.148.014-.149.01-.15.007-.15.002-.15-.001-.15-.004-.149-.009-.149-.012-.148-.016-.147-.019-.147-.023-.146-.027-.145-.03-.144-.034-.143-.037-.142-.041-.14-.044-.14-.047-.138-.051-.138-.054-.135-.058-.134-.061-.133-.064-.131-.068-.13-.071-.128-.074-.126-.077-.124-.081-.123-.083-.12-.087-.119-.09-.116-.093-.114-.095-.112-.099-.11-.102-.099-.096-1.584-1.585-.099-.056-.098-.056-.098-.058-.097-.059-.097-.059-.096-.061-.096-.061-.095-.062-.094-.064-.094-.064-.094-.065-.092-.066-.093-.067-.091-.068-.091-.068-.091-.07-.09-.071-.089-.071-.088-.072-.088-.074-.088-.074-.086-.075-.086-.076-.086-.077-.085-.077-.083-.079-.084-.079-.082-.081-.083-.082-.104-.105-.103-.107-.102-.108-.101-.11-.098-.11-.098-.112-.096-.113-.094-.114-.093-.115-.092-.116-.09-.117-.088-.118-.087-.119-.086-.12-.084-.121-.082-.121-.081-.123-.079-.124-.078-.125-.076-.125-.074-.126-.073-.128-.072-.128-.069-.128-.069-.13-.066-.13-.065-.132-.064-.132-.061-.132-.06-.134-.059-.134-.056-.135-.056-.135-.053-.137-.052-.136-.05-.138-.049-.138-.047-.139-.045-.139-.043-.14-.042-.141-.04-.141-.038-.141-.037-.142-.035-.143-.033-.142-.032-.144-.029-.144-.028-.144-.026-.145-.025-.146-.022-.145-.021-.146-.02-.146-.017-.147-.015-.147-.014-.147-.012-.148-.01-.148-.008-.148-.007-.148-.004-.149-.003-.149-.001-.143v-2.012l.001-.188.004-.192.006-.192.008-.192.011-.191.014-.191.015-.19.018-.189.021-.189.022-.188.025-.187.028-.187.029-.186.032-.185.034-.184.037-.184.038-.183.041-.182.043-.181.045-.18.048-.18.049-.178.052-.178.054-.177.056-.176.058-.175.06-.174.062-.172.064-.173.066-.171.068-.169.071-.169.072-.168.074-.167.076-.166.078-.164.08-.164.082-.162.084-.161.086-.16.087-.159.089-.158.092-.156.093-.156.095-.154.096-.152.099-.152.1-.15.102-.149.103-.148.106-.146.107-.145.109-.144.11-.142.112-.141.114-.139.115-.138.117-.137.119-.135.12-.134.122-.132.123-.131.125-.13.126-.128.128-.126.13-.125.131-.123.132-.122.134-.12.135-.119.137-.117.138-.115.139-.114.141-.112.143-.11.143-.109.145-.107.146-.105.148-.104.149-.102.15-.1.152-.099.153-.096.154-.095.155-.093.156-.091.158-.09.159-.087.16-.086.161-.084.162-.082.164-.08.164-.078.166-.076.167-.074.168-.072.169-.071.17-.068.171-.066.172-.064.172-.062.174-.06.175-.058.176-.056.177-.054.178-.052.178-.049.18-.048.18-.045.181-.043.182-.041.183-.038.184-.037.184-.034.185-.032.186-.029.187-.028.187-.025.188-.022.189-.021.189-.018.19-.015.191-.014.191-.011.192-.008.192-.006.193-.004.193-.001.193.001zm-.336 4-.142.003-.142.004-.141.006-.14.008-.14.01-.14.012-.139.013-.139.015-.138.017-.137.018-.137.02-.136.022-.136.023-.135.025-.134.027-.134.028-.133.03-.133.031-.132.033-.131.035-.131.036-.129.038-.13.039-.128.041-.128.043-.128.043-.126.046-.126.047-.125.048-.124.05-.124.052-.123.053-.122.054-.121.056-.121.057-.12.058-.119.06-.118.062-.117.062-.116.065-.116.065-.114.067-.114.068-.113.07-.112.071-.112.072-.11.073-.109.075-.108.076-.108.078-.106.078-.106.08-.104.081-.104.083-.102.083-.102.085-.1.086-.099.087-.099.088-.097.09-.096.09-.095.092-.094.093-.093.094-.092.095-.09.096-.09.097-.088.099-.087.099-.086.1-.085.102-.083.102-.083.104-.081.104-.08.106-.078.106-.078.107-.076.109-.075.109-.073.11-.072.112-.071.112-.07.113-.068.113-.067.115-.065.116-.064.116-.063.118-.062.118-.06.118-.058.12-.057.121-.056.121-.055.122-.052.123-.052.123-.05.125-.048.125-.047.126-.046.126-.043.128-.043.127-.041.129-.039.13-.038.129-.036.131-.035.132-.033.132-.031.132-.03.133-.028.134-.027.134-.025.135-.023.136-.022.136-.02.137-.018.137-.017.138-.015.139-.013.139-.012.14-.01.14-.008.14-.006.141-.004.142-.003.142-.001.149v1.988l.001.105.002.1.003.099.004.099.005.099.007.098.008.098.009.099.011.098.011.098.013.097.014.097.015.098.016.096.018.097.018.096.02.096.021.095.022.096.023.095.025.094.025.095.027.094.028.093.029.094.03.093.031.092.032.092.034.092.035.091.035.091.037.09.038.09.039.09.04.089.041.088.042.088.044.088.044.087.045.086.047.086.048.086.048.084.05.084.051.084.051.083.053.082.054.082.055.082.056.08.057.08.058.08.059.078.06.078.061.077.062.077.063.076.064.075.065.074.066.074.067.073.067.073.069.071.071.072.054.053.055.053.055.053.057.053.056.052.057.051.057.05.058.05.058.05.059.049.059.048.059.048.06.047.06.046.061.046.061.045.062.045.061.044.063.043.062.043.063.042.064.042.064.041.063.04.065.039.065.04.065.038.065.038.066.037.066.036.067.036.377.2.284.306.045.046 1.606 1.607.045.043.037.034.037.033.038.032.039.031.039.03.04.029.041.028.042.027.042.025.042.025.043.024.044.022.044.022.045.02.045.019.046.018.046.017.047.016.047.015.047.013.048.013.048.011.048.01.049.009.048.008.049.006.05.005.049.004.05.003.05.002h.05l.05-.001.05-.002.05-.003.049-.005.05-.006.049-.007.048-.008.049-.01.048-.01.048-.012.047-.013.047-.014.047-.015.046-.017.046-.017.046-.019.045-.02.044-.021.044-.022.044-.023.043-.024.042-.025.042-.026.041-.027.04-.029.04-.029.039-.031.039-.031.037-.032.037-.034.037-.034.044-.044 1.169-1.198h3.419l.105-.001.1-.002.099-.003.099-.004.099-.005.098-.007.099-.008.098-.009.098-.011.098-.011.097-.013.097-.014.097-.015.097-.016.097-.018.096-.018.096-.02.096-.021.095-.022.095-.023.095-.025.094-.025.094-.027.094-.028.093-.029.093-.03.092-.031.092-.032.092-.034.091-.035.091-.035.09-.037.09-.038.09-.039.089-.04.088-.041.088-.042.088-.044.087-.044.086-.045.086-.047.086-.048.084-.048.084-.05.084-.051.083-.051.083-.053.082-.054.081-.055.08-.056.08-.057.079-.058.079-.059.078-.06.077-.061.077-.062.076-.063.075-.064.075-.065.073-.066.073-.066.072-.068.072-.069.071-.07.07-.071.068-.071.069-.073.067-.073.065-.073.065-.075.064-.075.063-.076.062-.077.061-.077.06-.078.059-.078.058-.08.057-.08.056-.081.055-.081.054-.081.052-.083.052-.083.051-.084.05-.084.048-.085.048-.085.046-.086.046-.086.044-.087.044-.088.042-.088.041-.088.04-.089.039-.089.038-.09.037-.091.036-.091.034-.091.033-.091.033-.093.031-.092.03-.093.029-.093.028-.094.027-.094.025-.094.025-.095.023-.095.022-.095.021-.096.02-.096.018-.096.018-.097.016-.097.015-.097.014-.097.013-.097.011-.098.011-.098.009-.099.008-.098.007-.098.005-.099.004-.099.004-.099.001-.099.001-.106v-1.988l-.001-.149-.003-.142-.004-.141-.006-.142-.008-.14-.01-.141-.012-.139-.013-.139-.015-.139-.017-.138-.018-.137-.02-.137-.022-.136-.023-.136-.025-.135-.027-.134-.028-.134-.03-.133-.031-.133-.033-.132-.035-.131-.036-.13-.038-.131-.039-.129-.041-.128-.043-.128-.044-.128-.045-.126-.047-.126-.048-.125-.05-.124-.052-.124-.053-.123-.054-.122-.055-.121-.058-.121-.058-.12-.06-.119-.062-.118-.062-.117-.065-.116-.065-.116-.067-.114-.068-.115-.07-.112-.071-.112-.072-.112-.073-.11-.075-.109-.076-.109-.078-.107-.078-.106-.08-.106-.081-.104-.083-.104-.083-.102-.085-.102-.086-.1-.087-.099-.088-.099-.09-.097-.09-.096-.092-.095-.093-.094-.094-.093-.095-.092-.096-.09-.097-.09-.099-.088-.099-.087-.1-.086-.102-.085-.102-.083-.104-.083-.104-.081-.106-.08-.106-.078-.108-.078-.108-.076-.109-.074-.11-.074-.112-.072-.112-.071-.113-.07-.113-.068-.115-.067-.116-.065-.116-.064-.117-.063-.118-.062-.119-.06-.12-.058-.121-.057-.121-.056-.122-.055-.123-.052-.123-.052-.125-.05-.125-.048-.126-.047-.126-.046-.128-.043-.128-.043-.128-.041-.13-.039-.129-.038-.131-.036-.132-.035-.131-.033-.133-.031-.133-.03-.134-.028-.134-.027-.135-.025-.136-.023-.136-.022-.137-.02-.137-.018-.138-.017-.139-.015-.139-.013-.14-.012-.14-.01-.14-.008-.141-.006-.142-.004-.142-.003-.143-.001z"/><path d="m29 16c0-7.18-5.82-13-13-13-7.18 0-13 5.82-13 13v2c0 2.652 1.054 5.196 2.929 7.071s4.419 2.929 7.071 2.929h6c2.652 0 5.196-1.054 7.071-2.929s2.929-4.419 2.929-7.071c0-.66 0-1.329 0-2z" fill="#fbc546"/><g clip-path="url(#a)"><path d="m15 20h3.343c1.061 0 2.078.421 2.829 1.172 1.992 1.992 5.828 5.828 5.828 5.828v4h-12z" fill="#e59a10"/><path d="m10 19.672 1.473-1.474.083-.08.094-.087.095-.084.097-.082.099-.078.101-.076.102-.073.103-.07.105-.068.106-.064.108-.062.108-.059.11-.056.111-.053.112-.05.112-.047.114-.045.114-.041.115-.039.116-.036.117-.033.116-.03.118-.027.118-.024.118-.022.119-.018.119-.016.119-.013.119-.01.12-.007.119-.004.12-.002.12.002.119.004.12.007.119.01.119.013.119.016.119.018.118.022.118.024.118.027.116.03.117.033.116.036.115.039.114.041.114.045.112.047.112.05.111.053.11.056.108.059.108.062.106.064.105.068.103.07.102.073.101.076.099.078.097.082.095.084.094.087.083.08 1.705 1.705.08.082.086.093.083.095.081.096.078.098.075.1.073.101.07.102.067.104.064.106.061.106.059.108.056.109.053.109.05.111.047.112.045.113.041.113.039.114.036.115.033.115.03.116.028.116.025.118.021.117.019.117.017.119.013.117.011.119.007.119.005.118.002.119v.119l-.004.119-.006.118-.009.119-.012.118-.015.119-.018.118-.02.117-.023.117-.026.117-.029.116-.032.116-.035.115-.037.115-.041.114-.043.113-.046.112-.048.111-.052.111-.055.109-.057.109-.06.107-.063.106-.066.105-.068.103-.072.102-.074.101-.077.098-.079.098-.083.096-.085.093-.078.083-3.024 3.096-.097.097-.109.103-.111.101-.113.097-.115.094-.118.091-.119.089-.121.085-.124.081-.125.079-.127.076-.129.072-.13.069-.132.066-.133.063-.135.059-.137.056-.138.053-.139.049-.14.046-.141.042-.143.039-.143.035-.145.032-.145.029-.147.024-.147.021-.148.018-.148.014-.149.01-.15.007-.15.002-.15-.001-.15-.004-.149-.009-.149-.012-.148-.016-.147-.019-.147-.023-.146-.027-.145-.03-.144-.034-.143-.037-.142-.04-.14-.045-.14-.047-.138-.051-.138-.054-.135-.058-.134-.061-.133-.065-.131-.067-.13-.071-.128-.074-.126-.077-.124-.081-.123-.083-.12-.087-.119-.09-.116-.093-.114-.095-.112-.099-.11-.102-.099-.096-1.638-1.639-.061-.061-.064-.068-.064-.068-.062-.07-.061-.07-.06-.071-.059-.072-.058-.074-.056-.073-.055-.074-.054-.076-.053-.076-.051-.076-.05-.077-.049-.078-.048-.079-.046-.079-.045-.08-.044-.08-.043-.081-.042-.082-.039-.082-.039-.083-.038-.084-.036-.083-.035-.085-.034-.084-.032-.086-.031-.086-.03-.086-.028-.087-.027-.087-.026-.088-.025-.087-.023-.088-.022-.089-.02-.09-.019-.089-.018-.089-.016-.09-.015-.09-.014-.091-.012-.091-.011-.09-.009-.091-.008-.092-.007-.092-.005-.091-.004-.092-.003-.092-.001-.092v-.092l.002-.093.003-.092.005-.093.006-.092.008-.093.008-.092.011-.093.012-.092.013-.093.015-.092.016-.093.016-.084 1.262-6.307.244-.074zm4.928-.929-.072.003-.072.004-.072.006-.071.008-.072.01-.071.011-.071.013-.071.014-.07.016-.07.018-.07.02-.07.022-.068.023-.069.025-.068.026-.067.029-.067.03-.066.031-.066.034-.065.035-.064.037-.064.039-.063.04-.062.042-.061.044-.06.045-.059.047-.059.049-.057.051-.057.052-.055.054-2.879 2.879-2-2-.58 2.901-.012.061-.011.062-.01.061-.008.062-.008.062-.007.061-.006.062-.005.062-.004.061-.003.062-.002.062-.002.061v.062l.001.061.002.061.002.062.004.061.004.061.006.061.006.06.007.061.008.061.009.06.01.06.011.06.012.06.013.059.013.059.015.06.015.058.017.059.017.058.018.059.019.057.02.058.02.057.022.057.022.057.024.056.024.056.025.055.026.056.027.054.027.055.029.054.029.054.03.053.031.053.032.052.032.052.034.051.034.052.035.05.036.05.037.05.037.049.039.048.039.048.04.048.041.047.041.046.043.046.043.045.044.045 1.624 1.624.071.07.074.068.074.065.077.064.077.062.079.06.08.058.082.056.083.053.084.052.085.049.087.047.087.045.088.043.09.041.09.038.092.037.092.034.093.031.094.03.095.027.095.025.096.022.097.02.097.018.098.015.098.013.098.011.1.008.099.005.1.004h.1l.1-.002.1-.004.099-.007.099-.009.099-.012.098-.014.097-.016.097-.019.097-.021.095-.024.096-.026.094-.028.093-.031.093-.033.092-.035.091-.037.09-.04.089-.041.088-.044.087-.046.085-.048.085-.051.084-.052.082-.055.081-.057.079-.058.079-.061.076-.063.076-.065.074-.067.072-.068.071-.071 3.006-3.078.053-.056.051-.056.049-.058.048-.058.046-.06.045-.06.043-.061.041-.062.039-.063.038-.063.036-.064.034-.065.033-.066.031-.066.029-.066.027-.068.026-.067.024-.068.023-.069.02-.069.02-.07.017-.069.016-.07.014-.071.012-.07.01-.071.009-.071.007-.071.006-.072.004-.071.002-.071v-.072l-.001-.071-.003-.072-.005-.071-.006-.071-.008-.071-.01-.071-.011-.071-.013-.07-.015-.071-.017-.069-.018-.07-.02-.069-.021-.069-.023-.068-.025-.068-.027-.068-.028-.066-.03-.067-.032-.065-.033-.066-.035-.064-.037-.064-.039-.063-.04-.062-.041-.061-.044-.061-.045-.06-.047-.058-.049-.058-.05-.057-.052-.056-.053-.055-1.688-1.688-.055-.054-.057-.052-.057-.051-.059-.049-.059-.047-.06-.045-.061-.044-.062-.042-.063-.04-.064-.039-.064-.037-.065-.035-.066-.034-.066-.031-.067-.03-.067-.029-.068-.026-.069-.025-.068-.023-.07-.022-.07-.02-.07-.018-.07-.016-.071-.014-.071-.013-.071-.011-.072-.01-.071-.008-.072-.006-.072-.004-.072-.003h-.072z" fill="#7e5108"/></g><path d="m8 20.5s-.307 1.533-.58 2.901c-.262 1.311.148 2.667 1.094 3.613.495.495 1.063 1.063 1.624 1.624.756.756 1.783 1.178 2.852 1.171 1.069-.006 2.091-.44 2.838-1.205.992-1.016 2.087-2.138 3.006-3.078 1.148-1.176 1.136-3.056-.025-4.217-.548-.548-1.139-1.139-1.688-1.688-1.171-1.171-3.071-1.171-4.242 0-1.363 1.363-2.879 2.879-2.879 2.879z" fill="#fbc546"/><path d="m11 10.5c0-.828-.672-1.5-1.5-1.5s-1.5.672-1.5 1.5v3c0 .828.672 1.5 1.5 1.5s1.5-.672 1.5-1.5c0-.916 0-2.084 0-3z"/><path d="m24 10.5c0-.828-.672-1.5-1.5-1.5s-1.5.672-1.5 1.5v3c0 .828.672 1.5 1.5 1.5s1.5-.672 1.5-1.5c0-.916 0-2.084 0-3z"/></svg>