<svg clip-rule="evenodd" fill-rule="evenodd" stroke-linejoin="round" stroke-miterlimit="1.41421" viewBox="0 0 32 32" xmlns="http://www.w3.org/2000/svg" xmlns:xlink="http://www.w3.org/1999/xlink"><clipPath id="a"><path clip-rule="evenodd" d="m0 0h32v32h-32z"/></clipPath><clipPath id="b"><path clip-rule="evenodd" d="m29 15c0-7.18-5.82-13-13-13-7.18 0-13 5.82-13 13v1c0 2.917 1.159 5.715 3.222 7.778s4.861 3.222 7.778 3.222h4c2.917 0 5.715-1.159 7.778-3.222s3.222-4.861 3.222-7.778c0-.332 0-.666 0-1z"/></clipPath><path d="m0 0h32v32h-32z" fill="none"/><g clip-path="url(#a)"><path d="m16.193.001.193.004.193.006.191.008.191.011.191.014.19.015.189.018.189.021.188.022.187.025.187.028.186.029.185.032.184.034.184.037.183.038.182.041.181.043.18.045.18.048.178.049.178.052.177.054.176.056.175.058.174.06.172.062.173.064.17.066.17.068.169.071.168.072.167.074.166.076.164.078.164.08.162.082.161.084.16.086.159.087.158.089.156.092.156.093.154.095.152.096.152.099.15.1.149.102.148.104.146.105.145.107.144.109.142.11.141.112.139.114.138.115.137.117.135.119.134.12.133.122.13.123.13.125.128.126.126.128.125.13.123.131.122.132.12.134.119.135.117.137.115.138.114.139.112.141.11.143.109.143.107.145.106.146.103.148.102.149.1.15.099.152.096.152.095.155.093.155.091.156.09.158.087.159.086.16.084.161.082.162.08.164.078.164.076.166.074.167.072.168.071.169.068.169.066.171.064.173.062.172.06.174.058.175.056.176.054.177.052.178.049.178.048.18.045.18.043.181.041.182.038.183.037.184.034.184.032.185.029.186.028.187.025.187.022.188.021.189.018.189.015.19.014.191.011.191.008.192.006.192.004.193.001.187v1.012l-.001.155-.003.162-.005.161-.007.16-.009.161-.011.16-.013.16-.015.16-.016.159-.019.159-.021.158-.022.159-.025.157-.026.158-.029.157-.03.156-.032.156-.034.155-.036.155-.038.155-.04.154-.041.153-.044.153-.045.152-.047.151-.049.152-.051.15-.052.149-.055.149-.056.148-.058.148-.06.147-.061.146-.063.145-.066.145-.066.144-.069.143-.07.142-.073.141-.073.141-.076.139-.077.139-.079.138-.081.136-.083.136-.084.135-.086.134-.087.133-.089.132-.091.131-.093.13-.054.074.014.024.044.074.041.075.039.075.037.077.036.079.034.078.031.079.03.08.028.08.026.082.024.082.022.084.019.082.018.083.016.085.014.086.011.084.01.086.007.086.006.087.003.086.001.087-.001.087-.003.086-.006.087-.007.086-.01.086-.011.084-.014.085-.016.086-.018.083-.019.082-.022.084-.024.082-.026.082-.028.08-.03.08-.031.079-.034.078-.036.079-.037.077-.039.075-.041.075-.044.074-.044.072-.047.073-.049.071-.05.07-.052.068-.054.067-.055.066-.057.065-.059.064-.061.062-.062.061-.063.058-.066.058-.066.056-.067.053-.069.052-.069.051-.071.048-.072.047-.073.045-.074.043-.075.041-.076.039-.077.038-.077.035-.078.034-.08.032-.08.029-.08.028-.082.026-.082.024-.083.022-.083.019-.084.018-.084.016-.085.014-.085.011-.086.01-.086.007-.087.006-.086.003-.075.001h-.074l-.012.021-.045.073-.048.073-.049.072-.05.071-.053.07-.053.069-.055.068-.05.058-.926 1.063-.063.07-.074.079-.077.076-.078.074-.079.072-.081.069-.083.067-.085.065-.087.063-.088.06-.088.057-.091.055-.093.053-.093.05-.095.048-.095.045-.097.043-.098.04-.099.037-.101.035-.101.032-.102.03-.103.026-.104.024-.104.022-.106.018-.105.016-.107.013-.107.01-.107.007-.108.005-.094.001h-5.104v-3h-2.006l-.155-.001-.162-.003-.161-.005-.161-.007-.16-.009-.16-.011-.16-.013-.16-.015-.159-.016-.159-.019-.159-.021-.158-.022-.158-.025-.157-.026-.157-.029-.156-.03-.156-.032-.155-.034-.155-.036-.155-.038-.154-.04-.153-.041-.153-.044-.152-.045-.151-.047-.151-.049-.151-.051-.149-.052-.149-.055-.149-.056-.147-.058-.147-.06-.146-.061-.145-.063-.145-.066-.144-.066-.143-.069-.142-.07-.141-.073-.141-.073-.139-.076-.139-.077-.138-.079-.136-.081-.136-.083-.135-.084-.134-.086-.133-.087-.132-.089-.131-.091-.13-.093-.129-.094-.128-.096-.127-.097-.125-.099-.125-.101-.123-.102-.122-.104-.122-.106-.119-.107-.119-.109-.117-.11-.116-.112-.115-.114-.114-.114-.112-.117-.11-.117-.109-.119-.107-.119-.106-.122-.104-.122-.102-.123-.101-.125-.099-.125-.097-.127-.096-.128-.094-.129-.093-.13-.091-.13-.089-.133-.088-.133-.085-.134-.084-.134-.083-.137-.081-.136-.079-.138-.077-.139-.076-.139-.074-.141-.071-.141-.071-.142-.069-.143-.066-.144-.066-.145-.063-.145-.061-.146-.06-.147-.058-.148-.056-.148-.055-.149-.052-.149-.051-.15-.049-.152-.047-.151-.045-.152-.044-.153-.041-.153-.04-.154-.038-.155-.036-.154-.034-.156-.032-.156-.03-.156-.029-.157-.026-.158-.025-.157-.022-.158-.021-.159-.019-.159-.016-.159-.015-.16-.013-.16-.011-.16-.009-.161-.007-.16-.005-.161-.003-.162-.001-.155v-1.012l.001-.187.004-.193.006-.192.008-.192.011-.191.014-.191.015-.19.018-.189.021-.189.022-.188.025-.187.028-.187.029-.186.032-.185.034-.184.037-.184.038-.183.041-.182.043-.181.045-.18.048-.18.049-.178.052-.178.054-.177.056-.176.058-.175.06-.174.062-.172.064-.172.066-.172.068-.17.071-.168.072-.168.074-.167.076-.166.078-.164.08-.164.082-.162.084-.161.086-.16.087-.159.09-.158.091-.156.093-.155.095-.155.096-.152.099-.152.1-.15.102-.149.103-.148.106-.146.107-.145.109-.144.11-.142.112-.141.114-.139.115-.138.117-.137.119-.135.12-.134.122-.132.123-.131.125-.13.126-.128.128-.126.13-.125.13-.123.133-.122.134-.12.135-.119.137-.117.138-.115.139-.114.141-.112.142-.11.144-.109.145-.107.146-.106.148-.103.149-.102.15-.1.152-.099.153-.096.153-.095.156-.093.156-.091.158-.09.159-.087.16-.086.161-.084.162-.082.164-.08.164-.078.166-.076.167-.074.168-.072.169-.071.17-.068.171-.066.172-.064.172-.062.174-.06.175-.058.176-.056.177-.054.178-.052.178-.049.18-.048.18-.045.181-.043.182-.041.183-.038.184-.037.184-.034.185-.032.186-.029.187-.028.187-.025.188-.022.189-.021.189-.018.19-.015.191-.014.191-.011.192-.008.192-.006.193-.004.193-.001.193.001zm-.336 4-.142.003-.142.004-.141.006-.14.008-.14.01-.14.012-.139.013-.139.015-.138.017-.137.018-.137.02-.136.022-.136.023-.135.025-.134.027-.134.028-.133.03-.133.031-.132.033-.131.035-.131.036-.13.038-.129.039-.128.041-.128.043-.128.043-.126.046-.126.047-.125.048-.125.05-.123.052-.123.053-.122.054-.121.056-.121.057-.12.058-.118.06-.119.062-.117.063-.116.064-.116.065-.115.067-.113.068-.113.07-.112.071-.112.072-.11.073-.109.075-.109.076-.107.078-.106.078-.106.08-.104.081-.104.083-.102.083-.102.085-.1.086-.1.087-.098.088-.097.09-.096.09-.095.092-.094.093-.093.094-.092.095-.09.096-.09.097-.088.099-.087.099-.086.1-.085.102-.083.102-.083.104-.081.104-.08.106-.078.106-.078.107-.076.109-.075.109-.073.11-.072.112-.071.112-.07.113-.068.113-.067.115-.065.116-.065.116-.062.117-.062.118-.06.119-.058.12-.057.121-.056.121-.054.122-.053.123-.052.124-.05.124-.048.125-.047.126-.045.126-.044.128-.043.127-.041.129-.039.13-.038.129-.036.131-.035.131-.033.132-.031.133-.03.133-.029.134-.026.134-.025.135-.023.136-.022.137-.02.136-.018.137-.017.138-.015.139-.013.139-.012.14-.01.14-.008.14-.006.141-.004.142-.003.142-.001.149v.988l.001.118.002.111.003.112.005.111.006.112.008.11.009.111.01.111.012.11.013.11.014.109.016.11.017.109.018.109.02.109.021.108.022.108.023.107.025.108.026.107.028.106.029.106.03.106.031.106.033.105.033.104.036.104.036.104.038.102.039.103.04.103.041.101.043.101.044.101.045.1.046.1.047.098.049.099.05.098.051.097.053.097.053.096.055.095.056.095.057.094.058.093.06.093.06.092.062.091.063.091.064.09.065.089.066.089.068.088.068.087.07.086.071.085.072.085.073.083.074.083.076.083.076.081.077.08.079.08.08.078.08.078.081.076.083.076.083.074.083.073.085.072.085.071.086.069.087.069.088.068.089.066.089.065.09.064.09.063.092.062.092.06.093.06.093.058.094.057.095.056.095.055.096.053.097.053.097.051.098.05.099.049.098.047.1.046.1.045.101.044.101.043.102.041.102.04.102.039.103.038.104.036.104.036.105.033.104.033.106.031.106.03.106.029.106.028.107.026.108.025.107.023.108.022.108.021.109.02.109.018.109.017.109.016.11.014.11.013.11.012.111.01.111.009.11.008.112.006.111.005.112.003.111.002.118.001h5.994v3h1.076.014l.009-.01.894-1.026.007-.008.064-1.956h.656l-.293-.779 1.844-1.765.094-.093.077-.079.078-.08.076-.081.076-.083.074-.082.073-.084.072-.085.071-.085.07-.086.068-.087.068-.088.066-.088.065-.09.064-.09.063-.09.062-.092.06-.092.06-.093.058-.093.057-.094.056-.095.055-.095.053-.096.053-.097.051-.097.05-.098.049-.099.047-.098.046-.1.045-.1.044-.101.043-.101.041-.102.04-.102.039-.102.038-.103.036-.104.036-.104.033-.104.033-.105.031-.106.03-.106.029-.106.028-.106.026-.107.025-.107.023-.108.022-.108.021-.108.02-.109.018-.109.017-.109.016-.109.014-.11.013-.11.012-.11.01-.111.009-.111.008-.11.006-.112.005-.111.003-.112.002-.111.001-.118v-.988l-.001-.149-.003-.142-.004-.142-.006-.141-.008-.14-.01-.141-.012-.139-.013-.139-.015-.139-.016-.137-.019-.138-.02-.137-.022-.136-.023-.135-.025-.136-.027-.134-.028-.134-.03-.133-.031-.133-.033-.132-.035-.131-.036-.131-.038-.129-.039-.13-.041-.129-.043-.127-.044-.128-.045-.126-.047-.126-.048-.125-.05-.125-.052-.123-.053-.123-.054-.122-.056-.121-.057-.121-.058-.12-.06-.119-.062-.118-.062-.117-.065-.116-.065-.116-.067-.115-.068-.113-.07-.113-.071-.112-.072-.112-.073-.11-.075-.109-.076-.109-.078-.107-.078-.106-.08-.106-.081-.104-.083-.104-.083-.102-.085-.102-.086-.1-.087-.099-.088-.099-.09-.097-.09-.096-.092-.095-.093-.094-.094-.093-.095-.092-.096-.09-.097-.09-.098-.088-.1-.087-.1-.086-.102-.085-.102-.083-.104-.083-.104-.081-.106-.08-.106-.078-.108-.078-.108-.076-.109-.075-.11-.073-.112-.072-.112-.071-.113-.07-.113-.068-.115-.067-.116-.065-.116-.065-.117-.062-.119-.062-.118-.06-.12-.058-.121-.057-.121-.056-.122-.054-.123-.053-.123-.052-.125-.05-.125-.048-.126-.047-.126-.046-.128-.043-.128-.043-.128-.041-.129-.039-.131-.038-.13-.036-.131-.035-.132-.033-.133-.031-.133-.03-.134-.028-.134-.027-.135-.025-.136-.023-.136-.022-.137-.02-.137-.018-.138-.017-.139-.015-.139-.013-.139-.012-.141-.01-.14-.008-.141-.006-.142-.004-.142-.003-.143-.001-.143.001z"/><path d="m29 15c0-7.18-5.82-13-13-13-7.18 0-13 5.82-13 13v1c0 2.917 1.159 5.715 3.222 7.778s4.861 3.222 7.778 3.222h4c2.917 0 5.715-1.159 7.778-3.222s3.222-4.861 3.222-7.778c0-.332 0-.666 0-1z" fill="#fbc546"/><g clip-path="url(#b)"><path d="m17 19h3.343c1.061 0 2.078.421 2.829 1.172 2.834 2.834 9.828 9.828 9.828 9.828h-16z" fill="#e59a10"/><path d="m14.413 21.217c-.259-.337-.413-.759-.413-1.217 0-.941 0-2.059 0-3 0-1.105.895-2 2-2s2 .895 2 2v3c0 .458-.154.88-.413 1.217-.54.268-2.23.25-3.174 0z" fill="#722245"/><path d="m14.413 21.217c.508-.142 1.041-.217 1.587-.217.546 0 1.079.075 1.587.217-.365.476-.94.783-1.587.783s-1.222-.307-1.587-.783z" fill="#ca3b8f"/><path d="m19.149 17.003.147.011.147.018.145.026.143.032.142.039.139.046.136.053.134.059.131.066.128.072.124.079.12.084.117.091.112.097.108.102.102.108.097.112.091.117.085.12.078.124.072.128.066.131.059.134.053.136.046.139.039.141.032.144.026.146.018.146.011.147.003.124v2.025h3.512l.075.001.086.003.087.005.086.008.086.01.085.011.085.014.084.016.084.018.083.019.083.022.082.024.081.026.081.028.08.03.079.031.079.034.078.035.077.038.075.039.075.041.074.043.073.045.072.047.07.048.07.051.069.052.067.053.066.056.065.057.064.059.062.061.061.062.059.064.057.064.055.066.054.068.053.069.05.069.048.071.047.072.045.073.043.074.041.074.039.077.038.077.035.076.034.079.032.08.029.08.028.081.026.082.024.081.021.082.02.084.018.084.016.084.014.086.011.084.01.086.007.086.006.086.003.088.001.086-.001.086-.003.088-.006.086-.007.086-.01.086-.011.084-.014.086-.016.084-.018.084-.02.084-.021.082-.024.081-.026.082-.028.081-.029.08-.032.08-.034.078-.035.077-.038.078-.039.076-.041.074-.043.074-.045.073-.047.072-.048.071-.05.069-.053.069-.054.068-.055.066-.057.064-.059.064-.061.062-.062.061-.064.059-.065.057-.066.056-.067.053-.069.052-.07.051-.07.048-.072.047-.073.045-.074.043-.075.041-.075.039-.078.038-.077.035-.079.034-.079.031-.08.03-.081.028-.081.026-.082.024-.083.022-.083.019-.084.018-.084.016-.085.014-.086.011-.085.01-.086.007-.087.006-.086.003-.075.001h-.074l-.012.02-.046.074-.047.074-.049.071-.05.071-.052.07-.054.069-.055.068-.05.058-.926 1.063-.063.07-.074.079-.077.076-.078.074-.079.072-.081.069-.084.068-.084.064-.087.063-.087.059-.089.058-.092.055-.092.053-.093.05-.094.048-.096.045-.097.043-.099.04-.099.037-.1.035-.101.032-.102.03-.103.026-.104.024-.104.022-.105.018-.106.016-.107.013-.107.01-.107.007-.108.005-.095.001h-5.103v-12.025l.003-.128.012-.151.019-.15.026-.149.034-.145.041-.143.047-.14.054-.138.06-.133.067-.13.072-.125.078-.122.084-.118.088-.112.094-.109.099-.104.104-.099.109-.094.113-.088.117-.084.122-.078.126-.072.129-.067.134-.06.136-.054.14-.047.144-.041.146-.034.148-.026.15-.019.151-.012.153-.004zm1.928 10.997h.013l.009-.01.894-1.026.007-.008.031-.956h-2.031v2z" fill="#7e5108"/></g><path d="m27 25.5c0-.828-.672-1.5-1.5-1.5-.75 0-1.5 0-1.5 0v3h1.5c.828 0 1.5-.672 1.5-1.5z" fill="#fbc546"/><path d="m22 23h3v4h-3z" fill="#7e5108"/><path d="m18 30h3.09c.578 0 1.128-.25 1.508-.686.29-.333.635-.729.91-1.044.317-.365.492-.831.492-1.314 0-.563 0-1.34 0-1.956 0-.265-.105-.52-.293-.707-.187-.188-.442-.293-.707-.293-1.185 0-3 0-3 0s0-2.541 0-4c0-.265-.105-.52-.293-.707-.187-.188-.442-.293-.707-.293-.552 0-1 .448-1 1z" fill="#fbc546"/><path d="m11 10.5c0-.828-.672-1.5-1.5-1.5s-1.5.672-1.5 1.5v3c0 .828.672 1.5 1.5 1.5s1.5-.672 1.5-1.5c0-.916 0-2.084 0-3z"/><path d="m24 10.5c0-.828-.672-1.5-1.5-1.5s-1.5.672-1.5 1.5v3c0 .828.672 1.5 1.5 1.5s1.5-.672 1.5-1.5c0-.916 0-2.084 0-3z"/></g></svg>