<svg clip-rule="evenodd" fill-rule="evenodd" stroke-linecap="round" stroke-linejoin="round" stroke-miterlimit="1.5" viewBox="0 0 32 32" xmlns="http://www.w3.org/2000/svg" xmlns:xlink="http://www.w3.org/1999/xlink"><clipPath id="a"><path clip-rule="evenodd" d="m0-.017h32v32h-32z"/></clipPath><path d="m0-.017h32v32h-32z" fill="none"/><g clip-path="url(#a)"><path d="m4 15.983 4-4-6-3 7-1-2-4 7 3 2-5 2 5 7-3-2 4 7 1-6 3 4 4h-6l1 1h4c.658 1.316 1 2.766 1 4.236v.764c0 4.419-3.582 8-8 8-2.574 0-5.426 0-8 0-4.418 0-8-3.581-8-8 0-.265 0-.521 0-.764 0-1.47.342-2.92 1-4.236h4l1-1z" fill="none" stroke="#000" stroke-width="4"/><circle cx="22" cy="3.983" fill="#fbc546" r="1"/><path d="m22.153.987.151.011.151.019.148.027.146.033.143.041.14.047.137.054.133.061.13.066.125.073.122.078.117.083.113.089.109.094.103.099.1.104.094.108.088.113.084.117.078.122.072.126.066.129.061.134.054.137.047.139.041.143.034.147.026.148.019.15.012.151.004.153-.004.153-.012.152-.019.15-.026.148-.034.146-.041.143-.047.14-.054.137-.061.134-.066.129-.072.126-.078.122-.084.117-.088.113-.094.108-.1.104-.103.099-.109.094-.113.089-.117.083-.122.078-.125.072-.13.067-.133.06-.137.054-.14.047-.143.041-.146.034-.148.026-.151.02-.151.011-.153.004-.153-.004-.151-.011-.151-.02-.148-.026-.146-.034-.143-.041-.14-.047-.137-.054-.133-.06-.13-.067-.125-.072-.122-.078-.117-.083-.113-.089-.109-.094-.103-.099-.1-.104-.094-.108-.088-.113-.084-.117-.078-.122-.072-.126-.066-.129-.061-.134-.054-.137-.047-.14-.041-.143-.034-.146-.026-.148-.019-.15-.012-.152-.004-.153.004-.153.012-.151.019-.15.026-.148.034-.147.041-.143.047-.139.054-.137.061-.134.066-.129.072-.126.078-.122.084-.117.088-.113.094-.108.1-.104.103-.099.109-.094.113-.089.117-.083.122-.078.125-.073.13-.066.133-.061.137-.054.14-.047.143-.041.146-.033.148-.027.151-.019.151-.011.153-.004.153.004zm-.203 1.997-.05.004-.05.006-.05.009-.049.011-.048.014-.047.016-.047.018-.045.021-.043.022-.042.024-.04.026-.039.027-.038.03-.035.031-.035.033-.032.034-.031.036-.03.037-.027.039-.027.041-.024.042-.022.043-.02.045-.018.046-.016.047-.014.048-.011.049-.009.05-.007.05-.003.05-.002.05.002.05.003.05.007.05.009.05.011.05.014.048.016.046.018.047.02.045.022.043.024.042.027.041.027.039.03.037.031.036.032.034.035.033.035.031.038.029.039.028.04.026.042.024.043.022.045.02.047.019.047.015.048.014.049.012.05.008.05.007.05.004.05.001.05-.001.05-.004.05-.007.05-.008.049-.012.048-.014.047-.015.047-.019.045-.02.043-.022.042-.024.04-.026.039-.028.038-.029.035-.031.035-.033.032-.034.031-.036.03-.037.027-.039.027-.041.024-.042.022-.043.02-.045.018-.047.016-.046.014-.048.011-.05.009-.05.007-.05.003-.05.002-.05-.002-.05-.003-.05-.007-.05-.009-.05-.011-.049-.014-.048-.016-.047-.018-.046-.02-.045-.022-.043-.024-.042-.027-.041-.027-.039-.03-.037-.031-.036-.032-.034-.035-.033-.035-.031-.038-.03-.039-.027-.04-.026-.042-.024-.043-.022-.045-.021-.047-.018-.047-.016-.048-.014-.049-.011-.05-.009-.05-.006-.05-.004-.05-.001z"/><path d="m29 13.983-1 2-3-1s.174-.174.419-.419c.944-.944 2.387-1.178 3.581-.581z" fill="#fbc546"/><path d="m27.675 11.656.098.002.099.004.098.006.098.008.099.01.098.011.098.014.098.016.098.017.098.019.098.022.097.023.097.025.096.028.096.029.096.031.096.033.095.035.094.037.094.039.094.041.092.043.083.041 1.798.899-2.67 5.34-6.819-2.273-.228-.967 2.046-2.046.066-.065.074-.07.076-.068.076-.067.078-.065.08-.063.079-.062.082-.06.082-.058.083-.056.084-.055.084-.053.086-.051.087-.049.087-.048.088-.046.089-.044.09-.042.09-.04.091-.039.091-.037.092-.034.093-.034.093-.031.094-.029.094-.028.095-.026.095-.024.095-.022.096-.02.097-.019.096-.017.097-.014.097-.013.098-.011.097-.009.098-.008.098-.005.098-.004.098-.001zm-.144 2.001-.06.002-.059.003-.06.005-.059.005-.059.007-.059.008-.059.009-.059.01-.059.011-.058.012-.058.014-.058.015-.058.015-.057.017-.057.018-.057.019-.056.02-.056.021-.056.023-.055.023-.055.025-.054.025-.054.027-.054.028-.053.029-.052.03-.052.031-.052.032-.051.033-.05.034-.05.036-.049.036-.049.038-.048.038-.047.04-.047.04-.046.042-.045.043-.045.043-.419.419 3 1 1-2-.056-.027-.057-.026-.057-.025-.057-.024-.057-.023-.058-.021-.058-.02-.058-.019-.059-.018-.058-.016-.059-.016-.059-.014-.059-.013-.06-.012-.059-.01-.06-.01-.059-.008-.06-.007-.06-.006-.06-.005-.06-.003-.059-.003-.06-.001h-.06z"/><path d="m14 1.983-1 2-3-1s.174-.174.419-.419c.944-.944 2.387-1.178 3.581-.581z" fill="#fbc546"/><path d="m12.675-.344.098.002.099.004.098.006.098.008.099.01.098.011.098.014.098.016.098.017.098.019.098.022.097.023.097.025.096.028.096.029.096.031.096.033.095.035.094.037.094.039.094.041.092.043.083.041 1.798.899-2.67 5.34-6.819-2.273-.228-.967 2.046-2.046.066-.065.074-.07.076-.068.076-.067.078-.065.08-.063.079-.062.082-.06.082-.058.083-.056.084-.055.084-.053.086-.051.087-.049.087-.048.088-.046.089-.044.09-.042.09-.04.091-.039.091-.037.092-.034.093-.034.093-.031.094-.029.094-.028.095-.026.095-.024.095-.022.096-.02.097-.019.096-.017.097-.014.097-.013.098-.011.097-.009.098-.008.098-.005.098-.004.098-.001h.099zm-.144 2.001-.06.002-.059.003-.06.005-.059.005-.059.007-.059.008-.059.009-.059.01-.059.011-.058.012-.058.014-.058.015-.058.015-.057.017-.057.018-.057.019-.056.02-.056.021-.056.023-.055.023-.055.025-.054.025-.054.027-.054.028-.053.029-.052.03-.052.031-.052.032-.051.033-.05.034-.05.036-.049.036-.049.038-.048.038-.047.04-.047.04-.046.042-.045.043-.045.043-.419.419 3 1 1-2-.056-.027-.057-.026-.057-.025-.057-.024-.057-.023-.058-.021-.058-.02-.058-.019-.059-.018-.058-.016-.059-.016-.059-.014-.059-.013-.06-.012-.059-.01-.06-.01-.059-.008-.06-.007-.06-.006-.06-.005-.06-.003-.059-.003-.06-.001h-.06l-.06.001z"/><path d="m16 1.983-2 5-7-3 2 4-7 1 6 3-4 4h6l-3 3h18l-3-3h6l-4-4 6-3-7-1 2-4-7 3z" fill="#f30800"/><path d="m16 5.983-2 3-4-2 2 3h-5l4 2-3 3h4l-2 3 4-1 2 2 2-2 3 1-1-3h4l-3-3 4-2h-5l2-3-4 2z" fill="#ffa32b"/><path d="m27 16.983h-22c-.658 1.316-1 2.766-1 4.236v.764c0 4.419 3.582 8 8 8h8c4.418 0 8-3.581 8-8 0-.265 0-.521 0-.764 0-1.47-.342-2.92-1-4.236z" fill="#fbc546"/><path d="m12 20.499c0-.398-.158-.78-.439-1.061-.282-.281-.663-.439-1.061-.439s-.779.158-1.061.439c-.281.281-.439.663-.439 1.061v.018c0 .398.158.779.439 1.06.282.282.663.44 1.061.44s.779-.158 1.061-.44c.281-.281.439-.662.439-1.06 0-.006 0-.012 0-.018z"/><path d="m23 20.497c0-.828-.671-1.498-1.498-1.498-.001 0-.003 0-.004 0-.827 0-1.498.67-1.498 1.498v.022c0 .827.671 1.498 1.498 1.498h.004c.827 0 1.498-.671 1.498-1.498 0-.008 0-.015 0-.022z"/><path d="m21.276 26.536c.155.31.139.678-.043.973-.183.295-.504.474-.851.474-2.295 0-6.469 0-8.764 0-.347 0-.668-.179-.851-.474-.182-.295-.198-.663-.043-.973.281-.563.613-1.226.934-1.869.823-1.645 2.503-2.684 4.342-2.684 1.839 0 3.519 1.039 4.342 2.684.321.643.653 1.306.934 1.869z" fill="#5b2b02"/><path d="m12.711 27.983h-1.093c-.347 0-.668-.179-.851-.474-.182-.295-.198-.663-.043-.973.281-.563.613-1.226.934-1.869.823-1.645 2.503-2.684 4.342-2.684 1.839 0 3.519 1.039 4.342 2.684.321.643.653 1.306.934 1.869.155.31.139.678-.043.973-.183.295-.504.474-.851.474h-1.093c-1.554-.304-2.641-.278-3.396-.278-.79-.001-1.989.041-3.182.278z" fill="#722245"/><path d="m12.711 27.983c.953-.638 2.091-1 3.289-1 1.198 0 2.336.362 3.289 1z" fill="#ca3b8f"/><path d="m3 11.983s0 0 0-.002c0-.795.316-1.557.878-2.12.562-.562 1.325-.878 2.12-.878h.002v3z" fill="#fbc546"/><path d="m8 13.983h-7v-2.014l.001-.112.005-.123.008-.124.01-.122.014-.123.017-.122.019-.121.023-.12.025-.12.029-.119.031-.118.034-.117.037-.117.039-.115.043-.114.045-.113.048-.112.051-.111.054-.11.056-.108.058-.107.062-.106.064-.104.067-.103.069-.101.072-.099.074-.098.077-.096.079-.095.082-.092.084-.091.087-.089.089-.087.09-.084.093-.081.094-.08.096-.077.098-.074.1-.072.101-.069.103-.067.104-.064.106-.061.106-.059.109-.056.109-.054.111-.05.112-.048.113-.046.115-.042.115-.04.116-.037.118-.034.118-.031.119-.028.119-.026.121-.022.121-.02.122-.017.122-.013.123-.011.123-.008.124-.004.112-.002h2.014zm-2.002-5-.074.001-.075.003-.074.005-.073.006-.074.008-.073.01-.072.012-.073.013-.071.016-.072.017-.071.018-.07.021-.07.022-.069.024-.068.025-.068.028-.067.028-.067.031-.066.032-.065.033-.064.036-.063.037-.063.038-.061.04-.061.042-.06.043-.058.044-.058.046-.057.048-.055.049-.055.05-.053.052-.052.054-.05.054-.049.056-.048.056-.046.058-.045.059-.043.059-.041.061-.04.062-.039.062-.037.063-.035.065-.033.065-.033.065-.03.067-.029.067-.027.068-.025.068-.024.07-.022.069-.021.071-.019.071-.017.071-.015.072-.013.072-.012.073-.01.073-.008.073-.007.074-.004.074-.003.074-.001.074v.002h3v-3z"/><path d="m14 10.983 1-1 2 2-2 1z" fill="#fbc546"/><path d="m20.01 12.165-.097.598-5.807 2.904-2.54-5.079 3.434-3.433zm-6.01-1.182 1 2 2-1-2-2z"/></g></svg>