<svg clip-rule="evenodd" fill-rule="evenodd" stroke-linejoin="round" stroke-miterlimit="1.41421" viewBox="0 0 32 32" xmlns="http://www.w3.org/2000/svg" xmlns:xlink="http://www.w3.org/1999/xlink"><clipPath id="a"><path clip-rule="evenodd" d="m0 0h32v32h-32z"/></clipPath><path d="m0 0h32v32h-32z" fill="none"/><g clip-path="url(#a)"><path d="m16.206 2.001.206.004.205.007.205.009.204.011.203.015.203.016.202.019.201.022.2.024.2.027.199.029.198.032.198.034.197.036.195.039.195.041.195.044.193.046.192.048.191.05.191.053.19.055.188.058.188.059.186.062.186.064.184.066.184.069.182.07.181.073.181.075.179.077.177.079.177.081.176.084.174.085.173.087.172.09.171.091.169.094.169.095.167.097.165.1.164.101.163.103.162.105.16.107.159.108.157.111.157.113.154.114.154.116.151.118.15.119.149.121.147.123.147.125.144.127.142.128.142.13.139.131.138.133.137.135.135.137.133.138.132.14.129.141.128.142.127.144.125.146.123.148.121.148.12.151.117.152.116.153.115.154.112.157.11.157.109.159.107.16.105.162.103.163.102.164.099.166.097.166.095.169.094.169.091.17.09.173.087.173.085.174.083.176.082.177.079.178.077.178.075.181.072.181.071.182.069.184.066.184.064.186.062.186.059.188.058.188.055.19.053.191.05.191.048.192.046.194.044.193.041.195.039.196.036.197.034.198.032.198.029.199.027.2.024.2.021.201.02.202.016.203.015.204.011.203.009.205.007.205.004.205.001.2v1.014l-.001.16-.003.168-.006.166-.007.166-.009.166-.012.165-.013.164-.016.165-.018.163-.019.163-.022.163-.024.161-.025.161-.028.161-.029.159-.032.16-.034.159-.035.157-.037.157-.039.156-.041.156-.043.155-.045.154-.047.153-.048.153-.051.152-.052.15-.053.15-.056.149-.057.148-.06.148-.06.145-.063.146-.064.145-.066.143-.068.143-.069.142-.071.141-.073.139-.074.139-.076.138-.078.136-.079.136-.08.134-.083.134-.084.133-.084.13-.087.131-.089.129-.089.128-.092.126-.093.126-.094.125-.095.123-.098.122-.098.121-.1.12-.102.118-.103.118-.104.115-.105.115-.107.113-.108.113-.11.11-.11.11-.112.108-.114.107-.114.105-.117.105-.117.102-.118.102-.12.1-.121.098-.122.097-.123.096-.125.094-.125.093-.127.092-.128.089-.129.089-.13.086-.132.086-.132.083-.134.083-.134.08-.136.08-.137.077-.137.076-.139.074-.14.073-.14.071-.142.069-.143.068-.143.066-.145.064-.145.063-.146.06-.148.06-.148.057-.149.056-.15.053-.151.053-.152.05-.152.048-.153.047-.154.045-.155.043-.155.041-.157.039-.157.037-.158.036-.158.033-.159.031-.16.03-.161.028-.161.025-.161.024-.163.022-.163.019-.163.018-.164.016-.165.013-.165.012-.166.009-.166.008-.166.005-.168.003-.161.001h-6.012l-.161-.001-.168-.003-.166-.005-.166-.008-.166-.009-.165-.012-.165-.013-.164-.016-.163-.018-.163-.019-.163-.022-.161-.024-.161-.025-.161-.028-.16-.03-.159-.031-.158-.033-.158-.036-.157-.037-.156-.039-.156-.041-.155-.043-.154-.045-.153-.047-.152-.048-.152-.05-.151-.053-.15-.053-.149-.056-.148-.057-.148-.06-.146-.06-.145-.063-.145-.064-.143-.066-.143-.068-.142-.069-.141-.071-.139-.073-.139-.074-.138-.076-.136-.077-.136-.079-.134-.081-.134-.083-.132-.083-.132-.086-.13-.086-.129-.089-.128-.09-.127-.091-.125-.092-.125-.095-.123-.096-.122-.097-.121-.098-.12-.1-.118-.102-.117-.102-.116-.104-.115-.106-.114-.107-.112-.108-.11-.11-.11-.11-.108-.113-.107-.113-.105-.115-.104-.115-.103-.118-.102-.118-.1-.12-.099-.121-.096-.122-.096-.123-.095-.125-.092-.126-.091-.126-.091-.128-.088-.129-.086-.13-.086-.132-.084-.132-.082-.133-.08-.135-.079-.136-.078-.137-.076-.137-.074-.139-.072-.139-.072-.141-.069-.142-.068-.143-.066-.143-.064-.145-.063-.146-.06-.145-.06-.148-.057-.148-.056-.149-.053-.15-.052-.15-.051-.152-.048-.153-.047-.154-.045-.153-.042-.155-.042-.156-.039-.156-.037-.157-.036-.158-.033-.158-.031-.159-.03-.16-.028-.161-.025-.161-.024-.162-.022-.162-.019-.163-.018-.163-.016-.164-.013-.165-.012-.165-.009-.166-.008-.166-.005-.166-.003-.168-.001-.161v-1.012l.001-.2.004-.206.007-.205.009-.205.011-.203.015-.204.016-.203.02-.202.021-.201.024-.2.027-.2.029-.199.032-.199.034-.197.036-.196.039-.197.041-.195.044-.193.046-.194.048-.192.05-.191.053-.191.055-.19.058-.188.059-.188.062-.186.064-.186.066-.184.069-.184.071-.182.072-.181.075-.181.077-.178.079-.178.082-.177.083-.176.085-.174.088-.173.089-.172.091-.171.094-.169.095-.169.097-.166.099-.166.102-.164.103-.163.105-.162.107-.16.109-.159.11-.157.112-.157.115-.154.116-.153.117-.152.12-.151.121-.148.123-.148.125-.146.127-.144.128-.142.13-.142.131-.139.133-.138.135-.137.137-.134.138-.134.139-.131.142-.13.142-.128.144-.127.147-.125.147-.123.149-.121.15-.119.151-.118.154-.116.154-.115.157-.112.157-.11.159-.109.16-.107.162-.105.163-.103.164-.101.165-.1.167-.097.169-.095.169-.094.171-.091.172-.089.173-.088.174-.085.176-.084.176-.081.178-.079.179-.077.181-.075.181-.073.182-.07.184-.069.184-.066.186-.064.186-.062.188-.059.189-.058.189-.055.19-.053.192-.05.192-.048.193-.046.194-.044.196-.041.195-.039.197-.036.198-.034.198-.032.199-.029.2-.027.2-.024.201-.022.202-.019.203-.016.203-.015.204-.011.205-.009.205-.007.206-.004.206-.001.206.001zm-.362 4-.155.003-.154.005-.154.007-.154.008-.152.011-.153.013-.151.014-.151.016-.151.019-.15.02-.149.021-.149.024-.148.026-.147.027-.147.029-.146.031-.145.032-.145.035-.143.036-.144.038-.142.039-.142.041-.141.043-.14.045-.14.046-.139.048-.138.05-.137.051-.137.053-.136.054-.134.056-.134.058-.133.059-.133.061-.132.062-.13.064-.13.066-.128.067-.129.068-.127.07-.126.072-.125.073-.124.074-.123.076-.122.077-.122.079-.12.08-.119.082-.118.083-.118.084-.116.086-.115.087-.113.088-.113.09-.112.091-.111.093-.109.094-.109.095-.107.096-.106.098-.105.098-.104.1-.102.102-.102.102-.1.104-.098.105-.098.106-.096.107-.095.109-.094.109-.092.111-.092.112-.089.112-.089.114-.087.116-.086.115-.084.117-.083.119-.082.119-.08.12-.079.122-.077.122-.076.123-.074.124-.073.126-.072.125-.07.127-.068.128-.067.129-.066.13-.064.131-.062.131-.061.132-.059.134-.058.134-.056.134-.054.136-.053.137-.051.137-.05.138-.048.139-.046.139-.045.141-.043.141-.041.142-.039.142-.038.144-.036.143-.035.145-.032.146-.031.146-.029.146-.027.147-.026.149-.024.148-.021.149-.02.15-.019.15-.016.152-.014.152-.013.152-.011.152-.008.154-.007.154-.005.154-.003.155-.001.162v.988l.001.123.002.116.004.117.005.115.006.115.008.115.01.113.011.115.012.113.013.113.015.112.017.112.018.112.019.11.02.111.022.11.023.109.024.109.026.109.027.108.028.107.03.107.031.107.032.105.034.105.034.105.036.104.038.104.038.103.039.102.041.101.043.102.043.1.044.1.046.099.046.099.048.097.049.098.051.097.051.096.053.095.053.094.055.094.056.093.057.093.058.091.059.091.06.091.061.089.062.088.064.089.064.087.065.086.066.085.068.086.069.083.069.083.07.082.071.081.073.081.073.08.074.078.075.078.076.077.077.076.078.075.078.074.08.073.08.073.082.071.082.07.083.069.084.069.085.067.085.067.086.065.088.064.087.064.089.062.089.061.091.06.091.059.091.058.093.057.093.056.093.055.095.053.095.053.096.051.097.051.097.049.098.047.099.047.099.046.1.044.1.044.102.042.101.04.102.04.103.038.104.038.104.036.105.034.105.034.106.032.106.031.107.029.107.029.108.027.109.026.109.024.109.023.11.022.111.02.11.019.112.018.112.017.112.015.113.013.113.012.114.011.114.01.115.008.115.006.116.005.116.004.116.002.123.001h5.988l.123-.001.116-.002.116-.004.116-.005.115-.006.115-.008.114-.01.114-.011.113-.012.113-.013.112-.015.112-.017.112-.018.11-.019.111-.02.11-.022.109-.023.109-.024.109-.026.108-.027.107-.029.107-.029.106-.031.106-.032.105-.034.105-.034.104-.036.104-.038.103-.038.102-.04.101-.04.102-.042.1-.044.1-.044.099-.046.099-.047.098-.047.097-.05.097-.05.095-.051.096-.053.095-.053.093-.055.093-.056.093-.057.091-.058.091-.059.091-.06.089-.061.089-.062.088-.064.087-.064.086-.065.085-.067.085-.067.084-.069.083-.069.082-.07.082-.071.08-.073.08-.073.078-.074.078-.075.077-.076.076-.077.075-.078.074-.078.073-.08.073-.081.071-.081.07-.082.07-.083.068-.084.067-.084.067-.086.065-.086.064-.087.063-.088.063-.089.061-.089.06-.09.06-.092.058-.092.056-.091.056-.094.055-.094.054-.094.052-.095.051-.096.051-.097.049-.097.048-.098.046-.099.046-.099.044-.1.043-.1.043-.102.041-.101.039-.102.038-.103.038-.104.036-.104.034-.105.034-.105.032-.106.031-.106.029-.107.029-.107.027-.108.025-.109.025-.109.023-.109.022-.11.02-.111.019-.11.018-.112.017-.112.015-.112.013-.113.012-.113.011-.114.01-.114.008-.115.006-.115.005-.116.004-.116.002-.116.001-.124v-.986l-.001-.162-.003-.156-.005-.154-.007-.154-.008-.154-.011-.152-.013-.152-.014-.152-.016-.152-.019-.15-.02-.15-.021-.149-.024-.149-.026-.148-.027-.147-.029-.146-.031-.146-.032-.146-.035-.145-.036-.144-.038-.143-.039-.142-.041-.142-.043-.141-.045-.141-.046-.139-.048-.139-.05-.138-.051-.137-.053-.137-.054-.136-.056-.134-.058-.134-.059-.134-.061-.132-.062-.131-.064-.131-.066-.13-.067-.128-.068-.129-.07-.127-.072-.125-.073-.126-.074-.124-.076-.123-.077-.122-.079-.122-.08-.12-.082-.119-.083-.119-.084-.117-.086-.115-.087-.116-.089-.114-.089-.112-.092-.112-.092-.111-.094-.109-.095-.109-.096-.107-.098-.106-.098-.105-.1-.104-.102-.102-.102-.101-.104-.101-.105-.098-.106-.098-.107-.096-.109-.096-.109-.093-.111-.092-.112-.092-.112-.089-.114-.089-.115-.087-.117-.086-.117-.084-.118-.083-.119-.082-.12-.08-.122-.079-.122-.077-.123-.076-.124-.074-.125-.073-.126-.072-.128-.07-.127-.068-.129-.067-.13-.066-.131-.064-.131-.062-.132-.061-.134-.059-.134-.058-.135-.056-.135-.054-.137-.053-.137-.051-.138-.05-.139-.048-.14-.046-.14-.045-.141-.043-.142-.041-.142-.039-.144-.038-.144-.036-.144-.035-.145-.032-.146-.031-.147-.029-.147-.027-.148-.026-.149-.024-.149-.021-.15-.02-.151-.019-.151-.016-.151-.014-.153-.013-.152-.011-.154-.008-.154-.007-.154-.005-.155-.003-.156-.001-.156.001z"/><path d="m16 30h-3c-6.075 0-11-4.925-11-11 0-.332 0-.665 0-1 0-7.732 6.268-14 14-14 7.732 0 14 6.268 14 14v1c0 5.392-3.88 9.878-9 10.819l-1-.819h-3z" fill="#fbc546"/><path d="m16.001 24h-.001zm-6.811-3.105c-.307-.352-.588-.731-.84-1.134-.499-.799-.99-1.586-1.394-2.231-.192-.308-.203-.697-.026-1.015.176-.318.511-.515.874-.515h16.392c.363 0 .698.197.874.515.177.318.166.707-.026 1.015-.404.645-.895 1.432-1.394 2.231-.252.403-.533.782-.84 1.134-1.07-1.77-12.55-1.77-13.62 0z" fill="#722245"/><path d="m16 18 1.071.685.13 3.633-1.201 1.682h-.001c-2.634 0-5.111-1.15-6.809-3.105 1.07-1.77 3.003-2.895 5.135-2.895zm5 1.005c.728.485 1.349 1.128 1.81 1.89-.533.614-1.143 1.148-1.81 1.593l-.946-.751-.194-2.367z" fill="#ca3b8f"/><path d="m16 24v-6h1.675c1.214 0 2.363.365 3.325 1.005v10.814c-.649.119-1.317.181-2 .181h-3z" fill="#009ad2"/><g fill-rule="nonzero"><path d="m12.906 10.576c.116.231.135.499.053.744s-.257.447-.489.563c-1.077.538-2.902 1.451-4 2-.244.122-.525.142-.783.056s-.471-.271-.593-.514v-.001c-.116-.231-.135-.499-.053-.744s.257-.447.489-.563c1.077-.538 2.902-1.451 4-2 .244-.122.525-.142.783-.056s.471.271.593.514z"/><path d="m24.47 12.117c.232.116.407.318.489.563s.063.513-.053.744v.001c-.122.243-.335.428-.593.514s-.539.066-.783-.056c-1.098-.549-2.923-1.462-4-2-.232-.116-.407-.318-.489-.563s-.063-.513.053-.744v-.001c.122-.243.335-.428.593-.514s.539-.066.783.056c1.098.549 2.923 1.462 4 2z"/></g></g></svg>