<svg clip-rule="evenodd" fill-rule="evenodd" stroke-linejoin="round" stroke-miterlimit="1.41421" viewBox="0 0 32 32" xmlns="http://www.w3.org/2000/svg" xmlns:xlink="http://www.w3.org/1999/xlink"><clipPath id="a"><path clip-rule="evenodd" d="m0 0h32v32h-32z"/></clipPath><path d="m0 0h32v32h-32z" fill="none"/><g clip-path="url(#a)"><path d="m28.651 4.335.117.008.118.012.117.016.116.02.117.024.116.028.115.031.114.036.113.04.112.044.111.047.11.052.108.055.106.059.104.063.101.066.098.069.096.072.093.075.091.078.087.081.084.084.081.086.079.088.075.092.072.093.069.096.065.098.062.099.059.102.055.104.052.106.049.108.045.109.041.111.037.112.034.114.03.115.027.116.022.118.018.118.015.12.01.12.006.121.002.104v.031l-.001.115-.005.128-.008.126-.011.127-.014.125-.017.125-.02.125-.023.124-.027.123-.029.122-.032.121-.035.121-.038.119-.041.119-.043.117-.047.116-.049.116-.052.114-.055.112-.058.112-.06.109-.063.109-.066.107-.069.105-.071.104-.074.103-.076.1-.079.099-.082.097-.084.095-.086.094-.089.091-.091.089-.094.086-.095.084-.097.082-.099.079-.1.076-.103.074-.104.071-.105.069-.107.066-.108.063-.11.06-.112.058-.113.055-.113.052-.115.049-.117.047-.117.043-.08.028.053.107.069.143.068.144.066.145.064.145.063.146.06.146.06.148.057.148.056.148.054.149.053.15.051.151.049.151.047.152.046.152.044.152.042.154.041.154.038.154.037.155.036.155.033.156.032.156.03.157.028.157.027.158.024.158.023.158.021.159.02.159.017.159.016.16.014.16.012.16.01.161.008.16.007.162.004.161.003.161.001.156v.012l-.001.156-.003.161-.005.161-.007.161-.009.16-.011.16-.013.16-.015.16-.016.159-.019.159-.021.159-.022.158-.025.157-.026.158-.029.157-.03.156-.032.156-.034.155-.036.155-.038.155-.04.154-.041.153-.044.153-.045.152-.047.151-.049.151-.051.151-.052.149-.055.149-.056.149-.058.147-.06.147-.061.146-.063.145-.066.145-.066.144-.069.143-.07.142-.073.141-.073.141-.076.139-.077.139-.079.138-.081.136-.083.136-.084.135-.086.134-.087.133-.089.132-.091.131-.093.13-.094.129-.096.128-.097.127-.099.126-.101.124-.102.123-.104.123-.106.12-.107.12-.109.119-.11.117-.112.117-.114.114-.114.114-.117.112-.117.11-.119.109-.119.107-.121.106-.123.104-.123.102-.125.101-.125.099-.127.097-.128.096-.129.094-.13.093-.131.091-.132.089-.133.087-.134.086-.135.084-.136.083-.136.081-.138.079-.139.077-.139.076-.141.073-.141.073-.142.07-.143.069-.144.067-.145.065-.145.063-.146.061-.147.06-.148.058-.148.056-.149.055-.149.052-.151.051-.151.049-.151.047-.152.045-.153.044-.153.041-.154.04-.155.038-.155.036-.155.034-.156.032-.156.03-.157.029-.158.026-.157.025-.158.022-.159.021-.159.019-.159.016-.16.015-.16.013-.16.011-.161.009-.16.007-.161.005-.162.003-.155.001h-2.012l-.155-.001-.162-.003-.161-.005-.16-.007-.161-.009-.16-.011-.16-.013-.16-.015-.159-.016-.159-.019-.159-.021-.158-.022-.157-.025-.158-.026-.157-.029-.156-.03-.156-.032-.155-.034-.155-.036-.155-.038-.154-.04-.153-.041-.153-.044-.152-.045-.151-.047-.151-.049-.151-.051-.149-.052-.149-.055-.148-.056-.148-.058-.147-.06-.146-.061-.145-.063-.145-.065-.144-.067-.143-.069-.142-.07-.141-.073-.141-.073-.139-.076-.139-.077-.138-.079-.136-.081-.136-.083-.135-.084-.134-.086-.133-.087-.132-.089-.131-.091-.13-.093-.129-.094-.128-.096-.127-.097-.125-.099-.125-.101-.123-.102-.122-.104-.122-.106-.119-.107-.119-.109-.117-.11-.117-.112-.114-.114-.114-.114-.112-.117-.11-.117-.109-.119-.107-.119-.106-.121-.104-.123-.102-.123-.101-.125-.099-.125-.097-.127-.096-.128-.094-.129-.093-.13-.091-.131-.089-.132-.087-.133-.086-.134-.084-.135-.083-.136-.081-.136-.079-.138-.077-.139-.076-.139-.073-.141-.073-.141-.07-.142-.069-.143-.066-.144-.066-.145-.063-.145-.061-.146-.06-.147-.058-.147-.056-.149-.055-.149-.052-.149-.051-.151-.049-.151-.047-.151-.045-.152-.044-.153-.041-.153-.04-.154-.038-.155-.036-.155-.034-.155-.032-.156-.03-.156-.029-.157-.026-.158-.025-.157-.022-.158-.021-.159-.019-.159-.016-.159-.015-.16-.013-.16-.011-.16-.009-.16-.007-.161-.005-.161-.003-.162-.001-.155v-.012l.001-.156.003-.161.004-.161.007-.162.008-.16.01-.161.012-.16.014-.16.016-.16.017-.159.02-.159.021-.159.023-.158.024-.158.027-.158.028-.157.03-.157.032-.156.033-.156.036-.155.037-.155.038-.154.041-.154.042-.153.044-.153.046-.152.047-.152.049-.151.051-.151.053-.15.054-.149.056-.148.057-.148.06-.148.06-.146.063-.146.064-.145.066-.145.068-.144.069-.143.053-.107-.08-.028-.117-.043-.117-.047-.115-.049-.113-.052-.113-.055-.112-.058-.11-.06-.108-.063-.107-.066-.105-.069-.104-.071-.103-.074-.1-.076-.099-.079-.097-.082-.095-.084-.094-.086-.091-.089-.089-.091-.086-.094-.084-.095-.082-.097-.079-.099-.076-.1-.074-.103-.071-.104-.069-.105-.066-.107-.063-.109-.06-.11-.058-.111-.055-.112-.052-.114-.049-.116-.047-.116-.043-.117-.041-.119-.038-.119-.035-.121-.032-.121-.029-.122-.027-.123-.023-.124-.02-.125-.017-.125-.014-.125-.011-.127-.008-.126-.005-.128-.001-.115v-.031l.002-.104.006-.121.01-.12.015-.12.018-.118.022-.118.027-.116.03-.115.034-.114.037-.112.041-.111.045-.109.049-.108.052-.106.055-.103.059-.103.062-.099.065-.098.069-.096.072-.093.075-.092.079-.088.081-.086.084-.084.088-.081.09-.078.093-.075.096-.072.098-.069.101-.066.104-.063.106-.059.108-.055.11-.052.111-.047.112-.044.113-.04.114-.036.115-.031.116-.028.117-.024.116-.02.117-.016.118-.012.117-.008.118-.004h.118l.117.003.118.008.117.012.117.015.116.019.116.024.116.027.113.031.114.035.112.039.112.042.11.047.109.051.107.054.106.058.104.062.088.056 1.23.82 1.094-2.46.05-.109.059-.12.062-.118.066-.116.068-.114.071-.112.073-.11.077-.108.079-.105.082-.104.085-.1.087-.099.089-.096.092-.094.095-.091.096-.089.099-.086.102-.084.103-.081.106-.078.107-.076.11-.072.112-.07.114-.067.115-.064.118-.061.119-.058.121-.055.122-.052.125-.048.125-.046.128-.042.128-.038.129-.035.13-.032.129-.028.131-.025.131-.021.131-.017.131-.014.132-.011.132-.007.131-.004h.132l.131.004.131.006.131.011.131.013.13.017.13.021.129.024.129.027.127.031.127.034.127.037.125.041.125.044.123.048.123.05.121.055.12.057.119.061.117.064.104.061 1.075.645 1.075-.645.104-.061.117-.064.119-.061.12-.057.121-.055.123-.05.123-.048.125-.044.125-.041.127-.037.127-.034.127-.031.129-.027.129-.024.13-.021.13-.017.131-.013.131-.011.131-.006.131-.004h.132l.131.004.132.007.132.011.131.014.131.017.131.021.131.025.13.028.129.032.129.035.128.038.128.042.125.046.125.048.122.052.121.055.119.058.118.061.115.064.114.067.112.07.11.072.107.076.106.078.103.081.102.084.099.086.096.089.095.091.092.094.089.096.087.099.085.1.082.104.079.105.077.108.073.11.071.112.068.114.066.116.062.118.059.12.05.109 1.094 2.46 1.23-.82.088-.056.104-.062.106-.058.107-.054.109-.051.11-.047.112-.042.112-.039.114-.035.113-.031.116-.027.116-.024.116-.019.117-.015.117-.012.118-.008.117-.003h.118l.118.004zm-16.301-.018-.026.001-.027.002-.026.002-.026.002-.026.004-.026.004-.027.005-.026.006-.025.006-.026.007-.026.008-.026.008-.025.009-.025.01-.024.01-.024.011-.024.012-.024.012-.022.013-.023.013-.023.014-.022.015-.021.015-.021.015-.021.017-.02.016-.02.018-.019.017-.019.019-.019.018-.018.02-.017.019-.017.021-.016.02-.016.021-.015.022-.015.022-.014.022-.014.023-.013.023-.012.024-.012.024-.017.036-1.905 4.287.597 1.325-1.667 1.885-.075.086-.074.088-.073.089-.072.089-.07.09-.07.09-.069.092-.067.092-.066.093-.066.093-.064.094-.063.095-.062.096-.061.096-.059.096-.059.098-.057.098-.057.099-.055.099-.054.1-.053.1-.051.101-.051.102-.049.102-.049.103-.047.103-.045.104-.045.104-.044.105-.042.105-.041.106-.04.106-.039.106-.037.107-.037.108-.035.108-.033.108-.033.109-.032.109-.03.11-.029.109-.027.111-.027.11-.025.111-.024.112-.023.111-.021.112-.02.112-.019.113-.018.113-.016.113-.015.113-.014.114-.012.113-.012.114-.01.115-.008.114-.007.115-.006.115-.005.115-.003.115-.002.115-.001.116.001.112.002.112.003.111.005.111.006.112.008.11.009.111.01.111.012.11.013.11.014.11.016.109.017.109.018.109.02.109.021.108.022.108.023.108.025.107.026.107.028.106.029.106.03.106.031.105.033.105.034.105.035.104.036.104.038.103.039.102.04.102.041.102.043.101.044.101.045.1.046.1.047.099.049.098.05.098.051.097.053.097.053.096.055.095.056.095.057.094.058.093.06.093.06.092.062.092.063.09.064.09.065.089.066.089.068.088.068.087.07.086.071.085.072.085.073.084.074.082.076.083.076.081.077.08.079.08.08.079.08.077.081.076.082.076.084.074.083.073.085.072.085.071.086.07.087.068.088.068.089.066.089.065.09.064.09.063.092.062.092.06.093.06.093.058.094.057.095.056.095.055.096.053.097.053.097.051.098.05.099.049.098.047.1.046.1.045.101.044.101.043.102.041.102.04.102.039.104.038.103.036.104.035.105.034.105.033.105.031.106.03.106.029.106.028.107.026.107.025.108.023.108.022.108.021.109.02.109.018.109.017.109.016.11.014.11.013.11.012.111.01.111.009.11.008.112.006.111.005.111.003.112.002.118.001h1.988l.118-.001.112-.002.111-.003.111-.005.112-.006.11-.008.111-.009.111-.01.11-.012.11-.013.11-.014.109-.016.109-.017.109-.018.109-.02.108-.021.108-.022.108-.023.107-.025.107-.026.106-.028.106-.029.106-.03.105-.031.105-.033.105-.034.104-.035.103-.036.104-.038.102-.039.102-.04.102-.041.101-.043.101-.044.1-.045.1-.046.098-.047.099-.049.098-.05.097-.051.097-.053.096-.053.095-.055.095-.056.094-.057.093-.058.093-.06.092-.06.092-.062.09-.063.09-.064.089-.065.089-.066.088-.068.087-.068.086-.07.085-.071.085-.072.084-.073.082-.074.083-.076.081-.076.08-.077.08-.079.079-.08.077-.08.076-.081.076-.082.074-.083.073-.084.072-.085.071-.085.07-.086.068-.087.068-.088.066-.089.065-.089.064-.09.063-.09.062-.092.06-.092.06-.093.058-.093.057-.094.056-.095.055-.095.053-.096.053-.097.051-.097.05-.098.049-.098.047-.099.046-.1.045-.1.044-.101.043-.101.041-.101.04-.103.039-.102.038-.103.036-.104.035-.104.034-.105.033-.104.031-.106.03-.106.029-.106.028-.106.026-.107.025-.107.023-.108.022-.108.021-.108.02-.109.018-.109.017-.109.016-.109.014-.11.013-.11.012-.11.01-.111.009-.111.008-.111.006-.111.005-.111.003-.111.002-.112.001-.112-.001-.116-.002-.115-.003-.115-.005-.115-.006-.115-.007-.115-.008-.114-.01-.115-.012-.114-.012-.113-.014-.114-.015-.113-.016-.113-.018-.113-.019-.113-.02-.112-.021-.112-.023-.111-.024-.112-.025-.111-.027-.11-.027-.111-.029-.109-.03-.11-.032-.109-.033-.109-.033-.108-.035-.108-.037-.108-.037-.107-.039-.106-.04-.106-.041-.106-.042-.105-.044-.105-.045-.104-.045-.104-.047-.103-.049-.103-.049-.102-.051-.102-.051-.101-.053-.1-.054-.1-.055-.099-.057-.099-.057-.098-.059-.097-.059-.097-.061-.097-.062-.095-.063-.095-.064-.094-.066-.093-.066-.093-.067-.092-.069-.092-.07-.09-.07-.09-.072-.089-.073-.089-.074-.088-.075-.086-1.667-1.885.597-1.325-1.905-4.287-.017-.036-.012-.024-.012-.024-.013-.023-.014-.023-.014-.022-.015-.022-.015-.022-.016-.021-.016-.02-.017-.021-.017-.019-.018-.02-.019-.018-.019-.019-.019-.017-.02-.018-.02-.016-.021-.017-.021-.015-.021-.015-.022-.015-.023-.014-.022-.013-.023-.013-.024-.012-.024-.012-.024-.011-.024-.01-.025-.01-.025-.009-.026-.008-.026-.008-.026-.007-.025-.006-.026-.006-.027-.005-.026-.004-.026-.004-.026-.002-.026-.002-.027-.002-.026-.001h-.026l-.026.001-.027.001-.026.002-.026.003-.026.004-.026.004-.026.004-.026.006-.025.006-.026.007-.025.007-.025.008-.025.009-.024.01-.025.01-.024.011-.024.011-.024.012-.023.013-.035.02-3.11 1.866-3.11-1.866-.035-.02-.023-.013-.024-.012-.024-.011-.024-.011-.025-.01-.024-.01-.025-.009-.025-.008-.025-.007-.026-.007-.025-.006-.026-.006-.026-.004-.026-.004-.026-.004-.026-.003-.026-.002-.027-.001-.026-.001h-.026z"/><path d="m26.392 13c1.045 1.809 1.608 3.875 1.608 6 0 2.917-1.159 5.715-3.222 7.778s-4.861 3.222-7.778 3.222c-.665 0-1.335 0-2 0-2.917 0-5.715-1.159-7.778-3.222s-3.222-4.861-3.222-7.778c0-2.125.563-4.191 1.608-6l1.392-1h18z" fill="#fbc546"/><path d="m5.608 13c.52-.901 1.159-1.737 1.907-2.485 2.25-2.251 5.302-3.515 8.485-3.515 3.183 0 6.235 1.264 8.485 3.515.748.748 1.387 1.584 1.907 2.485z" fill="#e59a10"/><path d="m10.102 21.005.068.01.067.013.066.019.064.023.062.027.061.031.058.036.056.039.053.043.05.047.877.877.057.056.056.054.056.053.057.052.058.052.058.05.059.05.059.049.06.049.06.047.061.047.061.046.062.045.062.045.063.043.064.043.064.042.064.041.065.041.065.039.066.039.066.038.066.037.067.037.068.035.068.035.068.034.069.032.069.033.069.031.07.03.07.03.071.029.07.027.072.027.071.026.072.026.072.024.073.024.072.022.073.022.074.021.073.02.074.019.074.018.075.017.074.016.075.016.075.014.076.014.075.013.076.012.076.01.076.01.076.009.077.008.076.008.077.006.077.005.077.004.077.004.078.002.077.002h.078.078l.077-.002.078-.002.077-.004.077-.004.077-.005.077-.006.076-.008.077-.008.076-.009.076-.01.076-.01.076-.012.075-.013.076-.014.075-.014.075-.016.074-.016.075-.017.074-.018.074-.019.073-.02.074-.021.073-.022.072-.022.073-.024.072-.024.072-.026.071-.026.072-.027.07-.027.071-.029.07-.03.07-.03.069-.031.069-.033.069-.032.068-.034.068-.035.068-.035.067-.037.066-.037.066-.038.066-.039.065-.039.065-.041.064-.041.064-.042.064-.043.063-.043.062-.045.062-.045.061-.046.061-.047.06-.047.06-.049.059-.049.059-.05.058-.05.058-.052.057-.052.056-.053.056-.054.057-.056.877-.877.05-.047.053-.043.056-.039.058-.036.061-.031.062-.027.064-.023.066-.019.067-.013.068-.01.068-.004h.068l.068.004.068.01.067.013.066.019.064.023.062.027.061.031.058.036.056.039.053.043.05.047.047.05.043.053.039.056.036.058.031.061.027.062.023.064.019.066.013.067.01.068.004.068v.068l-.004.068-.01.068-.013.067-.019.066-.023.064-.027.062-.031.061-.036.058-.039.056-.043.053-.047.05-.881.881-.071.07-.073.071-.075.07-.075.069-.076.068-.077.067-.077.066-.078.064-.079.064-.08.063-.08.062-.081.061-.082.059-.082.059-.083.058-.084.056-.084.056-.085.054-.086.054-.086.052-.087.051-.087.05-.088.049-.089.048-.089.047-.089.046-.09.044-.091.044-.091.042-.092.041-.092.041-.093.039-.093.038-.093.036-.094.036-.095.034-.095.034-.095.032-.096.031-.096.03-.096.028-.097.028-.097.026-.098.025-.098.024-.098.023-.098.022-.099.02-.099.019-.1.018-.1.017-.1.016-.1.014-.1.013-.101.012-.101.011-.101.009-.102.008-.101.007-.102.006-.102.004-.102.003-.102.002-.1.001h-.006l-.1-.001-.102-.002-.102-.003-.102-.004-.102-.006-.101-.007-.102-.008-.101-.009-.101-.011-.101-.012-.1-.013-.1-.014-.1-.016-.1-.017-.1-.018-.099-.019-.099-.02-.098-.022-.098-.023-.098-.024-.098-.025-.097-.026-.097-.028-.096-.028-.096-.03-.096-.031-.095-.032-.095-.034-.095-.034-.094-.036-.093-.036-.093-.038-.093-.039-.092-.041-.092-.041-.091-.042-.091-.044-.09-.044-.089-.046-.089-.047-.089-.048-.088-.049-.087-.05-.087-.051-.086-.052-.086-.054-.085-.054-.084-.056-.084-.056-.083-.058-.082-.059-.082-.059-.081-.061-.08-.062-.08-.063-.079-.064-.078-.064-.077-.066-.077-.067-.076-.068-.075-.069-.075-.07-.073-.071-.071-.07-.881-.881-.047-.05-.043-.053-.039-.056-.036-.058-.031-.061-.027-.062-.023-.064-.019-.066-.013-.067-.01-.068-.004-.068v-.068l.004-.068.01-.068.013-.067.019-.066.023-.064.027-.062.031-.061.036-.058.039-.056.043-.053.047-.05.05-.047.053-.043.056-.039.058-.036.061-.031.062-.027.064-.023.066-.019.067-.013.068-.01.068-.004h.068l.068.004z" fill="#593604"/><path d="m12 15.5c0-.398-.158-.779-.439-1.061-.282-.281-.663-.439-1.061-.439s-.779.158-1.061.439c-.281.282-.439.663-.439 1.061v2c0 .398.158.779.439 1.061.282.281.663.439 1.061.439s.779-.158 1.061-.439c.281-.282.439-.663.439-1.061 0-.633 0-1.367 0-2z"/><path d="m23 15.498c0-.827-.671-1.498-1.498-1.498-.001 0-.003 0-.004 0-.827 0-1.498.671-1.498 1.498v2.002c0 .398.158.779.439 1.061.282.281.663.439 1.061.439s.779-.158 1.061-.439c.281-.282.439-.663.439-1.061 0-.633 0-1.369 0-2.002z"/><path d="m7.889 8 1.111-.643h14l1.111.643.889 2h-18zm.444-1 1.29-2.901c.349-.786 1.018-1.384 1.837-1.642.82-.259 1.711-.155 2.448.288 1.1.66 2.092 1.255 2.092 1.255s.992-.595 2.092-1.255c.737-.443 1.628-.547 2.448-.288.819.258 1.488.856 1.837 1.642l1.29 2.901-.667.643h-14z" fill="#6c5935"/><path d="m24.111 8h-16.222l.444-1h15.334z" fill="#978156"/><path d="m5.985 7.656c1.314.876 2.858 1.344 4.437 1.344h11.156c1.579 0 3.123-.468 4.437-1.344.515-.342 1.072-.714 1.603-1.068.47-.314 1.075-.343 1.573-.076.498.266.809.786.809 1.351v.001c0 .832-.33 1.629-.919 2.217-.588.589-1.385.919-2.217.919-5.388 0-16.34 0-21.728 0-.832 0-1.629-.33-2.217-.919-.589-.588-.919-1.385-.919-2.217v-.001c0-.565.311-1.085.809-1.351.498-.267 1.103-.238 1.573.076.531.354 1.088.726 1.603 1.068z" fill="#4e4024"/></g></svg>