<svg clip-rule="evenodd" fill-rule="evenodd" stroke-linejoin="round" stroke-miterlimit="1.41421" viewBox="0 0 32 32" xmlns="http://www.w3.org/2000/svg" xmlns:xlink="http://www.w3.org/1999/xlink"><clipPath id="a"><path clip-rule="evenodd" d="m0 0h32v32h-32z"/></clipPath><path d="m0 0h32v32h-32z" fill="none"/><g clip-path="url(#a)"><path d="m16.206 2.001.206.004.205.007.205.009.204.011.203.015.203.016.201.019.202.022.2.024.2.027.199.029.198.032.198.034.197.036.195.039.195.041.195.044.193.046.192.048.192.05.19.053.19.055.188.058.188.059.186.062.186.064.184.066.184.069.182.07.181.073.181.075.179.077.177.079.177.081.176.084.174.085.173.087.172.09.171.091.169.094.169.095.166.097.166.1.164.101.163.103.162.105.16.107.159.108.158.111.156.112.154.115.154.116.151.118.15.119.149.121.148.123.145.125.145.127.143.128.141.13.139.131.138.133.137.135.135.137.133.138.131.139.13.142.128.142.127.145.125.145.123.148.121.148.12.151.117.152.116.153.115.154.112.156.111.158.108.159.107.16.105.162.103.163.101.164.1.166.097.166.095.169.094.169.091.171.09.172.087.173.085.174.083.176.082.177.079.178.077.178.075.181.073.181.07.182.069.184.066.184.064.186.062.186.059.188.058.188.055.19.053.19.05.192.048.192.046.194.044.194.041.194.039.196.036.197.034.198.032.198.029.199.027.2.024.2.022.202.019.201.016.203.015.204.011.203.009.205.007.205.004.206.001.2v1.012l-.001.161-.003.168-.005.166-.008.166-.009.166-.012.165-.013.165-.016.164-.018.163-.019.163-.022.163-.024.161-.025.161-.028.161-.03.16-.031.159-.034.159-.035.157-.037.157-.039.156-.041.156-.043.155-.045.154-.047.153-.048.153-.05.151-.052.151-.054.15-.056.149-.057.148-.06.147-.06.147-.063.145-.064.145-.066.143-.068.143-.069.142-.071.14-.073.14-.074.139-.076.138-.078.136-.078.136-.081.134-.082.134-.084.132-.086.132-.086.13-.089.129-.089.128-.092.127-.093.125-.094.125-.096.123-.097.122-.098.121-.1.12-.102.118-.102.117-.105.116-.105.115-.107.113-.108.113-.11.11-.11.11-.113.108-.113.107-.115.105-.115.104-.118.103-.118.102-.12.1-.121.098-.122.097-.123.096-.125.094-.125.093-.127.092-.128.089-.129.089-.13.087-.132.085-.132.084-.134.082-.134.08-.136.079-.136.078-.138.076-.139.074-.139.073-.141.071-.142.069-.142.068-.144.066-.145.064-.145.063-.147.06-.147.06-.148.057-.149.056-.15.053-.151.053-.151.05-.153.048-.153.047-.154.045-.155.043-.156.041-.156.039-.157.037-.158.035-.158.034-.159.031-.16.03-.161.028-.161.025-.161.024-.163.022-.163.019-.163.018-.164.016-.165.013-.165.012-.166.009-.166.008-.166.005-.167.003-.162.001h-6.012l-.162-.001-.167-.003-.166-.005-.166-.008-.166-.009-.165-.012-.165-.013-.164-.016-.163-.018-.163-.019-.163-.022-.161-.024-.161-.025-.161-.028-.16-.03-.159-.031-.158-.034-.158-.035-.157-.037-.156-.039-.156-.041-.155-.043-.154-.045-.153-.047-.152-.048-.152-.05-.151-.053-.15-.053-.149-.056-.148-.057-.148-.06-.146-.06-.145-.063-.145-.064-.143-.066-.143-.068-.142-.069-.141-.071-.139-.073-.139-.074-.138-.076-.136-.078-.136-.079-.134-.08-.134-.083-.132-.083-.132-.085-.13-.087-.129-.089-.128-.089-.127-.092-.125-.093-.125-.094-.123-.096-.122-.097-.121-.098-.12-.1-.118-.102-.117-.102-.116-.105-.115-.105-.113-.107-.113-.108-.11-.11-.11-.111-.108-.112-.107-.113-.105-.115-.105-.116-.102-.117-.102-.118-.1-.12-.098-.121-.097-.122-.096-.123-.094-.125-.093-.125-.091-.127-.09-.128-.089-.129-.087-.13-.085-.132-.084-.132-.082-.134-.08-.134-.079-.136-.078-.136-.076-.138-.074-.139-.073-.139-.071-.141-.069-.142-.068-.143-.066-.143-.064-.145-.063-.145-.061-.147-.059-.147-.057-.148-.056-.149-.053-.15-.053-.151-.05-.152-.048-.152-.047-.153-.045-.154-.043-.155-.041-.156-.039-.156-.037-.157-.036-.158-.033-.158-.031-.159-.03-.16-.028-.161-.025-.161-.024-.161-.022-.163-.019-.163-.018-.163-.016-.164-.013-.165-.012-.165-.009-.166-.008-.166-.005-.167-.003-.166-.001-.162v-1.012l.001-.2.004-.206.007-.205.009-.205.011-.204.015-.203.016-.203.019-.202.022-.201.024-.2.027-.2.029-.199.032-.198.034-.198.036-.197.039-.195.041-.195.044-.195.046-.193.048-.192.05-.192.053-.19.055-.19.058-.188.059-.188.062-.186.064-.186.066-.184.069-.184.07-.182.073-.181.075-.181.077-.179.079-.177.081-.177.084-.176.085-.174.087-.173.09-.172.091-.171.094-.169.095-.168.097-.167.1-.166.101-.164.103-.163.105-.162.107-.16.108-.159.111-.158.112-.156.115-.154.116-.153.117-.152.12-.15.121-.149.123-.148.125-.146.127-.144.128-.142.13-.142.131-.139.133-.138.135-.137.137-.135.138-.133.139-.131.142-.13.142-.128.144-.127.146-.125.148-.123.149-.121.15-.12.152-.117.153-.116.154-.115.156-.112.158-.111.159-.108.16-.107.162-.105.163-.103.164-.101.166-.1.167-.097.168-.095.169-.094.171-.091.172-.09.173-.087.174-.085.176-.084.176-.081.178-.079.18-.077.18-.075.181-.073.182-.07.184-.069.184-.066.186-.064.186-.062.188-.059.188-.058.19-.055.19-.053.192-.05.192-.048.193-.046.195-.044.195-.041.195-.039.197-.036.198-.034.198-.032.199-.029.2-.027.2-.024.202-.022.201-.019.203-.016.203-.015.204-.011.205-.009.205-.007.206-.004.206-.001.206.001zm-.362 4-.155.003-.154.005-.154.007-.154.008-.152.011-.153.013-.151.014-.151.016-.151.019-.15.02-.149.021-.149.024-.148.026-.147.027-.147.029-.146.031-.145.032-.145.035-.143.036-.144.038-.142.039-.142.041-.141.043-.14.045-.14.046-.139.048-.138.05-.137.051-.137.053-.136.054-.134.056-.134.058-.133.059-.133.061-.131.062-.131.064-.13.066-.129.067-.127.068-.128.07-.126.072-.125.073-.124.074-.123.076-.122.077-.122.079-.12.08-.119.082-.118.083-.118.084-.116.086-.115.087-.114.089-.113.089-.111.091-.111.093-.109.094-.109.095-.107.096-.106.098-.105.098-.104.1-.102.102-.101.102-.101.104-.098.105-.098.106-.096.107-.095.109-.094.109-.093.111-.091.111-.089.113-.089.114-.087.115-.086.117-.084.117-.083.118-.082.119-.08.12-.079.122-.077.122-.076.123-.074.124-.073.125-.072.126-.07.128-.068.127-.067.129-.066.13-.064.131-.062.131-.061.132-.059.134-.058.134-.056.135-.054.135-.053.137-.051.137-.05.138-.048.139-.046.139-.045.141-.043.141-.041.142-.039.142-.038.143-.036.144-.035.145-.032.145-.031.146-.029.147-.027.147-.026.148-.024.149-.021.149-.02.15-.019.15-.016.152-.014.151-.013.153-.011.152-.008.154-.007.154-.005.154-.003.155-.001.162v.988l.001.123.002.116.004.116.005.116.006.115.008.115.01.114.011.114.012.113.013.113.015.112.017.112.018.112.019.11.02.111.022.11.023.109.024.109.026.109.027.108.029.107.029.107.031.106.032.106.034.105.034.105.036.104.038.103.038.103.04.103.04.101.042.102.044.1.044.1.046.099.047.099.047.098.049.097.051.097.051.096.053.095.053.094.055.094.056.093.057.093.058.091.059.091.06.091.061.089.062.089.064.088.064.087.065.086.067.085.067.085.068.084.07.083.07.082.071.082.073.08.073.079.074.079.075.078.076.077.077.076.078.075.079.074.079.073.081.073.081.071.082.07.083.07.084.068.085.067.085.067.086.065.087.064.088.064.089.062.089.061.091.06.091.059.091.058.093.057.093.056.094.055.094.053.095.053.096.051.097.05.097.05.098.048.099.046.099.046.1.044.1.044.102.042.101.04.103.04.103.038.103.038.104.036.105.034.105.034.106.032.106.031.107.029.107.029.108.027.109.026.109.024.109.023.11.022.11.02.111.019.112.018.112.017.112.015.113.013.113.012.114.011.114.01.115.008.115.006.116.005.116.004.116.002.123.001h5.988l.123-.001.116-.002.116-.004.116-.005.115-.006.115-.008.114-.01.114-.011.113-.012.113-.013.112-.015.112-.017.112-.018.111-.019.11-.02.11-.022.109-.023.109-.024.109-.026.108-.027.107-.029.107-.029.106-.031.106-.032.105-.034.105-.034.104-.036.103-.038.103-.038.103-.04.102-.04.101-.042.1-.044.1-.044.099-.046.099-.047.098-.047.097-.05.097-.05.095-.051.096-.053.094-.053.094-.055.093-.056.093-.057.091-.058.091-.059.091-.06.089-.061.089-.062.088-.064.087-.064.086-.065.085-.067.085-.067.084-.069.083-.069.082-.07.081-.071.081-.073.08-.073.078-.074.078-.075.077-.076.076-.077.075-.078.074-.078.073-.08.073-.08.071-.082.07-.082.07-.083.068-.084.067-.085.067-.085.065-.086.064-.088.064-.087.062-.089.061-.089.06-.091.059-.091.058-.091.057-.093.056-.093.055-.094.054-.094.052-.096.051-.095.05-.097.05-.097.047-.098.047-.099.046-.099.044-.1.043-.1.043-.102.04-.102.04-.101.038-.104.038-.103.035-.104.035-.105.034-.105.032-.106.031-.106.029-.107.029-.107.027-.108.026-.109.024-.109.023-.109.022-.11.02-.111.019-.11.018-.112.017-.112.015-.112.013-.113.012-.113.011-.114.01-.114.008-.115.006-.115.005-.116.004-.116.002-.116.001-.123v-.988l-.001-.162-.003-.155-.005-.154-.007-.154-.008-.154-.011-.152-.013-.153-.014-.151-.016-.151-.019-.151-.02-.15-.021-.149-.024-.149-.026-.148-.027-.147-.029-.146-.031-.147-.032-.145-.035-.145-.036-.143-.038-.144-.039-.142-.041-.142-.043-.141-.045-.14-.046-.14-.048-.139-.05-.138-.051-.137-.053-.137-.054-.135-.056-.135-.058-.134-.059-.134-.061-.132-.062-.131-.064-.131-.066-.13-.067-.128-.068-.128-.07-.128-.072-.126-.073-.125-.074-.124-.076-.123-.077-.122-.079-.122-.08-.12-.082-.119-.083-.118-.084-.118-.086-.116-.087-.115-.089-.114-.089-.112-.091-.112-.093-.111-.094-.109-.095-.109-.096-.107-.098-.106-.098-.105-.1-.104-.102-.102-.102-.102-.104-.1-.105-.098-.106-.098-.107-.096-.109-.095-.109-.094-.111-.092-.111-.092-.113-.09-.114-.088-.115-.087-.117-.086-.117-.084-.118-.083-.119-.082-.12-.08-.122-.079-.122-.077-.123-.076-.124-.074-.125-.073-.126-.072-.128-.07-.127-.068-.129-.067-.13-.066-.131-.064-.131-.062-.132-.061-.134-.059-.134-.058-.135-.056-.135-.054-.137-.053-.137-.051-.138-.05-.139-.048-.139-.046-.141-.045-.141-.043-.142-.041-.142-.039-.144-.038-.143-.036-.145-.035-.145-.032-.146-.031-.147-.029-.147-.027-.148-.026-.149-.024-.149-.021-.15-.02-.151-.019-.151-.016-.151-.014-.153-.013-.152-.011-.154-.008-.154-.007-.154-.005-.155-.003-.156-.001-.156.001z"/><path d="m17.084 2.001.084.004.084.006.084.008.083.01.083.013.083.016.083.017.081.02.081.022.081.025.08.026.079.029.078.031.077.034.077.035.075.038.074.039.073.042.072.044.071.046.069.047.068.05.066.051.065.054.064.055.062.057.06.059 1.6 1.599.075.077.087.094.084.096.081.097.078.098.076.1.074.103.07.104.067.104.065.106.062.109.059.108.056.11.053.111.05.111.047.113.045.115.042.114.038.116.036.115.033.117.03.117.027.116.025.119.021.118.018.117.016.12.013.119.01.12.007.119.004.119.002.12-.002.119-.004.12-.007.119-.01.12-.013.119-.016.12-.018.117-.021.118-.025.119-.027.116-.03.117-.033.117-.036.115-.038.116-.042.114-.045.115-.047.113-.05.111-.053.111-.056.109-.059.109-.062.109-.065.106-.067.104-.07.104-.074.103-.076.1-.078.098-.081.097-.084.096-.087.094-.076.077-1.599 1.599-.06.059-.062.057-.064.055-.065.053-.066.052-.068.05-.069.047-.071.046-.072.044-.073.042-.074.039-.075.038-.077.035-.077.034-.078.031-.079.029-.08.026-.081.025-.081.022-.081.02-.083.017-.083.016-.083.013-.083.01-.084.008-.084.006-.084.004-.084.001-.084-.001-.084-.004-.084-.006-.084-.008-.083-.01-.084-.013-.082-.016-.083-.017-.081-.02-.082-.022-.08-.025-.08-.026-.079-.029-.078-.031-.077-.034-.077-.035-.075-.038-.074-.039-.073-.042-.072-.044-.071-.046-.069-.047-.068-.05-.066-.052-.066-.053-.063-.055-.062-.057-.06-.059-.059-.06-.057-.062-.055-.063-.054-.066-.051-.066-.05-.068-.047-.069-.046-.071-.044-.072-.042-.073-.039-.074-.038-.075-.035-.077-.034-.077-.031-.078-.029-.079-.026-.08-.025-.081-.022-.081-.02-.081-.017-.083-.016-.082-.013-.084-.01-.083-.008-.084-.006-.084-.004-.084-.001-.084.001-.084.004-.084.006-.084.008-.084.01-.083.013-.084.016-.082.017-.083.02-.081.022-.082.025-.08.026-.08.029-.079.031-.078.034-.077.035-.077.038-.075.039-.074.042-.073.044-.072.046-.071.047-.069.05-.068.051-.066.054-.066.055-.063.057-.062.059-.06.878-.879-.878-.879-.059-.06-.057-.062-.055-.063-.054-.066-.051-.066-.05-.068-.047-.069-.046-.071-.044-.072-.042-.073-.039-.074-.038-.075-.035-.077-.034-.077-.031-.078-.029-.079-.026-.08-.025-.08-.022-.082-.02-.081-.017-.083-.016-.082-.013-.084-.01-.083-.008-.084-.006-.084-.004-.084-.001-.084.001-.084.004-.084.006-.084.008-.084.01-.083.013-.084.016-.082.017-.083.02-.081.022-.082.025-.08.026-.08.029-.079.031-.078.034-.077.035-.077.038-.075.039-.074.042-.073.044-.072.046-.071.047-.069.05-.068.051-.066.054-.066.055-.063.057-.062.059-.06.06-.059.062-.057.063-.055.066-.053.066-.052.068-.05.069-.047.071-.046.072-.044.073-.042.074-.039.075-.038.077-.035.077-.034.078-.031.079-.029.08-.026.08-.025.082-.022.081-.02.083-.017.082-.016.084-.013.083-.01.084-.008.084-.006.084-.004.084-.001.084.001z"/><path d="m29.084 2.001.084.004.084.006.084.008.083.01.083.013.083.016.083.017.081.02.081.022.081.025.08.026.079.029.078.031.077.034.077.035.075.038.074.039.073.042.072.044.071.046.069.047.068.05.066.051.065.054.064.055.062.057.06.059.059.06.057.062.055.063.053.066.052.066.05.068.047.069.046.071.044.072.042.073.039.074.038.075.035.077.034.077.031.078.029.079.026.08.025.08.022.082.02.081.017.083.016.082.013.084.01.083.008.084.006.084.004.084.001.084-.001.084-.004.084-.006.084-.008.084-.01.083-.013.083-.016.083-.017.083-.02.081-.022.081-.025.081-.026.08-.029.079-.031.078-.034.077-.035.077-.038.075-.039.074-.042.073-.044.072-.046.071-.047.069-.05.068-.052.066-.053.065-.055.064-.057.062-.059.06-.878.879.878.879.059.06.057.062.055.064.053.065.052.066.05.068.047.069.046.071.044.072.042.073.039.074.038.075.035.077.034.077.031.078.029.079.026.08.025.081.022.081.02.081.017.083.016.083.013.083.01.083.008.084.006.084.004.084.001.084-.001.084-.004.084-.006.084-.008.084-.01.083-.013.084-.016.082-.017.083-.02.081-.022.082-.025.08-.026.08-.029.079-.031.078-.034.077-.035.077-.038.075-.039.074-.042.073-.044.072-.046.071-.047.069-.05.068-.052.066-.053.066-.055.063-.057.062-.059.06-.06.059-.062.057-.064.055-.065.054-.066.051-.068.05-.069.047-.071.046-.072.044-.073.042-.074.039-.075.038-.077.035-.077.034-.078.031-.079.029-.08.026-.081.025-.081.022-.081.02-.083.017-.083.016-.083.013-.083.01-.084.008-.084.006-.084.004-.084.001-.084-.001-.084-.004-.084-.006-.084-.008-.083-.01-.084-.013-.082-.016-.083-.017-.081-.02-.082-.022-.08-.025-.08-.026-.079-.029-.078-.031-.077-.034-.077-.035-.075-.038-.074-.039-.073-.042-.072-.044-.071-.046-.069-.047-.068-.05-.067-.052-.065-.053-.063-.055-.062-.057-.06-.059-1.599-1.599-.076-.077-.087-.094-.083-.095-.082-.097-.079-.1-.076-.1-.072-.101-.07-.104-.068-.106-.065-.106-.062-.108-.059-.109-.055-.108-.054-.112-.05-.112-.048-.113-.044-.114-.042-.114-.038-.114-.036-.117-.033-.117-.03-.116-.027-.118-.024-.118-.022-.118-.018-.119-.016-.118-.013-.119-.01-.12-.007-.119-.004-.12-.002-.119.002-.12.004-.119.007-.119.01-.12.013-.119.016-.118.018-.119.021-.118.025-.118.027-.118.03-.116.033-.117.036-.117.038-.114.042-.114.044-.114.048-.113.051-.113.053-.11.055-.11.059-.108.062-.108.064-.106.068-.106.071-.104.072-.101.076-.101.079-.099.081-.097.084-.095.087-.094.075-.077 1.6-1.599.06-.059.062-.057.063-.055.065-.053.067-.052.068-.05.069-.047.071-.046.072-.044.073-.042.074-.039.075-.038.077-.035.077-.034.078-.031.079-.029.08-.026.08-.025.082-.022.081-.02.083-.017.082-.016.084-.013.083-.01.084-.008.084-.006.084-.004.084-.001.084.001z"/><path d="m23.119 7.83.12.004.12.007.119.01.118.013.119.016.119.018.118.022.118.024.118.027.117.03.116.033.116.036.115.038.114.042.114.045.113.047.112.05.111.053.11.057.109.059.107.061.106.065.106.067.103.07.103.074.1.075.098.079.098.081.095.084.093.087.078.075 1.599 1.6.059.06.057.062.055.064.053.065.052.066.05.068.047.069.046.071.044.072.042.073.039.074.038.075.035.077.034.077.031.078.029.079.026.08.025.081.022.081.02.081.017.083.016.083.013.083.01.083.008.084.006.084.004.084.001.084-.001.084-.004.084-.006.084-.008.084-.01.083-.013.084-.016.082-.017.083-.02.081-.022.082-.025.08-.026.08-.029.079-.031.078-.034.077-.035.077-.038.075-.039.074-.042.073-.044.072-.046.071-.047.069-.05.068-.052.066-.053.066-.055.063-.057.062-.059.06-.06.059-.062.057-.064.055-.065.054-.066.051-.068.05-.069.047-.071.046-.072.044-.073.042-.074.039-.075.038-.077.035-.077.034-.078.031-.079.029-.08.026-.081.025-.081.022-.081.02-.083.017-.083.016-.083.013-.083.01-.084.008-.084.006-.084.004-.084.001-.084-.001-.084-.004-.084-.006-.084-.008-.083-.01-.084-.013-.082-.016-.083-.017-.081-.02-.082-.022-.08-.025-.08-.026-.079-.029-.078-.031-.077-.034-.077-.035-.075-.038-.074-.039-.073-.042-.072-.044-.071-.046-.069-.047-.068-.05-.067-.052-.065-.053-.063-.055-.062-.057-.06-.059-.879-.878-.879.878-.06.059-.062.057-.064.055-.065.054-.066.051-.068.05-.069.047-.071.046-.072.044-.073.042-.074.039-.075.038-.077.035-.077.034-.078.031-.079.029-.08.026-.081.025-.081.022-.081.02-.083.017-.083.016-.083.013-.083.01-.084.008-.084.006-.084.004-.084.001-.084-.001-.084-.004-.084-.006-.084-.008-.083-.01-.084-.013-.082-.016-.083-.017-.081-.02-.082-.022-.08-.025-.08-.026-.079-.029-.078-.031-.077-.034-.077-.035-.075-.038-.074-.039-.073-.042-.072-.044-.071-.046-.069-.047-.068-.05-.066-.052-.066-.053-.063-.055-.062-.057-.06-.059-.059-.06-.057-.062-.055-.063-.054-.066-.051-.066-.05-.068-.047-.069-.046-.071-.044-.072-.042-.073-.039-.074-.038-.075-.035-.077-.034-.077-.031-.078-.029-.079-.026-.08-.025-.08-.022-.082-.02-.081-.017-.083-.016-.082-.013-.084-.01-.083-.008-.084-.006-.084-.004-.084-.001-.084.001-.084.004-.084.006-.084.008-.084.01-.083.013-.084.016-.082.017-.083.02-.081.022-.082.025-.08.026-.08.029-.079.031-.078.034-.077.035-.077.038-.075.039-.074.042-.073.044-.072.046-.071.047-.069.05-.068.051-.066.054-.066.055-.063.057-.062.059-.06 1.599-1.6.078-.075.093-.087.095-.084.097-.081.099-.079.101-.076.102-.073.103-.07.105-.067.107-.065.108-.062.108-.058.11-.057.111-.053.112-.05.113-.047.114-.045.114-.042.115-.038.116-.036.116-.033.117-.03.118-.027.118-.024.118-.022.119-.018.118-.016.119-.013.119-.01.12-.007.12-.004.119-.002.119.002z"/><path d="m20.084.001.084.004.084.006.084.008.083.01.083.013.083.016.083.017.081.02.081.022.081.025.08.026.079.029.078.031.077.034.077.035.075.038.074.039.073.042.072.044.071.046.069.047.068.05.066.052.065.053.064.055.062.057.06.059.879.878.879-.878.06-.059.062-.057.063-.055.065-.053.067-.052.068-.05.069-.047.071-.046.072-.044.073-.042.074-.039.075-.038.077-.035.077-.034.078-.031.079-.029.08-.026.08-.025.082-.022.081-.02.083-.017.082-.016.084-.013.083-.01.084-.008.084-.006.084-.004.084-.001.084.001.084.004.084.006.084.008.083.01.083.013.083.016.083.017.081.02.081.022.081.025.08.026.079.029.078.031.077.034.077.035.075.038.074.039.073.042.072.044.071.046.069.047.068.05.066.051.065.054.064.055.062.057.06.059.059.06.057.062.055.063.053.066.052.066.05.068.047.069.046.071.044.072.042.073.039.074.038.075.035.077.034.077.031.078.029.079.026.08.025.08.022.082.02.081.017.083.016.082.013.084.01.083.008.084.006.084.004.084.001.084-.001.084-.004.084-.006.084-.008.084-.01.083-.013.083-.016.083-.017.083-.02.081-.022.081-.025.081-.026.08-.029.079-.031.078-.034.077-.035.077-.038.075-.039.074-.042.073-.044.072-.046.071-.047.069-.05.068-.052.066-.053.065-.055.064-.057.062-.059.06-1.599 1.6-.078.076-.093.086-.095.084-.098.081-.098.079-.1.075-.103.074-.104.07-.105.067-.106.065-.107.061-.109.059-.111.057-.11.053-.111.05-.114.048-.114.044-.114.042-.115.038-.116.036-.116.033-.117.03-.118.027-.118.024-.118.022-.119.018-.119.016-.119.013-.119.01-.119.007-.12.004-.119.002-.119-.002-.12-.004-.119-.007-.12-.01-.119-.013-.118-.016-.119-.018-.118-.022-.118-.024-.118-.027-.117-.03-.116-.033-.116-.036-.115-.038-.114-.042-.114-.045-.113-.047-.112-.05-.111-.053-.11-.057-.109-.058-.107-.062-.107-.065-.104-.067-.104-.07-.102-.073-.101-.076-.099-.079-.097-.081-.095-.084-.093-.086-.078-.076-1.599-1.6-.059-.06-.057-.062-.055-.063-.054-.066-.051-.066-.05-.068-.047-.069-.046-.071-.044-.072-.042-.073-.039-.074-.038-.075-.035-.077-.034-.077-.031-.078-.029-.079-.026-.08-.025-.08-.022-.082-.02-.081-.017-.083-.016-.082-.013-.084-.01-.083-.008-.084-.006-.084-.004-.084-.001-.084.001-.084.004-.084.006-.084.008-.084.01-.083.013-.084.016-.082.017-.083.02-.081.022-.081.025-.081.026-.08.029-.079.031-.078.034-.077.035-.077.038-.075.039-.074.042-.073.044-.072.046-.071.047-.069.05-.068.051-.066.054-.066.055-.063.057-.062.059-.06.06-.059.062-.057.063-.055.066-.053.066-.052.068-.05.069-.047.071-.046.072-.044.073-.042.074-.039.075-.038.077-.035.077-.034.078-.031.079-.029.08-.026.08-.025.082-.022.081-.02.083-.017.082-.016.084-.013.083-.01.084-.008.084-.006.084-.004.084-.001.084.001z"/><path d="m30 18c0-7.732-6.268-14-14-14-7.732 0-14 6.268-14 14v1c0 6.075 4.925 11 11 11h6c6.075 0 11-4.925 11-11 0-.332 0-.665 0-1z" fill="#fbc546"/><path d="m3 20.018h26v11.982h-26z"/><path d="m18.604 29.925c-.596-.322-1.06-.773-1.392-1.352-.332-.58-.498-1.249-.498-2.006v-.704c0-.758.166-1.426.498-2.006s.796-1.031 1.392-1.352c.597-.322 1.281-.483 2.052-.483.757 0 1.434.159 2.031.478.596.318 1.062.765 1.397 1.342.335.576.503 1.233.503 1.971v.703c0 .644-.161 1.135-.483 1.473-.321.339-.727.508-1.216.508-.302 0-.56-.057-.775-.171-.214-.114-.378-.275-.492-.482-.215.435-.644.653-1.287.653-1.012 0-1.518-.606-1.518-1.82v-.885c0-.576.118-1.025.356-1.347s.602-.482 1.091-.482c.242 0 .455.046.639.14s.32.218.407.372v-.402h1.096v2.866c0 .214.045.373.136.477.09.104.209.156.357.156.187 0 .328-.082.422-.246s.141-.431.141-.8v-.703c0-.57-.113-1.064-.337-1.483-.225-.419-.546-.743-.965-.971s-.92-.342-1.503-.342c-.879 0-1.567.252-2.067.755-.499.502-.749 1.189-.749 2.061v.714c0 .569.112 1.069.337 1.498s.548.761.97.995c.423.235.925.352 1.509.352.402 0 .764-.042 1.085-.126.322-.083.654-.212.996-.387l.442.855c-.389.228-.784.395-1.186.503-.402.107-.848.161-1.337.161-.771 0-1.455-.161-2.052-.483zm-4.615-.282h-.895v-.915c-.596-.06-1.062-.259-1.397-.598-.335-.338-.516-.796-.543-1.372h1.156c.04.328.159.563.357.704.198.14.501.211.91.211.369 0 .649-.067.84-.201s.286-.332.286-.594c0-.234-.064-.415-.191-.543-.127-.127-.335-.207-.623-.241l-.754-.1c-1.214-.161-1.82-.744-1.82-1.75 0-.516.156-.937.467-1.262.312-.325.749-.524 1.312-.598v-.784h.895v.774c.557.06.992.248 1.307.563s.493.744.533 1.287h-1.176c-.027-.282-.131-.489-.312-.623-.181-.135-.446-.202-.794-.202-.329 0-.58.066-.754.197-.174.13-.262.316-.262.558 0 .214.072.383.217.507.144.124.377.21.698.257l.785.11c1.132.161 1.699.748 1.699 1.76 0 .556-.171 1-.513 1.332s-.818.531-1.428.598zm-7.169-.603h-1.035l.271-2.051h-1.056v-.925h1.177l.151-1.106h-1.046v-.925h1.166l.252-1.931h1.035l-.251 1.931h1.126l.251-1.931h1.036l-.251 1.931h1.045v.925h-1.166l-.141 1.106h1.026v.925h-1.146l-.272 2.051h-1.046l.272-2.051h-1.126l-.272 2.051zm20.13 0h-1.317v-1.307h1.317zm-5.661-2.393v-.844c0-.597-.221-.895-.664-.895-.234 0-.407.078-.517.236-.111.157-.166.374-.166.648v.825c0 .302.053.533.161.694.107.161.281.241.522.241.443 0 .664-.302.664-.905zm5.47.081h-.935l-.242-4.626h1.418zm-18.27-1.77h-1.126l-.151 1.106h1.127z" fill="#fff" fill-rule="nonzero"/><path d="m8 13.999c0-.552.447-.999.999-.999h.001l3 3v1c0 .53-.211 1.039-.586 1.414s-.884.586-1.414.586c-1.105 0-2-.895-2-2 0-1.008 0-2.186 0-3.001z"/><path d="m20 16 3-3h.001c.552 0 .999.447.999.999v3.001c0 1.105-.895 2-2 2-.001 0-.001 0-.002 0-1.103 0-1.998-.895-1.998-1.998 0-.552 0-1.002 0-1.002z"/><g fill="#f00"><path d="m17.06 4.002.049.004.047.006.048.009.047.011.046.013.046.016.045.017.044.02.043.022.042.024.041.026.04.028.038.03.036.032.035.033 1.59 1.59.05.051.052.056.05.057.049.059.047.059.046.06.044.062.042.062.04.062.039.064.037.065.035.065.034.066.031.066.03.067.029.067.027.069.024.068.024.069.021.07.02.07.018.07.016.07.015.071.013.071.011.071.009.072.008.071.006.072.004.071.003.072.001.072-.001.072-.003.072-.004.071-.006.072-.008.071-.009.072-.011.071-.013.071-.015.071-.016.07-.018.07-.02.07-.021.07-.023.069-.025.068-.027.069-.029.067-.03.067-.031.066-.034.066-.035.065-.037.065-.039.064-.04.062-.042.062-.044.062-.046.06-.047.059-.049.059-.05.057-.052.056-.05.051-1.59 1.59-.035.033-.036.032-.038.03-.04.028-.041.026-.042.024-.043.022-.044.02-.045.017-.046.016-.046.013-.047.011-.048.009-.047.006-.049.004-.048.002-.048-.001-.048-.003-.049-.005-.047-.007-.048-.01-.046-.012-.047-.015-.045-.016-.044-.019-.044-.021-.043-.023-.041-.025-.04-.027-.039-.029-.037-.031-.036-.032-.034-.034-.032-.036-.031-.037-.029-.039-.027-.04-.025-.041-.023-.043-.021-.044-.019-.044-.016-.046-.015-.046-.012-.046-.01-.048-.007-.047-.005-.049-.003-.048-.001-.048.002-.048.004-.049.006-.047.009-.048.011-.047.013-.047.016-.045.017-.045.02-.044.022-.043.024-.042.026-.041.028-.04.03-.038.032-.036.033-.035 1.581-1.581.023-.024.018-.019.017-.019.016-.02.016-.02.015-.02.014-.02.014-.02.014-.022.013-.021.012-.021.011-.021.012-.022.01-.022.01-.022.009-.022.009-.023.008-.022.008-.023.007-.023.007-.024.006-.023.005-.024.005-.023.004-.024.004-.024.003-.024.003-.024.002-.024.001-.024.001-.024.001-.024-.001-.024-.001-.024-.001-.024-.002-.024-.003-.024-.003-.024-.004-.024-.004-.024-.005-.023-.005-.024-.006-.023-.007-.024-.007-.023-.008-.023-.008-.022-.009-.023-.009-.022-.01-.022-.011-.022-.011-.022-.011-.021-.012-.021-.013-.021-.014-.022-.014-.02-.014-.02-.015-.02-.016-.02-.016-.02-.017-.019-.018-.019-.023-.024-1.581-1.581-.033-.035-.032-.036-.03-.038-.028-.04-.026-.041-.024-.042-.022-.043-.02-.044-.017-.045-.016-.045-.013-.047-.011-.047-.009-.048-.006-.047-.004-.049-.002-.048.001-.048.003-.048.005-.049.007-.047.01-.048.012-.046.015-.046.016-.046.019-.044.021-.044.023-.043.025-.041.027-.04.029-.039.031-.037.032-.036.034-.034.036-.032.037-.031.039-.029.04-.027.041-.025.043-.023.044-.021.044-.019.045-.016.047-.015.046-.012.048-.01.047-.007.049-.005.048-.003.048-.001.048.002z"/><path d="m29.036 4.001.048.003.049.005.047.007.048.01.046.012.046.015.046.016.044.019.044.021.042.023.042.025.04.027.039.029.037.031.036.032.034.034.032.036.031.037.029.039.027.04.025.041.023.043.021.044.019.044.016.046.015.046.012.046.01.048.007.047.005.049.003.048.001.048-.002.048-.004.049-.006.047-.009.048-.011.047-.013.046-.016.046-.017.045-.02.044-.022.043-.024.042-.026.041-.028.04-.03.038-.032.036-.033.035-1.581 1.581-.023.024-.018.019-.017.019-.016.02-.016.02-.015.02-.015.02-.014.021-.013.02-.013.021-.012.022-.011.021-.012.022-.01.022-.01.022-.009.022-.009.023-.008.022-.008.024-.007.022-.007.024-.006.023-.005.023-.005.024-.004.024-.004.024-.003.024-.003.024-.002.024-.001.024-.001.024v.024.024l.001.024.001.024.002.024.003.024.003.024.004.024.004.024.005.024.005.023.006.023.007.024.007.022.008.024.008.022.009.023.009.022.01.022.01.022.012.022.011.021.012.022.013.021.013.02.014.021.015.02.015.021.016.019.016.02.017.019.018.019.023.024 1.581 1.581.033.035.032.036.03.038.028.04.026.041.024.042.022.043.02.044.017.045.016.046.013.046.011.047.009.048.006.047.004.049.002.048-.001.048-.003.048-.005.049-.007.047-.01.048-.012.046-.015.046-.016.046-.019.044-.021.044-.023.043-.025.041-.027.04-.029.039-.031.037-.032.036-.034.034-.036.032-.037.031-.039.029-.04.027-.042.025-.042.023-.044.021-.044.019-.046.016-.046.015-.046.012-.048.01-.047.007-.049.005-.048.003-.048.001-.048-.002-.049-.004-.047-.006-.048-.009-.047-.011-.047-.013-.045-.016-.045-.017-.044-.02-.043-.022-.042-.024-.041-.026-.04-.028-.038-.03-.036-.032-.035-.033-1.59-1.59-.05-.051-.052-.056-.05-.057-.049-.058-.047-.06-.046-.06-.043-.061-.043-.062-.04-.063-.039-.064-.037-.065-.035-.065-.033-.065-.032-.067-.031-.067-.028-.068-.027-.068-.024-.068-.024-.069-.021-.07-.02-.07-.018-.069-.016-.071-.015-.071-.013-.071-.011-.071-.009-.072-.008-.071-.006-.072-.004-.071-.003-.072-.001-.072.001-.072.003-.072.004-.071.006-.072.008-.071.009-.072.011-.071.013-.071.015-.071.016-.071.018-.069.02-.07.021-.07.024-.069.024-.068.027-.068.028-.068.031-.067.032-.067.033-.065.035-.065.037-.065.039-.063.04-.064.043-.062.043-.061.046-.06.047-.06.049-.058.05-.057.052-.056.05-.051 1.59-1.59.035-.033.036-.032.038-.03.04-.028.041-.026.042-.024.043-.022.044-.02.045-.017.045-.016.047-.013.047-.011.048-.009.047-.006.049-.004.048-.002z"/><path d="m23.072 9.829.072.003.071.004.072.006.071.008.072.009.071.011.071.013.071.015.07.016.071.018.069.02.07.021.069.024.068.024.068.027.068.029.067.03.066.031.066.034.066.035.064.037.064.039.062.04.063.042.061.044.06.046.059.047.059.049.057.05.056.052.051.05 1.59 1.59.033.035.032.036.03.038.028.04.026.041.024.042.022.043.02.044.017.045.016.046.013.046.011.047.009.048.006.047.004.049.002.048-.001.048-.003.048-.005.049-.007.047-.01.048-.012.046-.015.046-.016.046-.019.044-.021.044-.023.043-.025.041-.027.04-.029.039-.031.037-.032.036-.034.034-.036.032-.037.031-.039.029-.04.027-.042.025-.042.023-.044.021-.044.019-.046.016-.046.015-.046.012-.048.01-.047.007-.049.005-.048.003-.048.001-.048-.002-.049-.004-.047-.006-.048-.009-.047-.011-.047-.013-.045-.016-.045-.017-.044-.02-.043-.022-.042-.024-.041-.026-.04-.028-.038-.03-.036-.032-.035-.033-1.581-1.581-.024-.023-.019-.018-.019-.017-.02-.016-.02-.016-.02-.015-.02-.015-.021-.013-.02-.014-.021-.013-.022-.012-.021-.012-.022-.011-.022-.01-.022-.01-.022-.009-.023-.009-.022-.008-.023-.008-.023-.007-.024-.007-.023-.006-.024-.005-.023-.005-.024-.004-.024-.004-.024-.003-.024-.003-.024-.002-.024-.001-.024-.001-.024-.001-.024.001-.024.001-.024.001-.024.002-.024.003-.024.003-.024.004-.024.004-.023.005-.024.005-.023.006-.024.007-.023.007-.023.008-.022.008-.023.009-.022.009-.022.01-.022.01-.022.011-.021.012-.022.012-.02.013-.021.014-.021.013-.02.015-.02.015-.02.016-.02.016-.019.017-.019.018-.024.023-1.581 1.581-.035.033-.036.032-.038.03-.04.028-.041.026-.042.024-.043.022-.044.02-.045.017-.046.016-.046.013-.047.011-.048.009-.047.006-.049.004-.048.002-.048-.001-.048-.003-.049-.005-.047-.007-.048-.01-.046-.012-.047-.015-.045-.016-.044-.019-.044-.021-.043-.023-.041-.025-.04-.027-.039-.029-.037-.031-.036-.032-.034-.034-.032-.036-.031-.037-.029-.039-.027-.04-.025-.041-.023-.043-.021-.044-.019-.044-.016-.046-.015-.046-.012-.046-.01-.048-.007-.047-.005-.049-.003-.048-.001-.048.002-.048.004-.049.006-.047.009-.048.011-.047.013-.047.016-.045.017-.045.02-.044.022-.043.024-.042.026-.041.028-.04.03-.038.032-.036.033-.035 1.59-1.59.051-.05.056-.052.057-.05.058-.049.06-.047.06-.046.061-.044.063-.042.062-.04.064-.039.065-.037.065-.035.065-.034.067-.031.067-.031.067-.028.069-.027.068-.024.069-.024.07-.021.069-.02.071-.018.07-.016.071-.015.071-.013.071-.011.072-.009.071-.008.072-.006.071-.004.072-.003.072-.001.072.001z"/><path d="m20.06 2.002.049.004.047.006.048.009.047.011.046.013.046.016.045.017.044.02.043.022.042.024.041.026.04.028.038.03.036.032.035.033 1.581 1.581.024.023.019.018.019.017.02.016.02.016.02.015.02.015.021.013.02.014.021.013.022.012.021.012.022.011.022.01.022.01.022.009.023.009.022.008.023.008.023.007.024.007.023.006.023.005.024.005.024.004.024.004.024.003.024.003.024.002.024.001.024.001h.024.024l.024-.001.024-.001.024-.002.024-.003.024-.003.024-.004.024-.004.024-.005.023-.005.023-.006.023-.007.024-.007.023-.008.022-.008.023-.009.022-.009.022-.01.022-.011.022-.01.021-.012.022-.012.021-.013.021-.014.02-.013.02-.015.02-.015.02-.016.02-.016.019-.017.019-.018.024-.023 1.581-1.581.035-.033.036-.032.038-.03.04-.028.041-.026.042-.024.043-.022.044-.02.045-.017.045-.016.047-.013.047-.011.048-.009.047-.006.049-.004.048-.002.048.001.048.003.049.005.047.007.048.01.046.012.046.015.046.016.044.019.044.021.042.023.042.025.04.027.039.029.037.031.036.032.034.034.032.036.031.037.029.039.027.04.025.041.023.043.021.044.019.044.016.046.015.046.012.046.01.048.007.047.005.049.003.048.001.048-.002.048-.004.049-.006.047-.009.048-.011.047-.013.046-.016.046-.017.045-.02.044-.022.043-.024.042-.026.041-.028.04-.03.038-.032.036-.033.035-1.59 1.59-.051.05-.056.052-.057.05-.059.049-.059.047-.06.046-.061.044-.063.042-.062.04-.064.039-.064.037-.066.035-.066.034-.066.031-.067.03-.068.029-.068.027-.068.024-.069.024-.07.021-.069.02-.071.018-.07.016-.071.015-.071.013-.071.011-.072.009-.071.008-.072.006-.071.004-.072.003-.072.001-.072-.001-.072-.003-.071-.004-.072-.006-.071-.008-.072-.009-.071-.011-.071-.013-.071-.015-.07-.016-.071-.018-.069-.02-.07-.021-.069-.024-.068-.024-.068-.027-.068-.028-.067-.031-.066-.031-.066-.034-.065-.035-.065-.037-.064-.039-.062-.04-.063-.042-.061-.044-.06-.046-.06-.047-.058-.049-.057-.05-.056-.052-.051-.05-1.59-1.59-.033-.035-.032-.036-.03-.038-.028-.04-.026-.041-.024-.042-.022-.043-.02-.044-.017-.045-.016-.045-.013-.047-.011-.047-.009-.048-.006-.047-.004-.049-.002-.048.001-.048.003-.048.005-.049.007-.047.01-.048.012-.046.015-.046.016-.046.019-.044.021-.044.023-.043.025-.041.027-.04.029-.039.031-.037.032-.036.034-.034.036-.032.037-.031.039-.029.04-.027.041-.025.043-.023.044-.021.044-.019.045-.016.047-.015.046-.012.048-.01.047-.007.049-.005.048-.003.048-.001.048.002z"/></g></g></svg>