<svg clip-rule="evenodd" fill-rule="evenodd" stroke-linejoin="round" stroke-miterlimit="1.41421" viewBox="0 0 32 32" xmlns="http://www.w3.org/2000/svg" xmlns:xlink="http://www.w3.org/1999/xlink"><clipPath id="a"><path clip-rule="evenodd" d="m0 0h32v32h-32z"/></clipPath><path d="m0 0h32v32h-32z" fill="none"/><g clip-path="url(#a)"><path d="m27.521 4.874.099.103.097.105.097.106.095.106.094.107.092.108.092.109.09.109.089.11.087.111.087.111.085.112.084.113.082.114.081.114.08.114.079.116.078.116.076.116.075.117.073.118.073.118.071.119.07.12.069.12.016.03.063.04.071.047.07.049.07.049.068.05.067.052.066.053.066.053.064.055.064.056.062.057.062.058.06.059.06.06.059.061.057.063.056.062.055.063.055.066.053.066.052.066.051.068.05.068.049.07.048.07.046.071.045.072.044.073.044.074.041.073.04.075.04.077.038.076.036.078.036.078.034.078.033.08.031.081.03.08.029.082.027.082.026.083.025.083.023.084.022.085.02.086.019.085.017.085.016.087.014.087.013.088.012.088.009.088.009.089.006.08.004.064.006.102.003.113.002.113-.002.112-.003.111-.007.111-.009.111-.011.11-.013.11-.016.109-.019.109-.02.107-.023.107-.025.106-.028.106-.029.104-.032.104-.034.102-.036.101-.039.101-.04.1-.043.099-.044.097-.047.097-.033.065.001.079.002.182-.001.183-.003.183-.006.182-.007.182-.011.183-.012.182-.015.182-.018.182-.019.181-.023.182-.024.181-.027.181-.029.181-.032.18-.034.18-.036.18-.039.179-.041.179-.043.179-.046.178-.048.177-.051.177-.053.177-.055.176-.058.175-.06.175-.062.174-.065.174-.067.173-.07.172-.072.171-.074.17-.077.17-.079.169-.081.168-.084.168-.086.166-.089.165-.091.165-.093.163-.095.163-.099.161-.1.161-.103.159-.105.158-.107.157-.11.156-.112.155-.115.153-.117.153-.119.151-.121.149-.124.149-.127.147-.128.145-.131.144-.133.143-.136.141-.133.135-2.838 2.838-.135.133-.141.136-.143.133-.144.131-.145.128-.147.126-.149.124-.149.122-.151.119-.152.117-.154.115-.155.112-.156.11-.157.107-.158.105-.159.103-.161.1-.161.098-.162.096-.164.093-.165.091-.165.089-.166.086-.168.084-.168.081-.169.079-.169.077-.171.074-.171.072-.173.07-.172.067-.174.065-.174.062-.175.06-.175.058-.176.055-.176.053-.177.051-.178.048-.178.046-.179.043-.178.041-.18.039-.18.036-.18.034-.18.032-.181.029-.181.027-.181.024-.181.022-.182.02-.182.018-.182.015-.182.012-.183.01-.182.008-.182.006-.183.003-.182.001-.183-.002-.078-.001-.066.033-.097.047-.097.044-.099.043-.099.04-.101.038-.102.037-.102.034-.104.031-.105.03-.105.028-.106.025-.107.023-.107.02-.109.019-.109.016-.109.013-.111.011-.111.009-.111.006-.111.004-.112.002-.113-.002-.113-.003-.101-.006-.065-.004-.08-.006-.089-.009-.088-.009-.088-.012-.088-.013-.086-.014-.087-.016-.086-.017-.086-.019-.085-.021-.085-.021-.083-.023-.084-.025-.083-.026-.082-.027-.082-.029-.08-.03-.08-.032-.08-.032-.079-.035-.078-.035-.077-.036-.077-.038-.076-.04-.076-.04-.074-.042-.073-.043-.073-.044-.072-.045-.071-.047-.07-.047-.07-.049-.068-.05-.068-.051-.066-.052-.066-.053-.065-.054-.064-.056-.063-.056-.062-.058-.061-.058-.06-.06-.059-.06-.058-.062-.056-.062-.056-.064-.056-.064-.053-.066-.053-.066-.051-.067-.051-.069-.049-.069-.048-.07-.048-.071-.04-.063-.03-.017-.12-.068-.12-.07-.118-.071-.119-.073-.117-.073-.118-.075-.116-.076-.116-.078-.115-.079-.115-.08-.114-.081-.114-.082-.113-.084-.112-.085-.111-.087-.111-.087-.11-.089-.109-.09-.109-.092-.108-.092-.107-.094-.106-.095-.106-.097-.104-.097-.104-.099-.104-.1-.103-.103-.144-.145-.143-.149-.14-.149-.138-.151-.136-.153-.134-.154-.132-.155-.129-.156-.127-.158-.124-.159-.123-.16-.12-.161-.118-.163-.115-.163-.114-.165-.111-.166-.109-.167-.106-.168-.104-.169-.102-.17-.1-.171-.097-.172-.095-.173-.093-.174-.091-.175-.088-.176-.086-.176-.083-.178-.081-.178-.079-.179-.077-.179-.075-.181-.072-.181-.07-.181-.067-.183-.065-.183-.063-.184-.061-.184-.058-.184-.056-.186-.054-.186-.052-.186-.049-.187-.047-.187-.044-.188-.043-.188-.04-.188-.038-.189-.035-.189-.033-.19-.031-.19-.029-.19-.026-.19-.024-.191-.022-.191-.019-.191-.017-.191-.015-.191-.013-.192-.01-.192-.008-.191-.006-.192-.003-.192-.001-.191.001-.192.003-.192.006-.192.008-.191.01-.192.013-.191.015-.192.017-.191.019-.191.022-.191.024-.19.026-.191.029-.19.031-.19.033-.189.035-.189.038-.189.04-.189.043-.188.044-.188.047-.187.049-.187.052-.186.054-.186.056-.185.058-.185.061-.184.063-.184.065-.183.067-.183.07-.181.072-.181.075-.181.077-.179.079-.179.081-.178.083-.178.086-.176.089-.176.09-.174.093-.174.095-.173.097-.172.1-.171.102-.171.104-.169.106-.168.109-.167.111-.165.114-.165.115-.164.118-.163.12-.161.123-.16.124-.159.127-.158.129-.156.132-.155.134-.154.136-.152.138-.152.14-.149.143-.148.145-.147.147-.145.148-.143.15-.14.151-.138.152-.136.154-.134.155-.132.156-.129.158-.127.159-.124.16-.123.162-.12.162-.118.164-.116.165-.113.165-.111.167-.109.168-.106.169-.104.171-.102.171-.1.172-.097.173-.095.174-.093.174-.091.176-.088.177-.086.177-.083.178-.082.179-.079.18-.076.18-.075.181-.072.182-.07.182-.067.183-.065.184-.063.184-.061.185-.058.185-.057.186-.053.186-.052.187-.049.187-.047.188-.045.188-.042.189-.04.189-.038.189-.035.189-.033.19-.031.19-.029.191-.026.19-.024.191-.022.191-.019.191-.017.192-.015.191-.013.192-.01.191-.008.192-.006.192-.003.192-.001.191.001.192.003.192.006.192.008.191.01.192.013.191.015.191.017.191.019.191.022.191.024.19.026.19.029.19.031.19.033.189.035.189.038.188.04.188.042.188.045.187.047.187.049.187.052.185.053.186.057.184.058.185.061.183.063.183.065.183.067.181.07.182.072.18.075.179.076.179.079.178.082.178.083.176.086.176.088.175.091.174.093.173.095.172.097.171.1.17.102.169.104.168.106.167.109.166.111.165.113.163.116.163.118.161.12.16.123.159.124.158.127.156.129.156.132.153.134.131.116h.038l.681.688.1.104zm-11.659-.892-.144.003-.145.004-.144.006-.143.008-.144.01-.144.011-.144.013-.143.014-.143.017-.144.018-.143.019-.142.022-.143.023-.142.025-.142.026-.142.029-.141.03-.141.032-.141.033-.141.035-.14.037-.139.039-.14.04-.139.042-.138.044-.138.045-.138.047-.137.049-.136.051-.136.052-.136.054-.135.056-.134.057-.134.059-.133.061-.133.063-.132.064-.132.066-.13.068-.131.069-.129.071-.129.073-.128.075-.127.076-.127.078-.126.08-.125.081-.124.083-.123.085-.123.087-.122.088-.121.09-.12.092-.119.094-.118.095-.118.097-.116.099-.116.1-.115.103-.113.104-.113.105-.112.108-.111.109-.109.111-.107.112-.106.113-.104.113-.103.115-.1.116-.099.116-.097.117-.095.119-.094.119-.092.12-.09.121-.088.122-.087.123-.084.123-.084.124-.081.125-.08.126-.078.127-.076.127-.075.128-.073.129-.071.129-.069.13-.068.131-.066.132-.064.132-.063.132-.06.133-.06.135-.057.134-.056.135-.054.136-.052.136-.051.136-.049.137-.047.138-.045.138-.044.138-.042.139-.04.14-.039.139-.037.14-.035.141-.033.14-.032.142-.03.141-.028.142-.027.142-.025.142-.023.143-.022.142-.019.143-.018.144-.017.143-.014.143-.013.144-.011.144-.01.143-.008.144-.006.144-.004.145-.002.143-.001.145.001.144.002.144.004.144.006.144.008.144.01.144.011.143.013.144.014.143.017.144.018.143.019.143.022.143.023.142.025.142.027.142.028.142.03.141.032.142.033.14.035.141.037.14.039.14.04.139.042.139.044.138.045.138.047.138.049.137.051.136.052.137.054.135.056.135.057.135.06.134.06.133.063.133.064.132.066.131.068.131.069.13.071.129.073.129.075.128.076.127.078.127.08.126.081.125.083.124.085.124.087.122.088.122.09.121.092.12.094.119.095.119.097.117.099.117.1.115.103.115.104.114.106.112.107.112.11.112.073.072.074.072.075.071.075.07.076.069.076.068.077.067.077.067.078.065.078.065.079.063.079.063.079.061.08.061.081.06.081.059.081.058.082.057.082.056.083.055.083.055.084.053.084.053.084.051.085.051.085.05.085.049.086.047.086.047.087.047.087.045.733.372.302.686.007.016.008.015.008.016.007.014.008.015.009.015.009.015.008.014.009.014.01.014.01.015.009.013.011.014.01.014.011.013.011.013.01.013.012.012.011.013.012.013.012.012.012.012.012.012.013.011.013.012.012.011.013.011.014.01.013.011.014.01.013.01.014.01.015.01.014.009.014.009.015.009.014.008.015.009.015.008.015.007.015.008.016.007.016.008.015.006.015.007.017.006.016.006.016.006.016.005.016.005.017.005.016.004.017.005.017.004.017.004.017.003.018.003.017.003.018.003.017.002.018.002.018.002.028.002.024.001.035.002.023.001h.023.023l.022-.001.023-.001.022-.002.021-.002.022-.003.022-.003.021-.003.021-.004.021-.005.021-.005.021-.005.02-.006.021-.006.02-.007.02-.007.02-.008.02-.008.02-.008.019-.009.019-.01.019-.009.019-.01.019-.011.018-.011.018-.011.019-.012.017-.012.611-.436.851.051.13.006.131.005.13.003.131.001.131-.001.13-.002.131-.004.131-.006.13-.007.13-.009.131-.011.13-.012.13-.014.13-.016.129-.018.13-.019.129-.021.129-.022.129-.025.128-.026.128-.027.128-.03.127-.031.128-.032.126-.035.127-.036.126-.038.125-.039.125-.041.125-.043.124-.045.124-.046.123-.048.123-.049.122-.052.121-.052.121-.055.121-.056.119-.058.12-.06.118-.062.118-.063.117-.064.117-.067.115-.068.116-.07.114-.071.113-.074.113-.075.112-.076.111-.079.111-.08.109-.081.109-.084.108-.085.107-.087.106-.089.105-.09.105-.092.103-.094.103-.096.101-.097.105-.104 2.819-2.819.104-.105.097-.102.096-.102.094-.103.092-.105.09-.105.089-.106.087-.107.085-.108.084-.109.081-.109.081-.111.078-.111.076-.112.075-.113.074-.113.071-.115.07-.115.068-.116.067-.116.064-.117.064-.118.061-.119.06-.119.058-.119.056-.121.055-.121.053-.121.051-.123.05-.122.047-.123.046-.124.045-.124.043-.125.041-.125.04-.126.037-.125.036-.127.035-.126.033-.128.031-.127.029-.128.028-.128.025-.129.025-.128.022-.129.021-.129.019-.13.018-.13.016-.129.014-.13.012-.13.011-.131.009-.13.007-.131.006-.13.004-.131.002-.13.001-.131-.001-.131-.003-.13-.005-.131-.006-.13-.051-.851.436-.611.012-.017.012-.019.011-.018.011-.018.01-.018.011-.019.01-.02.009-.019.009-.019.008-.02.008-.02.008-.019.007-.021.007-.02.006-.021.006-.02.005-.021.005-.021.005-.021.004-.022.003-.02.003-.022.003-.022.002-.022.002-.022.001-.021.001-.024v-.022-.023l-.001-.023-.002-.035-.001-.024-.002-.028-.002-.018-.002-.018-.002-.018-.003-.017-.003-.017-.003-.017-.003-.018-.004-.018-.004-.016-.004-.016-.005-.017-.005-.017-.005-.016-.005-.016-.006-.016-.006-.017-.006-.015-.007-.016-.007-.016-.007-.015-.007-.016-.007-.015-.008-.015-.008-.015-.009-.015-.008-.014-.009-.015-.009-.015-.009-.014-.01-.014-.009-.013-.011-.014-.01-.014-.011-.014-.01-.013-.011-.012-.011-.014-.012-.013-.011-.012-.012-.012-.012-.012-.012-.012-.013-.012-.012-.011-.013-.012-.013-.011-.013-.01-.013-.011-.014-.01-.014-.011-.014-.01-.013-.009-.015-.009-.014-.01-.015-.009-.014-.008-.015-.009-.015-.008-.015-.008-.015-.007-.015-.008-.016-.007-.686-.302-.372-.733-.045-.087-.046-.087-.047-.086-.049-.086-.048-.085-.05-.085-.051-.085-.051-.084-.053-.084-.053-.084-.055-.083-.055-.083-.056-.082-.057-.082-.058-.081-.059-.081-.06-.081-.06-.08-.062-.079-.063-.079-.063-.079-.065-.078-.065-.078-.066-.077-.068-.077-.068-.076-.069-.076-.07-.075-.071-.075-.072-.074-.07-.071-.114-.112-.111-.108-.113-.105-.114-.104-.115-.103-.115-.1-.117-.099-.117-.097-.119-.095-.119-.094-.12-.092-.121-.09-.122-.088-.122-.087-.124-.085-.124-.083-.125-.081-.126-.08-.126-.078-.128-.076-.128-.075-.129-.073-.129-.071-.13-.069-.131-.068-.131-.066-.132-.064-.133-.063-.133-.061-.134-.059-.135-.057-.135-.056-.135-.054-.136-.052-.137-.051-.137-.049-.138-.047-.138-.045-.138-.044-.139-.042-.139-.04-.14-.039-.14-.037-.14-.035-.141-.033-.141-.032-.142-.03-.142-.029-.142-.026-.142-.025-.142-.023-.143-.022-.143-.019-.143-.018-.143-.017-.144-.014-.144-.013-.143-.011-.144-.01-.144-.008-.144-.006-.144-.004-.144-.003h-.144-.144z"/><path d="m9.77 28.388c-1.33-.583-2.575-1.419-3.664-2.507-5.467-5.467-5.467-14.332 0-19.799 5.468-5.467 14.332-5.467 19.799 0 1.089 1.088 1.924 2.334 2.507 3.664-.124-.032.617 5.67.994 5.404-.139 2.874-1.306 5.708-3.501 7.903-.937.937-1.891 1.891-2.828 2.828-2.195 2.195-5.029 3.362-7.903 3.501.266-.377-5.436-1.118-5.404-.994z" fill="#fbc546"/><path d="m9.77 28.388c-.032-.124-.056-.251-.071-.381-.314-2.615-.764-6.369-.764-6.369s3.27 1.963 5.363 3.218c1.035.621 1.597 1.802 1.426 2.997-.011.074-.021.149-.032.224-.069.485-.252.928-.518 1.305-1.837.088-3.691-.243-5.404-.994zm19.636-13.238c-.377.266-.82.449-1.305.518-.075.011-.15.021-.224.032-1.195.171-2.376-.391-2.997-1.426-1.255-2.093-3.217-5.363-3.217-5.363s3.753.45 6.368.764c.13.015.257.039.381.071.751 1.713 1.083 3.567.994 5.404z" fill="#e59a10"/><path d="m16.615 25.381c-2.23.462-4.538.258-6.383-.798l14.375-14.375c1.057 1.845 1.26 4.153.798 6.383-1.703-.124-8.914 7.087-8.79 8.79z" fill="#722245"/><path d="m16.615 25.381c-.124-1.703.482-3.42 1.742-4.679.77-.771 1.598-1.599 2.369-2.37 1.259-1.259 2.976-1.865 4.679-1.741-.447 2.153-1.514 4.234-3.035 5.755-1.521 1.52-3.602 2.588-5.755 3.035z" fill="#ca3b8f"/><path d="m20.955 8.203s3.754.451 6.369.765c1.432.172 2.54 1.339 2.636 2.779.001.015.002.03.003.044.104 1.566-1.016 2.948-2.569 3.17-.075.011-.15.021-.224.032-1.195.17-2.376-.392-2.997-1.427-1.255-2.092-3.218-5.363-3.218-5.363z" fill="#1bb0e6"/><path d="m8.228 20.931s.45 3.754.764 6.369c.172 1.432 1.339 2.54 2.779 2.636.015.001.03.002.045.003 1.565.104 2.947-1.016 3.169-2.569.011-.075.021-.15.032-.224.171-1.195-.391-2.376-1.426-2.997-2.093-1.255-5.363-3.218-5.363-3.218z" fill="#1bb0e6"/><g fill-rule="nonzero"><path d="m18.066 9.767s1.351-.675 2.302-1.15c.243-.122.525-.142.783-.056.257.086.471.271.592.514 0 0 0 .001.001.001.115.231.134.498.052.743-.081.245-.257.448-.488.564-1.594.797-4.819 2.409-4.819 2.409l-.423-.261s0-4.697 0-6.802c0-.553.448-1 1-1 .553 0 1 .447 1 1z"/><path d="m12.816 16.465s-1.582 3.164-2.387 4.773c-.121.243-.334.428-.592.514s-.54.066-.783-.055c0 0 0-.001-.001-.001-.231-.115-.406-.318-.488-.563s-.063-.512.053-.743c.476-.954 1.173-2.348 1.173-2.348s-2.569 0-4.038 0c-.266 0-.52-.105-.707-.293-.188-.187-.293-.442-.293-.707 0-.552.447-1 1-1h6.802z"/></g></g></svg>