<?xml version="1.0" encoding="UTF-8" standalone="no"?>
<!DOCTYPE svg PUBLIC "-//W3C//DTD SVG 1.1//EN" "http://www.w3.org/Graphics/SVG/1.1/DTD/svg11.dtd">
<svg width="100%" height="100%" viewBox="0 0 32 32" version="1.1" xmlns="http://www.w3.org/2000/svg" xmlns:xlink="http://www.w3.org/1999/xlink" xml:space="preserve" xmlns:serif="http://www.serif.com/" style="fill-rule:evenodd;clip-rule:evenodd;stroke-linejoin:round;stroke-miterlimit:1.41421;">
<metadata>
<rdf:RDF xmlns:cc="http://web.resource.org/cc/"
         xmlns:rdf="http://www.w3.org/1999/02/22-rdf-syntax-ns#"
         xmlns:dc = "http://purl.org/dc/elements/1.1/"
         >

     <rdf:Description rdf:about="">
       <dc:title>Mutant Standard emoji v0.2.4</dc:title>
     </rdf:Description>

    <cc:work rdf:about="">
        <cc:license rdf:resource="http://creativecommons.org/licenses/by-nc-sa/4.0/"/>
        <cc:attributionName>Dzuk</cc:attributionName>
        <cc:attributionURL>http://mutant.tech/</cc:attributionURL>
    </cc:work>

</rdf:RDF>
</metadata>

    <rect id="swearing" x="0" y="0" width="32" height="32" style="fill:none;"/>
    <clipPath id="_clip1">
        <rect x="0" y="0" width="32" height="32"/>
    </clipPath>
    <g clip-path="url(#_clip1)">
        <g id="outline">
            <path d="M16.206,2.001l0.206,0.004l0.205,0.007l0.205,0.009l0.204,0.011l0.203,0.015l0.203,0.016l0.201,0.019l0.202,0.022l0.2,0.024l0.2,0.027l0.199,0.029l0.198,0.032l0.198,0.034l0.197,0.036l0.195,0.039l0.195,0.041l0.195,0.044l0.193,0.046l0.192,0.048l0.192,0.05l0.19,0.053l0.19,0.055l0.188,0.058l0.188,0.059l0.186,0.062l0.186,0.064l0.184,0.066l0.184,0.069l0.182,0.07l0.181,0.073l0.181,0.075l0.179,0.077l0.177,0.079l0.177,0.081l0.176,0.084l0.174,0.085l0.173,0.087l0.172,0.09l0.171,0.091l0.169,0.094l0.169,0.095l0.166,0.097l0.166,0.1l0.164,0.101l0.163,0.103l0.162,0.105l0.16,0.107l0.159,0.108l0.158,0.111l0.156,0.112l0.154,0.115l0.154,0.116l0.151,0.118l0.15,0.119l0.149,0.121l0.148,0.123l0.145,0.125l0.145,0.127l0.143,0.128l0.141,0.13l0.139,0.131l0.138,0.133l0.137,0.135l0.135,0.137l0.133,0.138l0.131,0.139l0.13,0.142l0.128,0.142l0.127,0.145l0.125,0.145l0.123,0.148l0.121,0.148l0.12,0.151l0.117,0.152l0.116,0.153l0.115,0.154l0.112,0.156l0.111,0.158l0.108,0.159l0.107,0.16l0.105,0.162l0.103,0.163l0.101,0.164l0.1,0.166l0.097,0.166l0.095,0.169l0.094,0.169l0.091,0.171l0.09,0.172l0.087,0.173l0.085,0.174l0.083,0.176l0.082,0.177l0.079,0.178l0.077,0.178l0.075,0.181l0.073,0.181l0.07,0.182l0.069,0.184l0.066,0.184l0.064,0.186l0.062,0.186l0.059,0.188l0.058,0.188l0.055,0.19l0.053,0.19l0.05,0.192l0.048,0.192l0.046,0.194l0.044,0.194l0.041,0.194l0.039,0.196l0.036,0.197l0.034,0.198l0.032,0.198l0.029,0.199l0.027,0.2l0.024,0.2l0.022,0.202l0.019,0.201l0.016,0.203l0.015,0.204l0.011,0.203l0.009,0.205l0.007,0.205l0.004,0.206l0.001,0.2l0,1.012l-0.001,0.161l-0.003,0.168l-0.005,0.166l-0.008,0.166l-0.009,0.166l-0.012,0.165l-0.013,0.165l-0.016,0.164l-0.018,0.163l-0.019,0.163l-0.022,0.163l-0.024,0.161l-0.025,0.161l-0.028,0.161l-0.03,0.16l-0.031,0.159l-0.034,0.159l-0.035,0.157l-0.037,0.157l-0.039,0.156l-0.041,0.156l-0.043,0.155l-0.045,0.154l-0.047,0.153l-0.048,0.153l-0.05,0.151l-0.052,0.151l-0.054,0.15l-0.056,0.149l-0.057,0.148l-0.06,0.147l-0.06,0.147l-0.063,0.145l-0.064,0.145l-0.066,0.143l-0.068,0.143l-0.069,0.142l-0.071,0.14l-0.073,0.14l-0.074,0.139l-0.076,0.138l-0.078,0.136l-0.078,0.136l-0.081,0.134l-0.082,0.134l-0.084,0.132l-0.086,0.132l-0.086,0.13l-0.089,0.129l-0.089,0.128l-0.092,0.127l-0.093,0.125l-0.094,0.125l-0.096,0.123l-0.097,0.122l-0.098,0.121l-0.1,0.12l-0.102,0.118l-0.102,0.117l-0.105,0.116l-0.105,0.115l-0.107,0.113l-0.108,0.113l-0.11,0.11l-0.11,0.11l-0.113,0.108l-0.113,0.107l-0.115,0.105l-0.115,0.104l-0.118,0.103l-0.118,0.102l-0.12,0.1l-0.121,0.098l-0.122,0.097l-0.123,0.096l-0.125,0.094l-0.125,0.093l-0.127,0.092l-0.128,0.089l-0.129,0.089l-0.13,0.087l-0.132,0.085l-0.132,0.084l-0.134,0.082l-0.134,0.08l-0.136,0.079l-0.136,0.078l-0.138,0.076l-0.139,0.074l-0.139,0.073l-0.141,0.071l-0.142,0.069l-0.142,0.068l-0.144,0.066l-0.145,0.064l-0.145,0.063l-0.147,0.06l-0.147,0.06l-0.148,0.057l-0.149,0.056l-0.15,0.053l-0.151,0.053l-0.151,0.05l-0.153,0.048l-0.153,0.047l-0.154,0.045l-0.155,0.043l-0.156,0.041l-0.156,0.039l-0.157,0.037l-0.158,0.035l-0.158,0.034l-0.159,0.031l-0.16,0.03l-0.161,0.028l-0.161,0.025l-0.161,0.024l-0.163,0.022l-0.163,0.019l-0.163,0.018l-0.164,0.016l-0.165,0.013l-0.165,0.012l-0.166,0.009l-0.166,0.008l-0.166,0.005l-0.167,0.003l-0.162,0.001l-6.012,0l-0.162,-0.001l-0.167,-0.003l-0.166,-0.005l-0.166,-0.008l-0.166,-0.009l-0.165,-0.012l-0.165,-0.013l-0.164,-0.016l-0.163,-0.018l-0.163,-0.019l-0.163,-0.022l-0.161,-0.024l-0.161,-0.025l-0.161,-0.028l-0.16,-0.03l-0.159,-0.031l-0.158,-0.034l-0.158,-0.035l-0.157,-0.037l-0.156,-0.039l-0.156,-0.041l-0.155,-0.043l-0.154,-0.045l-0.153,-0.047l-0.152,-0.048l-0.152,-0.05l-0.151,-0.053l-0.15,-0.053l-0.149,-0.056l-0.148,-0.057l-0.148,-0.06l-0.146,-0.06l-0.145,-0.063l-0.145,-0.064l-0.143,-0.066l-0.143,-0.068l-0.142,-0.069l-0.141,-0.071l-0.139,-0.073l-0.139,-0.074l-0.138,-0.076l-0.136,-0.078l-0.136,-0.079l-0.134,-0.08l-0.134,-0.083l-0.132,-0.083l-0.132,-0.085l-0.13,-0.087l-0.129,-0.089l-0.128,-0.089l-0.127,-0.092l-0.125,-0.093l-0.125,-0.094l-0.123,-0.096l-0.122,-0.097l-0.121,-0.098l-0.12,-0.1l-0.118,-0.102l-0.117,-0.102l-0.116,-0.105l-0.115,-0.105l-0.113,-0.107l-0.113,-0.108l-0.11,-0.11l-0.11,-0.111l-0.108,-0.112l-0.107,-0.113l-0.105,-0.115l-0.105,-0.116l-0.102,-0.117l-0.102,-0.118l-0.1,-0.12l-0.098,-0.121l-0.097,-0.122l-0.096,-0.123l-0.094,-0.125l-0.093,-0.125l-0.091,-0.127l-0.09,-0.128l-0.089,-0.129l-0.087,-0.13l-0.085,-0.132l-0.084,-0.132l-0.082,-0.134l-0.08,-0.134l-0.079,-0.136l-0.078,-0.136l-0.076,-0.138l-0.074,-0.139l-0.073,-0.139l-0.071,-0.141l-0.069,-0.142l-0.068,-0.143l-0.066,-0.143l-0.064,-0.145l-0.063,-0.145l-0.061,-0.147l-0.059,-0.147l-0.057,-0.148l-0.056,-0.149l-0.053,-0.15l-0.053,-0.151l-0.05,-0.152l-0.048,-0.152l-0.047,-0.153l-0.045,-0.154l-0.043,-0.155l-0.041,-0.156l-0.039,-0.156l-0.037,-0.157l-0.036,-0.158l-0.033,-0.158l-0.031,-0.159l-0.03,-0.16l-0.028,-0.161l-0.025,-0.161l-0.024,-0.161l-0.022,-0.163l-0.019,-0.163l-0.018,-0.163l-0.016,-0.164l-0.013,-0.165l-0.012,-0.165l-0.009,-0.166l-0.008,-0.166l-0.005,-0.167l-0.003,-0.166l-0.001,-0.162l0,-1.012l0.001,-0.2l0.004,-0.206l0.007,-0.205l0.009,-0.205l0.011,-0.204l0.015,-0.203l0.016,-0.203l0.019,-0.202l0.022,-0.201l0.024,-0.2l0.027,-0.2l0.029,-0.199l0.032,-0.198l0.034,-0.198l0.036,-0.197l0.039,-0.195l0.041,-0.195l0.044,-0.195l0.046,-0.193l0.048,-0.192l0.05,-0.192l0.053,-0.19l0.055,-0.19l0.058,-0.188l0.059,-0.188l0.062,-0.186l0.064,-0.186l0.066,-0.184l0.069,-0.184l0.07,-0.182l0.073,-0.181l0.075,-0.181l0.077,-0.179l0.079,-0.177l0.081,-0.177l0.084,-0.176l0.085,-0.174l0.087,-0.173l0.09,-0.172l0.091,-0.171l0.094,-0.169l0.095,-0.168l0.097,-0.167l0.1,-0.166l0.101,-0.164l0.103,-0.163l0.105,-0.162l0.107,-0.16l0.108,-0.159l0.111,-0.158l0.112,-0.156l0.115,-0.154l0.116,-0.153l0.117,-0.152l0.12,-0.15l0.121,-0.149l0.123,-0.148l0.125,-0.146l0.127,-0.144l0.128,-0.142l0.13,-0.142l0.131,-0.139l0.133,-0.138l0.135,-0.137l0.137,-0.135l0.138,-0.133l0.139,-0.131l0.142,-0.13l0.142,-0.128l0.144,-0.127l0.146,-0.125l0.148,-0.123l0.149,-0.121l0.15,-0.12l0.152,-0.117l0.153,-0.116l0.154,-0.115l0.156,-0.112l0.158,-0.111l0.159,-0.108l0.16,-0.107l0.162,-0.105l0.163,-0.103l0.164,-0.101l0.166,-0.1l0.167,-0.097l0.168,-0.095l0.169,-0.094l0.171,-0.091l0.172,-0.09l0.173,-0.087l0.174,-0.085l0.176,-0.084l0.176,-0.081l0.178,-0.079l0.18,-0.077l0.18,-0.075l0.181,-0.073l0.182,-0.07l0.184,-0.069l0.184,-0.066l0.186,-0.064l0.186,-0.062l0.188,-0.059l0.188,-0.058l0.19,-0.055l0.19,-0.053l0.192,-0.05l0.192,-0.048l0.193,-0.046l0.195,-0.044l0.195,-0.041l0.195,-0.039l0.197,-0.036l0.198,-0.034l0.198,-0.032l0.199,-0.029l0.2,-0.027l0.2,-0.024l0.202,-0.022l0.201,-0.019l0.203,-0.016l0.203,-0.015l0.204,-0.011l0.205,-0.009l0.205,-0.007l0.206,-0.004l0.206,-0.001l0.206,0.001Zm-0.362,4l-0.155,0.003l-0.154,0.005l-0.154,0.007l-0.154,0.008l-0.152,0.011l-0.153,0.013l-0.151,0.014l-0.151,0.016l-0.151,0.019l-0.15,0.02l-0.149,0.021l-0.149,0.024l-0.148,0.026l-0.147,0.027l-0.147,0.029l-0.146,0.031l-0.145,0.032l-0.145,0.035l-0.143,0.036l-0.144,0.038l-0.142,0.039l-0.142,0.041l-0.141,0.043l-0.14,0.045l-0.14,0.046l-0.139,0.048l-0.138,0.05l-0.137,0.051l-0.137,0.053l-0.136,0.054l-0.134,0.056l-0.134,0.058l-0.133,0.059l-0.133,0.061l-0.131,0.062l-0.131,0.064l-0.13,0.066l-0.129,0.067l-0.127,0.068l-0.128,0.07l-0.126,0.072l-0.125,0.073l-0.124,0.074l-0.123,0.076l-0.122,0.077l-0.122,0.079l-0.12,0.08l-0.119,0.082l-0.118,0.083l-0.118,0.084l-0.116,0.086l-0.115,0.087l-0.114,0.089l-0.113,0.089l-0.111,0.091l-0.111,0.093l-0.109,0.094l-0.109,0.095l-0.107,0.096l-0.106,0.098l-0.105,0.098l-0.104,0.1l-0.102,0.102l-0.101,0.102l-0.101,0.104l-0.098,0.105l-0.098,0.106l-0.096,0.107l-0.095,0.109l-0.094,0.109l-0.093,0.111l-0.091,0.111l-0.089,0.113l-0.089,0.114l-0.087,0.115l-0.086,0.117l-0.084,0.117l-0.083,0.118l-0.082,0.119l-0.08,0.12l-0.079,0.122l-0.077,0.122l-0.076,0.123l-0.074,0.124l-0.073,0.125l-0.072,0.126l-0.07,0.128l-0.068,0.127l-0.067,0.129l-0.066,0.13l-0.064,0.131l-0.062,0.131l-0.061,0.132l-0.059,0.134l-0.058,0.134l-0.056,0.135l-0.054,0.135l-0.053,0.137l-0.051,0.137l-0.05,0.138l-0.048,0.139l-0.046,0.139l-0.045,0.141l-0.043,0.141l-0.041,0.142l-0.039,0.142l-0.038,0.143l-0.036,0.144l-0.035,0.145l-0.032,0.145l-0.031,0.146l-0.029,0.147l-0.027,0.147l-0.026,0.148l-0.024,0.149l-0.021,0.149l-0.02,0.15l-0.019,0.15l-0.016,0.152l-0.014,0.151l-0.013,0.153l-0.011,0.152l-0.008,0.154l-0.007,0.154l-0.005,0.154l-0.003,0.155l-0.001,0.162l0,0.988l0.001,0.123l0.002,0.116l0.004,0.116l0.005,0.116l0.006,0.115l0.008,0.115l0.01,0.114l0.011,0.114l0.012,0.113l0.013,0.113l0.015,0.112l0.017,0.112l0.018,0.112l0.019,0.11l0.02,0.111l0.022,0.11l0.023,0.109l0.024,0.109l0.026,0.109l0.027,0.108l0.029,0.107l0.029,0.107l0.031,0.106l0.032,0.106l0.034,0.105l0.034,0.105l0.036,0.104l0.038,0.103l0.038,0.103l0.04,0.103l0.04,0.101l0.042,0.102l0.044,0.1l0.044,0.1l0.046,0.099l0.047,0.099l0.047,0.098l0.049,0.097l0.051,0.097l0.051,0.096l0.053,0.095l0.053,0.094l0.055,0.094l0.056,0.093l0.057,0.093l0.058,0.091l0.059,0.091l0.06,0.091l0.061,0.089l0.062,0.089l0.064,0.088l0.064,0.087l0.065,0.086l0.067,0.085l0.067,0.085l0.068,0.084l0.07,0.083l0.07,0.082l0.071,0.082l0.073,0.08l0.073,0.079l0.074,0.079l0.075,0.078l0.076,0.077l0.077,0.076l0.078,0.075l0.079,0.074l0.079,0.073l0.081,0.073l0.081,0.071l0.082,0.07l0.083,0.07l0.084,0.068l0.085,0.067l0.085,0.067l0.086,0.065l0.087,0.064l0.088,0.064l0.089,0.062l0.089,0.061l0.091,0.06l0.091,0.059l0.091,0.058l0.093,0.057l0.093,0.056l0.094,0.055l0.094,0.053l0.095,0.053l0.096,0.051l0.097,0.05l0.097,0.05l0.098,0.048l0.099,0.046l0.099,0.046l0.1,0.044l0.1,0.044l0.102,0.042l0.101,0.04l0.103,0.04l0.103,0.038l0.103,0.038l0.104,0.036l0.105,0.034l0.105,0.034l0.106,0.032l0.106,0.031l0.107,0.029l0.107,0.029l0.108,0.027l0.109,0.026l0.109,0.024l0.109,0.023l0.11,0.022l0.11,0.02l0.111,0.019l0.112,0.018l0.112,0.017l0.112,0.015l0.113,0.013l0.113,0.012l0.114,0.011l0.114,0.01l0.115,0.008l0.115,0.006l0.116,0.005l0.116,0.004l0.116,0.002l0.123,0.001l5.988,0l0.123,-0.001l0.116,-0.002l0.116,-0.004l0.116,-0.005l0.115,-0.006l0.115,-0.008l0.114,-0.01l0.114,-0.011l0.113,-0.012l0.113,-0.013l0.112,-0.015l0.112,-0.017l0.112,-0.018l0.111,-0.019l0.11,-0.02l0.11,-0.022l0.109,-0.023l0.109,-0.024l0.109,-0.026l0.108,-0.027l0.107,-0.029l0.107,-0.029l0.106,-0.031l0.106,-0.032l0.105,-0.034l0.105,-0.034l0.104,-0.036l0.103,-0.038l0.103,-0.038l0.103,-0.04l0.102,-0.04l0.101,-0.042l0.1,-0.044l0.1,-0.044l0.099,-0.046l0.099,-0.047l0.098,-0.047l0.097,-0.05l0.097,-0.05l0.095,-0.051l0.096,-0.053l0.094,-0.053l0.094,-0.055l0.093,-0.056l0.093,-0.057l0.091,-0.058l0.091,-0.059l0.091,-0.06l0.089,-0.061l0.089,-0.062l0.088,-0.064l0.087,-0.064l0.086,-0.065l0.085,-0.067l0.085,-0.067l0.084,-0.069l0.083,-0.069l0.082,-0.07l0.081,-0.071l0.081,-0.073l0.08,-0.073l0.078,-0.074l0.078,-0.075l0.077,-0.076l0.076,-0.077l0.075,-0.078l0.074,-0.078l0.073,-0.08l0.073,-0.08l0.071,-0.082l0.07,-0.082l0.07,-0.083l0.068,-0.084l0.067,-0.085l0.067,-0.085l0.065,-0.086l0.064,-0.088l0.064,-0.087l0.062,-0.089l0.061,-0.089l0.06,-0.091l0.059,-0.091l0.058,-0.091l0.057,-0.093l0.056,-0.093l0.055,-0.094l0.054,-0.094l0.052,-0.096l0.051,-0.095l0.05,-0.097l0.05,-0.097l0.047,-0.098l0.047,-0.099l0.046,-0.099l0.044,-0.1l0.043,-0.1l0.043,-0.102l0.04,-0.102l0.04,-0.101l0.038,-0.104l0.038,-0.103l0.035,-0.104l0.035,-0.105l0.034,-0.105l0.032,-0.106l0.031,-0.106l0.029,-0.107l0.029,-0.107l0.027,-0.108l0.026,-0.109l0.024,-0.109l0.023,-0.109l0.022,-0.11l0.02,-0.111l0.019,-0.11l0.018,-0.112l0.017,-0.112l0.015,-0.112l0.013,-0.113l0.012,-0.113l0.011,-0.114l0.01,-0.114l0.008,-0.115l0.006,-0.115l0.005,-0.116l0.004,-0.116l0.002,-0.116l0.001,-0.123l0,-0.988l-0.001,-0.162l-0.003,-0.155l-0.005,-0.154l-0.007,-0.154l-0.008,-0.154l-0.011,-0.152l-0.013,-0.153l-0.014,-0.151l-0.016,-0.151l-0.019,-0.151l-0.02,-0.15l-0.021,-0.149l-0.024,-0.149l-0.026,-0.148l-0.027,-0.147l-0.029,-0.146l-0.031,-0.147l-0.032,-0.145l-0.035,-0.145l-0.036,-0.143l-0.038,-0.144l-0.039,-0.142l-0.041,-0.142l-0.043,-0.141l-0.045,-0.14l-0.046,-0.14l-0.048,-0.139l-0.05,-0.138l-0.051,-0.137l-0.053,-0.137l-0.054,-0.135l-0.056,-0.135l-0.058,-0.134l-0.059,-0.134l-0.061,-0.132l-0.062,-0.131l-0.064,-0.131l-0.066,-0.13l-0.067,-0.128l-0.068,-0.128l-0.07,-0.128l-0.072,-0.126l-0.073,-0.125l-0.074,-0.124l-0.076,-0.123l-0.077,-0.122l-0.079,-0.122l-0.08,-0.12l-0.082,-0.119l-0.083,-0.118l-0.084,-0.118l-0.086,-0.116l-0.087,-0.115l-0.089,-0.114l-0.089,-0.112l-0.091,-0.112l-0.093,-0.111l-0.094,-0.109l-0.095,-0.109l-0.096,-0.107l-0.098,-0.106l-0.098,-0.105l-0.1,-0.104l-0.102,-0.102l-0.102,-0.102l-0.104,-0.1l-0.105,-0.098l-0.106,-0.098l-0.107,-0.096l-0.109,-0.095l-0.109,-0.094l-0.111,-0.092l-0.111,-0.092l-0.113,-0.09l-0.114,-0.088l-0.115,-0.087l-0.117,-0.086l-0.117,-0.084l-0.118,-0.083l-0.119,-0.082l-0.12,-0.08l-0.122,-0.079l-0.122,-0.077l-0.123,-0.076l-0.124,-0.074l-0.125,-0.073l-0.126,-0.072l-0.128,-0.07l-0.127,-0.068l-0.129,-0.067l-0.13,-0.066l-0.131,-0.064l-0.131,-0.062l-0.132,-0.061l-0.134,-0.059l-0.134,-0.058l-0.135,-0.056l-0.135,-0.054l-0.137,-0.053l-0.137,-0.051l-0.138,-0.05l-0.139,-0.048l-0.139,-0.046l-0.141,-0.045l-0.141,-0.043l-0.142,-0.041l-0.142,-0.039l-0.144,-0.038l-0.143,-0.036l-0.145,-0.035l-0.145,-0.032l-0.146,-0.031l-0.147,-0.029l-0.147,-0.027l-0.148,-0.026l-0.149,-0.024l-0.149,-0.021l-0.15,-0.02l-0.151,-0.019l-0.151,-0.016l-0.151,-0.014l-0.153,-0.013l-0.152,-0.011l-0.154,-0.008l-0.154,-0.007l-0.154,-0.005l-0.155,-0.003l-0.156,-0.001l-0.156,0.001Z"/>
            <g>
                <path d="M17.084,2.001l0.084,0.004l0.084,0.006l0.084,0.008l0.083,0.01l0.083,0.013l0.083,0.016l0.083,0.017l0.081,0.02l0.081,0.022l0.081,0.025l0.08,0.026l0.079,0.029l0.078,0.031l0.077,0.034l0.077,0.035l0.075,0.038l0.074,0.039l0.073,0.042l0.072,0.044l0.071,0.046l0.069,0.047l0.068,0.05l0.066,0.051l0.065,0.054l0.064,0.055l0.062,0.057l0.06,0.059l1.6,1.599l0.075,0.077l0.087,0.094l0.084,0.096l0.081,0.097l0.078,0.098l0.076,0.1l0.074,0.103l0.07,0.104l0.067,0.104l0.065,0.106l0.062,0.109l0.059,0.108l0.056,0.11l0.053,0.111l0.05,0.111l0.047,0.113l0.045,0.115l0.042,0.114l0.038,0.116l0.036,0.115l0.033,0.117l0.03,0.117l0.027,0.116l0.025,0.119l0.021,0.118l0.018,0.117l0.016,0.12l0.013,0.119l0.01,0.12l0.007,0.119l0.004,0.119l0.002,0.12l-0.002,0.119l-0.004,0.12l-0.007,0.119l-0.01,0.12l-0.013,0.119l-0.016,0.12l-0.018,0.117l-0.021,0.118l-0.025,0.119l-0.027,0.116l-0.03,0.117l-0.033,0.117l-0.036,0.115l-0.038,0.116l-0.042,0.114l-0.045,0.115l-0.047,0.113l-0.05,0.111l-0.053,0.111l-0.056,0.109l-0.059,0.109l-0.062,0.109l-0.065,0.106l-0.067,0.104l-0.07,0.104l-0.074,0.103l-0.076,0.1l-0.078,0.098l-0.081,0.097l-0.084,0.096l-0.087,0.094l-0.076,0.077l-1.599,1.599l-0.06,0.059l-0.062,0.057l-0.064,0.055l-0.065,0.053l-0.066,0.052l-0.068,0.05l-0.069,0.047l-0.071,0.046l-0.072,0.044l-0.073,0.042l-0.074,0.039l-0.075,0.038l-0.077,0.035l-0.077,0.034l-0.078,0.031l-0.079,0.029l-0.08,0.026l-0.081,0.025l-0.081,0.022l-0.081,0.02l-0.083,0.017l-0.083,0.016l-0.083,0.013l-0.083,0.01l-0.084,0.008l-0.084,0.006l-0.084,0.004l-0.084,0.001l-0.084,-0.001l-0.084,-0.004l-0.084,-0.006l-0.084,-0.008l-0.083,-0.01l-0.084,-0.013l-0.082,-0.016l-0.083,-0.017l-0.081,-0.02l-0.082,-0.022l-0.08,-0.025l-0.08,-0.026l-0.079,-0.029l-0.078,-0.031l-0.077,-0.034l-0.077,-0.035l-0.075,-0.038l-0.074,-0.039l-0.073,-0.042l-0.072,-0.044l-0.071,-0.046l-0.069,-0.047l-0.068,-0.05l-0.066,-0.052l-0.066,-0.053l-0.063,-0.055l-0.062,-0.057l-0.06,-0.059l-0.059,-0.06l-0.057,-0.062l-0.055,-0.063l-0.054,-0.066l-0.051,-0.066l-0.05,-0.068l-0.047,-0.069l-0.046,-0.071l-0.044,-0.072l-0.042,-0.073l-0.039,-0.074l-0.038,-0.075l-0.035,-0.077l-0.034,-0.077l-0.031,-0.078l-0.029,-0.079l-0.026,-0.08l-0.025,-0.081l-0.022,-0.081l-0.02,-0.081l-0.017,-0.083l-0.016,-0.082l-0.013,-0.084l-0.01,-0.083l-0.008,-0.084l-0.006,-0.084l-0.004,-0.084l-0.001,-0.084l0.001,-0.084l0.004,-0.084l0.006,-0.084l0.008,-0.084l0.01,-0.083l0.013,-0.084l0.016,-0.082l0.017,-0.083l0.02,-0.081l0.022,-0.082l0.025,-0.08l0.026,-0.08l0.029,-0.079l0.031,-0.078l0.034,-0.077l0.035,-0.077l0.038,-0.075l0.039,-0.074l0.042,-0.073l0.044,-0.072l0.046,-0.071l0.047,-0.069l0.05,-0.068l0.051,-0.066l0.054,-0.066l0.055,-0.063l0.057,-0.062l0.059,-0.06l0.878,-0.879l-0.878,-0.879l-0.059,-0.06l-0.057,-0.062l-0.055,-0.063l-0.054,-0.066l-0.051,-0.066l-0.05,-0.068l-0.047,-0.069l-0.046,-0.071l-0.044,-0.072l-0.042,-0.073l-0.039,-0.074l-0.038,-0.075l-0.035,-0.077l-0.034,-0.077l-0.031,-0.078l-0.029,-0.079l-0.026,-0.08l-0.025,-0.08l-0.022,-0.082l-0.02,-0.081l-0.017,-0.083l-0.016,-0.082l-0.013,-0.084l-0.01,-0.083l-0.008,-0.084l-0.006,-0.084l-0.004,-0.084l-0.001,-0.084l0.001,-0.084l0.004,-0.084l0.006,-0.084l0.008,-0.084l0.01,-0.083l0.013,-0.084l0.016,-0.082l0.017,-0.083l0.02,-0.081l0.022,-0.082l0.025,-0.08l0.026,-0.08l0.029,-0.079l0.031,-0.078l0.034,-0.077l0.035,-0.077l0.038,-0.075l0.039,-0.074l0.042,-0.073l0.044,-0.072l0.046,-0.071l0.047,-0.069l0.05,-0.068l0.051,-0.066l0.054,-0.066l0.055,-0.063l0.057,-0.062l0.059,-0.06l0.06,-0.059l0.062,-0.057l0.063,-0.055l0.066,-0.053l0.066,-0.052l0.068,-0.05l0.069,-0.047l0.071,-0.046l0.072,-0.044l0.073,-0.042l0.074,-0.039l0.075,-0.038l0.077,-0.035l0.077,-0.034l0.078,-0.031l0.079,-0.029l0.08,-0.026l0.08,-0.025l0.082,-0.022l0.081,-0.02l0.083,-0.017l0.082,-0.016l0.084,-0.013l0.083,-0.01l0.084,-0.008l0.084,-0.006l0.084,-0.004l0.084,-0.001l0.084,0.001Z"/>
                <path d="M29.084,2.001l0.084,0.004l0.084,0.006l0.084,0.008l0.083,0.01l0.083,0.013l0.083,0.016l0.083,0.017l0.081,0.02l0.081,0.022l0.081,0.025l0.08,0.026l0.079,0.029l0.078,0.031l0.077,0.034l0.077,0.035l0.075,0.038l0.074,0.039l0.073,0.042l0.072,0.044l0.071,0.046l0.069,0.047l0.068,0.05l0.066,0.051l0.065,0.054l0.064,0.055l0.062,0.057l0.06,0.059l0.059,0.06l0.057,0.062l0.055,0.063l0.053,0.066l0.052,0.066l0.05,0.068l0.047,0.069l0.046,0.071l0.044,0.072l0.042,0.073l0.039,0.074l0.038,0.075l0.035,0.077l0.034,0.077l0.031,0.078l0.029,0.079l0.026,0.08l0.025,0.08l0.022,0.082l0.02,0.081l0.017,0.083l0.016,0.082l0.013,0.084l0.01,0.083l0.008,0.084l0.006,0.084l0.004,0.084l0.001,0.084l-0.001,0.084l-0.004,0.084l-0.006,0.084l-0.008,0.084l-0.01,0.083l-0.013,0.083l-0.016,0.083l-0.017,0.083l-0.02,0.081l-0.022,0.081l-0.025,0.081l-0.026,0.08l-0.029,0.079l-0.031,0.078l-0.034,0.077l-0.035,0.077l-0.038,0.075l-0.039,0.074l-0.042,0.073l-0.044,0.072l-0.046,0.071l-0.047,0.069l-0.05,0.068l-0.052,0.066l-0.053,0.065l-0.055,0.064l-0.057,0.062l-0.059,0.06l-0.878,0.879l0.878,0.879l0.059,0.06l0.057,0.062l0.055,0.064l0.053,0.065l0.052,0.066l0.05,0.068l0.047,0.069l0.046,0.071l0.044,0.072l0.042,0.073l0.039,0.074l0.038,0.075l0.035,0.077l0.034,0.077l0.031,0.078l0.029,0.079l0.026,0.08l0.025,0.081l0.022,0.081l0.02,0.081l0.017,0.083l0.016,0.083l0.013,0.083l0.01,0.083l0.008,0.084l0.006,0.084l0.004,0.084l0.001,0.084l-0.001,0.084l-0.004,0.084l-0.006,0.084l-0.008,0.084l-0.01,0.083l-0.013,0.084l-0.016,0.082l-0.017,0.083l-0.02,0.081l-0.022,0.082l-0.025,0.08l-0.026,0.08l-0.029,0.079l-0.031,0.078l-0.034,0.077l-0.035,0.077l-0.038,0.075l-0.039,0.074l-0.042,0.073l-0.044,0.072l-0.046,0.071l-0.047,0.069l-0.05,0.068l-0.052,0.066l-0.053,0.066l-0.055,0.063l-0.057,0.062l-0.059,0.06l-0.06,0.059l-0.062,0.057l-0.064,0.055l-0.065,0.054l-0.066,0.051l-0.068,0.05l-0.069,0.047l-0.071,0.046l-0.072,0.044l-0.073,0.042l-0.074,0.039l-0.075,0.038l-0.077,0.035l-0.077,0.034l-0.078,0.031l-0.079,0.029l-0.08,0.026l-0.081,0.025l-0.081,0.022l-0.081,0.02l-0.083,0.017l-0.083,0.016l-0.083,0.013l-0.083,0.01l-0.084,0.008l-0.084,0.006l-0.084,0.004l-0.084,0.001l-0.084,-0.001l-0.084,-0.004l-0.084,-0.006l-0.084,-0.008l-0.083,-0.01l-0.084,-0.013l-0.082,-0.016l-0.083,-0.017l-0.081,-0.02l-0.082,-0.022l-0.08,-0.025l-0.08,-0.026l-0.079,-0.029l-0.078,-0.031l-0.077,-0.034l-0.077,-0.035l-0.075,-0.038l-0.074,-0.039l-0.073,-0.042l-0.072,-0.044l-0.071,-0.046l-0.069,-0.047l-0.068,-0.05l-0.067,-0.052l-0.065,-0.053l-0.063,-0.055l-0.062,-0.057l-0.06,-0.059l-1.599,-1.599l-0.076,-0.077l-0.087,-0.094l-0.083,-0.095l-0.082,-0.097l-0.079,-0.1l-0.076,-0.1l-0.072,-0.101l-0.07,-0.104l-0.068,-0.106l-0.065,-0.106l-0.062,-0.108l-0.059,-0.109l-0.055,-0.108l-0.054,-0.112l-0.05,-0.112l-0.048,-0.113l-0.044,-0.114l-0.042,-0.114l-0.038,-0.114l-0.036,-0.117l-0.033,-0.117l-0.03,-0.116l-0.027,-0.118l-0.024,-0.118l-0.022,-0.118l-0.018,-0.119l-0.016,-0.118l-0.013,-0.119l-0.01,-0.12l-0.007,-0.119l-0.004,-0.12l-0.002,-0.119l0.002,-0.12l0.004,-0.119l0.007,-0.119l0.01,-0.12l0.013,-0.119l0.016,-0.118l0.018,-0.119l0.021,-0.118l0.025,-0.118l0.027,-0.118l0.03,-0.116l0.033,-0.117l0.036,-0.117l0.038,-0.114l0.042,-0.114l0.044,-0.114l0.048,-0.113l0.051,-0.113l0.053,-0.11l0.055,-0.11l0.059,-0.108l0.062,-0.108l0.064,-0.106l0.068,-0.106l0.071,-0.104l0.072,-0.101l0.076,-0.101l0.079,-0.099l0.081,-0.097l0.084,-0.095l0.087,-0.094l0.075,-0.077l1.6,-1.599l0.06,-0.059l0.062,-0.057l0.063,-0.055l0.065,-0.053l0.067,-0.052l0.068,-0.05l0.069,-0.047l0.071,-0.046l0.072,-0.044l0.073,-0.042l0.074,-0.039l0.075,-0.038l0.077,-0.035l0.077,-0.034l0.078,-0.031l0.079,-0.029l0.08,-0.026l0.08,-0.025l0.082,-0.022l0.081,-0.02l0.083,-0.017l0.082,-0.016l0.084,-0.013l0.083,-0.01l0.084,-0.008l0.084,-0.006l0.084,-0.004l0.084,-0.001l0.084,0.001Z"/>
                <path d="M23.119,7.83l0.12,0.004l0.12,0.007l0.119,0.01l0.118,0.013l0.119,0.016l0.119,0.018l0.118,0.022l0.118,0.024l0.118,0.027l0.117,0.03l0.116,0.033l0.116,0.036l0.115,0.038l0.114,0.042l0.114,0.045l0.113,0.047l0.112,0.05l0.111,0.053l0.11,0.057l0.109,0.059l0.107,0.061l0.106,0.065l0.106,0.067l0.103,0.07l0.103,0.074l0.1,0.075l0.098,0.079l0.098,0.081l0.095,0.084l0.093,0.087l0.078,0.075l1.599,1.6l0.059,0.06l0.057,0.062l0.055,0.064l0.053,0.065l0.052,0.066l0.05,0.068l0.047,0.069l0.046,0.071l0.044,0.072l0.042,0.073l0.039,0.074l0.038,0.075l0.035,0.077l0.034,0.077l0.031,0.078l0.029,0.079l0.026,0.08l0.025,0.081l0.022,0.081l0.02,0.081l0.017,0.083l0.016,0.083l0.013,0.083l0.01,0.083l0.008,0.084l0.006,0.084l0.004,0.084l0.001,0.084l-0.001,0.084l-0.004,0.084l-0.006,0.084l-0.008,0.084l-0.01,0.083l-0.013,0.084l-0.016,0.082l-0.017,0.083l-0.02,0.081l-0.022,0.082l-0.025,0.08l-0.026,0.08l-0.029,0.079l-0.031,0.078l-0.034,0.077l-0.035,0.077l-0.038,0.075l-0.039,0.074l-0.042,0.073l-0.044,0.072l-0.046,0.071l-0.047,0.069l-0.05,0.068l-0.052,0.066l-0.053,0.066l-0.055,0.063l-0.057,0.062l-0.059,0.06l-0.06,0.059l-0.062,0.057l-0.064,0.055l-0.065,0.054l-0.066,0.051l-0.068,0.05l-0.069,0.047l-0.071,0.046l-0.072,0.044l-0.073,0.042l-0.074,0.039l-0.075,0.038l-0.077,0.035l-0.077,0.034l-0.078,0.031l-0.079,0.029l-0.08,0.026l-0.081,0.025l-0.081,0.022l-0.081,0.02l-0.083,0.017l-0.083,0.016l-0.083,0.013l-0.083,0.01l-0.084,0.008l-0.084,0.006l-0.084,0.004l-0.084,0.001l-0.084,-0.001l-0.084,-0.004l-0.084,-0.006l-0.084,-0.008l-0.083,-0.01l-0.084,-0.013l-0.082,-0.016l-0.083,-0.017l-0.081,-0.02l-0.082,-0.022l-0.08,-0.025l-0.08,-0.026l-0.079,-0.029l-0.078,-0.031l-0.077,-0.034l-0.077,-0.035l-0.075,-0.038l-0.074,-0.039l-0.073,-0.042l-0.072,-0.044l-0.071,-0.046l-0.069,-0.047l-0.068,-0.05l-0.067,-0.052l-0.065,-0.053l-0.063,-0.055l-0.062,-0.057l-0.06,-0.059l-0.879,-0.878l-0.879,0.878l-0.06,0.059l-0.062,0.057l-0.064,0.055l-0.065,0.054l-0.066,0.051l-0.068,0.05l-0.069,0.047l-0.071,0.046l-0.072,0.044l-0.073,0.042l-0.074,0.039l-0.075,0.038l-0.077,0.035l-0.077,0.034l-0.078,0.031l-0.079,0.029l-0.08,0.026l-0.081,0.025l-0.081,0.022l-0.081,0.02l-0.083,0.017l-0.083,0.016l-0.083,0.013l-0.083,0.01l-0.084,0.008l-0.084,0.006l-0.084,0.004l-0.084,0.001l-0.084,-0.001l-0.084,-0.004l-0.084,-0.006l-0.084,-0.008l-0.083,-0.01l-0.084,-0.013l-0.082,-0.016l-0.083,-0.017l-0.081,-0.02l-0.082,-0.022l-0.08,-0.025l-0.08,-0.026l-0.079,-0.029l-0.078,-0.031l-0.077,-0.034l-0.077,-0.035l-0.075,-0.038l-0.074,-0.039l-0.073,-0.042l-0.072,-0.044l-0.071,-0.046l-0.069,-0.047l-0.068,-0.05l-0.066,-0.052l-0.066,-0.053l-0.063,-0.055l-0.062,-0.057l-0.06,-0.059l-0.059,-0.06l-0.057,-0.062l-0.055,-0.063l-0.054,-0.066l-0.051,-0.066l-0.05,-0.068l-0.047,-0.069l-0.046,-0.071l-0.044,-0.072l-0.042,-0.073l-0.039,-0.074l-0.038,-0.075l-0.035,-0.077l-0.034,-0.077l-0.031,-0.078l-0.029,-0.079l-0.026,-0.08l-0.025,-0.08l-0.022,-0.082l-0.02,-0.081l-0.017,-0.083l-0.016,-0.082l-0.013,-0.084l-0.01,-0.083l-0.008,-0.084l-0.006,-0.084l-0.004,-0.084l-0.001,-0.084l0.001,-0.084l0.004,-0.084l0.006,-0.084l0.008,-0.084l0.01,-0.083l0.013,-0.084l0.016,-0.082l0.017,-0.083l0.02,-0.081l0.022,-0.082l0.025,-0.08l0.026,-0.08l0.029,-0.079l0.031,-0.078l0.034,-0.077l0.035,-0.077l0.038,-0.075l0.039,-0.074l0.042,-0.073l0.044,-0.072l0.046,-0.071l0.047,-0.069l0.05,-0.068l0.051,-0.066l0.054,-0.066l0.055,-0.063l0.057,-0.062l0.059,-0.06l1.599,-1.6l0.078,-0.075l0.093,-0.087l0.095,-0.084l0.097,-0.081l0.099,-0.079l0.101,-0.076l0.102,-0.073l0.103,-0.07l0.105,-0.067l0.107,-0.065l0.108,-0.062l0.108,-0.058l0.11,-0.057l0.111,-0.053l0.112,-0.05l0.113,-0.047l0.114,-0.045l0.114,-0.042l0.115,-0.038l0.116,-0.036l0.116,-0.033l0.117,-0.03l0.118,-0.027l0.118,-0.024l0.118,-0.022l0.119,-0.018l0.118,-0.016l0.119,-0.013l0.119,-0.01l0.12,-0.007l0.12,-0.004l0.119,-0.002l0.119,0.002Z"/>
                <path d="M20.084,0.001l0.084,0.004l0.084,0.006l0.084,0.008l0.083,0.01l0.083,0.013l0.083,0.016l0.083,0.017l0.081,0.02l0.081,0.022l0.081,0.025l0.08,0.026l0.079,0.029l0.078,0.031l0.077,0.034l0.077,0.035l0.075,0.038l0.074,0.039l0.073,0.042l0.072,0.044l0.071,0.046l0.069,0.047l0.068,0.05l0.066,0.052l0.065,0.053l0.064,0.055l0.062,0.057l0.06,0.059l0.879,0.878l0.879,-0.878l0.06,-0.059l0.062,-0.057l0.063,-0.055l0.065,-0.053l0.067,-0.052l0.068,-0.05l0.069,-0.047l0.071,-0.046l0.072,-0.044l0.073,-0.042l0.074,-0.039l0.075,-0.038l0.077,-0.035l0.077,-0.034l0.078,-0.031l0.079,-0.029l0.08,-0.026l0.08,-0.025l0.082,-0.022l0.081,-0.02l0.083,-0.017l0.082,-0.016l0.084,-0.013l0.083,-0.01l0.084,-0.008l0.084,-0.006l0.084,-0.004l0.084,-0.001l0.084,0.001l0.084,0.004l0.084,0.006l0.084,0.008l0.083,0.01l0.083,0.013l0.083,0.016l0.083,0.017l0.081,0.02l0.081,0.022l0.081,0.025l0.08,0.026l0.079,0.029l0.078,0.031l0.077,0.034l0.077,0.035l0.075,0.038l0.074,0.039l0.073,0.042l0.072,0.044l0.071,0.046l0.069,0.047l0.068,0.05l0.066,0.051l0.065,0.054l0.064,0.055l0.062,0.057l0.06,0.059l0.059,0.06l0.057,0.062l0.055,0.063l0.053,0.066l0.052,0.066l0.05,0.068l0.047,0.069l0.046,0.071l0.044,0.072l0.042,0.073l0.039,0.074l0.038,0.075l0.035,0.077l0.034,0.077l0.031,0.078l0.029,0.079l0.026,0.08l0.025,0.08l0.022,0.082l0.02,0.081l0.017,0.083l0.016,0.082l0.013,0.084l0.01,0.083l0.008,0.084l0.006,0.084l0.004,0.084l0.001,0.084l-0.001,0.084l-0.004,0.084l-0.006,0.084l-0.008,0.084l-0.01,0.083l-0.013,0.083l-0.016,0.083l-0.017,0.083l-0.02,0.081l-0.022,0.081l-0.025,0.081l-0.026,0.08l-0.029,0.079l-0.031,0.078l-0.034,0.077l-0.035,0.077l-0.038,0.075l-0.039,0.074l-0.042,0.073l-0.044,0.072l-0.046,0.071l-0.047,0.069l-0.05,0.068l-0.052,0.066l-0.053,0.065l-0.055,0.064l-0.057,0.062l-0.059,0.06l-1.599,1.6l-0.078,0.076l-0.093,0.086l-0.095,0.084l-0.098,0.081l-0.098,0.079l-0.1,0.075l-0.103,0.074l-0.104,0.07l-0.105,0.067l-0.106,0.065l-0.107,0.061l-0.109,0.059l-0.111,0.057l-0.11,0.053l-0.111,0.05l-0.114,0.048l-0.114,0.044l-0.114,0.042l-0.115,0.038l-0.116,0.036l-0.116,0.033l-0.117,0.03l-0.118,0.027l-0.118,0.024l-0.118,0.022l-0.119,0.018l-0.119,0.016l-0.119,0.013l-0.119,0.01l-0.119,0.007l-0.12,0.004l-0.119,0.002l-0.119,-0.002l-0.12,-0.004l-0.119,-0.007l-0.12,-0.01l-0.119,-0.013l-0.118,-0.016l-0.119,-0.018l-0.118,-0.022l-0.118,-0.024l-0.118,-0.027l-0.117,-0.03l-0.116,-0.033l-0.116,-0.036l-0.115,-0.038l-0.114,-0.042l-0.114,-0.045l-0.113,-0.047l-0.112,-0.05l-0.111,-0.053l-0.11,-0.057l-0.109,-0.058l-0.107,-0.062l-0.107,-0.065l-0.104,-0.067l-0.104,-0.07l-0.102,-0.073l-0.101,-0.076l-0.099,-0.079l-0.097,-0.081l-0.095,-0.084l-0.093,-0.086l-0.078,-0.076l-1.599,-1.6l-0.059,-0.06l-0.057,-0.062l-0.055,-0.063l-0.054,-0.066l-0.051,-0.066l-0.05,-0.068l-0.047,-0.069l-0.046,-0.071l-0.044,-0.072l-0.042,-0.073l-0.039,-0.074l-0.038,-0.075l-0.035,-0.077l-0.034,-0.077l-0.031,-0.078l-0.029,-0.079l-0.026,-0.08l-0.025,-0.08l-0.022,-0.082l-0.02,-0.081l-0.017,-0.083l-0.016,-0.082l-0.013,-0.084l-0.01,-0.083l-0.008,-0.084l-0.006,-0.084l-0.004,-0.084l-0.001,-0.084l0.001,-0.084l0.004,-0.084l0.006,-0.084l0.008,-0.084l0.01,-0.083l0.013,-0.084l0.016,-0.082l0.017,-0.083l0.02,-0.081l0.022,-0.081l0.025,-0.081l0.026,-0.08l0.029,-0.079l0.031,-0.078l0.034,-0.077l0.035,-0.077l0.038,-0.075l0.039,-0.074l0.042,-0.073l0.044,-0.072l0.046,-0.071l0.047,-0.069l0.05,-0.068l0.051,-0.066l0.054,-0.066l0.055,-0.063l0.057,-0.062l0.059,-0.06l0.06,-0.059l0.062,-0.057l0.063,-0.055l0.066,-0.053l0.066,-0.052l0.068,-0.05l0.069,-0.047l0.071,-0.046l0.072,-0.044l0.073,-0.042l0.074,-0.039l0.075,-0.038l0.077,-0.035l0.077,-0.034l0.078,-0.031l0.079,-0.029l0.08,-0.026l0.08,-0.025l0.082,-0.022l0.081,-0.02l0.083,-0.017l0.082,-0.016l0.084,-0.013l0.083,-0.01l0.084,-0.008l0.084,-0.006l0.084,-0.004l0.084,-0.001l0.084,0.001Z"/>
            </g>
        </g>
        <g id="emoji">
            <path d="M30,18c0,-7.732 -6.268,-14 -14,-14c0,0 0,0 0,0c-7.732,0 -14,6.268 -14,14c0,0.335 0,0.668 0,1c0,6.075 4.925,11 11,11c1.972,0 4.028,0 6,0c6.075,0 11,-4.925 11,-11c0,-0.332 0,-0.665 0,-1Z" style="fill:#fbc546;"/>
            <rect x="0" y="20.018" width="32" height="11.982"/>
            <g>
                <path d="M6.622,26.937l-1.329,0l-0.137,1.28l-1.085,0l0.137,-1.28l-0.899,0l0.069,-0.753l0.908,0l0.166,-1.543l-0.908,0l0.078,-0.762l0.909,0l0.136,-1.261l1.085,0l-0.137,1.261l1.329,0l0.137,-1.261l1.084,0l-0.136,1.261l0.918,0l-0.088,0.762l-0.909,0l-0.166,1.543l0.919,0l-0.078,0.753l-0.919,0l-0.137,1.28l-1.084,0l0.137,-1.28Zm-1.251,-0.753l1.329,0l0.166,-1.543l-1.329,0l-0.166,1.543Z" style="fill:#fff;fill-rule:nonzero;"/>
                <path d="M14.018,25.188c0.489,0.169 0.853,0.382 1.094,0.64c0.241,0.257 0.362,0.597 0.362,1.021c0,0.462 -0.189,0.863 -0.567,1.202c-0.417,0.358 -1,0.563 -1.749,0.615l0,0.86l-0.821,0l0,-0.879c-0.677,-0.066 -1.227,-0.267 -1.651,-0.606c-0.449,-0.365 -0.674,-0.86 -0.674,-1.485l1.143,0c0,0.312 0.101,0.55 0.303,0.713c0.202,0.163 0.495,0.267 0.879,0.313l0,-1.896l-0.488,-0.166c-0.547,-0.182 -0.971,-0.402 -1.27,-0.66c-0.3,-0.257 -0.45,-0.617 -0.45,-1.079c0,-0.463 0.188,-0.849 0.562,-1.158c0.375,-0.309 0.923,-0.49 1.646,-0.542l0,-0.743l0.821,0l0,0.753c0.632,0.065 1.114,0.26 1.446,0.586c0.332,0.325 0.544,0.749 0.635,1.27l-1.143,0c-0.032,-0.195 -0.129,-0.37 -0.288,-0.523c-0.16,-0.153 -0.376,-0.259 -0.65,-0.317l0,1.778l0.86,0.303Zm-0.088,2.149c0.163,-0.143 0.244,-0.312 0.244,-0.508c0,-0.371 -0.234,-0.645 -0.703,-0.82l-0.313,-0.118l0,1.71c0.352,-0.032 0.609,-0.12 0.772,-0.264Zm-2.301,-3.996c-0.16,0.137 -0.239,0.297 -0.239,0.479c0,0.182 0.052,0.327 0.156,0.435c0.104,0.107 0.27,0.2 0.498,0.278l0.293,0.117l0,-1.573c-0.312,0.039 -0.548,0.127 -0.708,0.264Z" style="fill:#fff;fill-rule:nonzero;"/>
                <path d="M22.059,25.803c0,-0.202 -0.037,-0.364 -0.112,-0.488c-0.075,-0.124 -0.197,-0.186 -0.367,-0.186c-0.169,0 -0.328,0.034 -0.478,0.103c-0.15,0.068 -0.287,0.168 -0.411,0.298c-0.286,0.312 -0.43,0.684 -0.43,1.114c0,0.293 0.077,0.516 0.23,0.669c0.153,0.153 0.344,0.23 0.572,0.23c0.228,0 0.418,-0.064 0.571,-0.191c0.153,-0.127 0.295,-0.318 0.425,-0.572l0,-0.977Zm0.928,1.271c0,0.332 0.114,0.498 0.342,0.498c0.105,0 0.224,-0.034 0.357,-0.103c0.134,-0.068 0.259,-0.18 0.376,-0.337c0.28,-0.365 0.42,-0.85 0.42,-1.456c0,-0.755 -0.25,-1.364 -0.752,-1.827c-0.541,-0.495 -1.257,-0.742 -2.15,-0.742c-1.074,0 -1.954,0.332 -2.638,0.996c-0.677,0.652 -1.016,1.472 -1.016,2.462c0,0.958 0.323,1.714 0.968,2.267c0.677,0.593 1.602,0.889 2.774,0.889l0,0.948c-0.742,0 -1.415,-0.109 -2.017,-0.327c-0.603,-0.218 -1.119,-0.515 -1.549,-0.889c-0.43,-0.375 -0.76,-0.816 -0.992,-1.324c-0.231,-0.508 -0.346,-1.073 -0.346,-1.695c0,-0.622 0.12,-1.205 0.361,-1.749c0.241,-0.544 0.577,-1.01 1.006,-1.398c0.43,-0.387 0.94,-0.687 1.53,-0.898c0.589,-0.212 1.208,-0.318 1.856,-0.318c0.648,0 1.223,0.093 1.724,0.278c0.502,0.186 0.93,0.442 1.285,0.767c0.355,0.326 0.631,0.709 0.826,1.148c0.195,0.44 0.293,0.898 0.293,1.373c0,0.476 -0.068,0.888 -0.205,1.236c-0.137,0.349 -0.314,0.642 -0.533,0.88c-0.218,0.237 -0.469,0.418 -0.752,0.542c-0.283,0.124 -0.576,0.186 -0.879,0.186c-0.303,0 -0.552,-0.057 -0.748,-0.171c-0.195,-0.114 -0.322,-0.276 -0.381,-0.484l-0.058,-0.156c-0.131,0.247 -0.289,0.444 -0.474,0.591c-0.186,0.146 -0.416,0.22 -0.689,0.22c-0.274,0 -0.507,-0.046 -0.699,-0.137c-0.192,-0.091 -0.363,-0.215 -0.513,-0.372c-0.332,-0.358 -0.498,-0.794 -0.498,-1.309c0,-0.671 0.234,-1.244 0.703,-1.719c0.456,-0.469 1.007,-0.704 1.652,-0.704c0.43,0 0.773,0.129 1.03,0.386c0.258,0.257 0.386,0.646 0.386,1.168l0,1.28Z" style="fill:#fff;fill-rule:nonzero;"/>
                <path d="M26.984,22.051l1.25,0l-0.137,4.348l-0.986,0l-0.127,-4.348Zm0.048,6.361c-0.149,-0.143 -0.224,-0.326 -0.224,-0.547c0,-0.221 0.075,-0.407 0.224,-0.557c0.15,-0.15 0.342,-0.225 0.577,-0.225c0.234,0 0.43,0.075 0.586,0.225c0.157,0.15 0.235,0.336 0.235,0.557c0,0.221 -0.078,0.404 -0.235,0.547c-0.156,0.143 -0.352,0.215 -0.586,0.215c-0.235,0 -0.427,-0.072 -0.577,-0.215Z" style="fill:#fff;fill-rule:nonzero;"/>
            </g>
            <path d="M8,13.999c0,-0.552 0.447,-0.999 0.999,-0.999c0.001,0 0.001,0 0.001,0l3,3c0,0 0,0.449 0,1c0,0.53 -0.211,1.039 -0.586,1.414c-0.375,0.375 -0.884,0.586 -1.414,0.586c-1.105,0 -2,-0.895 -2,-2c0,-1.008 0,-2.186 0,-3.001Z"/>
            <path d="M20,16l3,-3c0,0 0,0 0.001,0c0.552,0 0.999,0.447 0.999,0.999c0,0.815 0,1.993 0,3.001c0,1.105 -0.895,2 -2,2c-0.001,0 -0.001,0 -0.002,0c-1.103,0 -1.998,-0.895 -1.998,-1.998c0,-0.552 0,-1.002 0,-1.002Z"/>
            <g>
                <path d="M17.06,4.002l0.049,0.004l0.047,0.006l0.048,0.009l0.047,0.011l0.046,0.013l0.046,0.016l0.045,0.017l0.044,0.02l0.043,0.022l0.042,0.024l0.041,0.026l0.04,0.028l0.038,0.03l0.036,0.032l0.035,0.033l1.59,1.59l0.05,0.051l0.052,0.056l0.05,0.057l0.049,0.059l0.047,0.059l0.046,0.06l0.044,0.062l0.042,0.062l0.04,0.062l0.039,0.064l0.037,0.065l0.035,0.065l0.034,0.066l0.031,0.066l0.03,0.067l0.029,0.067l0.027,0.069l0.024,0.068l0.024,0.069l0.021,0.07l0.02,0.07l0.018,0.07l0.016,0.07l0.015,0.071l0.013,0.071l0.011,0.071l0.009,0.072l0.008,0.071l0.006,0.072l0.004,0.071l0.003,0.072l0.001,0.072l-0.001,0.072l-0.003,0.072l-0.004,0.071l-0.006,0.072l-0.008,0.071l-0.009,0.072l-0.011,0.071l-0.013,0.071l-0.015,0.071l-0.016,0.07l-0.018,0.07l-0.02,0.07l-0.021,0.07l-0.023,0.069l-0.025,0.068l-0.027,0.069l-0.029,0.067l-0.03,0.067l-0.031,0.066l-0.034,0.066l-0.035,0.065l-0.037,0.065l-0.039,0.064l-0.04,0.062l-0.042,0.062l-0.044,0.062l-0.046,0.06l-0.047,0.059l-0.049,0.059l-0.05,0.057l-0.052,0.056l-0.05,0.051l-1.59,1.59l-0.035,0.033l-0.036,0.032l-0.038,0.03l-0.04,0.028l-0.041,0.026l-0.042,0.024l-0.043,0.022l-0.044,0.02l-0.045,0.017l-0.046,0.016l-0.046,0.013l-0.047,0.011l-0.048,0.009l-0.047,0.006l-0.049,0.004l-0.048,0.002l-0.048,-0.001l-0.048,-0.003l-0.049,-0.005l-0.047,-0.007l-0.048,-0.01l-0.046,-0.012l-0.047,-0.015l-0.045,-0.016l-0.044,-0.019l-0.044,-0.021l-0.043,-0.023l-0.041,-0.025l-0.04,-0.027l-0.039,-0.029l-0.037,-0.031l-0.036,-0.032l-0.034,-0.034l-0.032,-0.036l-0.031,-0.037l-0.029,-0.039l-0.027,-0.04l-0.025,-0.041l-0.023,-0.043l-0.021,-0.044l-0.019,-0.044l-0.016,-0.046l-0.015,-0.046l-0.012,-0.046l-0.01,-0.048l-0.007,-0.047l-0.005,-0.049l-0.003,-0.048l-0.001,-0.048l0.002,-0.048l0.004,-0.049l0.006,-0.047l0.009,-0.048l0.011,-0.047l0.013,-0.047l0.016,-0.045l0.017,-0.045l0.02,-0.044l0.022,-0.043l0.024,-0.042l0.026,-0.041l0.028,-0.04l0.03,-0.038l0.032,-0.036l0.033,-0.035l1.581,-1.581l0.023,-0.024l0.018,-0.019l0.017,-0.019l0.016,-0.02l0.016,-0.02l0.015,-0.02l0.014,-0.02l0.014,-0.02l0.014,-0.022l0.013,-0.021l0.012,-0.021l0.011,-0.021l0.012,-0.022l0.01,-0.022l0.01,-0.022l0.009,-0.022l0.009,-0.023l0.008,-0.022l0.008,-0.023l0.007,-0.023l0.007,-0.024l0.006,-0.023l0.005,-0.024l0.005,-0.023l0.004,-0.024l0.004,-0.024l0.003,-0.024l0.003,-0.024l0.002,-0.024l0.001,-0.024l0.001,-0.024l0.001,-0.024l-0.001,-0.024l-0.001,-0.024l-0.001,-0.024l-0.002,-0.024l-0.003,-0.024l-0.003,-0.024l-0.004,-0.024l-0.004,-0.024l-0.005,-0.023l-0.005,-0.024l-0.006,-0.023l-0.007,-0.024l-0.007,-0.023l-0.008,-0.023l-0.008,-0.022l-0.009,-0.023l-0.009,-0.022l-0.01,-0.022l-0.011,-0.022l-0.011,-0.022l-0.011,-0.021l-0.012,-0.021l-0.013,-0.021l-0.014,-0.022l-0.014,-0.02l-0.014,-0.02l-0.015,-0.02l-0.016,-0.02l-0.016,-0.02l-0.017,-0.019l-0.018,-0.019l-0.023,-0.024l-1.581,-1.581l-0.033,-0.035l-0.032,-0.036l-0.03,-0.038l-0.028,-0.04l-0.026,-0.041l-0.024,-0.042l-0.022,-0.043l-0.02,-0.044l-0.017,-0.045l-0.016,-0.045l-0.013,-0.047l-0.011,-0.047l-0.009,-0.048l-0.006,-0.047l-0.004,-0.049l-0.002,-0.048l0.001,-0.048l0.003,-0.048l0.005,-0.049l0.007,-0.047l0.01,-0.048l0.012,-0.046l0.015,-0.046l0.016,-0.046l0.019,-0.044l0.021,-0.044l0.023,-0.043l0.025,-0.041l0.027,-0.04l0.029,-0.039l0.031,-0.037l0.032,-0.036l0.034,-0.034l0.036,-0.032l0.037,-0.031l0.039,-0.029l0.04,-0.027l0.041,-0.025l0.043,-0.023l0.044,-0.021l0.044,-0.019l0.045,-0.016l0.047,-0.015l0.046,-0.012l0.048,-0.01l0.047,-0.007l0.049,-0.005l0.048,-0.003l0.048,-0.001l0.048,0.002Z" style="fill:#f00;"/>
                <path d="M29.036,4.001l0.048,0.003l0.049,0.005l0.047,0.007l0.048,0.01l0.046,0.012l0.046,0.015l0.046,0.016l0.044,0.019l0.044,0.021l0.042,0.023l0.042,0.025l0.04,0.027l0.039,0.029l0.037,0.031l0.036,0.032l0.034,0.034l0.032,0.036l0.031,0.037l0.029,0.039l0.027,0.04l0.025,0.041l0.023,0.043l0.021,0.044l0.019,0.044l0.016,0.046l0.015,0.046l0.012,0.046l0.01,0.048l0.007,0.047l0.005,0.049l0.003,0.048l0.001,0.048l-0.002,0.048l-0.004,0.049l-0.006,0.047l-0.009,0.048l-0.011,0.047l-0.013,0.046l-0.016,0.046l-0.017,0.045l-0.02,0.044l-0.022,0.043l-0.024,0.042l-0.026,0.041l-0.028,0.04l-0.03,0.038l-0.032,0.036l-0.033,0.035l-1.581,1.581l-0.023,0.024l-0.018,0.019l-0.017,0.019l-0.016,0.02l-0.016,0.02l-0.015,0.02l-0.015,0.02l-0.014,0.021l-0.013,0.02l-0.013,0.021l-0.012,0.022l-0.011,0.021l-0.012,0.022l-0.01,0.022l-0.01,0.022l-0.009,0.022l-0.009,0.023l-0.008,0.022l-0.008,0.024l-0.007,0.022l-0.007,0.024l-0.006,0.023l-0.005,0.023l-0.005,0.024l-0.004,0.024l-0.004,0.024l-0.003,0.024l-0.003,0.024l-0.002,0.024l-0.001,0.024l-0.001,0.024l0,0.024l0,0.024l0.001,0.024l0.001,0.024l0.002,0.024l0.003,0.024l0.003,0.024l0.004,0.024l0.004,0.024l0.005,0.024l0.005,0.023l0.006,0.023l0.007,0.024l0.007,0.022l0.008,0.024l0.008,0.022l0.009,0.023l0.009,0.022l0.01,0.022l0.01,0.022l0.012,0.022l0.011,0.021l0.012,0.022l0.013,0.021l0.013,0.02l0.014,0.021l0.015,0.02l0.015,0.021l0.016,0.019l0.016,0.02l0.017,0.019l0.018,0.019l0.023,0.024l1.581,1.581l0.033,0.035l0.032,0.036l0.03,0.038l0.028,0.04l0.026,0.041l0.024,0.042l0.022,0.043l0.02,0.044l0.017,0.045l0.016,0.046l0.013,0.046l0.011,0.047l0.009,0.048l0.006,0.047l0.004,0.049l0.002,0.048l-0.001,0.048l-0.003,0.048l-0.005,0.049l-0.007,0.047l-0.01,0.048l-0.012,0.046l-0.015,0.046l-0.016,0.046l-0.019,0.044l-0.021,0.044l-0.023,0.043l-0.025,0.041l-0.027,0.04l-0.029,0.039l-0.031,0.037l-0.032,0.036l-0.034,0.034l-0.036,0.032l-0.037,0.031l-0.039,0.029l-0.04,0.027l-0.042,0.025l-0.042,0.023l-0.044,0.021l-0.044,0.019l-0.046,0.016l-0.046,0.015l-0.046,0.012l-0.048,0.01l-0.047,0.007l-0.049,0.005l-0.048,0.003l-0.048,0.001l-0.048,-0.002l-0.049,-0.004l-0.047,-0.006l-0.048,-0.009l-0.047,-0.011l-0.047,-0.013l-0.045,-0.016l-0.045,-0.017l-0.044,-0.02l-0.043,-0.022l-0.042,-0.024l-0.041,-0.026l-0.04,-0.028l-0.038,-0.03l-0.036,-0.032l-0.035,-0.033l-1.59,-1.59l-0.05,-0.051l-0.052,-0.056l-0.05,-0.057l-0.049,-0.058l-0.047,-0.06l-0.046,-0.06l-0.043,-0.061l-0.043,-0.062l-0.04,-0.063l-0.039,-0.064l-0.037,-0.065l-0.035,-0.065l-0.033,-0.065l-0.032,-0.067l-0.031,-0.067l-0.028,-0.068l-0.027,-0.068l-0.024,-0.068l-0.024,-0.069l-0.021,-0.07l-0.02,-0.07l-0.018,-0.069l-0.016,-0.071l-0.015,-0.071l-0.013,-0.071l-0.011,-0.071l-0.009,-0.072l-0.008,-0.071l-0.006,-0.072l-0.004,-0.071l-0.003,-0.072l-0.001,-0.072l0.001,-0.072l0.003,-0.072l0.004,-0.071l0.006,-0.072l0.008,-0.071l0.009,-0.072l0.011,-0.071l0.013,-0.071l0.015,-0.071l0.016,-0.071l0.018,-0.069l0.02,-0.07l0.021,-0.07l0.024,-0.069l0.024,-0.068l0.027,-0.068l0.028,-0.068l0.031,-0.067l0.032,-0.067l0.033,-0.065l0.035,-0.065l0.037,-0.065l0.039,-0.063l0.04,-0.064l0.043,-0.062l0.043,-0.061l0.046,-0.06l0.047,-0.06l0.049,-0.058l0.05,-0.057l0.052,-0.056l0.05,-0.051l1.59,-1.59l0.035,-0.033l0.036,-0.032l0.038,-0.03l0.04,-0.028l0.041,-0.026l0.042,-0.024l0.043,-0.022l0.044,-0.02l0.045,-0.017l0.045,-0.016l0.047,-0.013l0.047,-0.011l0.048,-0.009l0.047,-0.006l0.049,-0.004l0.048,-0.002l0.048,0.001Z" style="fill:#f00;"/>
                <path d="M23.072,9.829l0.072,0.003l0.071,0.004l0.072,0.006l0.071,0.008l0.072,0.009l0.071,0.011l0.071,0.013l0.071,0.015l0.07,0.016l0.071,0.018l0.069,0.02l0.07,0.021l0.069,0.024l0.068,0.024l0.068,0.027l0.068,0.029l0.067,0.03l0.066,0.031l0.066,0.034l0.066,0.035l0.064,0.037l0.064,0.039l0.062,0.04l0.063,0.042l0.061,0.044l0.06,0.046l0.059,0.047l0.059,0.049l0.057,0.05l0.056,0.052l0.051,0.05l1.59,1.59l0.033,0.035l0.032,0.036l0.03,0.038l0.028,0.04l0.026,0.041l0.024,0.042l0.022,0.043l0.02,0.044l0.017,0.045l0.016,0.046l0.013,0.046l0.011,0.047l0.009,0.048l0.006,0.047l0.004,0.049l0.002,0.048l-0.001,0.048l-0.003,0.048l-0.005,0.049l-0.007,0.047l-0.01,0.048l-0.012,0.046l-0.015,0.046l-0.016,0.046l-0.019,0.044l-0.021,0.044l-0.023,0.043l-0.025,0.041l-0.027,0.04l-0.029,0.039l-0.031,0.037l-0.032,0.036l-0.034,0.034l-0.036,0.032l-0.037,0.031l-0.039,0.029l-0.04,0.027l-0.042,0.025l-0.042,0.023l-0.044,0.021l-0.044,0.019l-0.046,0.016l-0.046,0.015l-0.046,0.012l-0.048,0.01l-0.047,0.007l-0.049,0.005l-0.048,0.003l-0.048,0.001l-0.048,-0.002l-0.049,-0.004l-0.047,-0.006l-0.048,-0.009l-0.047,-0.011l-0.047,-0.013l-0.045,-0.016l-0.045,-0.017l-0.044,-0.02l-0.043,-0.022l-0.042,-0.024l-0.041,-0.026l-0.04,-0.028l-0.038,-0.03l-0.036,-0.032l-0.035,-0.033l-1.581,-1.581l-0.024,-0.023l-0.019,-0.018l-0.019,-0.017l-0.02,-0.016l-0.02,-0.016l-0.02,-0.015l-0.02,-0.015l-0.021,-0.013l-0.02,-0.014l-0.021,-0.013l-0.022,-0.012l-0.021,-0.012l-0.022,-0.011l-0.022,-0.01l-0.022,-0.01l-0.022,-0.009l-0.023,-0.009l-0.022,-0.008l-0.023,-0.008l-0.023,-0.007l-0.024,-0.007l-0.023,-0.006l-0.024,-0.005l-0.023,-0.005l-0.024,-0.004l-0.024,-0.004l-0.024,-0.003l-0.024,-0.003l-0.024,-0.002l-0.024,-0.001l-0.024,-0.001l-0.024,-0.001l-0.024,0.001l-0.024,0.001l-0.024,0.001l-0.024,0.002l-0.024,0.003l-0.024,0.003l-0.024,0.004l-0.024,0.004l-0.023,0.005l-0.024,0.005l-0.023,0.006l-0.024,0.007l-0.023,0.007l-0.023,0.008l-0.022,0.008l-0.023,0.009l-0.022,0.009l-0.022,0.01l-0.022,0.01l-0.022,0.011l-0.021,0.012l-0.022,0.012l-0.02,0.013l-0.021,0.014l-0.021,0.013l-0.02,0.015l-0.02,0.015l-0.02,0.016l-0.02,0.016l-0.019,0.017l-0.019,0.018l-0.024,0.023l-1.581,1.581l-0.035,0.033l-0.036,0.032l-0.038,0.03l-0.04,0.028l-0.041,0.026l-0.042,0.024l-0.043,0.022l-0.044,0.02l-0.045,0.017l-0.046,0.016l-0.046,0.013l-0.047,0.011l-0.048,0.009l-0.047,0.006l-0.049,0.004l-0.048,0.002l-0.048,-0.001l-0.048,-0.003l-0.049,-0.005l-0.047,-0.007l-0.048,-0.01l-0.046,-0.012l-0.047,-0.015l-0.045,-0.016l-0.044,-0.019l-0.044,-0.021l-0.043,-0.023l-0.041,-0.025l-0.04,-0.027l-0.039,-0.029l-0.037,-0.031l-0.036,-0.032l-0.034,-0.034l-0.032,-0.036l-0.031,-0.037l-0.029,-0.039l-0.027,-0.04l-0.025,-0.041l-0.023,-0.043l-0.021,-0.044l-0.019,-0.044l-0.016,-0.046l-0.015,-0.046l-0.012,-0.046l-0.01,-0.048l-0.007,-0.047l-0.005,-0.049l-0.003,-0.048l-0.001,-0.048l0.002,-0.048l0.004,-0.049l0.006,-0.047l0.009,-0.048l0.011,-0.047l0.013,-0.047l0.016,-0.045l0.017,-0.045l0.02,-0.044l0.022,-0.043l0.024,-0.042l0.026,-0.041l0.028,-0.04l0.03,-0.038l0.032,-0.036l0.033,-0.035l1.59,-1.59l0.051,-0.05l0.056,-0.052l0.057,-0.05l0.058,-0.049l0.06,-0.047l0.06,-0.046l0.061,-0.044l0.063,-0.042l0.062,-0.04l0.064,-0.039l0.065,-0.037l0.065,-0.035l0.065,-0.034l0.067,-0.031l0.067,-0.031l0.067,-0.028l0.069,-0.027l0.068,-0.024l0.069,-0.024l0.07,-0.021l0.069,-0.02l0.071,-0.018l0.07,-0.016l0.071,-0.015l0.071,-0.013l0.071,-0.011l0.072,-0.009l0.071,-0.008l0.072,-0.006l0.071,-0.004l0.072,-0.003l0.072,-0.001l0.072,0.001Z" style="fill:#f00;"/>
                <path d="M20.06,2.002l0.049,0.004l0.047,0.006l0.048,0.009l0.047,0.011l0.046,0.013l0.046,0.016l0.045,0.017l0.044,0.02l0.043,0.022l0.042,0.024l0.041,0.026l0.04,0.028l0.038,0.03l0.036,0.032l0.035,0.033l1.581,1.581l0.024,0.023l0.019,0.018l0.019,0.017l0.02,0.016l0.02,0.016l0.02,0.015l0.02,0.015l0.021,0.013l0.02,0.014l0.021,0.013l0.022,0.012l0.021,0.012l0.022,0.011l0.022,0.01l0.022,0.01l0.022,0.009l0.023,0.009l0.022,0.008l0.023,0.008l0.023,0.007l0.024,0.007l0.023,0.006l0.023,0.005l0.024,0.005l0.024,0.004l0.024,0.004l0.024,0.003l0.024,0.003l0.024,0.002l0.024,0.001l0.024,0.001l0.024,0l0.024,0l0.024,-0.001l0.024,-0.001l0.024,-0.002l0.024,-0.003l0.024,-0.003l0.024,-0.004l0.024,-0.004l0.024,-0.005l0.023,-0.005l0.023,-0.006l0.023,-0.007l0.024,-0.007l0.023,-0.008l0.022,-0.008l0.023,-0.009l0.022,-0.009l0.022,-0.01l0.022,-0.011l0.022,-0.01l0.021,-0.012l0.022,-0.012l0.021,-0.013l0.021,-0.014l0.02,-0.013l0.02,-0.015l0.02,-0.015l0.02,-0.016l0.02,-0.016l0.019,-0.017l0.019,-0.018l0.024,-0.023l1.581,-1.581l0.035,-0.033l0.036,-0.032l0.038,-0.03l0.04,-0.028l0.041,-0.026l0.042,-0.024l0.043,-0.022l0.044,-0.02l0.045,-0.017l0.045,-0.016l0.047,-0.013l0.047,-0.011l0.048,-0.009l0.047,-0.006l0.049,-0.004l0.048,-0.002l0.048,0.001l0.048,0.003l0.049,0.005l0.047,0.007l0.048,0.01l0.046,0.012l0.046,0.015l0.046,0.016l0.044,0.019l0.044,0.021l0.042,0.023l0.042,0.025l0.04,0.027l0.039,0.029l0.037,0.031l0.036,0.032l0.034,0.034l0.032,0.036l0.031,0.037l0.029,0.039l0.027,0.04l0.025,0.041l0.023,0.043l0.021,0.044l0.019,0.044l0.016,0.046l0.015,0.046l0.012,0.046l0.01,0.048l0.007,0.047l0.005,0.049l0.003,0.048l0.001,0.048l-0.002,0.048l-0.004,0.049l-0.006,0.047l-0.009,0.048l-0.011,0.047l-0.013,0.046l-0.016,0.046l-0.017,0.045l-0.02,0.044l-0.022,0.043l-0.024,0.042l-0.026,0.041l-0.028,0.04l-0.03,0.038l-0.032,0.036l-0.033,0.035l-1.59,1.59l-0.051,0.05l-0.056,0.052l-0.057,0.05l-0.059,0.049l-0.059,0.047l-0.06,0.046l-0.061,0.044l-0.063,0.042l-0.062,0.04l-0.064,0.039l-0.064,0.037l-0.066,0.035l-0.066,0.034l-0.066,0.031l-0.067,0.03l-0.068,0.029l-0.068,0.027l-0.068,0.024l-0.069,0.024l-0.07,0.021l-0.069,0.02l-0.071,0.018l-0.07,0.016l-0.071,0.015l-0.071,0.013l-0.071,0.011l-0.072,0.009l-0.071,0.008l-0.072,0.006l-0.071,0.004l-0.072,0.003l-0.072,0.001l-0.072,-0.001l-0.072,-0.003l-0.071,-0.004l-0.072,-0.006l-0.071,-0.008l-0.072,-0.009l-0.071,-0.011l-0.071,-0.013l-0.071,-0.015l-0.07,-0.016l-0.071,-0.018l-0.069,-0.02l-0.07,-0.021l-0.069,-0.024l-0.068,-0.024l-0.068,-0.027l-0.068,-0.028l-0.067,-0.031l-0.066,-0.031l-0.066,-0.034l-0.065,-0.035l-0.065,-0.037l-0.064,-0.039l-0.062,-0.04l-0.063,-0.042l-0.061,-0.044l-0.06,-0.046l-0.06,-0.047l-0.058,-0.049l-0.057,-0.05l-0.056,-0.052l-0.051,-0.05l-1.59,-1.59l-0.033,-0.035l-0.032,-0.036l-0.03,-0.038l-0.028,-0.04l-0.026,-0.041l-0.024,-0.042l-0.022,-0.043l-0.02,-0.044l-0.017,-0.045l-0.016,-0.045l-0.013,-0.047l-0.011,-0.047l-0.009,-0.048l-0.006,-0.047l-0.004,-0.049l-0.002,-0.048l0.001,-0.048l0.003,-0.048l0.005,-0.049l0.007,-0.047l0.01,-0.048l0.012,-0.046l0.015,-0.046l0.016,-0.046l0.019,-0.044l0.021,-0.044l0.023,-0.043l0.025,-0.041l0.027,-0.04l0.029,-0.039l0.031,-0.037l0.032,-0.036l0.034,-0.034l0.036,-0.032l0.037,-0.031l0.039,-0.029l0.04,-0.027l0.041,-0.025l0.043,-0.023l0.044,-0.021l0.044,-0.019l0.045,-0.016l0.047,-0.015l0.046,-0.012l0.048,-0.01l0.047,-0.007l0.049,-0.005l0.048,-0.003l0.048,-0.001l0.048,0.002Z" style="fill:#f00;"/>
            </g>
        </g>
    </g>
</svg>
