<svg clip-rule="evenodd" fill-rule="evenodd" stroke-linecap="round" stroke-linejoin="round" stroke-miterlimit="1.5" viewBox="0 0 32 32" xmlns="http://www.w3.org/2000/svg" xmlns:xlink="http://www.w3.org/1999/xlink"><clipPath id="a"><path clip-rule="evenodd" d="m0-.017h32v32h-32z"/></clipPath><clipPath id="b"><path clip-rule="evenodd" d="m30 15.983c0-3.713-1.475-7.274-4.101-9.899-2.625-2.626-6.186-4.101-9.899-4.101-7.732 0-14 6.268-14 14v2c0 6.628 5.373 12 12 12h4c6.627 0 12-5.372 12-12 0-.662 0-1.331 0-2z"/></clipPath><path d="m0-.017h32v32h-32z" fill="none"/><g clip-path="url(#a)"><path d="m30.235 7.131.171.034.167.048.161.06.154.072.149.084.141.094.134.105.125.116.117.125.107.135.096.143.086.152.074.159.061.166.048.17.034.172.02.173.006.173-.007.172-.021.17-.034.167-.046.163-.059.16-.071.155-.083.149-.095.144-.106.136-.118.128-.129.12-.096.076.006.017.062.197.06.198.057.199.054.199.052.201.05.201.047.202.044.202.042.203.039.204.036.205.034.205.031.205.028.206.026.207.023.207.021.208.018.208.015.209.012.209.01.209.007.21.004.21.001.204v2.013l-.001.174-.004.18-.005.179-.008.179-.01.178-.013.178-.014.178-.017.176-.019.176-.021.176-.024.175-.025.174-.028.173-.03.173-.031.172-.034.172-.036.17-.038.17-.041.169-.042.169-.044.167-.046.167-.049.166-.05.165-.052.164-.054.163-.056.163-.058.161-.06.16-.062.16-.063.159-.066.157-.067.157-.07.156-.071.154-.073.154-.074.153-.077.151-.078.151-.08.149-.082.148-.083.147-.085.146-.087.145-.089.144-.09.143-.092.141-.093.14-.095.139-.097.138-.098.137-.1.135-.102.134-.103.133-.104.131-.107.13-.107.129-.11.128-.11.126-.112.125-.114.124-.115.122-.117.12-.117.12-.12.118-.121.116-.122.115-.123.114-.125.112-.126.111-.128.109-.129.108-.13.106-.132.104-.132.103-.134.102-.136.1-.136.098-.138.097-.139.095-.14.094-.142.092-.142.09-.144.088-.145.087-.146.085-.147.084-.148.081-.15.08-.15.079-.152.076-.152.075-.154.073-.155.071-.155.069-.157.067-.158.066-.158.064-.16.061-.16.06-.162.058-.162.056-.163.054-.165.053-.165.05-.165.048-.167.046-.168.044-.168.043-.169.04-.17.038-.171.036-.171.034-.172.032-.173.03-.173.027-.175.026-.174.023-.176.021-.176.019-.177.017-.177.015-.178.012-.178.01-.179.008-.18.006-.18.003-.174.001h-4.012l-.174-.001-.18-.003-.18-.006-.179-.008-.178-.01-.178-.012-.177-.015-.177-.017-.176-.019-.176-.021-.174-.023-.175-.026-.173-.027-.173-.03-.172-.032-.171-.034-.171-.036-.17-.038-.169-.04-.168-.043-.168-.044-.166-.046-.166-.048-.165-.05-.165-.053-.163-.054-.162-.056-.162-.058-.16-.06-.16-.061-.158-.064-.158-.066-.157-.067-.155-.069-.155-.071-.154-.073-.152-.075-.152-.076-.15-.079-.15-.08-.148-.081-.147-.084-.146-.085-.145-.087-.144-.088-.142-.09-.142-.092-.14-.094-.139-.095-.138-.097-.136-.098-.136-.1-.134-.102-.132-.103-.132-.104-.13-.106-.129-.108-.128-.109-.126-.111-.125-.112-.123-.114-.122-.115-.121-.116-.12-.118-.117-.12-.117-.12-.115-.122-.114-.124-.112-.125-.11-.126-.11-.128-.107-.129-.107-.13-.104-.131-.103-.133-.102-.134-.1-.135-.098-.137-.097-.138-.095-.139-.093-.14-.092-.141-.09-.143-.089-.144-.087-.145-.085-.146-.083-.147-.082-.148-.08-.149-.078-.151-.077-.151-.074-.153-.073-.154-.071-.154-.07-.156-.067-.157-.066-.157-.063-.159-.062-.16-.06-.16-.058-.161-.056-.163-.054-.163-.052-.164-.051-.165-.048-.166-.046-.167-.044-.167-.042-.169-.041-.169-.038-.17-.036-.17-.034-.172-.031-.172-.03-.173-.028-.173-.025-.174-.024-.175-.021-.176-.019-.176-.017-.176-.014-.178-.013-.178-.01-.178-.008-.179-.005-.179-.004-.18-.001-.174v-2.013l.001-.208.005-.214.007-.214.009-.213.013-.212.015-.211.018-.211.021-.21.024-.209.026-.208.029-.208.031-.207.034-.206.037-.205.04-.204.041-.203.045-.202.047-.202.05-.2.052-.199.054-.199.057-.197.06-.197.06-.189-.093-.073-.129-.12-.118-.128-.106-.136-.095-.144-.083-.149-.071-.155-.059-.16-.046-.163-.034-.167-.021-.17-.007-.172.006-.173.02-.173.034-.172.048-.17.061-.166.074-.159.086-.152.096-.143.107-.135.117-.125.125-.116.134-.105.141-.094.149-.084.154-.072.161-.06.167-.048.171-.034.174-.021.137-.006h.612l.063-.093.073-.107.075-.107.075-.107.076-.105.077-.105.078-.104.078-.104.08-.103.08-.102.081-.102.082-.101.082-.1.084-.1.084-.098.085-.099.086-.097.086-.097.087-.096.089-.095.088-.095.09-.094.09-.093.091-.092.092-.092.093-.091.093-.09.094-.09.095-.088.095-.088.096-.087.097-.087.098-.086.098-.084.099-.084.1-.084.1-.082.101-.082.102-.081.102-.08.104-.079.103-.078.105-.078.105-.077.105-.076.107-.075.107-.074.107-.074.109-.072.108-.072.11-.071.11-.07.111-.069.111-.068.112-.067.112-.067.114-.065.113-.065.115-.064.114-.063.116-.062.116-.061.116-.06.118-.059.117-.058.118-.058.119-.056.12-.055.119-.055.121-.053.121-.053.121-.052.122-.05.122-.05.123-.048.124-.048.124-.047.124-.046.125-.044.125-.044.126-.043.127-.041.126-.041.128-.04.127-.038.128-.038.129-.036.129-.036.129-.034.13-.033.131-.033.13-.031.131-.03.132-.029.132-.028.132-.027.133-.026.133-.024.133-.024.134-.023.134-.021.135-.02.135-.019.135-.018.135-.017.136-.016.136-.015.137-.013.137-.013.137-.011.137-.01.138-.009.138-.007.138-.007.139-.005.139-.004.139-.003.139-.002.136-.001h.01l.193.001.198.004.198.006.198.009.198.011.197.013.197.016.196.019.196.02.196.023.195.026.195.028.194.03.194.032.193.035.192.038.192.039.191.042.191.044.19.047.19.049.188.051.188.053.187.056.187.058.186.06.185.063.184.064.183.067.183.069.181.072.181.073.18.076.179.078.178.08.177.082.175.085.175.086.174.089.173.091.172.093.171.095.169.098.169.099.167.102.166.103.165.106.164.107.162.11.162.112.159.114.159.116.157.118.156.12.155.122.153.124.152.126.15.128.149.13.148.132.146.133.144.136.143.138.14.138.098.099.096.098.095.099.094.1.093.1.092.101.091.102.09.102.089.104.088.104.087.104.087.105.085.106.085.107.083.107.083.108.081.108.081.109.079.11.079.11.078.111.077.112.075.112.012.018h.614l.137.006.174.021zm-14.34-3.147-.105.001-.105.002-.105.004-.104.004-.104.004-.104.006-.104.007-.103.007-.103.009-.103.009-.102.01-.103.011-.102.012-.101.013-.102.013-.101.015-.101.015-.1.016-.1.017-.1.017-.1.019-.099.019-.1.02-.098.021-.099.022-.098.023-.098.023-.097.024-.097.025-.097.026-.097.026-.096.028-.096.028-.095.029-.096.029-.095.031-.094.031-.094.032-.094.033-.093.033-.094.034-.092.035-.093.036-.092.036-.091.037-.092.038-.091.039-.09.039-.09.04-.09.041-.089.042-.089.042-.089.043-.088.043-.088.045-.087.045-.087.046-.087.046-.086.047-.085.048-.085.048-.085.05-.085.049-.084.051-.083.051-.083.052-.083.052-.082.054-.082.053-.081.055-.081.055-.08.056-.08.056-.079.057-.079.058-.078.058-.078.059-.078.059-.076.061-.077.06-.076.062-.075.062-.075.062-.074.063-.074.064-.073.064-.073.065-.073.066-.071.066-.071.066-.071.068-.07.067-.07.069-.069.069-.068.069-.068.07-.067.071-.067.071-.066.071-.066.073-.065.072-.064.073-.064.074-.063.074-.063.075-.062.076-.062.075-.06.077-.061.076-.059.078-.059.078-.059.078-.057.079-.057.079-.057.08-.056.08-.055.081-.055.081-.053.081-.054.082-.052.083-.052.083-.052.083-.05.084-.05.084-.049.085-.347.607-.29.668-.059.14-.057.141-.055.142-.053.143-.052.144-.05.144-.048.145-.047.146-.044.147-.043.148-.041.148-.039.15-.037.15-.035.15-.033.152-.032.152-.029.153-.028.154-.025.154-.024.155-.022.155-.019.157-.018.157-.015.157-.014.159-.012.159-.009.159-.007.16-.006.161-.003.161-.001.169v1.987l.001.136.002.129.004.129.006.129.007.127.009.128.011.127.012.126.013.126.015.125.017.125.018.125.02.124.021.123.023.123.024.122.026.121.027.122.029.12.03.12.031.119.033.119.035.118.035.118.037.117.039.116.04.116.041.115.043.114.044.114.045.113.047.112.048.112.049.111.051.11.052.11.053.108.055.109.056.107.057.107.058.105.06.105.061.105.062.103.063.103.064.102.066.101.067.1.068.099.069.099.07.098.072.096.072.096.074.095.075.094.076.093.077.093.078.091.079.09.08.09.082.088.082.087.084.087.084.085.085.085.087.083.087.083.089.081.089.08.09.079.092.078.092.077.093.076.094.075.095.074.096.073.097.071.097.07.099.07.099.068.101.066.101.066.101.065.103.063.104.062.104.061.105.059.106.058.106.058.108.055.108.055.109.053.109.052.111.051.11.049.112.048.113.047.113.045.113.044.115.043.115.041.115.04.117.039.117.037.117.036.118.034.119.033.119.032.12.03.121.028.121.027.121.026.123.024.123.023.123.021.124.02.124.018.125.017.125.015.126.014.127.012.126.01.128.009.128.007.128.006.129.004.129.002.136.001h3.988l.136-.001.129-.002.129-.004.128-.006.128-.007.128-.009.126-.01.127-.012.126-.014.125-.015.125-.017.124-.018.124-.02.123-.021.123-.023.123-.024.121-.026.121-.027.121-.028.12-.03.119-.032.119-.033.118-.034.117-.036.117-.037.117-.039.115-.04.115-.041.115-.043.113-.044.113-.045.113-.047.112-.048.11-.049.111-.051.109-.052.109-.053.108-.055.108-.055.106-.058.106-.058.105-.059.104-.061.104-.062.103-.063.101-.065.101-.066.101-.066.099-.068.099-.07.097-.07.097-.071.096-.073.095-.074.094-.075.093-.076.092-.077.092-.078.09-.079.089-.08.089-.081.087-.083.087-.083.085-.085.084-.085.084-.087.082-.087.082-.088.08-.09.079-.09.078-.091.077-.093.076-.093.075-.094.074-.095.072-.096.072-.096.07-.098.069-.099.068-.099.067-.1.066-.101.064-.102.063-.103.063-.103.06-.105.06-.105.058-.105.057-.107.056-.107.055-.109.053-.108.052-.11.051-.11.049-.111.048-.112.047-.112.045-.113.044-.114.043-.114.041-.115.04-.116.039-.116.037-.117.035-.118.035-.118.033-.119.031-.119.03-.12.029-.12.027-.122.026-.121.024-.122.023-.123.021-.123.02-.124.018-.125.017-.125.015-.125.013-.126.012-.126.011-.127.009-.128.007-.127.006-.129.004-.129.002-.129.001-.136v-1.987l-.001-.165-.003-.157-.005-.157-.008-.157-.009-.157-.011-.157-.013-.156-.016-.155-.017-.156-.019-.155-.022-.154-.023-.155-.026-.153-.027-.154-.029-.153-.031-.152-.034-.152-.035-.151-.037-.151-.039-.15-.041-.15-.043-.149-.044-.148-.047-.148-.049-.147-.05-.147-.052-.146-.055-.145-.056-.144-.058-.144-.059-.143-.292-.672-.348-.611-.051-.088-.051-.087-.053-.086-.053-.087-.053-.086-.055-.085-.055-.085-.056-.085-.057-.084-.058-.083-.058-.084-.059-.082-.06-.083-.06-.081-.061-.082-.062-.081-.063-.08-.063-.08-.064-.079-.065-.079-.065-.079-.067-.078-.066-.077-.068-.077-.068-.076-.069-.076-.07-.075-.07-.075-.071-.074-.072-.074-.071-.072-.108-.106-.107-.103-.108-.102-.11-.1-.111-.099-.111-.098-.113-.096-.114-.094-.115-.093-.116-.092-.117-.09-.118-.088-.119-.087-.12-.085-.121-.084-.121-.083-.123-.08-.124-.08-.124-.077-.126-.076-.126-.075-.127-.073-.128-.071-.129-.07-.13-.068-.13-.067-.132-.065-.132-.063-.132-.062-.134-.06-.134-.058-.135-.057-.135-.055-.137-.054-.136-.052-.138-.05-.138-.048-.139-.047-.139-.045-.14-.044-.14-.042-.141-.04-.142-.038-.142-.037-.143-.035-.143-.033-.143-.031-.144-.03-.144-.028-.145-.026-.145-.024-.146-.023-.146-.021-.146-.019-.147-.017-.147-.016-.147-.014-.148-.012-.148-.01-.148-.008-.148-.006-.149-.005-.149-.003-.151-.001-.103.001z"/><path d="m30 15.983c0-3.713-1.475-7.274-4.101-9.899-2.625-2.626-6.186-4.101-9.899-4.101-7.732 0-14 6.268-14 14v2c0 6.628 5.373 12 12 12h4c6.627 0 12-5.372 12-12 0-.662 0-1.331 0-2z" fill="#fbc546"/><g clip-path="url(#b)"><path d="m8.69 4.604c-.027-.083-.103-.138-.19-.138s-.163.055-.19.138c-.435 1.337-1.462 4.5-1.462 4.5s-3.327 0-4.732 0c-.087 0-.164.056-.191.138-.026.083.003.173.073.224 1.137.826 3.828 2.781 3.828 2.781s-1.028 3.164-1.462 4.501c-.027.082.003.172.073.223s.165.051.235 0c1.137-.826 3.828-2.781 3.828-2.781s2.691 1.955 3.828 2.781c.07.051.165.051.235 0s.1-.141.073-.223c-.434-1.337-1.462-4.501-1.462-4.501s2.691-1.955 3.828-2.781c.07-.051.099-.141.073-.224-.027-.082-.104-.138-.191-.138-1.405 0-4.732 0-4.732 0s-1.027-3.163-1.462-4.5zm14.62 0c.027-.083.103-.138.19-.138s.163.055.19.138c.435 1.337 1.462 4.5 1.462 4.5h4.732c.087 0 .164.056.191.138.026.083-.003.173-.073.224-1.137.826-3.828 2.781-3.828 2.781s1.028 3.164 1.462 4.501c.027.082-.003.172-.073.223s-.165.051-.235 0c-1.137-.826-3.828-2.781-3.828-2.781s-2.691 1.955-3.828 2.781c-.07.051-.165.051-.235 0s-.1-.141-.073-.223c.434-1.337 1.462-4.501 1.462-4.501s-2.691-1.955-3.828-2.781c-.07-.051-.099-.141-.073-.224.027-.082.104-.138.191-.138h4.732s1.027-3.163 1.462-4.5z" fill="none" stroke="#bf7e0d" stroke-width="4"/></g><path d="m24.078 19.986.078.01.077.015.076.021.074.027.071.033.068.039.066.043.061.049.058.053.053.058.049.062.044.065.038.068.033.072.027.073.021.076.016.077.009.078.003.078-.003.079-.009.078-.016.077-.021.075-.027.074-.033.071-.038.069-.044.065-.049.062-.053.057-1.883 1.883-.067.065-.072.068-.074.065-.076.064-.077.061-.078.06-.08.057-.081.056-.082.053-.083.051-.085.049-.085.048-.087.044-.088.043-.089.041-.089.038-.091.036-.091.034-.093.032-.093.03-.093.027-.095.025-.095.023-.096.02-.096.018-.097.016-.098.013-.098.011-.098.009-.099.006-.099.004-.099.001-.099-.001-.099-.004-.099-.006-.098-.009-.098-.011-.098-.013-.097-.016-.096-.018-.096-.02-.095-.023-.095-.025-.093-.027-.093-.03-.093-.032-.091-.034-.091-.036-.089-.038-.089-.041-.088-.043-.087-.044-.085-.048-.085-.049-.083-.051-.082-.053-.081-.056-.08-.057-.078-.06-.077-.061-.076-.064-.074-.065-.072-.068-.067-.065-1.167-1.167-.009-.008-.009.008-1.167 1.167-.067.065-.072.068-.074.065-.076.064-.077.061-.078.06-.08.057-.081.056-.082.053-.083.051-.085.049-.085.048-.087.044-.088.043-.089.041-.089.038-.091.036-.091.034-.093.032-.093.03-.093.027-.095.025-.095.023-.096.02-.096.018-.097.016-.098.013-.098.011-.098.009-.099.006-.099.004-.099.001-.099-.001-.099-.004-.099-.006-.098-.009-.098-.011-.098-.013-.097-.016-.096-.018-.096-.02-.095-.023-.095-.025-.093-.027-.093-.03-.093-.032-.091-.034-.091-.036-.089-.038-.089-.041-.088-.043-.087-.044-.085-.048-.085-.049-.083-.051-.082-.053-.081-.056-.08-.057-.078-.06-.077-.061-.076-.064-.074-.065-.072-.068-.067-.065-1.883-1.883-.053-.057-.049-.062-.044-.065-.038-.069-.033-.071-.027-.074-.021-.075-.016-.077-.009-.078-.003-.079.003-.078.009-.078.016-.077.021-.076.027-.073.033-.072.038-.068.044-.065.049-.062.053-.058.058-.053.061-.049.066-.043.068-.039.071-.033.074-.027.076-.021.077-.015.078-.01.078-.003.078.003.078.01.077.015.076.021.074.027.071.033.068.039.066.043.061.049.058.053 1.874 1.874.04.04.037.033.037.033.038.032.038.03.039.03.04.029.04.028.041.026.042.026.042.024.043.024.044.022.043.022.045.02.045.019.045.018.046.017.046.016.046.015.047.014.048.012.047.012.048.01.048.009.049.008.048.006.049.006.049.004.05.003.049.002.05.001.05-.001.049-.002.05-.003.049-.004.049-.006.048-.006.049-.008.048-.009.048-.01.047-.012.048-.012.047-.014.046-.015.046-.016.046-.017.045-.018.045-.019.045-.02.043-.022.044-.022.043-.024.042-.024.042-.026.041-.026.04-.028.04-.029.039-.03.038-.03.038-.032.037-.033.037-.033.04-.04 1.176-1.175.062-.06.075-.065.078-.06.08-.057.083-.052.085-.048.087-.044.09-.04.091-.035.092-.03.094-.026.096-.022.097-.017.097-.012.099-.007.099-.003.099.003.099.007.097.012.097.017.096.022.094.026.092.03.091.035.09.04.087.044.085.048.083.052.08.057.078.06.075.065.062.06 1.176 1.175.04.04.037.033.037.033.038.032.038.03.039.03.04.029.04.028.041.026.042.026.042.024.043.024.044.022.043.022.045.02.045.019.045.018.046.017.046.016.046.015.047.014.048.012.047.012.048.01.048.009.049.008.048.006.049.006.049.004.05.003.049.002.05.001.05-.001.049-.002.05-.003.049-.004.049-.006.048-.006.049-.008.048-.009.048-.01.047-.012.048-.012.047-.014.046-.015.046-.016.046-.017.045-.018.045-.019.045-.02.043-.022.044-.022.043-.024.042-.024.042-.026.041-.026.04-.028.04-.029.039-.03.038-.03.038-.032.037-.033.037-.033.04-.04 1.874-1.874.058-.053.061-.049.066-.043.068-.039.071-.033.074-.027.076-.021.077-.015.078-.01.078-.003z" fill="#593604"/><path d="m8.69 4.604c-.027-.083-.103-.138-.19-.138s-.163.055-.19.138c-.435 1.337-1.462 4.5-1.462 4.5s-3.327 0-4.732 0c-.087 0-.164.056-.191.138-.026.083.003.173.073.224 1.137.826 3.828 2.781 3.828 2.781s-1.028 3.164-1.462 4.501c-.027.082.003.172.073.223s.165.051.235 0c1.137-.826 3.828-2.781 3.828-2.781s2.691 1.955 3.828 2.781c.07.051.165.051.235 0s.1-.141.073-.223c-.434-1.337-1.462-4.501-1.462-4.501s2.691-1.955 3.828-2.781c.07-.051.099-.141.073-.224-.027-.082-.104-.138-.191-.138-1.405 0-4.732 0-4.732 0s-1.027-3.163-1.462-4.5zm14.62 0c.027-.083.103-.138.19-.138s.163.055.19.138c.435 1.337 1.462 4.5 1.462 4.5h4.732c.087 0 .164.056.191.138.026.083-.003.173-.073.224-1.137.826-3.828 2.781-3.828 2.781s1.028 3.164 1.462 4.501c.027.082-.003.172-.073.223s-.165.051-.235 0c-1.137-.826-3.828-2.781-3.828-2.781s-2.691 1.955-3.828 2.781c-.07.051-.165.051-.235 0s-.1-.141-.073-.223c.434-1.337 1.462-4.501 1.462-4.501s-2.691-1.955-3.828-2.781c-.07-.051-.099-.141-.073-.224.027-.082.104-.138.191-.138h4.732s1.027-3.163 1.462-4.5z" fill="#ffec8e"/></g></svg>