<svg clip-rule="evenodd" fill-rule="evenodd" stroke-linecap="round" stroke-linejoin="round" stroke-miterlimit="2" viewBox="0 0 32 32" xmlns="http://www.w3.org/2000/svg" xmlns:xlink="http://www.w3.org/1999/xlink"><clipPath id="a"><path clip-rule="evenodd" d="m0 0h32v32h-32z"/></clipPath><clipPath id="b"><path clip-rule="evenodd" d="m26 4c0-.53-.211-1.039-.586-1.414s-.884-.586-1.414-.586c-1.743 0-4.257 0-6 0-.53 0-1.039.211-1.414.586s-.586.884-.586 1.414v12c0 .53.211 1.039.586 1.414s.884.586 1.414.586h6c.53 0 1.039-.211 1.414-.586s.586-.884.586-1.414c0-3.074 0-8.926 0-12z"/></clipPath><clipPath id="c"><path clip-rule="evenodd" d="m25 4c0-.552-.448-1-1-1-1.537 0-4.463 0-6 0-.552 0-1 .448-1 1v12c0 .552.448 1 1 1h6c.552 0 1-.448 1-1 0-2.577 0-9.423 0-12z"/></clipPath><path d="m0 0h32v32h-32z" fill="none"/><g clip-path="url(#a)"><path d="m13.968 8c.006-1.366.017-2.733.033-4.099.016-.427.089-.847.233-1.251.166-.46.416-.89.735-1.261.428-.497.979-.885 1.591-1.121.43-.166.881-.25 1.341-.267 2.066-.025 4.132-.025 6.198 0 .46.017.911.101 1.341.267.612.236 1.163.624 1.591 1.121.278.323.504.691.667 1.085l1.363-1.364c.313.13.626.259.939.389v15.857l-.002.136c-.014.395-.058.785-.145 1.171-.183.811-.536 1.582-1.03 2.25-.175.235-.367.454-.571.664l-1.531 1.531-3.335 8.892h-14.851l-.067-.122 5.862-9.38-1.742-1.307c-.087-.067-.087-.067-.172-.137-.234-.205-.449-.427-.634-.677-.365-.495-.614-1.074-.721-1.679-.04-.226-.058-.454-.061-.683v-8.015-2z"/><g fill="none"><path d="m9 6-2-2" stroke="#000" stroke-width="6"/><path d="m9 10h-4" stroke="#000" stroke-width="6"/><path d="m9 14-2 2" stroke="#000" stroke-width="6"/></g><path d="m13 12v6c0 .63.296 1.222.8 1.6 1.167.875 3.2 2.4 3.2 2.4v1h7l1-1s.987-.987 1.828-1.828c.751-.751 1.172-1.768 1.172-2.829 0-3.706 0-12.343 0-12.343l-3 3-6 4z" fill="#434895"/><path d="m17 22h8l-3 8h-10z" fill="#373087"/><path d="m26 4c0-.53-.211-1.039-.586-1.414s-.884-.586-1.414-.586c-1.743 0-4.257 0-6 0-.53 0-1.039.211-1.414.586s-.586.884-.586 1.414v12c0 .53.211 1.039.586 1.414s.884.586 1.414.586h6c.53 0 1.039-.211 1.414-.586s.586-.884.586-1.414c0-3.074 0-8.926 0-12z" fill="#fff"/><g clip-path="url(#b)"><path d="m25 4c0-.552-.448-1-1-1-1.537 0-4.463 0-6 0-.552 0-1 .448-1 1v12c0 .552.448 1 1 1h6c.552 0 1-.448 1-1 0-2.577 0-9.423 0-12z"/><g clip-path="url(#c)" fill="#333"><circle cx="21" cy="8" r="2"/><path d="m24 13c0-1.105-.895-2-2-2-.644 0-1.356 0-2 0-1.105 0-2 .895-2 2v4h6s0-2.255 0-4z"/></g><path d="m19 2h4v2h-4z" fill="#fff"/></g><path d="m13 10h9s-.382.573-.813 1.219c-.741 1.113-1.99 1.781-3.328 1.781-2.058 0-4.859 0-4.859 0z" fill="#434895"/><path d="m9 6-2-2" fill="none" stroke="#fff" stroke-width="2"/><path d="m9 10h-4" fill="none" stroke="#fff" stroke-width="2"/><path d="m9 14-2 2" fill="none" stroke="#fff" stroke-width="2"/></g></svg>