<svg clip-rule="evenodd" fill-rule="evenodd" stroke-linecap="round" stroke-linejoin="round" stroke-miterlimit="2" viewBox="0 0 32 32" xmlns="http://www.w3.org/2000/svg" xmlns:xlink="http://www.w3.org/1999/xlink"><clipPath id="a"><path clip-rule="evenodd" d="m0 0h32v32h-32z"/></clipPath><clipPath id="b"><path clip-rule="evenodd" d="m13 12v5c0 1.259.593 2.445 1.6 3.2 1.114.835 2.4 1.8 2.4 1.8l-5 8h10l3-8s.588-.588 1.243-1.243c1.125-1.125 1.757-2.651 1.757-4.242 0-1.804 0-4.306 0-6.517 0-1.326-.527-2.597-1.464-3.534s-2.208-1.464-3.534-1.464c-.001 0-.002 0-.002 0l-4 7z"/></clipPath><clipPath id="c"><path clip-rule="evenodd" d="m26 4c0-.53-.211-1.039-.586-1.414s-.884-.586-1.414-.586c-1.743 0-4.257 0-6 0-.53 0-1.039.211-1.414.586s-.586.884-.586 1.414v12c0 .53.211 1.039.586 1.414s.884.586 1.414.586h6c.53 0 1.039-.211 1.414-.586s.586-.884.586-1.414c0-3.074 0-8.926 0-12z"/></clipPath><clipPath id="d"><path clip-rule="evenodd" d="m25 4c0-.552-.448-1-1-1-1.537 0-4.463 0-6 0-.552 0-1 .448-1 1v12c0 .552.448 1 1 1h6c.552 0 1-.448 1-1 0-2.577 0-9.423 0-12z"/></clipPath><path d="m0 0h32v32h-32z" fill="none"/><g clip-path="url(#a)"><path d="m23.089 3.001.087.001.086.003.087.004.087.004.086.006.086.007.086.008.085.009.086.01.085.011.085.013.085.013.085.014.084.015.091.018.161.034.167.04.165.044.164.047.163.052.162.056.16.059.158.064.157.067.155.071.154.075.151.078.15.083.148.086.146.089.139.09.076.052.07.049.07.05.069.05.069.052.068.052.068.054.067.054.067.055.065.056.065.056.065.059.064.058.063.059.063.061.061.061.061.061.061.063.059.063.059.064.057.064.057.066.056.066.055.065.055.068.053.068.052.067.052.07.051.07.049.068.049.071.052.077.09.139.089.145.086.148.083.15.078.151.075.154.071.155.067.157.064.158.059.161.056.161.052.162.047.165.044.165.04.167.034.162.017.089.016.085.014.085.013.085.013.085.011.085.01.086.009.085.008.086.007.087.006.087.004.084.004.088.003.087.001.086.001.081v6.529l-.001.093-.001.099-.003.099-.005.099-.005.1-.007.098-.008.098-.009.098-.01.098-.012.098-.013.098-.014.098-.015.096-.016.097-.017.096-.019.096-.02.098-.021.095-.022.094-.023.096-.025.095-.025.093-.027.095-.028.094-.029.093-.03.093-.031.092-.032.091-.034.093-.035.092-.035.09-.037.09-.038.09-.039.09-.04.089-.041.087-.042.089-.044.087-.044.088-.045.086-.047.085-.048.086-.048.085-.05.084-.05.083-.052.084-.053.082-.054.082-.055.081-.056.081-.057.08-.058.079-.059.079-.06.078-.06.077-.063.077-.063.076-.064.075-.065.075-.066.073-.066.073-.068.072-.069.072-.065.066-.941.941-3.335 8.892h-14.851l-.067-.122 5.862-9.38-.936-.703-.064-.049-.069-.054-.069-.055-.068-.057-.067-.057-.065-.058-.065-.059-.064-.06-.063-.061-.062-.061-.061-.063-.059-.063-.059-.064-.059-.065-.056-.065-.056-.066-.056-.068-.053-.067-.053-.068-.052-.07-.051-.07-.05-.071-.048-.071-.048-.071-.047-.074-.046-.073-.044-.073-.043-.074-.043-.076-.042-.076-.039-.076-.04-.076-.038-.078-.036-.078-.037-.079-.034-.079-.033-.079-.032-.079-.032-.081-.03-.081-.029-.081-.028-.082-.026-.082-.026-.083-.024-.084-.023-.083-.022-.083-.021-.085-.019-.084-.018-.085-.017-.085-.016-.086-.015-.086-.013-.086-.012-.086-.011-.086-.01-.088-.008-.088-.007-.087-.006-.088-.004-.088-.003-.088-.002-.088-.001-.08v-9.008h7.868l3-5h1.14l.081.001zm-1.957 8.999h-6.132v4.992.038l.001.029.001.03.001.029.002.029.003.03.003.028.003.028.003.03.004.029.005.029.005.028.005.029.006.028.006.028.006.029.007.027.007.029.008.028.008.026.008.028.009.027.01.028.01.028.009.026.011.026.011.028.011.027.012.026.011.026.012.025.013.026.013.026.014.026.013.025.014.024.015.025.015.025.015.025.015.023.016.024.017.025.017.023.016.023.017.023.018.023.019.023.017.022.019.022.02.023.018.021.02.021.02.021.02.021.021.021.021.02.021.019.021.02.023.02.022.019.022.018.023.018.024.019.029.023 3.864 2.897-4.062 6.498h5.006l2.665-7.108 1.545-1.544.039-.04.035-.036.033-.036.034-.037.033-.037.033-.037.032-.038.031-.037.031-.038.03-.039.031-.039.029-.039.029-.04.029-.041.028-.04.027-.04.027-.041.026-.041.026-.042.025-.041.025-.043.025-.042.023-.042.024-.044.023-.043.022-.043.021-.044.021-.044.021-.045.02-.044.02-.045.019-.045.018-.045.018-.046.017-.045.016-.045.017-.046.016-.047.015-.046.014-.048.014-.046.013-.046.013-.048.012-.048.012-.046.011-.049.011-.048.009-.046.01-.049.008-.049.009-.048.007-.049.007-.048.006-.049.006-.049.005-.049.005-.049.004-.049.003-.05.003-.049.002-.049.002-.05.001-.05v-.056-6.504-.043l-.001-.038-.001-.037-.002-.036-.002-.039-.002-.036-.003-.036-.004-.037-.004-.037-.004-.037-.005-.036-.005-.037-.006-.036-.006-.036-.006-.036-.006-.031-.017-.078-.016-.07-.019-.071-.021-.071-.022-.07-.024-.069-.025-.068-.027-.068-.029-.068-.031-.066-.032-.066-.033-.065-.036-.064-.037-.063-.038-.063-.043-.066-.017-.025-.021-.03-.022-.032-.021-.029-.022-.028-.023-.031-.023-.029-.023-.027-.024-.029-.024-.029-.024-.027-.025-.028-.025-.028-.025-.026-.026-.027-.026-.027-.027-.026-.026-.026-.028-.026-.027-.025-.027-.024-.029-.025-.028-.024-.028-.023-.029-.023-.029-.023-.029-.022-.03-.023-.03-.022-.029-.021-.03-.021-.026-.017-.066-.043-.063-.039-.063-.036-.064-.036-.065-.033-.066-.032-.066-.031-.068-.029-.068-.027-.057-.021-2.892 4.82z"/><g fill="none"><path d="m26 4c0-.53-.211-1.039-.586-1.414s-.884-.586-1.414-.586c-1.743 0-4.257 0-6 0-.53 0-1.039.211-1.414.586s-.586.884-.586 1.414v12c0 .53.211 1.039.586 1.414s.884.586 1.414.586h6c.53 0 1.039-.211 1.414-.586s.586-.884.586-1.414c0-3.074 0-8.926 0-12z" stroke="#000" stroke-width="4"/><path d="m9 6-2-2" stroke="#000" stroke-width="6"/><path d="m9 10h-4" stroke="#000" stroke-width="6"/><path d="m9 14-2 2" stroke="#000" stroke-width="6"/></g><path d="m13 12v5c0 1.259.593 2.445 1.6 3.2 1.114.835 2.4 1.8 2.4 1.8l-5 8h10l3-8s.588-.588 1.243-1.243c1.125-1.125 1.757-2.651 1.757-4.242 0-1.804 0-4.306 0-6.517 0-1.326-.527-2.597-1.464-3.534s-2.208-1.464-3.534-1.464c-.001 0-.002 0-.002 0l-4 7z" fill="#8ad9ed"/><g clip-path="url(#b)"><path d="m11 22h16v9h-16z" fill="#4caddd"/></g><path d="m26 4c0-.53-.211-1.039-.586-1.414s-.884-.586-1.414-.586c-1.743 0-4.257 0-6 0-.53 0-1.039.211-1.414.586s-.586.884-.586 1.414v12c0 .53.211 1.039.586 1.414s.884.586 1.414.586h6c.53 0 1.039-.211 1.414-.586s.586-.884.586-1.414c0-3.074 0-8.926 0-12z" fill="#fff"/><g clip-path="url(#c)"><path d="m25 4c0-.552-.448-1-1-1-1.537 0-4.463 0-6 0-.552 0-1 .448-1 1v12c0 .552.448 1 1 1h6c.552 0 1-.448 1-1 0-2.577 0-9.423 0-12z"/><g clip-path="url(#d)" fill="#333"><circle cx="21" cy="8" r="2"/><path d="m24 13c0-1.105-.895-2-2-2-.644 0-1.356 0-2 0-1.105 0-2 .895-2 2v4h6s0-2.255 0-4z"/></g><path d="m19 2h4v2h-4z" fill="#fff"/></g><path d="m13 10h7v1c0 .796-.316 1.559-.879 2.121-.562.563-1.325.879-2.121.879-1.9 0-4 0-4 0z" fill="#8ad9ed"/><path d="m9 6-2-2" fill="none" stroke="#fff" stroke-width="2"/><path d="m9 10h-4" fill="none" stroke="#fff" stroke-width="2"/><path d="m9 14-2 2" fill="none" stroke="#fff" stroke-width="2"/></g></svg>