<svg clip-rule="evenodd" fill-rule="evenodd" stroke-linecap="round" stroke-linejoin="round" stroke-miterlimit="1.5" viewBox="0 0 32 32" xmlns="http://www.w3.org/2000/svg" xmlns:xlink="http://www.w3.org/1999/xlink"><clipPath id="a"><path clip-rule="evenodd" d="m0 0h32v32h-32z"/></clipPath><clipPath id="b"><path clip-rule="evenodd" d="m28 18c0-7.18-5.82-13-13-13-7.18 0-13 5.82-13 13v1.006c0 6.072 4.922 10.994 10.994 10.994h4.012c6.072 0 10.994-4.922 10.994-10.994 0-.334 0-.67 0-1.006z"/></clipPath><path d="m0 0h32v32h-32z" fill="none"/><g clip-path="url(#a)"><path d="m23.451 8.121c.032-.08.068-.159.107-.237 1.185-2.37 2.942-5.884 2.942-5.884s1.757 3.514 2.942 5.884c.632 1.264.384 2.79-.615 3.789 0 0 0 0-.001.001-.536.536-1.24.869-1.988.946.746 1.639 1.162 3.461 1.162 5.38v1.006c0 6.072-4.922 10.994-10.994 10.994-1.328 0-2.684 0-4.012 0-6.072 0-10.994-4.922-10.994-10.994 0-.334 0-.67 0-1.006 0-7.18 5.82-13 13-13 3.226 0 6.178 1.175 8.451 3.121z" fill="none" stroke="#000" stroke-width="4"/><path d="m28 18c0-7.18-5.82-13-13-13-7.18 0-13 5.82-13 13v1.006c0 6.072 4.922 10.994 10.994 10.994h4.012c6.072 0 10.994-4.922 10.994-10.994 0-.334 0-.67 0-1.006z" fill="#fb4646"/><g clip-path="url(#b)"><path d="m31.235 6.999.043.086.044.097.042.096.041.097.038.098.036.098.035.099.032.1.03.098.029.1.026.101.024.101.022.101.02.101.018.101.016.101.014.102.013.103.01.101.008.101.006.102.004.103.002.101.001.101-.002.104-.004.101-.005.101-.008.102-.009.101-.012.1-.013.101-.016.1-.017.1-.019.1-.021.099-.023.099-.025.099-.026.097-.029.097-.03.097-.033.098-.034.095-.037.096-.038.095-.039.093-.042.094-.044.093-.046.092-.047.091-.049.09-.051.09-.053.089-.055.087-.056.087-.059.086-.06.085-.062.084-.064.084-.065.081-.067.08-.07.08-.071.078-.072.077-.067.069-.017.017-.086.083-.095.089-.098.086-.1.084-.102.082-.104.078-.105.076-.107.074-.108.07-.111.068-.112.065-.113.062-.115.06-.116.056-.117.054-.118.051-.12.048-.121.045-.122.042-.123.039-.124.036-.125.033-.126.03-.127.027-.128.024-.128.02-.129.018-.129.015-.13.011-.131.008-.131.005-.131.001-.131-.001-.131-.005-.131-.008-.13-.011-.129-.015-.129-.018-.128-.02-.128-.024-.127-.027-.126-.03-.125-.033-.124-.036-.123-.039-.122-.042-.12-.045-.121-.048-.118-.051-.117-.054-.116-.056-.115-.06-.114-.062-.111-.065-.11-.068-.109-.071-.107-.073-.105-.076-.104-.078-.102-.082-.099-.084-.098-.086-.097-.089-.085-.084-.017-.016-.067-.069-.073-.077-.07-.078-.069-.079-.068-.081-.065-.082-.064-.083-.062-.084-.06-.085-.059-.086-.056-.087-.055-.087-.053-.089-.051-.089-.049-.091-.048-.092-.045-.091-.043-.092-.042-.094-.041-.095-.037-.094-.037-.096-.034-.096-.032-.096-.031-.097-.029-.098-.026-.098-.025-.098-.023-.098-.021-.1-.019-.1-.018-.1-.015-.1-.013-.101-.012-.1-.009-.102-.008-.101-.005-.101-.004-.102-.002-.102.001-.102.002-.102.004-.101.006-.102.008-.103.01-.101.013-.102.014-.101.016-.101.018-.102.02-.102.022-.1.024-.101.027-.101.027-.099.031-.1.032-.099.034-.099.037-.098.038-.098.041-.097.042-.097.045-.097.042-.085 3.999-7.999h1.472zm-5.884 1.771-.016.033-.011.023-.01.023-.01.024-.009.024-.009.024-.008.024-.008.024-.007.023-.007.025-.006.024-.006.024-.006.025-.004.024-.005.024-.004.025-.003.025-.003.024-.003.025-.001.024-.002.025-.001.025v.025l-.001.024.001.025.001.025.001.025.002.025.002.024.003.024.003.025.004.024.004.025.005.024.005.024.006.024.006.025.006.023.007.023.007.024.009.025.008.022.009.023.009.024.009.022.01.022.011.023.011.023.012.021.011.022.013.022.013.021.013.021.013.021.015.021.014.021.015.02.016.02.015.02.016.019.017.02.018.019.017.018.018.018.025.025.023.021.024.021.025.021.024.02.026.019.025.019.027.018.026.016.027.017.027.016.028.015.028.015.028.013.028.014.029.012.029.011.03.012.03.01.03.009.03.009.031.008.03.008.031.006.031.006.031.005.032.004.031.004.032.003.032.001.032.002h.032.032l.032-.002.032-.001.032-.003.031-.004.032-.004.031-.005.031-.006.031-.006.03-.008.031-.008.03-.009.03-.009.03-.01.029-.011.03-.012.029-.012.028-.014.028-.013.028-.015.028-.015.027-.016.027-.016.027-.018.026-.018.025-.018.026-.019.024-.02.025-.02.023-.021.024-.023.025-.024.017-.017.018-.019.018-.019.016-.019.017-.02.016-.021.015-.019.015-.02.014-.021.015-.021.013-.021.013-.021.013-.021.012-.022.012-.022.012-.022.011-.022.01-.022.01-.022.01-.024.009-.023.009-.023.009-.023.007-.023.008-.024.007-.024.006-.024.006-.024.006-.023.005-.025.005-.024.004-.025.004-.024.003-.025.003-.024.002-.025.002-.024.001-.025.001-.026.001-.023-.001-.025v-.026l-.001-.023-.002-.025-.002-.026-.002-.025-.003-.023-.003-.024-.004-.025-.005-.025-.005-.025-.005-.024-.006-.024-.006-.024-.007-.024-.007-.025-.008-.023-.008-.024-.009-.024-.009-.024-.01-.024-.011-.024-.01-.023-.016-.032-1.149-2.298z" fill="#dc2a2a"/></g><path d="m23.034 9.501.046.002.045.005.045.007.045.008.044.011.044.013.043.015.042.016.041.019.041.02.04.023.038.024.038.026.036.027.035.029.034.031.032.032.031.034.029.035.027.036.026.038.024.038.023.04.02.041.019.041.016.042.015.043.013.044.011.044.008.045.007.045.005.045.002.046.001.045-.002.046-.003.045-.006.045-.008.045-.009.045-.012.044-.014.043-.016.043-.017.042-.02.041-.021.04-.024.039-.025.038-.026.037-.029.036-.029.034-.032.033-2.856 2.856 2.465.822.043.015.042.017.041.02.041.021.039.022.038.025.038.027.035.028.035.029.033.031.032.033.03.034.029.035.027.037.025.038.024.039.021.04.02.041.018.042.016.042.014.044.013.043.01.045.008.045.006.045.004.045.002.046v.045l-.003.046-.004.045-.006.045-.009.045-.01.044-.012.044-.015.043-.016.043-.018.041-.021.041-.021.04-.024.039-.026.037-.027.037-.029.035-.03.034-.032.033-.034.031-.034.029-.036.028-.038.026-.038.024-.04.023-.04.021-.041.019-.043.017-.043.015-.043.013-.044.011-.045.009-.045.007-.045.005-.046.003-.045.001-.046-.001-.045-.003-.045-.005-.045-.008-.045-.009-.044-.012-.043-.013-5.087-1.695-.114-.484 4.81-4.81.033-.032.034-.029.036-.029.037-.026.038-.025.039-.024.04-.021.041-.02.042-.017.043-.016.043-.014.044-.012.045-.009.045-.008.045-.006.045-.003.046-.002z"/><path d="m7.057 9.502.045.003.045.006.045.008.045.009.044.012.043.014.043.016.042.017.041.02.04.021.039.024.038.025.037.026.036.029.034.029.033.032 4.81 4.81-.114.484-5.087 1.695-.043.013-.044.012-.045.009-.045.008-.045.005-.045.003-.046.001-.045-.001-.046-.003-.045-.005-.045-.007-.045-.009-.044-.011-.043-.013-.043-.015-.043-.017-.041-.019-.04-.021-.04-.023-.038-.024-.038-.026-.036-.028-.034-.029-.034-.031-.032-.033-.03-.034-.029-.035-.027-.037-.026-.037-.024-.039-.021-.04-.021-.041-.018-.041-.016-.043-.015-.043-.012-.044-.01-.044-.009-.045-.006-.045-.004-.045-.003-.046v-.045l.002-.046.004-.045.006-.045.008-.045.01-.045.013-.043.014-.044.016-.042.018-.042.02-.041.021-.04.024-.039.025-.038.027-.037.029-.035.03-.034.032-.033.033-.031.035-.029.035-.028.038-.027.038-.025.039-.022.041-.021.041-.02.042-.017.043-.015 2.465-.822-2.856-2.856-.032-.033-.029-.034-.029-.036-.026-.037-.025-.038-.024-.039-.021-.04-.02-.041-.017-.042-.016-.043-.014-.043-.012-.044-.009-.045-.008-.045-.006-.045-.003-.045-.002-.046.001-.045.002-.046.005-.045.007-.045.008-.045.011-.044.013-.044.015-.043.016-.042.019-.041.02-.041.023-.04.024-.038.026-.038.027-.036.029-.035.031-.034.032-.032.034-.031.035-.029.036-.027.038-.026.038-.024.04-.023.041-.02.041-.019.042-.016.043-.015.044-.013.044-.011.045-.008.045-.007.045-.005.046-.002.045-.001z"/><path d="m9 24h-1.259c-.358 0-.689-.191-.867-.502-.178-.31-.177-.693.003-1.002.186-.318.389-.666.597-1.023 1.255-2.151 3.557-3.473 6.047-3.473h2.958c2.49 0 4.792 1.322 6.047 3.473.208.357.411.705.597 1.023.18.309.181.692.003 1.002-.178.311-.509.502-.867.502h-1.259l-2.109-.664c-.557-.835-7.225-.835-7.782 0z" fill="#4d0b0b"/><path d="m21 24h-1l-1-1 1-.5zm-11-1.5 1 .5-1 1h-1z" fill="#801e36"/><path d="m10 23v-.5l.109-.164c.557-.835 1.494-1.336 2.497-1.336h4.788c1.003 0 1.94.501 2.497 1.336l.109.164v1h-.005c-.055 1.172-.544 2.284-1.377 3.118-.886.885-2.086 1.382-3.338 1.382-.186 0-.374 0-.56 0-1.252 0-2.452-.497-3.338-1.382-.833-.834-1.322-1.946-1.377-3.118h-.005v-.22z" fill="#9a1756"/><path d="m26.5 2s-1.757 3.514-2.942 5.884c-.632 1.264-.384 2.79.615 3.789 0 0 0 0 .001.001.617.617 1.453.963 2.326.963s1.709-.346 2.326-.963c.001-.001.001-.001.001-.001.999-.999 1.247-2.525.615-3.789-1.185-2.37-2.942-5.884-2.942-5.884z" fill="#fff"/></g></svg>