<svg clip-rule="evenodd" fill-rule="evenodd" stroke-linejoin="round" stroke-miterlimit="1.41421" viewBox="0 0 32 32" xmlns="http://www.w3.org/2000/svg" xmlns:xlink="http://www.w3.org/1999/xlink"><clipPath id="a"><path clip-rule="evenodd" d="m0-.017h32v32h-32z"/></clipPath><path d="m0-.017h32v32h-32z" fill="none"/><g clip-path="url(#a)"><path d="m16.206.985.206.003.205.007.205.009.204.012.203.014.203.017.201.019.202.021.2.025.2.026.199.03.198.031.198.034.197.036.195.039.195.041.195.044.193.046.192.048.192.051.19.052.19.056.188.057.188.06.186.061.186.064.184.067.184.068.182.071.181.073.181.074.179.077.177.08.177.081.176.083.174.085.173.088.172.089.171.092.169.093.169.095.166.098.166.099.164.101.163.103.162.105.16.107.159.109.158.11.156.113.154.114.153.116.152.118.151.119.148.122.148.123.145.125.145.126.142.128.142.13.139.132.138.133.137.135.135.136.133.138.131.14.13.141.128.143.127.144.125.146.123.147.121.149.12.15.117.152.116.153.115.155.112.156.111.157.108.159.107.16.105.162.103.163.101.164.1.166.097.167.095.168.094.169.091.171.09.172.087.173.085.175.083.175.082.177.079.178.077.179.075.18.073.181.07.183.069.183.066.184.064.186.062.187.059.187.058.189.055.189.053.191.05.191.048.192.046.194.044.194.041.195.039.196.036.196.034.198.032.198.029.199.027.2.024.201.022.201.019.202.016.202.015.204.011.204.009.204.007.205.004.206.001.2v.515l-.001.161-.003.167-.005.168-.008.167-.009.166-.011.167-.014.166-.015.165-.017.166-.02.165-.021.164-.024.165-.025.163-.028.164-.029.163-.032.162-.033.162-.035.161-.038.161-.039.16-.041.16-.043.16-.045.158-.047.158-.049.157-.051.157-.053.156-.054.156-.057.154-.058.154-.06.153-.062.153-.064.152-.066.15-.068.15-.069.15-.071.148-.073.148-.075.147-.077.145-.079.145-.08.144-.082.143-.084.143-.085.141-.088.14-.089.139-.091.138-.092.137-.095.136-.096.135-.098.134-.099.133-.101.131-.103.131-.105.129-.106.128-.108.127-.11.125-.111.125-.113.123-.114.122-.117.121-.117.119-.12.118-.12.116-.122.114-.123.113-.125.112-.126.109-.126.108-.128.106-.13.105-.13.103-.132.101-.132.1-.134.097-.135.097-.136.094-.137.093-.138.09-.14.09-.14.087-.141.086-.142.083-.143.082-.144.081-.145.078-.146.077-.146.075-.148.073-.149.071-.149.07-.15.067-.151.066-.152.064-.152.062-.153.06-.154.058-.155.057-.155.054-.156.053-.157.051-.157.049-.158.047-.159.045-.159.043-.16.041-.16.04-.161.037-.161.035-.162.034-.163.031-.163.029-.163.028-.164.025-.164.024-.165.021-.165.02-.165.017-.166.016-.166.013-.166.011-.167.01-.167.007-.167.005-.167.003-.162.001h-5.016l-.162-.001-.167-.003-.167-.005-.167-.007-.167-.01-.166-.011-.166-.013-.166-.016-.165-.017-.165-.02-.165-.021-.164-.024-.164-.025-.163-.028-.163-.029-.163-.031-.162-.034-.161-.035-.161-.037-.16-.04-.16-.041-.159-.043-.159-.045-.158-.047-.157-.049-.157-.051-.156-.053-.155-.054-.155-.057-.154-.058-.153-.06-.152-.062-.152-.064-.151-.066-.15-.067-.149-.07-.149-.071-.148-.073-.146-.075-.146-.077-.145-.078-.144-.081-.143-.082-.142-.083-.141-.086-.14-.087-.14-.09-.138-.09-.137-.093-.136-.094-.135-.097-.134-.097-.132-.1-.132-.101-.13-.103-.13-.105-.128-.106-.127-.108-.125-.109-.125-.112-.123-.113-.122-.114-.12-.116-.12-.118-.117-.119-.117-.121-.114-.122-.113-.123-.111-.125-.11-.125-.108-.127-.106-.128-.105-.129-.103-.131-.101-.131-.099-.133-.098-.134-.096-.135-.095-.136-.092-.137-.091-.138-.089-.139-.088-.14-.085-.142-.084-.142-.082-.143-.08-.144-.079-.145-.077-.145-.074-.147-.074-.148-.071-.148-.069-.15-.068-.15-.066-.151-.064-.151-.062-.153-.06-.153-.058-.154-.057-.154-.054-.156-.053-.156-.051-.157-.049-.157-.047-.158-.045-.159-.043-.159-.041-.159-.039-.161-.038-.161-.035-.161-.033-.162-.032-.162-.029-.163-.028-.164-.025-.163-.024-.165-.021-.164-.02-.165-.017-.166-.015-.165-.014-.166-.011-.167-.009-.166-.008-.167-.005-.168-.003-.167-.001-.161v-.515l.001-.2.004-.206.007-.205.009-.204.011-.204.015-.204.016-.202.019-.202.022-.201.024-.201.027-.2.029-.199.032-.198.034-.198.036-.196.039-.196.041-.195.044-.194.046-.194.048-.192.05-.191.053-.191.055-.189.058-.189.059-.187.062-.187.064-.186.066-.184.069-.183.07-.183.073-.181.075-.18.077-.179.079-.178.081-.177.084-.175.085-.175.087-.173.09-.172.091-.171.094-.169.095-.168.097-.167.1-.166.101-.164.103-.163.105-.162.107-.16.108-.159.111-.157.112-.156.115-.155.116-.153.117-.152.12-.15.121-.149.123-.147.125-.146.127-.144.128-.143.13-.141.131-.14.133-.138.135-.136.137-.135.138-.133.139-.132.142-.13.142-.128.145-.127.145-.124.148-.123.148-.122.151-.119.152-.118.153-.116.154-.114.156-.113.158-.11.159-.109.16-.107.162-.105.163-.103.164-.101.166-.099.166-.098.169-.095.169-.093.171-.092.172-.089.173-.088.174-.085.176-.083.177-.081.177-.08.179-.077.181-.074.181-.073.182-.071.184-.068.184-.067.186-.064.186-.061.188-.06.188-.057.19-.056.19-.052.192-.051.192-.048.193-.046.195-.044.195-.041.195-.039.197-.036.198-.034.198-.031.199-.03.2-.026.2-.025.202-.021.201-.019.203-.017.203-.014.204-.012.205-.009.205-.007.206-.003.2-.002h.012l.2.002zm-.362 3.999-.155.003-.154.005-.154.007-.154.009-.152.01-.153.013-.151.014-.151.017-.151.018-.15.02-.149.022-.149.023-.148.026-.147.027-.147.029-.146.031-.145.033-.145.034-.143.036-.144.038-.142.039-.142.042-.141.043-.141.044-.139.046-.139.048-.138.05-.137.051-.137.053-.135.054-.135.057-.134.057-.134.059-.132.061-.131.063-.131.064-.13.065-.129.067-.128.069-.127.069-.126.072-.125.073-.124.074-.123.076-.122.078-.122.078-.12.081-.119.081-.118.083-.118.085-.116.085-.115.087-.114.089-.112.09-.112.091-.111.092-.109.094-.109.095-.107.096-.106.098-.105.099-.104.1-.102.101-.102.103-.1.103-.098.105-.098.106-.096.107-.095.109-.094.109-.093.111-.091.112-.089.113-.089.114-.087.115-.086.116-.084.117-.083.118-.082.119-.08.121-.079.121-.077.122-.076.123-.074.125-.073.125-.072.126-.07.127-.068.128-.067.129-.066.129-.064.131-.062.131-.061.133-.059.133-.058.134-.056.135-.054.136-.053.136-.051.137-.05.138-.048.139-.046.14-.045.14-.043.141-.041.142-.039.143-.038.143-.036.144-.035.144-.032.146-.031.146-.029.146-.027.148-.026.148-.024.148-.021.15-.02.149-.019.151-.016.151-.014.152-.013.152-.011.153-.008.153-.007.154-.005.155-.003.155-.001.162v.489l.001.124.002.118.004.118.005.117.006.118.008.117.01.117.011.116.012.116.013.117.016.115.016.116.018.115.019.115.021.115.022.114.024.114.025.113.026.114.027.112.029.113.031.112.032.111.033.112.034.11.036.111.037.109.038.11.04.109.041.108.042.108.044.107.045.107.046.106.048.106.049.105.05.104.051.104.053.103.054.103.055.102.057.101.057.101.059.1.061.099.061.099.063.098.064.097.065.096.066.096.068.095.069.094.07.093.071.093.072.092.074.091.075.09.076.089.077.088.078.088.08.087.08.085.082.085.083.084.084.083.085.082.086.081.086.079.088.079.088.077.09.076.09.074.091.074.091.072.093.072.093.07.094.068.095.068.096.066.097.065.097.064.098.063.098.062.099.06.1.059.101.058.102.056.101.055.103.054.103.053.104.051.105.051.105.048.105.048.107.046.106.045.108.044.107.042.109.041.109.04.109.039.11.037.11.035.111.035.111.033.112.032.112.03.112.029.113.027.113.027.114.025.113.023.115.022.114.021.115.019.115.018.116.017.116.015.116.014.116.012.117.011.117.009.117.008.117.007.117.005.118.003.118.003h.124 4.992.124l.118-.003.118-.003.117-.005.117-.007.117-.008.117-.009.117-.011.116-.012.116-.014.116-.015.116-.017.115-.018.115-.019.114-.021.115-.022.113-.023.114-.025.113-.027.113-.027.113-.029.111-.03.112-.032.111-.033.111-.035.11-.035.11-.037.109-.039.109-.04.109-.041.107-.042.108-.044.106-.045.107-.046.105-.048.105-.048.105-.051.104-.051.103-.053.103-.054.101-.055.102-.056.101-.058.1-.059.099-.06.098-.062.098-.063.098-.064.096-.065.096-.066.095-.068.094-.068.093-.07.093-.072.091-.072.091-.074.091-.074.089-.076.088-.077.088-.079.086-.079.086-.081.085-.082.084-.083.083-.084.082-.085.08-.085.08-.087.078-.088.077-.088.076-.089.075-.09.074-.091.072-.092.071-.093.07-.093.069-.094.068-.095.066-.096.065-.096.064-.097.063-.098.061-.099.061-.099.059-.1.057-.101.057-.101.055-.102.054-.103.053-.103.051-.104.05-.104.049-.105.048-.106.046-.106.045-.107.044-.107.042-.108.041-.108.04-.109.038-.11.037-.109.036-.111.034-.11.033-.112.032-.111.031-.112.029-.113.027-.112.026-.114.025-.113.024-.114.022-.114.021-.115.019-.115.018-.115.016-.116.016-.115.013-.117.012-.116.011-.116.01-.117.008-.117.006-.118.005-.117.004-.118.002-.118.001-.124v-.489l-.001-.162-.003-.155-.005-.155-.007-.154-.008-.153-.011-.153-.013-.152-.014-.152-.016-.151-.019-.151-.02-.149-.021-.15-.024-.148-.026-.148-.027-.148-.029-.146-.031-.146-.032-.146-.035-.144-.036-.144-.038-.143-.039-.143-.041-.142-.043-.141-.045-.14-.046-.14-.048-.139-.05-.138-.051-.137-.053-.136-.054-.136-.056-.135-.058-.134-.059-.133-.061-.133-.062-.131-.064-.131-.066-.129-.067-.129-.068-.128-.07-.127-.072-.126-.073-.126-.074-.124-.076-.123-.077-.122-.079-.121-.08-.121-.082-.119-.083-.118-.084-.117-.086-.116-.087-.115-.089-.114-.089-.113-.091-.112-.093-.111-.094-.109-.095-.109-.096-.107-.098-.106-.098-.105-.1-.103-.102-.103-.102-.101-.104-.1-.105-.099-.106-.098-.107-.096-.109-.095-.109-.094-.111-.092-.112-.091-.112-.09-.114-.089-.115-.087-.117-.085-.117-.085-.118-.083-.119-.081-.12-.081-.122-.078-.122-.078-.123-.076-.124-.074-.125-.073-.127-.072-.127-.07-.127-.068-.129-.067-.13-.065-.131-.064-.131-.063-.132-.061-.134-.059-.134-.057-.135-.057-.135-.054-.137-.053-.137-.051-.138-.05-.139-.048-.139-.046-.141-.044-.141-.043-.142-.042-.142-.039-.144-.038-.143-.036-.145-.034-.145-.033-.146-.031-.147-.029-.147-.027-.148-.026-.149-.023-.149-.022-.15-.02-.151-.018-.151-.017-.151-.014-.153-.013-.152-.01-.154-.009-.154-.007-.154-.005-.155-.003-.156-.001z"/><path d="m30 16.983c0-7.732-6.268-14-14-14-7.732 0-14 6.268-14 14v.502c0 3.05 1.211 5.974 3.368 8.131 2.156 2.156 5.081 3.367 8.13 3.367h5.004c3.049 0 5.974-1.211 8.13-3.367 2.157-2.157 3.368-5.081 3.368-8.131 0-.167 0-.334 0-.502z" fill="#fbc546"/><path d="m26.087 17.987.087.011.085.019.083.027.081.033.077.04.074.047.069.053.064.059.059.065.053.069.047.073.04.078.034.08.026.083.019.086.011.086.004.087-.004.087-.011.087-.019.085-.026.083-.034.081-.04.077-.047.074-.053.069-.059.064-3.105 3.106-.064.062-.069.065-.071.062-.071.061-.073.059-.074.057-.075.055-.076.053-.077.051-.078.049-.079.048-.08.045-.08.043-.081.042-.082.039-.083.038-.084.035-.084.034-.084.032-.085.029-.086.028-.086.026-.087.024-.087.021-.088.02-.087.018-.088.016-.089.014-.088.011-.089.01-.089.008-.089.006-.09.004-.089.002h-.089l-.09-.002-.089-.004-.09-.006-.089-.008-.089-.01-.089-.012-.089-.014-.088-.016-.088-.018-.088-.02-.088-.022-.087-.024-.087-.026-.086-.029-.086-.03-.086-.032-.084-.034-.085-.037-.083-.038-.083-.04-.082-.043-.082-.044-.08-.046-.08-.049-.079-.05-.078-.053-.077-.054-.076-.057-.07-.055-1.029-.823-.039-.031-.035-.026-.036-.025-.036-.025-.036-.023-.036-.023-.037-.022-.037-.021-.038-.02-.038-.019-.038-.018-.038-.018-.039-.016-.039-.016-.039-.015-.039-.014-.04-.013-.04-.013-.04-.011-.04-.011-.041-.01-.04-.009-.041-.008-.041-.007-.041-.007-.041-.005-.042-.005-.041-.004-.042-.003-.041-.002-.041-.001-.042-.001-.042.001-.041.001-.041.002-.042.003-.041.004-.042.005-.041.005-.041.007-.041.007-.041.008-.04.009-.041.01-.04.011-.04.011-.04.013-.04.013-.039.014-.039.015-.039.016-.039.016-.038.018-.038.018-.038.019-.038.02-.037.021-.037.022-.036.023-.036.023-.036.025-.036.025-.035.026-.039.031-1.029.823-.07.055-.076.057-.077.054-.078.053-.079.05-.08.049-.08.046-.082.044-.082.043-.083.04-.083.038-.085.037-.084.034-.086.032-.086.03-.086.029-.087.026-.087.024-.088.022-.088.02-.088.018-.088.016-.089.014-.089.012-.089.01-.089.008-.09.006-.089.004-.09.002h-.089l-.089-.002-.09-.004-.089-.006-.089-.008-.089-.01-.088-.011-.089-.014-.088-.016-.087-.018-.088-.02-.087-.021-.087-.024-.086-.026-.086-.028-.085-.029-.084-.032-.084-.034-.084-.035-.083-.038-.082-.039-.081-.042-.08-.043-.08-.045-.079-.048-.078-.049-.077-.051-.076-.053-.075-.055-.074-.057-.073-.059-.071-.061-.071-.062-.069-.065-.064-.062-3.105-3.106-.059-.064-.053-.069-.047-.074-.04-.077-.034-.081-.026-.083-.019-.085-.011-.087-.004-.087.004-.087.011-.086.019-.086.026-.083.034-.08.04-.078.047-.073.053-.069.059-.065.064-.059.069-.053.074-.047.077-.04.081-.033.083-.027.085-.019.087-.011.087-.004.087.004.087.011.085.019.083.027.081.033.077.04.074.047.069.053.064.059 3.097 3.097.039.038.035.033.035.031.036.03.036.03.037.028.038.028.038.026.038.026.039.024.039.024.04.022.04.022.04.021.041.019.041.019.042.018.042.017.042.015.043.015.042.014.044.013.043.012.043.011.044.01.044.008.044.008.045.007.044.006.045.005.044.004.045.003.045.002.045.001h.044l.045-.001.045-.002.045-.003.045-.004.044-.005.045-.006.044-.007.044-.008.044-.009.044-.01.044-.011.043-.012.044-.013.043-.014.043-.015.042-.016.042-.017.042-.018.042-.019.041-.02.041-.022.041-.022.04-.023.04-.024.039-.025.039-.027.039-.027.038-.028.043-.034 1.028-.823.065-.05.07-.052.07-.051.072-.048.072-.048.073-.045.074-.044.074-.042.075-.04.076-.038.077-.037.077-.035.077-.034.078-.031.079-.03.079-.029.08-.026.08-.025.08-.023.081-.022.081-.019.081-.018.082-.017.082-.014.082-.013.082-.011.082-.009.083-.008.083-.006.082-.004.083-.003.083-.001.083.001.083.003.082.004.083.006.083.008.082.009.082.011.082.013.082.014.082.017.081.018.081.019.081.022.08.023.08.025.08.026.079.029.079.03.078.031.077.034.077.035.077.037.076.038.075.04.074.042.074.044.073.046.072.047.072.048.07.051.07.052.065.05 1.028.823.043.034.038.028.039.027.039.027.039.025.04.024.04.023.041.022.041.022.041.02.042.019.042.018.042.017.042.016.043.015.043.014.044.013.043.012.044.011.044.01.044.009.044.008.044.007.045.006.044.005.045.004.045.003.045.002.045.001h.044l.045-.001.045-.002.045-.003.044-.004.045-.005.044-.006.045-.007.044-.008.044-.008.044-.01.043-.011.043-.012.044-.013.042-.014.043-.015.042-.015.042-.017.042-.018.041-.019.041-.019.04-.021.04-.022.04-.022.039-.024.039-.024.038-.026.038-.026.038-.028.037-.028.036-.03.036-.03.035-.031.035-.033.039-.038 3.097-3.097.064-.059.069-.053.074-.047.077-.04.081-.033.083-.027.085-.019.087-.011.087-.004.087.004z" fill="#593604"/><path d="m24 14.277c0-.808-.404-1.563-1.077-2.012-.86-.573-1.923-1.282-1.923-1.282s0 0-.001 0c-.552 0-.999.448-.999.999v3.003c0 1.104.895 1.998 1.998 1.998h.004c1.103 0 1.998-.894 1.998-1.998 0-.24 0-.481 0-.708z"/><path d="m8 12.837c0-1.136.642-2.175 1.658-2.683 1.1-.55 2.342-1.171 2.342-1.171h.001c.552 0 .999.448.999.999v3.503c0 .663-.263 1.298-.732 1.767-.468.468-1.103.731-1.766.731-.001 0-.003 0-.004 0-1.38 0-2.498-1.118-2.498-2.498 0-.218 0-.436 0-.648z"/></g></svg>