<svg clip-rule="evenodd" fill-rule="evenodd" stroke-linejoin="round" stroke-miterlimit="1.41421" viewBox="0 0 32 32" xmlns="http://www.w3.org/2000/svg" xmlns:xlink="http://www.w3.org/1999/xlink"><clipPath id="a"><path clip-rule="evenodd" d="m0 0h32v32h-32z"/></clipPath><path d="m0 0h32v32h-32z" fill="none"/><g clip-path="url(#a)"><path d="m14.152.16.115.004.114.007.114.01.114.012.114.015.113.018.113.021.113.023.112.026.112.029.111.031.111.034.11.037.109.04.109.042.108.046.107.047.106.051.105.053.104.056.103.059.101.061.101.065.099.066.098.07.096.072.094.075.094.077.091.08.09.083.073.071.019.018.082.083.082.087.079.09.078.091.075.093.072.095.07.096.068.098.065.099.062.101.06.102.058.104.055.105.052.106.049.107.047.109.045.109.041.111.039.112.036.112.033.114.031.114.028.116.025.116.022.117.02.117.002.017.162.034.164.037.164.038.163.04.162.042.161.045.161.045.16.048.159.05.158.051.157.054.157.055.156.057.154.058.154.061.153.062.152.064.151.065.151.068.149.069.148.071.148.072.146.074.145.076.145.077.143.079.142.081.141.082.14.084.139.085.138.087.137.089.136.09.135.091.133.093.133.095.131.096.13.098.129.099.127.1.127.102.125.103.124.105.123.106.121.108.121.108.119.111.117.111.117.113.115.115.113.115.113.117.111.118.11.12.108.121.107.122.105.123.105.124.102.126.102.127.099.128.099.13.097.13.095.132.094.133.093.134.091.135.089.136.088.137.086.139.085.139.083.141.082.141.079.143.079.144.077.145.075.145.073.147.072.148.07.149.068.149.067.151.065.152.063.152.061.153.06.154.058.156.056.156.055.157.052.157.051.159.049.159.047.16.045.161.043.162.042.162.039.163.038.164.035.165.034.165.032.166.03.167.027.167.026.168.024.169.022.169.02.17.018.17.015.171.014.172.012.172.009.172.002.056.01.006.09.05.089.053.087.055.087.058.085.06.084.062.083.065.082.067.079.07.078.071.068.065.019.019.064.065.07.075.069.076.066.078.064.079.062.081.06.083.058.083.056.085.053.086.052.088.049.088.047.09.045.09.042.092.041.093.037.094.036.094.033.096.032.096.028.097.026.098.024.098.022.1.019.1.017.1.014.101.011.101.01.103.006.102.004.102.002.103-.001.103-.004.103-.006.102-.008.102-.011.102-.014.1-.016.101-.018.1-.021.1-.024.098-.025.098-.028.097-.031.097-.032.095-.036.096-.037.094-.04.092-.042.092-.044.092-.046.089-.049.089-.051.088-.053.086-.055.085-.057.084-.06.083-.062.081-.064.08-.065.078-.068.077-.07.075-.063.065-4.949 4.949-.629-.634-.107.086-.129.101-.13.099-.131.097-.132.095-.134.094-.135.092-.136.09-.138.089-.139.087-.139.085-.142.083-.142.082-.144.079-.144.078-.146.076-.147.074-.149.073-.149.07-.15.069-.151.066-.153.065-.153.062-.155.061-.155.059-.157.056-.157.055-.159.053-.159.05-.16.048-.161.047-.162.044-.163.042-.164.04-.164.038-.166.036-.166.033-.166.031-.168.029-.168.027-.169.025-.17.022-.17.02-.172.018-.171.015-.172.013-.173.011-.174.008-.174.006-.174.004-.168.001h-3.019l-.199-.002-.207-.005-.206-.008-.205-.012-.204-.015-.204-.018-.202-.022-.202-.024-.201-.028-.199-.031-.199-.035-.198-.037-.196-.041-.196-.043-.194-.047-.193-.049-.192-.053-.191-.056-.189-.058-.188-.061-.187-.065-.186-.067-.184-.07-.183-.072-.014-.007-2.775 2.775-5.436-5.469-.076-.078-.083-.09-.08-.091-.077-.093-.075-.094-.072-.096-.069-.098-.067-.099-.064-.1-.061-.101-.058-.103-.056-.103-.053-.106-.051-.105-.047-.107-.045-.107-.042-.109-.04-.109-.036-.11-.034-.11-.031-.111-.029-.112-.026-.112-.023-.112-.02-.113-.017-.113-.015-.114-.012-.113-.009-.114-.007-.114-.004-.114-.001-.114.001-.114.005-.114.007-.114.009-.114.013-.113.015-.114.018-.113.02-.113.024-.112.026-.112.028-.111.032-.111.034-.111.037-.109.04-.109.042-.109.045-.107.048-.107.051-.105.053-.105.057-.103.058-.103.062-.101.064-.1.067-.099.07-.097.072-.096.075-.094.078-.092.08-.091.083-.09.076-.078.085-.085.053-.052.06-.057.06-.055.061-.054.063-.054.063-.052.064-.051.031-.024-.025-.203-.022-.207-.019-.208-.016-.208-.012-.209-.009-.21-.005-.211-.002-.204v-.519l.001-.187.004-.194.007-.193.009-.192.012-.192.014-.192.017-.19.02-.19.022-.189.024-.189.027-.187.029-.187.032-.186.035-.185.037-.185.039-.183.041-.183.044-.182.047-.181.048-.179.051-.18.054-.177.055-.177.058-.176.06-.175.063-.174.064-.173.067-.172.069-.17.071-.17.073-.168.076-.167.077-.166.08-.165.081-.163.084-.163.086-.161.087-.159.09-.159.092-.157.093-.156.096-.154.098-.154.099-.151.102-.151.103-.149.105-.147.107-.147.109-.144.11-.144.113-.141.114-.14.035-.042-.635-.638-.077-.08-.084-.09-.08-.092-.078-.094-.076-.096-.073-.096-.07-.099-.067-.1-.065-.101-.062-.102-.059-.104-.056-.105-.054-.106-.051-.106-.048-.108-.046-.109-.042-.109-.04-.111-.037-.111-.034-.111-.032-.112-.029-.113-.026-.113-.023-.113-.02-.115-.018-.114-.015-.114-.012-.115-.01-.115-.006-.115-.004-.116-.001-.115.001-.115.004-.115.007-.115.01-.115.013-.115.015-.115.018-.114.021-.114.023-.113.026-.113.03-.113.031-.112.035-.112.037-.111.04-.11.043-.109.046-.109.048-.107.051-.107.054-.106.057-.104.06-.103.062-.103.065-.101.067-.099.071-.099.073-.097.075-.095.079-.093.081-.092.083-.09.078-.08.019-.019.077-.076.088-.081.09-.079.091-.077.093-.074.095-.072.097-.07.098-.067.099-.064.101-.062.102-.06.104-.056.104-.055.107-.051.107-.049.109-.047.109-.044.111-.041.111-.038.113-.036.114-.032.114-.03.115-.028.116-.024.117-.022.117-.019.118-.016.118-.013.119-.01.12-.007.12-.004.119-.002.121.002.119.005.12.007.119.011.118.013.118.017.117.019.117.022.116.025.115.027.114.031.113.033.113.036.111.039.111.041.109.044.109.047.107.05.106.052.104.054.104.057.102.06.101.062.099.065.098.068.096.069.093.072.006-.005.095-.074.097-.072.098-.069.099-.066.101-.064.102-.061.103-.059.104-.055.105-.053.106-.05.107-.048.108-.044.109-.042.11-.039.11-.037.111-.033.111-.031.112-.029.112-.025.113-.023.113-.02.114-.018.114-.014.114-.012.114-.009.114-.007.115-.004.114-.001.114.002zm-.142 3.999h-.02l-.02.001-.019.002-.02.002-.02.003-.019.003-.019.003-.02.004-.019.004-.019.005-.019.005-.018.006-.019.006-.018.007-.019.007-.018.007-.018.008-.017.008-.018.009-.017.009-.017.01-.017.01-.017.011-.017.011-.016.012-.017.012-.016.013-.016.013-.016.014-.016.014-.025.024-2.461 2.419-2.357-2.373-.024-.023-.015-.015-.015-.013-.016-.013-.016-.013-.016-.013-.016-.011-.017-.012-.017-.011-.017-.011-.018-.01-.018-.01-.018-.009-.018-.009-.018-.009-.019-.008-.019-.007-.018-.007-.02-.007-.019-.006-.019-.006-.02-.005-.02-.005-.02-.004-.019-.004-.021-.003-.02-.003-.02-.002-.021-.002-.02-.001-.02-.001h-.021-.021-.021l-.02.002-.02.001-.02.003-.021.002-.02.004-.02.003-.02.005-.019.004-.02.005-.019.006-.02.006-.019.007-.019.007-.019.007-.018.008-.019.009-.018.008-.018.01-.018.01-.017.01-.018.01-.017.011-.016.012-.017.012-.016.012-.016.013-.016.013-.015.013-.015.015-.016.015-.016.017-.015.016-.014.016-.014.016-.013.017-.012.016-.012.017-.012.017-.011.017-.01.016-.01.018-.009.017-.009.018-.009.018-.008.018-.008.018-.007.018-.007.019-.006.019-.006.019-.005.019-.005.019-.005.019-.004.019-.003.02-.003.02-.003.02-.002.02-.002.019-.001.02-.001.02v.021.02l.001.019.001.021.002.019.002.02.002.02.003.02.004.019.004.02.004.019.005.019.006.02.005.019.007.018.006.019.007.018.008.018.008.018.009.018.009.018.009.017.01.018.01.017.011.017.011.017.012.016.013.017.013.016.013.016.014.017.015.016.024.025 3.479 3.497-1.667 1.501-.095.088-.094.089-.092.09-.092.092-.09.092-.089.094-.088.095-.087.096-.085.097-.084.098-.083.099-.082.101-.081.101-.079.102-.078.104-.076.104-.075.106-.074.106-.073.108-.071.108-.069.11-.069.11-.066.111-.066.113-.064.113-.063.114-.061.115-.06.116-.058.116-.057.118-.055.118-.054.119-.052.12-.05.121-.05.122-.047.122-.046.123-.045.124-.042.124-.041.126-.04.126-.038.127-.036.127-.035.128-.033.129-.031.13-.03.13-.028.13-.026.132-.025.132-.023.133-.021.133-.019.134-.017.135-.016.135-.014.136-.012.136-.01.137-.009.138-.006.138-.005.138-.003.139-.001.147v.489l.001.153.004.144.006.144.008.143.011.142.013.141.015.141.018.14.019.139.022.139.025.137.026.137.029.136.03.135.033.134.551 2.099-1.982.504-.013.003-.013.004-.012.004-.013.004-.012.004-.013.005-.012.004-.012.005-.012.006-.012.005-.012.005-.012.006-.012.006-.011.006-.012.007-.011.006-.012.007-.011.007-.011.007-.011.007-.011.008-.01.007-.011.008-.011.008-.01.009-.01.008-.01.009-.01.009-.01.009-.01.009-.016.015-.055.056-.023.024-.014.015-.013.015-.013.015-.013.016-.011.015-.012.016-.01.016-.01.015-.01.017-.01.016-.009.016-.008.017-.008.017-.008.017-.007.017-.007.017-.006.018-.006.017-.006.018-.005.018-.004.018-.005.018-.003.018-.004.019-.003.019-.002.018-.002.019-.002.019-.001.018-.001.019v.019.019l.001.019.001.019.002.018.002.019.002.019.003.019.003.018.004.018.004.018.005.018.005.018.005.018.006.018.007.017.006.017.007.018.008.017.008.017.008.016.009.017.009.016.01.016.01.016.011.016.011.015.012.016.012.016.013.015.013.015.014.015.024.024 2.589 2.606 2.004-2.004 1.447.799.117.062.118.06.119.059.12.057.121.055.122.053.123.051.123.049.125.048.126.045.127.044.127.041.128.04.13.038.13.035.131.034.132.032.132.029.134.028.134.025.135.023.135.021.137.019.137.017.138.015.138.012.14.011.14.008.141.005.141.004.15.001h2.989l.127-.001.119-.002.119-.004.119-.006.118-.007.117-.009.117-.011.117-.012.115-.013.116-.016.115-.016.114-.019.114-.019.113-.021.113-.023.112-.024.112-.026.111-.027.11-.029.11-.03.109-.031.109-.033.108-.034.107-.036.107-.037.106-.038.105-.04.105-.041.104-.043.103-.043.103-.046.102-.046.101-.048.101-.049.1-.05.099-.052.098-.053.098-.054.096-.055.096-.057.096-.058.094-.059.093-.06.093-.062.092-.062.091-.064.09-.065.09-.066.088-.067.087-.069.087-.069.086-.071.084-.072.084-.073.083-.073.082-.075.081-.076.079-.077.079-.078.078-.079.077-.08.076-.082.074-.082 1.497-1.686.684.689 2.093-2.093.011-.011.002-.002.002-.003.003-.002.001-.003.002-.002.002-.003.002-.002.002-.003.001-.003.002-.002.001-.003.002-.003.001-.003.002-.003.001-.003.001-.003.001-.003.001-.003.001-.003.001-.003.001-.003.001-.003v-.004l.001-.002v-.003l.001-.004v-.003-.003l.001-.003v-.003-.004-.003-.003l-.001-.004v-.003-.003l-.001-.003v-.003l-.001-.003-.001-.003v-.003l-.001-.004-.001-.003-.001-.003-.001-.003-.001-.003-.001-.003-.002-.003-.001-.002-.001-.003-.002-.003-.002-.003-.001-.003-.002-.002-.002-.003-.001-.003-.002-.002-.002-.003-.002-.002-.002-.003-.002-.002-.002-.002-.003-.003-.004-.004-.003-.003-.003-.002-.002-.002-.002-.002-.003-.001-.002-.002-.002-.001-.002-.002-.002-.001-.002-.001-.002-.001-.002-.001-.003-.001-.002-.001-.002-.001-.003-.001-.002-.001-.002-.001h-.003l-.003-.001-.002-.001h-.003l-.003-.001h-.002l-.003-.001h-.003-.003l-.003-.001h-.003-.003l-2.094.006.064-2.147.002-.073.001-.073v-.078-.494l-.001-.132-.002-.124-.004-.125-.005-.124-.007-.124-.008-.123-.01-.123-.011-.122-.013-.122-.014-.121-.016-.121-.017-.12-.018-.12-.02-.12-.021-.119-.023-.118-.024-.118-.026-.117-.026-.117-.028-.116-.03-.116-.031-.115-.032-.115-.033-.114-.035-.113-.036-.113-.038-.113-.039-.111-.04-.112-.041-.11-.042-.11-.044-.109-.045-.109-.046-.108-.048-.107-.049-.107-.05-.106-.051-.105-.052-.105-.054-.104-.055-.103-.055-.103-.057-.102-.059-.101-.059-.1-.061-.1-.061-.099-.063-.098-.064-.097-.065-.097-.066-.095-.067-.096-.068-.094-.07-.093-.07-.093-.072-.091-.072-.091-.073-.09-.075-.089-.076-.088-.076-.088-.078-.086-.078-.086-.08-.084-.08-.084-.081-.083-.083-.081-.083-.081-.084-.08-.086-.079-.086-.078-.087-.077-.087-.076-.089-.075-.09-.074-.09-.073-.092-.072-.092-.07-.093-.07-.093-.069-.095-.067-.096-.067-.096-.065-.097-.065-.098-.063-.098-.062-.1-.061-.1-.06-.1-.059-.102-.057-.102-.057-.103-.055-.104-.054-.104-.053-.105-.051-.106-.051-.107-.049-.107-.048-.107-.047-.109-.045-.109-.045-.11-.043-.11-.042-.111-.04-.111-.039-.112-.038-.113-.037-.113-.035-.114-.034-.114-.033-.115-.031-.116-.03-.116-.029-.117-.028-.117-.026-.117-.024-.119-.023-.118-.022-.119-.021-.12-.019-.12-.017-.121-.016-.121-.015-.122-.014-.122-.011-.122-.011-.123-.009-2.385-.143-.296-.457.808-2.148.007-.018.006-.019.005-.019.005-.018.005-.019.004-.019.004-.019.003-.019.003-.019.003-.019.002-.02.001-.02.001-.019.001-.019v-.02-.021l-.001-.021-.001-.021-.002-.02-.002-.02-.003-.021-.004-.02-.003-.02-.005-.02-.005-.02-.005-.02-.006-.019-.006-.02-.007-.019-.007-.019-.007-.019-.008-.019-.009-.018-.009-.019-.01-.018-.009-.018-.011-.017-.011-.018-.011-.017-.011-.017-.013-.016-.012-.016-.013-.017-.013-.015-.014-.016-.014-.015-.015-.015-.017-.016-.016-.015-.016-.014-.016-.013-.016-.013-.016-.012-.017-.012-.016-.011-.017-.011-.017-.01-.017-.01-.018-.009-.017-.009-.018-.008-.018-.008-.017-.008-.019-.007-.018-.007-.019-.006-.018-.006-.019-.005-.019-.005-.019-.004-.019-.004-.02-.004-.019-.003-.02-.003-.019-.002-.02-.001-.02-.002h-.02l-.019-.001-.02.001z"/><path d="m28 17.998c0-6.626-5.372-11.998-11.998-11.998-.001 0-.003 0-.004 0-6.626 0-11.998 5.372-11.998 11.998v.504c0 5.798 4.7 10.498 10.498 10.498h3.004c5.798 0 10.498-4.7 10.498-10.498 0-.168 0-.336 0-.504z" fill="#fbc546"/><path d="m11 12.017s-2.919-2.935-4.977-5.004c-1.098-1.104-1.096-2.888.005-3.988 0-.001.001-.002.002-.002.531-.532 1.253-.83 2.004-.829.752.002 1.472.302 2.002.835.533.537.964.971.964.971s.476-.468 1.051-1.033c1.101-1.082 2.866-1.078 3.962.008 0 .001.001.001.001.002.536.53.838 1.252.839 2.006.002.754-.297 1.477-.83 2.01-2.079 2.08-5.023 5.024-5.023 5.024z" fill="#d92020"/><path d="m7 30.017s-2.273-2.288-4.013-4.038c-1.078-1.085-1.076-2.838.006-3.92.024-.023.047-.046.07-.07.523-.522 1.232-.815 1.97-.813.739.002 1.446.298 1.966.823.001.001.001.001.001.001s.03-.029.082-.08c1.085-1.057 2.816-1.049 3.892.016.027.027.054.055.082.082.524.519.82 1.227.821 1.965.002.739-.29 1.447-.813 1.969-1.761 1.761-4.064 4.065-4.064 4.065z" fill="#d92020"/><path d="m11.103 19.005.062.009.062.012.061.016.059.02.058.024.057.027.055.031.052.034.051.037.048.041.045.043.043.046.04.049.036.051.334.502.043.063.041.058.042.059.043.057.044.057.045.055.045.056.046.054.047.053.048.053.048.052.049.051.05.05.05.049.052.049.052.048.052.046.054.046.054.046.054.044.055.043.056.043.057.041.057.041.058.04.058.039.059.038.059.038.06.036.06.035.061.035.062.033.062.033.062.031.063.031.064.03.064.029.064.027.065.027.065.026.065.025.066.024.067.023.067.022.067.02.067.02.068.019.068.018.069.017.069.015.069.015.069.014.07.012.07.012.07.01.071.009.07.009.071.007.071.006.072.005.071.004.072.003.072.001.073.001.073-.001.072-.001.072-.003.071-.004.072-.005.071-.006.071-.007.07-.009.071-.009.07-.01.07-.012.07-.012.069-.014.069-.015.069-.015.069-.017.068-.018.068-.019.067-.02.067-.02.067-.022.067-.023.066-.024.065-.025.065-.026.065-.027.064-.027.064-.029.064-.03.063-.031.062-.031.062-.033.062-.033.061-.035.06-.035.06-.036.059-.038.059-.038.058-.039.058-.04.057-.041.057-.041.056-.043.055-.043.054-.044.054-.046.054-.046.052-.046.052-.048.052-.049.05-.049.05-.05.049-.051.048-.052.048-.053.047-.053.046-.054.045-.056.045-.055.044-.057.043-.057.042-.059.041-.058.043-.063.334-.502.036-.051.04-.049.043-.046.045-.043.048-.041.051-.037.052-.034.055-.031.057-.027.058-.024.059-.02.061-.016.062-.012.062-.009.063-.004.063-.001.062.004.063.007.061.011.061.015.06.019.059.023.057.026.055.03.054.033.051.036.049.04.046.043.043.045.041.048.037.051.034.052.031.055.027.057.024.058.02.059.016.061.012.062.009.062.004.063.001.063-.004.062-.007.063-.011.061-.015.061-.019.06-.023.059-.026.057-.03.055-.033.054-.338.507-.056.083-.06.084-.06.084-.061.082-.063.081-.064.08-.065.079-.066.078-.068.077-.068.075-.07.075-.07.073-.071.072-.073.071-.074.069-.074.069-.076.067-.076.066-.077.065-.079.063-.079.063-.08.061-.081.06-.082.058-.083.057-.083.056-.085.055-.085.053-.086.052-.086.051-.088.05-.088.048-.089.046-.089.046-.091.044-.091.042-.091.042-.093.039-.093.039-.093.037-.094.036-.095.034-.095.033-.096.031-.096.03-.097.028-.097.027-.098.026-.099.024-.098.022-.1.022-.099.019-.1.018-.101.017-.1.015-.101.013-.102.012-.102.01-.102.009-.102.007-.103.006-.103.004-.103.002-.099.001h-.01l-.099-.001-.103-.002-.103-.004-.103-.006-.102-.007-.102-.009-.102-.01-.102-.012-.101-.013-.1-.015-.101-.017-.1-.018-.099-.019-.1-.022-.098-.022-.099-.024-.098-.026-.097-.027-.097-.028-.096-.03-.096-.031-.095-.033-.095-.034-.094-.036-.093-.037-.093-.039-.093-.039-.091-.042-.091-.042-.091-.044-.089-.046-.089-.046-.088-.048-.088-.05-.086-.051-.086-.052-.085-.053-.085-.055-.083-.056-.083-.057-.082-.058-.081-.06-.08-.061-.079-.063-.079-.063-.077-.065-.076-.066-.076-.067-.074-.069-.074-.069-.073-.071-.071-.072-.07-.073-.07-.075-.068-.075-.068-.077-.066-.078-.065-.079-.064-.08-.063-.081-.061-.082-.06-.084-.06-.084-.056-.083-.338-.507-.033-.054-.03-.055-.026-.057-.023-.059-.019-.06-.015-.061-.011-.061-.007-.063-.004-.062.001-.063.004-.063.009-.062.012-.062.016-.061.02-.059.024-.058.027-.057.031-.055.034-.052.037-.051.041-.048.043-.045.046-.043.049-.04.051-.036.054-.033.055-.03.057-.026.059-.023.06-.019.061-.015.061-.011.063-.007.062-.004.063.001.063.004z" fill="#593604"/><path d="m25.208 14.794c.187.187.292.441.292.706s-.105.519-.292.706c-.001.001-.001.001-.002.002-.39.39-1.022.39-1.412 0-.74-.739-1.794-1.794-1.794-1.794s-1.054 1.055-1.794 1.794c-.39.39-1.022.39-1.412 0-.001 0-.001-.001-.001-.001-.391-.39-.391-1.024 0-1.414 1.127-1.128 3.207-3.207 3.207-3.207s2.08 2.08 3.208 3.208z" fill-rule="nonzero"/><path d="m13.225 14.811c.183.183.286.431.286.689s-.103.506-.286.689c-.4.401-1.049.401-1.45 0-.738-.738-1.775-1.775-1.775-1.775s-1.037 1.037-1.775 1.775c-.401.401-1.05.401-1.45 0-.183-.183-.286-.431-.286-.689s.103-.506.286-.689c1.123-1.123 3.225-3.225 3.225-3.225s2.102 2.102 3.225 3.225z" fill-rule="nonzero"/><path d="m26 26.017s-2.016-2.031-3.479-3.505c-.821-.827-.818-2.162.006-2.986 0-.001.001-.001.001-.002.399-.399.941-.623 1.506-.621.565.001 1.105.228 1.503.629.267.27.463.468.463.468s.238-.232.552-.538c.824-.803 2.14-.798 2.958.011.001 0 .001.001.002.001.403.399.631.942.633 1.509s-.223 1.112-.624 1.513c-1.483 1.483-3.521 3.521-3.521 3.521z" fill="#d92020"/></g></svg>