<svg clip-rule="evenodd" fill-rule="evenodd" stroke-linecap="round" stroke-linejoin="round" stroke-miterlimit="1.5" viewBox="0 0 32 32" xmlns="http://www.w3.org/2000/svg" xmlns:xlink="http://www.w3.org/1999/xlink"><clipPath id="a"><path clip-rule="evenodd" d="m0 0h32v32h-32z"/></clipPath><path d="m0 0h32v32h-32z" fill="none"/><g clip-path="url(#a)"><path d="m5 5.826v-3.826s5.47 2.735 8.318 4.159c.063.031.122.065.18.102.807-.171 1.644-.261 2.502-.261h.002c3.182 0 6.234 1.264 8.484 3.514.899.9 1.641 1.927 2.208 3.04.756.105 1.533.037 2.271-.209.567-.189 1.035-.345 1.035-.345v3s-.468.156-1.035.345c-.395.132-.801.212-1.21.243.162.787.245 1.594.245 2.41v1.002c0 1.753-.419 3.463-1.2 4.997.926.644 2.039 1.003 3.199 1.003h.001l-2 3s0 0-.001 0c-1.079 0-2.118-.311-3.003-.873-.031.484-.237.942-.582 1.287-.375.375-.884.586-1.414.586h-1.417c-1.425.653-2.986 1-4.583 1-.665 0-1.335 0-2 0-2.917 0-5.715-1.159-7.778-3.222-.489-.489-.927-1.019-1.311-1.582-1.23.528-2.56.804-3.911.804l1-3c.572 0 1.139-.049 1.697-.146-.457-1.221-.697-2.525-.697-3.854 0-.333 0-.666 0-1 0-2.076.527-4.028 1.454-5.731-.292-.356-.454-.804-.454-1.269v-1.465c-.879-.279-1.72-.682-2.496-1.199-.301-.201-.504-.336-.504-.336l2-3c.309.309.644.585 1 .826zm19 1.174v-3s-.411 0-.929 0c-1.326 0-2.598-.527-3.535-1.464-.305-.305-.536-.536-.536-.536v3s.231.231.536.536c.937.937 2.209 1.464 3.535 1.464z" fill="none" stroke="#000" stroke-width="4"/><path d="m23 25s.136.204.336.505c1.04 1.559 2.789 2.495 4.663 2.495h.001l2-3s0 0-.001 0c-1.874 0-3.623-.936-4.663-2.495-.2-.301-.336-.505-.336-.505z" fill="#f229a2"/><path d="m2 8 2-3c1.281 1.281 3.017 2 4.828 2h1.172l-2 3c-1.956 0-3.869-.579-5.496-1.664-.301-.201-.504-.336-.504-.336z" fill="#f229a2"/><path d="m4.756 23.007c-.495-1.265-.756-2.622-.756-4.007 0-.333 0-.666 0-1 0-6.627 5.373-12 12-12h.002c.342 0 .683.015 1.022.044l7.03 3.059c.147.133.291.27.432.411 1.278 1.278 2.237 2.814 2.828 4.486 0 0 .179 2.489.682 3.671.003.109.004.218.004.327v1.002c0 2.917-1.159 5.715-3.222 7.778s-4.861 3.222-7.778 3.222c-.665 0-1.335 0-2 0-2.706 0-5.309-.997-7.318-2.788-.212-1.509-1.917-3.738-2.926-4.205z" fill="#fbc546"/><path d="m4.756 23.007c.946.036 1.884.206 2.784.506.736.246 1.46.487 1.46.487l-1 3-.318.212c-.157-.14-.311-.284-.46-.434-1.084-1.084-1.918-2.37-2.466-3.771zm22.558-9.007c.414 1.171.647 2.409.682 3.671-.88-.734-1.894-1.304-2.996-1.671l1-2zm-10.29-7.956c2.61.223 5.081 1.295 7.03 3.059l-2.036.221c-1.827.199-3.593-.723-4.476-2.334z" fill="#e59a10"/><path d="m25.207 16.793c.391.39.391 1.024 0 1.414-.39.391-1.024.391-1.414 0-.739-.739-1.793-1.793-1.793-1.793s-1.071 1.071-1.811 1.811c-.183.183-.431.286-.689.286s-.506-.103-.689-.286c-.193-.192-.301-.453-.301-.725s.108-.533.301-.725c1.131-1.131 3.189-3.189 3.189-3.189s2.08 2.079 3.207 3.207z" fill-rule="nonzero"/><path d="m13.208 16.794c.187.187.292.441.292.706s-.105.519-.292.706c0 .001-.001.001-.001.001-.39.391-1.024.391-1.414 0-.739-.739-1.793-1.793-1.793-1.793s-1.071 1.071-1.811 1.811c-.183.183-.431.286-.689.286s-.506-.103-.689-.286c-.193-.192-.301-.453-.301-.725s.108-.533.301-.725c1.131-1.131 3.189-3.189 3.189-3.189s2.08 2.08 3.208 3.208z" fill-rule="nonzero"/><path d="m10.196 12.392c-.941.395-1.966.608-3.023.608-.058 0-.116 0-.173 0-.53 0-1.039-.211-1.414-.586s-.586-.884-.586-1.414c0-3.172 0-9 0-9l1.45 1.366 4.169 7.123z" fill="#8012da"/><path d="m10.196 12.392-5.196-10.392s5.47 2.735 8.318 4.159c.929.465 1.306 1.594.841 2.523v.001c-.851 1.7-2.271 2.998-3.963 3.709z" fill="#982eee"/><path d="m14 22.91c0 .059.01.119.029.176.162.488.985 2.957 1.515 4.546.272.817 1.037 1.368 1.898 1.368h3.558c1.105 0 2-.895 2-2s-3.072-3.687-4.4-5.28c-.38-.456-.943-.72-1.537-.72-.346 0-.753 0-1.155 0-1.054 0-1.908.854-1.908 1.908z" fill="#5462cb"/><path d="m25 27c0-.53-.211-1.039-.586-1.414s-.884-.586-1.414-.586c-1.488 0-3.512 0-5 0-.53 0-1.039.211-1.414.586s-.586.884-.586 1.414.211 1.039.586 1.414.884.586 1.414.586h5c.53 0 1.039-.211 1.414-.586s.586-.884.586-1.414z" fill="#2438b9"/><g fill="#f229a2"><path d="m2 26 1-3c1.956 0 3.869-.579 5.496-1.664.301-.201.504-.336.504-.336l-1 3s-.203.135-.504.336c-1.627 1.085-3.54 1.664-5.496 1.664z"/><path d="m30 15v-3s-.468.156-1.035.345c-1.258.419-2.631.322-3.817-.271-.093-.046-.148-.074-.148-.074v3s.055.028.148.074c1.186.593 2.559.69 3.817.271.567-.189 1.035-.345 1.035-.345z"/><path d="m24 7v-3s-.411 0-.929 0c-1.326 0-2.598-.527-3.535-1.464-.305-.305-.536-.536-.536-.536v3s.231.231.536.536c.937.937 2.209 1.464 3.535 1.464z"/></g></g></svg>