<svg clip-rule="evenodd" fill-rule="evenodd" stroke-linecap="round" stroke-linejoin="round" stroke-miterlimit="1.5" viewBox="0 0 32 32" xmlns="http://www.w3.org/2000/svg" xmlns:xlink="http://www.w3.org/1999/xlink"><clipPath id="a"><path clip-rule="evenodd" d="m0 0h32v32h-32z"/></clipPath><path d="m0 0h32v32h-32z" fill="none"/><g clip-path="url(#a)"><path d="m16 2c3.713 0 7.274 1.475 9.899 4.101 2.626 2.625 4.101 6.186 4.101 9.899v3c0 6.075-4.925 11-11 11-1.972 0-4.028 0-6 0-2.288 0-4.414-.699-6.174-1.895l-1.326 1.895-3.5-5h1.779c-1.125-1.726-1.779-3.786-1.779-6 0-.986 0-1.993 0-3 0-3.45 1.248-6.609 3.317-9.049l-.984-2.951h4.452c2.107-1.27 4.576-2 7.215-2z" fill="none" stroke="#000" stroke-width="4"/><path d="m30 16c0-3.713-1.475-7.274-4.101-9.899-2.625-2.626-6.186-4.101-9.899-4.101-7.732 0-14 6.268-14 14v3c0 6.075 4.925 11 11 11h6c6.075 0 11-4.925 11-11 0-.986 0-1.993 0-3z" fill="#579aff"/><path d="m26 21c0-.796-.316-1.559-.879-2.121-.562-.563-1.325-.879-2.121-.879-3.776 0-10.224 0-14 0-.796 0-1.559.316-2.121.879-.563.562-.879 1.325-.879 2.121v1c0 .796.316 1.559.879 2.121.562.563 1.325.879 2.121.879h14c.796 0 1.559-.316 2.121-.879.563-.562.879-1.325.879-2.121 0-.331 0-.669 0-1z" fill="#0c6dff"/><path d="m24.216 19.412c.07.053.136.111.198.174.375.375.586.884.586 1.414v1c0 .53-.211 1.039-.586 1.414-.186.187-.405.332-.644.432-.452-1.084-15.088-1.084-15.54 0-.239-.1-.458-.245-.644-.432-.375-.375-.586-.884-.586-1.414 0-.329 0-.671 0-1 0-.53.211-1.039.586-1.414.062-.063.128-.121.198-.174.816.985 15.616.985 16.432 0z" fill="#707070"/><path d="m8.23 23.846c.149-.359.368-.688.648-.968.562-.562 1.325-.878 2.12-.878h10.002c1.248 0 2.318.762 2.77 1.846-.242.101-.503.154-.77.154-3.463 0-10.537 0-14 0-.267 0-.528-.053-.77-.154zm-.446-4.434c.347-.266.774-.412 1.216-.412h14c.442 0 .869.146 1.216.412-.816.985-2.044 1.588-3.377 1.588-2.803 0-6.875 0-9.678 0-1.333 0-2.561-.603-3.377-1.588z" fill="#fff"/><path d="m11 11.5c0-.828-.672-1.5-1.5-1.5s-1.5.672-1.5 1.5v3c0 .828.672 1.5 1.5 1.5s1.5-.672 1.5-1.5c0-.916 0-2.084 0-3z"/><path d="m24 11.5c0-.828-.672-1.5-1.5-1.5s-1.5.672-1.5 1.5v3c0 .828.672 1.5 1.5 1.5s1.5-.672 1.5-1.5c0-.916 0-2.084 0-3z"/><g fill="#e6f0ff"><path d="m19.667 17h10.333l-2 6-1.5-3-3.5 7z"/><path d="m2 25h7l-3.5 5z"/><path d="m4.333 4h9.667l-3 6-1.5-4-2.5 6z"/></g></g></svg>