<svg clip-rule="evenodd" fill-rule="evenodd" stroke-linejoin="round" stroke-miterlimit="1.41421" viewBox="0 0 32 32" xmlns="http://www.w3.org/2000/svg" xmlns:xlink="http://www.w3.org/1999/xlink"><clipPath id="a"><path clip-rule="evenodd" d="m0 .017h32v32h-32z"/></clipPath><path d="m0 .017h32v32h-32z" fill="none"/><g clip-path="url(#a)"><path d="m16.199.018.198.004.198.006.198.008.198.011.197.014.197.016.196.018.196.021.196.023.195.025.195.028.194.03.193.033.194.035.192.037.192.04.191.041.191.045.19.046.19.049.188.051.188.054.187.055.187.058.186.06.185.063.184.065.183.067.183.069.181.071.181.074.18.075.179.078.178.08.176.083.176.084.176.087.173.089.173.091.172.093.171.095.169.097.169.099.167.102.166.103.165.106.164.108.162.11.161.111.16.114.159.116.157.118.156.12.155.122.153.124.152.126.15.128.149.13.148.132.146.134.144.136.143.137.142.14.139.141.138.143.136.145.134.146.132.147.13.149.128.151.126.152.124.153.121.154.12.156.118.158.116.158.114.16.112.161.11.163.108.164.105.165.104.166.101.167.1.168.097.17.095.171.093.172.091.172.089.174.086.175.085.176.082.177.08.178.078.179.076.18.074.18.071.182.069.183.067.183.065.184.062.185.06.186.058.186.056.188.053.187.052.189.049.19.046.19.044.19.042.192.04.192.037.192.035.193.032.194.031.194.028.195.025.195.023.195.021.196.018.197.016.196.013.198.011.197.009.198.006.198.004.199.001.192v2.013l-.001.174-.004.18-.005.179-.008.179-.01.179-.013.178-.014.177-.017.177-.019.176-.021.175-.024.175-.025.174-.028.174-.03.172-.031.173-.034.171-.036.171-.039.17-.04.169-.042.168-.044.168-.046.166-.048.166-.051.165-.052.164-.054.163-.056.163-.058.161-.06.161-.062.16-.063.158-.066.158-.067.156-.07.156-.071.155-.073.153-.074.153-.077.152-.078.15-.08.149-.082.149-.083.147-.085.146-.087.145-.089.143-.09.143-.092.141-.093.141-.095.139-.097.137-.098.137-.1.135-.102.134-.103.133-.104.132-.107.13-.107.129-.11.127-.11.127-.112.124-.114.124-.115.122-.117.121-.117.119-.12.118-.121.117-.122.115-.123.113-.125.113-.126.11-.128.109-.129.108-.13.106-.132.105-.132.103-.134.101-.136.1-.136.099-.138.096-.139.096-.14.093-.142.092-.142.09-.144.089-.145.086-.146.086-.147.083-.148.082-.15.08-.15.078-.152.077-.152.074-.154.073-.155.071-.155.069-.157.068-.158.065-.158.064-.16.062-.16.06-.162.058-.162.056-.163.054-.165.052-.165.05-.165.048-.167.047-.168.044-.168.042-.169.04-.17.038-.171.036-.171.034-.172.032-.173.03-.173.028-.175.025-.174.023-.176.022-.176.019-.177.016-.177.015-.178.012-.178.011-.179.007-.18.006-.18.004-.174.001h-4.012l-.174-.001-.18-.004-.18-.006-.179-.007-.178-.011-.178-.012-.177-.015-.177-.016-.176-.019-.176-.022-.174-.023-.175-.025-.173-.028-.173-.03-.172-.032-.171-.034-.171-.036-.17-.038-.169-.04-.168-.042-.168-.044-.167-.047-.165-.048-.165-.05-.165-.052-.163-.054-.162-.056-.162-.058-.16-.06-.16-.062-.158-.064-.158-.065-.157-.068-.155-.069-.155-.071-.154-.073-.152-.074-.152-.077-.15-.078-.15-.08-.148-.082-.147-.083-.146-.085-.145-.087-.144-.089-.142-.09-.142-.092-.14-.093-.139-.096-.138-.096-.136-.099-.136-.1-.134-.101-.132-.103-.132-.105-.13-.106-.129-.108-.128-.109-.126-.11-.125-.113-.123-.113-.122-.115-.121-.117-.119-.118-.118-.119-.117-.121-.115-.122-.114-.124-.112-.124-.11-.127-.11-.127-.107-.129-.107-.13-.104-.132-.103-.133-.102-.134-.1-.135-.098-.137-.097-.137-.095-.139-.093-.141-.092-.141-.09-.143-.089-.143-.087-.145-.085-.146-.083-.147-.082-.149-.08-.149-.078-.15-.077-.152-.074-.153-.073-.153-.071-.155-.07-.156-.067-.156-.066-.158-.063-.159-.062-.159-.06-.16-.058-.162-.056-.163-.054-.163-.052-.164-.051-.165-.048-.166-.046-.166-.044-.168-.042-.168-.04-.169-.039-.17-.036-.171-.034-.171-.031-.173-.03-.172-.028-.174-.025-.174-.024-.175-.021-.175-.019-.176-.017-.177-.014-.177-.013-.178-.01-.179-.008-.179-.005-.179-.004-.18-.001-.174v-2.013l.001-.199.004-.206.007-.205.009-.205.011-.204.015-.203.016-.203.019-.202.022-.201.024-.201.027-.199.029-.199.032-.199.034-.197.036-.197.039-.196.041-.195.044-.194.046-.193.048-.192.05-.192.053-.19.055-.19.058-.188.059-.188.062-.187.064-.185.066-.185.069-.183.07-.182.073-.182.075-.18.077-.179.079-.178.082-.177.083-.175.085-.174.087-.173.09-.173.091-.17.094-.17.095-.168.097-.167.1-.165.101-.165.103-.163.105-.161.107-.16.108-.159.111-.158.112-.156.115-.155.116-.153.117-.151.12-.151.121-.149.123-.147.125-.146.127-.144.128-.143.13-.141.131-.14.133-.138.135-.136.137-.135.138-.133.139-.132.142-.129.142-.129.144-.126.146-.125.148-.123.148-.121.151-.12.151-.118.154-.116.155-.114.155-.112.158-.111.159-.109.16-.107.162-.104.163-.104.164-.101.165-.099.167-.097.169-.096.169-.093.171-.091.172-.09.173-.087.174-.086.176-.083.177-.081.177-.079.179-.077.181-.075.181-.073.182-.07.184-.069.184-.066.186-.064.186-.062.188-.06.188-.057.19-.055.19-.053.192-.05.192-.049.193-.046.195-.043.195-.041.195-.039.197-.037.198-.034.198-.031.199-.029.2-.027.2-.024.201-.022.202-.019.203-.017.203-.014.204-.012.205-.009.205-.006.206-.004.2-.001h.012l.193.001zm-.355 4-.155.003-.154.005-.154.006-.154.009-.152.011-.153.012-.151.015-.151.016-.151.018-.15.02-.149.022-.149.024-.148.025-.147.028-.147.029-.146.03-.145.033-.145.034-.143.036-.144.038-.142.04-.142.041-.141.043-.141.045-.139.046-.139.048-.138.049-.137.052-.137.052-.136.055-.134.056-.134.058-.134.059-.132.061-.131.062-.131.064-.13.065-.129.067-.128.069-.127.07-.126.071-.125.073-.124.075-.123.076-.122.077-.122.079-.12.08-.119.081-.118.084-.118.084-.116.086-.115.087-.114.088-.113.09-.111.091-.111.093-.109.093-.109.095-.107.097-.106.097-.105.099-.104.1-.102.101-.101.103-.101.104-.098.105-.098.106-.096.107-.095.108-.094.11-.093.11-.091.112-.089.113-.089.114-.087.115-.086.116-.084.117-.083.119-.082.119-.08.12-.079.121-.077.123-.076.123-.074.124-.073.125-.072.126-.07.127-.068.128-.067.129-.066.13-.064.13-.062.132-.061.132-.059.133-.058.134-.056.135-.054.136-.053.136-.051.138-.05.138-.048.139-.046.139-.045.14-.043.142-.041.141-.039.143-.038.143-.036.144-.035.145-.032.145-.031.146-.029.147-.027.147-.026.148-.024.149-.021.149-.02.15-.019.15-.016.151-.014.152-.013.152-.011.153-.008.154-.007.154-.005.154-.003.155-.001.162v1.988l.001.136.002.129.004.129.006.128.007.128.009.127.011.127.012.127.013.126.015.125.017.125.018.124.02.124.021.123.023.123.024.122.026.122.027.121.029.12.03.12.031.12.033.119.035.118.035.117.037.117.039.116.04.116.041.115.043.114.044.114.045.113.047.112.048.112.05.111.05.11.052.11.053.109.055.108.056.107.057.107.058.106.06.105.06.104.063.104.063.102.064.102.066.101.067.1.068.1.069.098.07.098.072.097.072.095.074.095.075.095.076.093.077.092.078.091.079.091.08.089.082.088.082.088.083.086.085.086.085.084.087.084.087.082.089.081.089.081.09.079.092.078.092.077.093.076.094.075.095.073.096.073.097.072.097.07.099.069.099.068.1.067.102.065.102.065.102.063.104.062.104.061.105.06.106.058.106.057.108.056.108.054.109.054.109.052.111.05.111.05.111.048.113.046.113.046.113.044.115.042.115.042.115.04.117.038.117.037.117.036.118.035.119.032.119.032.12.03.121.029.121.027.122.025.122.025.123.022.123.022.124.019.124.019.125.016.125.015.126.014.127.012.126.01.128.009.128.008.128.005.129.004.129.003.136.001h3.988l.136-.001.129-.003.129-.004.128-.005.128-.008.128-.009.126-.01.127-.012.126-.014.125-.015.125-.016.124-.019.124-.019.123-.022.123-.022.123-.025.121-.025.121-.027.121-.029.12-.03.119-.032.119-.032.118-.035.117-.036.117-.037.117-.038.115-.04.115-.042.115-.042.113-.044.113-.046.113-.046.112-.048.111-.05.11-.05.109-.052.109-.054.108-.054.108-.056.106-.057.106-.058.105-.06.104-.061.104-.062.102-.063.102-.065.102-.065.1-.067.099-.068.099-.069.097-.07.097-.072.096-.073.095-.073.094-.075.093-.076.092-.077.092-.078.09-.079.089-.081.089-.081.087-.083.087-.083.085-.084.085-.086.083-.086.082-.088.082-.088.08-.089.079-.091.078-.091.077-.092.076-.093.075-.095.074-.095.072-.095.072-.097.07-.098.069-.098.068-.1.067-.1.066-.101.064-.102.063-.102.063-.104.06-.104.06-.105.058-.106.057-.107.056-.107.055-.108.053-.109.052-.11.05-.11.05-.111.048-.112.047-.112.045-.113.044-.114.043-.114.041-.115.04-.116.039-.116.037-.117.035-.117.035-.118.033-.119.031-.12.03-.12.029-.12.027-.121.026-.122.024-.122.023-.123.021-.123.02-.124.018-.124.017-.125.015-.125.013-.126.012-.127.011-.127.009-.127.007-.128.006-.128.004-.129.002-.13.001-.136v-1.987l-.001-.155-.003-.149-.004-.149-.007-.149-.008-.148-.01-.147-.012-.148-.014-.147-.015-.147-.018-.147-.019-.146-.021-.147-.022-.145-.025-.145-.026-.145-.028-.144-.029-.144-.032-.144-.033-.143-.035-.142-.037-.142-.038-.142-.04-.141-.042-.14-.043-.14-.045-.139-.047-.139-.049-.138-.05-.138-.052-.137-.053-.136-.056-.136-.056-.134-.059-.135-.06-.133-.062-.133-.063-.132-.065-.131-.067-.13-.068-.13-.07-.129-.071-.128-.073-.127-.074-.126-.076-.126-.078-.125-.079-.123-.081-.123-.083-.122-.083-.121-.086-.12-.087-.119-.088-.118-.09-.116-.092-.116-.093-.115-.094-.114-.096-.113-.097-.112-.099-.11-.101-.11-.102-.108-.103-.107-.105-.107-.106-.104-.107-.104-.108-.101-.11-.101-.111-.099-.111-.097-.113-.096-.114-.095-.115-.093-.116-.091-.117-.09-.118-.089-.119-.087-.12-.085-.121-.084-.121-.082-.123-.081-.124-.079-.124-.078-.126-.076-.126-.074-.127-.073-.129-.072-.128-.07-.13-.068-.13-.066-.132-.065-.132-.064-.132-.061-.134-.061-.134-.058-.135-.057-.135-.055-.137-.054-.136-.051-.138-.051-.138-.048-.139-.047-.139-.045-.14-.044-.14-.041-.142-.04-.141-.039-.142-.036-.143-.035-.143-.033-.143-.032-.144-.03-.144-.028-.145-.026-.145-.024-.146-.023-.146-.021-.146-.019-.147-.017-.147-.016-.147-.013-.148-.012-.148-.01-.148-.009-.148-.006-.149-.005-.149-.002-.149-.001-.156.001z"/><path d="m30 16.017c0-3.713-1.475-7.274-4.101-9.9-2.625-2.625-6.186-4.1-9.899-4.1-7.732 0-14 6.268-14 14v2c0 6.627 5.373 12 12 12h4c6.627 0 12-5.373 12-12 0-.663 0-1.332 0-2z" fill="#fbc546"/><circle cx="8" cy="13.017" fill="#fff" r="5"/><circle cx="24" cy="13.017" fill="#fff" r="5"/><circle cx="8" cy="13.017" r="4"/><circle cx="24" cy="13.017" r="4"/><circle cx="7" cy="12.017" fill="#4d4d4d" r="2"/><circle cx="23" cy="12.017" fill="#4d4d4d" r="2"/><path d="m20.182 19.022.103.006.101.009.101.012.101.014.099.016.099.019.098.022.097.023.096.026.095.029.095.03.093.033.092.035.091.037.09.04.088.041.088.043.086.046.085.047.083.05.083.051.081.053.079.056.078.057.077.058.075.061.074.062.072.064.071.066.068.067.068.069.066.071.064.072.062.074.06.075.059.076.057.078.055.08.054.081.051.082.049.084.048.085.045.086.044.087.041.089.039.09.038.091.035.092.032.093.031.094.028.095.026.097.024.097.021.098.019.098.017.1.014.1.011.101.009.102.007.102.004.103.001.097v.983l-.003.074-.008.075-.014.073-.019.072-.025.071-.03.069-.035.066-.04.063-.044.06-.049.057-.053.053-.056.049-.061.044-.063.04-.066.035-.069.03-.07.024-.072.02-.074.014-.074.008-.075.003-.075-.003-.074-.008-.074-.014-.072-.02-.07-.024-.069-.03-.066-.035-.063-.04-.06-.044-.057-.049-.053-.053-.049-.057-.044-.06-.04-.063-.035-.066-.03-.069-.025-.071-.019-.072-.014-.073-.008-.075-.003-.074v-.97l-.001-.059-.002-.053-.003-.051-.005-.052-.005-.05-.007-.051-.009-.05-.009-.05-.011-.049-.012-.048-.013-.048-.014-.048-.015-.047-.017-.046-.017-.046-.019-.046-.019-.045-.021-.044-.022-.044-.023-.044-.024-.042-.024-.042-.026-.042-.027-.04-.028-.04-.029-.04-.029-.038-.031-.039-.031-.037-.033-.036-.033-.036-.034-.035-.035-.034-.035-.033-.037-.032-.037-.031-.038-.031-.039-.03-.039-.028-.04-.028-.041-.027-.041-.026-.042-.025-.043-.024-.043-.022-.044-.022-.044-.021-.045-.02-.046-.018-.046-.018-.047-.016-.047-.015-.047-.015-.048-.013-.049-.011-.049-.011-.049-.01-.05-.008-.051-.007-.051-.006-.051-.004-.052-.004-.052-.002h-.059-.05-.042l-.037.001-.038.002-.037.002-.037.003-.037.004-.037.005-.037.005-.036.005-.037.007-.036.007-.037.008-.036.008-.036.009-.035.01-.036.011-.035.011-.035.011-.035.013-.035.013-.035.013-.034.015-.034.014-.034.016-.033.016-.033.017-.033.017-.033.018-.032.019-.032.019-.032.02-.035.023-2.789 1.86-2.789-1.86-.035-.023-.032-.02-.032-.019-.032-.019-.033-.018-.033-.017-.033-.017-.033-.016-.034-.016-.034-.014-.034-.015-.035-.013-.035-.013-.035-.013-.035-.011-.035-.011-.036-.011-.035-.01-.036-.009-.036-.008-.037-.008-.036-.007-.037-.007-.036-.005-.037-.005-.037-.005-.037-.004-.037-.003-.037-.002-.038-.002-.037-.001h-.042-.05-.059l-.052.002-.052.004-.051.004-.051.006-.051.007-.05.008-.049.01-.049.011-.049.011-.048.013-.047.015-.048.015-.046.016-.046.018-.046.018-.045.02-.044.021-.044.022-.043.022-.043.024-.042.025-.041.026-.041.027-.04.028-.039.028-.039.03-.038.031-.037.031-.037.032-.035.033-.035.034-.034.035-.033.036-.033.036-.031.037-.031.039-.029.038-.029.04-.028.04-.027.04-.025.042-.026.042-.023.043-.023.043-.022.044-.021.044-.019.045-.019.046-.017.046-.017.046-.015.047-.014.048-.013.048-.012.049-.011.048-.009.05-.009.05-.007.051-.005.05-.005.051-.003.052-.002.053-.001.059v.97l-.003.074-.008.075-.014.073-.019.072-.025.071-.03.069-.035.066-.04.063-.044.06-.049.057-.053.053-.056.049-.061.044-.063.04-.066.035-.069.03-.07.024-.072.02-.074.014-.074.008-.075.003-.075-.003-.074-.008-.074-.014-.072-.02-.07-.024-.069-.03-.066-.035-.063-.04-.06-.044-.057-.049-.053-.053-.049-.057-.044-.06-.04-.063-.035-.066-.03-.069-.025-.071-.019-.072-.014-.073-.008-.075-.003-.074v-.983l.001-.097.004-.103.007-.102.009-.102.011-.101.014-.1.017-.1.019-.098.021-.098.024-.098.026-.095.028-.096.031-.094.032-.093.035-.092.038-.091.039-.09.041-.089.044-.087.045-.086.048-.085.049-.084.051-.082.054-.081.055-.08.057-.078.059-.076.06-.075.062-.074.064-.072.066-.071.067-.069.069-.067.071-.066.072-.064.074-.062.075-.061.077-.058.078-.057.079-.056.081-.053.083-.051.083-.05.085-.047.086-.046.088-.043.088-.041.09-.04.091-.037.092-.035.093-.033.095-.03.095-.029.096-.026.097-.023.098-.022.099-.019.099-.016.101-.014.101-.012.101-.009.103-.006.102-.004.097-.001h.072.07l.074.002.074.004.074.005.074.006.074.007.073.009.073.01.073.012.073.013.072.014.073.015.071.017.072.018.071.02.071.02.07.022.07.024.069.024.069.026.069.027.068.028.068.03.067.031.066.032.066.033.066.035.064.036.065.037.063.038.063.04.058.038 1.688 1.125 1.687-1.125.059-.038.063-.04.063-.038.064-.037.065-.036.066-.035.066-.033.066-.032.067-.031.068-.03.068-.028.069-.027.069-.026.069-.024.07-.024.07-.022.071-.02.071-.02.072-.018.071-.017.073-.015.072-.014.073-.013.073-.012.073-.01.073-.009.074-.007.074-.006.074-.005.074-.004.074-.002h.07.072l.097.001.102.004z" fill="#593604"/></g></svg>