<svg clip-rule="evenodd" fill-rule="evenodd" stroke-linecap="round" stroke-miterlimit="1.5" viewBox="0 0 32 32" xmlns="http://www.w3.org/2000/svg" xmlns:xlink="http://www.w3.org/1999/xlink"><clipPath id="a"><path clip-rule="evenodd" d="m0 0h32v32h-32z"/></clipPath><clipPath id="b"><path clip-rule="evenodd" d="m30 17c0-3.713-1.475-7.274-4.101-9.899-2.625-2.626-6.186-4.101-9.899-4.101-7.732 0-14 6.268-14 14v1c0 6.627 5.373 12 12 12h4c6.627 0 12-5.373 12-12 0-.332 0-.666 0-1z"/></clipPath><path d="m0 0h32v32h-32z" fill="none"/><g clip-path="url(#a)"><path d="m16.199 1.001.198.004.198.006.198.009.198.011.197.013.197.016.196.018.196.021.196.023.195.025.195.028.194.031.193.032.194.035.192.037.192.04.191.042.191.044.19.047.189.048.189.051.188.054.187.056.187.058.186.06.185.062.184.065.183.067.183.069.181.071.181.074.18.076.179.078.178.08.176.082.176.085.175.086.174.089.173.091.172.093.171.095.169.097.169.1.167.101.166.104.165.105.164.108.162.11.161.112.16.114.159.116.157.117.156.12.155.123.153.123.152.126.15.128.149.13.148.132.146.134.144.136.143.138.142.139.139.142.138.143.136.144.134.146.132.148.13.149.128.15.126.152.123.153.122.155.12.156.118.157.116.159.114.16.112.161.11.162.108.164.105.165.104.166.101.167.1.169.097.169.095.171.093.172.091.173.089.174.086.175.085.175.082.177.08.178.078.179.076.18.074.181.071.181.069.183.067.183.065.184.062.185.06.186.058.187.056.187.053.188.052.188.049.19.046.19.044.191.042.191.04.192.037.193.035.192.032.194.031.194.028.195.025.195.023.196.021.196.018.196.016.197.013.197.011.198.009.198.006.198.004.198.001.193v1.012l-.001.175-.004.179-.005.18-.008.179-.01.178-.013.178-.014.177-.017.177-.019.176-.021.175-.024.175-.025.175-.028.173-.03.173-.031.172-.034.171-.036.171-.039.17-.04.169-.042.168-.044.168-.046.166-.048.166-.051.166-.052.164-.054.163-.056.162-.058.162-.06.16-.062.16-.063.158-.066.158-.067.157-.07.155-.071.155-.073.154-.074.152-.077.152-.078.15-.08.15-.082.148-.083.147-.085.146-.087.145-.089.144-.09.142-.092.142-.093.14-.095.139-.097.138-.098.136-.1.136-.102.134-.103.133-.104.131-.107.13-.107.129-.11.128-.11.126-.112.125-.114.123-.115.122-.117.121-.117.119-.12.118-.121.117-.122.115-.123.114-.125.112-.126.111-.128.109-.129.107-.13.107-.132.104-.132.103-.134.102-.136.1-.136.098-.138.097-.139.095-.14.093-.142.092-.142.09-.144.089-.145.087-.146.085-.147.083-.148.082-.15.08-.15.078-.152.077-.152.074-.154.073-.155.071-.155.07-.157.067-.158.066-.158.063-.16.062-.16.06-.162.058-.162.056-.163.054-.165.052-.165.05-.165.049-.167.046-.168.044-.168.042-.169.041-.17.038-.171.036-.171.034-.172.031-.173.03-.173.028-.175.025-.174.024-.176.021-.176.019-.177.017-.177.014-.178.013-.178.01-.179.008-.18.005-.18.004-.174.001h-4.012l-.174-.001-.18-.004-.18-.005-.179-.008-.178-.01-.178-.013-.177-.014-.177-.017-.176-.019-.176-.021-.174-.024-.175-.025-.173-.028-.173-.03-.172-.031-.171-.034-.171-.036-.17-.038-.169-.041-.168-.042-.168-.044-.167-.046-.165-.049-.165-.05-.165-.052-.163-.054-.162-.056-.162-.058-.16-.06-.16-.062-.158-.063-.158-.066-.157-.067-.155-.07-.155-.071-.154-.073-.152-.074-.152-.077-.15-.078-.15-.08-.148-.082-.147-.083-.146-.085-.145-.087-.144-.089-.142-.09-.142-.092-.14-.093-.139-.095-.138-.097-.136-.098-.136-.1-.134-.102-.132-.103-.132-.104-.13-.107-.129-.107-.128-.109-.126-.111-.125-.112-.123-.114-.122-.115-.121-.117-.12-.118-.117-.119-.117-.121-.115-.122-.114-.123-.112-.125-.11-.126-.11-.128-.107-.129-.107-.13-.104-.131-.103-.133-.102-.134-.1-.136-.098-.136-.097-.138-.095-.139-.093-.14-.092-.142-.09-.142-.089-.144-.087-.145-.085-.146-.083-.147-.082-.148-.08-.15-.078-.15-.077-.152-.074-.152-.073-.154-.071-.155-.07-.155-.067-.157-.066-.158-.063-.158-.062-.16-.06-.16-.058-.162-.056-.162-.054-.163-.052-.164-.051-.166-.048-.166-.046-.166-.044-.168-.042-.168-.04-.169-.039-.17-.036-.171-.034-.171-.031-.172-.03-.173-.028-.174-.025-.174-.024-.174-.021-.176-.019-.176-.017-.177-.014-.177-.013-.178-.01-.178-.008-.179-.005-.18-.004-.18-.001-.174v-1.013l.002-.227.005-.233.008-.233.012-.231.015-.231.018-.23.021-.229.025-.228.028-.228.031-.226.034-.225.037-.225.041-.223.026-.137-.04-.161-.041-.18-.038-.181-.035-.181-.031-.183-.027-.185-.024-.185-.02-.186-.017-.188-.013-.188-.01-.189-.005-.189-.002-.187.001-.126.002-.122.004-.122.005-.121.007-.121.009-.12.01-.121.011-.12.013-.119.014-.119.016-.119.017-.118.019-.118.02-.117.022-.117.023-.116.025-.116.026-.115.027-.115.029-.114.029-.114.032-.113.033-.113.034-.112.035-.111.037-.111.038-.11.04-.11.04-.109.042-.108.043-.108.045-.107.046-.106.047-.106.048-.105.049-.104.051-.104.052-.102.053-.102.055-.102.055-.101.057-.099.057-.099.059-.098.06-.098.062-.097.062-.096.063-.095.065-.094.066-.094.066-.092.068-.092.069-.091.07-.09.071-.09.072-.088.073-.087.074-.087.075-.085.076-.085.077-.084.078-.083.08-.082.079-.08.081-.08.082-.079.083-.079.084-.077.085-.076.085-.075.087-.074.087-.073.089-.072.089-.071.09-.07.091-.069.092-.068.092-.066.094-.066.094-.064.095-.064.096-.062.097-.061.097-.061.099-.059.099-.057.099-.057.101-.056.102-.054.101-.053.103-.052.104-.051.104-.049.105-.048.106-.047.106-.046.107-.045.108-.043.108-.042.109-.041.11-.039.11-.038.111-.037.111-.035.112-.034.113-.033.113-.032.114-.03.114-.028.115-.028.115-.025.116-.025.116-.023.117-.022.117-.02.118-.019.118-.017.119-.016.119-.014.119-.013.12-.011.12-.01.121-.009.121-.007.121-.005.122-.004.122-.002.125-.001.173.002.176.004.175.008.174.012.125.01.04-.015.182-.067.183-.066.184-.062.185-.061.186-.059.187-.056.188-.054.189-.052.189-.05.191-.047.192-.045.192-.043.193-.04.194-.038.195-.036.196-.033.197-.031.197-.029.198-.026.199-.024.199-.021.2-.019.201-.016.201-.014.202-.012.203-.009.203-.006.204-.004.198-.001h.012l.193.001zm-.353 4-.154.003-.153.005-.152.006-.152.009-.152.01-.151.013-.15.014-.149.016-.15.018-.148.019-.148.022-.147.023-.147.025-.146.027-.145.028-.145.031-.144.032-.143.033-.143.036-.142.037-.141.039-.141.04-.14.042-.139.044-.139.045-.137.048-.137.048-.136.051-.136.051-.134.054-.645.265-.651-.09-.1-.012-.1-.01-.1-.008-.102-.007-.102-.004-.102-.003-.106-.001h-.069l-.071.002-.071.002-.07.003-.071.004-.07.005-.07.006-.069.007-.069.007-.069.008-.069.01-.068.01-.068.01-.068.012-.067.013-.067.013-.067.014-.067.015-.066.016-.066.016-.065.017-.065.019-.065.018-.065.02-.064.02-.064.022-.063.022-.064.022-.062.024-.063.024-.062.025-.062.026-.061.026-.061.027-.061.028-.06.029-.059.029-.06.03-.059.031-.059.031-.058.032-.057.033-.058.033-.057.035-.056.034-.056.036-.056.036-.055.037-.055.037-.054.038-.054.039-.053.039-.053.04-.052.041-.052.041-.052.042-.05.042-.05.043-.05.044-.049.044-.049.045-.048.045-.048.046-.047.047-.047.047-.045.048-.046.048-.045.049-.044.049-.044.05-.043.05-.042.051-.042.051-.041.052-.041.052-.04.053-.039.053-.039.054-.038.054-.037.055-.037.055-.036.056-.036.055-.034.057-.035.057-.033.057-.033.058-.032.059-.031.058-.031.059-.03.06-.029.059-.029.06-.028.061-.027.061-.026.061-.026.062-.025.062-.024.062-.024.064-.022.063-.022.063-.022.064-.02.064-.02.065-.018.065-.018.064-.018.067-.016.065-.016.066-.015.067-.014.067-.013.067-.013.067-.012.068-.011.068-.009.068-.01.069-.008.069-.007.069-.007.069-.006.07-.005.07-.004.071-.003.07-.002.071-.001.071-.001.068.001.115.004.111.005.11.007.11.01.108.012.108.014.107.016.107.018.106.02.105.021.104.024.103.026.103.028.102.029.101.199.632-.159.704-.035.165-.032.167-.031.167-.028.168-.025.169-.023.17-.021.171-.019.171-.016.172-.014.173-.011.174-.009.174-.006.175-.004.175-.001.184v.987l.001.136.002.129.004.129.006.128.007.128.009.128.011.126.012.127.013.126.015.125.017.125.018.125.02.123.021.124.023.122.024.122.026.122.027.121.029.121.03.12.031.119.033.119.035.118.035.117.037.117.039.117.04.115.041.115.043.115.044.113.045.114.047.112.048.111.05.112.05.11.052.109.053.109.055.108.056.108.057.106.058.106.06.105.06.104.063.104.063.103.064.101.066.102.067.1.068.099.069.099.07.097.072.097.072.096.074.095.075.094.076.093.077.092.078.092.079.09.08.089.082.089.082.087.083.087.085.085.085.085.087.083.087.082.089.082.089.08.09.079.092.078.092.077.093.076.094.075.095.074.096.072.097.072.097.07.099.069.099.068.1.067.102.066.101.064.103.063.104.063.104.06.105.06.106.058.106.057.108.056.108.055.109.053.109.052.111.051.11.049.112.048.113.047.113.045.113.044.115.043.115.041.115.04.117.039.117.037.117.035.118.035.119.033.119.031.12.03.121.029.121.027.121.026.123.024.123.023.123.021.124.02.124.018.125.017.125.015.126.013.127.012.126.011.128.009.128.007.128.006.129.004.129.002.136.001h3.988l.136-.001.129-.002.129-.004.128-.006.128-.007.128-.009.126-.011.127-.012.126-.013.125-.015.125-.017.124-.018.124-.02.123-.021.123-.023.123-.024.121-.026.121-.027.121-.029.12-.03.119-.031.119-.033.118-.035.117-.035.117-.037.117-.039.115-.04.115-.041.115-.043.114-.044.112-.045.113-.047.112-.048.11-.049.111-.051.109-.052.109-.053.108-.055.108-.056.106-.057.106-.058.105-.06.104-.06.104-.063.103-.063.101-.064.102-.066.1-.067.099-.068.099-.069.097-.07.097-.072.096-.072.095-.074.094-.075.093-.076.092-.077.092-.078.09-.079.089-.08.089-.082.087-.082.087-.083.085-.085.085-.085.083-.087.082-.087.082-.089.08-.089.079-.09.078-.092.077-.092.076-.093.075-.094.074-.095.072-.096.072-.097.07-.097.069-.099.068-.099.067-.1.066-.102.064-.101.063-.103.063-.104.06-.104.06-.105.058-.106.057-.106.056-.108.055-.108.053-.109.052-.109.051-.111.049-.111.048-.111.047-.112.045-.114.044-.113.043-.115.041-.115.04-.115.039-.117.037-.117.035-.117.035-.118.033-.119.031-.119.03-.12.029-.121.027-.121.026-.122.024-.122.023-.122.021-.124.02-.124.018-.124.017-.125.015-.125.013-.126.012-.127.011-.126.009-.128.007-.128.006-.128.004-.129.002-.129.001-.136v-.988l-.001-.155-.003-.149-.004-.149-.007-.148-.008-.148-.01-.148-.012-.148-.014-.147-.015-.147-.018-.147-.019-.146-.021-.146-.022-.145-.025-.146-.026-.145-.028-.144-.029-.144-.032-.143-.033-.143-.035-.143-.037-.142-.038-.141-.04-.142-.042-.14-.043-.14-.045-.139-.047-.139-.049-.138-.05-.138-.052-.136-.053-.137-.056-.135-.056-.135-.059-.134-.06-.134-.062-.132-.063-.132-.065-.132-.067-.13-.068-.13-.069-.128-.072-.129-.073-.127-.074-.126-.077-.126-.077-.124-.079-.124-.081-.123-.083-.121-.083-.121-.086-.12-.087-.119-.088-.118-.09-.117-.092-.116-.093-.115-.094-.114-.096-.113-.097-.111-.099-.111-.101-.11-.102-.108-.103-.107-.105-.106-.106-.105-.107-.103-.108-.102-.11-.101-.111-.099-.111-.097-.113-.096-.114-.094-.115-.093-.116-.092-.117-.09-.118-.088-.119-.087-.12-.086-.121-.084-.121-.082-.123-.081-.124-.079-.124-.078-.126-.076-.126-.074-.127-.073-.129-.072-.128-.069-.13-.068-.13-.067-.132-.065-.132-.063-.132-.062-.134-.06-.134-.059-.135-.057-.135-.055-.137-.053-.136-.052-.138-.05-.138-.049-.139-.047-.139-.045-.14-.043-.14-.042-.142-.04-.141-.038-.142-.037-.143-.035-.143-.033-.143-.032-.144-.029-.144-.028-.145-.026-.145-.025-.146-.022-.146-.021-.146-.019-.147-.018-.147-.015-.147-.014-.148-.012-.148-.01-.148-.008-.148-.007-.149-.004-.149-.003-.149-.001-.154.001z"/><path d="m30 17c0-3.713-1.475-7.274-4.101-9.899-2.625-2.626-6.186-4.101-9.899-4.101-7.732 0-14 6.268-14 14v1c0 6.627 5.373 12 12 12h4c6.627 0 12-5.373 12-12 0-.332 0-.666 0-1z" fill="#fbc546"/><g clip-path="url(#b)"><path d="m16 11h-15v1.502c0 1.989.79 3.896 2.196 5.302s3.313 2.196 5.302 2.196h.002c4.142 0 7.5-3.358 7.5-7.5 0-.896 0-1.5 0-1.5z" fill="#e59a10"/><path d="m7 18v2c0 1.657-1.343 3-3 3s-3-1.343-3-3c0-1.063 0-2 0-2" fill="none" stroke="#808080" stroke-width="2"/></g><path d="m16.099 17.244.099.003.099.007.098.008.098.011.098.013.097.016.096.018.096.021.095.022.095.025.093.027.094.03.092.032.091.034.091.036.089.038.089.041.088.043.087.045.085.047.085.049.083.051.082.054.081.055.08.057.078.06.077.061.076.064.074.065.072.068.067.065 2.883 2.883.043.046.04.048.037.051.034.053.03.055.027.057.023.058.019.06.016.061.012.062.008.062.004.063v.062l-.004.063-.008.062-.012.062-.016.061-.019.06-.023.058-.027.057-.03.055-.034.053-.037.051-.04.048-.043.046-.046.043-.048.04-.051.037-.053.034-.055.03-.057.027-.058.023-.06.019-.061.016-.062.012-.062.008-.063.004h-.062l-.063-.004-.062-.008-.062-.012-.061-.016-.06-.019-.058-.023-.057-.027-.055-.03-.053-.034-.051-.037-.048-.04-.046-.043-2.874-2.874-.04-.039-.037-.034-.037-.033-.038-.031-.038-.031-.039-.03-.04-.029-.041-.027-.041-.027-.041-.025-.043-.025-.042-.024-.044-.022-.043-.022-.045-.02-.045-.019-.045-.018-.046-.017-.046-.016-.046-.015-.047-.013-.048-.013-.047-.011-.048-.01-.048-.01-.049-.007-.048-.007-.049-.005-.049-.005-.05-.003-.049-.002h-.05-.05l-.049.002-.05.003-.049.005-.049.005-.048.007-.049.007-.048.01-.048.01-.047.011-.048.013-.047.013-.046.015-.046.016-.046.017-.045.018-.045.019-.045.02-.043.022-.044.022-.042.024-.043.025-.041.025-.041.027-.041.027-.04.029-.039.03-.038.031-.038.031-.037.033-.037.034-.04.039-2.874 2.874-.046.043-.048.04-.051.037-.053.034-.055.03-.057.027-.058.023-.06.019-.061.016-.062.012-.062.008-.063.004h-.062l-.063-.004-.062-.008-.062-.012-.061-.016-.06-.019-.058-.023-.057-.027-.055-.03-.053-.034-.051-.037-.048-.04-.046-.043-.043-.046-.04-.048-.037-.051-.034-.053-.03-.055-.027-.057-.023-.058-.019-.06-.016-.061-.012-.062-.008-.062-.004-.063v-.062l.004-.063.008-.062.012-.062.016-.061.019-.06.023-.058.027-.057.03-.055.034-.053.037-.051.04-.048.043-.046 2.883-2.883.067-.065.072-.068.074-.065.076-.064.077-.061.078-.06.08-.057.081-.055.082-.054.083-.051.085-.049.085-.047.087-.045.088-.043.089-.041.089-.038.091-.036.091-.034.092-.032.094-.03.093-.027.095-.025.095-.022.096-.021.096-.018.097-.016.098-.013.098-.011.098-.008.099-.007.099-.003.099-.001z" fill="#593604"/><circle cx="9.5" cy="11.5" fill="#999" r="7.5"/><circle cx="9.5" cy="11.5" fill="#fff" r="5.5"/><path d="m13 12c0-.265-.105-.52-.293-.707-.187-.188-.442-.293-.707-.293-1.331 0-3.669 0-5 0-.265 0-.52.105-.707.293-.188.187-.293.442-.293.707 0 .265.105.52.293.707.187.188.442.293.707.293h5c.265 0 .52-.105.707-.293.188-.187.293-.442.293-.707z"/><path d="m26 12c0-.265-.105-.52-.293-.707-.187-.188-.442-.293-.707-.293-1.331 0-3.669 0-5 0-.265 0-.52.105-.707.293-.188.187-.293.442-.293.707 0 .265.105.52.293.707.187.188.442.293.707.293h5c.265 0 .52-.105.707-.293.188-.187.293-.442.293-.707z"/></g></svg>