<?xml version="1.0" encoding="UTF-8" standalone="no"?><!DOCTYPE svg PUBLIC "-//W3C//DTD SVG 1.1//EN" "http://www.w3.org/Graphics/SVG/1.1/DTD/svg11.dtd"><svg width="100%" height="100%" viewBox="0 0 32 32" version="1.1" xmlns="http://www.w3.org/2000/svg" xmlns:xlink="http://www.w3.org/1999/xlink" xml:space="preserve" style="fill-rule:evenodd;clip-rule:evenodd;stroke-linejoin:round;stroke-miterlimit:1.41421;">
<metadata>
<rdf:RDF xmlns:cc="http://web.resource.org/cc/"
         xmlns:rdf="http://www.w3.org/1999/02/22-rdf-syntax-ns#"
         xmlns:dc = "http://purl.org/dc/elements/1.1/"
         >

     <rdf:Description rdf:about="">
       <dc:title>Mutant Standard emoji v0.2.5</dc:title>
     </rdf:Description>

    <cc:work rdf:about="">
        <cc:license rdf:resource="http://creativecommons.org/licenses/by-nc-sa/4.0/"/>
        <cc:attributionName>Dzuk</cc:attributionName>
        <cc:attributionURL>http://mutant.tech/</cc:attributionURL>
    </cc:work>

</rdf:RDF>
</metadata>
<rect id="arrow_curve_right" x="0" y="0" width="32" height="32" style="fill:none;"/><clipPath id="_clip1"><rect x="0" y="0" width="32" height="32"/></clipPath><g clip-path="url(#_clip1)"><g id="outline"><path d="M0,8c0,-4.418 3.582,-8 8,-8c4.887,0 11.113,0 16,0c4.418,0 8,3.582 8,8c0,4.887 0,11.113 0,16c0,4.418 -3.582,8 -8,8c-4.887,0 -11.113,0 -16,0c-4.418,0 -8,-3.582 -8,-8c0,-4.887 0,-11.113 0,-16Z"/></g><g id="emoji"><path d="M8,30c-1.591,0 -3.117,-0.632 -4.243,-1.757c-1.125,-1.126 -1.757,-2.652 -1.757,-4.243c0,-4.724 0,-11.276 0,-16c0,-1.591 0.632,-3.117 1.757,-4.243c1.126,-1.125 2.652,-1.757 4.243,-1.757c4.724,0 11.276,0 16,0c1.591,0 3.117,0.632 4.243,1.757c1.125,1.126 1.757,2.652 1.757,4.243c0,4.724 0,11.276 0,16c0,1.591 -0.632,3.117 -1.757,4.243c-1.126,1.125 -2.652,1.757 -4.243,1.757c-4.724,0 -11.276,0 -16,0Z" style="fill:#808080;"/><path d="M19,22.006c-1.7,0.003 -3.4,0.004 -5.099,-0.007c-0.363,-0.006 -0.724,-0.033 -1.082,-0.087c-0.774,-0.115 -1.53,-0.345 -2.237,-0.679c-0.95,-0.449 -1.808,-1.085 -2.512,-1.864c-0.658,-0.726 -1.181,-1.574 -1.534,-2.489c-0.329,-0.855 -0.511,-1.765 -0.534,-2.681c-0.041,-1.672 0.452,-3.339 1.397,-4.719c0.484,-0.706 1.081,-1.333 1.763,-1.851c0.597,-0.454 1.258,-0.823 1.958,-1.093c0.917,-0.354 1.891,-0.53 2.874,-0.536l9.006,0c0,1.333 0,2.667 0,4c-3.05,0 -6.101,-0.092 -9.149,0.003c-0.082,0.003 -0.164,0.009 -0.246,0.017c-0.488,0.051 -0.963,0.186 -1.402,0.406c-0.528,0.266 -0.995,0.649 -1.359,1.116c-0.37,0.476 -0.631,1.036 -0.757,1.626c-0.078,0.37 -0.104,0.752 -0.076,1.129c0.033,0.44 0.139,0.874 0.312,1.279c0.194,0.451 0.471,0.865 0.813,1.217c0.355,0.363 0.779,0.658 1.243,0.864c0.513,0.227 1.067,0.34 1.627,0.343l4.994,0l0,-5l7,7l-7,7l0,-4.994Z" style="fill:#fff;"/></g></g></svg>