<?xml version="1.0" encoding="UTF-8" standalone="no"?>
<!DOCTYPE svg PUBLIC "-//W3C//DTD SVG 1.1//EN" "http://www.w3.org/Graphics/SVG/1.1/DTD/svg11.dtd">
<svg width="100%" height="100%" viewBox="0 0 32 32" version="1.1" xmlns="http://www.w3.org/2000/svg" xmlns:xlink="http://www.w3.org/1999/xlink" xml:space="preserve" xmlns:serif="http://www.serif.com/" style="fill-rule:evenodd;clip-rule:evenodd;stroke-linejoin:round;stroke-miterlimit:1.41421;">
<metadata>
<rdf:RDF xmlns:cc="http://web.resource.org/cc/"
         xmlns:rdf="http://www.w3.org/1999/02/22-rdf-syntax-ns#"
         xmlns:dc = "http://purl.org/dc/elements/1.1/"
         >

     <rdf:Description rdf:about="">
       <dc:title>Mutant Standard emoji v0.2.4</dc:title>
     </rdf:Description>

    <cc:work rdf:about="">
        <cc:license rdf:resource="http://creativecommons.org/licenses/by-nc-sa/4.0/"/>
        <cc:attributionName>Dzuk</cc:attributionName>
        <cc:attributionURL>http://mutant.tech/</cc:attributionURL>
    </cc:work>

</rdf:RDF>
</metadata>

    <rect id="watch" x="0" y="0" width="32" height="32" style="fill:none;"/>
    <clipPath id="_clip1">
        <rect x="0" y="0" width="32" height="32"/>
    </clipPath>
    <g clip-path="url(#_clip1)">
        <g id="outline">
            <path d="M9,4l0,-4l14,0l0,4c1.061,0 2.078,0.421 2.828,1.172c0.751,0.75 1.172,1.767 1.172,2.828l0,3.171c0.05,0.018 0.099,0.037 0.148,0.057c0.777,0.321 1.394,0.969 1.677,1.76c0.083,0.231 0.137,0.472 0.161,0.716c0.012,0.125 0.011,0.151 0.014,0.271l0,4.05c-0.003,0.12 -0.002,0.146 -0.014,0.271c-0.024,0.244 -0.078,0.485 -0.161,0.716c-0.3,0.838 -0.975,1.513 -1.813,1.813l-0.012,0.004l0,3.171c0,1.061 -0.421,2.078 -1.172,2.828c-0.75,0.751 -1.767,1.172 -2.828,1.172c0,0 0,4 0,4l-14,0l0,-4c-1.061,0 -2.078,-0.421 -2.828,-1.172c-0.751,-0.75 -1.172,-1.767 -1.172,-2.828c0,-4.439 0,-11.561 0,-16c0,-1.061 0.421,-2.078 1.172,-2.828c0.75,-0.751 1.767,-1.172 2.828,-1.172l0,0Z"/>
        </g>
        <g id="emoji">
            <rect x="11" y="2" width="10" height="28" style="fill:#323232;"/>
            <path d="M27,14c0,-0.265 -0.105,-0.52 -0.293,-0.707c-0.187,-0.188 -0.442,-0.293 -0.707,-0.293c-1.185,0 -3,0 -3,0l0,6c0,0 1.815,0 3,0c0.265,0 0.52,-0.105 0.707,-0.293c0.188,-0.187 0.293,-0.442 0.293,-0.707c0,-1.11 0,-2.89 0,-4Z" style="fill:#5a5a5a;"/>
            <path d="M25,8c0,-0.53 -0.211,-1.039 -0.586,-1.414c-0.375,-0.375 -0.884,-0.586 -1.414,-0.586c-3.463,0 -10.537,0 -14,0c-0.53,0 -1.039,0.211 -1.414,0.586c-0.375,0.375 -0.586,0.884 -0.586,1.414c0,3.832 0,12.168 0,16c0,0.53 0.211,1.039 0.586,1.414c0.375,0.375 0.884,0.586 1.414,0.586c3.463,0 10.537,0 14,0c0.53,0 1.039,-0.211 1.414,-0.586c0.375,-0.375 0.586,-0.884 0.586,-1.414c0,-3.832 0,-12.168 0,-16Z" style="fill:#808080;"/>
            <rect x="9" y="8" width="14" height="16"/>
            <path d="M17,15l3,0l0,2c-1.349,0 -2.699,0.031 -4.048,-0.001c-0.047,-0.004 -0.047,-0.003 -0.094,-0.009c-0.111,-0.019 -0.216,-0.05 -0.316,-0.101c-0.242,-0.125 -0.425,-0.347 -0.501,-0.607c-0.028,-0.093 -0.039,-0.186 -0.041,-0.282l0,-6l2,0c0,1.667 0,3.333 0,5Z" style="fill:#fff;fill-rule:nonzero;"/>
        </g>
    </g>
</svg>
