<svg clip-rule="evenodd" fill-rule="evenodd" stroke-linecap="square" stroke-linejoin="round" stroke-miterlimit="1.5" viewBox="0 0 32 32" xmlns="http://www.w3.org/2000/svg" xmlns:xlink="http://www.w3.org/1999/xlink"><clipPath id="a"><path clip-rule="evenodd" d="m0 0h32v32h-32z"/></clipPath><path d="m0 0h32v32h-32z" fill="none"/><g clip-path="url(#a)"><path d="m30 11c0-.552-.448-1-1-1-4.355 0-21.645 0-26 0-.552 0-1 .448-1 1v12c0 .552.448 1 1 1h26c.552 0 1-.448 1-1 0-2.577 0-9.423 0-12z" fill="none" stroke="#000" stroke-width="4"/><path d="m30 11c0-.552-.448-1-1-1-4.355 0-21.645 0-26 0-.552 0-1 .448-1 1v12c0 .552.448 1 1 1h26c.552 0 1-.448 1-1 0-2.577 0-9.423 0-12z" fill="#b3b3b3"/><g fill="#fff"><path d="m21 21c0-.552-.448-1-1-1-1.916 0-6.084 0-8 0-.552 0-1 .448-1 1v1c0 .552.448 1 1 1h8c.552 0 1-.448 1-1 0-.322 0-.678 0-1z"/><path d="m16 17c0-.552-.448-1-1-1-.322 0-.678 0-1 0-.552 0-1 .448-1 1v1c0 .552.448 1 1 1h1c.552 0 1-.448 1-1 0-.322 0-.678 0-1z"/><path d="m15 13c0-.552-.448-1-1-1-.322 0-.678 0-1 0-.552 0-1 .448-1 1v1c0 .552.448 1 1 1h1c.552 0 1-.448 1-1 0-.322 0-.678 0-1z"/><path d="m20 17c0-.552-.448-1-1-1-.322 0-.678 0-1 0-.552 0-1 .448-1 1v1c0 .552.448 1 1 1h1c.552 0 1-.448 1-1 0-.322 0-.678 0-1z"/><path d="m19 13c0-.552-.448-1-1-1-.322 0-.678 0-1 0-.552 0-1 .448-1 1v1c0 .552.448 1 1 1h1c.552 0 1-.448 1-1 0-.322 0-.678 0-1z"/><path d="m7 21c0-.552.448-1 1-1h1c.552 0 1 .448 1 1v1c0 .552-.448 1-1 1-.322 0-.678 0-1 0-.552 0-1-.448-1-1 0-.322 0-.678 0-1z"/><path d="m9 17c0-.552.448-1 1-1h1c.552 0 1 .448 1 1v1c0 .552-.448 1-1 1-.322 0-.678 0-1 0-.552 0-1-.448-1-1 0-.322 0-.678 0-1z"/><path d="m8 13c0-.552.448-1 1-1h1c.552 0 1 .448 1 1v1c0 .552-.448 1-1 1-.322 0-.678 0-1 0-.552 0-1-.448-1-1 0-.322 0-.678 0-1z"/><path d="m3 21c0-.552.448-1 1-1h1c.552 0 1 .448 1 1v1c0 .552-.448 1-1 1-.322 0-.678 0-1 0-.552 0-1-.448-1-1 0-.322 0-.678 0-1z"/><path d="m3 17c0-.552.448-1 1-1h3c.552 0 1 .448 1 1v1c0 .552-.448 1-1 1-.871 0-2.129 0-3 0-.552 0-1-.448-1-1 0-.322 0-.678 0-1z"/><path d="m3 13c0-.552.448-1 1-1h2c.552 0 1 .448 1 1v1c0 .552-.448 1-1 1-.611 0-1.389 0-2 0-.552 0-1-.448-1-1 0-.322 0-.678 0-1z"/><path d="m26 21c0-.552.448-1 1-1h1c.552 0 1 .448 1 1v1c0 .552-.448 1-1 1-.322 0-.678 0-1 0-.552 0-1-.448-1-1 0-.322 0-.678 0-1z"/><path d="m25 17c0-.552.448-1 1-1h2c.552 0 1 .448 1 1v1c0 .552-.448 1-1 1-.611 0-1.389 0-2 0-.552 0-1-.448-1-1 0-.322 0-.678 0-1z"/><path d="m24 13c0-.552.448-1 1-1h3c.552 0 1 .448 1 1v1c0 .552-.448 1-1 1-.871 0-2.129 0-3 0-.552 0-1-.448-1-1 0-.322 0-.678 0-1z"/><path d="m22 21c0-.552.448-1 1-1h1c.552 0 1 .448 1 1v1c0 .552-.448 1-1 1-.322 0-.678 0-1 0-.552 0-1-.448-1-1 0-.322 0-.678 0-1z"/><path d="m21 17c0-.552.448-1 1-1h1c.552 0 1 .448 1 1v1c0 .552-.448 1-1 1-.322 0-.678 0-1 0-.552 0-1-.448-1-1 0-.322 0-.678 0-1z"/><path d="m20 13c0-.552.448-1 1-1h1c.552 0 1 .448 1 1v1c0 .552-.448 1-1 1-.322 0-.678 0-1 0-.552 0-1-.448-1-1 0-.322 0-.678 0-1z"/></g></g></svg>