<svg clip-rule="evenodd" fill-rule="evenodd" stroke-linecap="square" stroke-linejoin="round" stroke-miterlimit="1.5" viewBox="0 0 32 32" xmlns="http://www.w3.org/2000/svg" xmlns:xlink="http://www.w3.org/1999/xlink"><clipPath id="a"><path clip-rule="evenodd" d="m0 0h32v32h-32z"/></clipPath><clipPath id="b"><path clip-rule="evenodd" d="m16 2 3.567 5.351c.287.43.505.902.647 1.399l1.786 6.25s-3.107-.518-4.849-.808c-.762-.127-1.54-.127-2.302 0-1.742.29-4.849.808-4.849.808s-1.383-.691-2.522-1.261c-.972-.486-2.044-.739-3.13-.739h-2.348l1.387-2.774c1.044-2.087 2.772-3.753 4.897-4.719l7.716-3.507z"/></clipPath><path d="m0 0h32v32h-32z" fill="none"/><g clip-path="url(#a)"><g fill="none"><path d="m16 11v16c0 .53-.211 1.039-.586 1.414s-.884.586-1.414.586-1.039-.211-1.414-.586-.586-.884-.586-1.414c0-.551 0-1 0-1" stroke="#000" stroke-width="6"/><path d="m16 2s-4.475 2.034-7.716 3.507c-2.125.966-3.853 2.632-4.897 4.719-.711 1.421-1.387 2.774-1.387 2.774h2.348c1.086 0 2.158.253 3.13.739 1.139.57 2.522 1.261 2.522 1.261s3.107-.518 4.849-.808c.762-.127 1.54-.127 2.302 0 1.742.29 4.849.808 4.849.808s1.383-.691 2.522-1.261c.972-.486 2.044-.739 3.13-.739h2.348s-.676-1.353-1.387-2.774c-1.044-2.087-2.772-3.753-4.897-4.719-3.241-1.473-7.716-3.507-7.716-3.507z" stroke="#000" stroke-linecap="round" stroke-miterlimit="3" stroke-width="4"/><path d="m16 11v16c0 .53-.211 1.039-.586 1.414s-.884.586-1.414.586-1.039-.211-1.414-.586-.586-.884-.586-1.414c0-.551 0-1 0-1" stroke="#525252" stroke-width="2"/></g><path d="m15 13.249h2v6.751h-2z" fill="#3d3d3d"/><path d="m16 2s4.475 2.034 7.716 3.507c2.125.966 3.853 2.632 4.897 4.719.711 1.421 1.387 2.774 1.387 2.774s-1.246 0-2.348 0c-1.086 0-2.158.253-3.13.739l-2.522 1.261z" fill="#a31f28"/><path d="m16 2 3.567 5.351c.287.43.505.902.647 1.399l1.786 6.25s-3.107-.518-4.849-.808c-.762-.127-1.54-.127-2.302 0-1.742.29-4.849.808-4.849.808s-1.383-.691-2.522-1.261c-.972-.486-2.044-.739-3.13-.739h-2.348l1.387-2.774c1.044-2.087 2.772-3.753 4.897-4.719l7.716-3.507z" fill="#e82731"/><g clip-path="url(#b)"><path d="m16 1v1s-2.532 3.798-3.567 5.351c-.287.43-.505.902-.647 1.399-.517 1.807-1.786 6.25-1.786 6.25v2" fill="none" stroke="#bd242e" stroke-miterlimit="3" stroke-width="2"/></g></g></svg>