<svg clip-rule="evenodd" fill-rule="evenodd" stroke-linecap="round" stroke-miterlimit="1.5" viewBox="0 0 32 32" xmlns="http://www.w3.org/2000/svg" xmlns:xlink="http://www.w3.org/1999/xlink"><clipPath id="a"><path clip-rule="evenodd" d="m19 10 5 5s-17.314 9.01-17.556 8.348c-.112-.304-.207-.613-.29-.926-.41-1.602-.803-3.207-1.205-4.811-.023-.1-.043-.199-.056-.301-.025-.202-.025-.408 0-.61.079-.645.414-1.245.922-1.65.186-.148.393-.27.614-.36.028-.012.058-.023.087-.034l2.097-1.398 3.723-1.37 1.764-.588 3.898-1.3z"/></clipPath><path d="m0 0h32v32h-32z" fill="none"/><path d="m17 7.529v-3.029c.003-.161.002-.201.015-.362.029-.361.102-.719.217-1.063.21-.631.562-1.213 1.023-1.692.418-.436.925-.786 1.481-1.023.334-.142.684-.244 1.042-.302.18-.029.359-.043.541-.054.181-.004.181-.004.362 0 .161.009.201.009.361.029.36.044.715.131 1.054.259.565.215 1.085.544 1.521.963.48.46.855 1.027 1.091 1.649.128.339.215.694.259 1.054.022.18.029.36.033.542v10.824c.049.019.098.038.147.058.473.197.915.466 1.306.796.9.759 1.511 1.831 1.707 2.991.069.414.087.837.051 1.256-.016.188-.045.374-.08.56-.133.615-.279 1.228-.423 1.84-.094.378-.201.751-.329 1.118-.278.8-.64 1.57-1.08 2.293-.755 1.24-1.736 2.34-2.881 3.232-1.146.892-2.454 1.574-3.842 2.002-.77.237-1.564.396-2.365.474-.345.033-.69.05-1.036.055l-.125.001h-.878l-.003-.002c-.109-.001-.218-.001-.327-.002-.387-.006-.774-.026-1.159-.067-.758-.08-1.508-.232-2.237-.453-1.428-.432-2.774-1.131-3.95-2.049-1.11-.866-2.068-1.926-2.816-3.119-.45-.716-.824-1.479-1.114-2.273-.134-.364-.247-.734-.347-1.109-.412-1.609-.807-3.223-1.21-4.835-.041-.178-.078-.357-.1-.539-.051-.409-.045-.824.018-1.231.062-.407.18-.806.35-1.181.476-1.047 1.352-1.886 2.42-2.315.335-.135.687-.229 1.045-.28.044-.13.094-.257.15-.382.443-.989 1.243-1.798 2.227-2.251.362-.167.747-.285 1.141-.351.158-.026.317-.042.476-.053.12-.006.24-.008.36-.007.12.004.239.01.358.022.318.032.633.098.936.197.065.021.129.043.192.067.195-.344.435-.664.713-.946.486-.493 1.086-.871 1.741-1.096.327-.113.667-.187 1.011-.222.129-.013.258-.019.388-.023.13 0 .13 0 .259.004.103.006.205.014.306.025z"/><path d="m6 15 3-2h1.075l1.925-1 3-1 2-1h3v10h-14z" fill="#3e1409"/><path d="m4.961 17.659-.012-.048c-.023-.1-.043-.199-.056-.301-.025-.202-.025-.408 0-.61.079-.645.414-1.245.922-1.65.186-.148.393-.27.614-.36.188-.077.387-.131.589-.16.101-.015.202-.021.304-.026.102 0 .102 0 .204.005.205.016.405.049.601.111.177.056.347.132.507.225l-.059-.239c-.068-.291-.093-.587-.059-.885.026-.237.087-.47.179-.689.243-.579.705-1.053 1.278-1.311.301-.136.621-.204.95-.22.089-.001.089-.001.179.001.208.012.413.043.614.103.573.171 1.073.549 1.394 1.054.128.202.222.42.292.648.201.745.394 1.492.583 2.24.007-1.182.015-2.365.015-3.547.005-.26.04-.515.119-.763.229-.714.781-1.299 1.481-1.569.274-.106.559-.156.851-.168.098 0 .097 0 .194.004.292.023.575.084.845.2.628.271 1.125.799 1.359 1.441.089.245.134.498.149.758l.002.102v-7.505c0-.663.263-1.299.732-1.768s1.105-.732 1.768-.732 1.299.263 1.768.732.732 1.105.732 1.768v10.5l-1 1 1 1h.229c.914 0 1.778.417 2.348 1.132.569.716.781 1.652.575 2.543-.116.502-.238 1.032-.363 1.574-1.047 4.537-5.088 7.751-9.744 7.751h-.045l.002-.004c-.382.006-.764.002-1.146 0-.961-.016-1.915-.157-2.835-.436-1.192-.361-2.314-.944-3.296-1.711-.927-.723-1.727-1.608-2.351-2.604-.376-.598-.688-1.235-.93-1.897-.112-.304-.207-.613-.29-.926-.229-.895-.453-1.791-.676-2.687.052.032.258-.665.258-.665s-.54-1.112-.775-1.411z" fill="#7f531d"/><path d="m16 18h2v-.806c.3.172.579.385.828.634 1.943 1.943 4.172 4.172 4.172 4.172v2.158c0 .923-.426 1.796-1.154 2.364-.728.569-1.677.77-2.574.546-.917-.229-1.782-.445-2.294-.574-.318-.079-.643-.119-.97-.119-.005 0-.011 0-.016 0-.327 0-.652.04-.97.119-.512.129-1.377.345-2.294.574-.897.224-1.846.023-2.574-.546-.728-.568-1.154-1.441-1.154-2.364 0-.172 0-.34 0-.501 0-1.061.421-2.078 1.172-2.829.819-.819 1.951-1.951 3-3 .299-.299.642-.547 1.014-.735z" fill="#5b2f0e"/><path d="m19 10 5 5s-17.314 9.01-17.556 8.348c-.112-.304-.207-.613-.29-.926-.41-1.602-.803-3.207-1.205-4.811-.023-.1-.043-.199-.056-.301-.025-.202-.025-.408 0-.61.079-.645.414-1.245.922-1.65.186-.148.393-.27.614-.36.028-.012.058-.023.087-.034l2.097-1.398 3.723-1.37 1.764-.588 3.898-1.3z" fill="none"/><g clip-path="url(#a)" fill="none" stroke="#3e1409"><path d="m7.75 12s.678 2.714 1.19 4.762c.31 1.238 1.562 1.993 2.801 1.689.001 0 .001 0 .002-.001 1.031-.252 1.757-1.177 1.757-2.239 0-2.36 0-6.191 0-6.191"/><path d="m18.5 5v10.378c0 1.206-.911 2.217-2.111 2.341-.096.011-.194.021-.291.031-.664.069-1.325-.147-1.82-.593-.495-.447-.778-1.082-.778-1.749 0-2.334 0-5.388 0-5.388"/><path d="m7.75 11.998s.682 2.729 1.195 4.779c.307 1.227-.439 2.47-1.665 2.777-.776.195-1.592-.095-2.072-.735-.36-.48-.708-.944-.708-.944"/></g><path d="m24 16h-7v1c0 2.761 2.239 5 5 5h1" fill="#7f531d" stroke="#3e1409" stroke-linecap="butt" stroke-width="2"/><ellipse cx="21.5" cy="6.5" fill="#5b2f0e" rx="2" ry="3"/></svg>