<svg clip-rule="evenodd" fill-rule="evenodd" stroke-linecap="round" stroke-miterlimit="2" viewBox="0 0 32 32" xmlns="http://www.w3.org/2000/svg" xmlns:xlink="http://www.w3.org/1999/xlink"><clipPath id="a"><path clip-rule="evenodd" d="m0 0h32v32h-32z"/></clipPath><clipPath id="b"><path clip-rule="evenodd" d="m22.894 18.447c.678.339 1.106 1.032 1.106 1.789v2.471c0 1.934-.768 3.789-2.136 5.157s-3.223 2.136-5.157 2.136c-.226 0-.454 0-.682 0-4.984 0-9.025-4.041-9.025-9.025 0-3.851 0-7.475 0-7.475h1.5v-2.5h12v1.499h1.5v3.501l-1 1 1 1s.432.216.894.447z"/></clipPath><path d="m0 0h32v32h-32z" fill="none"/><g clip-path="url(#a)"><path d="m24 0v14 2.772c.077.044.076.045.156.095l.117.077c.188.135.368.278.533.441.489.482.85 1.088 1.039 1.748.091.315.136.635.153.962.016.909.007 1.818.001 2.728-.005.306-.022.612-.056.916-.076.679-.227 1.349-.45 1.995-.271.787-.648 1.536-1.118 2.223-.411.6-.892 1.151-1.431 1.639-1.324 1.199-2.989 1.999-4.752 2.285-.377.061-.757.098-1.139.113-.085.003-.17.005-.254.006h-.781c-1.108-.001-2.213-.167-3.271-.496-1.15-.358-2.24-.907-3.213-1.617-1.757-1.281-3.117-3.079-3.864-5.121-.283-.771-.478-1.574-.582-2.389-.053-.418-.079-.838-.087-1.26l-.001-.117v-.029c-.003-.588-.004-1.176-.004-1.764-.007-2.265-.023-4.53.005-6.794.015-.402.088-.797.234-1.173.363-.942 1.134-1.695 2.085-2.035.352-.126.72-.19 1.093-.204.087-.001.087-.001.174 0 .402.015.797.088 1.173.234.019.007.038.014.056.022.378-.452.868-.808 1.424-1.022.376-.146.771-.219 1.173-.234.087-.001.087-.001.174 0 .402.015.797.088 1.173.234.262.101.511.233.741.394.228-.16.476-.293.739-.394.376-.146.771-.219 1.173-.234.087-.001.087-.001.174 0 .133.005.265.016.396.034.003-.768.009-1.537.018-2.306.011-.296.047-.588.119-.876.128-.505.354-.985.665-1.404.115-.156.243-.302.378-.44l3.009-3.009h2.828z"/><path d="m22.894 18.447c.678.339 1.106 1.032 1.106 1.789v2.471c0 1.934-.768 3.789-2.136 5.157s-3.223 2.136-5.157 2.136c-.226 0-.454 0-.682 0-4.984 0-9.025-4.041-9.025-9.025 0-3.851 0-7.475 0-7.475h1.5v-2.5h12v1.499h1.5v3.501l-1 1 1 1s.432.216.894.447z" fill="#b8d419"/><g clip-path="url(#b)"><path d="m15.5 21-2 4" fill="none" stroke="#88a00f" stroke-width="2"/><g fill="#48621b"><path d="m23 8.999-17 .001v9l17-.001z"/><path d="m14.499 10.002c.268-.356.629-.64 1.044-.812.247-.103.506-.161.771-.184.083-.005.165-.007.248-.006.287.011.569.063.838.167.692.267 1.24.843 1.474 1.547.083.252.123.514.126.779v7.506h-4v3.752l-.469.194c-1.177-1.177-2.367-2.34-3.531-3.528v2.334l-.469.194c-1.143-1.143-2.3-2.273-3.429-3.43-.134-.145-.261-.296-.375-.457-.299-.427-.514-.912-.629-1.421-.058-.257-.087-.517-.097-.78-.014-1.15-.015-2.3 0-3.45.01-.284.062-.562.164-.828.242-.625.739-1.135 1.358-1.391.244-.101.5-.159.762-.181.083-.005.166-.007.25-.006.296.011.586.066.863.175.278.109.533.269.754.466.231-.633.719-1.155 1.335-1.428.263-.116.541-.182.827-.207.083-.005.165-.007.248-.006.287.01.569.063.838.167.439.169.82.462 1.099.834z"/></g></g><g fill="#b8d419"><path d="m11 11.5c0-.398.158-.779.439-1.061.282-.281.663-.439 1.061-.439s.779.158 1.061.439c.281.282.439.663.439 1.061v9.5s-1.541-1.541-2.414-2.414c-.375-.375-.586-.884-.586-1.414 0-1.339 0-3.995 0-5.672z"/><path d="m15 11.499c0-.397.158-.779.439-1.06.282-.282.663-.44 1.061-.44s.779.158 1.061.44c.281.281.439.663.439 1.06v6.5h-3s0-4.183 0-6.5z"/><path d="m7 12.468c0-.389.155-.763.43-1.038s.649-.43 1.038-.43h.002c.845 0 1.53.685 1.53 1.53v7.47s-1.236-1.236-2.121-2.121c-.563-.563-.879-1.326-.879-2.122 0-.956 0-2.28 0-3.289z"/><path d="m22 17v-3l-.5-.5.5-.5v-4l-.5-.5.5-.5v-6s-1.541 1.541-2.414 2.414c-.375.375-.586.884-.586 1.414v2.172l.5.5-.5.5v4l.5.5-.5.5v3"/></g><path d="m19 8h3v1h-3z" fill="#88a00f"/><path d="m19 13h3v1h-3z" fill="#88a00f"/><path d="m22 17h-9s.273.682.617 1.543c.835 2.088 2.858 3.457 5.107 3.457h.276l2 2" fill="#b8d419" stroke="#48621b" stroke-linecap="butt" stroke-width="2"/></g></svg>