<?xml version="1.0" encoding="UTF-8" standalone="no"?>
<svg
   xmlns:dc="http://purl.org/dc/elements/1.1/"
   xmlns:cc="http://creativecommons.org/ns#"
   xmlns:rdf="http://www.w3.org/1999/02/22-rdf-syntax-ns#"
   xmlns:svg="http://www.w3.org/2000/svg"
   xmlns="http://www.w3.org/2000/svg"
   id="svg2031"
   style="fill-rule:evenodd;clip-rule:evenodd;stroke-linejoin:round;stroke-miterlimit:1.41421;"
   xml:space="preserve"
   version="1.1"
   viewBox="0 0 32 32"
   height="100%"
   width="100%"><defs
   id="defs2035" />
<metadata
   id="metadata2015">
<rdf:RDF>

     <rdf:Description
   rdf:about="">
       <dc:title>Mutant Standard emoji v0.3.0</dc:title>
     </rdf:Description>

    <cc:work
   rdf:about="">
        <cc:license
   rdf:resource="http://creativecommons.org/licenses/by-nc-sa/4.0/" />
        <cc:attributionName>Dzuk</cc:attributionName>
        <cc:attributionURL>http://mutant.tech/</cc:attributionURL>
    </cc:work>

<cc:Work
   rdf:about=""><dc:format>image/svg+xml</dc:format><dc:type
     rdf:resource="http://purl.org/dc/dcmitype/StillImage" /><dc:title></dc:title></cc:Work></rdf:RDF>
</metadata>
<rect
   style="fill:none;"
   height="32"
   width="32"
   y="0"
   x="0"
   id="play" /><clipPath
   id="_clip1"><rect
     id="rect2018"
     height="32"
     width="32"
     y="0"
     x="0" /></clipPath><g
   id="g2029"
   clip-path="url(#_clip1)"><g
     id="outline"><path
       id="path2021"
       d="M32,8c0,-4.418 -3.582,-8 -8,-8c-4.887,0 -11.113,0 -16,0c-4.418,0 -8,3.582 -8,8c0,4.887 0,11.113 0,16c0,4.418 3.582,8 8,8c4.887,0 11.113,0 16,0c4.418,0 8,-3.582 8,-8c0,-4.887 0,-11.113 0,-16Z" /></g><g
     id="emoji"><path
       id="path2024"
       style="fill:#666;"
       d="M24,30c1.591,0 3.117,-0.632 4.243,-1.757c1.125,-1.126 1.757,-2.652 1.757,-4.243c0,-4.724 0,-11.276 0,-16c0,-1.591 -0.632,-3.117 -1.757,-4.243c-1.126,-1.125 -2.652,-1.757 -4.243,-1.757c-4.724,0 -11.276,0 -16,0c-1.591,0 -3.117,0.632 -4.243,1.757c-1.125,1.126 -1.757,2.652 -1.757,4.243c0,4.724 0,11.276 0,16c0,1.591 0.632,3.117 1.757,4.243c1.126,1.125 2.652,1.757 4.243,1.757c4.724,0 11.276,0 16,0Z" /></g></g><path
   id="path1945"
   d="m 15.863509,5.0740684 c 2.205161,0.7855325 4.24623,2.0242482 5.967833,3.6096674 1.65132,1.5388992 3.052448,3.4241522 3.719283,5.6024012 0.451966,1.400674 0.358968,2.914254 0.0602,4.336191 -0.298452,1.324633 -0.881275,2.587302 -1.72994,3.649892 0.962518,0.941079 1.915813,1.891574 2.880828,2.830175 -0.128511,0.480859 -0.325476,0.972283 -0.720871,1.296445 -0.330615,0.285377 -0.753891,0.423354 -1.170441,0.52709 -0.94243,-0.97914 -1.889639,-1.953357 -2.8326,-2.932004 -1.174617,0.802426 -2.592102,1.225425 -4.007594,1.287941 -1.782844,0.0788 -3.565048,-0.495878 -5.019723,-1.516667 -0.784417,-0.539104 -1.491452,-1.183714 -2.140068,-1.878463 -0.111084,0.109273 -0.232334,0.207335 -0.357003,0.30073 0.03091,0.233133 0.06442,0.465967 0.09656,0.699158 -0.243426,0.01406 -0.486451,0.07352 -0.6909874,0.210691 C 9.287901,23.497255 8.8496604,24.118107 8.4017322,24.700953 7.8462932,25.422036 7.3470675,26.22242 6.5729988,26.733176 6.1039025,27.022964 5.4097709,26.900481 5.1224902,26.41339 4.8220244,25.935499 4.9953504,25.318689 5.3189769,24.899469 c 0.790962,-1.162507 2.2031861,-1.659354 3.0873498,-2.730385 0.2299619,-0.287747 0.4038626,-0.621264 0.4901307,-0.9803 0.2258301,0.0145 0.4516833,0.02911 0.6775901,0.04383 0.1913419,-0.19407 0.383616,-0.387156 0.5742285,-0.581854 0.212521,-0.0055 0.429108,0.01722 0.638934,-0.02375 0.219024,-0.19318 0.393636,-0.430693 0.591438,-0.644664 0.21666,0.0607 0.339779,0.263926 0.496571,0.409053 0.969106,0.882614 2.077328,1.651793 3.340435,2.044038 1.61521,0.517447 3.414691,0.353059 4.92981,-0.399862 -3.034759,-3.124517 -6.059357,-6.259111 -9.089746,-9.387947 -0.679576,0.715523 -1.3565067,1.433791 -2.0457808,2.139977 C 8.1681399,13.928846 7.3181261,13.078192 6.4720609,12.223663 8.0668024,10.627335 9.6793793,9.048929 11.282912,7.4614353 c 1.386337,0.3774151 2.770896,0.7614646 4.15854,1.1343737 -0.948244,0.8608797 -1.912157,1.704288 -2.86372,2.561473 3.161951,3.09989 6.308261,6.216158 9.475281,9.311079 0.764531,-0.930194 1.194802,-2.11464 1.253335,-3.313808 C 23.414199,15.567833 23.047034,13.989367 22.524,12.500947 21.784658,10.536629 20.371132,8.9194608 18.834808,7.5283543 17.874587,6.6748733 16.884971,5.8532558 15.863509,5.0740684 Z m 0,0"
   style="fill:#ffffff;stroke-width:0.07282481" /></svg>