<svg clip-rule="evenodd" fill-rule="evenodd" stroke-linejoin="round" stroke-miterlimit="1.41421" viewBox="0 0 32 32" xmlns="http://www.w3.org/2000/svg" xmlns:xlink="http://www.w3.org/1999/xlink"><clipPath id="a"><path clip-rule="evenodd" d="m0 0h32v32h-32z"/></clipPath><path d="m0 0h32v32h-32z" fill="none"/><g clip-path="url(#a)"><path d="m16.208 3.001.206.004.205.007.205.009.203.011.204.015.202.016.202.019.202.022.2.024.2.027.199.029.198.032.198.034.196.036.196.039.195.041.194.044.193.046.193.048.191.05.191.053.189.055.189.058.187.059.187.062.185.064.185.066.183.069.182.07.182.073.18.075.179.077.178.079.176.081.176.084.174.085.173.087.172.09.171.091.169.093.169.096.166.097.166.099.164.101.163.104.162.105.16.106.159.109.157.111.156.112.155.114.153.116.152.118.15.12.149.121.147.123.146.125.144.126.143.128.141.13.14.132.138.133.136.135.135.136.133.138.132.14.13.141.128.143.126.144.125.146.123.147.121.149.12.15.118.152.116.153.114.155.112.156.111.157.109.159.106.16.105.162.104.163.101.164.099.166.097.166.096.169.093.169.091.171.09.172.087.173.085.174.084.176.081.176.079.178.077.179.075.18.073.182.07.182.069.183.066.185.064.185.062.187.059.187.058.189.055.189.053.191.05.191.048.193.046.193.044.194.041.195.039.196.036.196.034.198.032.198.029.199.027.2.024.2.022.202.019.202.016.202.015.203.011.204.009.205.007.205.004.206.001.2v.02l-.001.155-.003.162-.005.161-.007.16-.009.161-.011.16-.013.16-.015.159-.016.159-.019.159-.021.159-.022.158-.025.157-.026.158-.029.157-.03.156-.032.156-.034.155-.036.155-.038.154-.04.154-.041.153-.043.153-.046.152-.047.152-.049.151-.05.15-.053.149-.054.149-.056.148-.058.148-.06.147-.062.146-.063.145-.065.144-.067.144-.068.143-.071.142-.072.141-.074.141-.075.139-.078.139-.079.138-.08.136-.083.136-.084.135-.086.134-.087.133-.089.132-.091.131-.093.13-.094.129-.096.127-.097.127-.099.126-.101.124-.102.123-.104.123-.105.121-.108.119-.108.119-.111.117-.111.116-.114.115-.115.114-.116.111-.117.111-.119.108-.119.108-.121.105-.123.104-.123.102-.124.101-.126.099-.127.097-.127.096-.129.094-.13.093-.131.091-.132.089-.133.087-.134.086-.135.084-.136.083-.136.08-.138.079-.139.078-.139.075-.141.074-.141.072-.142.071-.143.068-.144.067-.144.065-.145.063-.146.062-.147.06-.148.058-.148.056-.149.054-.149.053-.151.05-.15.049-.152.047-.152.046-.153.043-.153.041-.154.04-.154.038-.155.036-.155.034-.156.032-.156.03-.157.029-.158.026-.157.025-.158.022-.159.021-.159.019-.159.016-.159.015-.16.013-.16.011-.161.009-.16.007-.161.005-.162.003-.155.001h-6.024l-.155-.001-.162-.003-.161-.005-.16-.007-.161-.009-.16-.011-.16-.013-.159-.015-.159-.016-.159-.019-.159-.021-.158-.022-.157-.025-.158-.026-.157-.029-.156-.03-.156-.032-.155-.034-.155-.036-.154-.038-.154-.04-.153-.041-.153-.043-.152-.046-.152-.047-.15-.049-.151-.05-.149-.053-.149-.054-.148-.056-.148-.058-.147-.06-.146-.062-.145-.063-.144-.065-.144-.067-.143-.068-.142-.071-.141-.072-.141-.074-.139-.075-.139-.078-.138-.079-.136-.08-.136-.083-.135-.084-.134-.086-.133-.087-.132-.089-.131-.091-.13-.093-.129-.094-.127-.095-.127-.098-.126-.099-.124-.101-.123-.102-.123-.104-.121-.105-.119-.108-.119-.108-.117-.111-.116-.111-.115-.114-.114-.115-.111-.116-.111-.117-.108-.119-.108-.119-.105-.121-.104-.123-.102-.123-.101-.124-.099-.126-.097-.127-.096-.127-.094-.129-.093-.13-.091-.131-.089-.132-.087-.133-.086-.134-.084-.135-.083-.136-.08-.136-.079-.138-.078-.139-.075-.139-.074-.141-.072-.141-.071-.142-.068-.143-.067-.144-.065-.144-.063-.145-.062-.146-.06-.147-.058-.148-.056-.148-.054-.149-.053-.149-.05-.15-.049-.151-.047-.152-.046-.152-.043-.153-.041-.153-.04-.154-.038-.154-.036-.155-.034-.155-.032-.156-.03-.156-.029-.157-.026-.158-.025-.157-.022-.158-.021-.159-.019-.159-.016-.159-.015-.159-.013-.16-.011-.16-.009-.161-.007-.16-.005-.161-.003-.162-.001-.155v-.018l.001-.2.004-.206.007-.205.009-.205.011-.204.015-.203.016-.203.019-.201.022-.202.024-.2.027-.2.029-.199.032-.198.034-.198.036-.197.039-.195.041-.195.044-.195.046-.193.048-.192.05-.192.053-.19.055-.19.058-.188.059-.188.062-.186.064-.186.066-.184.069-.184.07-.182.073-.181.075-.181.077-.179.079-.177.081-.177.084-.176.085-.174.087-.173.09-.172.091-.171.094-.169.095-.169.097-.166.1-.166.101-.164.103-.163.105-.162.107-.16.108-.159.111-.158.112-.156.115-.154.116-.153.117-.152.12-.151.121-.148.123-.148.125-.145.127-.145.128-.143.13-.141.131-.139.133-.138.135-.137.137-.135.138-.133.139-.131.141-.13.143-.128.145-.127.145-.125.148-.123.148-.121.151-.12.152-.117.153-.116.154-.115.156-.112.158-.111.159-.108.16-.107.162-.105.163-.103.164-.101.166-.1.166-.097.169-.095.169-.094.171-.091.172-.09.173-.087.174-.085.176-.084.177-.081.177-.079.179-.077.181-.075.181-.073.182-.07.184-.069.184-.066.186-.064.186-.062.188-.059.188-.058.19-.055.19-.053.192-.05.192-.048.193-.046.195-.044.195-.041.195-.039.197-.036.198-.034.198-.032.199-.029.2-.027.2-.024.202-.022.201-.019.203-.016.203-.015.204-.011.205-.009.205-.007.206-.004.2-.001h.014l.2.001zm-.364 4-.155.003-.154.005-.154.007-.154.008-.152.011-.153.013-.151.014-.151.016-.151.019-.15.02-.149.021-.149.024-.148.026-.147.027-.147.029-.146.031-.145.032-.144.035-.144.036-.144.038-.142.039-.142.041-.141.043-.14.045-.14.046-.139.048-.138.05-.137.051-.137.053-.135.054-.135.056-.134.058-.134.059-.132.061-.131.062-.131.064-.13.066-.129.067-.128.068-.127.07-.126.072-.125.073-.124.074-.123.076-.122.077-.122.079-.12.08-.119.082-.118.083-.117.084-.117.086-.115.087-.114.089-.112.089-.112.092-.111.092-.109.094-.109.095-.107.096-.106.098-.105.098-.104.1-.102.102-.102.102-.1.104-.098.105-.098.106-.096.107-.095.109-.094.109-.092.111-.092.112-.089.112-.089.114-.087.115-.086.116-.084.118-.083.118-.082.119-.08.12-.079.122-.077.122-.076.123-.074.124-.073.125-.072.126-.07.127-.068.128-.067.129-.066.13-.064.131-.062.131-.061.132-.059.134-.058.134-.056.135-.054.135-.053.137-.051.137-.05.138-.048.139-.046.139-.045.141-.043.141-.041.142-.039.142-.038.144-.036.143-.035.145-.032.145-.031.146-.029.147-.027.147-.026.148-.024.149-.021.149-.02.15-.019.151-.016.151-.014.151-.013.153-.011.152-.008.154-.007.154-.005.154-.003.155-.001.159.001.115.002.111.003.112.005.111.006.111.008.111.009.111.01.11.012.11.013.11.014.11.016.109.017.109.018.109.019.109.021.108.023.108.023.107.025.107.026.107.028.107.028.106.03.105.032.106.032.105.034.104.035.104.037.103.037.104.039.102.04.102.042.102.042.101.044.101.045.1.046.099.048.099.049.098.05.098.051.097.052.097.053.096.055.095.056.095.057.094.058.093.06.093.06.092.062.091.063.091.064.09.065.089.066.088.068.088.068.087.07.086.071.085.072.085.073.084.074.082.075.083.076.081.078.08.078.08.08.078.08.078.081.076.083.075.082.074.084.073.085.072.085.071.086.07.087.068.088.068.088.066.089.065.09.064.091.063.091.062.092.06.093.06.093.058.094.057.095.056.095.055.096.053.097.052.097.052.098.049.098.049.099.048.1.046.1.045.1.044.101.042.102.042.102.04.102.039.104.037.103.037.104.035.104.034.105.032.106.032.105.03.106.028.107.028.107.026.107.025.107.023.108.023.108.021.109.019.109.018.109.017.109.016.11.014.11.013.11.012.11.01.111.009.111.008.111.006.111.005.112.003.111.002.118.001h6l.118-.001.111-.002.112-.003.111-.005.111-.006.111-.008.111-.009.11-.01.11-.012.11-.013.11-.014.109-.016.109-.017.109-.018.109-.019.108-.021.108-.023.107-.023.107-.025.107-.026.107-.028.106-.028.105-.03.106-.032.105-.032.104-.034.104-.035.103-.037.104-.037.102-.039.102-.04.102-.042.101-.042.1-.044.1-.045.1-.046.099-.048.098-.049.098-.049.097-.052.097-.052.096-.053.095-.055.095-.056.094-.057.093-.058.093-.06.092-.06.091-.062.091-.063.09-.064.089-.065.088-.066.088-.068.087-.068.086-.07.085-.071.085-.072.084-.073.082-.074.083-.075.081-.076.08-.078.08-.078.078-.08.078-.08.076-.081.075-.082.074-.083.073-.084.072-.085.071-.085.07-.086.068-.087.068-.088.066-.088.065-.089.064-.09.063-.091.062-.091.06-.092.06-.093.058-.093.057-.094.056-.095.055-.095.053-.096.052-.097.051-.097.05-.098.049-.098.048-.099.046-.099.045-.1.044-.101.042-.101.042-.102.04-.102.039-.102.037-.104.037-.103.035-.104.034-.104.032-.105.032-.106.03-.105.028-.106.028-.107.026-.107.025-.107.023-.107.023-.108.021-.108.019-.109.018-.109.017-.109.016-.109.014-.11.013-.11.012-.11.01-.11.009-.111.008-.111.006-.111.005-.111.003-.112.002-.111.001-.116-.001-.16-.003-.155-.005-.154-.007-.154-.008-.153-.011-.153-.013-.152-.014-.152-.016-.151-.019-.151-.02-.149-.021-.15-.024-.148-.026-.148-.027-.148-.029-.146-.031-.146-.032-.145-.035-.145-.036-.144-.037-.143-.04-.143-.041-.142-.043-.141-.045-.14-.046-.139-.048-.139-.05-.138-.051-.138-.053-.136-.054-.136-.056-.135-.058-.134-.059-.133-.061-.132-.062-.132-.064-.13-.065-.13-.067-.129-.069-.128-.07-.127-.071-.126-.073-.125-.075-.124-.076-.123-.077-.122-.079-.122-.08-.12-.081-.119-.083-.118-.085-.117-.086-.116-.087-.115-.088-.114-.09-.113-.091-.112-.092-.111-.094-.109-.095-.109-.097-.107-.097-.106-.099-.105-.1-.103-.101-.103-.103-.101-.103-.1-.105-.099-.106-.098-.107-.096-.109-.095-.109-.094-.111-.092-.112-.091-.113-.09-.114-.088-.115-.087-.116-.086-.117-.085-.118-.082-.119-.082-.12-.08-.122-.079-.122-.077-.123-.076-.124-.075-.125-.073-.126-.071-.127-.07-.128-.069-.129-.067-.13-.065-.13-.064-.132-.062-.132-.061-.133-.059-.134-.058-.135-.056-.136-.054-.136-.053-.138-.051-.138-.05-.139-.048-.139-.046-.14-.045-.141-.043-.142-.041-.143-.04-.143-.037-.144-.036-.145-.035-.145-.032-.146-.031-.147-.029-.147-.027-.148-.026-.148-.024-.15-.021-.149-.02-.151-.019-.151-.016-.152-.014-.152-.013-.152-.011-.154-.008-.154-.007-.154-.005-.155-.003-.157-.001-.157.001z"/><path d="m30 18.998c0-7.731-6.267-13.998-13.998-13.998-.001 0-.001 0-.002 0-7.732 0-14 6.268-14 14v.006c0 2.916 1.158 5.712 3.22 7.774s4.858 3.22 7.774 3.22h6.012c2.916 0 5.712-1.158 7.774-3.22s3.22-4.858 3.22-7.774c0-.003 0-.005 0-.008z" fill="#fbc546"/><path d="m24.947 13.106c.237.118.418.326.502.578.084.251.064.526-.055.763-.118.237-.326.418-.578.502-.251.084-.526.064-.763-.055-1.088-.543-2.913-1.456-4-2-.237-.118-.418-.326-.502-.578-.084-.251-.064-.526.055-.763.118-.237.326-.418.578-.502.251-.084.526-.064.763.055 1.088.543 2.913 1.456 4 2z" fill-rule="nonzero"/><path d="m12.394 11.553c.119.237.139.512.055.763-.084.252-.265.46-.502.578-1.088.544-2.913 1.457-4.001 2.001-.493.247-1.093.047-1.34-.447 0 0 0 0 0-.001-.119-.237-.139-.512-.055-.763.084-.252.265-.46.502-.578 1.088-.544 2.913-1.457 4.001-2.001.493-.247 1.093-.047 1.34.447z" fill-rule="nonzero"/><path d="m29 19c0-1.105-.895-2-2-2-1.222 0-2.778 0-4 0-1.105 0-2 .895-2 2s.895 2 2 2h4c1.105 0 2-.895 2-2z" fill="#ed6b44"/><path d="m11 19c0-1.105-.895-2-2-2-1.222 0-2.778 0-4 0-1.105 0-2 .895-2 2s.895 2 2 2h4c1.105 0 2-.895 2-2z" fill="#ed6b44"/><path d="m22.097 19.005.068.009.067.013.065.018.065.023.063.027.06.031.059.035.056.039.053.043.05.046.047.05.044.053.039.055.036.058.032.061.027.062.024.064.018.066.015.067.009.067.005.069.001.068-.005.068-.009.068-.013.067-.018.065-.023.065-.027.063-.031.06-.035.059-.039.056-1.202 1.603-.06.079-.064.081-.065.08-.065.079-.067.078-.068.076-.069.076-.07.074-.071.074-.071.072-.073.071-.074.07-.075.069-.075.067-.077.067-.077.065-.078.064-.079.063-.08.062-.081.061-.081.059-.083.058-.083.057-.084.056-.085.054-.085.053-.086.052-.087.051-.088.049-.088.049-.089.046-.089.046-.091.044-.091.043-.091.042-.092.04-.093.04-.093.037-.094.037-.094.035-.095.034-.096.032-.096.031-.096.03-.097.028-.097.027-.098.025-.098.024-.099.023-.099.021-.099.02-.1.019-.101.017-.1.015-.101.014-.101.013-.102.011-.101.01-.102.008-.103.007-.102.005-.103.004-.103.002-.103.001-.103-.001-.103-.002-.103-.004-.102-.005-.103-.007-.102-.008-.101-.01-.102-.011-.101-.013-.101-.014-.1-.015-.101-.017-.099-.019-.1-.02-.099-.021-.099-.023-.098-.024-.098-.025-.097-.027-.097-.028-.096-.03-.096-.031-.096-.032-.095-.034-.094-.035-.094-.037-.093-.037-.093-.04-.092-.04-.091-.042-.091-.043-.09-.044-.09-.046-.089-.046-.088-.049-.088-.049-.087-.051-.086-.052-.085-.053-.085-.054-.084-.056-.083-.057-.083-.058-.081-.059-.081-.061-.08-.062-.079-.063-.078-.064-.077-.065-.077-.067-.075-.067-.075-.069-.074-.07-.073-.071-.071-.072-.071-.074-.07-.074-.069-.076-.068-.076-.067-.078-.065-.079-.065-.08-.064-.081-.06-.079-1.202-1.603-.039-.056-.035-.059-.031-.06-.027-.063-.023-.065-.018-.065-.013-.067-.009-.068-.005-.068.001-.068.005-.069.009-.067.015-.067.018-.066.024-.064.027-.062.032-.061.036-.058.039-.055.044-.053.047-.05.05-.046.053-.043.056-.039.059-.035.06-.031.063-.027.065-.023.065-.018.067-.013.068-.009.068-.005.068.001.069.005.067.009.067.015.066.018.064.024.062.027.061.032.058.036.055.039.053.044.05.047.046.05.043.053 1.198 1.597.047.062.045.058.046.057.047.056.048.056.048.054.05.054.05.053.05.053.051.051.052.051.053.05.053.049.054.049.055.047.055.047.056.045.056.045.057.044.058.044.058.042.059.042.06.04.06.04.06.039.061.038.062.037.062.036.062.036.063.034.064.034.064.032.064.032.065.031.066.029.066.029.066.028.066.027.067.026.068.025.068.024.068.023.068.023.069.021.069.02.07.019.07.018.07.018.07.016.071.015.071.014.071.013.072.012.072.012.072.01.072.009.072.008.073.007.073.006.073.004.073.004.074.003.073.001.074.001.074-.001.073-.001.074-.003.073-.004.073-.004.073-.006.073-.007.072-.008.072-.009.072-.01.072-.012.072-.012.071-.013.071-.014.071-.015.07-.016.07-.018.07-.018.07-.019.069-.02.069-.021.068-.023.068-.023.068-.024.068-.025.067-.026.066-.027.066-.028.066-.029.066-.029.065-.031.064-.032.064-.032.064-.034.063-.034.062-.036.062-.036.062-.037.061-.038.06-.039.06-.04.06-.04.059-.042.058-.042.058-.044.057-.044.056-.045.056-.045.055-.047.055-.047.054-.049.053-.049.053-.05.052-.051.051-.051.05-.053.05-.053.05-.054.048-.054.048-.056.047-.056.046-.057.045-.058.047-.062 1.198-1.597.043-.053.046-.05.05-.047.053-.044.055-.039.058-.036.061-.032.062-.027.064-.024.066-.018.067-.015.067-.009.069-.005.068-.001z" fill="#593604"/></g></svg>