<svg clip-rule="evenodd" fill-rule="evenodd" stroke-linejoin="round" stroke-miterlimit="1.41421" viewBox="0 0 32 32" xmlns="http://www.w3.org/2000/svg" xmlns:xlink="http://www.w3.org/1999/xlink"><clipPath id="a"><path clip-rule="evenodd" d="m0 0h32v32h-32z"/></clipPath><clipPath id="b"><path clip-rule="evenodd" d="m30 8c0-1.591-.632-3.117-1.757-4.243-1.126-1.125-2.652-1.757-4.243-1.757-4.724 0-11.276 0-16 0-1.591 0-3.117.632-4.243 1.757-1.125 1.126-1.757 2.652-1.757 4.243v16c0 1.591.632 3.117 1.757 4.243 1.126 1.125 2.652 1.757 4.243 1.757h16c1.591 0 3.117-.632 4.243-1.757 1.125-1.126 1.757-2.652 1.757-4.243 0-4.724 0-11.276 0-16z"/></clipPath><path d="m0 0h32v32h-32z" fill="none"/><g clip-path="url(#a)"><path d="m24.099.001c.297.005.593.023.887.06.616.076 1.222.225 1.803.441 1.167.434 2.227 1.143 3.074 2.055.757.815 1.339 1.787 1.701 2.838.278.807.42 1.652.435 2.506.034 5.399.034 10.799 0 16.198-.016.886-.168 1.764-.467 2.599-.398 1.109-1.042 2.125-1.875 2.959-.856.856-1.907 1.512-3.052 1.907-.807.278-1.652.42-2.506.435-5.399.035-10.799.035-16.198 0-.854-.015-1.699-.157-2.506-.435-1.302-.449-2.48-1.236-3.391-2.268-.671-.759-1.194-1.645-1.536-2.598-.198-.554-.335-1.129-.407-1.712-.037-.294-.055-.59-.06-.886-.034-5.4-.034-10.8 0-16.199.016-.854.157-1.699.435-2.506.362-1.051.944-2.023 1.7-2.837.848-.913 1.908-1.622 3.075-2.056.581-.216 1.187-.365 1.803-.441.294-.037.59-.055.887-.06 5.399-.032 10.799-.032 16.198 0z" fill-rule="nonzero"/><path d="m30 8c0-1.591-.632-3.117-1.757-4.243-1.126-1.125-2.652-1.757-4.243-1.757-4.724 0-11.276 0-16 0-1.591 0-3.117.632-4.243 1.757-1.125 1.126-1.757 2.652-1.757 4.243v16c0 1.591.632 3.117 1.757 4.243 1.126 1.125 2.652 1.757 4.243 1.757h16c1.591 0 3.117-.632 4.243-1.757 1.125-1.126 1.757-2.652 1.757-4.243 0-4.724 0-11.276 0-16z" fill="#e082a9"/><g clip-path="url(#b)"><path d="m0 0h32v16h-32z" fill="#24bee5"/></g><path d="m11 8h-2.586l1.586 1.586 2-2 1.414 1.414-2 2 .556.556c.391-.354.828-.658 1.298-.899.548-.28 1.138-.475 1.745-.576.276-.046.554-.07.833-.079.077-.002.154-.002.231-.002.255.005.508.023.761.058.611.086 1.208.267 1.763.535.52.25 1.002.576 1.429.963l3.556-3.556h-2.586v-2h6v6h-2v-2.586l-3.725 3.726c.069.128.134.258.194.391.539 1.191.671 2.55.377 3.823-.121.525-.314 1.033-.571 1.506-.299.549-.683 1.051-1.136 1.483-.524.499-1.137.903-1.804 1.185-.428.181-.877.311-1.335.388v1.995h2v2h-2v2h-2v-2h-2v-2h2v-1.995c-.386-.065-.765-.167-1.131-.306-.656-.25-1.265-.615-1.795-1.074-.472-.409-.88-.891-1.204-1.425-.292-.479-.515-.999-.662-1.541-.348-1.286-.255-2.678.264-3.905.076-.179.161-.355.253-.525l-.725-.726-2 2-1.414-1.414 2-2-1.586-1.586v2.586h-2v-6h6v2zm4.948 4c-.582.011-1.155.141-1.681.394-.492.238-.933.576-1.291.989-.253.292-.464.62-.623.972-.359.794-.447 1.7-.251 2.549.081.349.209.686.381 1.001.199.367.456.702.758.99.349.333.759.603 1.203.791.475.201.988.307 1.504.314.502.006 1.003-.081 1.472-.26.437-.166.843-.41 1.196-.716.316-.273.588-.595.805-.952.194-.318.343-.665.44-1.025.233-.857.171-1.785-.175-2.603-.151-.356-.354-.689-.6-.987-.347-.421-.781-.771-1.267-1.02-.517-.265-1.084-.408-1.664-.434-.069-.002-.138-.003-.207-.003z" fill="#fff"/></g></svg>