<svg clip-rule="evenodd" fill-rule="evenodd" stroke-linecap="round" stroke-miterlimit="1.5" viewBox="0 0 32 32" xmlns="http://www.w3.org/2000/svg" xmlns:xlink="http://www.w3.org/1999/xlink"><clipPath id="a"><path clip-rule="evenodd" d="m20.764 5 1.236 9-2 5-15.487 2.144s-.243-.724-.342-1.093c-.453-1.772-.888-3.549-1.331-5.323-.027-.117-.051-.233-.066-.352-.035-.276-.031-.557.011-.832.115-.751.521-1.442 1.12-1.909.219-.172.463-.312.721-.416.221-.09.453-.153.689-.187.118-.018.237-.025.356-.031.12-.001.12-.001.239.003.03.002.06.005.09.008l1.76-1.77 4.531-2.815 1.35-.337 2.359-1.09z"/></clipPath><path d="m0 0h32v32h-32z" fill="none"/><path d="m12.322 4.254c.159-.242.339-.47.537-.681.518-.551 1.161-.98 1.868-1.248.377-.143.77-.24 1.17-.289.151-.018.301-.027.452-.034.152-.002.151-.002.302 0 .151.007.301.016.452.034.4.049.793.146 1.17.289.538.204 1.04.502 1.477.876.45-.385.967-.689 1.523-.893.351-.13.717-.219 1.088-.267.159-.021.318-.031.479-.038.16-.003.16-.003.32 0 .161.007.32.017.479.038.371.048.737.137 1.088.267.652.24 1.252.617 1.751 1.1.538.521.956 1.163 1.214 1.865.148.401.244.821.285 1.247.015.16.02.319.023.48v4.352c.032.012.063.025.094.038.433.182.84.425 1.206.72.962.778 1.611 1.907 1.8 3.129.064.42.075.847.032 1.269-.019.19-.052.377-.09.564-.308 1.313-.646 2.618-.98 3.924-.112.419-.24.833-.389 1.24-.294.799-.664 1.569-1.104 2.298-.838 1.387-1.93 2.618-3.207 3.618-1.275.998-2.73 1.763-4.276 2.245-.902.281-1.833.466-2.774.55-.326.03-.653.046-.98.052-.096.008-.191.013-.287.018-.482.006-.964.002-1.445-.002-.446-.008-.891-.033-1.334-.081-.872-.094-1.734-.271-2.572-.527-1.552-.474-3.018-1.219-4.316-2.193-1.372-1.03-2.552-2.312-3.462-3.766-.517-.824-.947-1.703-1.281-2.616-.153-.419-.284-.845-.399-1.276-.455-1.779-.891-3.562-1.337-5.343-.047-.201-.087-.401-.112-.606-.05-.407-.049-.821.002-1.228.16-1.281.825-2.471 1.832-3.279.36-.289.761-.528 1.187-.707.378-.16.776-.272 1.182-.335.204-.031.408-.047.613-.056.073-.001.111-.001.147-.001 0-.214.014-.427.041-.638.159-1.239.79-2.393 1.747-3.195.374-.314.794-.572 1.243-.764.408-.175.839-.295 1.279-.356.176-.025.352-.037.53-.045.133-.003.133-.003.266-.002.134.005.266.011.399.025.309.031.615.091.913.179.052.016.103.032.154.049z"/><path d="m18 5h3v12h-15v-5.988l2-2.012 2-2 4-1z" fill="#614430"/><path d="m3.264 16.431c-.141-.568-.282-1.136-.424-1.703-.027-.117-.051-.233-.066-.352-.035-.276-.031-.557.011-.832.115-.751.521-1.442 1.12-1.909.219-.172.463-.312.721-.416.221-.09.453-.153.689-.187.118-.018.237-.025.356-.031.12-.001.12-.001.239.003.279.021.551.068.817.159.487.168.924.462 1.265.845l.329-.329c-.159-.651-.319-1.302-.481-1.951-.024-.102-.045-.202-.06-.305-.039-.274-.04-.552-.003-.826s.112-.542.223-.795c.305-.7.878-1.267 1.581-1.565.254-.107.523-.18.798-.214.103-.013.206-.018.309-.022.104-.001.103-.001.207.003.277.018.548.064.812.153.657.221 1.226.672 1.592 1.26.077.125.144.255.201.388v-.805c0-1.657 1.343-3 3-3s3 1.343 3 3v1h.5v-1c0-1.657 1.343-3 3-3s3 1.343 3 3v4.032l-1 .976 1 .992h.158c.923 0 1.796.426 2.364 1.154.569.728.77 1.677.546 2.574-.262 1.048-.559 2.235-.862 3.448-1.266 5.062-5.736 8.65-10.921 8.818-.09.011-.18.017-.27.022-.463.009-.926.003-1.39-.001-.382-.007-.763-.028-1.143-.069-.747-.081-1.486-.233-2.204-.452-1.33-.406-2.587-1.045-3.699-1.88-1.176-.882-2.188-1.981-2.969-3.228-.442-.706-.81-1.459-1.097-2.242-.131-.359-.243-.724-.342-1.093-.187-.734-.372-1.468-.555-2.203.125.056.305-.443.305-.443-.261-.119-.65-.967-.657-.974z" fill="#cbb39c"/><path d="m8 21.815c0-1.153.498-2.251 1.366-3.01 1.095-.958 2.663-2.33 4-3.5 1.508-1.32 3.76-1.32 5.268 0 2.331 2.04 5.366 4.695 5.366 4.695v1.877c0 1.232-.567 2.395-1.538 3.153s-2.237 1.026-3.432.727c-.905-.226-1.739-.434-2.302-.575-.478-.12-.978-.12-1.456 0-.563.141-1.397.349-2.302.575-1.195.299-2.461.031-3.432-.727s-1.538-1.921-1.538-3.153c0-.021 0-.041 0-.062z" fill="#89654d"/><path d="m20.764 5 1.236 9-2 5-15.487 2.144s-.243-.724-.342-1.093c-.453-1.772-.888-3.549-1.331-5.323-.027-.117-.051-.233-.066-.352-.035-.276-.031-.557.011-.832.115-.751.521-1.442 1.12-1.909.219-.172.463-.312.721-.416.221-.09.453-.153.689-.187.118-.018.237-.025.356-.031.12-.001.12-.001.239.003.03.002.06.005.09.008l1.76-1.77 4.531-2.815 1.35-.337 2.359-1.09z" fill="none"/><g stroke="#614430"><g clip-path="url(#a)" fill="none"><path d="m6.782 7.568s.841 3.365 1.454 5.819c.355 1.417 1.744 2.32 3.183 2.067h.001c1.449-.255 2.45-1.595 2.284-3.057-.331-2.907-.82-7.211-.82-7.211"/><path d="m19.5 4v7.332c0 1.348-.917 2.522-2.225 2.849-.008.002-.015.004-.023.006-.821.205-1.691.046-2.386-.436-.696-.482-1.149-1.241-1.245-2.082-.323-2.845-.737-6.483-.737-6.483"/><path d="m6.782 7.568s.899 3.599 1.516 6.067c.339 1.353-.23 2.771-1.409 3.516-.011.006-.021.013-.032.02-.86.543-1.927.65-2.878.287s-1.675-1.153-1.955-2.132c-.003-.012-.005-.019-.005-.019"/></g><path d="m26 12h-9v2c0 1.326.527 2.598 1.464 3.536.938.937 2.21 1.464 3.536 1.464h2" fill="#cbb39c" stroke-linecap="butt" stroke-width="2"/></g></svg>