<svg clip-rule="evenodd" fill-rule="evenodd" stroke-linecap="round" stroke-miterlimit="2" viewBox="0 0 32 32" xmlns="http://www.w3.org/2000/svg" xmlns:xlink="http://www.w3.org/1999/xlink"><clipPath id="a"><path clip-rule="evenodd" d="m25.632 14.544c.817.272 1.368 1.037 1.368 1.898v3.558c0 5.523-4.477 10-10 10-3.183 0-6.235-1.264-8.485-3.515-2.251-2.25-3.515-5.302-3.515-8.485 0-5.147 0-10 0-10h2v-3h17v7l-1 1 1 1s.841.28 1.632.544z"/></clipPath><path d="m0 0h32v32h-32z" fill="none"/><path d="m8.401 3.253c.222-.458.532-.872.908-1.214.406-.369.888-.653 1.407-.829.41-.138.837-.204 1.269-.21.04 0 .08.001.119.001.136.005.27.014.405.031.328.042.651.124.959.246.373.147.722.35 1.034.6.336-.269.715-.486 1.123-.635.41-.15.837-.225 1.273-.242.102-.001.102-.001.204 0 .136.005.27.014.405.031.329.042.652.124.96.246.373.147.722.35 1.034.601.311-.25.658-.454 1.032-.601.308-.122.631-.204.96-.246.135-.017.269-.026.405-.031.102-.001.102-.001.204 0 .136.005.27.014.405.031.329.042.652.124.96.246.569.224 1.083.58 1.494 1.032.369.406.653.888.829 1.408.138.41.205.837.21 1.27v6.012 1.558c.114.038.228.076.341.115.075.027.149.056.223.087.432.189.83.442 1.174.765.583.548.994 1.269 1.167 2.05.058.259.086.521.094.786.013 1.264.008 2.529 0 3.794-.009.458-.037.916-.095 1.371-.113.887-.325 1.761-.633 2.6-.499 1.363-1.248 2.631-2.198 3.728-1.039 1.2-2.317 2.191-3.739 2.898-1.013.503-2.098.862-3.212 1.061-.996.178-2.01.223-3.019.159-1.05-.067-2.092-.252-3.1-.551-1.306-.389-2.554-.971-3.692-1.72-1.31-.862-2.473-1.945-3.427-3.189-.86-1.121-1.548-2.372-2.034-3.698-.379-1.035-.634-2.114-.759-3.209-.054-.473-.081-.948-.09-1.425-.009-1.522-.006-3.044-.003-4.567-.007-2.238-.025-4.477.003-6.715.017-.436.092-.863.242-1.274.39-1.064 1.235-1.93 2.29-2.346.308-.121.631-.204.96-.246.135-.017.269-.026.405-.031.102-.001.102-.001.204 0 .136.005.27.014.405.031.305.039.606.113.894.221z"/><path d="m25.632 14.544c.817.272 1.368 1.037 1.368 1.898v3.558c0 5.523-4.477 10-10 10-3.183 0-6.235-1.264-8.485-3.515-2.251-2.25-3.515-5.302-3.515-8.485 0-5.147 0-10 0-10h2v-3h17v7l-1 1 1 1s.841.28 1.632.544z" fill="#f2b38f"/><g clip-path="url(#a)"><path d="m15.25 18.5-2.25 4.5" fill="none" stroke="#e28e5d" stroke-width="2"/><g fill="#93482a"><path d="m12 5h12v8h-12z"/><path d="m10 5c0-1.105.895-2 2-2s2 .895 2 2v14s-2.303-2.303-3.414-3.414c-.375-.375-.586-.884-.586-1.414 0-1.877 0-6.498 0-9.172z"/><path d="m12.077 2.001.077.003.076.005.075.006.076.009.075.01.074.013.074.014.072.016.073.017.072.02.071.021.07.023.069.024.069.026.068.028.067.029.066.031.066.033.064.034.063.035.062.037.062.038.06.04.059.041.059.042.057.044.056.045.055.047.053.047.053.05.051.05.05.051.05.053.047.053.047.055.045.056.044.058.042.057.041.06.04.06.038.062.037.062.035.063.034.064.033.066.031.066.029.067.028.068.026.068.024.07.023.07.021.071.02.072.017.073.016.073.014.073.013.074.01.075.009.076.006.075.005.076.003.077.001.071v15.757l-.469.194-4.657-4.656-.047-.049-.051-.055-.049-.056-.048-.056-.046-.058-.044-.059-.044-.059-.041-.061-.04-.062-.039-.062-.036-.063-.036-.065-.033-.065-.032-.065-.031-.067-.029-.068-.027-.067-.025-.068-.024-.07-.022-.07-.021-.07-.019-.071-.017-.072-.015-.071-.013-.072-.012-.073-.01-.074-.008-.073-.007-.073-.004-.075-.003-.074-.001-.068v-9.184l.001-.071.003-.077.005-.076.006-.075.009-.076.01-.075.013-.074.014-.073.016-.073.017-.073.02-.072.021-.071.023-.07.024-.07.026-.068.028-.068.029-.067.031-.066.033-.066.034-.064.035-.063.037-.062.038-.062.04-.06.041-.06.043-.058.043-.057.045-.056.047-.055.047-.053.05-.053.05-.051.051-.05.053-.05.053-.047.055-.047.056-.045.057-.044.059-.042.059-.041.06-.04.062-.038.062-.037.063-.035.064-.034.066-.033.066-.031.067-.029.068-.028.069-.026.069-.024.07-.023.071-.021.072-.02.073-.017.072-.016.074-.014.074-.013.075-.01.076-.009.075-.006.076-.005.077-.003.077-.001.077.001zm-.129 1-.051.002-.051.003-.05.004-.051.006-.05.007-.049.008-.049.01-.049.01-.048.012-.048.013-.047.014-.046.015-.047.016-.045.018-.045.018-.045.02-.044.02-.044.022-.042.022-.043.024-.041.025-.041.025-.04.027-.04.027-.039.028-.038.03-.037.03-.037.031-.036.032-.035.032-.034.034-.034.034-.032.035-.032.036-.031.037-.03.037-.03.038-.028.039-.027.04-.027.04-.025.041-.025.041-.024.043-.022.042-.022.044-.02.044-.02.045-.018.045-.018.045-.016.047-.015.046-.014.047-.013.048-.012.048-.01.049-.01.049-.008.049-.007.05-.006.051-.004.05-.003.051-.002.051-.001.052v9.172l.001.049.001.05.004.049.004.049.005.049.007.049.008.048.009.049.01.047.011.048.013.047.013.047.015.047.016.046.017.046.018.045.019.045.021.044.021.044.023.043.023.043.025.042.025.042.027.041.028.041.028.039.03.04.031.038.032.038.032.037.034.036.035.036 3.414 3.414v-14l-.001-.052-.002-.051-.003-.051-.004-.05-.006-.051-.007-.05-.008-.049-.01-.049-.01-.049-.012-.048-.013-.048-.014-.047-.015-.046-.016-.047-.018-.045-.018-.045-.02-.045-.02-.044-.022-.044-.022-.042-.024-.043-.025-.041-.025-.041-.027-.04-.027-.04-.028-.039-.03-.038-.03-.037-.031-.037-.032-.036-.032-.035-.034-.034-.034-.034-.035-.032-.036-.032-.037-.031-.037-.03-.038-.03-.039-.028-.04-.027-.04-.027-.041-.025-.041-.025-.043-.024-.042-.022-.044-.022-.044-.02-.045-.02-.045-.018-.045-.018-.047-.016-.046-.015-.047-.014-.048-.013-.048-.012-.049-.01-.049-.01-.049-.008-.05-.007-.051-.006-.05-.004-.051-.003-.051-.002-.052-.001s-.052.001-.052.001z"/><path d="m5 7c0-.53.211-1.039.586-1.414s.884-.586 1.414-.586c1.105 0 2 .895 2 2v11.001s-1.944-1.945-3.122-3.122c-.562-.563-.878-1.326-.878-2.121 0-1.487 0-3.997 0-5.758z"/><path d="m7.077 4.001.077.003.076.005.076.006.075.009.074.01.075.013.074.014.073.016.072.017.072.02.071.021.07.023.069.024.069.026.068.028.067.029.066.031.066.033.064.034.063.035.062.037.062.038.06.04.059.041.059.043.057.043.056.045.055.047.053.047.053.049.051.051.051.051.048.053.048.053.047.055.045.056.044.058.042.058.041.059.04.06.038.062.037.062.035.063.034.065.033.065.031.066.029.067.028.068.026.069.024.069.023.07.021.071.02.072.017.073.016.072.014.074.013.075.01.074.009.075.006.076.005.077.003.076.001.07v12.758l-.469.195-4.364-4.365-.065-.066-.068-.073-.065-.074-.063-.075-.062-.078-.059-.078-.058-.079-.055-.081-.053-.083-.052-.083-.049-.084-.047-.086-.045-.087-.043-.088-.04-.088-.039-.09-.036-.09-.034-.092-.032-.092-.029-.093-.028-.094-.024-.095-.023-.095-.021-.096-.018-.096-.015-.097-.014-.097-.011-.098-.008-.099-.006-.098-.004-.099-.001-.093v-5.77l.001-.068.003-.075.004-.074.007-.073.008-.074.01-.073.012-.073.013-.072.015-.072.017-.071.019-.071.021-.07.022-.07.024-.07.025-.068.027-.068.029-.067.031-.067.032-.066.033-.065.036-.064.037-.063.038-.063.04-.062.042-.06.043-.06.044-.059.046-.057.048-.057.049-.056.051-.054.052-.053.053-.052.054-.051.056-.049.057-.048.057-.046.059-.044.06-.043.06-.042.062-.04.063-.039.063-.036.064-.036.065-.033.066-.032.067-.031.067-.029.068-.027.069-.025.069-.024.07-.022.07-.021.071-.019.071-.017.072-.015.072-.013.073-.012.073-.01.073-.008.074-.007.074-.004.075-.003.074-.001.077.001zm-.127 1-.049.001-.05.004-.049.004-.049.005-.048.007-.049.008-.048.009-.048.01-.048.011-.047.013-.047.013-.046.015-.046.016-.046.017-.045.018-.045.019-.045.021-.043.021-.044.023-.043.023-.042.025-.042.025-.041.027-.04.028-.04.028-.039.03-.039.031-.037.032-.037.032-.037.034-.035.035-.035.035-.034.037-.032.037-.032.037-.031.039-.03.039-.028.04-.028.04-.027.041-.025.042-.025.042-.023.043-.023.044-.021.043-.021.045-.019.045-.018.045-.017.046-.016.046-.015.046-.013.047-.013.048-.011.047-.01.048-.009.048-.008.049-.007.048-.005.049-.004.049-.004.05-.001.049-.001.05v5.758l.001.074.003.074.004.074.007.074.008.073.01.073.012.073.013.072.015.072.017.072.019.071.021.07.022.07.024.069.025.069.027.067.029.068.031.066.032.066.033.065.036.064.036.064.039.062.04.062.041.06.044.06.044.059.046.058.048.056.049.056.05.054.052.054 3.122 3.122v-11.001l-.001-.052-.002-.051-.003-.051-.004-.05-.006-.051-.007-.05-.008-.049-.01-.049-.01-.049-.012-.048-.013-.048-.014-.047-.015-.046-.016-.047-.018-.045-.018-.045-.02-.045-.02-.044-.022-.044-.022-.042-.024-.043-.025-.041-.025-.041-.027-.04-.027-.04-.028-.039-.03-.038-.03-.037-.031-.037-.032-.036-.032-.035-.034-.034-.034-.034-.035-.032-.036-.032-.037-.031-.037-.03-.038-.03-.039-.028-.04-.027-.04-.027-.041-.025-.041-.025-.043-.024-.042-.022-.044-.022-.044-.02-.045-.02-.045-.018-.045-.018-.047-.016-.046-.015-.047-.014-.048-.013-.048-.012-.049-.01-.049-.01-.049-.008-.05-.007-.051-.006-.05-.004-.051-.003-.051-.002-.052-.001s-.05.001-.05.001z"/></g></g><g fill="#f2b38f"><path d="m20 4.998c0-1.103.895-1.998 1.998-1.998h.004c1.103 0 1.998.895 1.998 1.998v7.002l-1 1h-3s0-5.084 0-8.002z"/><path d="m15 4.998c0-1.103.895-1.998 1.998-1.998h.004c1.103 0 1.998.895 1.998 1.998v8.002h-4s0-5.084 0-8.002z"/><path d="m10 5c0-1.105.895-2 2-2s2 .895 2 2v14s-2.303-2.303-3.414-3.414c-.375-.375-.586-.884-.586-1.414 0-1.877 0-6.498 0-9.172z"/><path d="m5 7c0-.53.211-1.039.586-1.414s.884-.586 1.414-.586c1.105 0 2 .895 2 2v11.001s-1.944-1.945-3.122-3.122c-.562-.563-.878-1.326-.878-2.121 0-1.487 0-3.997 0-5.758z"/><path d="m24 13h-12s.485.97 1.065 2.13c1.186 2.372 3.61 3.87 6.261 3.87h.674l2.909 2.818" stroke="#93482a" stroke-linecap="butt" stroke-width="2"/></g></svg>