<svg clip-rule="evenodd" fill-rule="evenodd" stroke-linecap="round" stroke-miterlimit="2" viewBox="0 0 32 32" xmlns="http://www.w3.org/2000/svg" xmlns:xlink="http://www.w3.org/1999/xlink"><clipPath id="a"><path clip-rule="evenodd" d="m0 0h32v32h-32z"/></clipPath><clipPath id="b"><path clip-rule="evenodd" d="m23.894 18.447c.678.339 1.106 1.032 1.106 1.789v2.471c0 1.934-.768 3.789-2.136 5.157s-3.223 2.136-5.157 2.136c-.226 0-.454 0-.682 0-4.984 0-9.025-4.041-9.025-9.025 0-3.851 0-7.475 0-7.475h1.5v-1.5h3.5l1-1 2-1.5 2 4.5h5v2l-1 1 1 1s.432.216.894.447z"/></clipPath><path d="m0 0h32v32h-32z" fill="none"/><g clip-path="url(#a)"><g fill="#b0b0b0"><path d="m19 12.5c0-.398-.158-.779-.439-1.061-.282-.281-.663-.439-1.061-.439s-.779.158-1.061.439c-.281.282-.439.663-.439 1.061v8.5h3s0-5.709 0-8.5z"/><path d="m23 12.5c0-.398-.158-.779-.439-1.061-.282-.281-.663-.439-1.061-.439s-.779.158-1.061.439c-.281.282-.439.663-.439 1.061v6.5h3s0-4.184 0-6.5z"/><path d="m15 11.5c0-.398-.158-.779-.439-1.061-.282-.281-.663-.439-1.061-.439s-.779.158-1.061.439c-.281.282-.439.663-.439 1.061v7.5h3s0-4.94 0-7.5z"/><path d="m11 12.5c0-.398-.158-.779-.439-1.061-.282-.281-.663-.439-1.061-.439s-.779.158-1.061.439c-.281.282-.439.663-.439 1.061v5.5h3s0-3.443 0-5.5z"/></g><path d="m19.717 6.39c.143-.387.268-.771.368-1.151.029-.098.029-.097.059-.194.088-.253.194-.497.327-.73.249-.432.578-.817.967-1.129.155-.124.318-.234.488-.335l4.819-2.788c.518.39 1.037.781 1.556 1.172l-3.301 13.203v2.334c.077.044.076.045.156.095l.117.077c.226.162.438.337.63.539.44.465.766 1.035.942 1.65.091.315.136.635.153.962.016.909.007 1.818.001 2.728-.005.306-.022.612-.056.916-.076.679-.227 1.349-.45 1.995-.271.787-.648 1.536-1.118 2.223-.411.6-.892 1.151-1.431 1.639-1.323 1.199-2.989 1.999-4.752 2.285-.377.061-.757.098-1.139.113-.344.012-.691.006-1.034.006-1.108-.001-2.214-.167-3.272-.496-1.066-.332-2.08-.827-2.997-1.463-1.86-1.29-3.302-3.149-4.08-5.275-.299-.815-.5-1.665-.598-2.527-.043-.373-.064-.747-.071-1.122-.006-.863-.005-1.727-.004-2.591-.006-2.037-.021-4.075.004-6.113.015-.402.088-.797.234-1.173.363-.942 1.134-1.695 2.085-2.035.353-.126.72-.19 1.093-.204.087-.001.087-.001.174 0 .402.015.797.088 1.173.234.019.007.038.014.056.022.397-.473.916-.842 1.504-1.052.191-.069.387-.119.586-.153l-1.705-6.817 1.556-1.172c1.606.929 3.213 1.859 4.819 2.788.199.118.388.249.565.399.407.343.743.767.985 1.241.122.239.215.49.29.748.101.383.202.767.301 1.151z"/><path d="m23.894 18.447c.678.339 1.106 1.032 1.106 1.789v2.471c0 1.934-.768 3.789-2.136 5.157s-3.223 2.136-5.157 2.136c-.226 0-.454 0-.682 0-4.984 0-9.025-4.041-9.025-9.025 0-3.851 0-7.475 0-7.475h1.5v-1.5h3.5l1-1 2-1.5 2 4.5h5v2l-1 1 1 1s.432.216.894.447z" fill="#8fe9ce"/><g clip-path="url(#b)"><path d="m16.5 21-2 4" fill="none" stroke="#4fc0ae" stroke-width="2"/><g fill="#1c7171"><path d="m11 9h8v9h-8z"/><path d="m12 11.5c0-.398.158-.779.439-1.061.282-.281.663-.439 1.061-.439s.779.158 1.061.439c.281.282.439.663.439 1.061v9.5s-1.541-1.541-2.414-2.414c-.375-.375-.586-.884-.586-1.414 0-1.339 0-3.995 0-5.672z"/><path d="m13.562 9.001.062.002.062.004.061.005.061.007.061.008.061.01.06.011.06.013.06.014.058.016.059.017.058.018.058.02.057.022.057.022.056.024.055.026.055.026.054.028.054.03.053.031.052.032.051.033.051.035.049.036.049.037.049.038.047.04.046.041.045.042.045.043.043.045.042.045.041.046.04.048.038.048.037.049.036.049.035.051.033.051.032.052.031.053.03.054.028.054.026.055.026.055.024.056.022.057.022.057.02.058.018.058.017.058.016.06.014.059.013.06.011.06.01.061.008.061.007.061.005.061.004.062.002.062.001.056v11.257l-.469.194-3.657-3.657-.047-.048-.051-.055-.049-.055-.048-.057-.046-.058-.044-.059-.043-.059-.042-.061-.04-.062-.039-.062-.036-.064-.036-.064-.033-.065-.032-.066-.031-.066-.029-.067-.027-.068-.025-.069-.024-.069-.022-.07-.021-.07-.019-.071-.017-.072-.015-.071-.013-.073-.012-.072-.01-.074-.008-.073-.007-.074-.004-.074-.003-.074-.001-.068v-5.684l.001-.056.002-.062.004-.062.005-.061.007-.061.008-.061.01-.061.011-.06.013-.06.014-.059.016-.059.017-.059.018-.058.02-.058.022-.057.022-.057.024-.056.026-.055.026-.055.028-.054.03-.054.031-.053.032-.052.033-.051.035-.051.036-.049.037-.049.038-.048.04-.048.041-.046.042-.045.043-.045.045-.043.045-.042.046-.041.048-.04.048-.038.049-.037.049-.036.051-.035.051-.033.052-.032.053-.031.054-.03.054-.028.055-.026.055-.026.056-.024.057-.022.057-.022.058-.02.058-.018.059-.017.058-.016.06-.014.06-.013.06-.011.061-.01.061-.008.061-.007.061-.005.062-.004.062-.002.056-.001h.012l.056.001zm-.099.999-.037.002-.037.002-.037.003-.037.004-.037.005-.036.006-.036.007-.036.008-.036.008-.035.01-.035.01-.035.011-.035.012-.034.013-.034.013-.034.015-.033.015-.033.016-.032.017-.032.017-.032.019-.031.019-.031.02-.031.021-.029.021-.03.023-.029.023-.028.024-.028.024-.027.025-.027.026-.026.027-.025.027-.025.028-.023.028-.023.029-.023.03-.021.029-.021.031-.02.031-.019.031-.019.032-.017.032-.017.032-.016.033-.015.033-.015.034-.013.034-.013.034-.012.035-.011.035-.01.035-.01.035-.008.036-.008.036-.007.036-.006.037-.005.036-.004.037-.003.037-.002.037-.002.037v.037 5.672l.001.049.001.05.004.049.004.049.005.049.007.049.008.048.009.049.01.047.011.048.013.047.013.047.015.047.016.046.017.046.018.045.019.045.021.044.021.044.023.043.023.043.025.042.025.042.027.041.028.041.028.039.03.04.031.038.032.038.032.037.034.036.035.036 2.414 2.414v-9.5-.037l-.002-.037-.002-.037-.003-.037-.004-.037-.005-.036-.006-.037-.007-.036-.008-.036-.008-.036-.01-.035-.01-.035-.011-.035-.012-.035-.013-.034-.013-.034-.015-.034-.015-.033-.016-.033-.017-.032-.017-.032-.019-.032-.019-.031-.02-.031-.021-.031-.021-.029-.023-.03-.023-.029-.023-.028-.025-.028-.025-.027-.026-.027-.027-.026-.027-.025-.028-.024-.028-.024-.029-.023-.03-.023-.029-.021-.031-.021-.031-.02-.031-.019-.032-.019-.032-.017-.032-.017-.033-.016-.033-.015-.034-.015-.034-.013-.034-.013-.035-.012-.035-.011-.035-.01-.035-.01-.036-.008-.036-.008-.036-.007-.036-.006-.037-.005-.037-.004-.037-.003-.037-.002-.037-.002h-.037-.037z"/><path d="m8 12.468c0-.389.155-.763.43-1.038s.649-.43 1.038-.43h.002c.845 0 1.53.685 1.53 1.53v7.47s-1.236-1.236-2.121-2.121c-.563-.563-.879-1.326-.879-2.122 0-.956 0-2.28 0-3.289z"/><path d="m9.535 10.001.064.002.065.004.063.006.064.007.063.009.063.01.062.012.061.014.062.015.06.016.06.018.059.019.059.021.058.022.057.023.057.025.055.026.055.027.055.029.053.03.053.031.051.032.051.034.05.034.049.036.049.037.047.038.046.039.045.04.045.042.043.042.042.043.042.045.04.045.039.046.038.048.037.048.036.049.034.05.034.051.032.051.031.053.03.053.029.055.027.055.026.055.025.057.023.057.022.058.021.059.019.059.018.06.016.06.015.062.014.061.012.062.01.063.009.063.007.064.006.063.004.065.002.064.001.059v9.227l-.469.194-3.364-3.364-.065-.066-.067-.073-.066-.074-.063-.076-.062-.077-.059-.078-.058-.079-.055-.081-.053-.083-.052-.083-.049-.085-.047-.085-.045-.087-.043-.088-.04-.088-.039-.09-.036-.09-.034-.092-.032-.092-.029-.093-.027-.094-.025-.095-.023-.095-.021-.096-.018-.096-.015-.097-.014-.097-.011-.098-.008-.099-.006-.098-.004-.099-.001-.093v-3.302l.001-.055.002-.061.004-.061.005-.061.007-.06.008-.06.01-.06.011-.06.012-.059.014-.059.016-.058.017-.058.018-.057.019-.057.021-.057.023-.056.023-.055.026-.055.026-.054.028-.053.029-.053.03-.052.032-.052.033-.05.034-.05.035-.049.037-.049.038-.047.039-.047.04-.046.042-.044.043-.044.044-.043.045-.042.045-.04.047-.039.047-.038.049-.037.049-.035.05-.034.05-.033.052-.032.052-.03.053-.029.053-.028.054-.026.055-.025.056-.024.055-.023.057-.021.057-.019.057-.018.058-.017.058-.016.059-.014.059-.012.06-.011.059-.01.061-.008.06-.007.061-.005.061-.004.061-.002.055-.001h.014zm-.067.999h-.036l-.037.002-.036.002-.036.003-.036.004-.036.005-.035.006-.036.006-.035.008-.035.008-.035.009-.034.01-.034.011-.034.012-.034.012-.033.014-.033.014-.032.015-.032.015-.032.017-.032.017-.031.018-.03.019-.03.02-.03.02-.029.021-.029.022-.028.022-.028.024-.027.024-.027.025-.026.025-.025.026-.025.027-.024.027-.024.028-.022.028-.022.029-.021.029-.02.03-.02.03-.019.03-.018.031-.017.032-.017.032-.015.032-.015.032-.014.033-.014.033-.012.034-.012.034-.011.034-.01.034-.009.035-.008.035-.008.035-.006.036-.006.035-.005.036-.004.036-.003.036-.002.036-.002.037v.036 3.289l.001.075.003.074.004.074.007.074.008.073.01.073.012.073.013.072.015.072.017.072.019.07.021.071.022.07.024.069.025.068.027.068.029.068.031.066.032.066.033.065.036.064.037.064.038.062.04.062.042.06.043.06.044.059.046.058.048.056.049.056.051.054.052.054 2.121 2.121v-7.47-.039l-.002-.04-.002-.039-.004-.038-.004-.039-.006-.038-.006-.038-.007-.037-.008-.038-.009-.036-.01-.037-.011-.036-.011-.036-.013-.035-.013-.035-.014-.035-.015-.034-.016-.033-.016-.034-.018-.032-.018-.033-.019-.031-.019-.032-.02-.03-.021-.031-.022-.029-.022-.03-.023-.028-.024-.028-.024-.028-.025-.027-.026-.026-.026-.026-.027-.025-.028-.024-.028-.024-.028-.023-.03-.022-.029-.022-.031-.021-.03-.02-.032-.019-.031-.019-.033-.018-.032-.018-.034-.016-.033-.016-.034-.015-.035-.014-.035-.013-.035-.013-.036-.011-.036-.011-.037-.01-.036-.009-.038-.008-.037-.007-.038-.006-.038-.006-.039-.004-.038-.004-.039-.002-.039-.001-.04-.001z"/></g></g><path d="m20.543 11.651 1.457-.151 1.453.879-1.36 5.439-2.91-.727zm3.91-3.272-.757 3.03-.696.591-2.215-1.319.758-3.03 1.457-.151zm.243-.97-.696.591-2.215-1.319.215-.859c.131-.525.47-.975.939-1.246 1.056-.612 2.882-1.668 2.882-1.668z" fill="#8fe9ce"/><path d="m23.696 11.409-.243.97-2.91-.728.242-.97zm1-4-.243.97-2.91-.728.242-.97z" fill="#4fc0ae"/><path d="m18.959 11.651 1.36 5.44-2.91.727-1.36-5.44 1.451-1.378zm-3.91-3.273 1.951-.878.959.151.757 3.03-1.216 1.319-1.505-.639c-.013-.22-.052-.436-.121-.646-.097-.292-.248-.562-.441-.797zm-.243-.97-1.125-4.5s1.826 1.056 2.882 1.668c.469.271.807.721.939 1.246l.214.859-1.716.819z" fill="#8fe9ce"/><path d="m15.995 11.361 2.721-.68.243.97-2.91.727-.049-.194v-.69c-.001-.045-.002-.089-.005-.133zm1.964-3.71-2.91.727-.243-.97 2.91-.727z" fill="#4fc0ae"/><path d="m8 12.468c0-.389.155-.763.43-1.038s.649-.43 1.038-.43h.002c.845 0 1.53.685 1.53 1.53v7.47s-1.236-1.236-2.121-2.121c-.563-.563-.879-1.326-.879-2.122 0-.956 0-2.28 0-3.289z" fill="#8fe9ce"/><path d="m12 11.5c0-.398.158-.779.439-1.061.282-.281.663-.439 1.061-.439s.779.158 1.061.439c.281.282.439.663.439 1.061v9.5s-1.541-1.541-2.414-2.414c-.375-.375-.586-.884-.586-1.414 0-1.339 0-3.995 0-5.672z" fill="#8fe9ce"/><path d="m23 17h-9s.273.682.617 1.543c.835 2.088 2.858 3.457 5.107 3.457h.276l2 2" fill="#8fe9ce" stroke="#1c7171" stroke-linecap="butt" stroke-width="2"/></g></svg>