<svg clip-rule="evenodd" fill-rule="evenodd" stroke-linecap="round" stroke-miterlimit="1.5" viewBox="0 0 32 32" xmlns="http://www.w3.org/2000/svg" xmlns:xlink="http://www.w3.org/1999/xlink"><clipPath id="a"><path clip-rule="evenodd" d="m13.523 9.477 5.74 2.164s-1.582 6.225-5.263 9.359c-2.665 2.269-7.735 1.84-7.846 1.422-.41-1.602-.803-3.207-1.205-4.811-.023-.1-.043-.199-.056-.301-.025-.202-.025-.408 0-.61.079-.645.414-1.245.922-1.65.186-.148.393-.27.614-.36.188-.077.387-.131.589-.16.101-.015.202-.021.304-.026.09 0 .101 0 .171.003l1.273-1.273 3.514-2.514z"/></clipPath><path d="m0 0h32v32h-32z" fill="none"/><path d="m11.23 8.501c-.197-.804-.395-1.607-.596-2.41-.033-.142-.063-.284-.085-.428-.057-.385-.064-.776-.021-1.163.125-1.116.675-2.163 1.523-2.899.33-.287.703-.525 1.101-.704.355-.16.73-.273 1.113-.337.193-.031.385-.047.58-.057.146-.003.145-.003.291-.001.146.007.291.016.436.035.289.037.575.102.851.194 1.019.34 1.896 1.046 2.445 1.969.124.209.231.428.32.654.022.056.042.112.062.168.007-.021.015-.042.022-.064.108-.295.247-.579.413-.845.558-.891 1.427-1.569 2.427-1.894.249-.08.505-.139.765-.176.156-.021.312-.032.469-.04.157-.003.156-.003.314 0 .157.008.313.019.469.041.415.059.821.176 1.204.346 1.009.45 1.83 1.273 2.279 2.282.17.383.287.79.345 1.205.058.414.057.837-.001 1.252-.022.156-.055.309-.09.462l-1.866 7.463v1.77c.049.019.098.038.147.058 1.087.452 1.994 1.289 2.531 2.336.234.455.397.947.482 1.451.069.415.087.837.051 1.256-.016.188-.045.374-.08.56-.133.615-.279 1.228-.423 1.84-.094.378-.201.751-.329 1.118-.278.8-.64 1.57-1.08 2.293-.755 1.24-1.736 2.34-2.881 3.232-1.146.892-2.454 1.574-3.842 2.002-.77.237-1.564.396-2.365.474-.345.033-.69.05-1.036.055l-.125.001h-1.05v-.004c-.055 0-.11 0-.165-.001-.388-.006-.774-.026-1.159-.067-.757-.081-1.507-.233-2.235-.454-1.427-.433-2.771-1.131-3.947-2.048-1.11-.867-2.066-1.926-2.815-3.118-.449-.716-.823-1.479-1.113-2.272-.134-.364-.247-.734-.347-1.108-.412-1.608-.807-3.221-1.21-4.832-.042-.178-.078-.357-.101-.539-.05-.409-.044-.824.018-1.231s.18-.806.35-1.181c.475-1.047 1.352-1.887 2.419-2.316.34-.137.696-.231 1.058-.282.009-.001.017-.002.025-.003.007-.069.016-.138.026-.206.062-.417.183-.824.357-1.207.475-1.039 1.345-1.872 2.403-2.301.351-.143.72-.24 1.095-.29.167-.023.335-.033.503-.039h.068z"/><path d="m7 15 2-2 3-2 2-2 2 2v11h-9z" fill="#7f1f66"/><path d="m4.989 17.77c-.013-.053-.027-.106-.04-.159-.023-.1-.043-.199-.056-.301-.025-.202-.025-.408 0-.61.079-.645.414-1.245.922-1.65.186-.148.393-.27.614-.36.188-.077.387-.131.589-.16.101-.015.202-.021.304-.026.103 0 .102 0 .204.005.239.019.471.062.697.143.403.146.763.395 1.042.717-.144-.588-.289-1.176-.435-1.763-.022-.092-.041-.184-.053-.278-.029-.219-.029-.442 0-.661.085-.628.412-1.212.905-1.611.172-.138.362-.254.564-.343.202-.09.416-.152.635-.185.093-.014.187-.021.282-.026.095-.002.094-.002.189 0 .254.015.501.057.741.143.537.191.999.566 1.296 1.053.041.067.078.135.111.204l.393-.902c-.438-1.798-.869-3.598-1.318-5.394-.025-.106-.046-.212-.059-.321-.025-.217-.021-.437.011-.653.038-.252.114-.498.225-.727.256-.525.696-.95 1.23-1.188.199-.089.41-.152.625-.186.109-.017.217-.025.326-.03.109-.001.109-.001.218.004.219.018.432.054.641.124.519.173.973.518 1.28.972.144.213.246.443.325.687.666 2.44 1.269 4.896 1.866 7.353l1.812-7.247c.062-.228.144-.445.263-.65.296-.509.771-.903 1.326-1.1.223-.079.451-.12.687-.14.117-.004.117-.004.234-.003.104.006.13.006.234.019.232.03.46.093.675.186.216.094.417.217.598.367.485.4.805.979.887 1.603.03.232.028.469-.008.701-.015.103-.023.128-.046.229l-1.925 7.702v1.692l-1 1 1 1h.229c.914 0 1.778.417 2.348 1.132.569.716.781 1.652.575 2.543-.116.502-.238 1.032-.363 1.574-1.047 4.537-5.088 7.751-9.744 7.751-.03 0-.807-.002-1.189-.004-.961-.016-1.915-.157-2.835-.436-1.192-.361-2.314-.944-3.296-1.711-.927-.723-1.727-1.608-2.352-2.604-.548-.874-.953-1.827-1.219-2.823-.208-.811-.411-1.623-.613-2.435.147.083.229-.503.229-.503-.224-.13-.65-1.323-.736-1.571-.015-.047-.03-.095-.045-.143z" fill="#ea8ec2"/><path d="m9 23.657c0-1.061.421-2.078 1.172-2.829l3-3c.75-.75 1.767-1.171 2.828-1.171s2.078.421 2.828 1.171c1.943 1.943 4.172 4.172 4.172 4.172v2.158c0 .923-.426 1.796-1.154 2.364-.728.569-1.677.77-2.574.546-.917-.229-1.782-.445-2.294-.574-.318-.079-.643-.119-.97-.119-.005 0-.011 0-.016 0-.327 0-.652.04-.97.119-.512.129-1.377.345-2.294.574-.897.224-1.846.023-2.574-.546-.728-.568-1.154-1.441-1.154-2.364 0-.172 0-.34 0-.501z" fill="#b53d95"/><path d="m13.523 9.477 5.74 2.164s-1.582 6.225-5.263 9.359c-2.665 2.269-7.735 1.84-7.846 1.422-.41-1.602-.803-3.207-1.205-4.811-.023-.1-.043-.199-.056-.301-.025-.202-.025-.408 0-.61.079-.645.414-1.245.922-1.65.186-.148.393-.27.614-.36.188-.077.387-.131.589-.16.101-.015.202-.021.304-.026.09 0 .101 0 .171.003l1.273-1.273 3.514-2.514z" fill="none"/><g clip-path="url(#a)" fill="none" stroke="#7f1f66"><path d="m7.5 12s1.183 2.366 2.063 4.126c.547 1.095 1.782 1.663 2.97 1.366.001 0 .001-.001.002-.001 1.155-.288 1.965-1.326 1.965-2.516 0-.161 0-.313 0-.447 0-.35-.058-.697-.172-1.027-.498-1.44-1.901-5.501-1.901-5.501"/><path d="m7.5 12s1.059 2.117 2.011 4.023c.363.724.376 1.574.038 2.31-.338.735-.993 1.278-1.778 1.474-.011.003-.021.005-.031.008-1.378.344-2.784-.449-3.2-1.806-.264-.858-.496-1.613-.496-1.613"/></g><path d="m23.704 4.041c1.047.261 1.589 1.707 1.21 3.226-.378 1.52-1.536 2.542-2.583 2.281s-1.589-1.707-1.21-3.227c.379-1.519 1.536-2.541 2.583-2.28z" fill="#b53d95"/><path d="m14.761 4.042c-1.047.261-1.596 1.677-1.227 3.16.37 1.483 1.52 2.475 2.567 2.214s1.597-1.677 1.227-3.16-1.52-2.475-2.567-2.214z" fill="#b53d95"/><path d="m24 16h-7v1c0 2.761 2.239 5 5 5h1" fill="#ea8ec2" stroke="#7f1f66" stroke-linecap="butt" stroke-width="2"/></svg>