<svg clip-rule="evenodd" fill-rule="evenodd" stroke-linecap="round" stroke-linejoin="round" stroke-miterlimit="2" viewBox="0 0 32 32" xmlns="http://www.w3.org/2000/svg" xmlns:xlink="http://www.w3.org/1999/xlink"><clipPath id="a"><path clip-rule="evenodd" d="m0 0h32v32h-32z"/></clipPath><clipPath id="b"><path clip-rule="evenodd" d="m10.625 12.5s-2.991 1.756-4.163 2.443c-.303.178-.553.432-.727.738-.733 1.291-2.735 4.819-2.735 4.819s.141.176.369.461c.724.905 1.884 1.341 3.024 1.138 1.141-.203 2.079-1.014 2.445-2.113.101-.303.162-.486.162-.486l5-2.5z"/></clipPath><clipPath id="c"><path clip-rule="evenodd" d="m16 24s.927.464 1.889.944c1.388.695 2.919 1.056 4.472 1.056h7.639v-8.012h-3s-2.671-2.648-5.18-5.135c-2.553-2.53-6.48-3.047-9.601-1.264-1.246.712-2.219 1.268-2.219 1.268l4 4.143s.308-.154.682-.341c.787-.394 1.738-.239 2.36.383l.251.251c.286.286.371.716.217 1.09-.155.373-.52.617-.924.617-.345 0-.586 0-.586 0"/></clipPath><clipPath id="d"><path clip-rule="evenodd" d="m3.5 27 4-4h7.5v-4-5h-13v13z"/></clipPath><clipPath id="e"><path clip-rule="evenodd" d="m13.5 17h.5l-1 .5-1.5 1.5-.5 7h-7v-12h10z"/></clipPath><path d="m0 0h32v32h-32z" fill="none"/><g clip-path="url(#a)"><path d="m10 24h13v2h-13z" fill="none" stroke="#000" stroke-width="4"/><path d="m17.038 17.717-6.416 3.208-.009.024-.034.081-.036.081-.036.078-.038.078-.04.079-.04.077-.041.076-.043.075-.045.076-.045.072-.046.074-.048.072-.048.071-.05.07-.051.07-.052.068-.054.067-.054.067-.055.065-.057.066-.057.063-.058.062-.059.061-.061.061-.062.06-.062.059-.063.057-.064.057-.066.055-.065.054-.067.053-.068.053-.069.051-.069.049-.07.049-.072.047-.072.047-.073.045-.073.044-.075.043-.076.042-.075.04-.077.039-.078.038-.077.037-.079.035-.08.034-.08.033-.081.032-.081.03-.082.029-.083.027-.084.026-.083.025-.085.023-.085.022-.085.021-.086.019-.087.018-.086.016-.087.015-.088.013-.087.012-.087.01-.088.009-.087.007-.087.006-.087.004-.087.003-.087.001h-.087l-.087-.002-.086-.003-.087-.004-.086-.006-.086-.007-.086-.009-.086-.011-.085-.011-.085-.013-.084-.015-.085-.016-.084-.017-.083-.018-.084-.02-.083-.022-.082-.023-.082-.024-.082-.025-.081-.027-.081-.028-.08-.029-.08-.031-.079-.032-.079-.034-.078-.034-.078-.036-.077-.037-.076-.039-.076-.04-.075-.041-.074-.042-.075-.044-.073-.045-.073-.047-.071-.047-.071-.048-.07-.05-.07-.052-.069-.052-.068-.053-.067-.055-.066-.056-.065-.057-.065-.058-.064-.06-.063-.061-.061-.061-.061-.063-.061-.065-.058-.064-.058-.067-.057-.068-.05-.062-1.221-1.526 3.412-6.012.059-.099.07-.111.074-.108.077-.106.08-.103.084-.1.088-.098.09-.095.093-.091.096-.088.099-.086.102-.081.104-.079.108-.076.11-.072.098-.06 5.717-3.355zm-9.549-1.058-.014.009-.008.014-1.943 3.423.015.004.019.005.019.004.019.005.019.003.019.004.019.003.019.003.019.003.019.002.019.002.02.002.019.001.019.001.02.001h.019.02.019l.02-.001.019-.001.02-.001.02-.002.019-.002.02-.002.02-.003.019-.003.02-.003.02-.004.02-.004.019-.004.019-.005.02-.005.018-.005.019-.005.019-.006.018-.006.019-.007.018-.007.018-.007.018-.007.018-.008.018-.008.018-.008.017-.009.017-.008.017-.01.017-.009.016-.009.017-.01.017-.011.016-.01.016-.01.016-.011.016-.012.015-.011.015-.012.016-.012.015-.013.014-.012.014-.012.015-.014.014-.013.014-.013.013-.013.013-.014.014-.015.013-.015.012-.013.013-.016.012-.015.012-.014.012-.016.011-.016.011-.015.012-.017.01-.015.01-.016.011-.018.01-.016.009-.017.01-.017.009-.018.008-.016.009-.019.009-.018.007-.017.008-.019.007-.018.007-.018.007-.02.009-.027.422-1.263 3.597-1.799-.865-1.154-2.608 1.53z"/><path d="m21.209 23.011.104.014.103.019.102.024.1.03.099.035.096.04.095.045.092.05.089.055.087.059.083.064.079.068.076.072.072.076.068.079.064.083.059.087.055.089.05.092.045.095.04.096.035.099.03.1.024.102.019.103.014.104.008.104.003.105-.003.105-.008.104-.014.104-.019.103-.024.102-.03.1-.035.099-.04.096-.045.095-.05.092-.055.089-.059.087-.064.083-.068.079-.072.076-.076.072-.079.068-.083.064-.087.059-.089.055-.092.05-.095.045-.096.04-.099.035-.1.03-.102.024-.103.019-.104.014-.104.008-.105.003h-6.675l-2.36.787-.072.023-.081.024-.081.023-.083.021-.083.019-.083.018-.083.016-.083.015-.084.012-.084.011-.084.01-.085.007-.085.006-.085.005-.085.002-.074.001h-.025l-.131-.002-.145-.005-.143-.009-.142-.013-.141-.016-.141-.02-.14-.023-.138-.026-.138-.03-.135-.033-.135-.037-.134-.04-.132-.043-.13-.045-.13-.05-.127-.052-.126-.055-.125-.058-.122-.061-.121-.063-.119-.067-.117-.069-.115-.072-.114-.075-.111-.077-.109-.08-.108-.083-.105-.084-.103-.087-.102-.09-.098-.092-.097-.094-.094-.097-.092-.099-.09-.101-.087-.103-.084-.105-.083-.108-.08-.109-.077-.112-.075-.113-.071-.115-.07-.117-.066-.119-.064-.12-.061-.123-.058-.125-.055-.126-.052-.127-.05-.13-.046-.131-.042-.131-.04-.133-.036-.135-.034-.137-.03-.137-.026-.138-.023-.139-.02-.142-.016-.142-.013-.142-.009-.142-.005-.144-.002-.132v-1.375l4.55-3.412.081-.059.102-.067.104-.062.105-.058.108-.054.11-.049.111-.045.113-.04.115-.036.116-.031.118-.027.119-.021.118-.017.121-.013.121-.007.101-.002h9.687l.105.003.104.008.104.014.103.019.102.024.1.03.099.035.096.04.095.045.092.05.089.055.087.059.083.064.079.068.076.072.072.076.068.079.064.083.059.087.055.089.05.092.045.095.04.096.035.099.03.1.024.102.019.103.014.104.008.104.003.105-.003.105-.008.104-.014.104-.019.103-.024.102-.03.1-.035.099-.04.096-.045.095-.05.092-.055.089-.059.087-.064.083-.068.079-.072.076-.076.072-.079.068-.083.064-.087.059-.089.055-.092.05-.095.045-.096.04-.099.035-.1.03-.102.024-.103.019-.104.014-.104.008-.105.003h-9.333l-2.568 1.926.014.036.015.037.016.037.016.035.018.035.019.035.019.035.02.034.021.034.022.033.022.032.024.032.023.031.025.031.026.031.026.029.027.029.028.028.028.028.029.027.03.026.03.026.031.025.031.023.032.024.033.022.033.022.033.021.034.02.034.019.036.019.035.017.036.017.036.016.037.015.037.014.037.013.038.013.038.011.039.01.039.01.04.009.04.007.04.007.041.006.041.004.042.004.042.003.043.001.046.001h.003.005.004l.004-.001h.005l.004-.001h.004l.005-.001.005-.001.004-.001.004-.001.005-.001h.003l.005-.002.005-.001.013-.005 2.956-.985h7.325l.105.003z"/><path d="m15.781 14.447.077.005.078.005.077.008.077.008.077.011.077.011.077.014.076.014.076.016.076.018.075.019.075.02.075.022.074.024.074.025.073.026.074.027.073.03.071.03.072.032.071.034.07.034.07.037.069.037.069.04.068.04.067.042.067.044.065.044.066.046.064.048.063.048.063.051.062.052.061.052.06.055.058.055.051.05.271.271.066.068.075.084.071.085.068.09.065.091.061.093.057.094.053.097.05.098.046.1.042.1.038.102.036.105.031.105.026.104.023.106.02.108.015.107.012.108.007.111.004.108-.001.109-.004.11-.008.109-.013.111-.017.11-.02.108-.025.109-.029.107-.033.107-.037.106-.041.106-.045.104-.049.101-.053.1-.056.097-.059.094-.062.091-.066.089-.069.086-.071.084-.075.081-.076.077-.081.075-.082.072-.085.068-.087.065-.089.063-.092.058-.093.056-.096.052-.098.049-.099.045-.102.041-.103.038-.105.035-.106.03-.107.026-.108.023-.111.019-.11.014-.112.011-.112.006-.095.002h-.604l-.126-.004-.125-.012-.124-.019-.122-.028-.121-.035-.118-.042-.116-.05-.112-.057-.108-.064-.104-.071-.099-.077-.094-.083-.089-.089-.083-.094-.077-.099-.071-.104-.064-.108-.057-.112-.05-.116-.042-.118-.035-.121-.028-.122-.019-.124-.002-.022-3.083 1.541-3.42-8.794 3.72-2.126.087-.049.092-.051.092-.049.093-.049.093-.047.093-.047.093-.045.094-.044.095-.044.094-.042.095-.041.095-.04.096-.039.095-.039.097-.037.096-.036.096-.035.097-.034.097-.033.097-.032.098-.031.097-.03.098-.028.098-.028.098-.027.099-.026.098-.024.099-.024.099-.023.099-.021.099-.021.099-.02.1-.018.099-.018.1-.016.099-.016.1-.014.1-.014.1-.012.1-.012.1-.01.1-.01.1-.008.1-.007.1-.007.1-.005.1-.005.101-.003.1-.002.1-.002h.1l.1.001.1.001.1.003.1.003.1.005.1.006.099.006.1.008.099.008.1.01.099.011.099.011.1.013.098.013.099.015.099.015.099.017.098.017.098.019.098.019.098.02.098.022.097.022.097.024.097.024.097.025.097.026.096.028.096.028.096.029.096.03.095.031.095.033.095.033.094.034.094.035.094.036.094.037.093.037.093.039.093.04.092.041.092.042.092.042.091.044.09.045.091.045.09.047.089.047.09.049.088.049.089.05.088.052.087.052.087.053.087.054.086.055.085.056.086.057.085.058.084.059.083.06.083.06.083.062.082.062.081.064.082.065.08.065.08.066.079.067.079.068.078.069.077.07.077.071.076.071.076.073.071.07 4.599 4.559h4.177v12.012h-9.647l-.167-.001-.174-.004-.174-.006-.175-.009-.173-.012-.174-.013-.173-.017-.172-.019-.173-.021-.172-.024-.171-.026-.172-.029-.17-.031-.171-.034-.169-.036-.169-.039-.169-.041-.168-.044-.167-.046-.167-.048-.166-.051-.165-.053-.165-.055-.163-.058-.163-.061-.163-.063-.161-.065-.16-.067-.16-.07-.159-.072-.157-.075-.15-.074-1.895-.947-.111-.06-.107-.066-.102-.073-.097-.08-.092-.085-.087-.091-.081-.096-.075-.101-.068-.106-.061-.11-.054-.113-.048-.116-.039-.119-.032-.122-.025-.123-.017-.125-.008-.125-.001-.126.007-.125.014-.125.023-.123.03-.122.038-.12.046-.117.052-.114.06-.111.066-.107.073-.102.08-.097.085-.092.091-.087.096-.081.101-.075.106-.068.11-.061.113-.054.116-.048.119-.039.122-.032.123-.025.125-.017.125-.008.126-.001.125.007.125.014.123.023.122.03.12.038.117.046.114.052 1.882.941.111.055.106.049.106.049.106.046.107.045.107.044.108.041.109.041.109.038.11.037.11.036.111.034.111.032.111.031.112.029.113.027.112.026.114.024.113.022.114.021.114.019.114.018.115.016.115.014.115.013.116.011.115.009.116.007.116.006.116.005.116.002.124.001h5.632v-4.012h-1.823l-5.761-5.711-.049-.048-.046-.043-.046-.044-.046-.042-.046-.042-.047-.042-.048-.04-.048-.041-.048-.04-.048-.039-.048-.038-.049-.039-.049-.037-.05-.037-.05-.036-.05-.036-.05-.036-.051-.034-.051-.034-.051-.034-.052-.033-.052-.032-.052-.032-.052-.032-.053-.03-.053-.03-.053-.03-.053-.029-.054-.028-.054-.028-.054-.027-.055-.027-.054-.026-.055-.026-.055-.025-.055-.024-.056-.024-.055-.023-.056-.023-.056-.022-.057-.022-.056-.021-.057-.02-.057-.02-.057-.019-.057-.019-.058-.018-.057-.018-.058-.017-.058-.016-.058-.016-.058-.015-.058-.015-.058-.014-.059-.013-.058-.013-.059-.012-.059-.012-.059-.011-.059-.01-.059-.01-.06-.01-.059-.008-.06-.009-.059-.007-.06-.007-.06-.006-.059-.006-.06-.005-.06-.005-.06-.004-.06-.003-.06-.003-.06-.002-.06-.002-.06-.001h-.06-.06l-.06.001-.06.001-.06.002-.061.003-.06.003-.06.004-.06.005-.06.005-.06.005-.06.007-.06.006-.06.008-.059.008-.06.009-.06.009-.06.01-.059.01-.06.012-.059.011-.06.013-.059.013-.059.013-.059.014-.059.015-.059.016-.059.016-.059.016-.058.018-.059.017-.058.019-.058.019-.058.02-.058.02-.058.021-.058.022-.057.022-.058.023-.057.023-.057.025-.057.024-.057.026-.056.026-.056.026-.057.028-.056.028-.056.028-.056.029-.055.03-.055.03-.06.034-.718.411.58 1.491.727-.364.064-.031.074-.035.074-.032.074-.031.075-.029.076-.028.075-.026.075-.025.077-.023.077-.022.077-.02.076-.018.078-.017.078-.016.077-.014.078-.012.078-.011.078-.009.078-.008.078-.006.078-.005.078-.003.078-.002h.078l.078.001.078.003z"/><path d="m17.828 15.5-13.5 13.5h-4.328v-4.328l13.5-13.5z"/><path d="m27.328 6-14.828 14.828-4.328-4.328 14.828-14.828z"/><path d="m10.5 25h14v1h-14z" fill="#780956"/><path d="m10.625 12.5s-2.991 1.756-4.163 2.443c-.303.178-.553.432-.727.738-.733 1.291-2.735 4.819-2.735 4.819s.141.176.369.461c.724.905 1.884 1.341 3.024 1.138 1.141-.203 2.079-1.014 2.445-2.113.101-.303.162-.486.162-.486l5-2.5z" fill="#ed399f"/><g clip-path="url(#b)"><path d="m3 24s8.574-5.276 11.796-7.259c.706-.434 1.618-.327 2.204.259" fill="none" stroke="#b72477" stroke-width="4"/></g><path d="m16 24s.927.464 1.889.944c1.388.695 2.919 1.056 4.472 1.056h7.639v-8.012h-3s-2.671-2.648-5.18-5.135c-2.553-2.53-6.48-3.047-9.601-1.264-1.246.712-2.219 1.268-2.219 1.268l4 4.143s.308-.154.682-.341c.787-.394 1.738-.239 2.36.383l.251.251c.286.286.371.716.217 1.09-.155.373-.52.617-.924.617-.345 0-.586 0-.586 0" fill="#ed399f"/><g clip-path="url(#c)"><path d="m27 17h4v10h-4z" fill="#b72477"/><g fill="none" stroke="#b72477" stroke-width="4"><path d="m3 24s8.574-5.276 11.796-7.259c.706-.434 1.618-.327 2.204.259"/><path d="m14.5 16 7-7" stroke-miterlimit="1.5"/></g></g><path d="m3.5 27 4-4h7.5v-4-5h-13v13z" fill="none"/><g clip-path="url(#d)"><path d="m2 25.5v1.5h1.5l7-7 1.5-2.5 1.5-.5 1.5-1.5-1.5-1.5z" fill="#fff"/><path d="m13.5 17h.5l-1 .5-1.5 1.5-.5 7h-7v-12h10z" fill="none"/><g clip-path="url(#e)"><path d="m21 25h-7s-1.871.624-2.658.886c-.227.075-.464.114-.703.114h-.001c-2.009 0-3.638-1.629-3.638-3.638 0-.224 0-.362 0-.362s2.839-2.129 3.733-2.8c.173-.13.384-.2.6-.2h9.667" fill="none" stroke="#780956" stroke-width="4"/></g></g><path d="m21 25h-7s-1.871.624-2.658.886c-.227.075-.464.114-.703.114h-.001c-2.009 0-3.638-1.629-3.638-3.638 0-.224 0-.362 0-.362s2.839-2.129 3.733-2.8c.173-.13.384-.2.6-.2h9.667" fill="#ed399f"/><path d="m11.5 16 2 1 11-11-1.5-1.5z" fill="#fff"/></g></svg>