<svg clip-rule="evenodd" fill-rule="evenodd" stroke-linecap="round" stroke-linejoin="round" stroke-miterlimit="2" viewBox="0 0 32 32" xmlns="http://www.w3.org/2000/svg" xmlns:xlink="http://www.w3.org/1999/xlink"><clipPath id="a"><path clip-rule="evenodd" d="m0 0h32v32h-32z"/></clipPath><clipPath id="b"><path clip-rule="evenodd" d="m0 16h25v11h-25z"/></clipPath><clipPath id="c"><path clip-rule="evenodd" d="m12 12.273s-3.575 1.625-5.206 2.366c-.506.23-.894.661-1.07 1.188-.742 2.226-2.724 8.173-2.724 8.173 1.657.552 3.448-.343 4-2 .5-1.5 1-3 1-3l7-3.5"/></clipPath><clipPath id="d"><path clip-rule="evenodd" d="m3.5 27 4-4h3.5v-4h4v-5h-15v13z"/></clipPath><clipPath id="e"><path clip-rule="evenodd" d="m21 23h-8s-.793.793-1.564 1.564c-.919.919-2.167 1.436-3.467 1.436-.268 0-.535 0-.782 0-.774 0-1.531-.229-2.175-.658-.874-.583-2.012-1.342-2.012-1.342l5-2s1.175-2.35 1.724-3.447c.169-.339.515-.553.894-.553h10.382"/></clipPath><clipPath id="f"><path clip-rule="evenodd" d="m16 23s.927.464 1.889.944c1.388.695 2.919 1.056 4.472 1.056h7.639v-7.012h-2.989s-5.804-4.631-8.573-6.841c-.882-.704-2.085-.853-3.113-.386-1.775.807-4.325 1.966-4.325 1.966l3 3.273s.308-.154.682-.341c.787-.394 1.738-.239 2.36.383l.251.251c.286.286.371.716.217 1.09-.155.373-.52.617-.924.617-.345 0-.586 0-.586 0"/></clipPath><path d="m0 0h32v32h-32z" fill="none"/><g clip-path="url(#a)"><path d="m9 23h13v2h-13z" fill="none" stroke="#000" stroke-width="4"/><path d="m12.113 10.276.097.008.096.012.095.017.094.022.093.026.092.031.09.035.088.039.086.044.084.047.082.052.079.056.076.059.074.063.07.066.067.07.063.073.06.076.056.078.053.082.048.083.044.086.04.088.036.09.031.092.027.092.022.094.018.096.013.095.009.097.004.096-.001.097-.006.096-.01.096-.014.096-.02.095-.024.093-.028.093-.033.091-.037.089-.042.087-.045.085-.05.083-.054.081-.057.077-.061.075-.065.072-.068.069-.071.065-.075.061-.077.059-.08.054-.083.05-.084.046-.087.042-5.194 2.361-.012.006-.001.001-.004.011-.193.58 6.682-3.341.087-.041.089-.037.091-.032.093-.028.094-.024.094-.019.096-.014.096-.01.097-.005.096-.001.097.005.096.009.096.013.095.018.094.023.093.027.091.032.09.036.087.04.086.045.084.048.081.053.078.056.076.061.072.063.07.068.066.07.063.074.059.076.055.079.051.082.048.085.043.086.039.089.035.09.03.092.026.093.021.094.017.095.012.096.007.096.003.097-.002.097-.006.096-.012.096-.016.095-.02.095-.025.093-.029.092-.034.091-.038.089-.043.086-.047.085-.05.083-.055.079-.058.077-.062.075-.066.071-.068.067-.072.065-.076.061-.077.057-.081.053-.083.05-.086.045-6.259 3.129-.742 2.227-.039.113-.047.124-.049.121-.052.12-.055.118-.058.116-.061.116-.062.111-.066.111-.068.109-.071.107-.074.104-.075.102-.077.1-.081.098-.082.096-.084.093-.086.092-.089.088-.09.087-.093.084-.094.082-.095.079-.098.077-.1.074-.101.072-.102.07-.104.067-.106.064-.107.062-.108.059-.11.056-.112.055-.112.051-.113.048-.115.046-.117.043-.117.041-.117.037-.119.035-.121.032-.121.029-.122.027-.122.023-.124.02-.124.018-.124.014-.126.012-.126.008-.126.005-.127.002-.127-.001-.127-.004-.128-.007-.128-.011-.128-.014-.128-.017-.128-.02-.128-.024-.128-.027-.127-.03-.127-.033-.126-.037-.184-.059-1.795-.748 3.316-9.948.03-.087.037-.097.039-.096.041-.095.044-.092.045-.092.049-.091.051-.09.053-.088.055-.086.057-.085.059-.084.061-.081.064-.08.066-.079.067-.077.069-.074.071-.074.074-.072.074-.069.077-.067.078-.066.08-.064.083-.062.083-.059.085-.058.087-.055.088-.054.09-.051.092-.049.092-.047.082-.038 5.218-2.372.089-.038.091-.033.092-.029.094-.025.094-.02.096-.016.096-.01.096-.007.097-.001z"/><path d="m21 23h-8s-.793.793-1.564 1.564c-.919.919-2.167 1.436-3.467 1.436-.268 0-.535 0-.782 0-.774 0-1.531-.229-2.175-.658-.874-.583-2.012-1.342-2.012-1.342l5-2s1.175-2.35 1.724-3.447c.169-.339.515-.553.894-.553h10.382" fill="none" stroke="#000" stroke-width="4"/><path d="m0 16h25v11h-25z" fill="none"/><g clip-path="url(#b)"><path d="m21 23h-8s-.793.793-1.564 1.564c-.919.919-2.167 1.436-3.467 1.436-.268 0-.535 0-.782 0-.774 0-1.531-.229-2.175-.658-.874-.583-2.012-1.342-2.012-1.342l5-2s1.175-2.35 1.724-3.447c.169-.339.515-.553.894-.553h10.382" fill="none" stroke="#000" stroke-width="8"/></g><path d="m15.781 13.447.077.005.078.005.078.008.076.008.077.011.078.011.076.014.076.014.076.016.075.018.076.019.075.02.076.023.073.023.073.024.075.027.073.028.072.028.072.031.072.032.07.034.071.034.071.037.068.038.068.038.069.041.067.042.066.043.068.046.064.045.063.047.065.05.063.05.061.052.06.052.059.053.061.057.051.051.27.27.065.067.075.084.073.088.068.089.062.088.062.094.058.096.054.097.05.099.045.096.042.101.039.105.034.102.031.104.027.106.024.108.019.107.015.105.012.108.007.112.004.108-.001.108-.004.111-.009.111-.012.11-.016.107-.021.109-.025.111-.029.107-.033.106-.036.105-.043.108-.045.103-.047.099-.054.101-.056.097-.06.096-.063.092-.064.086-.068.087-.072.083-.074.081-.079.079-.079.074-.082.072-.085.068-.087.066-.089.061-.093.06-.094.056-.094.051-.097.048-.1.046-.102.041-.103.038-.104.034-.106.031-.108.027-.109.022-.109.019-.111.014-.112.011-.112.006-.095.002h-.604l-.123-.004-.123-.011-.121-.019-.121-.026-.118-.034-.116-.041-.114-.048-.11-.055-.107-.062-.102-.068-.099-.074-.093-.08-.089-.086-.083-.091-.077-.096-.071-.1-.065-.105-.058-.109-.052-.111-.044-.115-.038-.118-.03-.119-.022-.121-.01-.078-3.384 1.692-1.951-8.336 5.826-2.648.073-.032.081-.035.081-.032.082-.031.082-.03.082-.028.082-.027.084-.026.084-.023.083-.023.083-.02.084-.02.084-.018.085-.016.085-.015.084-.013.085-.012.085-.011.085-.009.085-.008.085-.006.085-.004.085-.004.085-.001.085-.001.085.001.085.003.085.004.085.005.085.007.084.009.084.009.085.011.083.013.084.014.084.015.083.017.083.019.082.019.083.021.083.023.081.024.081.025.081.027.081.028.08.03.08.031.079.032.079.034.078.035.078.036.078.038.076.039.076.041.076.042.074.043.075.046.074.046.073.048.071.048.072.05.071.052.07.053.063.049 8.032 6.409h4.289v11.012h-9.647l-.167-.001-.174-.004-.174-.006-.174-.009-.174-.012-.174-.013-.173-.017-.172-.019-.173-.021-.172-.024-.171-.026-.172-.029-.17-.031-.17-.034-.17-.036-.169-.039-.169-.041-.168-.044-.167-.046-.167-.048-.166-.051-.165-.053-.165-.055-.163-.058-.163-.061-.163-.063-.161-.065-.161-.067-.159-.07-.159-.072-.157-.075-.15-.074-1.895-.947-.109-.059-.104-.065-.101-.071-.096-.077-.091-.084-.085-.088-.08-.094-.074-.098-.068-.103-.062-.107-.054-.11-.048-.114-.041-.116-.033-.118-.027-.121-.018-.122-.011-.122-.004-.123.004-.123.012-.123.019-.122.026-.12.034-.118.041-.117.049-.113.055-.11.061-.107.069-.102.074-.098.08-.094.086-.088.091-.083.096-.077.101-.071.105-.065.109-.058.112-.051.114-.044.118-.038.119-.029.122-.023.122-.015.123-.007h.123l.123.008.122.015.121.023.12.03.117.038.115.044.112.052 1.881.941.112.055.105.049.105.049.107.046.107.045.107.044.108.041.109.041.109.038.11.037.11.036.111.034.111.032.111.031.112.029.113.027.112.026.113.024.114.022.114.021.114.019.114.018.115.016.115.014.115.013.115.011.116.009.116.007.116.006.116.005.116.002.124.001h5.632v-3.012h-1.689l-9.114-7.272-.021-.016-.014-.011-.013-.01-.015-.01-.015-.011-.015-.009-.014-.009-.014-.009-.016-.008-.015-.009-.015-.008-.016-.008-.015-.007-.015-.007-.016-.008-.016-.006-.015-.007-.016-.006-.016-.006-.016-.005-.016-.006-.017-.005-.017-.005-.016-.004-.016-.004-.017-.004-.016-.004-.017-.003-.016-.003-.017-.003-.017-.003-.017-.002-.017-.002-.017-.002-.017-.001-.017-.001-.017-.001h-.017l-.017-.001h-.017l-.017.001h-.017l-.017.001-.017.002-.017.001-.017.002-.017.002-.017.002-.017.003-.017.003-.016.003-.017.004-.017.004-.017.004-.017.004-.016.005-.016.005-.016.005-.018.006-.016.006-.016.006-.017.007-.015.007-.024.01-2.825 1.284.049.21.427-.213.064-.032.073-.033.073-.033.075-.031.075-.029.075-.028.077-.027.075-.024.076-.023.077-.022.077-.02.077-.018.077-.017.078-.016.077-.014.078-.012.078-.011.078-.009.078-.008.078-.006.078-.005.078-.003.078-.002h.078l.078.001.078.003z"/><path d="m17.828 15.5-13.5 13.5h-4.328v-4.328l13.5-13.5z"/><path d="m27.328 6-14.828 14.828-4.328-4.328 14.828-14.828z"/><path d="m9 23h13v2h-13z" fill="#3a2305"/><path d="m12 12.273s-3.575 1.625-5.206 2.366c-.506.23-.894.661-1.07 1.188-.742 2.226-2.724 8.173-2.724 8.173 1.657.552 3.448-.343 4-2 .5-1.5 1-3 1-3l7-3.5" fill="#7c6112"/><g clip-path="url(#c)" fill="none" stroke="#64420e"><path d="m3 24s8.649-5.988 11.838-8.195c.673-.466 1.583-.384 2.162.195" stroke-width="4"/><path d="m5 14 6 6" stroke-linecap="square" stroke-linejoin="miter" stroke-miterlimit="1.414"/></g><path d="m3.5 27 4-4h3.5v-4h4v-5h-15v13z" fill="none"/><g clip-path="url(#d)"><path d="m2 25.5v1.5h1.5l11.5-11.5-1.5-1.5z" fill="#fff"/><path d="m21 23h-8s-.793.793-1.564 1.564c-.919.919-2.167 1.436-3.467 1.436-.268 0-.535 0-.782 0-.774 0-1.531-.229-2.175-.658-.874-.583-2.012-1.342-2.012-1.342l5-2s1.175-2.35 1.724-3.447c.169-.339.515-.553.894-.553h10.382" fill="none" stroke="#3a2305" stroke-width="4"/><path d="m14.5 16-2 2h3.5v-2z"/></g><path d="m21 23h-8s-.793.793-1.564 1.564c-.919.919-2.167 1.436-3.467 1.436-.268 0-.535 0-.782 0-.774 0-1.531-.229-2.175-.658-.874-.583-2.012-1.342-2.012-1.342l5-2s1.175-2.35 1.724-3.447c.169-.339.515-.553.894-.553h10.382" fill="#7c6112"/><g style="clip-path:url(#e);fill:none;stroke:#64420e;stroke-linecap:square;stroke-linejoin:miter;stroke-miterlimit:1.414"><path d="m7 21 5 5"/><path d="m10 17 4 8"/></g><path d="m16 23s.927.464 1.889.944c1.388.695 2.919 1.056 4.472 1.056h7.639v-7.012h-2.989s-5.804-4.631-8.573-6.841c-.882-.704-2.085-.853-3.113-.386-1.775.807-4.325 1.966-4.325 1.966l3 3.273s.308-.154.682-.341c.787-.394 1.738-.239 2.36.383l.251.251c.286.286.371.716.217 1.09-.155.373-.52.617-.924.617-.345 0-.586 0-.586 0" fill="#7c6112"/><g clip-path="url(#f)"><path d="m26 17h5v10h-5z" fill="#64420e"/><g fill="none" stroke="#64420e"><path d="m3 24s8.649-5.988 11.838-8.195c.673-.466 1.583-.384 2.162.195" stroke-width="4"/><path d="m15.5 15 7-7" stroke-miterlimit="1.5" stroke-width="4"/><path d="m12 11 3 6" stroke-linecap="square" stroke-linejoin="miter" stroke-miterlimit="1.414"/></g></g><path d="m11.5 16h3l10-10-1.5-1.5z" fill="#fff"/></g></svg>