<?xml version="1.0" encoding="UTF-8" standalone="no"?><!DOCTYPE svg PUBLIC "-//W3C//DTD SVG 1.1//EN" "http://www.w3.org/Graphics/SVG/1.1/DTD/svg11.dtd"><svg width="100%" height="100%" viewBox="0 0 32 32" version="1.1" xmlns="http://www.w3.org/2000/svg" xmlns:xlink="http://www.w3.org/1999/xlink" xml:space="preserve" style="fill-rule:evenodd;clip-rule:evenodd;stroke-linejoin:round;stroke-miterlimit:1.41421;">
<metadata>
<rdf:RDF xmlns:cc="http://web.resource.org/cc/"
         xmlns:rdf="http://www.w3.org/1999/02/22-rdf-syntax-ns#"
         xmlns:dc = "http://purl.org/dc/elements/1.1/"
         >

     <rdf:Description rdf:about="">
       <dc:title>Mutant Standard emoji v0.2.4</dc:title>
     </rdf:Description>

    <cc:work rdf:about="">
        <cc:license rdf:resource="http://creativecommons.org/licenses/by-nc-sa/4.0/"/>
        <cc:attributionName>Dzuk</cc:attributionName>
        <cc:attributionURL>http://mutant.tech/</cc:attributionURL>
    </cc:work>

</rdf:RDF>
</metadata>
<rect id="pencil" x="0" y="0" width="32" height="32" style="fill:none;"/><g id="outline"><path d="M7.096,0.829c0.288,0.011 0.574,0.045 0.854,0.114c0.51,0.124 0.994,0.35 1.417,0.66c0.161,0.118 0.31,0.249 0.452,0.388l18.962,18.961l3.131,10.96l-10.96,-3.131c-6.341,-6.342 -12.762,-12.605 -19.024,-19.026c-0.069,-0.074 -0.069,-0.074 -0.136,-0.151c-0.278,-0.332 -0.508,-0.697 -0.671,-1.1c-0.413,-1.019 -0.385,-2.19 0.078,-3.188c0.184,-0.396 0.433,-0.752 0.729,-1.071c0.763,-0.782 1.535,-1.554 2.317,-2.317c0.198,-0.183 0.407,-0.35 0.636,-0.493c0.442,-0.276 0.938,-0.464 1.451,-0.551c0.19,-0.032 0.38,-0.048 0.572,-0.055c0.096,-0.001 0.096,-0.001 0.192,0Z" style="fill-rule:nonzero;"/></g><g id="emoji"><path d="M3.414,8.414c-0.781,-0.781 -0.781,-2.047 0,-2.828c0.68,-0.68 1.492,-1.492 2.172,-2.172c0.781,-0.781 2.047,-0.781 2.828,0c4.561,4.561 18.586,18.586 18.586,18.586l2,7l-7,-2c0,0 -14.025,-14.025 -18.586,-18.586Z" style="fill:#fff;"/><clipPath id="_clip1"><path d="M3.414,8.414c-0.781,-0.781 -0.781,-2.047 0,-2.828c0.68,-0.68 1.492,-1.492 2.172,-2.172c0.781,-0.781 2.047,-0.781 2.828,0c4.561,4.561 18.586,18.586 18.586,18.586l2,7l-7,-2c0,0 -14.025,-14.025 -18.586,-18.586Z"/></clipPath><g clip-path="url(#_clip1)"><path d="M-0.659,6l6.659,-6.659l21.5,21.159l-7,7l-21.159,-21.5Z" style="fill:#e4d20b;"/><clipPath id="_clip2"><path d="M-0.659,6l6.659,-6.659l21.5,21.159l-7,7l-21.159,-21.5Z"/></clipPath><g clip-path="url(#_clip2)"><path d="M4,6l21,21l2,-2l-21,-21l-2,2Z" style="fill:#78701a;"/></g><path d="M3,12l9,-9l-4,-4l-9,9l4,4Z" style="fill:#e06e8c;"/></g><path d="M28.207,21.207l-7,7l-2.207,-2.207l0.719,-0.719l0.787,0.799l5.574,-5.574l-0.799,-0.787l0.719,-0.719l2.207,2.207Z"/><path d="M12,5.828l-6.086,6.086l-1.414,-1.414l6,-6l1.5,1.328Z"/></g></svg>