<svg clip-rule="evenodd" fill-rule="evenodd" stroke-linejoin="round" stroke-miterlimit="1.41421" viewBox="0 0 32 32" xmlns="http://www.w3.org/2000/svg"><path d="m0 0h32v32h-32z" fill="none"/><path d="m7.096.829.095.004.096.006.095.008.096.01.095.012.095.015.094.017.095.02.093.022.094.024.093.026.093.029.092.031.091.033.091.035.09.038.09.04.089.043.088.045.086.047.087.049.085.052.084.054.082.056.082.058.081.061.079.063.077.065.077.067.074.07.064.062 18.962 18.961 3.131 10.96-10.96-3.131-18.961-18.961-.063-.065-.069-.074-.067-.077-.065-.078-.063-.079-.061-.08-.058-.082-.056-.082-.054-.084-.052-.085-.049-.087-.047-.086-.045-.088-.043-.089-.04-.09-.038-.09-.035-.091-.033-.091-.031-.092-.029-.093-.026-.093-.024-.094-.022-.093-.02-.095-.017-.094-.015-.095-.012-.095-.01-.096-.008-.095-.006-.096-.004-.095-.001-.096.001-.096.004-.095.006-.096.008-.095.01-.096.012-.095.015-.095.017-.094.02-.095.022-.093.024-.094.026-.093.029-.093.03-.092.034-.091.035-.091.038-.09.04-.09.043-.089.045-.088.047-.087.049-.086.052-.085.054-.084.056-.082.058-.082.061-.08.063-.08.065-.077.067-.077.069-.074.063-.065 2.189-2.189.065-.063.074-.069.077-.067.078-.065.079-.063.08-.061.082-.058.082-.056.084-.054.085-.052.086-.049.087-.047.088-.045.089-.043.09-.04.09-.038.091-.035.091-.033.092-.031.093-.029.093-.026.094-.024.094-.022.094-.02.094-.017.095-.015.095-.012.096-.01.095-.008.096-.006.095-.004.096-.001.096.001zm-.105 4.008-2.154 2.154-.008.009.008.009 18.211 18.21 3.04.869-.869-3.04-18.21-18.211-.009-.008z"/><path d="m22 27v-1l4-4h1l2 7z" fill="#fff"/><path d="m3.414 8.414c-.781-.781-.781-2.047 0-2.828.68-.68 1.492-1.492 2.172-2.172.781-.781 2.047-.781 2.828 0 .778.778 1.586 1.586 1.586 1.586v1l-4 4h-1s-.808-.808-1.586-1.586z" fill="#e06e8c"/><path d="m25.939 20.939.061 1.061-4 4-1.061-.061-13.939-13.939v-1l4-4h1z" fill="#e4d20b"/><path d="m8 10 15 15 2-2-15-15z" fill="#78701a"/><path d="m27 22-5 5-1.061-1.061 5-5z" fill="#78701a" fill-rule="nonzero"/><path d="m10 5-5 5 2 2 5-5z" fill="#727272"/></svg>