<?xml version="1.0" encoding="UTF-8" standalone="no"?><!DOCTYPE svg PUBLIC "-//W3C//DTD SVG 1.1//EN" "http://www.w3.org/Graphics/SVG/1.1/DTD/svg11.dtd"><svg width="100%" height="100%" viewBox="0 0 32 32" version="1.1" xmlns="http://www.w3.org/2000/svg" xmlns:xlink="http://www.w3.org/1999/xlink" xml:space="preserve" style="fill-rule:evenodd;clip-rule:evenodd;stroke-linejoin:round;stroke-miterlimit:1.41421;">
<metadata>
<rdf:RDF xmlns:cc="http://web.resource.org/cc/"
         xmlns:rdf="http://www.w3.org/1999/02/22-rdf-syntax-ns#"
         xmlns:dc = "http://purl.org/dc/elements/1.1/"
         >

     <rdf:Description rdf:about="">
       <dc:title>Mutant Standard emoji v0.2.4</dc:title>
     </rdf:Description>

    <cc:work rdf:about="">
        <cc:license rdf:resource="http://creativecommons.org/licenses/by-nc-sa/4.0/"/>
        <cc:attributionName>Dzuk</cc:attributionName>
        <cc:attributionURL>http://mutant.tech/</cc:attributionURL>
    </cc:work>

</rdf:RDF>
</metadata>
<rect id="_2" x="0" y="0" width="32" height="32" style="fill:none;"/><clipPath id="_clip1"><rect x="0" y="0" width="32" height="32"/></clipPath><g clip-path="url(#_clip1)"><g id="outline"><path d="M32,8c0,-4.418 -3.582,-8 -8,-8c-4.887,0 -11.113,0 -16,0c-4.418,0 -8,3.582 -8,8c0,4.887 0,11.113 0,16c0,4.418 3.582,8 8,8c4.887,0 11.113,0 16,0c4.418,0 8,-3.582 8,-8c0,-4.887 0,-11.113 0,-16Z"/></g><g id="emoji"><path d="M30,8c0,-1.591 -0.632,-3.117 -1.757,-4.243c-1.126,-1.125 -2.652,-1.757 -4.243,-1.757c-4.724,0 -11.276,0 -16,0c-1.591,0 -3.117,0.632 -4.243,1.757c-1.125,1.126 -1.757,2.652 -1.757,4.243c0,4.724 0,11.276 0,16c0,1.591 0.632,3.117 1.757,4.243c1.126,1.125 2.652,1.757 4.243,1.757c4.724,0 11.276,0 16,0c1.591,0 3.117,-0.632 4.243,-1.757c1.125,-1.126 1.757,-2.652 1.757,-4.243c0,-4.724 0,-11.276 0,-16Z" style="fill:#808080;"/><path d="M13.044,21.129l8.533,0l0,2.484l-11.247,0l0,-2.553c0,-1.794 0.637,-3.097 1.909,-3.91c0.43,-0.276 0.928,-0.521 1.495,-0.736l3.059,-1.173c0.675,-0.261 1.17,-0.587 1.484,-0.978c0.314,-0.391 0.471,-0.877 0.471,-1.46c0,-0.583 -0.207,-1.07 -0.621,-1.461c-0.414,-0.391 -1.004,-0.586 -1.771,-0.586c-0.766,0 -1.399,0.184 -1.897,0.552c-0.498,0.368 -0.786,0.912 -0.863,1.633l-3.013,0c0.031,-1.457 0.591,-2.599 1.679,-3.427c0.997,-0.751 2.339,-1.127 4.025,-1.127c1.549,0 2.829,0.414 3.841,1.242c1.028,0.859 1.541,1.909 1.541,3.151c0,1.242 -0.31,2.235 -0.931,2.978c-0.621,0.744 -1.583,1.369 -2.887,1.875l-3.105,1.196c-0.598,0.23 -1.031,0.487 -1.299,0.77c-0.268,0.284 -0.403,0.648 -0.403,1.093l0,0.437Z" style="fill:#fff;fill-rule:nonzero;"/></g></g></svg>