<?xml version="1.0" encoding="UTF-8" standalone="no"?><!DOCTYPE svg PUBLIC "-//W3C//DTD SVG 1.1//EN" "http://www.w3.org/Graphics/SVG/1.1/DTD/svg11.dtd"><svg width="100%" height="100%" viewBox="0 0 32 32" version="1.1" xmlns="http://www.w3.org/2000/svg" xmlns:xlink="http://www.w3.org/1999/xlink" xml:space="preserve" style="fill-rule:evenodd;clip-rule:evenodd;stroke-linejoin:round;stroke-miterlimit:1.41421;">
<metadata>
<rdf:RDF xmlns:cc="http://web.resource.org/cc/"
         xmlns:rdf="http://www.w3.org/1999/02/22-rdf-syntax-ns#"
         xmlns:dc = "http://purl.org/dc/elements/1.1/"
         >

     <rdf:Description rdf:about="">
       <dc:title>Mutant Standard emoji v0.2.5</dc:title>
     </rdf:Description>

    <cc:work rdf:about="">
        <cc:license rdf:resource="http://creativecommons.org/licenses/by-nc-sa/4.0/"/>
        <cc:attributionName>Dzuk</cc:attributionName>
        <cc:attributionURL>http://mutant.tech/</cc:attributionURL>
    </cc:work>

</rdf:RDF>
</metadata>
<rect id="_3" x="0" y="0" width="32" height="32" style="fill:none;"/><clipPath id="_clip1"><rect x="0" y="0" width="32" height="32"/></clipPath><g clip-path="url(#_clip1)"><g id="outline"><path d="M32,8c0,-4.418 -3.582,-8 -8,-8c-4.887,0 -11.113,0 -16,0c-4.418,0 -8,3.582 -8,8c0,4.887 0,11.113 0,16c0,4.418 3.582,8 8,8c4.887,0 11.113,0 16,0c4.418,0 8,-3.582 8,-8c0,-4.887 0,-11.113 0,-16Z"/></g><g id="emoji"><path d="M30,8c0,-1.591 -0.632,-3.117 -1.757,-4.243c-1.126,-1.125 -2.652,-1.757 -4.243,-1.757c-4.724,0 -11.276,0 -16,0c-1.591,0 -3.117,0.632 -4.243,1.757c-1.125,1.126 -1.757,2.652 -1.757,4.243c0,4.724 0,11.276 0,16c0,1.591 0.632,3.117 1.757,4.243c1.126,1.125 2.652,1.757 4.243,1.757c4.724,0 11.276,0 16,0c1.591,0 3.117,-0.632 4.243,-1.757c1.125,-1.126 1.757,-2.652 1.757,-4.243c0,-4.724 0,-11.276 0,-16Z" style="fill:#808080;"/><path d="M16.034,10.687c-1.671,0 -2.645,0.636 -2.921,1.909l-2.852,0c0.154,-1.472 0.752,-2.584 1.794,-3.335c0.982,-0.69 2.27,-1.035 3.864,-1.035c1.641,0 2.975,0.383 4.002,1.15c1.074,0.782 1.61,1.786 1.61,3.013c0,0.767 -0.207,1.43 -0.621,1.989c-0.414,0.56 -1.027,0.978 -1.84,1.254c0.905,0.307 1.63,0.763 2.174,1.368c0.544,0.606 0.816,1.3 0.816,2.082c0,0.782 -0.141,1.449 -0.425,2.001c-0.284,0.552 -0.686,1.027 -1.208,1.426c-1.104,0.843 -2.537,1.265 -4.301,1.265c-1.686,0 -3.105,-0.429 -4.255,-1.288c-1.288,-0.935 -1.932,-2.177 -1.932,-3.726l2.898,0c0.046,0.782 0.365,1.395 0.955,1.84c0.59,0.445 1.361,0.667 2.311,0.667c0.951,0 1.691,-0.211 2.22,-0.633c0.529,-0.421 0.793,-0.958 0.793,-1.61c0,-0.651 -0.241,-1.161 -0.724,-1.529c-0.483,-0.368 -1.246,-0.552 -2.289,-0.552l-1.978,0l0,-2.139l1.702,0c0.874,0 1.557,-0.188 2.047,-0.564c0.491,-0.375 0.736,-0.87 0.736,-1.483c0,-0.613 -0.21,-1.112 -0.632,-1.495c-0.422,-0.383 -1.07,-0.575 -1.944,-0.575Z" style="fill:#fff;fill-rule:nonzero;"/></g></g></svg>