<?xml version="1.0" encoding="UTF-8" standalone="no"?><!DOCTYPE svg PUBLIC "-//W3C//DTD SVG 1.1//EN" "http://www.w3.org/Graphics/SVG/1.1/DTD/svg11.dtd"><svg width="100%" height="100%" viewBox="0 0 32 32" version="1.1" xmlns="http://www.w3.org/2000/svg" xmlns:xlink="http://www.w3.org/1999/xlink" xml:space="preserve" style="fill-rule:evenodd;clip-rule:evenodd;stroke-linejoin:round;stroke-miterlimit:1.41421;">
<metadata>
<rdf:RDF xmlns:cc="http://web.resource.org/cc/"
         xmlns:rdf="http://www.w3.org/1999/02/22-rdf-syntax-ns#"
         xmlns:dc = "http://purl.org/dc/elements/1.1/"
         >

     <rdf:Description rdf:about="">
       <dc:title>Mutant Standard emoji v0.2.4</dc:title>
     </rdf:Description>

    <cc:work rdf:about="">
        <cc:license rdf:resource="http://creativecommons.org/licenses/by-nc-sa/4.0/"/>
        <cc:attributionName>Dzuk</cc:attributionName>
        <cc:attributionURL>http://mutant.tech/</cc:attributionURL>
    </cc:work>

</rdf:RDF>
</metadata>
<rect id="_6" x="0" y="0" width="32" height="32" style="fill:none;"/><clipPath id="_clip1"><rect x="0" y="0" width="32" height="32"/></clipPath><g clip-path="url(#_clip1)"><g id="outline"><path d="M32,8c0,-4.418 -3.582,-8 -8,-8c-4.887,0 -11.113,0 -16,0c-4.418,0 -8,3.582 -8,8c0,4.887 0,11.113 0,16c0,4.418 3.582,8 8,8c4.887,0 11.113,0 16,0c4.418,0 8,-3.582 8,-8c0,-4.887 0,-11.113 0,-16Z"/></g><g id="emoji"><path d="M30,8c0,-1.591 -0.632,-3.117 -1.757,-4.243c-1.126,-1.125 -2.652,-1.757 -4.243,-1.757c-4.724,0 -11.276,0 -16,0c-1.591,0 -3.117,0.632 -4.243,1.757c-1.125,1.126 -1.757,2.652 -1.757,4.243c0,4.724 0,11.276 0,16c0,1.591 0.632,3.117 1.757,4.243c1.126,1.125 2.652,1.757 4.243,1.757c4.724,0 11.276,0 16,0c1.591,0 3.117,-0.632 4.243,-1.757c1.125,-1.126 1.757,-2.652 1.757,-4.243c0,-4.724 0,-11.276 0,-16Z" style="fill:#808080;"/><path d="M18.818,12.619c-0.077,-0.598 -0.292,-1.07 -0.644,-1.415c-0.353,-0.345 -0.84,-0.517 -1.461,-0.517c-0.621,0 -1.165,0.134 -1.633,0.402c-0.468,0.269 -0.87,0.656 -1.207,1.162c-0.675,1.043 -1.012,2.453 -1.012,4.232c0,0.659 0.023,1.158 0.069,1.495c0.168,-1.319 0.667,-2.285 1.495,-2.898c0.72,-0.521 1.617,-0.782 2.691,-0.782c1.38,0 2.522,0.445 3.427,1.334c0.889,0.859 1.334,1.993 1.334,3.404c0,1.411 -0.499,2.553 -1.495,3.427c-0.997,0.874 -2.3,1.311 -3.91,1.311c-1.871,0 -3.397,-0.705 -4.577,-2.116c-1.181,-1.411 -1.771,-3.212 -1.771,-5.405c0,-2.545 0.59,-4.531 1.771,-5.957c1.15,-1.38 2.714,-2.07 4.692,-2.07c1.502,0 2.714,0.399 3.634,1.196c0.935,0.813 1.433,1.878 1.495,3.197l-2.898,0Zm-4.198,4.565c-0.498,0.437 -0.747,1.016 -0.747,1.737c0,0.721 0.249,1.292 0.747,1.713c0.498,0.422 1.112,0.633 1.84,0.633c0.728,0 1.346,-0.211 1.852,-0.633c0.506,-0.421 0.759,-0.992 0.759,-1.713c0,-0.721 -0.261,-1.311 -0.782,-1.771c-0.476,-0.414 -1.081,-0.621 -1.817,-0.621c-0.736,0 -1.354,0.218 -1.852,0.655Z" style="fill:#fff;fill-rule:nonzero;"/></g></g></svg>