<?xml version="1.0" encoding="UTF-8" standalone="no"?><!DOCTYPE svg PUBLIC "-//W3C//DTD SVG 1.1//EN" "http://www.w3.org/Graphics/SVG/1.1/DTD/svg11.dtd"><svg width="100%" height="100%" viewBox="0 0 32 32" version="1.1" xmlns="http://www.w3.org/2000/svg" xmlns:xlink="http://www.w3.org/1999/xlink" xml:space="preserve" style="fill-rule:evenodd;clip-rule:evenodd;stroke-linejoin:round;stroke-miterlimit:1.41421;">
<metadata>
<rdf:RDF xmlns:cc="http://web.resource.org/cc/"
         xmlns:rdf="http://www.w3.org/1999/02/22-rdf-syntax-ns#"
         xmlns:dc = "http://purl.org/dc/elements/1.1/"
         >

     <rdf:Description rdf:about="">
       <dc:title>Mutant Standard emoji v0.2.4</dc:title>
     </rdf:Description>

    <cc:work rdf:about="">
        <cc:license rdf:resource="http://creativecommons.org/licenses/by-nc-sa/4.0/"/>
        <cc:attributionName>Dzuk</cc:attributionName>
        <cc:attributionURL>http://mutant.tech/</cc:attributionURL>
    </cc:work>

</rdf:RDF>
</metadata>
<rect id="_8" x="0" y="0" width="32" height="32" style="fill:none;"/><clipPath id="_clip1"><rect x="0" y="0" width="32" height="32"/></clipPath><g clip-path="url(#_clip1)"><g id="outline"><path d="M32,8c0,-4.418 -3.582,-8 -8,-8c-4.887,0 -11.113,0 -16,0c-4.418,0 -8,3.582 -8,8c0,4.887 0,11.113 0,16c0,4.418 3.582,8 8,8c4.887,0 11.113,0 16,0c4.418,0 8,-3.582 8,-8c0,-4.887 0,-11.113 0,-16Z"/></g><g id="emoji"><path d="M30,8c0,-1.591 -0.632,-3.117 -1.757,-4.243c-1.126,-1.125 -2.652,-1.757 -4.243,-1.757c-4.724,0 -11.276,0 -16,0c-1.591,0 -3.117,0.632 -4.243,1.757c-1.125,1.126 -1.757,2.652 -1.757,4.243c0,4.724 0,11.276 0,16c0,1.591 0.632,3.117 1.757,4.243c1.126,1.125 2.652,1.757 4.243,1.757c4.724,0 11.276,0 16,0c1.591,0 3.117,-0.632 4.243,-1.757c1.125,-1.126 1.757,-2.652 1.757,-4.243c0,-4.724 0,-11.276 0,-16Z" style="fill:#808080;"/><path d="M20.105,9.433c1.12,0.805 1.679,1.829 1.679,3.071c0,0.751 -0.256,1.422 -0.77,2.012c-0.514,0.591 -1.254,0.97 -2.22,1.139c1.273,0.506 2.155,1.02 2.645,1.541c0.583,0.613 0.874,1.38 0.874,2.3c0,1.273 -0.552,2.3 -1.656,3.082c-1.15,0.797 -2.706,1.196 -4.669,1.196c-1.886,0 -3.411,-0.414 -4.577,-1.242c-1.15,-0.797 -1.725,-1.832 -1.725,-3.105c0,-0.935 0.326,-1.691 0.978,-2.266c0.652,-0.575 1.483,-0.923 2.495,-1.046c-1.334,-0.644 -2.238,-1.48 -2.714,-2.507c-0.168,-0.383 -0.253,-0.82 -0.253,-1.311c0,-1.257 0.503,-2.25 1.507,-2.979c1.004,-0.728 2.377,-1.092 4.117,-1.092c1.74,0 3.17,0.402 4.289,1.207Zm-4.577,7.625c-1.395,0.092 -2.338,0.537 -2.829,1.334c-0.138,0.23 -0.207,0.498 -0.207,0.805c0,0.307 0.092,0.59 0.276,0.851c0.184,0.261 0.437,0.483 0.759,0.667c0.614,0.368 1.476,0.552 2.588,0.552c1.112,0 1.955,-0.15 2.53,-0.449c0.575,-0.299 0.862,-0.667 0.862,-1.104c0,-0.437 -0.141,-0.789 -0.425,-1.058c-0.284,-0.268 -0.671,-0.502 -1.162,-0.701l-2.392,-0.897Zm-1.012,-3.059l1.725,0.667c0.736,0 1.38,-0.184 1.932,-0.552c0.537,-0.368 0.805,-0.851 0.805,-1.449c0,-0.598 -0.276,-1.077 -0.828,-1.438c-0.552,-0.36 -1.272,-0.54 -2.162,-0.54c-0.858,0 -1.571,0.161 -2.139,0.483c-0.567,0.322 -0.851,0.77 -0.851,1.345c0,0.575 0.506,1.07 1.518,1.484Z" style="fill:#fff;fill-rule:nonzero;"/></g></g></svg>